<svg width="24" height="24" viewBox="0 0 24 24" fill="none" xmlns="http://www.w3.org/2000/svg">
<path d="M12.7895 7.78947C12.7895 7.58009 12.7063 7.37929 12.5582 7.23123C12.4102 7.08318 12.2094 7 12 7C11.7906 7 11.5898 7.08318 11.4418 7.23123C11.2937 7.37929 11.2105 7.58009 11.2105 7.78947V11.2105H7.78947C7.58009 11.2105 7.37929 11.2937 7.23123 11.4418C7.08318 11.5898 7 11.7906 7 12C7 12.2094 7.08318 12.4102 7.23123 12.5582C7.37929 12.7063 7.58009 12.7895 7.78947 12.7895H11.2105V16.2105C11.2105 16.4199 11.2937 16.6207 11.4418 16.7688C11.5898 16.9168 11.7906 17 12 17C12.2094 17 12.4102 16.9168 12.5582 16.7688C12.7063 16.6207 12.7895 16.4199 12.7895 16.2105V12.7895H16.2105C16.4199 12.7895 16.6207 12.7063 16.7688 12.5582C16.9168 12.4102 17 12.2094 17 12C17 11.7906 16.9168 11.5898 16.7688 11.4418C16.6207 11.2937 16.4199 11.2105 16.2105 11.2105H12.7895V7.78947Z" fill="#1E3F5C"/>
</svg>
