<svg width="19" height="16" viewBox="0 0 19 16" fill="none" xmlns="http://www.w3.org/2000/svg">
<path d="M18.5156 7.4375C18.6719 7.4375 18.75 7.51562 18.75 7.67188V8.14062C18.75 8.29688 18.6719 8.375 18.5156 8.375H15.9375V10.9531C15.9375 11.1094 15.8594 11.1875 15.7031 11.1875H15.2344C15.0781 11.1875 15 11.1094 15 10.9531V8.375H12.4219C12.2656 8.375 12.1875 8.29688 12.1875 8.14062V7.67188C12.1875 7.51562 12.2656 7.4375 12.4219 7.4375H15V4.85938C15 4.70312 15.0781 4.625 15.2344 4.625H15.7031C15.8594 4.625 15.9375 4.70312 15.9375 4.85938V7.4375H18.5156ZM9.19922 9.3125C10.2734 9.3125 11.1914 9.70312 11.9531 10.4844C12.7344 11.2461 13.125 12.1641 13.125 13.2383V14.4688C13.125 14.8594 12.9883 15.1914 12.7148 15.4648C12.4414 15.7383 12.1094 15.875 11.7188 15.875H1.40625C1.01562 15.875 0.683594 15.7383 0.410156 15.4648C0.136719 15.1914 0 14.8594 0 14.4688V13.2383C0 12.1641 0.380859 11.2461 1.14258 10.4844C1.92383 9.70312 2.85156 9.3125 3.92578 9.3125C4.17969 9.3125 4.55078 9.39062 5.03906 9.54688C5.54688 9.70312 6.05469 9.78125 6.5625 9.78125C7.07031 9.78125 7.57813 9.70312 8.08594 9.54688C8.59375 9.39062 8.96484 9.3125 9.19922 9.3125ZM12.1875 14.4688V13.2383C12.1875 12.418 11.8945 11.7148 11.3086 11.1289C10.7227 10.543 10.0195 10.25 9.19922 10.25C9.08203 10.25 8.75 10.3281 8.20312 10.4844C7.67578 10.6406 7.12891 10.7188 6.5625 10.7188C5.99609 10.7188 5.43945 10.6406 4.89258 10.4844C4.36523 10.3281 4.04297 10.25 3.92578 10.25C3.10547 10.25 2.40234 10.543 1.81641 11.1289C1.23047 11.7148 0.9375 12.418 0.9375 13.2383V14.4688C0.9375 14.6055 0.976563 14.7129 1.05469 14.791C1.15234 14.8887 1.26953 14.9375 1.40625 14.9375H11.7188C11.8555 14.9375 11.9629 14.8887 12.041 14.791C12.1387 14.7129 12.1875 14.6055 12.1875 14.4688ZM9.19922 7.29102C8.47656 8.01367 7.59766 8.375 6.5625 8.375C5.52734 8.375 4.63867 8.01367 3.89648 7.29102C3.17383 6.54883 2.8125 5.66016 2.8125 4.625C2.8125 3.58984 3.17383 2.71094 3.89648 1.98828C4.63867 1.24609 5.52734 0.875 6.5625 0.875C7.59766 0.875 8.47656 1.24609 9.19922 1.98828C9.94141 2.71094 10.3125 3.58984 10.3125 4.625C10.3125 5.66016 9.94141 6.54883 9.19922 7.29102ZM8.55469 2.63281C8.00781 2.08594 7.34375 1.8125 6.5625 1.8125C5.78125 1.8125 5.11719 2.08594 4.57031 2.63281C4.02344 3.17969 3.75 3.84375 3.75 4.625C3.75 5.40625 4.02344 6.07031 4.57031 6.61719C5.11719 7.16406 5.78125 7.4375 6.5625 7.4375C7.34375 7.4375 8.00781 7.16406 8.55469 6.61719C9.10156 6.07031 9.375 5.40625 9.375 4.625C9.375 3.84375 9.10156 3.17969 8.55469 2.63281Z" fill="white"/>
</svg>
