<svg width="357" height="115" viewBox="0 0 357 115" fill="none" xmlns="http://www.w3.org/2000/svg">
<path d="M0 8C0 3.58172 3.58172 0 8 0H349C353.418 0 357 3.58172 357 8V115H0V8Z" fill="#FAFAFA" fill-opacity="0.21"/>
<path d="M8 0.5H349C353.142 0.5 356.5 3.85786 356.5 8V114.5H0.5V8C0.5 3.85787 3.85786 0.5 8 0.5Z" stroke="#A3A2A2" stroke-opacity="0.4"/>
<path d="M24.792 44.24C25.4427 44.3787 25.9653 44.704 26.36 45.216C26.7547 45.7173 26.952 46.2933 26.952 46.944C26.952 47.8827 26.6213 48.6293 25.96 49.184C25.3093 49.728 24.3973 50 23.224 50H17.992V38.768H23.048C24.1893 38.768 25.08 39.0293 25.72 39.552C26.3707 40.0747 26.696 40.784 26.696 41.68C26.696 42.3413 26.52 42.8907 26.168 43.328C25.8267 43.7653 25.368 44.0693 24.792 44.24ZM20.728 43.312H22.52C22.968 43.312 23.3093 43.216 23.544 43.024C23.7893 42.8213 23.912 42.528 23.912 42.144C23.912 41.76 23.7893 41.4667 23.544 41.264C23.3093 41.0613 22.968 40.96 22.52 40.96H20.728V43.312ZM22.744 47.792C23.2027 47.792 23.5547 47.6907 23.8 47.488C24.056 47.2747 24.184 46.9707 24.184 46.576C24.184 46.1813 24.0507 45.872 23.784 45.648C23.528 45.424 23.1707 45.312 22.712 45.312H20.728V47.792H22.744ZM35.5309 48.016H31.3389L30.6669 50H27.8029L31.8669 38.768H35.0349L39.0989 50H36.2029L35.5309 48.016ZM34.8269 45.904L33.4349 41.792L32.0589 45.904H34.8269ZM44.3998 50.112C43.5784 50.112 42.8424 49.9787 42.1918 49.712C41.5411 49.4453 41.0184 49.0507 40.6238 48.528C40.2398 48.0053 40.0371 47.376 40.0158 46.64H42.9278C42.9704 47.056 43.1144 47.376 43.3598 47.6C43.6051 47.8133 43.9251 47.92 44.3198 47.92C44.7251 47.92 45.0451 47.8293 45.2798 47.648C45.5144 47.456 45.6318 47.1947 45.6318 46.864C45.6318 46.5867 45.5358 46.3573 45.3438 46.176C45.1624 45.9947 44.9331 45.8453 44.6558 45.728C44.3891 45.6107 44.0051 45.4773 43.5038 45.328C42.7784 45.104 42.1864 44.88 41.7278 44.656C41.2691 44.432 40.8744 44.1013 40.5438 43.664C40.2131 43.2267 40.0478 42.656 40.0478 41.952C40.0478 40.9067 40.4264 40.0907 41.1838 39.504C41.9411 38.9067 42.9278 38.608 44.1438 38.608C45.3811 38.608 46.3784 38.9067 47.1358 39.504C47.8931 40.0907 48.2984 40.912 48.3518 41.968H45.3918C45.3704 41.6053 45.2371 41.3227 44.9918 41.12C44.7464 40.9067 44.4318 40.8 44.0477 40.8C43.7171 40.8 43.4504 40.8907 43.2478 41.072C43.0451 41.2427 42.9438 41.4933 42.9438 41.824C42.9438 42.1867 43.1144 42.4693 43.4557 42.672C43.7971 42.8747 44.3304 43.0933 45.0558 43.328C45.7811 43.5733 46.3678 43.808 46.8158 44.032C47.2744 44.256 47.6691 44.5813 47.9998 45.008C48.3304 45.4347 48.4958 45.984 48.4958 46.656C48.4958 47.296 48.3304 47.8773 47.9998 48.4C47.6798 48.9227 47.2104 49.3387 46.5918 49.648C45.9731 49.9573 45.2424 50.112 44.3998 50.112ZM52.9155 38.768V50H50.1795V38.768H52.9155ZM54.4342 44.368C54.4342 43.2587 54.6743 42.272 55.1543 41.408C55.6343 40.5333 56.3009 39.856 57.1543 39.376C58.0183 38.8853 58.9943 38.64 60.0823 38.64C61.4156 38.64 62.5569 38.992 63.5063 39.696C64.4556 40.4 65.0903 41.36 65.4103 42.576H62.4023C62.1783 42.1067 61.8583 41.7493 61.4423 41.504C61.0369 41.2587 60.5729 41.136 60.0503 41.136C59.2076 41.136 58.5249 41.4293 58.0023 42.016C57.4796 42.6027 57.2183 43.3867 57.2183 44.368C57.2183 45.3493 57.4796 46.1333 58.0023 46.72C58.5249 47.3067 59.2076 47.6 60.0503 47.6C60.5729 47.6 61.0369 47.4773 61.4423 47.232C61.8583 46.9867 62.1783 46.6293 62.4023 46.16H65.4103C65.0903 47.376 64.4556 48.336 63.5063 49.04C62.5569 49.7333 61.4156 50.08 60.0823 50.08C58.9943 50.08 58.0183 49.84 57.1543 49.36C56.3009 48.8693 55.6343 48.192 55.1543 47.328C54.6743 46.464 54.4342 45.4773 54.4342 44.368Z" fill="#142A3D"/>
<path d="M21.768 68.424V69.016H19.344V70.896H21.312V71.488H19.344V74H18.616V68.424H21.768ZM23.0233 68.904C22.8846 68.904 22.7673 68.856 22.6713 68.76C22.5753 68.664 22.5273 68.5467 22.5273 68.408C22.5273 68.2693 22.5753 68.152 22.6713 68.056C22.7673 67.96 22.8846 67.912 23.0233 67.912C23.1566 67.912 23.2686 67.96 23.3593 68.056C23.4553 68.152 23.5033 68.2693 23.5033 68.408C23.5033 68.5467 23.4553 68.664 23.3593 68.76C23.2686 68.856 23.1566 68.904 23.0233 68.904ZM23.3753 69.616V74H22.6473V69.616H23.3753ZM25.504 70.216V72.8C25.504 73.0133 25.5493 73.1653 25.64 73.256C25.7307 73.3413 25.888 73.384 26.112 73.384H26.648V74H25.992C25.5867 74 25.2827 73.9067 25.08 73.72C24.8773 73.5333 24.776 73.2267 24.776 72.8V70.216H24.208V69.616H24.776V68.512H25.504V69.616H26.648V70.216H25.504ZM29.6661 69.536C30.1994 69.536 30.6314 69.6987 30.9621 70.024C31.2927 70.344 31.4581 70.808 31.4581 71.416V74H30.7381V71.52C30.7381 71.0827 30.6287 70.7493 30.4101 70.52C30.1914 70.2853 29.8927 70.168 29.5141 70.168C29.1301 70.168 28.8234 70.288 28.5941 70.528C28.3701 70.768 28.2581 71.1173 28.2581 71.576V74H27.5301V69.616H28.2581V70.24C28.4021 70.016 28.5967 69.8427 28.8421 69.72C29.0927 69.5973 29.3674 69.536 29.6661 69.536ZM36.6473 71.64C36.6473 71.7787 36.6393 71.9253 36.6233 72.08H33.1193C33.1459 72.512 33.2926 72.8507 33.5593 73.096C33.8313 73.336 34.1593 73.456 34.5433 73.456C34.8579 73.456 35.1193 73.384 35.3273 73.24C35.5406 73.0907 35.6899 72.8933 35.7753 72.648H36.5593C36.4419 73.0693 36.2073 73.4133 35.8553 73.68C35.5033 73.9413 35.0659 74.072 34.5433 74.072C34.1273 74.072 33.7539 73.9787 33.4233 73.792C33.0979 73.6053 32.8419 73.3413 32.6553 73C32.4686 72.6533 32.3753 72.2533 32.3753 71.8C32.3753 71.3467 32.4659 70.9493 32.6473 70.608C32.8286 70.2667 33.0819 70.0053 33.4073 69.824C33.7379 69.6373 34.1166 69.544 34.5433 69.544C34.9593 69.544 35.3273 69.6347 35.6473 69.816C35.9673 69.9973 36.2126 70.248 36.3833 70.568C36.5593 70.8827 36.6473 71.24 36.6473 71.64ZM35.8953 71.488C35.8953 71.2107 35.8339 70.9733 35.7113 70.776C35.5886 70.5733 35.4206 70.4213 35.2073 70.32C34.9993 70.2133 34.7673 70.16 34.5113 70.16C34.1433 70.16 33.8286 70.2773 33.5673 70.512C33.3113 70.7467 33.1646 71.072 33.1273 71.488H35.8953ZM39.1602 74.072C38.8242 74.072 38.5229 74.016 38.2562 73.904C37.9895 73.7867 37.7789 73.6267 37.6242 73.424C37.4695 73.216 37.3842 72.9787 37.3682 72.712H38.1202C38.1415 72.9307 38.2429 73.1093 38.4242 73.248C38.6109 73.3867 38.8535 73.456 39.1522 73.456C39.4295 73.456 39.6482 73.3947 39.8082 73.272C39.9682 73.1493 40.0482 72.9947 40.0482 72.808C40.0482 72.616 39.9629 72.4747 39.7922 72.384C39.6215 72.288 39.3575 72.1947 39.0002 72.104C38.6749 72.0187 38.4082 71.9333 38.2002 71.848C37.9975 71.7573 37.8215 71.6267 37.6722 71.456C37.5282 71.28 37.4562 71.0507 37.4562 70.768C37.4562 70.544 37.5229 70.3387 37.6562 70.152C37.7895 69.9653 37.9789 69.8187 38.2242 69.712C38.4695 69.6 38.7495 69.544 39.0642 69.544C39.5495 69.544 39.9415 69.6667 40.2402 69.912C40.5389 70.1573 40.6989 70.4933 40.7202 70.92H39.9922C39.9762 70.6907 39.8829 70.5067 39.7122 70.368C39.5469 70.2293 39.3229 70.16 39.0402 70.16C38.7789 70.16 38.5709 70.216 38.4162 70.328C38.2615 70.44 38.1842 70.5867 38.1842 70.768C38.1842 70.912 38.2295 71.032 38.3202 71.128C38.4162 71.2187 38.5335 71.2933 38.6722 71.352C38.8162 71.4053 39.0135 71.4667 39.2642 71.536C39.5789 71.6213 39.8349 71.7067 40.0322 71.792C40.2295 71.872 40.3975 71.9947 40.5362 72.16C40.6802 72.3253 40.7549 72.5413 40.7602 72.808C40.7602 73.048 40.6935 73.264 40.5602 73.456C40.4269 73.648 40.2375 73.8 39.9922 73.912C39.7522 74.0187 39.4749 74.072 39.1602 74.072ZM43.3399 74.072C43.0039 74.072 42.7025 74.016 42.4359 73.904C42.1692 73.7867 41.9585 73.6267 41.8039 73.424C41.6492 73.216 41.5639 72.9787 41.5479 72.712H42.2999C42.3212 72.9307 42.4225 73.1093 42.6039 73.248C42.7905 73.3867 43.0332 73.456 43.3319 73.456C43.6092 73.456 43.8279 73.3947 43.9879 73.272C44.1479 73.1493 44.2279 72.9947 44.2279 72.808C44.2279 72.616 44.1425 72.4747 43.9719 72.384C43.8012 72.288 43.5372 72.1947 43.1799 72.104C42.8545 72.0187 42.5879 71.9333 42.3799 71.848C42.1772 71.7573 42.0012 71.6267 41.8519 71.456C41.7079 71.28 41.6359 71.0507 41.6359 70.768C41.6359 70.544 41.7025 70.3387 41.8359 70.152C41.9692 69.9653 42.1585 69.8187 42.4039 69.712C42.6492 69.6 42.9292 69.544 43.2439 69.544C43.7292 69.544 44.1212 69.6667 44.4199 69.912C44.7185 70.1573 44.8785 70.4933 44.8999 70.92H44.1719C44.1559 70.6907 44.0625 70.5067 43.8919 70.368C43.7265 70.2293 43.5025 70.16 43.2199 70.16C42.9585 70.16 42.7505 70.216 42.5959 70.328C42.4412 70.44 42.3639 70.5867 42.3639 70.768C42.3639 70.912 42.4092 71.032 42.4999 71.128C42.5959 71.2187 42.7132 71.2933 42.8519 71.352C42.9959 71.4053 43.1932 71.4667 43.4439 71.536C43.7585 71.6213 44.0145 71.7067 44.2119 71.792C44.4092 71.872 44.5772 71.9947 44.7159 72.16C44.8599 72.3253 44.9345 72.5413 44.9399 72.808C44.9399 73.048 44.8732 73.264 44.7399 73.456C44.6065 73.648 44.4172 73.8 44.1719 73.912C43.9319 74.0187 43.6545 74.072 43.3399 74.072ZM52.3804 74L51.6524 73.264C51.3804 73.5467 51.0897 73.7573 50.7804 73.896C50.471 74.0293 50.1217 74.096 49.7324 74.096C49.3484 74.096 49.007 74.0267 48.7084 73.888C48.415 73.7493 48.1857 73.552 48.0204 73.296C47.8604 73.04 47.7804 72.7413 47.7804 72.4C47.7804 72.0107 47.8897 71.6693 48.1084 71.376C48.3324 71.0773 48.6604 70.8427 49.0924 70.672C48.9217 70.4693 48.799 70.2827 48.7244 70.112C48.6497 69.9413 48.6124 69.7547 48.6124 69.552C48.6124 69.3173 48.671 69.1067 48.7884 68.92C48.911 68.728 49.0844 68.5787 49.3084 68.472C49.5324 68.3653 49.791 68.312 50.0844 68.312C50.3724 68.312 50.623 68.368 50.8364 68.48C51.0497 68.592 51.2097 68.7493 51.3164 68.952C51.423 69.1493 51.471 69.3707 51.4604 69.616H50.7324C50.7377 69.3973 50.6764 69.2267 50.5484 69.104C50.4204 68.976 50.255 68.912 50.0524 68.912C49.839 68.912 49.6657 68.9733 49.5324 69.096C49.4044 69.2133 49.3404 69.3653 49.3404 69.552C49.3404 69.712 49.383 69.8667 49.4684 70.016C49.559 70.1653 49.7084 70.3493 49.9164 70.568L51.5804 72.24L51.7244 72.016L52.2684 71.104H53.0524L52.3964 72.24C52.3057 72.4 52.199 72.568 52.0764 72.744L53.3324 74H52.3804ZM49.7324 73.472C50.0204 73.472 50.279 73.416 50.5084 73.304C50.743 73.192 50.9644 73.0187 51.1724 72.784L49.5324 71.136C48.8497 71.3973 48.5084 71.8107 48.5084 72.376C48.5084 72.6907 48.6204 72.952 48.8444 73.16C49.0737 73.368 49.3697 73.472 49.7324 73.472ZM63.1553 68.424L61.5393 74H60.7233L59.4273 69.512L58.0833 74L57.2753 74.008L55.7153 68.424H56.4913L57.7073 73.152L59.0513 68.424H59.8673L61.1473 73.136L62.3713 68.424H63.1553ZM67.9519 71.64C67.9519 71.7787 67.9439 71.9253 67.9279 72.08H64.4239C64.4506 72.512 64.5973 72.8507 64.8639 73.096C65.1359 73.336 65.4639 73.456 65.8479 73.456C66.1626 73.456 66.4239 73.384 66.6319 73.24C66.8453 73.0907 66.9946 72.8933 67.0799 72.648H67.8639C67.7466 73.0693 67.5119 73.4133 67.1599 73.68C66.8079 73.9413 66.3706 74.072 65.8479 74.072C65.4319 74.072 65.0586 73.9787 64.7279 73.792C64.4026 73.6053 64.1466 73.3413 63.9599 73C63.7733 72.6533 63.6799 72.2533 63.6799 71.8C63.6799 71.3467 63.7706 70.9493 63.9519 70.608C64.1333 70.2667 64.3866 70.0053 64.7119 69.824C65.0426 69.6373 65.4213 69.544 65.8479 69.544C66.2639 69.544 66.6319 69.6347 66.9519 69.816C67.2719 69.9973 67.5173 70.248 67.6879 70.568C67.8639 70.8827 67.9519 71.24 67.9519 71.64ZM67.1999 71.488C67.1999 71.2107 67.1386 70.9733 67.0159 70.776C66.8933 70.5733 66.7253 70.4213 66.5119 70.32C66.3039 70.2133 66.0719 70.16 65.8159 70.16C65.4479 70.16 65.1333 70.2773 64.8719 70.512C64.6159 70.7467 64.4693 71.072 64.4319 71.488H67.1999ZM69.6409 68.08V74H68.9129V68.08H69.6409ZM71.6096 68.08V74H70.8816V68.08H71.6096ZM74.9864 69.536C75.5197 69.536 75.9517 69.6987 76.2824 70.024C76.613 70.344 76.7784 70.808 76.7784 71.416V74H76.0584V71.52C76.0584 71.0827 75.949 70.7493 75.7304 70.52C75.5117 70.2853 75.213 70.168 74.8344 70.168C74.4504 70.168 74.1437 70.288 73.9144 70.528C73.6904 70.768 73.5784 71.1173 73.5784 71.576V74H72.8504V69.616H73.5784V70.24C73.7224 70.016 73.917 69.8427 74.1624 69.72C74.413 69.5973 74.6877 69.536 74.9864 69.536ZM81.9676 71.64C81.9676 71.7787 81.9596 71.9253 81.9436 72.08H78.4396C78.4662 72.512 78.6129 72.8507 78.8796 73.096C79.1516 73.336 79.4796 73.456 79.8636 73.456C80.1782 73.456 80.4396 73.384 80.6476 73.24C80.8609 73.0907 81.0102 72.8933 81.0956 72.648H81.8796C81.7622 73.0693 81.5276 73.4133 81.1756 73.68C80.8236 73.9413 80.3862 74.072 79.8636 74.072C79.4476 74.072 79.0742 73.9787 78.7436 73.792C78.4182 73.6053 78.1622 73.3413 77.9756 73C77.7889 72.6533 77.6956 72.2533 77.6956 71.8C77.6956 71.3467 77.7862 70.9493 77.9676 70.608C78.1489 70.2667 78.4022 70.0053 78.7276 69.824C79.0582 69.6373 79.4369 69.544 79.8636 69.544C80.2796 69.544 80.6476 69.6347 80.9676 69.816C81.2876 69.9973 81.5329 70.248 81.7036 70.568C81.8796 70.8827 81.9676 71.24 81.9676 71.64ZM81.2156 71.488C81.2156 71.2107 81.1542 70.9733 81.0316 70.776C80.9089 70.5733 80.7409 70.4213 80.5276 70.32C80.3196 70.2133 80.0876 70.16 79.8316 70.16C79.4636 70.16 79.1489 70.2773 78.8876 70.512C78.6316 70.7467 78.4849 71.072 78.4476 71.488H81.2156ZM84.4805 74.072C84.1445 74.072 83.8432 74.016 83.5765 73.904C83.3098 73.7867 83.0992 73.6267 82.9445 73.424C82.7898 73.216 82.7045 72.9787 82.6885 72.712H83.4405C83.4618 72.9307 83.5632 73.1093 83.7445 73.248C83.9312 73.3867 84.1738 73.456 84.4725 73.456C84.7498 73.456 84.9685 73.3947 85.1285 73.272C85.2885 73.1493 85.3685 72.9947 85.3685 72.808C85.3685 72.616 85.2832 72.4747 85.1125 72.384C84.9418 72.288 84.6778 72.1947 84.3205 72.104C83.9952 72.0187 83.7285 71.9333 83.5205 71.848C83.3178 71.7573 83.1418 71.6267 82.9925 71.456C82.8485 71.28 82.7765 71.0507 82.7765 70.768C82.7765 70.544 82.8432 70.3387 82.9765 70.152C83.1098 69.9653 83.2992 69.8187 83.5445 69.712C83.7898 69.6 84.0698 69.544 84.3845 69.544C84.8698 69.544 85.2618 69.6667 85.5605 69.912C85.8592 70.1573 86.0192 70.4933 86.0405 70.92H85.3125C85.2965 70.6907 85.2032 70.5067 85.0325 70.368C84.8672 70.2293 84.6432 70.16 84.3605 70.16C84.0992 70.16 83.8912 70.216 83.7365 70.328C83.5818 70.44 83.5045 70.5867 83.5045 70.768C83.5045 70.912 83.5498 71.032 83.6405 71.128C83.7365 71.2187 83.8538 71.2933 83.9925 71.352C84.1365 71.4053 84.3338 71.4667 84.5845 71.536C84.8992 71.6213 85.1552 71.7067 85.3525 71.792C85.5498 71.872 85.7178 71.9947 85.8565 72.16C86.0005 72.3253 86.0752 72.5413 86.0805 72.808C86.0805 73.048 86.0138 73.264 85.8805 73.456C85.7472 73.648 85.5578 73.8 85.3125 73.912C85.0725 74.0187 84.7952 74.072 84.4805 74.072ZM88.6602 74.072C88.3242 74.072 88.0229 74.016 87.7562 73.904C87.4895 73.7867 87.2789 73.6267 87.1242 73.424C86.9695 73.216 86.8842 72.9787 86.8682 72.712H87.6202C87.6415 72.9307 87.7429 73.1093 87.9242 73.248C88.1109 73.3867 88.3535 73.456 88.6522 73.456C88.9295 73.456 89.1482 73.3947 89.3082 73.272C89.4682 73.1493 89.5482 72.9947 89.5482 72.808C89.5482 72.616 89.4629 72.4747 89.2922 72.384C89.1215 72.288 88.8575 72.1947 88.5002 72.104C88.1749 72.0187 87.9082 71.9333 87.7002 71.848C87.4975 71.7573 87.3215 71.6267 87.1722 71.456C87.0282 71.28 86.9562 71.0507 86.9562 70.768C86.9562 70.544 87.0229 70.3387 87.1562 70.152C87.2895 69.9653 87.4789 69.8187 87.7242 69.712C87.9695 69.6 88.2495 69.544 88.5642 69.544C89.0495 69.544 89.4415 69.6667 89.7402 69.912C90.0389 70.1573 90.1989 70.4933 90.2202 70.92H89.4922C89.4762 70.6907 89.3829 70.5067 89.2122 70.368C89.0469 70.2293 88.8229 70.16 88.5402 70.16C88.2789 70.16 88.0709 70.216 87.9162 70.328C87.7615 70.44 87.6842 70.5867 87.6842 70.768C87.6842 70.912 87.7295 71.032 87.8202 71.128C87.9162 71.2187 88.0335 71.2933 88.1722 71.352C88.3162 71.4053 88.5135 71.4667 88.7642 71.536C89.0789 71.6213 89.3349 71.7067 89.5322 71.792C89.7295 71.872 89.8975 71.9947 90.0362 72.16C90.1802 72.3253 90.2549 72.5413 90.2602 72.808C90.2602 73.048 90.1935 73.264 90.0602 73.456C89.9269 73.648 89.7375 73.8 89.4922 73.912C89.2522 74.0187 88.9749 74.072 88.6602 74.072ZM98.0287 68.424L95.9247 74H95.0847L92.9807 68.424H93.7567L95.5087 73.232L97.2607 68.424H98.0287ZM101.355 74.056C100.838 74.056 100.366 73.936 99.9389 73.696C99.5123 73.4507 99.1736 73.112 98.9229 72.68C98.6776 72.2427 98.5549 71.752 98.5549 71.208C98.5549 70.664 98.6776 70.176 98.9229 69.744C99.1736 69.3067 99.5123 68.968 99.9389 68.728C100.366 68.4827 100.838 68.36 101.355 68.36C101.878 68.36 102.352 68.4827 102.779 68.728C103.206 68.968 103.542 69.304 103.787 69.736C104.032 70.168 104.155 70.6587 104.155 71.208C104.155 71.7573 104.032 72.248 103.787 72.68C103.542 73.112 103.206 73.4507 102.779 73.696C102.352 73.936 101.878 74.056 101.355 74.056ZM101.355 73.424C101.744 73.424 102.094 73.3333 102.403 73.152C102.718 72.9707 102.963 72.712 103.139 72.376C103.32 72.04 103.411 71.6507 103.411 71.208C103.411 70.76 103.32 70.3707 103.139 70.04C102.963 69.704 102.72 69.4453 102.411 69.264C102.102 69.0827 101.75 68.992 101.355 68.992C100.96 68.992 100.608 69.0827 100.299 69.264C99.9896 69.4453 99.7443 69.704 99.5629 70.04C99.3869 70.3707 99.2989 70.76 99.2989 71.208C99.2989 71.6507 99.3869 72.04 99.5629 72.376C99.7443 72.712 99.9896 72.9707 100.299 73.152C100.614 73.3333 100.966 73.424 101.355 73.424ZM106.852 68.424C107.46 68.424 107.985 68.5387 108.428 68.768C108.876 68.992 109.217 69.3147 109.452 69.736C109.692 70.1573 109.812 70.6533 109.812 71.224C109.812 71.7947 109.692 72.2907 109.452 72.712C109.217 73.128 108.876 73.448 108.428 73.672C107.985 73.8907 107.46 74 106.852 74H105.116V68.424H106.852ZM106.852 73.4C107.572 73.4 108.121 73.2107 108.5 72.832C108.879 72.448 109.068 71.912 109.068 71.224C109.068 70.5307 108.876 69.9893 108.492 69.6C108.113 69.2107 107.567 69.016 106.852 69.016H105.844V73.4H106.852ZM116.201 72.76H113.769L113.321 74H112.553L114.569 68.456H115.409L117.417 74H116.649L116.201 72.76ZM115.993 72.168L114.985 69.352L113.977 72.168H115.993ZM118.024 71.8C118.024 71.3467 118.114 70.952 118.296 70.616C118.477 70.2747 118.728 70.0107 119.048 69.824C119.373 69.6373 119.744 69.544 120.16 69.544C120.698 69.544 121.141 69.6747 121.488 69.936C121.84 70.1973 122.072 70.56 122.184 71.024H121.4C121.325 70.7573 121.178 70.5467 120.96 70.392C120.746 70.2373 120.48 70.16 120.16 70.16C119.744 70.16 119.408 70.304 119.152 70.592C118.896 70.8747 118.768 71.2773 118.768 71.8C118.768 72.328 118.896 72.736 119.152 73.024C119.408 73.312 119.744 73.456 120.16 73.456C120.48 73.456 120.746 73.3813 120.96 73.232C121.173 73.0827 121.32 72.8693 121.4 72.592H122.184C122.066 73.04 121.832 73.4 121.48 73.672C121.128 73.9387 120.688 74.072 120.16 74.072C119.744 74.072 119.373 73.9787 119.048 73.792C118.728 73.6053 118.477 73.3413 118.296 73C118.114 72.6587 118.024 72.2587 118.024 71.8ZM122.883 71.8C122.883 71.3467 122.974 70.952 123.155 70.616C123.336 70.2747 123.587 70.0107 123.907 69.824C124.232 69.6373 124.603 69.544 125.019 69.544C125.558 69.544 126 69.6747 126.347 69.936C126.699 70.1973 126.931 70.56 127.043 71.024H126.259C126.184 70.7573 126.038 70.5467 125.819 70.392C125.606 70.2373 125.339 70.16 125.019 70.16C124.603 70.16 124.267 70.304 124.011 70.592C123.755 70.8747 123.627 71.2773 123.627 71.8C123.627 72.328 123.755 72.736 124.011 73.024C124.267 73.312 124.603 73.456 125.019 73.456C125.339 73.456 125.606 73.3813 125.819 73.232C126.032 73.0827 126.179 72.8693 126.259 72.592H127.043C126.926 73.04 126.691 73.4 126.339 73.672C125.987 73.9387 125.547 74.072 125.019 74.072C124.603 74.072 124.232 73.9787 123.907 73.792C123.587 73.6053 123.336 73.3413 123.155 73C122.974 72.6587 122.883 72.2587 122.883 71.8ZM132.014 71.64C132.014 71.7787 132.006 71.9253 131.99 72.08H128.486C128.513 72.512 128.66 72.8507 128.926 73.096C129.198 73.336 129.526 73.456 129.91 73.456C130.225 73.456 130.486 73.384 130.694 73.24C130.908 73.0907 131.057 72.8933 131.142 72.648H131.926C131.809 73.0693 131.574 73.4133 131.222 73.68C130.87 73.9413 130.433 74.072 129.91 74.072C129.494 74.072 129.121 73.9787 128.79 73.792C128.465 73.6053 128.209 73.3413 128.022 73C127.836 72.6533 127.742 72.2533 127.742 71.8C127.742 71.3467 127.833 70.9493 128.014 70.608C128.196 70.2667 128.449 70.0053 128.774 69.824C129.105 69.6373 129.484 69.544 129.91 69.544C130.326 69.544 130.694 69.6347 131.014 69.816C131.334 69.9973 131.58 70.248 131.75 70.568C131.926 70.8827 132.014 71.24 132.014 71.64ZM131.262 71.488C131.262 71.2107 131.201 70.9733 131.078 70.776C130.956 70.5733 130.788 70.4213 130.574 70.32C130.366 70.2133 130.134 70.16 129.878 70.16C129.51 70.16 129.196 70.2773 128.934 70.512C128.678 70.7467 128.532 71.072 128.494 71.488H131.262ZM134.527 74.072C134.191 74.072 133.89 74.016 133.623 73.904C133.357 73.7867 133.146 73.6267 132.991 73.424C132.837 73.216 132.751 72.9787 132.735 72.712H133.487C133.509 72.9307 133.61 73.1093 133.791 73.248C133.978 73.3867 134.221 73.456 134.519 73.456C134.797 73.456 135.015 73.3947 135.175 73.272C135.335 73.1493 135.415 72.9947 135.415 72.808C135.415 72.616 135.33 72.4747 135.159 72.384C134.989 72.288 134.725 72.1947 134.367 72.104C134.042 72.0187 133.775 71.9333 133.567 71.848C133.365 71.7573 133.189 71.6267 133.039 71.456C132.895 71.28 132.823 71.0507 132.823 70.768C132.823 70.544 132.89 70.3387 133.023 70.152C133.157 69.9653 133.346 69.8187 133.591 69.712C133.837 69.6 134.117 69.544 134.431 69.544C134.917 69.544 135.309 69.6667 135.607 69.912C135.906 70.1573 136.066 70.4933 136.087 70.92H135.359C135.343 70.6907 135.25 70.5067 135.079 70.368C134.914 70.2293 134.69 70.16 134.407 70.16C134.146 70.16 133.938 70.216 133.783 70.328C133.629 70.44 133.551 70.5867 133.551 70.768C133.551 70.912 133.597 71.032 133.687 71.128C133.783 71.2187 133.901 71.2933 134.039 71.352C134.183 71.4053 134.381 71.4667 134.631 71.536C134.946 71.6213 135.202 71.7067 135.399 71.792C135.597 71.872 135.765 71.9947 135.903 72.16C136.047 72.3253 136.122 72.5413 136.127 72.808C136.127 73.048 136.061 73.264 135.927 73.456C135.794 73.648 135.605 73.8 135.359 73.912C135.119 74.0187 134.842 74.072 134.527 74.072ZM138.707 74.072C138.371 74.072 138.07 74.016 137.803 73.904C137.536 73.7867 137.326 73.6267 137.171 73.424C137.016 73.216 136.931 72.9787 136.915 72.712H137.667C137.688 72.9307 137.79 73.1093 137.971 73.248C138.158 73.3867 138.4 73.456 138.699 73.456C138.976 73.456 139.195 73.3947 139.355 73.272C139.515 73.1493 139.595 72.9947 139.595 72.808C139.595 72.616 139.51 72.4747 139.339 72.384C139.168 72.288 138.904 72.1947 138.547 72.104C138.222 72.0187 137.955 71.9333 137.747 71.848C137.544 71.7573 137.368 71.6267 137.219 71.456C137.075 71.28 137.003 71.0507 137.003 70.768C137.003 70.544 137.07 70.3387 137.203 70.152C137.336 69.9653 137.526 69.8187 137.771 69.712C138.016 69.6 138.296 69.544 138.611 69.544C139.096 69.544 139.488 69.6667 139.787 69.912C140.086 70.1573 140.246 70.4933 140.267 70.92H139.539C139.523 70.6907 139.43 70.5067 139.259 70.368C139.094 70.2293 138.87 70.16 138.587 70.16C138.326 70.16 138.118 70.216 137.963 70.328C137.808 70.44 137.731 70.5867 137.731 70.768C137.731 70.912 137.776 71.032 137.867 71.128C137.963 71.2187 138.08 71.2933 138.219 71.352C138.363 71.4053 138.56 71.4667 138.811 71.536C139.126 71.6213 139.382 71.7067 139.579 71.792C139.776 71.872 139.944 71.9947 140.083 72.16C140.227 72.3253 140.302 72.5413 140.307 72.808C140.307 73.048 140.24 73.264 140.107 73.456C139.974 73.648 139.784 73.8 139.539 73.912C139.299 74.0187 139.022 74.072 138.707 74.072Z" fill="#142A3D"/>
<path d="M230.863 46.718V50.606C230.863 51.032 230.974 51.359 231.196 51.587C231.418 51.809 231.73 51.92 232.132 51.92C232.54 51.92 232.855 51.809 233.077 51.587C233.299 51.359 233.41 51.032 233.41 50.606V46.718H234.679V50.597C234.679 51.131 234.562 51.584 234.328 51.956C234.1 52.322 233.791 52.598 233.401 52.784C233.017 52.97 232.588 53.063 232.114 53.063C231.646 53.063 231.22 52.97 230.836 52.784C230.458 52.598 230.158 52.322 229.936 51.956C229.714 51.584 229.603 51.131 229.603 50.597V46.718H230.863ZM238.065 53.063C237.627 53.063 237.231 52.988 236.877 52.838C236.529 52.688 236.253 52.472 236.049 52.19C235.845 51.908 235.74 51.575 235.734 51.191H237.084C237.102 51.449 237.192 51.653 237.354 51.803C237.522 51.953 237.75 52.028 238.038 52.028C238.332 52.028 238.563 51.959 238.731 51.821C238.899 51.677 238.983 51.491 238.983 51.263C238.983 51.077 238.926 50.924 238.812 50.804C238.698 50.684 238.554 50.591 238.38 50.525C238.212 50.453 237.978 50.375 237.678 50.291C237.27 50.171 236.937 50.054 236.679 49.94C236.427 49.82 236.208 49.643 236.022 49.409C235.842 49.169 235.752 48.851 235.752 48.455C235.752 48.083 235.845 47.759 236.031 47.483C236.217 47.207 236.478 46.997 236.814 46.853C237.15 46.703 237.534 46.628 237.966 46.628C238.614 46.628 239.139 46.787 239.541 47.105C239.949 47.417 240.174 47.855 240.216 48.419H238.83C238.818 48.203 238.725 48.026 238.551 47.888C238.383 47.744 238.158 47.672 237.876 47.672C237.63 47.672 237.432 47.735 237.282 47.861C237.138 47.987 237.066 48.17 237.066 48.41C237.066 48.578 237.12 48.719 237.228 48.833C237.342 48.941 237.48 49.031 237.642 49.103C237.81 49.169 238.044 49.247 238.344 49.337C238.752 49.457 239.085 49.577 239.343 49.697C239.601 49.817 239.823 49.997 240.009 50.237C240.195 50.477 240.288 50.792 240.288 51.182C240.288 51.518 240.201 51.83 240.027 52.118C239.853 52.406 239.598 52.637 239.262 52.811C238.926 52.979 238.527 53.063 238.065 53.063ZM248.007 51.191C248.007 51.503 247.926 51.797 247.764 52.073C247.608 52.343 247.374 52.568 247.062 52.748C246.756 52.922 246.393 53.024 245.973 53.054V53.783H245.397V53.045C244.797 52.991 244.314 52.811 243.948 52.505C243.582 52.193 243.393 51.773 243.381 51.245H244.731C244.767 51.677 244.989 51.938 245.397 52.028V50.309C244.965 50.201 244.617 50.093 244.353 49.985C244.089 49.877 243.861 49.703 243.669 49.463C243.477 49.223 243.381 48.896 243.381 48.482C243.381 47.96 243.567 47.534 243.939 47.204C244.317 46.874 244.803 46.685 245.397 46.637V45.908H245.973V46.637C246.549 46.685 247.008 46.859 247.35 47.159C247.698 47.459 247.893 47.873 247.935 48.401H246.576C246.558 48.227 246.495 48.077 246.387 47.951C246.285 47.819 246.147 47.726 245.973 47.672V49.373C246.423 49.487 246.777 49.598 247.035 49.706C247.299 49.808 247.527 49.979 247.719 50.219C247.911 50.453 248.007 50.777 248.007 51.191ZM244.695 48.419C244.695 48.617 244.755 48.779 244.875 48.905C244.995 49.025 245.169 49.124 245.397 49.202V47.645C245.181 47.675 245.01 47.756 244.884 47.888C244.758 48.02 244.695 48.197 244.695 48.419ZM245.973 52.046C246.201 52.004 246.378 51.911 246.504 51.767C246.636 51.623 246.702 51.449 246.702 51.245C246.702 51.047 246.639 50.888 246.513 50.768C246.387 50.648 246.207 50.549 245.973 50.471V52.046Z" fill="#529DFF"/>
<path d="M255.106 60.986C255.605 60.59 255.832 60.4067 255.788 60.436C257.225 59.248 258.355 58.2727 259.176 57.51C260.012 56.7473 260.716 55.948 261.288 55.112C261.86 54.276 262.146 53.462 262.146 52.67C262.146 52.0687 262.007 51.5993 261.728 51.262C261.449 50.9247 261.031 50.756 260.474 50.756C259.917 50.756 259.477 50.9687 259.154 51.394C258.846 51.8047 258.692 52.3913 258.692 53.154H255.062C255.091 51.9073 255.355 50.866 255.854 50.03C256.367 49.194 257.035 48.578 257.856 48.182C258.692 47.786 259.616 47.588 260.628 47.588C262.373 47.588 263.686 48.0353 264.566 48.93C265.461 49.8247 265.908 50.9907 265.908 52.428C265.908 53.9973 265.373 55.4567 264.302 56.806C263.231 58.1407 261.867 59.446 260.21 60.722H266.15V63.78H255.106V60.986ZM271.194 59.292C271.414 60.4507 272.089 61.03 273.218 61.03C273.996 61.03 274.546 60.6853 274.868 59.996C275.191 59.3067 275.352 58.1847 275.352 56.63C275.03 57.0847 274.59 57.4367 274.032 57.686C273.475 57.9353 272.852 58.06 272.162 58.06C271.224 58.06 270.388 57.8693 269.654 57.488C268.921 57.092 268.342 56.5127 267.916 55.75C267.506 54.9727 267.3 54.034 267.3 52.934C267.3 51.8487 267.52 50.9027 267.96 50.096C268.415 49.2893 269.053 48.666 269.874 48.226C270.71 47.786 271.693 47.566 272.822 47.566C274.993 47.566 276.511 48.2407 277.376 49.59C278.242 50.9393 278.674 52.9267 278.674 55.552C278.674 57.4587 278.498 59.0353 278.146 60.282C277.809 61.514 277.23 62.4527 276.408 63.098C275.602 63.7433 274.494 64.066 273.086 64.066C271.972 64.066 271.018 63.846 270.226 63.406C269.449 62.966 268.848 62.3867 268.422 61.668C268.012 60.9493 267.777 60.1573 267.718 59.292H271.194ZM273.02 55.09C273.636 55.09 274.128 54.9067 274.494 54.54C274.861 54.1587 275.044 53.6453 275.044 53C275.044 52.296 274.854 51.7533 274.472 51.372C274.091 50.9907 273.578 50.8 272.932 50.8C272.287 50.8 271.774 50.998 271.392 51.394C271.026 51.7753 270.842 52.3033 270.842 52.978C270.842 53.6087 271.026 54.122 271.392 54.518C271.774 54.8993 272.316 55.09 273.02 55.09Z" fill="#529DFF"/>
<path d="M289.17 51.58L286.43 62.7H285.53L288.26 51.58H289.17ZM299.782 55.42C300.209 55.42 300.589 55.51 300.922 55.69C301.255 55.8633 301.519 56.1267 301.712 56.48C301.905 56.8333 302.002 57.2633 302.002 57.77V61H301.102V57.9C301.102 57.3533 300.965 56.9367 300.692 56.65C300.425 56.3567 300.062 56.21 299.602 56.21C299.129 56.21 298.752 56.3633 298.472 56.67C298.192 56.97 298.052 57.4067 298.052 57.98V61H297.152V57.9C297.152 57.3533 297.015 56.9367 296.742 56.65C296.475 56.3567 296.112 56.21 295.652 56.21C295.179 56.21 294.802 56.3633 294.522 56.67C294.242 56.97 294.102 57.4067 294.102 57.98V61H293.192V55.52H294.102V56.31C294.282 56.0233 294.522 55.8033 294.822 55.65C295.129 55.4967 295.465 55.42 295.832 55.42C296.292 55.42 296.699 55.5233 297.052 55.73C297.405 55.9367 297.669 56.24 297.842 56.64C297.995 56.2533 298.249 55.9533 298.602 55.74C298.955 55.5267 299.349 55.42 299.782 55.42ZM305.885 61.09C305.371 61.09 304.905 60.9733 304.485 60.74C304.071 60.5067 303.745 60.1767 303.505 59.75C303.271 59.3167 303.155 58.8167 303.155 58.25C303.155 57.69 303.275 57.1967 303.515 56.77C303.761 56.3367 304.095 56.0067 304.515 55.78C304.935 55.5467 305.405 55.43 305.925 55.43C306.445 55.43 306.915 55.5467 307.335 55.78C307.755 56.0067 308.085 56.3333 308.325 56.76C308.571 57.1867 308.695 57.6833 308.695 58.25C308.695 58.8167 308.568 59.3167 308.315 59.75C308.068 60.1767 307.731 60.5067 307.305 60.74C306.878 60.9733 306.405 61.09 305.885 61.09ZM305.885 60.29C306.211 60.29 306.518 60.2133 306.805 60.06C307.091 59.9067 307.321 59.6767 307.495 59.37C307.675 59.0633 307.765 58.69 307.765 58.25C307.765 57.81 307.678 57.4367 307.505 57.13C307.331 56.8233 307.105 56.5967 306.825 56.45C306.545 56.2967 306.241 56.22 305.915 56.22C305.581 56.22 305.275 56.2967 304.995 56.45C304.721 56.5967 304.501 56.8233 304.335 57.13C304.168 57.4367 304.085 57.81 304.085 58.25C304.085 58.6967 304.165 59.0733 304.325 59.38C304.491 59.6867 304.711 59.9167 304.985 60.07C305.258 60.2167 305.558 60.29 305.885 60.29ZM312.561 55.42C313.228 55.42 313.768 55.6233 314.181 56.03C314.594 56.43 314.801 57.01 314.801 57.77V61H313.901V57.9C313.901 57.3533 313.764 56.9367 313.491 56.65C313.218 56.3567 312.844 56.21 312.371 56.21C311.891 56.21 311.508 56.36 311.221 56.66C310.941 56.96 310.801 57.3967 310.801 57.97V61H309.891V55.52H310.801V56.3C310.981 56.02 311.224 55.8033 311.531 55.65C311.844 55.4967 312.188 55.42 312.561 55.42ZM317.398 56.27V59.5C317.398 59.7667 317.454 59.9567 317.568 60.07C317.681 60.1767 317.878 60.23 318.158 60.23H318.828V61H318.008C317.501 61 317.121 60.8833 316.868 60.65C316.614 60.4167 316.488 60.0333 316.488 59.5V56.27H315.778V55.52H316.488V54.14H317.398V55.52H318.828V56.27H317.398ZM322.65 55.42C323.063 55.42 323.437 55.51 323.77 55.69C324.103 55.8633 324.363 56.1267 324.55 56.48C324.743 56.8333 324.84 57.2633 324.84 57.77V61H323.94V57.9C323.94 57.3533 323.803 56.9367 323.53 56.65C323.257 56.3567 322.883 56.21 322.41 56.21C321.93 56.21 321.547 56.36 321.26 56.66C320.98 56.96 320.84 57.3967 320.84 57.97V61H319.93V53.6H320.84V56.3C321.02 56.02 321.267 55.8033 321.58 55.65C321.9 55.4967 322.257 55.42 322.65 55.42ZM327.237 53.6V61H326.327V53.6H327.237ZM333.508 55.52L330.208 63.58H329.268L330.348 60.94L328.138 55.52H329.148L330.868 59.96L332.568 55.52H333.508Z" fill="#529DFF"/>
</svg>
