<svg width="715" height="133" viewBox="0 0 715 133" fill="none" xmlns="http://www.w3.org/2000/svg">
<path d="M0 8C0 3.58172 3.58172 0 8 0H707C711.418 0 715 3.58172 715 8V133H0V8Z" fill="#FAFAFA" fill-opacity="0.21"/>
<path d="M8 0.5H707C711.142 0.5 714.5 3.85786 714.5 8V132.5H0.5V8C0.5 3.85787 3.85786 0.5 8 0.5Z" stroke="#A3A2A2" stroke-opacity="0.4"/>
<path d="M533.898 48.1967V54.2447C533.898 54.9074 534.071 55.4161 534.416 55.7707C534.761 56.1161 535.247 56.2887 535.872 56.2887C536.507 56.2887 536.997 56.1161 537.342 55.7707C537.687 55.4161 537.86 54.9074 537.86 54.2447V48.1967H539.834V54.2307C539.834 55.0614 539.652 55.7661 539.288 56.3447C538.933 56.9141 538.453 57.3434 537.846 57.6327C537.249 57.9221 536.581 58.0668 535.844 58.0668C535.116 58.0668 534.453 57.9221 533.856 57.6327C533.268 57.3434 532.801 56.9141 532.456 56.3447C532.111 55.7661 531.938 55.0614 531.938 54.2307V48.1967H533.898ZM545.102 58.0668C544.42 58.0668 543.804 57.9501 543.254 57.7167C542.712 57.4834 542.283 57.1474 541.966 56.7087C541.648 56.2701 541.485 55.7521 541.476 55.1547H543.576C543.604 55.5561 543.744 55.8734 543.996 56.1067C544.257 56.3401 544.612 56.4567 545.06 56.4567C545.517 56.4567 545.876 56.3494 546.138 56.1347C546.399 55.9107 546.53 55.6214 546.53 55.2667C546.53 54.9774 546.441 54.7394 546.264 54.5527C546.086 54.3661 545.862 54.2214 545.592 54.1187C545.33 54.0067 544.966 53.8854 544.5 53.7547C543.865 53.5681 543.347 53.3861 542.946 53.2087C542.554 53.0221 542.213 52.7467 541.924 52.3827C541.644 52.0094 541.504 51.5147 541.504 50.8988C541.504 50.3201 541.648 49.8161 541.938 49.3867C542.227 48.9574 542.633 48.6307 543.156 48.4067C543.678 48.1734 544.276 48.0567 544.948 48.0567C545.956 48.0567 546.772 48.3041 547.398 48.7987C548.032 49.2841 548.382 49.9654 548.448 50.8427H546.292C546.273 50.5067 546.128 50.2314 545.858 50.0167C545.596 49.7927 545.246 49.6807 544.808 49.6807C544.425 49.6807 544.117 49.7787 543.884 49.9747C543.66 50.1707 543.548 50.4554 543.548 50.8287C543.548 51.0901 543.632 51.3094 543.8 51.4867C543.977 51.6547 544.192 51.7947 544.444 51.9067C544.705 52.0094 545.069 52.1307 545.536 52.2707C546.17 52.4574 546.688 52.6441 547.09 52.8307C547.491 53.0174 547.836 53.2974 548.126 53.6707C548.415 54.0441 548.56 54.5341 548.56 55.1407C548.56 55.6634 548.424 56.1487 548.154 56.5967C547.883 57.0447 547.486 57.4041 546.964 57.6747C546.441 57.9361 545.82 58.0668 545.102 58.0668ZM560.567 55.1547C560.567 55.6401 560.441 56.0974 560.189 56.5267C559.946 56.9467 559.582 57.2967 559.097 57.5767C558.621 57.8474 558.056 58.0061 557.403 58.0528V59.1868H556.507V58.0388C555.574 57.9547 554.822 57.6747 554.253 57.1987C553.684 56.7134 553.39 56.0601 553.371 55.2387H555.471C555.527 55.9107 555.872 56.3167 556.507 56.4567V53.7827C555.835 53.6147 555.294 53.4467 554.883 53.2787C554.472 53.1107 554.118 52.8401 553.819 52.4667C553.52 52.0934 553.371 51.5847 553.371 50.9407C553.371 50.1287 553.66 49.4661 554.239 48.9527C554.827 48.4394 555.583 48.1454 556.507 48.0707V46.9367H557.403V48.0707C558.299 48.1454 559.013 48.4161 559.545 48.8827C560.086 49.3494 560.39 49.9934 560.455 50.8147H558.341C558.313 50.5441 558.215 50.3107 558.047 50.1147C557.888 49.9094 557.674 49.7647 557.403 49.6807V52.3267C558.103 52.5041 558.654 52.6767 559.055 52.8447C559.466 53.0034 559.82 53.2694 560.119 53.6427C560.418 54.0067 560.567 54.5107 560.567 55.1547ZM555.415 50.8427C555.415 51.1507 555.508 51.4027 555.695 51.5987C555.882 51.7854 556.152 51.9394 556.507 52.0607V49.6387C556.171 49.6854 555.905 49.8114 555.709 50.0167C555.513 50.2221 555.415 50.4974 555.415 50.8427ZM557.403 56.4847C557.758 56.4194 558.033 56.2747 558.229 56.0507C558.434 55.8267 558.537 55.5561 558.537 55.2387C558.537 54.9307 558.439 54.6834 558.243 54.4967C558.047 54.3101 557.767 54.1561 557.403 54.0347V56.4847Z" fill="#529DFF"/>
<path d="M574.499 67.616C575.224 67.04 575.555 66.7733 575.491 66.816C577.582 65.088 579.224 63.6693 580.419 62.56C581.635 61.4507 582.659 60.288 583.491 59.072C584.323 57.856 584.739 56.672 584.739 55.52C584.739 54.6453 584.536 53.9627 584.131 53.472C583.726 52.9813 583.118 52.736 582.307 52.736C581.496 52.736 580.856 53.0453 580.387 53.664C579.939 54.2613 579.715 55.1147 579.715 56.224H574.435C574.478 54.4107 574.862 52.896 575.587 51.68C576.334 50.464 577.304 49.568 578.499 48.992C579.715 48.416 581.059 48.128 582.531 48.128C585.07 48.128 586.979 48.7787 588.259 50.08C589.56 51.3813 590.211 53.0773 590.211 55.168C590.211 57.4507 589.432 59.5733 587.875 61.536C586.318 63.4773 584.334 65.376 581.923 67.232H590.563V71.68H574.499V67.616ZM597.9 65.152C598.22 66.8373 599.202 67.68 600.844 67.68C601.975 67.68 602.775 67.1787 603.244 66.176C603.714 65.1733 603.948 63.5413 603.948 61.28C603.479 61.9413 602.839 62.4533 602.028 62.816C601.218 63.1787 600.311 63.36 599.308 63.36C597.943 63.36 596.727 63.0827 595.66 62.528C594.594 61.952 593.751 61.1093 593.132 60C592.535 58.8693 592.236 57.504 592.236 55.904C592.236 54.3253 592.556 52.9493 593.196 51.776C593.858 50.6027 594.786 49.696 595.98 49.056C597.196 48.416 598.626 48.096 600.268 48.096C603.426 48.096 605.634 49.0773 606.892 51.04C608.151 53.0027 608.78 55.8933 608.78 59.712C608.78 62.4853 608.524 64.7787 608.012 66.592C607.522 68.384 606.679 69.7493 605.484 70.688C604.311 71.6267 602.7 72.096 600.652 72.096C599.031 72.096 597.644 71.776 596.492 71.136C595.362 70.496 594.487 69.6533 593.868 68.608C593.271 67.5627 592.93 66.4107 592.844 65.152H597.9ZM600.556 59.04C601.452 59.04 602.167 58.7733 602.7 58.24C603.234 57.6853 603.5 56.9387 603.5 56C603.5 54.976 603.223 54.1867 602.668 53.632C602.114 53.0773 601.367 52.8 600.428 52.8C599.49 52.8 598.743 53.088 598.188 53.664C597.655 54.2187 597.388 54.9867 597.388 55.968C597.388 56.8853 597.655 57.632 598.188 58.208C598.743 58.7627 599.532 59.04 600.556 59.04Z" fill="#529DFF"/>
<path d="M624.968 59.6535L621.481 73.8039H620.336L623.81 59.6535H624.968ZM637.938 64.9446C638.45 64.9446 638.906 65.0526 639.306 65.2686C639.706 65.4766 640.022 65.7926 640.254 66.2166C640.486 66.6406 640.602 67.1566 640.602 67.7646V71.6406H639.522V67.9206C639.522 67.2646 639.358 66.7646 639.03 66.4206C638.71 66.0686 638.274 65.8926 637.722 65.8926C637.154 65.8926 636.702 66.0766 636.366 66.4446C636.03 66.8046 635.862 67.3286 635.862 68.0166V71.6406H634.782V67.9206C634.782 67.2646 634.618 66.7646 634.29 66.4206C633.97 66.0686 633.534 65.8926 632.982 65.8926C632.414 65.8926 631.962 66.0766 631.626 66.4446C631.29 66.8046 631.122 67.3286 631.122 68.0166V71.6406H630.03V65.0646H631.122V66.0126C631.338 65.6686 631.626 65.4046 631.986 65.2206C632.354 65.0366 632.758 64.9446 633.198 64.9446C633.75 64.9446 634.238 65.0686 634.662 65.3166C635.086 65.5646 635.402 65.9286 635.61 66.4086C635.794 65.9446 636.098 65.5846 636.522 65.3286C636.946 65.0726 637.418 64.9446 637.938 64.9446ZM645.261 71.7486C644.645 71.7486 644.085 71.6086 643.581 71.3286C643.085 71.0486 642.693 70.6526 642.405 70.1406C642.125 69.6206 641.985 69.0206 641.985 68.3406C641.985 67.6686 642.129 67.0766 642.417 66.5646C642.713 66.0446 643.113 65.6486 643.617 65.3766C644.121 65.0966 644.685 64.9566 645.309 64.9566C645.933 64.9566 646.497 65.0966 647.001 65.3766C647.505 65.6486 647.901 66.0406 648.189 66.5526C648.485 67.0646 648.633 67.6606 648.633 68.3406C648.633 69.0206 648.481 69.6206 648.177 70.1406C647.881 70.6526 647.477 71.0486 646.965 71.3286C646.453 71.6086 645.885 71.7486 645.261 71.7486ZM645.261 70.7886C645.653 70.7886 646.021 70.6966 646.365 70.5126C646.709 70.3286 646.985 70.0526 647.193 69.6846C647.409 69.3166 647.517 68.8686 647.517 68.3406C647.517 67.8126 647.413 67.3646 647.205 66.9966C646.997 66.6286 646.725 66.3566 646.389 66.1806C646.053 65.9966 645.689 65.9046 645.297 65.9046C644.897 65.9046 644.529 65.9966 644.193 66.1806C643.865 66.3566 643.601 66.6286 643.401 66.9966C643.201 67.3646 643.101 67.8126 643.101 68.3406C643.101 68.8766 643.197 69.3286 643.389 69.6966C643.589 70.0646 643.853 70.3406 644.181 70.5246C644.509 70.7006 644.869 70.7886 645.261 70.7886ZM653.273 64.9446C654.073 64.9446 654.721 65.1886 655.217 65.6766C655.713 66.1566 655.961 66.8526 655.961 67.7646V71.6406H654.881V67.9206C654.881 67.2646 654.717 66.7646 654.389 66.4206C654.061 66.0686 653.613 65.8926 653.045 65.8926C652.469 65.8926 652.009 66.0726 651.665 66.4326C651.329 66.7926 651.161 67.3166 651.161 68.0046V71.6406H650.069V65.0646H651.161V66.0006C651.377 65.6646 651.669 65.4046 652.037 65.2206C652.413 65.0366 652.825 64.9446 653.273 64.9446ZM659.076 65.9646V69.8406C659.076 70.1606 659.144 70.3886 659.28 70.5246C659.416 70.6526 659.652 70.7166 659.988 70.7166H660.792V71.6406H659.808C659.2 71.6406 658.744 71.5006 658.44 71.2206C658.136 70.9406 657.984 70.4806 657.984 69.8406V65.9646H657.132V65.0646H657.984V63.4086H659.076V65.0646H660.792V65.9646H659.076ZM665.38 64.9446C665.876 64.9446 666.324 65.0526 666.724 65.2686C667.124 65.4766 667.436 65.7926 667.66 66.2166C667.892 66.6406 668.008 67.1566 668.008 67.7646V71.6406H666.928V67.9206C666.928 67.2646 666.764 66.7646 666.436 66.4206C666.108 66.0686 665.66 65.8926 665.092 65.8926C664.516 65.8926 664.056 66.0726 663.712 66.4326C663.376 66.7926 663.208 67.3166 663.208 68.0046V71.6406H662.116V62.7606H663.208V66.0006C663.424 65.6646 663.72 65.4046 664.096 65.2206C664.48 65.0366 664.908 64.9446 665.38 64.9446ZM670.883 62.7606V71.6406H669.791V62.7606H670.883ZM678.408 65.0646L674.448 74.7366H673.32L674.616 71.5686L671.964 65.0646H673.176L675.24 70.3926L677.28 65.0646H678.408Z" fill="#529DFF"/>
<path d="M65.7765 49.08C66.6712 49.2707 67.3898 49.718 67.9325 50.422C68.4752 51.1113 68.7465 51.9033 68.7465 52.798C68.7465 54.0887 68.2918 55.1153 67.3825 55.878C66.4878 56.626 65.2338 57 63.6205 57H56.4265V41.556H63.3785C64.9478 41.556 66.1725 41.9153 67.0525 42.634C67.9472 43.3527 68.3945 44.328 68.3945 45.56C68.3945 46.4693 68.1525 47.2247 67.6685 47.826C67.1992 48.4273 66.5685 48.8453 65.7765 49.08ZM60.1885 47.804H62.6525C63.2685 47.804 63.7378 47.672 64.0605 47.408C64.3978 47.1293 64.5665 46.726 64.5665 46.198C64.5665 45.67 64.3978 45.2667 64.0605 44.988C63.7378 44.7093 63.2685 44.57 62.6525 44.57H60.1885V47.804ZM62.9605 53.964C63.5912 53.964 64.0752 53.8247 64.4125 53.546C64.7645 53.2527 64.9405 52.8347 64.9405 52.292C64.9405 51.7493 64.7572 51.324 64.3905 51.016C64.0385 50.708 63.5472 50.554 62.9165 50.554H60.1885V53.964H62.9605ZM80.5425 54.272H74.7785L73.8545 57H69.9165L75.5045 41.556H79.8605L85.4485 57H81.4665L80.5425 54.272ZM79.5745 51.368L77.6605 45.714L75.7685 51.368H79.5745ZM92.7372 57.154C91.6078 57.154 90.5958 56.9707 89.7012 56.604C88.8065 56.2373 88.0878 55.6947 87.5452 54.976C87.0172 54.2573 86.7385 53.392 86.7092 52.38H90.7132C90.7718 52.952 90.9698 53.392 91.3072 53.7C91.6445 53.9933 92.0845 54.14 92.6272 54.14C93.1845 54.14 93.6245 54.0153 93.9472 53.766C94.2698 53.502 94.4312 53.1427 94.4312 52.688C94.4312 52.3067 94.2992 51.9913 94.0352 51.742C93.7858 51.4927 93.4705 51.2873 93.0892 51.126C92.7225 50.9647 92.1945 50.7813 91.5052 50.576C90.5078 50.268 89.6938 49.96 89.0632 49.652C88.4325 49.344 87.8898 48.8893 87.4352 48.288C86.9805 47.6867 86.7532 46.902 86.7532 45.934C86.7532 44.4967 87.2738 43.3747 88.3152 42.568C89.3565 41.7467 90.7132 41.336 92.3852 41.336C94.0865 41.336 95.4578 41.7467 96.4992 42.568C97.5405 43.3747 98.0978 44.504 98.1712 45.956H94.1012C94.0718 45.4573 93.8885 45.0687 93.5512 44.79C93.2138 44.4967 92.7812 44.35 92.2532 44.35C91.7985 44.35 91.4318 44.4747 91.1532 44.724C90.8745 44.9587 90.7352 45.3033 90.7352 45.758C90.7352 46.2567 90.9698 46.6453 91.4392 46.924C91.9085 47.2027 92.6418 47.5033 93.6392 47.826C94.6365 48.1633 95.4432 48.486 96.0592 48.794C96.6898 49.102 97.2325 49.5493 97.6872 50.136C98.1418 50.7227 98.3692 51.478 98.3692 52.402C98.3692 53.282 98.1418 54.0813 97.6872 54.8C97.2472 55.5187 96.6018 56.0907 95.7512 56.516C94.9005 56.9413 93.8958 57.154 92.7372 57.154ZM104.446 41.556V57H100.684V41.556H104.446ZM106.535 49.256C106.535 47.7307 106.865 46.374 107.525 45.186C108.185 43.9833 109.101 43.052 110.275 42.392C111.463 41.7173 112.805 41.38 114.301 41.38C116.134 41.38 117.703 41.864 119.009 42.832C120.314 43.8 121.187 45.12 121.627 46.792H117.491C117.183 46.1467 116.743 45.6553 116.171 45.318C115.613 44.9807 114.975 44.812 114.257 44.812C113.098 44.812 112.159 45.2153 111.441 46.022C110.722 46.8287 110.363 47.9067 110.363 49.256C110.363 50.6053 110.722 51.6833 111.441 52.49C112.159 53.2967 113.098 53.7 114.257 53.7C114.975 53.7 115.613 53.5313 116.171 53.194C116.743 52.8567 117.183 52.3653 117.491 51.72H121.627C121.187 53.392 120.314 54.712 119.009 55.68C117.703 56.6333 116.134 57.11 114.301 57.11C112.805 57.11 111.463 56.78 110.275 56.12C109.101 55.4453 108.185 54.514 107.525 53.326C106.865 52.138 106.535 50.7813 106.535 49.256Z" fill="#142A3D"/>
<path d="M62.065 81.545V82.655H57.52V86.18H61.21V87.29H57.52V92H56.155V81.545H62.065ZM64.4186 82.445C64.1586 82.445 63.9386 82.355 63.7586 82.175C63.5786 81.995 63.4886 81.775 63.4886 81.515C63.4886 81.255 63.5786 81.035 63.7586 80.855C63.9386 80.675 64.1586 80.585 64.4186 80.585C64.6686 80.585 64.8786 80.675 65.0486 80.855C65.2286 81.035 65.3186 81.255 65.3186 81.515C65.3186 81.775 65.2286 81.995 65.0486 82.175C64.8786 82.355 64.6686 82.445 64.4186 82.445ZM65.0786 83.78V92H63.7136V83.78H65.0786ZM69.07 84.905V89.75C69.07 90.15 69.155 90.435 69.325 90.605C69.495 90.765 69.79 90.845 70.21 90.845H71.215V92H69.985C69.225 92 68.655 91.825 68.275 91.475C67.895 91.125 67.705 90.55 67.705 89.75V84.905H66.64V83.78H67.705V81.71H69.07V83.78H71.215V84.905H69.07ZM76.8739 83.63C77.8739 83.63 78.6839 83.935 79.3039 84.545C79.9239 85.145 80.2339 86.015 80.2339 87.155V92H78.8839V87.35C78.8839 86.53 78.6789 85.905 78.2689 85.475C77.8589 85.035 77.2989 84.815 76.5889 84.815C75.8689 84.815 75.2939 85.04 74.8639 85.49C74.4439 85.94 74.2339 86.595 74.2339 87.455V92H72.8689V83.78H74.2339V84.95C74.5039 84.53 74.8689 84.205 75.3289 83.975C75.7989 83.745 76.3139 83.63 76.8739 83.63ZM89.9636 87.575C89.9636 87.835 89.9486 88.11 89.9186 88.4H83.3486C83.3986 89.21 83.6736 89.845 84.1736 90.305C84.6836 90.755 85.2986 90.98 86.0186 90.98C86.6086 90.98 87.0986 90.845 87.4886 90.575C87.8886 90.295 88.1686 89.925 88.3286 89.465H89.7986C89.5786 90.255 89.1386 90.9 88.4786 91.4C87.8186 91.89 86.9986 92.135 86.0186 92.135C85.2386 92.135 84.5386 91.96 83.9186 91.61C83.3086 91.26 82.8286 90.765 82.4786 90.125C82.1286 89.475 81.9536 88.725 81.9536 87.875C81.9536 87.025 82.1236 86.28 82.4636 85.64C82.8036 85 83.2786 84.51 83.8886 84.17C84.5086 83.82 85.2186 83.645 86.0186 83.645C86.7986 83.645 87.4886 83.815 88.0886 84.155C88.6886 84.495 89.1486 84.965 89.4686 85.565C89.7986 86.155 89.9636 86.825 89.9636 87.575ZM88.5536 87.29C88.5536 86.77 88.4386 86.325 88.2086 85.955C87.9786 85.575 87.6636 85.29 87.2636 85.1C86.8736 84.9 86.4386 84.8 85.9586 84.8C85.2686 84.8 84.6786 85.02 84.1886 85.46C83.7086 85.9 83.4336 86.51 83.3636 87.29H88.5536ZM94.6754 92.135C94.0454 92.135 93.4804 92.03 92.9804 91.82C92.4804 91.6 92.0854 91.3 91.7954 90.92C91.5054 90.53 91.3454 90.085 91.3154 89.585H92.7254C92.7654 89.995 92.9554 90.33 93.2954 90.59C93.6454 90.85 94.1004 90.98 94.6604 90.98C95.1804 90.98 95.5904 90.865 95.8904 90.635C96.1904 90.405 96.3404 90.115 96.3404 89.765C96.3404 89.405 96.1804 89.14 95.8604 88.97C95.5404 88.79 95.0454 88.615 94.3754 88.445C93.7654 88.285 93.2654 88.125 92.8754 87.965C92.4954 87.795 92.1654 87.55 91.8854 87.23C91.6154 86.9 91.4804 86.47 91.4804 85.94C91.4804 85.52 91.6054 85.135 91.8554 84.785C92.1054 84.435 92.4604 84.16 92.9204 83.96C93.3804 83.75 93.9054 83.645 94.4954 83.645C95.4054 83.645 96.1404 83.875 96.7004 84.335C97.2604 84.795 97.5604 85.425 97.6004 86.225H96.2354C96.2054 85.795 96.0304 85.45 95.7104 85.19C95.4004 84.93 94.9804 84.8 94.4504 84.8C93.9604 84.8 93.5704 84.905 93.2804 85.115C92.9904 85.325 92.8454 85.6 92.8454 85.94C92.8454 86.21 92.9304 86.435 93.1004 86.615C93.2804 86.785 93.5004 86.925 93.7604 87.035C94.0304 87.135 94.4004 87.25 94.8704 87.38C95.4604 87.54 95.9404 87.7 96.3104 87.86C96.6804 88.01 96.9954 88.24 97.2554 88.55C97.5254 88.86 97.6654 89.265 97.6754 89.765C97.6754 90.215 97.5504 90.62 97.3004 90.98C97.0504 91.34 96.6954 91.625 96.2354 91.835C95.7854 92.035 95.2654 92.135 94.6754 92.135ZM102.512 92.135C101.882 92.135 101.317 92.03 100.817 91.82C100.317 91.6 99.9223 91.3 99.6323 90.92C99.3423 90.53 99.1823 90.085 99.1523 89.585H100.562C100.602 89.995 100.792 90.33 101.132 90.59C101.482 90.85 101.937 90.98 102.497 90.98C103.017 90.98 103.427 90.865 103.727 90.635C104.027 90.405 104.177 90.115 104.177 89.765C104.177 89.405 104.017 89.14 103.697 88.97C103.377 88.79 102.882 88.615 102.212 88.445C101.602 88.285 101.102 88.125 100.712 87.965C100.332 87.795 100.002 87.55 99.7223 87.23C99.4523 86.9 99.3173 86.47 99.3173 85.94C99.3173 85.52 99.4423 85.135 99.6923 84.785C99.9423 84.435 100.297 84.16 100.757 83.96C101.217 83.75 101.742 83.645 102.332 83.645C103.242 83.645 103.977 83.875 104.537 84.335C105.097 84.795 105.397 85.425 105.437 86.225H104.072C104.042 85.795 103.867 85.45 103.547 85.19C103.237 84.93 102.817 84.8 102.287 84.8C101.797 84.8 101.407 84.905 101.117 85.115C100.827 85.325 100.682 85.6 100.682 85.94C100.682 86.21 100.767 86.435 100.937 86.615C101.117 86.785 101.337 86.925 101.597 87.035C101.867 87.135 102.237 87.25 102.707 87.38C103.297 87.54 103.777 87.7 104.147 87.86C104.517 88.01 104.832 88.24 105.092 88.55C105.362 88.86 105.502 89.265 105.512 89.765C105.512 90.215 105.387 90.62 105.137 90.98C104.887 91.34 104.532 91.625 104.072 91.835C103.622 92.035 103.102 92.135 102.512 92.135ZM119.463 92L118.098 90.62C117.588 91.15 117.043 91.545 116.463 91.805C115.883 92.055 115.228 92.18 114.498 92.18C113.778 92.18 113.138 92.05 112.578 91.79C112.028 91.53 111.598 91.16 111.288 90.68C110.988 90.2 110.838 89.64 110.838 89C110.838 88.27 111.043 87.63 111.453 87.08C111.873 86.52 112.488 86.08 113.298 85.76C112.978 85.38 112.748 85.03 112.608 84.71C112.468 84.39 112.398 84.04 112.398 83.66C112.398 83.22 112.508 82.825 112.728 82.475C112.958 82.115 113.283 81.835 113.703 81.635C114.123 81.435 114.608 81.335 115.158 81.335C115.698 81.335 116.168 81.44 116.568 81.65C116.968 81.86 117.268 82.155 117.468 82.535C117.668 82.905 117.758 83.32 117.738 83.78H116.373C116.383 83.37 116.268 83.05 116.028 82.82C115.788 82.58 115.478 82.46 115.098 82.46C114.698 82.46 114.373 82.575 114.123 82.805C113.883 83.025 113.763 83.31 113.763 83.66C113.763 83.96 113.843 84.25 114.003 84.53C114.173 84.81 114.453 85.155 114.843 85.565L117.963 88.7L118.233 88.28L119.253 86.57H120.723L119.493 88.7C119.323 89 119.123 89.315 118.893 89.645L121.248 92H119.463ZM114.498 91.01C115.038 91.01 115.523 90.905 115.953 90.695C116.393 90.485 116.808 90.16 117.198 89.72L114.123 86.63C112.843 87.12 112.203 87.895 112.203 88.955C112.203 89.545 112.413 90.035 112.833 90.425C113.263 90.815 113.818 91.01 114.498 91.01ZM139.666 81.545L136.636 92H135.106L132.676 83.585L130.156 92L128.641 92.015L125.716 81.545H127.171L129.451 90.41L131.971 81.545H133.501L135.901 90.38L138.196 81.545H139.666ZM148.66 87.575C148.66 87.835 148.645 88.11 148.615 88.4H142.045C142.095 89.21 142.37 89.845 142.87 90.305C143.38 90.755 143.995 90.98 144.715 90.98C145.305 90.98 145.795 90.845 146.185 90.575C146.585 90.295 146.865 89.925 147.025 89.465H148.495C148.275 90.255 147.835 90.9 147.175 91.4C146.515 91.89 145.695 92.135 144.715 92.135C143.935 92.135 143.235 91.96 142.615 91.61C142.005 91.26 141.525 90.765 141.175 90.125C140.825 89.475 140.65 88.725 140.65 87.875C140.65 87.025 140.82 86.28 141.16 85.64C141.5 85 141.975 84.51 142.585 84.17C143.205 83.82 143.915 83.645 144.715 83.645C145.495 83.645 146.185 83.815 146.785 84.155C147.385 84.495 147.845 84.965 148.165 85.565C148.495 86.155 148.66 86.825 148.66 87.575ZM147.25 87.29C147.25 86.77 147.135 86.325 146.905 85.955C146.675 85.575 146.36 85.29 145.96 85.1C145.57 84.9 145.135 84.8 144.655 84.8C143.965 84.8 143.375 85.02 142.885 85.46C142.405 85.9 142.13 86.51 142.06 87.29H147.25ZM151.827 80.9V92H150.462V80.9H151.827ZM155.518 80.9V92H154.153V80.9H155.518ZM161.849 83.63C162.849 83.63 163.659 83.935 164.279 84.545C164.899 85.145 165.209 86.015 165.209 87.155V92H163.859V87.35C163.859 86.53 163.654 85.905 163.244 85.475C162.834 85.035 162.274 84.815 161.564 84.815C160.844 84.815 160.269 85.04 159.839 85.49C159.419 85.94 159.209 86.595 159.209 87.455V92H157.844V83.78H159.209V84.95C159.479 84.53 159.844 84.205 160.304 83.975C160.774 83.745 161.289 83.63 161.849 83.63ZM174.939 87.575C174.939 87.835 174.924 88.11 174.894 88.4H168.324C168.374 89.21 168.649 89.845 169.149 90.305C169.659 90.755 170.274 90.98 170.994 90.98C171.584 90.98 172.074 90.845 172.464 90.575C172.864 90.295 173.144 89.925 173.304 89.465H174.774C174.554 90.255 174.114 90.9 173.454 91.4C172.794 91.89 171.974 92.135 170.994 92.135C170.214 92.135 169.514 91.96 168.894 91.61C168.284 91.26 167.804 90.765 167.454 90.125C167.104 89.475 166.929 88.725 166.929 87.875C166.929 87.025 167.099 86.28 167.439 85.64C167.779 85 168.254 84.51 168.864 84.17C169.484 83.82 170.194 83.645 170.994 83.645C171.774 83.645 172.464 83.815 173.064 84.155C173.664 84.495 174.124 84.965 174.444 85.565C174.774 86.155 174.939 86.825 174.939 87.575ZM173.529 87.29C173.529 86.77 173.414 86.325 173.184 85.955C172.954 85.575 172.639 85.29 172.239 85.1C171.849 84.9 171.414 84.8 170.934 84.8C170.244 84.8 169.654 85.02 169.164 85.46C168.684 85.9 168.409 86.51 168.339 87.29H173.529ZM179.651 92.135C179.021 92.135 178.456 92.03 177.956 91.82C177.456 91.6 177.061 91.3 176.771 90.92C176.481 90.53 176.321 90.085 176.291 89.585H177.701C177.741 89.995 177.931 90.33 178.271 90.59C178.621 90.85 179.076 90.98 179.636 90.98C180.156 90.98 180.566 90.865 180.866 90.635C181.166 90.405 181.316 90.115 181.316 89.765C181.316 89.405 181.156 89.14 180.836 88.97C180.516 88.79 180.021 88.615 179.351 88.445C178.741 88.285 178.241 88.125 177.851 87.965C177.471 87.795 177.141 87.55 176.861 87.23C176.591 86.9 176.456 86.47 176.456 85.94C176.456 85.52 176.581 85.135 176.831 84.785C177.081 84.435 177.436 84.16 177.896 83.96C178.356 83.75 178.881 83.645 179.471 83.645C180.381 83.645 181.116 83.875 181.676 84.335C182.236 84.795 182.536 85.425 182.576 86.225H181.211C181.181 85.795 181.006 85.45 180.686 85.19C180.376 84.93 179.956 84.8 179.426 84.8C178.936 84.8 178.546 84.905 178.256 85.115C177.966 85.325 177.821 85.6 177.821 85.94C177.821 86.21 177.906 86.435 178.076 86.615C178.256 86.785 178.476 86.925 178.736 87.035C179.006 87.135 179.376 87.25 179.846 87.38C180.436 87.54 180.916 87.7 181.286 87.86C181.656 88.01 181.971 88.24 182.231 88.55C182.501 88.86 182.641 89.265 182.651 89.765C182.651 90.215 182.526 90.62 182.276 90.98C182.026 91.34 181.671 91.625 181.211 91.835C180.761 92.035 180.241 92.135 179.651 92.135ZM187.488 92.135C186.858 92.135 186.293 92.03 185.793 91.82C185.293 91.6 184.898 91.3 184.608 90.92C184.318 90.53 184.158 90.085 184.128 89.585H185.538C185.578 89.995 185.768 90.33 186.108 90.59C186.458 90.85 186.913 90.98 187.473 90.98C187.993 90.98 188.403 90.865 188.703 90.635C189.003 90.405 189.153 90.115 189.153 89.765C189.153 89.405 188.993 89.14 188.673 88.97C188.353 88.79 187.858 88.615 187.188 88.445C186.578 88.285 186.078 88.125 185.688 87.965C185.308 87.795 184.978 87.55 184.698 87.23C184.428 86.9 184.293 86.47 184.293 85.94C184.293 85.52 184.418 85.135 184.668 84.785C184.918 84.435 185.273 84.16 185.733 83.96C186.193 83.75 186.718 83.645 187.308 83.645C188.218 83.645 188.953 83.875 189.513 84.335C190.073 84.795 190.373 85.425 190.413 86.225H189.048C189.018 85.795 188.843 85.45 188.523 85.19C188.213 84.93 187.793 84.8 187.263 84.8C186.773 84.8 186.383 84.905 186.093 85.115C185.803 85.325 185.658 85.6 185.658 85.94C185.658 86.21 185.743 86.435 185.913 86.615C186.093 86.785 186.313 86.925 186.573 87.035C186.843 87.135 187.213 87.25 187.683 87.38C188.273 87.54 188.753 87.7 189.123 87.86C189.493 88.01 189.808 88.24 190.068 88.55C190.338 88.86 190.478 89.265 190.488 89.765C190.488 90.215 190.363 90.62 190.113 90.98C189.863 91.34 189.508 91.625 189.048 91.835C188.598 92.035 188.078 92.135 187.488 92.135ZM205.054 81.545L201.109 92H199.534L195.589 81.545H197.044L200.329 90.56L203.614 81.545H205.054ZM211.291 92.105C210.321 92.105 209.436 91.88 208.636 91.43C207.836 90.97 207.201 90.335 206.731 89.525C206.271 88.705 206.041 87.785 206.041 86.765C206.041 85.745 206.271 84.83 206.731 84.02C207.201 83.2 207.836 82.565 208.636 82.115C209.436 81.655 210.321 81.425 211.291 81.425C212.271 81.425 213.161 81.655 213.961 82.115C214.761 82.565 215.391 83.195 215.851 84.005C216.311 84.815 216.541 85.735 216.541 86.765C216.541 87.795 216.311 88.715 215.851 89.525C215.391 90.335 214.761 90.97 213.961 91.43C213.161 91.88 212.271 92.105 211.291 92.105ZM211.291 90.92C212.021 90.92 212.676 90.75 213.256 90.41C213.846 90.07 214.306 89.585 214.636 88.955C214.976 88.325 215.146 87.595 215.146 86.765C215.146 85.925 214.976 85.195 214.636 84.575C214.306 83.945 213.851 83.46 213.271 83.12C212.691 82.78 212.031 82.61 211.291 82.61C210.551 82.61 209.891 82.78 209.311 83.12C208.731 83.46 208.271 83.945 207.931 84.575C207.601 85.195 207.436 85.925 207.436 86.765C207.436 87.595 207.601 88.325 207.931 88.955C208.271 89.585 208.731 90.07 209.311 90.41C209.901 90.75 210.561 90.92 211.291 90.92ZM221.597 81.545C222.738 81.545 223.723 81.76 224.553 82.19C225.393 82.61 226.033 83.215 226.473 84.005C226.923 84.795 227.148 85.725 227.148 86.795C227.148 87.865 226.923 88.795 226.473 89.585C226.033 90.365 225.393 90.965 224.553 91.385C223.723 91.795 222.738 92 221.597 92H218.343V81.545H221.597ZM221.597 90.875C222.948 90.875 223.978 90.52 224.688 89.81C225.398 89.09 225.753 88.085 225.753 86.795C225.753 85.495 225.393 84.48 224.673 83.75C223.963 83.02 222.938 82.655 221.597 82.655H219.708V90.875H221.597ZM239.127 89.675H234.567L233.727 92H232.287L236.067 81.605H237.642L241.407 92H239.967L239.127 89.675ZM238.737 88.565L236.847 83.285L234.957 88.565H238.737ZM242.544 87.875C242.544 87.025 242.714 86.285 243.054 85.655C243.394 85.015 243.864 84.52 244.464 84.17C245.074 83.82 245.769 83.645 246.549 83.645C247.559 83.645 248.389 83.89 249.039 84.38C249.699 84.87 250.134 85.55 250.344 86.42H248.874C248.734 85.92 248.459 85.525 248.049 85.235C247.649 84.945 247.149 84.8 246.549 84.8C245.769 84.8 245.139 85.07 244.659 85.61C244.179 86.14 243.939 86.895 243.939 87.875C243.939 88.865 244.179 89.63 244.659 90.17C245.139 90.71 245.769 90.98 246.549 90.98C247.149 90.98 247.649 90.84 248.049 90.56C248.449 90.28 248.724 89.88 248.874 89.36H250.344C250.124 90.2 249.684 90.875 249.024 91.385C248.364 91.885 247.539 92.135 246.549 92.135C245.769 92.135 245.074 91.96 244.464 91.61C243.864 91.26 243.394 90.765 243.054 90.125C242.714 89.485 242.544 88.735 242.544 87.875ZM251.656 87.875C251.656 87.025 251.826 86.285 252.166 85.655C252.506 85.015 252.976 84.52 253.576 84.17C254.186 83.82 254.881 83.645 255.661 83.645C256.671 83.645 257.501 83.89 258.151 84.38C258.811 84.87 259.246 85.55 259.456 86.42H257.986C257.846 85.92 257.571 85.525 257.161 85.235C256.761 84.945 256.261 84.8 255.661 84.8C254.881 84.8 254.251 85.07 253.771 85.61C253.291 86.14 253.051 86.895 253.051 87.875C253.051 88.865 253.291 89.63 253.771 90.17C254.251 90.71 254.881 90.98 255.661 90.98C256.261 90.98 256.761 90.84 257.161 90.56C257.561 90.28 257.836 89.88 257.986 89.36H259.456C259.236 90.2 258.796 90.875 258.136 91.385C257.476 91.885 256.651 92.135 255.661 92.135C254.881 92.135 254.186 91.96 253.576 91.61C252.976 91.26 252.506 90.765 252.166 90.125C251.826 89.485 251.656 88.735 251.656 87.875ZM268.777 87.575C268.777 87.835 268.762 88.11 268.732 88.4H262.162C262.212 89.21 262.487 89.845 262.987 90.305C263.497 90.755 264.112 90.98 264.832 90.98C265.422 90.98 265.912 90.845 266.302 90.575C266.702 90.295 266.982 89.925 267.142 89.465H268.612C268.392 90.255 267.952 90.9 267.292 91.4C266.632 91.89 265.812 92.135 264.832 92.135C264.052 92.135 263.352 91.96 262.732 91.61C262.122 91.26 261.642 90.765 261.292 90.125C260.942 89.475 260.767 88.725 260.767 87.875C260.767 87.025 260.937 86.28 261.277 85.64C261.617 85 262.092 84.51 262.702 84.17C263.322 83.82 264.032 83.645 264.832 83.645C265.612 83.645 266.302 83.815 266.902 84.155C267.502 84.495 267.962 84.965 268.282 85.565C268.612 86.155 268.777 86.825 268.777 87.575ZM267.367 87.29C267.367 86.77 267.252 86.325 267.022 85.955C266.792 85.575 266.477 85.29 266.077 85.1C265.687 84.9 265.252 84.8 264.772 84.8C264.082 84.8 263.492 85.02 263.002 85.46C262.522 85.9 262.247 86.51 262.177 87.29H267.367ZM273.489 92.135C272.859 92.135 272.294 92.03 271.794 91.82C271.294 91.6 270.899 91.3 270.609 90.92C270.319 90.53 270.159 90.085 270.129 89.585H271.539C271.579 89.995 271.769 90.33 272.109 90.59C272.459 90.85 272.914 90.98 273.474 90.98C273.994 90.98 274.404 90.865 274.704 90.635C275.004 90.405 275.154 90.115 275.154 89.765C275.154 89.405 274.994 89.14 274.674 88.97C274.354 88.79 273.859 88.615 273.189 88.445C272.579 88.285 272.079 88.125 271.689 87.965C271.309 87.795 270.979 87.55 270.699 87.23C270.429 86.9 270.294 86.47 270.294 85.94C270.294 85.52 270.419 85.135 270.669 84.785C270.919 84.435 271.274 84.16 271.734 83.96C272.194 83.75 272.719 83.645 273.309 83.645C274.219 83.645 274.954 83.875 275.514 84.335C276.074 84.795 276.374 85.425 276.414 86.225H275.049C275.019 85.795 274.844 85.45 274.524 85.19C274.214 84.93 273.794 84.8 273.264 84.8C272.774 84.8 272.384 84.905 272.094 85.115C271.804 85.325 271.659 85.6 271.659 85.94C271.659 86.21 271.744 86.435 271.914 86.615C272.094 86.785 272.314 86.925 272.574 87.035C272.844 87.135 273.214 87.25 273.684 87.38C274.274 87.54 274.754 87.7 275.124 87.86C275.494 88.01 275.809 88.24 276.069 88.55C276.339 88.86 276.479 89.265 276.489 89.765C276.489 90.215 276.364 90.62 276.114 90.98C275.864 91.34 275.509 91.625 275.049 91.835C274.599 92.035 274.079 92.135 273.489 92.135ZM281.326 92.135C280.696 92.135 280.131 92.03 279.631 91.82C279.131 91.6 278.736 91.3 278.446 90.92C278.156 90.53 277.996 90.085 277.966 89.585H279.376C279.416 89.995 279.606 90.33 279.946 90.59C280.296 90.85 280.751 90.98 281.311 90.98C281.831 90.98 282.241 90.865 282.541 90.635C282.841 90.405 282.991 90.115 282.991 89.765C282.991 89.405 282.831 89.14 282.511 88.97C282.191 88.79 281.696 88.615 281.026 88.445C280.416 88.285 279.916 88.125 279.526 87.965C279.146 87.795 278.816 87.55 278.536 87.23C278.266 86.9 278.131 86.47 278.131 85.94C278.131 85.52 278.256 85.135 278.506 84.785C278.756 84.435 279.111 84.16 279.571 83.96C280.031 83.75 280.556 83.645 281.146 83.645C282.056 83.645 282.791 83.875 283.351 84.335C283.911 84.795 284.211 85.425 284.251 86.225H282.886C282.856 85.795 282.681 85.45 282.361 85.19C282.051 84.93 281.631 84.8 281.101 84.8C280.611 84.8 280.221 84.905 279.931 85.115C279.641 85.325 279.496 85.6 279.496 85.94C279.496 86.21 279.581 86.435 279.751 86.615C279.931 86.785 280.151 86.925 280.411 87.035C280.681 87.135 281.051 87.25 281.521 87.38C282.111 87.54 282.591 87.7 282.961 87.86C283.331 88.01 283.646 88.24 283.906 88.55C284.176 88.86 284.316 89.265 284.326 89.765C284.326 90.215 284.201 90.62 283.951 90.98C283.701 91.34 283.346 91.625 282.886 91.835C282.436 92.035 281.916 92.135 281.326 92.135Z" fill="#142A3D"/>
</svg>
