<svg width="8" height="8" viewBox="0 0 8 8" fill="none" xmlns="http://www.w3.org/2000/svg">
<path d="M4.70595 4.00009L6.85595 1.85509C6.9501 1.76094 7.00299 1.63324 7.00299 1.50009C7.00299 1.36694 6.9501 1.23924 6.85595 1.14509C6.76179 1.05094 6.6341 0.998047 6.50095 0.998047C6.36779 0.998047 6.2401 1.05094 6.14595 1.14509L4.00095 3.29509L1.85595 1.14509C1.76179 1.05094 1.6341 0.998047 1.50095 0.998047C1.3678 0.998047 1.2401 1.05094 1.14595 1.14509C1.05179 1.23924 0.9989 1.36694 0.9989 1.50009C0.9989 1.63324 1.05179 1.76094 1.14595 1.85509L3.29595 4.00009L1.14595 6.14509C1.09908 6.19157 1.06188 6.24687 1.0365 6.3078C1.01112 6.36873 0.998047 6.43409 0.998047 6.50009C0.998047 6.5661 1.01112 6.63145 1.0365 6.69238C1.06188 6.75331 1.09908 6.80861 1.14595 6.85509C1.19243 6.90196 1.24773 6.93915 1.30866 6.96454C1.36959 6.98992 1.43494 7.00299 1.50095 7.00299C1.56695 7.00299 1.6323 6.98992 1.69323 6.96454C1.75416 6.93915 1.80946 6.90196 1.85595 6.85509L4.00095 4.70509L6.14595 6.85509C6.19243 6.90196 6.24773 6.93915 6.30866 6.96454C6.36959 6.98992 6.43494 7.00299 6.50095 7.00299C6.56695 7.00299 6.6323 6.98992 6.69323 6.96454C6.75416 6.93915 6.80946 6.90196 6.85595 6.85509C6.90281 6.80861 6.94001 6.75331 6.96539 6.69238C6.99078 6.63145 7.00385 6.5661 7.00385 6.50009C7.00385 6.43409 6.99078 6.36873 6.96539 6.3078C6.94001 6.24687 6.90281 6.19157 6.85595 6.14509L4.70595 4.00009Z" fill="#263238"/>
</svg>
