<svg width="178" height="161" viewBox="0 0 178 161" fill="none" xmlns="http://www.w3.org/2000/svg">
<path d="M84.7469 0.171375C74.7898 -1.09198 65.9451 4.81315 59.081 11.8397C54.2381 16.7937 51.6743 25.0552 50.7518 31.954C50.1956 36.1415 50.2499 40.5562 48.4864 44.3605C46.0853 49.5416 40.7812 52.5368 35.5178 54.2544C30.2679 55.972 24.7061 56.7811 19.7411 59.2652C11.7104 63.2682 5.99931 71.4871 3.65248 80.4868C1.31922 89.4722 2.11958 99.139 4.76485 108.039C9.51277 124.094 21.7353 138.913 37.6747 141.071C52.6374 143.101 67.6273 133.874 82.4815 136.656C88.3824 137.764 93.7815 140.702 99.2484 143.271C111.932 149.233 129.187 156.388 143.106 151.178C155.423 146.55 159.194 134.726 158.991 122.036C158.909 116.996 158.055 111.815 155.504 107.528C153.551 104.249 150.729 101.652 147.976 99.0681C143.011 94.4263 138.086 89.6142 134.6 83.6806C125.321 67.9242 127.709 47.2704 119.99 30.6339C116.449 22.997 110.915 16.5382 104.77 10.9738C98.9906 5.77841 92.3164 1.13664 84.7469 0.171375Z" fill="#00A7DF" fill-opacity="0.1"/>
<path d="M176.856 158.346C175.378 158.176 173.899 158.048 172.393 157.977C171.973 157.963 50.8197 157.906 50.8197 157.906C50.7247 157.92 50.6433 157.92 50.5483 157.92C50.4127 157.935 50.277 157.949 50.1414 157.963C50.0871 157.963 3.46259 157.906 3.46259 157.906C3.36763 157.92 3.28624 157.92 3.19128 157.92C2.54013 157.963 1.88899 158.02 1.25142 158.105C-0.417138 158.289 -0.417138 160.617 1.25142 160.801C1.90256 160.872 2.54013 160.929 3.19128 160.986C3.27267 161 3.36763 161 3.44902 161C3.44902 161 50.0329 160.929 50.06 160.929C50.2228 160.943 50.3856 160.957 50.5483 160.972C50.6297 160.986 50.7247 160.986 50.8061 160.986C50.8061 160.986 171.973 160.929 172.407 160.915C173.913 160.844 175.391 160.716 176.856 160.546C178.213 160.404 178.227 158.516 176.856 158.346Z" fill="white" fill-opacity="0.3"/>
<path d="M54.9303 139.694L66.2711 139.666C66.2711 138.161 67.4377 136.94 68.8756 136.94C70.3136 136.94 71.4802 138.161 71.4802 139.666V143.186C71.4802 144.691 70.3136 145.912 68.8756 145.912C67.4377 145.912 66.2711 144.691 66.2711 143.186L54.9303 143.215C54.9303 144.719 53.7637 145.94 52.3258 145.94C50.8878 145.94 49.7212 144.719 49.7212 143.215V139.694C49.7212 138.19 50.8878 136.969 52.3258 136.969C53.7637 136.969 54.9303 138.19 54.9303 139.694Z" fill="#354062"/>
<path d="M77.9098 139.694L89.2506 139.666C89.2506 138.161 90.4172 136.94 91.8551 136.94C93.2931 136.94 94.4597 138.161 94.4597 139.666V143.186C94.4597 144.691 93.2931 145.912 91.8551 145.912C90.4172 145.912 89.2506 144.691 89.2506 143.186L77.9098 143.215C77.9098 144.719 76.7432 145.94 75.3053 145.94C73.8673 145.94 72.7007 144.719 72.7007 143.215V139.694C72.7007 138.19 73.8673 136.969 75.3053 136.969C76.7432 136.969 77.9098 138.19 77.9098 139.694Z" fill="#354062"/>
<path d="M54.9298 151.831L66.2706 151.803C66.2706 150.298 67.4372 149.077 68.8752 149.077C70.3131 149.077 71.4797 150.298 71.4797 151.803V155.323C71.4797 156.828 70.3131 158.048 68.8752 158.048C67.4372 158.048 66.2706 156.828 66.2706 155.323L54.9298 155.351C54.9298 156.856 53.7632 158.077 52.3253 158.077C50.8873 158.077 49.7207 156.856 49.7207 155.351V151.831C49.7207 150.326 50.8873 149.106 52.3253 149.106C53.7632 149.106 54.9298 150.326 54.9298 151.831Z" fill="#354062"/>
<path d="M77.9098 151.831L89.2506 151.803C89.2506 150.298 90.4172 149.077 91.8551 149.077C93.2931 149.077 94.4597 150.298 94.4597 151.803V155.323C94.4597 156.828 93.2931 158.048 91.8551 158.048C90.4172 158.048 89.2506 156.828 89.2506 155.323L77.9098 155.351C77.9098 156.856 76.7432 158.077 75.3053 158.077C73.8673 158.077 72.7007 156.856 72.7007 155.351V151.831C72.7007 150.326 73.8673 149.106 75.3053 149.106C76.7432 149.106 77.9098 150.326 77.9098 151.831Z" fill="#354062"/>
<path d="M93.3062 148.437H50.8869C50.2494 148.437 49.7339 147.898 49.7339 147.231C49.7339 146.493 50.2494 145.954 50.8869 145.954H93.3062C93.9438 145.954 94.4593 146.493 94.4593 147.16C94.4593 147.898 93.9438 148.437 93.3062 148.437Z" fill="white" fill-opacity="0.6"/>
<path d="M69.2955 45.0707C69.5803 42.4446 69.0648 40.0456 70.0551 37.4479C71.7101 33.1469 77.5975 32.1958 81.518 32.9339C83.2679 33.2604 85.1671 34.1973 85.6147 35.9859C85.7504 36.4969 85.7504 37.0505 85.9674 37.5189C86.3473 38.328 87.2697 38.6971 87.8259 39.3785C88.8162 40.585 88.5042 42.4446 87.8666 43.8925C87.0391 45.7804 85.7639 47.4412 84.2039 48.7046C83.4849 49.2724 82.6846 49.8118 82.2912 50.6635C81.7757 51.7849 82.0063 53.4173 80.9482 54.0135C80.1071 54.482 79.0083 53.8006 78.6556 52.8637C78.3029 51.9411 78.4657 50.8906 78.6421 49.9112C76.2003 49.3718 68.8478 49.2298 69.2955 45.0707Z" fill="#3B2645"/>
<path d="M146.442 147.203C145.466 147.7 144.204 147.501 143.105 147.246C139.198 146.366 135.278 145.656 131.358 144.875C129.608 144.535 121.278 142.817 119.013 142.32C112.38 140.858 106.126 139.268 102.992 137.948C97.9187 135.79 87.7446 123.767 80.4328 114.356C75.59 108.124 71.9951 103.028 71.9951 102.744C71.9951 102.744 72.1036 99.3944 74.2199 96.7257C76.0376 94.4545 77.8011 86.846 83.7699 88.0809C96.6978 90.7496 105.095 125.4 110.006 126.564C116.707 128.168 122.825 131.844 129.241 134.243C130.801 134.825 132.28 135.407 133.664 135.961C136.323 136.997 139.036 137.962 141.613 139.183C143.336 140.006 145.778 141.114 146.971 142.689C147.894 143.91 148.057 145.897 146.917 146.905C146.754 147.019 146.605 147.118 146.442 147.203Z" fill="#F5A784"/>
<path d="M131.344 144.89C129.595 144.549 121.265 142.831 119 142.334C112.366 140.872 106.113 139.283 102.979 137.962C97.9056 135.805 87.7315 123.782 80.4197 114.37C75.5768 108.139 71.9819 103.043 71.9819 102.759C71.9819 102.759 72.0905 99.4088 74.2067 96.7401C75.9973 94.4973 77.7337 87.1017 83.4855 88.0386C83.5804 88.0528 83.6618 88.067 83.7568 88.0812C88.0842 88.9755 91.9096 93.4611 95.2603 99.0681C101.921 110.197 106.723 125.783 109.992 126.564C116.694 128.168 122.812 131.844 129.228 134.243C130.788 134.825 132.267 135.407 133.651 135.961C133.881 139.013 132.769 142.178 131.344 144.89Z" fill="#8695C2"/>
<path d="M89.5624 98.9123C87.9888 102.22 84.8145 104.832 81.7351 106.478C80.4736 107.16 79.1577 107.727 77.8147 108.21C75.7392 108.962 73.5959 109.544 71.4661 110.098C67.1658 111.191 62.852 112.199 58.5246 113.107C54.5771 113.945 50.6024 115.18 46.6413 115.79C45.963 115.89 45.4339 116.5 45.4339 117.21C45.4204 120.02 44.2266 125.201 42.653 130.894C42.3817 131.873 42.0968 132.853 41.7984 133.846C38.6919 144.436 34.7037 155.593 34.7037 155.593C32.2483 156.941 29.1689 154.074 29.1689 154.074C29.1689 154.074 30.1999 141.299 31.5022 129.176C31.5429 128.708 31.5972 128.253 31.6514 127.799C32.2483 122.377 32.8045 116.897 33.9033 111.546C34.8664 106.833 37.6474 105.683 41.6085 103.526C52.2845 97.7057 63.0826 92.0561 74.4369 87.8402C77.1365 86.8324 80.6363 85.9949 83.5258 86.5485C84.9095 86.8182 86.1575 87.6415 87.1613 88.6493C89.5624 91.1334 91.1496 95.5623 89.5624 98.9123Z" fill="#F5A784"/>
<path d="M35.6537 155.933C35.6537 156.104 35.6672 156.26 35.6672 156.416C35.6672 156.629 35.6401 156.828 35.5994 157.012C35.5994 157.055 35.5858 157.083 35.5858 157.112C35.3688 157.864 34.7041 158.375 33.9851 158.616C33.2797 158.843 32.5065 158.829 31.7739 158.815C28.8167 158.772 25.995 159.34 22.9971 158.914C21.2064 158.659 17.5438 157.992 17.7337 155.38C17.7337 155.38 17.7472 155.337 17.7472 155.252C17.7744 155.124 17.8151 154.911 17.9236 154.67C18.0185 154.457 18.1406 154.216 18.3306 153.974C18.8867 153.251 19.9448 152.569 21.9797 152.598C22.1289 152.598 22.2917 152.612 22.4545 152.626C22.8343 152.654 23.2006 152.669 23.5261 152.626C23.6211 152.626 23.7296 152.612 23.8381 152.598C24.0687 152.583 24.2858 152.527 24.4757 152.484C24.5435 152.47 24.5978 152.441 24.6521 152.413C24.8284 152.356 24.9912 152.299 25.154 152.228C25.3032 152.158 25.4524 152.087 25.5881 152.016C25.6152 152.001 25.6559 151.987 25.683 151.973C25.8187 151.888 25.9408 151.788 26.0629 151.703C26.1985 151.604 26.3342 151.49 26.4563 151.377C26.4834 151.363 26.497 151.334 26.5241 151.334C26.7683 151.107 26.9718 150.894 27.1752 150.681C27.8399 149.957 28.3283 149.375 29.1015 149.489C30.9464 149.759 33.2254 151.249 32.5607 153.066C32.5607 153.066 34.7312 153.719 35.423 152.498C35.8707 151.717 36.0335 152.555 36.0335 153.052C36.0199 153.889 35.6537 154.713 35.6672 155.579C35.6401 155.706 35.6537 155.82 35.6537 155.933Z" fill="#FF4590"/>
<path d="M150.296 158.815H150.092C149.834 158.801 149.373 158.73 148.871 158.446C148.044 157.977 147.108 156.884 146.891 154.429C146.864 154.131 146.823 153.847 146.769 153.591C146.728 153.378 146.674 153.18 146.619 153.009C146.565 152.81 146.497 152.626 146.429 152.456C146.416 152.427 146.402 152.399 146.389 152.37C146.362 152.314 146.334 152.243 146.294 152.2C146.145 151.859 145.941 151.561 145.738 151.306C145.724 151.277 145.697 151.235 145.67 151.221C145.466 150.979 145.276 150.795 145.059 150.624C145.032 150.582 144.992 150.553 144.964 150.525C144.951 150.511 144.924 150.483 144.91 150.468C144.652 150.255 144.422 150.085 144.191 149.915C143.391 149.361 142.753 148.964 142.713 148.14C142.699 147.828 142.726 147.502 142.767 147.175C142.984 145.443 143.933 143.641 145.48 143.939C145.48 143.939 145.71 141.582 144.435 141.1C143.92 140.901 144.042 140.688 144.3 140.546C144.449 140.461 144.666 140.404 144.842 140.376C145.643 140.22 146.47 140.461 147.298 140.305C147.406 140.291 147.515 140.262 147.623 140.234C147.962 140.149 148.315 140.078 148.654 140.106H148.749C148.844 140.12 148.953 140.149 149.048 140.177C149.631 140.361 150.119 140.858 150.418 141.44C150.499 141.625 150.58 141.824 150.662 142.022C150.852 142.576 150.933 143.158 151.028 143.74C151.53 146.806 152.561 149.602 152.697 152.768C152.765 154.656 152.805 158.545 150.296 158.815Z" fill="#FF4590"/>
<path d="M89.8207 99.0679C87.9893 102.304 84.6523 104.916 81.7357 106.478C80.4741 107.159 79.1582 107.727 77.8152 108.209C77.3133 108.394 76.7978 108.564 76.2823 108.735C74.6952 109.246 73.0809 109.686 71.453 110.097C67.1528 111.19 62.839 112.198 58.5116 113.107C56.9515 113.433 55.378 113.831 53.8044 114.228C51.4168 114.824 49.0157 115.421 46.6282 115.79C45.9499 115.889 45.4209 116.499 45.4209 117.209C45.4073 120.02 44.2136 125.201 42.64 130.893C42.3687 131.873 42.0838 132.852 41.7853 133.846C38.2583 132.54 34.8127 130.978 31.4756 129.175C31.5163 128.707 31.5705 128.253 31.6248 127.799C32.2217 122.376 32.7779 116.897 33.8767 111.545C34.8398 106.833 37.6207 105.683 41.5819 103.525C52.2579 97.7052 63.056 92.0555 74.4103 87.8396C78.4664 86.3208 84.8286 85.5542 88.5184 88.521C91.9776 91.2748 91.8691 95.4198 89.8207 99.0679Z" fill="#8695C2"/>
<path d="M68.1293 69.5565C67.8715 64.787 67.3289 59.8471 66.2572 60.2872C64.1817 61.1247 61.3737 66.7601 58.8369 75.0358C56.3002 83.3114 53.1394 85.5684 53.1394 85.5684C48.9884 85.3697 44.8509 85.1568 40.6999 84.958C37.5256 84.8161 34.3919 85.2561 31.923 82.8004C31.1091 81.9771 30.3223 81.097 29.3049 80.586C28.2875 80.075 26.9445 80.0466 26.1441 80.8699C24.4484 82.6017 24.7469 86.5621 26.9309 87.499C30.4715 89.0178 34.3512 89.8837 38.0953 90.707C43.4944 91.8994 48.9884 92.9782 54.5095 93.2905C56.5172 93.4609 59.8815 89.8411 62.798 86.0795C65.8367 82.1758 68.3734 78.1303 68.3734 78.1303C68.3734 78.1303 68.3734 73.9002 68.1293 69.5565ZM33.171 84.8871C33.1439 84.8729 33.1303 84.8587 33.1032 84.8303C33.1303 84.8445 33.1575 84.8587 33.1846 84.8587L33.171 84.8871Z" fill="#F5A784"/>
<path d="M68.3874 78.1302C68.3874 78.1302 65.8507 82.1758 62.812 86.0795C64.2093 78.0025 63.6124 72.1257 63.6124 72.1257C63.5174 68.8893 66.6375 69.2299 68.1432 69.5706C68.3739 73.9001 68.3874 78.1302 68.3874 78.1302Z" fill="#E0855C"/>
<path d="M86.4288 79.5783C86.4152 80.5719 86.6051 87.6836 87.0392 88.947C87.0799 89.0606 87.1206 89.1315 87.1613 89.1315C84.3532 89.9548 81.7758 90.4659 79.4425 90.764C76.1868 91.1898 73.3788 91.1756 71.0591 90.9627C69.0785 90.111 68.8072 89.529 68.8072 89.529C68.6037 89.4012 68.1425 87.5843 68.1018 87.343C67.8983 85.9093 67.1522 84.5465 66.908 83.1129C66.3926 80.2739 66.6367 77.3213 65.0224 74.7662C64.6562 74.1984 64.2221 73.6732 63.9236 73.0628C63.1368 71.4304 63.476 69.514 63.9643 67.7539C64.005 67.6545 64.0322 67.5409 64.0593 67.4416C64.6697 65.5394 64.5883 63.7225 64.941 61.8203C65.1988 60.4434 66.4739 60.0744 67.7355 59.8472C67.9797 59.8047 68.8886 59.6201 69.0785 59.5775C69.8517 59.4214 70.6385 59.3078 71.3168 59.2227C72.3342 59.0807 73.0939 59.0097 73.0939 59.0097L74.0435 52.3807C74.247 49.2436 81.084 48.6758 81.084 48.6758L80.27 58.8678C80.27 58.9388 80.6363 58.9672 81.3146 58.9813H81.4367C81.8436 58.9955 82.3456 59.0239 82.9424 59.0381C82.9831 59.0381 83.0103 59.0239 83.0645 59.0523C83.2137 59.0523 83.3494 59.0665 83.4986 59.0665C83.7699 59.0807 84.0548 59.0949 84.3532 59.1233C84.9501 59.1375 85.5741 59.1943 86.1575 59.322C87.0256 59.535 87.7717 59.9182 88.1109 60.7273C88.1787 60.8693 88.2194 61.0254 88.2601 61.21C88.6942 63.5237 87.9752 66.0079 87.5276 68.2507C87.2291 69.7128 87.0392 71.1323 86.8764 72.5802C86.8357 73.0344 86.795 73.4744 86.7543 73.9287C86.6187 75.5327 86.5237 77.151 86.4559 78.755C86.4423 78.9963 86.4288 79.2092 86.4152 79.4647L86.4288 79.5783Z" fill="#F5A784"/>
<path d="M80.8268 52.0257C78.4122 55.3616 75.5092 56.1849 73.5015 56.2843L74.0577 52.409C74.2611 49.2719 81.0981 48.7041 81.0981 48.7041L80.8268 52.0257Z" fill="#E0855C"/>
<path d="M84.3805 44.8288C84.3398 42.8557 83.0239 43.5087 82.2507 44.0623C82.3592 42.1886 82.2507 40.5987 81.8166 39.4773C80.4329 35.886 73.4874 34.722 70.1639 39.2502C69.4042 40.2865 69.1193 42.2596 68.9701 44.5875C68.5089 51.6282 71.6696 54.3395 73.8808 54.4246C75.8885 54.4956 79.8903 53.8568 81.4503 49.1867C82.4542 48.5053 84.4212 46.9155 84.3805 44.8288Z" fill="#F5A784"/>
<path d="M72.0628 45.155C72.0628 45.155 71.4659 45.3536 71.6016 44.2894C71.7101 43.3244 72.1307 43.4663 72.1307 43.4663C72.1307 43.4663 72.5376 43.4805 72.4427 44.3319C72.3477 45.1692 72.0628 45.155 72.0628 45.155Z" fill="#3B2645"/>
<path d="M77.5706 45.5095C77.5706 45.5095 76.9738 45.7082 77.1094 44.6439C77.2179 43.6789 77.6385 43.8208 77.6385 43.8208C77.6385 43.8208 78.0454 43.835 77.9505 44.6865C77.8555 45.5237 77.5706 45.5095 77.5706 45.5095Z" fill="#3B2645"/>
<path d="M75.0068 47.6104C74.7083 47.5537 74.03 47.7098 73.9079 47.3692C73.7994 47.0854 74.3285 45.4676 74.4099 45.1838C74.4913 44.8858 74.5727 44.602 74.654 44.3323C74.6269 44.3181 74.5998 44.2898 74.5727 44.2756C74.5048 44.233 74.4506 44.2188 74.3827 44.1904C74.0707 45.3115 73.8265 46.4752 73.5417 47.5253C73.5145 47.6246 73.5824 47.7239 73.6773 47.7239C74.1114 47.7381 74.532 47.8517 74.9525 47.8659C75.1017 47.88 75.156 47.6388 75.0068 47.6104Z" fill="#E0855C"/>
<path d="M72.8224 41.9048C72.4155 41.6636 71.6287 41.5785 71.3167 42.0183C71.2624 42.1035 71.3302 42.2312 71.4252 42.2312C71.6287 42.2312 71.8186 42.1319 72.0221 42.1177C72.2527 42.1035 72.4562 42.1744 72.6732 42.2454C72.8496 42.3163 72.9988 42.0183 72.8224 41.9048Z" fill="#3B2645"/>
<path d="M78.5474 42.7989C78.3304 42.1745 77.2994 42.0752 76.8382 42.4442C76.7297 42.5293 76.7975 42.6996 76.906 42.7422C77.1637 42.8415 77.4351 42.7422 77.7064 42.7847C77.937 42.8131 78.1269 42.9266 78.3439 43.026C78.4389 43.0544 78.5881 42.9266 78.5474 42.7989Z" fill="#3B2645"/>
<path d="M75.6445 49.3141C75.2239 49.5127 74.9119 49.7398 74.4236 49.754C74.0438 49.754 73.6504 49.5553 73.2977 49.6689C73.2434 49.683 73.2027 49.754 73.2298 49.825C73.4876 50.2507 74.193 50.3217 74.6406 50.3075C75.1154 50.2791 75.6852 50.123 75.9429 49.6689C76.0786 49.4276 75.8615 49.2147 75.6445 49.3141Z" fill="#E0855C"/>
<path d="M83.3769 38.6537C84.4622 40.1158 83.3362 42.0463 82.5766 43.3807C82.5087 43.4942 82.4002 43.622 82.2781 43.5794C82.2239 43.111 82.251 42.6283 82.1967 42.1599C82.1289 41.6915 81.939 41.2088 81.5592 40.9533C81.0437 40.6126 80.3518 40.6552 79.7957 40.4139C78.4391 39.8461 78.6426 37.873 77.4353 37.2768C76.1194 36.6381 74.3016 37.7311 73.3792 38.597C72.3211 39.6048 71.3986 40.854 70.0692 41.4218C69.1739 41.805 68.17 41.8192 67.2069 41.7624C66.2844 41.7057 65.3484 41.5921 64.5345 41.1379C63.8427 40.7546 62.5539 39.3777 63.4493 38.8667C63.8698 38.6253 64.8872 38.8099 65.3756 38.7673C65.9724 38.7105 66.5557 38.6253 67.1119 38.3982C68.5634 37.8304 69.0518 36.6664 70.0828 35.6444C71.0595 34.6791 72.4567 33.9978 73.759 33.7707C75.0477 33.5435 76.5806 33.7423 77.788 34.3101C79.1852 34.9772 80.4197 35.9709 81.5863 37.0213C82.1289 37.5039 82.9021 38.015 83.3769 38.6537Z" fill="#3B2645"/>
<path d="M84.2856 63.8078C83.5124 65.7667 83.5124 67.6262 84.0007 69.5993C84.2314 70.4936 84.5434 71.3737 85.0317 72.1544C85.1945 72.4099 86.7681 73.8862 86.7681 73.943C86.7274 74.383 86.7003 74.8373 86.6731 75.2915C86.5918 76.4555 86.4425 79.5642 86.4425 79.5642C86.4425 79.7346 86.4561 80.0611 86.4832 80.4869C86.5511 81.7361 86.646 82.9852 86.7681 84.2344C86.8224 84.9441 87.0665 85.8668 87.1072 86.6901C87.1208 86.9882 87.1208 87.2721 87.0665 87.5134C87.053 87.6128 87.0259 87.698 86.9987 87.7831C86.9445 87.9393 86.8766 88.1096 86.7952 88.2516C85.7236 90.1963 82.6442 91.5306 80.84 92.0558C79.1172 92.5527 77.3401 92.6946 75.5495 92.652C74.722 92.6378 73.8809 92.5811 73.067 92.4959C72.0903 92.3965 71.1 92.2546 70.2047 91.8287C66.9761 90.2957 67.4644 86.1507 66.9354 83.113C66.4199 80.274 66.6641 77.3214 65.0498 74.7663C64.6835 74.1985 64.2494 73.6733 63.951 73.0629C63.1642 71.4305 63.5033 69.5141 63.9917 67.754L67.7764 59.8473C68.0206 59.8048 68.2648 59.748 68.5225 59.7054C68.7125 59.6628 68.9295 59.6202 69.1194 59.5776C69.8927 59.4215 70.6795 59.3079 71.3577 59.2228C70.4217 62.0334 68.9838 68.194 72.7007 68.8612C75.6309 69.3864 77.8556 66.5616 79.1714 64.2336C80.0532 62.6863 80.5415 60.5997 81.4776 58.9814C81.8845 58.9956 82.3865 59.024 82.9833 59.0382C83.024 59.0382 83.0512 59.024 83.1054 59.0524C83.2546 59.0524 83.3903 59.0666 83.5395 59.0666C83.8108 59.0808 84.0957 59.095 84.3941 59.1234C84.991 59.1376 85.615 59.1944 86.1984 59.3221C87.0665 59.5351 87.8126 59.9183 88.1518 60.7274C87.8805 60.7558 87.6092 60.77 87.3514 60.841C85.9135 61.1675 84.8282 62.4166 84.2856 63.8078Z" fill="#FF4590"/>
<path d="M86.47 80.5014C81.8984 76.0867 83.5534 67.1013 83.6077 66.6328C83.7298 69.5854 84.503 72.4954 86.7549 73.9575C86.6328 75.5757 86.5378 77.1656 86.4564 78.7838C86.4429 79.0251 86.4293 79.2522 86.4157 79.4936C86.4293 79.6071 86.4429 79.9762 86.47 80.5014Z" fill="#DE3C7C"/>
<path d="M29.1146 77.9743L27.2561 89.7136C25.8317 89.4722 24.4887 90.4801 24.2446 91.9706C24.0139 93.461 24.9771 94.8663 26.4015 95.1219L29.7386 95.7038C31.1629 95.9452 32.5059 94.9373 32.7501 93.4468C32.9807 91.9564 32.0176 90.5511 30.5932 90.2955L32.4517 78.5563C33.876 78.7976 35.219 77.7897 35.4632 76.2993C35.6938 74.8088 34.7307 73.4035 33.3063 73.148L29.9692 72.566C28.5448 72.3246 27.2018 73.3325 26.9576 74.823C26.727 76.3134 27.6902 77.7188 29.1146 77.9743Z" fill="#3B2645"/>
<path d="M60.1935 95.9452L63.5035 107.33C62.1198 107.77 61.3465 109.303 61.7671 110.736C62.1876 112.184 63.6527 112.993 65.0228 112.553L68.2649 111.517C69.6486 111.077 70.4218 109.544 70.0013 108.11C69.5808 106.662 68.1157 105.853 66.7456 106.293L63.4356 94.909C64.8193 94.469 65.5925 92.9359 65.172 91.5022C64.7515 90.0543 63.2864 89.2452 61.9163 89.6853L58.6741 90.7215C57.2905 91.1615 56.5172 92.6946 56.9378 94.1283C57.3447 95.562 58.8098 96.3853 60.1935 95.9452Z" fill="#3B2645"/>
<path d="M32.6011 84.9153C32.7096 84.4753 32.8181 84.0068 32.7639 83.5526C32.6825 82.8996 32.2755 82.346 31.8685 81.8492C31.1631 80.9833 30.3899 80.1458 29.3861 79.7058C28.3822 79.2657 27.1206 79.3367 26.361 80.1458C24.8281 81.7924 25.0044 84.7876 27.202 85.4121C29.0334 85.9516 31.9499 87.5982 32.6011 84.9153Z" fill="#F5A784"/>
<path d="M148.288 148.793C147.962 149.418 147.135 149.772 146.633 150.255C146.456 150.411 145.995 150.823 145.67 151.22C145.466 150.993 145.276 150.794 145.059 150.624C145.14 150.496 145.208 150.383 145.263 150.312C145.656 149.772 146.09 149.318 146.578 148.907C146.985 148.58 147.419 148.169 147.962 148.183C148.261 148.197 148.437 148.524 148.288 148.793Z" fill="white"/>
<path d="M149.223 151.021C148.45 151.901 147.5 152.511 146.836 153.505C146.822 153.547 146.795 153.576 146.768 153.59C146.727 153.377 146.673 153.178 146.619 153.008C146.564 152.809 146.497 152.625 146.429 152.455C147.08 151.575 147.934 150.723 148.979 150.553C149.223 150.51 149.427 150.808 149.223 151.021Z" fill="white"/>
<path d="M25.0049 155.946C24.9642 156.244 24.5436 156.315 24.3944 156.117C23.8382 155.421 23.5534 154.456 23.16 154.073C22.7123 153.619 22.3189 153.122 21.9526 152.611C22.1019 152.611 22.2646 152.626 22.4274 152.64C22.8073 152.668 23.1735 152.682 23.4991 152.64C24.4215 153.562 25.1541 154.868 25.0049 155.946Z" fill="white"/>
<path d="M27.3514 154.896C27.3243 155.194 26.9851 155.294 26.8224 155.053C26.1983 154.13 25.7914 153.123 25.1538 152.243C25.303 152.172 25.4522 152.101 25.5879 152.03C25.615 152.016 25.6557 152.002 25.6829 151.987C25.8185 151.902 25.9406 151.803 26.0627 151.718C26.8359 152.583 27.4599 153.719 27.3514 154.896Z" fill="white"/>
<path d="M95.2603 99.0681C83.6211 97.5776 72.606 101.126 72.606 101.126L83.4855 88.0244C83.5804 88.0386 83.6618 88.0528 83.7568 88.067C88.0842 88.9613 91.9096 93.4469 95.2603 99.0681Z" fill="#6B779C"/>
<path d="M87.0939 86.7045L87.0532 87.5278C87.0397 87.6272 87.0125 87.7123 86.9854 87.7975C86.9311 87.9537 86.8633 88.124 86.7819 88.2659C85.7102 90.2107 82.6309 91.545 80.8267 92.0702C79.1039 92.567 77.3268 92.709 75.5361 92.6664C82.658 86.0515 82.0883 68.833 82.0883 68.833L86.6734 75.3059C86.592 76.4699 86.4428 79.5786 86.4428 79.5786C86.4428 79.749 86.4563 80.0754 86.4835 80.5013C86.5513 81.7504 86.6463 82.9996 86.7683 84.2488C86.809 84.9443 87.0532 85.8812 87.0939 86.7045Z" fill="#DE3C7C"/>
<path d="M82.5223 63.0691C82.4138 63.7646 82.3595 64.4886 82.2646 65.2693C82.0204 67.2708 82.0475 69.2865 82.2103 71.288C82.5494 75.291 83.4447 79.1946 83.9738 83.1692C84.0281 83.5525 84.7335 87.158 84.2451 87.4703C80.6774 89.6847 77.1097 91.8991 73.542 94.1136C70.8153 95.817 68.4278 97.9888 65.0771 97.35C63.7477 97.0945 62.3911 96.7254 61.0617 97.1655C60.1664 97.4636 59.4067 98.1875 59.2168 99.1528C58.7691 101.566 61.0753 104.618 63.3678 104.149C67.1255 103.383 70.8289 101.878 74.3966 100.416C79.5243 98.3011 84.747 96.1576 89.4543 93.1199C91.5569 91.7572 92.2759 88.9324 92.6014 86.5334C93.1712 82.3033 92.7235 77.917 92.1267 73.7153C91.8282 71.6145 91.4484 69.5136 91.0278 67.4411C90.6209 65.4112 90.1732 63.0407 89.1965 61.2379C88.3826 59.7474 86.5105 58.6686 84.8691 59.137C84.6521 59.208 84.4215 59.2932 84.2315 59.4351C83.9602 59.6339 83.7568 59.9036 83.5668 60.1875C82.9293 61.1385 82.6715 62.0754 82.5223 63.0691ZM67.1933 98.3721C67.1662 98.3721 67.139 98.3721 67.1119 98.3721C67.139 98.3721 67.1662 98.3579 67.1933 98.3437V98.3721Z" fill="#F5A784"/>
<path d="M79.4295 74.028C78.29 74.8368 77.1777 75.4329 75.7533 75.3193C74.6545 75.2342 73.8134 74.4537 72.7689 74.3827C72.7417 74.3827 72.701 74.4253 72.7146 74.4537C73.108 75.6315 74.8987 76.0005 75.9432 76.0431C77.354 76.0998 78.9276 75.6315 79.7008 74.326C79.8094 74.1415 79.6059 73.9003 79.4295 74.028Z" fill="#DE3C7C"/>
<path d="M115.323 74.4668C113.194 73.4592 110.86 72.9767 108.608 72.3949C106.669 71.884 104.24 70.7913 102.246 70.9758C102.056 70.99 101.921 71.1603 101.961 71.359C101.975 71.4157 101.988 71.4725 102.002 71.5151C102.016 71.5577 102.043 71.586 102.083 71.586C102.992 71.5577 104.118 72.1395 105 72.3949C106.248 72.7639 107.51 73.1045 108.771 73.4451C110.887 74.0411 113.004 74.7364 115.201 74.9209C115.432 74.9351 115.527 74.5661 115.323 74.4668Z" fill="#00A7DF"/>
<path d="M134.518 59.0661C128.685 58.172 122.649 58.2146 116.761 58.0301C110.63 57.8456 104.335 57.4341 98.2172 57.9308C97.9458 57.9592 97.9458 58.3423 98.2172 58.3707C104.2 59.0235 110.318 58.9242 116.327 59.1655C122.323 59.4067 128.414 60.0595 134.423 59.8325C134.817 59.8183 134.952 59.1371 134.518 59.0661Z" fill="#00A7DF"/>
<path d="M111.498 42.8987C109.164 43.3528 106.872 44.034 104.539 44.5307C102.544 44.9564 100.265 45.0132 98.4206 45.9356C98.3799 45.9498 98.3934 46.0065 98.4341 46.0207C100.306 46.5032 102.504 45.9498 104.389 45.6092C106.858 45.1551 109.354 44.6016 111.674 43.6083C112.095 43.4238 111.945 42.8136 111.498 42.8987Z" fill="#00A7DF"/>
</svg>
