<svg width="357" height="115" viewBox="0 0 357 115" fill="none" xmlns="http://www.w3.org/2000/svg">
<path d="M0 0H357V107C357 111.418 353.418 115 349 115H8C3.58172 115 0 111.418 0 107V0Z" fill="#FAFAFA" fill-opacity="0.21"/>
<path d="M0.5 0.5H356.5V107C356.5 111.142 353.142 114.5 349 114.5H8C3.85786 114.5 0.5 111.142 0.5 107V0.5Z" stroke="#A3A2A2" stroke-opacity="0.4"/>
<path d="M282.13 62H281.22L277.56 56.45V62H276.65V55.02H277.56L281.22 60.56V55.02H282.13V62ZM285.771 62.09C285.258 62.09 284.791 61.9733 284.371 61.74C283.958 61.5067 283.631 61.1767 283.391 60.75C283.158 60.3167 283.041 59.8167 283.041 59.25C283.041 58.69 283.161 58.1967 283.401 57.77C283.648 57.3367 283.981 57.0067 284.401 56.78C284.821 56.5467 285.291 56.43 285.811 56.43C286.331 56.43 286.801 56.5467 287.221 56.78C287.641 57.0067 287.971 57.3333 288.211 57.76C288.458 58.1867 288.581 58.6833 288.581 59.25C288.581 59.8167 288.454 60.3167 288.201 60.75C287.954 61.1767 287.618 61.5067 287.191 61.74C286.764 61.9733 286.291 62.09 285.771 62.09ZM285.771 61.29C286.098 61.29 286.404 61.2133 286.691 61.06C286.978 60.9067 287.208 60.6767 287.381 60.37C287.561 60.0633 287.651 59.69 287.651 59.25C287.651 58.81 287.564 58.4367 287.391 58.13C287.218 57.8233 286.991 57.5967 286.711 57.45C286.431 57.2967 286.128 57.22 285.801 57.22C285.468 57.22 285.161 57.2967 284.881 57.45C284.608 57.5967 284.388 57.8233 284.221 58.13C284.054 58.4367 283.971 58.81 283.971 59.25C283.971 59.6967 284.051 60.0733 284.211 60.38C284.378 60.6867 284.598 60.9167 284.871 61.07C285.144 61.2167 285.444 61.29 285.771 61.29ZM296.503 57.07C296.503 57.65 296.303 58.1333 295.903 58.52C295.51 58.9 294.907 59.09 294.093 59.09H292.753V62H291.843V55.03H294.093C294.88 55.03 295.477 55.22 295.883 55.6C296.297 55.98 296.503 56.47 296.503 57.07ZM294.093 58.34C294.6 58.34 294.973 58.23 295.213 58.01C295.453 57.79 295.573 57.4767 295.573 57.07C295.573 56.21 295.08 55.78 294.093 55.78H292.753V58.34H294.093ZM296.994 59.24C296.994 58.68 297.108 58.19 297.334 57.77C297.561 57.3433 297.871 57.0133 298.264 56.78C298.664 56.5467 299.108 56.43 299.594 56.43C300.074 56.43 300.491 56.5333 300.844 56.74C301.198 56.9467 301.461 57.2067 301.634 57.52V56.52H302.554V62H301.634V60.98C301.454 61.3 301.184 61.5667 300.824 61.78C300.471 61.9867 300.058 62.09 299.584 62.09C299.098 62.09 298.658 61.97 298.264 61.73C297.871 61.49 297.561 61.1533 297.334 60.72C297.108 60.2867 296.994 59.7933 296.994 59.24ZM301.634 59.25C301.634 58.8367 301.551 58.4767 301.384 58.17C301.218 57.8633 300.991 57.63 300.704 57.47C300.424 57.3033 300.114 57.22 299.774 57.22C299.434 57.22 299.124 57.3 298.844 57.46C298.564 57.62 298.341 57.8533 298.174 58.16C298.008 58.4667 297.924 58.8267 297.924 59.24C297.924 59.66 298.008 60.0267 298.174 60.34C298.341 60.6467 298.564 60.8833 298.844 61.05C299.124 61.21 299.434 61.29 299.774 61.29C300.114 61.29 300.424 61.21 300.704 61.05C300.991 60.8833 301.218 60.6467 301.384 60.34C301.551 60.0267 301.634 59.6633 301.634 59.25ZM308.512 56.52L305.212 64.58H304.272L305.352 61.94L303.142 56.52H304.152L305.872 60.96L307.572 56.52H308.512ZM315.717 56.42C316.144 56.42 316.524 56.51 316.857 56.69C317.19 56.8633 317.454 57.1267 317.647 57.48C317.84 57.8333 317.937 58.2633 317.937 58.77V62H317.037V58.9C317.037 58.3533 316.9 57.9367 316.627 57.65C316.36 57.3567 315.997 57.21 315.537 57.21C315.064 57.21 314.687 57.3633 314.407 57.67C314.127 57.97 313.987 58.4067 313.987 58.98V62H313.087V58.9C313.087 58.3533 312.95 57.9367 312.677 57.65C312.41 57.3567 312.047 57.21 311.587 57.21C311.114 57.21 310.737 57.3633 310.457 57.67C310.177 57.97 310.037 58.4067 310.037 58.98V62H309.127V56.52H310.037V57.31C310.217 57.0233 310.457 56.8033 310.757 56.65C311.064 56.4967 311.4 56.42 311.767 56.42C312.227 56.42 312.634 56.5233 312.987 56.73C313.34 56.9367 313.604 57.24 313.777 57.64C313.93 57.2533 314.184 56.9533 314.537 56.74C314.89 56.5267 315.284 56.42 315.717 56.42ZM324.13 59.05C324.13 59.2233 324.12 59.4067 324.1 59.6H319.72C319.753 60.14 319.936 60.5633 320.27 60.87C320.61 61.17 321.02 61.32 321.5 61.32C321.893 61.32 322.22 61.23 322.48 61.05C322.746 60.8633 322.933 60.6167 323.04 60.31H324.02C323.873 60.8367 323.58 61.2667 323.14 61.6C322.7 61.9267 322.153 62.09 321.5 62.09C320.98 62.09 320.513 61.9733 320.1 61.74C319.693 61.5067 319.373 61.1767 319.14 60.75C318.906 60.3167 318.79 59.8167 318.79 59.25C318.79 58.6833 318.903 58.1867 319.13 57.76C319.356 57.3333 319.673 57.0067 320.08 56.78C320.493 56.5467 320.966 56.43 321.5 56.43C322.02 56.43 322.48 56.5433 322.88 56.77C323.28 56.9967 323.586 57.31 323.8 57.71C324.02 58.1033 324.13 58.55 324.13 59.05ZM323.19 58.86C323.19 58.5133 323.113 58.2167 322.96 57.97C322.806 57.7167 322.596 57.5267 322.33 57.4C322.07 57.2667 321.78 57.2 321.46 57.2C321 57.2 320.606 57.3467 320.28 57.64C319.96 57.9333 319.776 58.34 319.73 58.86H323.19ZM327.701 56.42C328.368 56.42 328.908 56.6233 329.321 57.03C329.734 57.43 329.941 58.01 329.941 58.77V62H329.041V58.9C329.041 58.3533 328.904 57.9367 328.631 57.65C328.358 57.3567 327.984 57.21 327.511 57.21C327.031 57.21 326.648 57.36 326.361 57.66C326.081 57.96 325.941 58.3967 325.941 58.97V62H325.031V56.52H325.941V57.3C326.121 57.02 326.364 56.8033 326.671 56.65C326.984 56.4967 327.328 56.42 327.701 56.42ZM332.237 57.27V60.5C332.237 60.7667 332.294 60.9567 332.407 61.07C332.521 61.1767 332.717 61.23 332.997 61.23H333.667V62H332.847C332.341 62 331.961 61.8833 331.707 61.65C331.454 61.4167 331.327 61.0333 331.327 60.5V57.27H330.617V56.52H331.327V55.14H332.237V56.52H333.667V57.27H332.237Z" fill="#529DFF"/>
<path d="M19.7844 72.056C19.4164 72.056 19.0857 71.992 18.7924 71.864C18.5044 71.7307 18.2777 71.5493 18.1124 71.32C17.9471 71.0853 17.8617 70.816 17.8564 70.512H18.6324C18.6591 70.7733 18.7657 70.9947 18.9524 71.176C19.1444 71.352 19.4217 71.44 19.7844 71.44C20.1311 71.44 20.4031 71.3547 20.6004 71.184C20.8031 71.008 20.9044 70.784 20.9044 70.512C20.9044 70.2987 20.8457 70.1253 20.7284 69.992C20.6111 69.8587 20.4644 69.7573 20.2884 69.688C20.1124 69.6187 19.8751 69.544 19.5764 69.464C19.2084 69.368 18.9124 69.272 18.6884 69.176C18.4697 69.08 18.2804 68.9307 18.1204 68.728C17.9657 68.52 17.8884 68.2427 17.8884 67.896C17.8884 67.592 17.9657 67.3227 18.1204 67.088C18.2751 66.8533 18.4911 66.672 18.7684 66.544C19.0511 66.416 19.3737 66.352 19.7364 66.352C20.2591 66.352 20.6857 66.4827 21.0164 66.744C21.3524 67.0053 21.5417 67.352 21.5844 67.784H20.7844C20.7577 67.5707 20.6457 67.384 20.4484 67.224C20.2511 67.0587 19.9897 66.976 19.6644 66.976C19.3604 66.976 19.1124 67.056 18.9204 67.216C18.7284 67.3707 18.6324 67.5893 18.6324 67.872C18.6324 68.0747 18.6884 68.24 18.8004 68.368C18.9177 68.496 19.0591 68.5947 19.2244 68.664C19.3951 68.728 19.6324 68.8027 19.9364 68.888C20.3044 68.9893 20.6004 69.0907 20.8244 69.192C21.0484 69.288 21.2404 69.44 21.4004 69.648C21.5604 69.8507 21.6404 70.128 21.6404 70.48C21.6404 70.752 21.5684 71.008 21.4244 71.248C21.2804 71.488 21.0671 71.6827 20.7844 71.832C20.5017 71.9813 20.1684 72.056 19.7844 72.056ZM24.6237 72.072C24.213 72.072 23.8397 71.9787 23.5037 71.792C23.173 71.6053 22.9117 71.3413 22.7197 71C22.533 70.6533 22.4397 70.2533 22.4397 69.8C22.4397 69.352 22.5357 68.9573 22.7277 68.616C22.925 68.2693 23.1917 68.0053 23.5277 67.824C23.8637 67.6373 24.2397 67.544 24.6557 67.544C25.0717 67.544 25.4477 67.6373 25.7837 67.824C26.1197 68.0053 26.3837 68.2667 26.5757 68.608C26.773 68.9493 26.8717 69.3467 26.8717 69.8C26.8717 70.2533 26.7704 70.6533 26.5677 71C26.3704 71.3413 26.101 71.6053 25.7597 71.792C25.4184 71.9787 25.0397 72.072 24.6237 72.072ZM24.6237 71.432C24.885 71.432 25.1304 71.3707 25.3597 71.248C25.589 71.1253 25.773 70.9413 25.9117 70.696C26.0557 70.4507 26.1277 70.152 26.1277 69.8C26.1277 69.448 26.0584 69.1493 25.9197 68.904C25.781 68.6587 25.5997 68.4773 25.3757 68.36C25.1517 68.2373 24.909 68.176 24.6477 68.176C24.381 68.176 24.1357 68.2373 23.9117 68.36C23.693 68.4773 23.517 68.6587 23.3837 68.904C23.2504 69.1493 23.1837 69.448 23.1837 69.8C23.1837 70.1573 23.2477 70.4587 23.3757 70.704C23.509 70.9493 23.685 71.1333 23.9037 71.256C24.1224 71.3733 24.3624 71.432 24.6237 71.432ZM27.5569 69.8C27.5569 69.3467 27.6476 68.952 27.8289 68.616C28.0102 68.2747 28.2609 68.0107 28.5809 67.824C28.9062 67.6373 29.2769 67.544 29.6929 67.544C30.2316 67.544 30.6742 67.6747 31.0209 67.936C31.3729 68.1973 31.6049 68.56 31.7169 69.024H30.9329C30.8582 68.7573 30.7116 68.5467 30.4929 68.392C30.2796 68.2373 30.0129 68.16 29.6929 68.16C29.2769 68.16 28.9409 68.304 28.6849 68.592C28.4289 68.8747 28.3009 69.2773 28.3009 69.8C28.3009 70.328 28.4289 70.736 28.6849 71.024C28.9409 71.312 29.2769 71.456 29.6929 71.456C30.0129 71.456 30.2796 71.3813 30.4929 71.232C30.7062 71.0827 30.8529 70.8693 30.9329 70.592H31.7169C31.5996 71.04 31.3649 71.4 31.0129 71.672C30.6609 71.9387 30.2209 72.072 29.6929 72.072C29.2769 72.072 28.9062 71.9787 28.5809 71.792C28.2609 71.6053 28.0102 71.3413 27.8289 71C27.6476 70.6587 27.5569 70.2587 27.5569 69.8ZM33.0643 66.904C32.9256 66.904 32.8083 66.856 32.7123 66.76C32.6163 66.664 32.5683 66.5467 32.5683 66.408C32.5683 66.2693 32.6163 66.152 32.7123 66.056C32.8083 65.96 32.9256 65.912 33.0643 65.912C33.1976 65.912 33.3096 65.96 33.4003 66.056C33.4963 66.152 33.5443 66.2693 33.5443 66.408C33.5443 66.5467 33.4963 66.664 33.4003 66.76C33.3096 66.856 33.1976 66.904 33.0643 66.904ZM33.4163 67.616V72H32.6883V67.616H33.4163ZM34.385 69.792C34.385 69.344 34.4757 68.952 34.657 68.616C34.8383 68.2747 35.0863 68.0107 35.401 67.824C35.721 67.6373 36.0757 67.544 36.465 67.544C36.849 67.544 37.1823 67.6267 37.465 67.792C37.7477 67.9573 37.9583 68.1653 38.097 68.416V67.616H38.833V72H38.097V71.184C37.953 71.44 37.737 71.6533 37.449 71.824C37.1663 71.9893 36.8357 72.072 36.457 72.072C36.0677 72.072 35.7157 71.976 35.401 71.784C35.0863 71.592 34.8383 71.3227 34.657 70.976C34.4757 70.6293 34.385 70.2347 34.385 69.792ZM38.097 69.8C38.097 69.4693 38.0303 69.1813 37.897 68.936C37.7637 68.6907 37.5823 68.504 37.353 68.376C37.129 68.2427 36.881 68.176 36.609 68.176C36.337 68.176 36.089 68.24 35.865 68.368C35.641 68.496 35.4623 68.6827 35.329 68.928C35.1957 69.1733 35.129 69.4613 35.129 69.792C35.129 70.128 35.1957 70.4213 35.329 70.672C35.4623 70.9173 35.641 71.1067 35.865 71.24C36.089 71.368 36.337 71.432 36.609 71.432C36.881 71.432 37.129 71.368 37.353 71.24C37.5823 71.1067 37.7637 70.9173 37.897 70.672C38.0303 70.4213 38.097 70.1307 38.097 69.8ZM40.7913 66.08V72H40.0633V66.08H40.7913ZM48.5488 72H47.8208L44.8928 67.56V72H44.1648V66.416H44.8928L47.8208 70.848V66.416H48.5488V72ZM53.7898 69.64C53.7898 69.7787 53.7818 69.9253 53.7658 70.08H50.2618C50.2885 70.512 50.4352 70.8507 50.7018 71.096C50.9738 71.336 51.3018 71.456 51.6858 71.456C52.0005 71.456 52.2618 71.384 52.4698 71.24C52.6832 71.0907 52.8325 70.8933 52.9178 70.648H53.7018C53.5845 71.0693 53.3498 71.4133 52.9978 71.68C52.6458 71.9413 52.2085 72.072 51.6858 72.072C51.2698 72.072 50.8965 71.9787 50.5658 71.792C50.2405 71.6053 49.9845 71.3413 49.7978 71C49.6112 70.6533 49.5178 70.2533 49.5178 69.8C49.5178 69.3467 49.6085 68.9493 49.7898 68.608C49.9712 68.2667 50.2245 68.0053 50.5498 67.824C50.8805 67.6373 51.2592 67.544 51.6858 67.544C52.1018 67.544 52.4698 67.6347 52.7898 67.816C53.1098 67.9973 53.3552 68.248 53.5258 68.568C53.7018 68.8827 53.7898 69.24 53.7898 69.64ZM53.0378 69.488C53.0378 69.2107 52.9765 68.9733 52.8538 68.776C52.7312 68.5733 52.5632 68.4213 52.3498 68.32C52.1418 68.2133 51.9098 68.16 51.6538 68.16C51.2858 68.16 50.9712 68.2773 50.7098 68.512C50.4538 68.7467 50.3072 69.072 50.2698 69.488H53.0378ZM55.6388 68.216V70.8C55.6388 71.0133 55.6841 71.1653 55.7748 71.256C55.8654 71.3413 56.0228 71.384 56.2468 71.384H56.7828V72H56.1268C55.7214 72 55.4174 71.9067 55.2148 71.72C55.0121 71.5333 54.9108 71.2267 54.9108 70.8V68.216H54.3428V67.616H54.9108V66.512H55.6388V67.616H56.7828V68.216H55.6388ZM63.5048 67.616L62.1368 72H61.3848L60.3288 68.52L59.2728 72H58.5208L57.1448 67.616H57.8888L58.8968 71.296L59.9848 67.616H60.7288L61.7928 71.304L62.7848 67.616H63.5048ZM66.1393 72.072C65.7287 72.072 65.3553 71.9787 65.0193 71.792C64.6887 71.6053 64.4273 71.3413 64.2353 71C64.0487 70.6533 63.9553 70.2533 63.9553 69.8C63.9553 69.352 64.0513 68.9573 64.2433 68.616C64.4407 68.2693 64.7073 68.0053 65.0433 67.824C65.3793 67.6373 65.7553 67.544 66.1713 67.544C66.5873 67.544 66.9633 67.6373 67.2993 67.824C67.6353 68.0053 67.8993 68.2667 68.0913 68.608C68.2887 68.9493 68.3873 69.3467 68.3873 69.8C68.3873 70.2533 68.286 70.6533 68.0833 71C67.886 71.3413 67.6167 71.6053 67.2753 71.792C66.934 71.9787 66.5553 72.072 66.1393 72.072ZM66.1393 71.432C66.4007 71.432 66.646 71.3707 66.8753 71.248C67.1047 71.1253 67.2887 70.9413 67.4273 70.696C67.5713 70.4507 67.6433 70.152 67.6433 69.8C67.6433 69.448 67.574 69.1493 67.4353 68.904C67.2967 68.6587 67.1153 68.4773 66.8913 68.36C66.6673 68.2373 66.4247 68.176 66.1633 68.176C65.8967 68.176 65.6513 68.2373 65.4273 68.36C65.2087 68.4773 65.0327 68.6587 64.8993 68.904C64.766 69.1493 64.6993 69.448 64.6993 69.8C64.6993 70.1573 64.7633 70.4587 64.8913 70.704C65.0247 70.9493 65.2007 71.1333 65.4193 71.256C65.638 71.3733 65.878 71.432 66.1393 71.432ZM70.0725 68.328C70.2005 68.0773 70.3818 67.8827 70.6165 67.744C70.8565 67.6053 71.1472 67.536 71.4885 67.536V68.288H71.2965C70.4805 68.288 70.0725 68.7307 70.0725 69.616V72H69.3445V67.616H70.0725V68.328ZM74.7769 72L73.0569 70.064V72H72.3289V66.08H73.0569V69.56L74.7449 67.616H75.7609L73.6969 69.8L75.7689 72H74.7769ZM81.8749 70.76H79.4429L78.9949 72H78.2269L80.2429 66.456H81.0829L83.0909 72H82.3229L81.8749 70.76ZM81.6669 70.168L80.6589 67.352L79.6509 70.168H81.6669ZM83.6975 69.8C83.6975 69.3467 83.7882 68.952 83.9695 68.616C84.1508 68.2747 84.4015 68.0107 84.7215 67.824C85.0468 67.6373 85.4175 67.544 85.8335 67.544C86.3722 67.544 86.8148 67.6747 87.1615 67.936C87.5135 68.1973 87.7455 68.56 87.8575 69.024H87.0735C86.9988 68.7573 86.8522 68.5467 86.6335 68.392C86.4202 68.2373 86.1535 68.16 85.8335 68.16C85.4175 68.16 85.0815 68.304 84.8255 68.592C84.5695 68.8747 84.4415 69.2773 84.4415 69.8C84.4415 70.328 84.5695 70.736 84.8255 71.024C85.0815 71.312 85.4175 71.456 85.8335 71.456C86.1535 71.456 86.4202 71.3813 86.6335 71.232C86.8468 71.0827 86.9935 70.8693 87.0735 70.592H87.8575C87.7402 71.04 87.5055 71.4 87.1535 71.672C86.8015 71.9387 86.3615 72.072 85.8335 72.072C85.4175 72.072 85.0468 71.9787 84.7215 71.792C84.4015 71.6053 84.1508 71.3413 83.9695 71C83.7882 70.6587 83.6975 70.2587 83.6975 69.8ZM88.5569 69.8C88.5569 69.3467 88.6476 68.952 88.8289 68.616C89.0102 68.2747 89.2609 68.0107 89.5809 67.824C89.9062 67.6373 90.2769 67.544 90.6929 67.544C91.2316 67.544 91.6742 67.6747 92.0209 67.936C92.3729 68.1973 92.6049 68.56 92.7169 69.024H91.9329C91.8582 68.7573 91.7116 68.5467 91.4929 68.392C91.2796 68.2373 91.0129 68.16 90.6929 68.16C90.2769 68.16 89.9409 68.304 89.6849 68.592C89.4289 68.8747 89.3009 69.2773 89.3009 69.8C89.3009 70.328 89.4289 70.736 89.6849 71.024C89.9409 71.312 90.2769 71.456 90.6929 71.456C91.0129 71.456 91.2796 71.3813 91.4929 71.232C91.7062 71.0827 91.8529 70.8693 91.9329 70.592H92.7169C92.5996 71.04 92.3649 71.4 92.0129 71.672C91.6609 71.9387 91.2209 72.072 90.6929 72.072C90.2769 72.072 89.9062 71.9787 89.5809 71.792C89.2609 71.6053 89.0102 71.3413 88.8289 71C88.6476 70.6587 88.5569 70.2587 88.5569 69.8ZM97.6883 69.64C97.6883 69.7787 97.6803 69.9253 97.6643 70.08H94.1603C94.1869 70.512 94.3336 70.8507 94.6003 71.096C94.8723 71.336 95.2003 71.456 95.5843 71.456C95.8989 71.456 96.1603 71.384 96.3683 71.24C96.5816 71.0907 96.7309 70.8933 96.8163 70.648H97.6003C97.4829 71.0693 97.2483 71.4133 96.8963 71.68C96.5443 71.9413 96.1069 72.072 95.5843 72.072C95.1683 72.072 94.7949 71.9787 94.4643 71.792C94.1389 71.6053 93.8829 71.3413 93.6963 71C93.5096 70.6533 93.4163 70.2533 93.4163 69.8C93.4163 69.3467 93.5069 68.9493 93.6883 68.608C93.8696 68.2667 94.1229 68.0053 94.4483 67.824C94.7789 67.6373 95.1576 67.544 95.5843 67.544C96.0003 67.544 96.3683 67.6347 96.6883 67.816C97.0083 67.9973 97.2536 68.248 97.4243 68.568C97.6003 68.8827 97.6883 69.24 97.6883 69.64ZM96.9363 69.488C96.9363 69.2107 96.8749 68.9733 96.7523 68.776C96.6296 68.5733 96.4616 68.4213 96.2483 68.32C96.0403 68.2133 95.8083 68.16 95.5523 68.16C95.1843 68.16 94.8696 68.2773 94.6083 68.512C94.3523 68.7467 94.2056 69.072 94.1683 69.488H96.9363ZM100.201 72.072C99.8652 72.072 99.5639 72.016 99.2972 71.904C99.0305 71.7867 98.8199 71.6267 98.6652 71.424C98.5105 71.216 98.4252 70.9787 98.4092 70.712H99.1612C99.1825 70.9307 99.2839 71.1093 99.4652 71.248C99.6519 71.3867 99.8945 71.456 100.193 71.456C100.471 71.456 100.689 71.3947 100.849 71.272C101.009 71.1493 101.089 70.9947 101.089 70.808C101.089 70.616 101.004 70.4747 100.833 70.384C100.663 70.288 100.399 70.1947 100.041 70.104C99.7159 70.0187 99.4492 69.9333 99.2412 69.848C99.0385 69.7573 98.8625 69.6267 98.7132 69.456C98.5692 69.28 98.4972 69.0507 98.4972 68.768C98.4972 68.544 98.5639 68.3387 98.6972 68.152C98.8305 67.9653 99.0199 67.8187 99.2652 67.712C99.5105 67.6 99.7905 67.544 100.105 67.544C100.591 67.544 100.983 67.6667 101.281 67.912C101.58 68.1573 101.74 68.4933 101.761 68.92H101.033C101.017 68.6907 100.924 68.5067 100.753 68.368C100.588 68.2293 100.364 68.16 100.081 68.16C99.8199 68.16 99.6119 68.216 99.4572 68.328C99.3025 68.44 99.2252 68.5867 99.2252 68.768C99.2252 68.912 99.2705 69.032 99.3612 69.128C99.4572 69.2187 99.5745 69.2933 99.7132 69.352C99.8572 69.4053 100.055 69.4667 100.305 69.536C100.62 69.6213 100.876 69.7067 101.073 69.792C101.271 69.872 101.439 69.9947 101.577 70.16C101.721 70.3253 101.796 70.5413 101.801 70.808C101.801 71.048 101.735 71.264 101.601 71.456C101.468 71.648 101.279 71.8 101.033 71.912C100.793 72.0187 100.516 72.072 100.201 72.072ZM104.381 72.072C104.045 72.072 103.744 72.016 103.477 71.904C103.21 71.7867 103 71.6267 102.845 71.424C102.69 71.216 102.605 70.9787 102.589 70.712H103.341C103.362 70.9307 103.464 71.1093 103.645 71.248C103.832 71.3867 104.074 71.456 104.373 71.456C104.65 71.456 104.869 71.3947 105.029 71.272C105.189 71.1493 105.269 70.9947 105.269 70.808C105.269 70.616 105.184 70.4747 105.013 70.384C104.842 70.288 104.578 70.1947 104.221 70.104C103.896 70.0187 103.629 69.9333 103.421 69.848C103.218 69.7573 103.042 69.6267 102.893 69.456C102.749 69.28 102.677 69.0507 102.677 68.768C102.677 68.544 102.744 68.3387 102.877 68.152C103.01 67.9653 103.2 67.8187 103.445 67.712C103.69 67.6 103.97 67.544 104.285 67.544C104.77 67.544 105.162 67.6667 105.461 67.912C105.76 68.1573 105.92 68.4933 105.941 68.92H105.213C105.197 68.6907 105.104 68.5067 104.933 68.368C104.768 68.2293 104.544 68.16 104.261 68.16C104 68.16 103.792 68.216 103.637 68.328C103.482 68.44 103.405 68.5867 103.405 68.768C103.405 68.912 103.45 69.032 103.541 69.128C103.637 69.2187 103.754 69.2933 103.893 69.352C104.037 69.4053 104.234 69.4667 104.485 69.536C104.8 69.6213 105.056 69.7067 105.253 69.792C105.45 69.872 105.618 69.9947 105.757 70.16C105.901 70.3253 105.976 70.5413 105.981 70.808C105.981 71.048 105.914 71.264 105.781 71.456C105.648 71.648 105.458 71.8 105.213 71.912C104.973 72.0187 104.696 72.072 104.381 72.072Z" fill="#142A3D"/>
<path d="M25.304 44.768V46.96H20.728V49.328H24.152V51.456H20.728V56H17.992V44.768H25.304ZM32.47 56L30.134 51.76H29.478V56H26.742V44.768H31.334C32.2193 44.768 32.9713 44.9227 33.59 45.232C34.2193 45.5413 34.6887 45.968 34.998 46.512C35.3073 47.0453 35.462 47.6427 35.462 48.304C35.462 49.0507 35.2487 49.7173 34.822 50.304C34.406 50.8907 33.7873 51.3067 32.966 51.552L35.558 56H32.47ZM29.478 49.824H31.174C31.6753 49.824 32.0487 49.7013 32.294 49.456C32.55 49.2107 32.678 48.864 32.678 48.416C32.678 47.9893 32.55 47.6533 32.294 47.408C32.0487 47.1627 31.6753 47.04 31.174 47.04H29.478V49.824ZM39.9155 46.96V49.232H43.5795V51.344H39.9155V53.808H44.0595V56H37.1795V44.768H44.0595V46.96H39.9155ZM48.5718 46.96V49.232H52.2358V51.344H48.5718V53.808H52.7158V56H45.8358V44.768H52.7158V46.96H48.5718ZM64.8746 54.016H60.6826L60.0106 56H57.1466L61.2106 44.768H64.3786L68.4426 56H65.5466L64.8746 54.016ZM64.1706 51.904L62.7786 47.792L61.4026 51.904H64.1706ZM69.2155 50.368C69.2155 49.2587 69.4555 48.272 69.9355 47.408C70.4155 46.5333 71.0822 45.856 71.9355 45.376C72.7995 44.8853 73.7755 44.64 74.8635 44.64C76.1968 44.64 77.3382 44.992 78.2875 45.696C79.2368 46.4 79.8715 47.36 80.1915 48.576H77.1835C76.9595 48.1067 76.6395 47.7493 76.2235 47.504C75.8182 47.2587 75.3542 47.136 74.8315 47.136C73.9888 47.136 73.3062 47.4293 72.7835 48.016C72.2608 48.6027 71.9995 49.3867 71.9995 50.368C71.9995 51.3493 72.2608 52.1333 72.7835 52.72C73.3062 53.3067 73.9888 53.6 74.8315 53.6C75.3542 53.6 75.8182 53.4773 76.2235 53.232C76.6395 52.9867 76.9595 52.6293 77.1835 52.16H80.1915C79.8715 53.376 79.2368 54.336 78.2875 55.04C77.3382 55.7333 76.1968 56.08 74.8635 56.08C73.7755 56.08 72.7995 55.84 71.9355 55.36C71.0822 54.8693 70.4155 54.192 69.9355 53.328C69.4555 52.464 69.2155 51.4773 69.2155 50.368ZM81.403 50.368C81.403 49.2587 81.643 48.272 82.123 47.408C82.603 46.5333 83.2697 45.856 84.123 45.376C84.987 44.8853 85.963 44.64 87.051 44.64C88.3843 44.64 89.5257 44.992 90.475 45.696C91.4243 46.4 92.059 47.36 92.379 48.576H89.371C89.147 48.1067 88.827 47.7493 88.411 47.504C88.0057 47.2587 87.5417 47.136 87.019 47.136C86.1763 47.136 85.4937 47.4293 84.971 48.016C84.4483 48.6027 84.187 49.3867 84.187 50.368C84.187 51.3493 84.4483 52.1333 84.971 52.72C85.4937 53.3067 86.1763 53.6 87.019 53.6C87.5417 53.6 88.0057 53.4773 88.411 53.232C88.827 52.9867 89.147 52.6293 89.371 52.16H92.379C92.059 53.376 91.4243 54.336 90.475 55.04C89.5257 55.7333 88.3843 56.08 87.051 56.08C85.963 56.08 84.987 55.84 84.123 55.36C83.2697 54.8693 82.603 54.192 82.123 53.328C81.643 52.464 81.403 51.4773 81.403 50.368ZM96.7905 46.96V49.232H100.455V51.344H96.7905V53.808H100.935V56H94.0545V44.768H100.935V46.96H96.7905ZM106.775 56.112C105.953 56.112 105.217 55.9787 104.567 55.712C103.916 55.4453 103.393 55.0507 102.999 54.528C102.615 54.0053 102.412 53.376 102.391 52.64H105.303C105.345 53.056 105.489 53.376 105.735 53.6C105.98 53.8133 106.3 53.92 106.695 53.92C107.1 53.92 107.42 53.8293 107.655 53.648C107.889 53.456 108.007 53.1947 108.007 52.864C108.007 52.5867 107.911 52.3573 107.719 52.176C107.537 51.9947 107.308 51.8453 107.031 51.728C106.764 51.6107 106.38 51.4773 105.879 51.328C105.153 51.104 104.561 50.88 104.103 50.656C103.644 50.432 103.249 50.1013 102.919 49.664C102.588 49.2267 102.423 48.656 102.423 47.952C102.423 46.9067 102.801 46.0907 103.559 45.504C104.316 44.9067 105.303 44.608 106.519 44.608C107.756 44.608 108.753 44.9067 109.511 45.504C110.268 46.0907 110.673 46.912 110.727 47.968H107.767C107.745 47.6053 107.612 47.3227 107.367 47.12C107.121 46.9067 106.807 46.8 106.423 46.8C106.092 46.8 105.825 46.8907 105.623 47.072C105.42 47.2427 105.319 47.4933 105.319 47.824C105.319 48.1867 105.489 48.4693 105.831 48.672C106.172 48.8747 106.705 49.0933 107.431 49.328C108.156 49.5733 108.743 49.808 109.191 50.032C109.649 50.256 110.044 50.5813 110.375 51.008C110.705 51.4347 110.871 51.984 110.871 52.656C110.871 53.296 110.705 53.8773 110.375 54.4C110.055 54.9227 109.585 55.3387 108.967 55.648C108.348 55.9573 107.617 56.112 106.775 56.112ZM116.619 56.112C115.797 56.112 115.061 55.9787 114.411 55.712C113.76 55.4453 113.237 55.0507 112.843 54.528C112.459 54.0053 112.256 53.376 112.235 52.64H115.147C115.189 53.056 115.333 53.376 115.579 53.6C115.824 53.8133 116.144 53.92 116.539 53.92C116.944 53.92 117.264 53.8293 117.499 53.648C117.733 53.456 117.851 53.1947 117.851 52.864C117.851 52.5867 117.755 52.3573 117.563 52.176C117.381 51.9947 117.152 51.8453 116.875 51.728C116.608 51.6107 116.224 51.4773 115.723 51.328C114.997 51.104 114.405 50.88 113.947 50.656C113.488 50.432 113.093 50.1013 112.763 49.664C112.432 49.2267 112.267 48.656 112.267 47.952C112.267 46.9067 112.645 46.0907 113.403 45.504C114.16 44.9067 115.147 44.608 116.363 44.608C117.6 44.608 118.597 44.9067 119.355 45.504C120.112 46.0907 120.517 46.912 120.571 47.968H117.611C117.589 47.6053 117.456 47.3227 117.211 47.12C116.965 46.9067 116.651 46.8 116.266 46.8C115.936 46.8 115.669 46.8907 115.467 47.072C115.264 47.2427 115.163 47.4933 115.163 47.824C115.163 48.1867 115.333 48.4693 115.674 48.672C116.016 48.8747 116.549 49.0933 117.275 49.328C118 49.5733 118.587 49.808 119.035 50.032C119.493 50.256 119.888 50.5813 120.219 51.008C120.549 51.4347 120.715 51.984 120.715 52.656C120.715 53.296 120.549 53.8773 120.219 54.4C119.899 54.9227 119.429 55.3387 118.811 55.648C118.192 55.9573 117.461 56.112 116.619 56.112Z" fill="#142A3D"/>
</svg>
