<svg width="715" height="133" viewBox="0 0 715 133" fill="none" xmlns="http://www.w3.org/2000/svg">
<path d="M0 0H715V125C715 129.418 711.418 133 707 133H8C3.58172 133 0 129.418 0 125V0Z" fill="#FAFAFA" fill-opacity="0.21"/>
<path d="M0.5 0.5H714.5V125C714.5 129.142 711.142 132.5 707 132.5H8C3.85786 132.5 0.5 129.142 0.5 125V0.5Z" stroke="#A3A2A2" stroke-opacity="0.4"/>
<path d="M612.756 73H611.664L607.272 66.34V73H606.18V64.624H607.272L611.664 71.272V64.624H612.756V73ZM617.125 73.108C616.509 73.108 615.949 72.968 615.445 72.688C614.949 72.408 614.557 72.012 614.269 71.5C613.989 70.98 613.849 70.38 613.849 69.7C613.849 69.028 613.993 68.436 614.281 67.924C614.577 67.404 614.977 67.008 615.481 66.736C615.985 66.456 616.549 66.316 617.173 66.316C617.797 66.316 618.361 66.456 618.865 66.736C619.369 67.008 619.765 67.4 620.053 67.912C620.349 68.424 620.497 69.02 620.497 69.7C620.497 70.38 620.345 70.98 620.041 71.5C619.745 72.012 619.341 72.408 618.829 72.688C618.317 72.968 617.749 73.108 617.125 73.108ZM617.125 72.148C617.517 72.148 617.885 72.056 618.229 71.872C618.573 71.688 618.849 71.412 619.057 71.044C619.273 70.676 619.381 70.228 619.381 69.7C619.381 69.172 619.277 68.724 619.069 68.356C618.861 67.988 618.589 67.716 618.253 67.54C617.917 67.356 617.553 67.264 617.161 67.264C616.761 67.264 616.393 67.356 616.057 67.54C615.729 67.716 615.465 67.988 615.265 68.356C615.065 68.724 614.965 69.172 614.965 69.7C614.965 70.236 615.061 70.688 615.253 71.056C615.453 71.424 615.717 71.7 616.045 71.884C616.373 72.06 616.733 72.148 617.125 72.148ZM630.004 67.084C630.004 67.78 629.764 68.36 629.284 68.824C628.812 69.28 628.088 69.508 627.112 69.508H625.504V73H624.412V64.636H627.112C628.056 64.636 628.772 64.864 629.26 65.32C629.756 65.776 630.004 66.364 630.004 67.084ZM627.112 68.608C627.72 68.608 628.168 68.476 628.456 68.212C628.744 67.948 628.888 67.572 628.888 67.084C628.888 66.052 628.296 65.536 627.112 65.536H625.504V68.608H627.112ZM630.593 69.688C630.593 69.016 630.729 68.428 631.001 67.924C631.273 67.412 631.645 67.016 632.117 66.736C632.597 66.456 633.129 66.316 633.713 66.316C634.289 66.316 634.789 66.44 635.213 66.688C635.637 66.936 635.953 67.248 636.161 67.624V66.424H637.265V73H636.161V71.776C635.945 72.16 635.621 72.48 635.189 72.736C634.765 72.984 634.269 73.108 633.701 73.108C633.117 73.108 632.589 72.964 632.117 72.676C631.645 72.388 631.273 71.984 631.001 71.464C630.729 70.944 630.593 70.352 630.593 69.688ZM636.161 69.7C636.161 69.204 636.061 68.772 635.861 68.404C635.661 68.036 635.389 67.756 635.045 67.564C634.709 67.364 634.337 67.264 633.929 67.264C633.521 67.264 633.149 67.36 632.813 67.552C632.477 67.744 632.209 68.024 632.009 68.392C631.809 68.76 631.709 69.192 631.709 69.688C631.709 70.192 631.809 70.632 632.009 71.008C632.209 71.376 632.477 71.66 632.813 71.86C633.149 72.052 633.521 72.148 633.929 72.148C634.337 72.148 634.709 72.052 635.045 71.86C635.389 71.66 635.661 71.376 635.861 71.008C636.061 70.632 636.161 70.196 636.161 69.7ZM644.415 66.424L640.455 76.096H639.327L640.623 72.928L637.971 66.424H639.183L641.247 71.752L643.287 66.424H644.415ZM653.06 66.304C653.572 66.304 654.028 66.412 654.428 66.628C654.828 66.836 655.144 67.152 655.376 67.576C655.608 68 655.724 68.516 655.724 69.124V73H654.644V69.28C654.644 68.624 654.48 68.124 654.152 67.78C653.832 67.428 653.396 67.252 652.844 67.252C652.276 67.252 651.824 67.436 651.488 67.804C651.152 68.164 650.984 68.688 650.984 69.376V73H649.904V69.28C649.904 68.624 649.74 68.124 649.412 67.78C649.092 67.428 648.656 67.252 648.104 67.252C647.536 67.252 647.084 67.436 646.748 67.804C646.412 68.164 646.244 68.688 646.244 69.376V73H645.152V66.424H646.244V67.372C646.46 67.028 646.748 66.764 647.108 66.58C647.476 66.396 647.88 66.304 648.32 66.304C648.872 66.304 649.36 66.428 649.784 66.676C650.208 66.924 650.524 67.288 650.732 67.768C650.916 67.304 651.22 66.944 651.644 66.688C652.068 66.432 652.54 66.304 653.06 66.304ZM663.156 69.46C663.156 69.668 663.144 69.888 663.12 70.12H657.864C657.904 70.768 658.124 71.276 658.524 71.644C658.932 72.004 659.424 72.184 660 72.184C660.472 72.184 660.864 72.076 661.176 71.86C661.496 71.636 661.72 71.34 661.848 70.972H663.024C662.848 71.604 662.496 72.12 661.968 72.52C661.44 72.912 660.784 73.108 660 73.108C659.376 73.108 658.816 72.968 658.32 72.688C657.832 72.408 657.448 72.012 657.168 71.5C656.888 70.98 656.748 70.38 656.748 69.7C656.748 69.02 656.884 68.424 657.156 67.912C657.428 67.4 657.808 67.008 658.296 66.736C658.792 66.456 659.36 66.316 660 66.316C660.624 66.316 661.176 66.452 661.656 66.724C662.136 66.996 662.504 67.372 662.76 67.852C663.024 68.324 663.156 68.86 663.156 69.46ZM662.028 69.232C662.028 68.816 661.936 68.46 661.752 68.164C661.568 67.86 661.316 67.632 660.996 67.48C660.684 67.32 660.336 67.24 659.952 67.24C659.4 67.24 658.928 67.416 658.536 67.768C658.152 68.12 657.932 68.608 657.876 69.232H662.028ZM667.441 66.304C668.241 66.304 668.889 66.548 669.385 67.036C669.881 67.516 670.129 68.212 670.129 69.124V73H669.049V69.28C669.049 68.624 668.885 68.124 668.557 67.78C668.229 67.428 667.781 67.252 667.213 67.252C666.637 67.252 666.177 67.432 665.833 67.792C665.497 68.152 665.329 68.676 665.329 69.364V73H664.237V66.424H665.329V67.36C665.545 67.024 665.837 66.764 666.205 66.58C666.581 66.396 666.993 66.304 667.441 66.304ZM672.885 67.324V71.2C672.885 71.52 672.953 71.748 673.089 71.884C673.225 72.012 673.461 72.076 673.797 72.076H674.601V73H673.617C673.009 73 672.553 72.86 672.249 72.58C671.945 72.3 671.793 71.84 671.793 71.2V67.324H670.941V66.424H671.793V64.768H672.885V66.424H674.601V67.324H672.885Z" fill="#529DFF"/>
<path d="M59.47 87.6831C58.78 87.6831 58.16 87.5631 57.61 87.3231C57.07 87.0731 56.645 86.7331 56.335 86.3031C56.025 85.8631 55.865 85.3581 55.855 84.7881H57.31C57.36 85.2781 57.56 85.6931 57.91 86.0331C58.27 86.3631 58.79 86.5281 59.47 86.5281C60.12 86.5281 60.63 86.3681 61 86.0481C61.38 85.7181 61.57 85.2981 61.57 84.7881C61.57 84.3881 61.46 84.0631 61.24 83.8131C61.02 83.5631 60.745 83.3731 60.415 83.2431C60.085 83.1131 59.64 82.9731 59.08 82.8231C58.39 82.6431 57.835 82.4631 57.415 82.2831C57.005 82.1031 56.65 81.8231 56.35 81.4431C56.06 81.0531 55.915 80.5331 55.915 79.8831C55.915 79.3131 56.06 78.8081 56.35 78.3681C56.64 77.9281 57.045 77.5881 57.565 77.3481C58.095 77.1081 58.7 76.9881 59.38 76.9881C60.36 76.9881 61.16 77.2331 61.78 77.7231C62.41 78.2131 62.765 78.8631 62.845 79.6731H61.345C61.295 79.2731 61.085 78.9231 60.715 78.6231C60.345 78.3131 59.855 78.1581 59.245 78.1581C58.675 78.1581 58.21 78.3081 57.85 78.6081C57.49 78.8981 57.31 79.3081 57.31 79.8381C57.31 80.2181 57.415 80.5281 57.625 80.7681C57.845 81.0081 58.11 81.1931 58.42 81.3231C58.74 81.4431 59.185 81.5831 59.755 81.7431C60.445 81.9331 61 82.1231 61.42 82.3131C61.84 82.4931 62.2 82.7781 62.5 83.1681C62.8 83.5481 62.95 84.0681 62.95 84.7281C62.95 85.2381 62.815 85.7181 62.545 86.1681C62.275 86.6181 61.875 86.9831 61.345 87.2631C60.815 87.5431 60.19 87.6831 59.47 87.6831ZM68.5437 87.7131C67.7737 87.7131 67.0737 87.5381 66.4437 87.1881C65.8237 86.8381 65.3337 86.3431 64.9737 85.7031C64.6237 85.0531 64.4487 84.3031 64.4487 83.4531C64.4487 82.6131 64.6287 81.8731 64.9887 81.2331C65.3587 80.5831 65.8587 80.0881 66.4887 79.7481C67.1187 79.3981 67.8237 79.2231 68.6037 79.2231C69.3837 79.2231 70.0887 79.3981 70.7187 79.7481C71.3487 80.0881 71.8437 80.5781 72.2037 81.2181C72.5737 81.8581 72.7587 82.6031 72.7587 83.4531C72.7587 84.3031 72.5687 85.0531 72.1887 85.7031C71.8187 86.3431 71.3137 86.8381 70.6737 87.1881C70.0337 87.5381 69.3237 87.7131 68.5437 87.7131ZM68.5437 86.5131C69.0337 86.5131 69.4937 86.3981 69.9237 86.1681C70.3537 85.9381 70.6987 85.5931 70.9587 85.1331C71.2287 84.6731 71.3637 84.1131 71.3637 83.4531C71.3637 82.7931 71.2337 82.2331 70.9737 81.7731C70.7137 81.3131 70.3737 80.9731 69.9537 80.7531C69.5337 80.5231 69.0787 80.4081 68.5887 80.4081C68.0887 80.4081 67.6287 80.5231 67.2087 80.7531C66.7987 80.9731 66.4687 81.3131 66.2187 81.7731C65.9687 82.2331 65.8437 82.7931 65.8437 83.4531C65.8437 84.1231 65.9637 84.6881 66.2037 85.1481C66.4537 85.6081 66.7837 85.9531 67.1937 86.1831C67.6037 86.4031 68.0537 86.5131 68.5437 86.5131ZM74.0434 83.4531C74.0434 82.6031 74.2134 81.8631 74.5534 81.2331C74.8934 80.5931 75.3634 80.0981 75.9634 79.7481C76.5734 79.3981 77.2684 79.2231 78.0484 79.2231C79.0584 79.2231 79.8884 79.4681 80.5384 79.9581C81.1984 80.4481 81.6334 81.1281 81.8434 81.9981H80.3734C80.2334 81.4981 79.9584 81.1031 79.5484 80.8131C79.1484 80.5231 78.6484 80.3781 78.0484 80.3781C77.2684 80.3781 76.6384 80.6481 76.1584 81.1881C75.6784 81.7181 75.4384 82.4731 75.4384 83.4531C75.4384 84.4431 75.6784 85.2081 76.1584 85.7481C76.6384 86.2881 77.2684 86.5581 78.0484 86.5581C78.6484 86.5581 79.1484 86.4181 79.5484 86.1381C79.9484 85.8581 80.2234 85.4581 80.3734 84.9381H81.8434C81.6234 85.7781 81.1834 86.4531 80.5234 86.9631C79.8634 87.4631 79.0384 87.7131 78.0484 87.7131C77.2684 87.7131 76.5734 87.5381 75.9634 87.1881C75.3634 86.8381 74.8934 86.3431 74.5534 85.7031C74.2134 85.0631 74.0434 84.3131 74.0434 83.4531ZM84.3698 78.0231C84.1098 78.0231 83.8898 77.9331 83.7098 77.7531C83.5298 77.5731 83.4398 77.3531 83.4398 77.0931C83.4398 76.8331 83.5298 76.6131 83.7098 76.4331C83.8898 76.2531 84.1098 76.1631 84.3698 76.1631C84.6198 76.1631 84.8298 76.2531 84.9998 76.4331C85.1798 76.6131 85.2698 76.8331 85.2698 77.0931C85.2698 77.3531 85.1798 77.5731 84.9998 77.7531C84.8298 77.9331 84.6198 78.0231 84.3698 78.0231ZM85.0298 79.3581V87.5781H83.6648V79.3581H85.0298ZM86.8462 83.4381C86.8462 82.5981 87.0162 81.8631 87.3562 81.2331C87.6962 80.5931 88.1612 80.0981 88.7512 79.7481C89.3512 79.3981 90.0162 79.2231 90.7462 79.2231C91.4662 79.2231 92.0912 79.3781 92.6212 79.6881C93.1512 79.9981 93.5462 80.3881 93.8062 80.8581V79.3581H95.1862V87.5781H93.8062V86.0481C93.5362 86.5281 93.1312 86.9281 92.5912 87.2481C92.0612 87.5581 91.4412 87.7131 90.7312 87.7131C90.0012 87.7131 89.3412 87.5331 88.7512 87.1731C88.1612 86.8131 87.6962 86.3081 87.3562 85.6581C87.0162 85.0081 86.8462 84.2681 86.8462 83.4381ZM93.8062 83.4531C93.8062 82.8331 93.6812 82.2931 93.4312 81.8331C93.1812 81.3731 92.8412 81.0231 92.4112 80.7831C91.9912 80.5331 91.5262 80.4081 91.0162 80.4081C90.5062 80.4081 90.0412 80.5281 89.6212 80.7681C89.2012 81.0081 88.8662 81.3581 88.6162 81.8181C88.3662 82.2781 88.2412 82.8181 88.2412 83.4381C88.2412 84.0681 88.3662 84.6181 88.6162 85.0881C88.8662 85.5481 89.2012 85.9031 89.6212 86.1531C90.0412 86.3931 90.5062 86.5131 91.0162 86.5131C91.5262 86.5131 91.9912 86.3931 92.4112 86.1531C92.8412 85.9031 93.1812 85.5481 93.4312 85.0881C93.6812 84.6181 93.8062 84.0731 93.8062 83.4531ZM98.8579 76.4781V87.5781H97.4929V76.4781H98.8579ZM113.403 87.5781H112.038L106.548 79.2531V87.5781H105.183V77.1081H106.548L112.038 85.4181V77.1081H113.403V87.5781ZM123.23 83.1531C123.23 83.4131 123.215 83.6881 123.185 83.9781H116.615C116.665 84.7881 116.94 85.4231 117.44 85.8831C117.95 86.3331 118.565 86.5581 119.285 86.5581C119.875 86.5581 120.365 86.4231 120.755 86.1531C121.155 85.8731 121.435 85.5031 121.595 85.0431H123.065C122.845 85.8331 122.405 86.4781 121.745 86.9781C121.085 87.4681 120.265 87.7131 119.285 87.7131C118.505 87.7131 117.805 87.5381 117.185 87.1881C116.575 86.8381 116.095 86.3431 115.745 85.7031C115.395 85.0531 115.22 84.3031 115.22 83.4531C115.22 82.6031 115.39 81.8581 115.73 81.2181C116.07 80.5781 116.545 80.0881 117.155 79.7481C117.775 79.3981 118.485 79.2231 119.285 79.2231C120.065 79.2231 120.755 79.3931 121.355 79.7331C121.955 80.0731 122.415 80.5431 122.735 81.1431C123.065 81.7331 123.23 82.4031 123.23 83.1531ZM121.82 82.8681C121.82 82.3481 121.705 81.9031 121.475 81.5331C121.245 81.1531 120.93 80.8681 120.53 80.6781C120.14 80.4781 119.705 80.3781 119.225 80.3781C118.535 80.3781 117.945 80.5981 117.455 81.0381C116.975 81.4781 116.7 82.0881 116.63 82.8681H121.82ZM126.697 80.4831V85.3281C126.697 85.7281 126.782 86.0131 126.952 86.1831C127.122 86.3431 127.417 86.4231 127.837 86.4231H128.842V87.5781H127.612C126.852 87.5781 126.282 87.4031 125.902 87.0531C125.522 86.7031 125.332 86.1281 125.332 85.3281V80.4831H124.267V79.3581H125.332V77.2881H126.697V79.3581H128.842V80.4831H126.697ZM141.446 79.3581L138.881 87.5781H137.471L135.491 81.0531L133.511 87.5781H132.101L129.521 79.3581H130.916L132.806 86.2581L134.846 79.3581H136.241L138.236 86.2731L140.096 79.3581H141.446ZM146.386 87.7131C145.616 87.7131 144.916 87.5381 144.286 87.1881C143.666 86.8381 143.176 86.3431 142.816 85.7031C142.466 85.0531 142.291 84.3031 142.291 83.4531C142.291 82.6131 142.471 81.8731 142.831 81.2331C143.201 80.5831 143.701 80.0881 144.331 79.7481C144.961 79.3981 145.666 79.2231 146.446 79.2231C147.226 79.2231 147.931 79.3981 148.561 79.7481C149.191 80.0881 149.686 80.5781 150.046 81.2181C150.416 81.8581 150.601 82.6031 150.601 83.4531C150.601 84.3031 150.411 85.0531 150.031 85.7031C149.661 86.3431 149.156 86.8381 148.516 87.1881C147.876 87.5381 147.166 87.7131 146.386 87.7131ZM146.386 86.5131C146.876 86.5131 147.336 86.3981 147.766 86.1681C148.196 85.9381 148.541 85.5931 148.801 85.1331C149.071 84.6731 149.206 84.1131 149.206 83.4531C149.206 82.7931 149.076 82.2331 148.816 81.7731C148.556 81.3131 148.216 80.9731 147.796 80.7531C147.376 80.5231 146.921 80.4081 146.431 80.4081C145.931 80.4081 145.471 80.5231 145.051 80.7531C144.641 80.9731 144.311 81.3131 144.061 81.7731C143.811 82.2331 143.686 82.7931 143.686 83.4531C143.686 84.1231 143.806 84.6881 144.046 85.1481C144.296 85.6081 144.626 85.9531 145.036 86.1831C145.446 86.4031 145.896 86.5131 146.386 86.5131ZM153.76 80.6931C154 80.2231 154.34 79.8581 154.78 79.5981C155.23 79.3381 155.775 79.2081 156.415 79.2081V80.6181H156.055C154.525 80.6181 153.76 81.4481 153.76 83.1081V87.5781H152.395V79.3581H153.76V80.6931ZM162.581 87.5781L159.356 83.9481V87.5781H157.991V76.4781H159.356V83.0031L162.521 79.3581H164.426L160.556 83.4531L164.441 87.5781H162.581ZM169.2 83.4381C169.2 82.5981 169.37 81.8631 169.71 81.2331C170.05 80.5931 170.515 80.0981 171.105 79.7481C171.705 79.3981 172.37 79.2231 173.1 79.2231C173.82 79.2231 174.445 79.3781 174.975 79.6881C175.505 79.9981 175.9 80.3881 176.16 80.8581V79.3581H177.54V87.5781H176.16V86.0481C175.89 86.5281 175.485 86.9281 174.945 87.2481C174.415 87.5581 173.795 87.7131 173.085 87.7131C172.355 87.7131 171.695 87.5331 171.105 87.1731C170.515 86.8131 170.05 86.3081 169.71 85.6581C169.37 85.0081 169.2 84.2681 169.2 83.4381ZM176.16 83.4531C176.16 82.8331 176.035 82.2931 175.785 81.8331C175.535 81.3731 175.195 81.0231 174.765 80.7831C174.345 80.5331 173.88 80.4081 173.37 80.4081C172.86 80.4081 172.395 80.5281 171.975 80.7681C171.555 81.0081 171.22 81.3581 170.97 81.8181C170.72 82.2781 170.595 82.8181 170.595 83.4381C170.595 84.0681 170.72 84.6181 170.97 85.0881C171.22 85.5481 171.555 85.9031 171.975 86.1531C172.395 86.3931 172.86 86.5131 173.37 86.5131C173.88 86.5131 174.345 86.3931 174.765 86.1531C175.195 85.9031 175.535 85.5481 175.785 85.0881C176.035 84.6181 176.16 84.0731 176.16 83.4531ZM179.336 83.4531C179.336 82.6031 179.506 81.8631 179.846 81.2331C180.186 80.5931 180.656 80.0981 181.256 79.7481C181.866 79.3981 182.561 79.2231 183.341 79.2231C184.351 79.2231 185.181 79.4681 185.831 79.9581C186.491 80.4481 186.926 81.1281 187.136 81.9981H185.666C185.526 81.4981 185.251 81.1031 184.841 80.8131C184.441 80.5231 183.941 80.3781 183.341 80.3781C182.561 80.3781 181.931 80.6481 181.451 81.1881C180.971 81.7181 180.731 82.4731 180.731 83.4531C180.731 84.4431 180.971 85.2081 181.451 85.7481C181.931 86.2881 182.561 86.5581 183.341 86.5581C183.941 86.5581 184.441 86.4181 184.841 86.1381C185.241 85.8581 185.516 85.4581 185.666 84.9381H187.136C186.916 85.7781 186.476 86.4531 185.816 86.9631C185.156 87.4631 184.331 87.7131 183.341 87.7131C182.561 87.7131 181.866 87.5381 181.256 87.1881C180.656 86.8381 180.186 86.3431 179.846 85.7031C179.506 85.0631 179.336 84.3131 179.336 83.4531ZM188.448 83.4531C188.448 82.6031 188.618 81.8631 188.958 81.2331C189.298 80.5931 189.768 80.0981 190.368 79.7481C190.978 79.3981 191.673 79.2231 192.453 79.2231C193.463 79.2231 194.293 79.4681 194.943 79.9581C195.603 80.4481 196.038 81.1281 196.248 81.9981H194.778C194.638 81.4981 194.363 81.1031 193.953 80.8131C193.553 80.5231 193.053 80.3781 192.453 80.3781C191.673 80.3781 191.043 80.6481 190.563 81.1881C190.083 81.7181 189.843 82.4731 189.843 83.4531C189.843 84.4431 190.083 85.2081 190.563 85.7481C191.043 86.2881 191.673 86.5581 192.453 86.5581C193.053 86.5581 193.553 86.4181 193.953 86.1381C194.353 85.8581 194.628 85.4581 194.778 84.9381H196.248C196.028 85.7781 195.588 86.4531 194.928 86.9631C194.268 87.4631 193.443 87.7131 192.453 87.7131C191.673 87.7131 190.978 87.5381 190.368 87.1881C189.768 86.8381 189.298 86.3431 188.958 85.7031C188.618 85.0631 188.448 84.3131 188.448 83.4531ZM205.569 83.1531C205.569 83.4131 205.554 83.6881 205.524 83.9781H198.954C199.004 84.7881 199.279 85.4231 199.779 85.8831C200.289 86.3331 200.904 86.5581 201.624 86.5581C202.214 86.5581 202.704 86.4231 203.094 86.1531C203.494 85.8731 203.774 85.5031 203.934 85.0431H205.404C205.184 85.8331 204.744 86.4781 204.084 86.9781C203.424 87.4681 202.604 87.7131 201.624 87.7131C200.844 87.7131 200.144 87.5381 199.524 87.1881C198.914 86.8381 198.434 86.3431 198.084 85.7031C197.734 85.0531 197.559 84.3031 197.559 83.4531C197.559 82.6031 197.729 81.8581 198.069 81.2181C198.409 80.5781 198.884 80.0881 199.494 79.7481C200.114 79.3981 200.824 79.2231 201.624 79.2231C202.404 79.2231 203.094 79.3931 203.694 79.7331C204.294 80.0731 204.754 80.5431 205.074 81.1431C205.404 81.7331 205.569 82.4031 205.569 83.1531ZM204.159 82.8681C204.159 82.3481 204.044 81.9031 203.814 81.5331C203.584 81.1531 203.269 80.8681 202.869 80.6781C202.479 80.4781 202.044 80.3781 201.564 80.3781C200.874 80.3781 200.284 80.5981 199.794 81.0381C199.314 81.4781 199.039 82.0881 198.969 82.8681H204.159ZM210.281 87.7131C209.651 87.7131 209.086 87.6081 208.586 87.3981C208.086 87.1781 207.691 86.8781 207.401 86.4981C207.111 86.1081 206.951 85.6631 206.921 85.1631H208.331C208.371 85.5731 208.561 85.9081 208.901 86.1681C209.251 86.4281 209.706 86.5581 210.266 86.5581C210.786 86.5581 211.196 86.4431 211.496 86.2131C211.796 85.9831 211.946 85.6931 211.946 85.3431C211.946 84.9831 211.786 84.7181 211.466 84.5481C211.146 84.3681 210.651 84.1931 209.981 84.0231C209.371 83.8631 208.871 83.7031 208.481 83.5431C208.101 83.3731 207.771 83.1281 207.491 82.8081C207.221 82.4781 207.086 82.0481 207.086 81.5181C207.086 81.0981 207.211 80.7131 207.461 80.3631C207.711 80.0131 208.066 79.7381 208.526 79.5381C208.986 79.3281 209.511 79.2231 210.101 79.2231C211.011 79.2231 211.746 79.4531 212.306 79.9131C212.866 80.3731 213.166 81.0031 213.206 81.8031H211.841C211.811 81.3731 211.636 81.0281 211.316 80.7681C211.006 80.5081 210.586 80.3781 210.056 80.3781C209.566 80.3781 209.176 80.4831 208.886 80.6931C208.596 80.9031 208.451 81.1781 208.451 81.5181C208.451 81.7881 208.536 82.0131 208.706 82.1931C208.886 82.3631 209.106 82.5031 209.366 82.6131C209.636 82.7131 210.006 82.8281 210.476 82.9581C211.066 83.1181 211.546 83.2781 211.916 83.4381C212.286 83.5881 212.601 83.8181 212.861 84.1281C213.131 84.4381 213.271 84.8431 213.281 85.3431C213.281 85.7931 213.156 86.1981 212.906 86.5581C212.656 86.9181 212.301 87.2031 211.841 87.4131C211.391 87.6131 210.871 87.7131 210.281 87.7131ZM218.118 87.7131C217.488 87.7131 216.923 87.6081 216.423 87.3981C215.923 87.1781 215.528 86.8781 215.238 86.4981C214.948 86.1081 214.788 85.6631 214.758 85.1631H216.168C216.208 85.5731 216.398 85.9081 216.738 86.1681C217.088 86.4281 217.543 86.5581 218.103 86.5581C218.623 86.5581 219.033 86.4431 219.333 86.2131C219.633 85.9831 219.783 85.6931 219.783 85.3431C219.783 84.9831 219.623 84.7181 219.303 84.5481C218.983 84.3681 218.488 84.1931 217.818 84.0231C217.208 83.8631 216.708 83.7031 216.318 83.5431C215.938 83.3731 215.608 83.1281 215.328 82.8081C215.058 82.4781 214.923 82.0481 214.923 81.5181C214.923 81.0981 215.048 80.7131 215.298 80.3631C215.548 80.0131 215.903 79.7381 216.363 79.5381C216.823 79.3281 217.348 79.2231 217.938 79.2231C218.848 79.2231 219.583 79.4531 220.143 79.9131C220.703 80.3731 221.003 81.0031 221.043 81.8031H219.678C219.648 81.3731 219.473 81.0281 219.153 80.7681C218.843 80.5081 218.423 80.3781 217.893 80.3781C217.403 80.3781 217.013 80.4831 216.723 80.6931C216.433 80.9031 216.288 81.1781 216.288 81.5181C216.288 81.7881 216.373 82.0131 216.543 82.1931C216.723 82.3631 216.943 82.5031 217.203 82.6131C217.473 82.7131 217.843 82.8281 218.313 82.9581C218.903 83.1181 219.383 83.2781 219.753 83.4381C220.123 83.5881 220.438 83.8181 220.698 84.1281C220.968 84.4381 221.108 84.8431 221.118 85.3431C221.118 85.7931 220.993 86.1981 220.743 86.5581C220.493 86.9181 220.138 87.2031 219.678 87.4131C219.228 87.6131 218.708 87.7131 218.118 87.7131Z" fill="#142A3D"/>
<path d="M66.0176 49.556V52.57H59.7256V55.826H64.4336V58.752H59.7256V65H55.9636V49.556H66.0176ZM75.8709 65L72.6589 59.17H71.7569V65H67.9949V49.556H74.3089C75.5262 49.556 76.5602 49.7687 77.4109 50.194C78.2762 50.6193 78.9215 51.206 79.3469 51.954C79.7722 52.6873 79.9849 53.5087 79.9849 54.418C79.9849 55.4447 79.6915 56.3613 79.1049 57.168C78.5329 57.9747 77.6822 58.5467 76.5529 58.884L80.1169 65H75.8709ZM71.7569 56.508H74.0889C74.7782 56.508 75.2915 56.3393 75.6289 56.002C75.9809 55.6647 76.1569 55.188 76.1569 54.572C76.1569 53.9853 75.9809 53.5233 75.6289 53.186C75.2915 52.8487 74.7782 52.68 74.0889 52.68H71.7569V56.508ZM86.1084 52.57V55.694H91.1464V58.598H86.1084V61.986H91.8064V65H82.3464V49.556H91.8064V52.57H86.1084ZM98.0108 52.57V55.694H103.049V58.598H98.0108V61.986H103.709V65H94.2488V49.556H103.709V52.57H98.0108ZM120.427 62.272H114.663L113.739 65H109.801L115.389 49.556H119.745L125.333 65H121.351L120.427 62.272ZM119.459 59.368L117.545 53.714L115.653 59.368H119.459ZM126.396 57.256C126.396 55.7307 126.726 54.374 127.386 53.186C128.046 51.9833 128.963 51.052 130.136 50.392C131.324 49.7173 132.666 49.38 134.162 49.38C135.995 49.38 137.565 49.864 138.87 50.832C140.175 51.8 141.048 53.12 141.488 54.792H137.352C137.044 54.1467 136.604 53.6553 136.032 53.318C135.475 52.9807 134.837 52.812 134.118 52.812C132.959 52.812 132.021 53.2153 131.302 54.022C130.583 54.8287 130.224 55.9067 130.224 57.256C130.224 58.6053 130.583 59.6833 131.302 60.49C132.021 61.2967 132.959 61.7 134.118 61.7C134.837 61.7 135.475 61.5313 136.032 61.194C136.604 60.8567 137.044 60.3653 137.352 59.72H141.488C141.048 61.392 140.175 62.712 138.87 63.68C137.565 64.6333 135.995 65.11 134.162 65.11C132.666 65.11 131.324 64.78 130.136 64.12C128.963 63.4453 128.046 62.514 127.386 61.326C126.726 60.138 126.396 58.7813 126.396 57.256ZM143.154 57.256C143.154 55.7307 143.484 54.374 144.144 53.186C144.804 51.9833 145.72 51.052 146.894 50.392C148.082 49.7173 149.424 49.38 150.92 49.38C152.753 49.38 154.322 49.864 155.628 50.832C156.933 51.8 157.806 53.12 158.246 54.792H154.11C153.802 54.1467 153.362 53.6553 152.79 53.318C152.232 52.9807 151.594 52.812 150.876 52.812C149.717 52.812 148.778 53.2153 148.06 54.022C147.341 54.8287 146.982 55.9067 146.982 57.256C146.982 58.6053 147.341 59.6833 148.06 60.49C148.778 61.2967 149.717 61.7 150.876 61.7C151.594 61.7 152.232 61.5313 152.79 61.194C153.362 60.8567 153.802 60.3653 154.11 59.72H158.246C157.806 61.392 156.933 62.712 155.628 63.68C154.322 64.6333 152.753 65.11 150.92 65.11C149.424 65.11 148.082 64.78 146.894 64.12C145.72 63.4453 144.804 62.514 144.144 61.326C143.484 60.138 143.154 58.7813 143.154 57.256ZM164.312 52.57V55.694H169.35V58.598H164.312V61.986H170.01V65H160.55V49.556H170.01V52.57H164.312ZM178.04 65.154C176.911 65.154 175.899 64.9707 175.004 64.604C174.109 64.2373 173.391 63.6947 172.848 62.976C172.32 62.2573 172.041 61.392 172.012 60.38H176.016C176.075 60.952 176.273 61.392 176.61 61.7C176.947 61.9933 177.387 62.14 177.93 62.14C178.487 62.14 178.927 62.0153 179.25 61.766C179.573 61.502 179.734 61.1427 179.734 60.688C179.734 60.3067 179.602 59.9913 179.338 59.742C179.089 59.4927 178.773 59.2873 178.392 59.126C178.025 58.9647 177.497 58.7813 176.808 58.576C175.811 58.268 174.997 57.96 174.366 57.652C173.735 57.344 173.193 56.8893 172.738 56.288C172.283 55.6867 172.056 54.902 172.056 53.934C172.056 52.4967 172.577 51.3747 173.618 50.568C174.659 49.7467 176.016 49.336 177.688 49.336C179.389 49.336 180.761 49.7467 181.802 50.568C182.843 51.3747 183.401 52.504 183.474 53.956H179.404C179.375 53.4573 179.191 53.0687 178.854 52.79C178.517 52.4967 178.084 52.35 177.556 52.35C177.101 52.35 176.735 52.4747 176.456 52.724C176.177 52.9587 176.038 53.3033 176.038 53.758C176.038 54.2567 176.273 54.6453 176.742 54.924C177.211 55.2027 177.945 55.5033 178.942 55.826C179.939 56.1633 180.746 56.486 181.362 56.794C181.993 57.102 182.535 57.5493 182.99 58.136C183.445 58.7227 183.672 59.478 183.672 60.402C183.672 61.282 183.445 62.0813 182.99 62.8C182.55 63.5187 181.905 64.0907 181.054 64.516C180.203 64.9413 179.199 65.154 178.04 65.154ZM191.575 65.154C190.446 65.154 189.434 64.9707 188.539 64.604C187.644 64.2373 186.926 63.6947 186.383 62.976C185.855 62.2573 185.576 61.392 185.547 60.38H189.551C189.61 60.952 189.808 61.392 190.145 61.7C190.482 61.9933 190.922 62.14 191.465 62.14C192.022 62.14 192.462 62.0153 192.785 61.766C193.108 61.502 193.269 61.1427 193.269 60.688C193.269 60.3067 193.137 59.9913 192.873 59.742C192.624 59.4927 192.308 59.2873 191.927 59.126C191.56 58.9647 191.032 58.7813 190.343 58.576C189.346 58.268 188.532 57.96 187.901 57.652C187.27 57.344 186.728 56.8893 186.273 56.288C185.818 55.6867 185.591 54.902 185.591 53.934C185.591 52.4967 186.112 51.3747 187.153 50.568C188.194 49.7467 189.551 49.336 191.223 49.336C192.924 49.336 194.296 49.7467 195.337 50.568C196.378 51.3747 196.936 52.504 197.009 53.956H192.939C192.91 53.4573 192.726 53.0687 192.389 52.79C192.052 52.4967 191.619 52.35 191.091 52.35C190.636 52.35 190.27 52.4747 189.991 52.724C189.712 52.9587 189.573 53.3033 189.573 53.758C189.573 54.2567 189.808 54.6453 190.277 54.924C190.746 55.2027 191.48 55.5033 192.477 55.826C193.474 56.1633 194.281 56.486 194.897 56.794C195.528 57.102 196.07 57.5493 196.525 58.136C196.98 58.7227 197.207 59.478 197.207 60.402C197.207 61.282 196.98 62.0813 196.525 62.8C196.085 63.5187 195.44 64.0907 194.589 64.516C193.738 64.9413 192.734 65.154 191.575 65.154Z" fill="#142A3D"/>
</svg>
