<svg width="24" height="27" viewBox="0 0 24 29" xmlns="http://www.w3.org/2000/svg">
<path d="M5.14286 16.2144H1.71429C0.767679 16.2144 0 16.9821 0 17.9287V21.3573C0 22.3039 0.767679 23.0716 1.71429 23.0716H5.14286C6.08946 23.0716 6.85714 22.3039 6.85714 21.3573V17.9287C6.85714 16.9821 6.08946 16.2144 5.14286 16.2144ZM13.7143 16.2144H10.2857C9.33911 16.2144 8.57143 16.9821 8.57143 17.9287V21.3573C8.57143 22.3039 9.33911 23.0716 10.2857 23.0716H13.7143C14.6609 23.0716 15.4286 22.3039 15.4286 21.3573V17.9287C15.4286 16.9821 14.6609 16.2144 13.7143 16.2144ZM22.2857 16.2144H18.8571C17.9105 16.2144 17.1429 16.9821 17.1429 17.9287V21.3573C17.1429 22.3039 17.9105 23.0716 18.8571 23.0716H22.2857C23.2323 23.0716 24 22.3039 24 21.3573V17.9287C24 16.9821 23.2323 16.2144 22.2857 16.2144ZM5.14286 5.92871H1.71429C0.767679 5.92871 0 6.69639 0 7.643V11.0716C0 12.0182 0.767679 12.7859 1.71429 12.7859H5.14286C6.08946 12.7859 6.85714 12.0182 6.85714 11.0716V7.643C6.85714 6.69639 6.08946 5.92871 5.14286 5.92871ZM13.7143 5.92871H10.2857C9.33911 5.92871 8.57143 6.69639 8.57143 7.643V11.0716C8.57143 12.0182 9.33911 12.7859 10.2857 12.7859H13.7143C14.6609 12.7859 15.4286 12.0182 15.4286 11.0716V7.643C15.4286 6.69639 14.6609 5.92871 13.7143 5.92871ZM22.2857 5.92871H18.8571C17.9105 5.92871 17.1429 6.69639 17.1429 7.643V11.0716C17.1429 12.0182 17.9105 12.7859 18.8571 12.7859H22.2857C23.2323 12.7859 24 12.0182 24 11.0716V7.643C24 6.69639 23.2323 5.92871 22.2857 5.92871Z" fill="#529DFF"/>
</svg>
