<svg width="24" height="20" viewBox="0 0 25 21"  xmlns="http://www.w3.org/2000/svg">
<path d="M4.05994 15.75H1.05994C0.861024 15.75 0.670259 15.829 0.529606 15.9697C0.388954 16.1103 0.309937 16.3011 0.309937 16.5L0.309937 19.5C0.309937 19.6989 0.388954 19.8897 0.529606 20.0303C0.670259 20.171 0.861024 20.25 1.05994 20.25H4.05994C4.25885 20.25 4.44961 20.171 4.59027 20.0303C4.73092 19.8897 4.80994 19.6989 4.80994 19.5V16.5C4.80994 16.3011 4.73092 16.1103 4.59027 15.9697C4.44961 15.829 4.25885 15.75 4.05994 15.75ZM4.05994 0.75H1.05994C0.861024 0.75 0.670259 0.829018 0.529606 0.96967C0.388954 1.11032 0.309937 1.30109 0.309937 1.5L0.309937 4.5C0.309937 4.69891 0.388954 4.88968 0.529606 5.03033C0.670259 5.17098 0.861024 5.25 1.05994 5.25H4.05994C4.25885 5.25 4.44961 5.17098 4.59027 5.03033C4.73092 4.88968 4.80994 4.69891 4.80994 4.5V1.5C4.80994 1.30109 4.73092 1.11032 4.59027 0.96967C4.44961 0.829018 4.25885 0.75 4.05994 0.75ZM4.05994 8.25H1.05994C0.861024 8.25 0.670259 8.32902 0.529606 8.46967C0.388954 8.61032 0.309937 8.80109 0.309937 9L0.309937 12C0.309937 12.1989 0.388954 12.3897 0.529606 12.5303C0.670259 12.671 0.861024 12.75 1.05994 12.75H4.05994C4.25885 12.75 4.44961 12.671 4.59027 12.5303C4.73092 12.3897 4.80994 12.1989 4.80994 12V9C4.80994 8.80109 4.73092 8.61032 4.59027 8.46967C4.44961 8.32902 4.25885 8.25 4.05994 8.25ZM23.5599 16.5H8.55994C8.36102 16.5 8.17026 16.579 8.02961 16.7197C7.88895 16.8603 7.80994 17.0511 7.80994 17.25V18.75C7.80994 18.9489 7.88895 19.1397 8.02961 19.2803C8.17026 19.421 8.36102 19.5 8.55994 19.5H23.5599C23.7588 19.5 23.9496 19.421 24.0903 19.2803C24.2309 19.1397 24.3099 18.9489 24.3099 18.75V17.25C24.3099 17.0511 24.2309 16.8603 24.0903 16.7197C23.9496 16.579 23.7588 16.5 23.5599 16.5ZM23.5599 1.5H8.55994C8.36102 1.5 8.17026 1.57902 8.02961 1.71967C7.88895 1.86032 7.80994 2.05109 7.80994 2.25V3.75C7.80994 3.94891 7.88895 4.13968 8.02961 4.28033C8.17026 4.42098 8.36102 4.5 8.55994 4.5H23.5599C23.7588 4.5 23.9496 4.42098 24.0903 4.28033C24.2309 4.13968 24.3099 3.94891 24.3099 3.75V2.25C24.3099 2.05109 24.2309 1.86032 24.0903 1.71967C23.9496 1.57902 23.7588 1.5 23.5599 1.5ZM23.5599 9H8.55994C8.36102 9 8.17026 9.07902 8.02961 9.21967C7.88895 9.36032 7.80994 9.55109 7.80994 9.75V11.25C7.80994 11.4489 7.88895 11.6397 8.02961 11.7803C8.17026 11.921 8.36102 12 8.55994 12H23.5599C23.7588 12 23.9496 11.921 24.0903 11.7803C24.2309 11.6397 24.3099 11.4489 24.3099 11.25V9.75C24.3099 9.55109 24.2309 9.36032 24.0903 9.21967C23.9496 9.07902 23.7588 9 23.5599 9Z" fill="#1E3F5C"/>
</svg>
