<svg width="12" height="12" viewBox="0 0 12 13" fill="none" xmlns="http://www.w3.org/2000/svg">
<path d="M10.4104 7.0625H3.26709V8H10.4104C10.4988 8 10.5836 7.95061 10.6461 7.86271C10.7086 7.7748 10.7438 7.65557 10.7438 7.53125C10.7438 7.40693 10.7086 7.2877 10.6461 7.19979C10.5836 7.11189 10.4988 7.0625 10.4104 7.0625Z" fill="#1E3F5C"/>
<path d="M10.4104 9.5625H3.26709V10.5625H10.4104C10.4988 10.5625 10.5836 10.5098 10.6461 10.4161C10.7086 10.3223 10.7438 10.1951 10.7438 10.0625C10.7438 9.92989 10.7086 9.80271 10.6461 9.70895C10.5836 9.61518 10.4988 9.5625 10.4104 9.5625Z" fill="#1E3F5C"/>
<path d="M5.75 5.5H7.75H10.4167C10.5051 5.5 10.5899 5.45061 10.6524 5.36271C10.7149 5.2748 10.75 5.15557 10.75 5.03125C10.75 4.90693 10.7149 4.7877 10.6524 4.69979C10.5899 4.61189 10.5051 4.5625 10.4167 4.5625H5.75L5.75 5.5Z" fill="#1E3F5C"/>
<path d="M4.83526 4.14831C4.97926 4.23058 5.06686 4.37548 5.06686 4.53161C5.06686 4.68773 4.97926 4.83263 4.83526 4.90649L1.93557 6.55185C1.78634 6.6444 1.59955 6.64814 1.4471 6.56868C1.37217 6.52964 1.3098 6.47277 1.2664 6.40392C1.22301 6.33508 1.20015 6.25674 1.2002 6.17697V2.88624C1.20021 2.80652 1.22309 2.72824 1.26648 2.65945C1.30987 2.59065 1.37221 2.53383 1.4471 2.49481C1.522 2.45584 1.60673 2.43608 1.69257 2.43758C1.77842 2.43907 1.86229 2.46177 1.93557 2.50332L4.83526 4.14831Z" fill="#1E3F5C"/>
</svg>
