<svg width="357" height="115" viewBox="0 0 357 115" fill="none" xmlns="http://www.w3.org/2000/svg">
<rect width="357" height="115" fill="#FAFAFA" fill-opacity="0.21"/>
<rect x="0.5" y="0.5" width="356" height="114" stroke="#A3A2A2" stroke-opacity="0.4"/>
<path d="M20.768 57.424V58.016H18.344V59.896H20.312V60.488H18.344V63H17.616V57.424H20.768ZM22.0233 57.904C21.8846 57.904 21.7673 57.856 21.6713 57.76C21.5753 57.664 21.5273 57.5467 21.5273 57.408C21.5273 57.2693 21.5753 57.152 21.6713 57.056C21.7673 56.96 21.8846 56.912 22.0233 56.912C22.1566 56.912 22.2686 56.96 22.3593 57.056C22.4553 57.152 22.5033 57.2693 22.5033 57.408C22.5033 57.5467 22.4553 57.664 22.3593 57.76C22.2686 57.856 22.1566 57.904 22.0233 57.904ZM22.3753 58.616V63H21.6473V58.616H22.3753ZM24.504 59.216V61.8C24.504 62.0133 24.5493 62.1653 24.64 62.256C24.7307 62.3413 24.888 62.384 25.112 62.384H25.648V63H24.992C24.5867 63 24.2827 62.9067 24.08 62.72C23.8773 62.5333 23.776 62.2267 23.776 61.8V59.216H23.208V58.616H23.776V57.512H24.504V58.616H25.648V59.216H24.504ZM28.6661 58.536C29.1994 58.536 29.6314 58.6987 29.9621 59.024C30.2927 59.344 30.4581 59.808 30.4581 60.416V63H29.7381V60.52C29.7381 60.0827 29.6287 59.7493 29.4101 59.52C29.1914 59.2853 28.8927 59.168 28.5141 59.168C28.1301 59.168 27.8234 59.288 27.5941 59.528C27.3701 59.768 27.2581 60.1173 27.2581 60.576V63H26.5301V58.616H27.2581V59.24C27.4021 59.016 27.5967 58.8427 27.8421 58.72C28.0927 58.5973 28.3674 58.536 28.6661 58.536ZM35.6473 60.64C35.6473 60.7787 35.6393 60.9253 35.6233 61.08H32.1193C32.1459 61.512 32.2926 61.8507 32.5593 62.096C32.8313 62.336 33.1593 62.456 33.5433 62.456C33.8579 62.456 34.1193 62.384 34.3273 62.24C34.5406 62.0907 34.6899 61.8933 34.7753 61.648H35.5593C35.4419 62.0693 35.2073 62.4133 34.8553 62.68C34.5033 62.9413 34.0659 63.072 33.5433 63.072C33.1273 63.072 32.7539 62.9787 32.4233 62.792C32.0979 62.6053 31.8419 62.3413 31.6553 62C31.4686 61.6533 31.3753 61.2533 31.3753 60.8C31.3753 60.3467 31.4659 59.9493 31.6473 59.608C31.8286 59.2667 32.0819 59.0053 32.4073 58.824C32.7379 58.6373 33.1166 58.544 33.5433 58.544C33.9593 58.544 34.3273 58.6347 34.6473 58.816C34.9673 58.9973 35.2126 59.248 35.3833 59.568C35.5593 59.8827 35.6473 60.24 35.6473 60.64ZM34.8953 60.488C34.8953 60.2107 34.8339 59.9733 34.7113 59.776C34.5886 59.5733 34.4206 59.4213 34.2073 59.32C33.9993 59.2133 33.7673 59.16 33.5113 59.16C33.1433 59.16 32.8286 59.2773 32.5673 59.512C32.3113 59.7467 32.1646 60.072 32.1273 60.488H34.8953ZM38.1602 63.072C37.8242 63.072 37.5229 63.016 37.2562 62.904C36.9895 62.7867 36.7789 62.6267 36.6242 62.424C36.4695 62.216 36.3842 61.9787 36.3682 61.712H37.1202C37.1415 61.9307 37.2429 62.1093 37.4242 62.248C37.6109 62.3867 37.8535 62.456 38.1522 62.456C38.4295 62.456 38.6482 62.3947 38.8082 62.272C38.9682 62.1493 39.0482 61.9947 39.0482 61.808C39.0482 61.616 38.9629 61.4747 38.7922 61.384C38.6215 61.288 38.3575 61.1947 38.0002 61.104C37.6749 61.0187 37.4082 60.9333 37.2002 60.848C36.9975 60.7573 36.8215 60.6267 36.6722 60.456C36.5282 60.28 36.4562 60.0507 36.4562 59.768C36.4562 59.544 36.5229 59.3387 36.6562 59.152C36.7895 58.9653 36.9789 58.8187 37.2242 58.712C37.4695 58.6 37.7495 58.544 38.0642 58.544C38.5495 58.544 38.9415 58.6667 39.2402 58.912C39.5389 59.1573 39.6989 59.4933 39.7202 59.92H38.9922C38.9762 59.6907 38.8829 59.5067 38.7122 59.368C38.5469 59.2293 38.3229 59.16 38.0402 59.16C37.7789 59.16 37.5709 59.216 37.4162 59.328C37.2615 59.44 37.1842 59.5867 37.1842 59.768C37.1842 59.912 37.2295 60.032 37.3202 60.128C37.4162 60.2187 37.5335 60.2933 37.6722 60.352C37.8162 60.4053 38.0135 60.4667 38.2642 60.536C38.5789 60.6213 38.8349 60.7067 39.0322 60.792C39.2295 60.872 39.3975 60.9947 39.5362 61.16C39.6802 61.3253 39.7549 61.5413 39.7602 61.808C39.7602 62.048 39.6935 62.264 39.5602 62.456C39.4269 62.648 39.2375 62.8 38.9922 62.912C38.7522 63.0187 38.4749 63.072 38.1602 63.072ZM42.3399 63.072C42.0039 63.072 41.7025 63.016 41.4359 62.904C41.1692 62.7867 40.9585 62.6267 40.8039 62.424C40.6492 62.216 40.5639 61.9787 40.5479 61.712H41.2999C41.3212 61.9307 41.4225 62.1093 41.6039 62.248C41.7905 62.3867 42.0332 62.456 42.3319 62.456C42.6092 62.456 42.8279 62.3947 42.9879 62.272C43.1479 62.1493 43.2279 61.9947 43.2279 61.808C43.2279 61.616 43.1425 61.4747 42.9719 61.384C42.8012 61.288 42.5372 61.1947 42.1799 61.104C41.8545 61.0187 41.5879 60.9333 41.3799 60.848C41.1772 60.7573 41.0012 60.6267 40.8519 60.456C40.7079 60.28 40.6359 60.0507 40.6359 59.768C40.6359 59.544 40.7025 59.3387 40.8359 59.152C40.9692 58.9653 41.1585 58.8187 41.4039 58.712C41.6492 58.6 41.9292 58.544 42.2439 58.544C42.7292 58.544 43.1212 58.6667 43.4199 58.912C43.7185 59.1573 43.8785 59.4933 43.8999 59.92H43.1719C43.1559 59.6907 43.0625 59.5067 42.8919 59.368C42.7265 59.2293 42.5025 59.16 42.2199 59.16C41.9585 59.16 41.7505 59.216 41.5959 59.328C41.4412 59.44 41.3639 59.5867 41.3639 59.768C41.3639 59.912 41.4092 60.032 41.4999 60.128C41.5959 60.2187 41.7132 60.2933 41.8519 60.352C41.9959 60.4053 42.1932 60.4667 42.4439 60.536C42.7585 60.6213 43.0145 60.7067 43.2119 60.792C43.4092 60.872 43.5772 60.9947 43.7159 61.16C43.8599 61.3253 43.9345 61.5413 43.9399 61.808C43.9399 62.048 43.8732 62.264 43.7399 62.456C43.6065 62.648 43.4172 62.8 43.1719 62.912C42.9319 63.0187 42.6545 63.072 42.3399 63.072ZM51.3804 63L50.6524 62.264C50.3804 62.5467 50.0897 62.7573 49.7804 62.896C49.471 63.0293 49.1217 63.096 48.7324 63.096C48.3484 63.096 48.007 63.0267 47.7084 62.888C47.415 62.7493 47.1857 62.552 47.0204 62.296C46.8604 62.04 46.7804 61.7413 46.7804 61.4C46.7804 61.0107 46.8897 60.6693 47.1084 60.376C47.3324 60.0773 47.6604 59.8427 48.0924 59.672C47.9217 59.4693 47.799 59.2827 47.7244 59.112C47.6497 58.9413 47.6124 58.7547 47.6124 58.552C47.6124 58.3173 47.671 58.1067 47.7884 57.92C47.911 57.728 48.0844 57.5787 48.3084 57.472C48.5324 57.3653 48.791 57.312 49.0844 57.312C49.3724 57.312 49.623 57.368 49.8364 57.48C50.0497 57.592 50.2097 57.7493 50.3164 57.952C50.423 58.1493 50.471 58.3707 50.4604 58.616H49.7324C49.7377 58.3973 49.6764 58.2267 49.5484 58.104C49.4204 57.976 49.255 57.912 49.0524 57.912C48.839 57.912 48.6657 57.9733 48.5324 58.096C48.4044 58.2133 48.3404 58.3653 48.3404 58.552C48.3404 58.712 48.383 58.8667 48.4684 59.016C48.559 59.1653 48.7084 59.3493 48.9164 59.568L50.5804 61.24L50.7244 61.016L51.2684 60.104H52.0524L51.3964 61.24C51.3057 61.4 51.199 61.568 51.0764 61.744L52.3324 63H51.3804ZM48.7324 62.472C49.0204 62.472 49.279 62.416 49.5084 62.304C49.743 62.192 49.9644 62.0187 50.1724 61.784L48.5324 60.136C47.8497 60.3973 47.5084 60.8107 47.5084 61.376C47.5084 61.6907 47.6204 61.952 47.8444 62.16C48.0737 62.368 48.3697 62.472 48.7324 62.472ZM62.1553 57.424L60.5393 63H59.7233L58.4273 58.512L57.0833 63L56.2753 63.008L54.7153 57.424H55.4913L56.7073 62.152L58.0513 57.424H58.8673L60.1473 62.136L61.3713 57.424H62.1553ZM66.9519 60.64C66.9519 60.7787 66.9439 60.9253 66.9279 61.08H63.4239C63.4506 61.512 63.5973 61.8507 63.8639 62.096C64.1359 62.336 64.4639 62.456 64.8479 62.456C65.1626 62.456 65.4239 62.384 65.6319 62.24C65.8453 62.0907 65.9946 61.8933 66.0799 61.648H66.8639C66.7466 62.0693 66.5119 62.4133 66.1599 62.68C65.8079 62.9413 65.3706 63.072 64.8479 63.072C64.4319 63.072 64.0586 62.9787 63.7279 62.792C63.4026 62.6053 63.1466 62.3413 62.9599 62C62.7733 61.6533 62.6799 61.2533 62.6799 60.8C62.6799 60.3467 62.7706 59.9493 62.9519 59.608C63.1333 59.2667 63.3866 59.0053 63.7119 58.824C64.0426 58.6373 64.4213 58.544 64.8479 58.544C65.2639 58.544 65.6319 58.6347 65.9519 58.816C66.2719 58.9973 66.5173 59.248 66.6879 59.568C66.8639 59.8827 66.9519 60.24 66.9519 60.64ZM66.1999 60.488C66.1999 60.2107 66.1386 59.9733 66.0159 59.776C65.8933 59.5733 65.7253 59.4213 65.5119 59.32C65.3039 59.2133 65.0719 59.16 64.8159 59.16C64.4479 59.16 64.1333 59.2773 63.8719 59.512C63.6159 59.7467 63.4693 60.072 63.4319 60.488H66.1999ZM68.6409 57.08V63H67.9129V57.08H68.6409ZM70.6096 57.08V63H69.8816V57.08H70.6096ZM73.9864 58.536C74.5197 58.536 74.9517 58.6987 75.2824 59.024C75.613 59.344 75.7784 59.808 75.7784 60.416V63H75.0584V60.52C75.0584 60.0827 74.949 59.7493 74.7304 59.52C74.5117 59.2853 74.213 59.168 73.8344 59.168C73.4504 59.168 73.1437 59.288 72.9144 59.528C72.6904 59.768 72.5784 60.1173 72.5784 60.576V63H71.8504V58.616H72.5784V59.24C72.7224 59.016 72.917 58.8427 73.1624 58.72C73.413 58.5973 73.6877 58.536 73.9864 58.536ZM80.9676 60.64C80.9676 60.7787 80.9596 60.9253 80.9436 61.08H77.4396C77.4662 61.512 77.6129 61.8507 77.8796 62.096C78.1516 62.336 78.4796 62.456 78.8636 62.456C79.1782 62.456 79.4396 62.384 79.6476 62.24C79.8609 62.0907 80.0102 61.8933 80.0956 61.648H80.8796C80.7622 62.0693 80.5276 62.4133 80.1756 62.68C79.8236 62.9413 79.3862 63.072 78.8636 63.072C78.4476 63.072 78.0742 62.9787 77.7436 62.792C77.4182 62.6053 77.1622 62.3413 76.9756 62C76.7889 61.6533 76.6956 61.2533 76.6956 60.8C76.6956 60.3467 76.7862 59.9493 76.9676 59.608C77.1489 59.2667 77.4022 59.0053 77.7276 58.824C78.0582 58.6373 78.4369 58.544 78.8636 58.544C79.2796 58.544 79.6476 58.6347 79.9676 58.816C80.2876 58.9973 80.5329 59.248 80.7036 59.568C80.8796 59.8827 80.9676 60.24 80.9676 60.64ZM80.2156 60.488C80.2156 60.2107 80.1542 59.9733 80.0316 59.776C79.9089 59.5733 79.7409 59.4213 79.5276 59.32C79.3196 59.2133 79.0876 59.16 78.8316 59.16C78.4636 59.16 78.1489 59.2773 77.8876 59.512C77.6316 59.7467 77.4849 60.072 77.4476 60.488H80.2156ZM83.4805 63.072C83.1445 63.072 82.8432 63.016 82.5765 62.904C82.3098 62.7867 82.0992 62.6267 81.9445 62.424C81.7898 62.216 81.7045 61.9787 81.6885 61.712H82.4405C82.4618 61.9307 82.5632 62.1093 82.7445 62.248C82.9312 62.3867 83.1738 62.456 83.4725 62.456C83.7498 62.456 83.9685 62.3947 84.1285 62.272C84.2885 62.1493 84.3685 61.9947 84.3685 61.808C84.3685 61.616 84.2832 61.4747 84.1125 61.384C83.9418 61.288 83.6778 61.1947 83.3205 61.104C82.9952 61.0187 82.7285 60.9333 82.5205 60.848C82.3178 60.7573 82.1418 60.6267 81.9925 60.456C81.8485 60.28 81.7765 60.0507 81.7765 59.768C81.7765 59.544 81.8432 59.3387 81.9765 59.152C82.1098 58.9653 82.2992 58.8187 82.5445 58.712C82.7898 58.6 83.0698 58.544 83.3845 58.544C83.8698 58.544 84.2618 58.6667 84.5605 58.912C84.8592 59.1573 85.0192 59.4933 85.0405 59.92H84.3125C84.2965 59.6907 84.2032 59.5067 84.0325 59.368C83.8672 59.2293 83.6432 59.16 83.3605 59.16C83.0992 59.16 82.8912 59.216 82.7365 59.328C82.5818 59.44 82.5045 59.5867 82.5045 59.768C82.5045 59.912 82.5498 60.032 82.6405 60.128C82.7365 60.2187 82.8538 60.2933 82.9925 60.352C83.1365 60.4053 83.3338 60.4667 83.5845 60.536C83.8992 60.6213 84.1552 60.7067 84.3525 60.792C84.5498 60.872 84.7178 60.9947 84.8565 61.16C85.0005 61.3253 85.0752 61.5413 85.0805 61.808C85.0805 62.048 85.0138 62.264 84.8805 62.456C84.7472 62.648 84.5578 62.8 84.3125 62.912C84.0725 63.0187 83.7952 63.072 83.4805 63.072ZM87.6602 63.072C87.3242 63.072 87.0229 63.016 86.7562 62.904C86.4895 62.7867 86.2789 62.6267 86.1242 62.424C85.9695 62.216 85.8842 61.9787 85.8682 61.712H86.6202C86.6415 61.9307 86.7429 62.1093 86.9242 62.248C87.1109 62.3867 87.3535 62.456 87.6522 62.456C87.9295 62.456 88.1482 62.3947 88.3082 62.272C88.4682 62.1493 88.5482 61.9947 88.5482 61.808C88.5482 61.616 88.4629 61.4747 88.2922 61.384C88.1215 61.288 87.8575 61.1947 87.5002 61.104C87.1749 61.0187 86.9082 60.9333 86.7002 60.848C86.4975 60.7573 86.3215 60.6267 86.1722 60.456C86.0282 60.28 85.9562 60.0507 85.9562 59.768C85.9562 59.544 86.0229 59.3387 86.1562 59.152C86.2895 58.9653 86.4789 58.8187 86.7242 58.712C86.9695 58.6 87.2495 58.544 87.5642 58.544C88.0495 58.544 88.4415 58.6667 88.7402 58.912C89.0389 59.1573 89.1989 59.4933 89.2202 59.92H88.4922C88.4762 59.6907 88.3829 59.5067 88.2122 59.368C88.0469 59.2293 87.8229 59.16 87.5402 59.16C87.2789 59.16 87.0709 59.216 86.9162 59.328C86.7615 59.44 86.6842 59.5867 86.6842 59.768C86.6842 59.912 86.7295 60.032 86.8202 60.128C86.9162 60.2187 87.0335 60.2933 87.1722 60.352C87.3162 60.4053 87.5135 60.4667 87.7642 60.536C88.0789 60.6213 88.3349 60.7067 88.5322 60.792C88.7295 60.872 88.8975 60.9947 89.0362 61.16C89.1802 61.3253 89.2549 61.5413 89.2602 61.808C89.2602 62.048 89.1935 62.264 89.0602 62.456C88.9269 62.648 88.7375 62.8 88.4922 62.912C88.2522 63.0187 87.9749 63.072 87.6602 63.072ZM97.0287 57.424L94.9247 63H94.0847L91.9807 57.424H92.7567L94.5087 62.232L96.2607 57.424H97.0287ZM100.355 63.056C99.8376 63.056 99.3656 62.936 98.9389 62.696C98.5123 62.4507 98.1736 62.112 97.9229 61.68C97.6776 61.2427 97.5549 60.752 97.5549 60.208C97.5549 59.664 97.6776 59.176 97.9229 58.744C98.1736 58.3067 98.5123 57.968 98.9389 57.728C99.3656 57.4827 99.8376 57.36 100.355 57.36C100.878 57.36 101.352 57.4827 101.779 57.728C102.206 57.968 102.542 58.304 102.787 58.736C103.032 59.168 103.155 59.6587 103.155 60.208C103.155 60.7573 103.032 61.248 102.787 61.68C102.542 62.112 102.206 62.4507 101.779 62.696C101.352 62.936 100.878 63.056 100.355 63.056ZM100.355 62.424C100.744 62.424 101.094 62.3333 101.403 62.152C101.718 61.9707 101.963 61.712 102.139 61.376C102.32 61.04 102.411 60.6507 102.411 60.208C102.411 59.76 102.32 59.3707 102.139 59.04C101.963 58.704 101.72 58.4453 101.411 58.264C101.102 58.0827 100.75 57.992 100.355 57.992C99.9603 57.992 99.6083 58.0827 99.2989 58.264C98.9896 58.4453 98.7443 58.704 98.5629 59.04C98.3869 59.3707 98.2989 59.76 98.2989 60.208C98.2989 60.6507 98.3869 61.04 98.5629 61.376C98.7443 61.712 98.9896 61.9707 99.2989 62.152C99.6136 62.3333 99.9656 62.424 100.355 62.424ZM105.852 57.424C106.46 57.424 106.985 57.5387 107.428 57.768C107.876 57.992 108.217 58.3147 108.452 58.736C108.692 59.1573 108.812 59.6533 108.812 60.224C108.812 60.7947 108.692 61.2907 108.452 61.712C108.217 62.128 107.876 62.448 107.428 62.672C106.985 62.8907 106.46 63 105.852 63H104.116V57.424H105.852ZM105.852 62.4C106.572 62.4 107.121 62.2107 107.5 61.832C107.879 61.448 108.068 60.912 108.068 60.224C108.068 59.5307 107.876 58.9893 107.492 58.6C107.113 58.2107 106.567 58.016 105.852 58.016H104.844V62.4H105.852ZM115.201 61.76H112.769L112.321 63H111.553L113.569 57.456H114.409L116.417 63H115.649L115.201 61.76ZM114.993 61.168L113.985 58.352L112.977 61.168H114.993ZM117.024 60.8C117.024 60.3467 117.114 59.952 117.296 59.616C117.477 59.2747 117.728 59.0107 118.048 58.824C118.373 58.6373 118.744 58.544 119.16 58.544C119.698 58.544 120.141 58.6747 120.488 58.936C120.84 59.1973 121.072 59.56 121.184 60.024H120.4C120.325 59.7573 120.178 59.5467 119.96 59.392C119.746 59.2373 119.48 59.16 119.16 59.16C118.744 59.16 118.408 59.304 118.152 59.592C117.896 59.8747 117.768 60.2773 117.768 60.8C117.768 61.328 117.896 61.736 118.152 62.024C118.408 62.312 118.744 62.456 119.16 62.456C119.48 62.456 119.746 62.3813 119.96 62.232C120.173 62.0827 120.32 61.8693 120.4 61.592H121.184C121.066 62.04 120.832 62.4 120.48 62.672C120.128 62.9387 119.688 63.072 119.16 63.072C118.744 63.072 118.373 62.9787 118.048 62.792C117.728 62.6053 117.477 62.3413 117.296 62C117.114 61.6587 117.024 61.2587 117.024 60.8ZM121.883 60.8C121.883 60.3467 121.974 59.952 122.155 59.616C122.336 59.2747 122.587 59.0107 122.907 58.824C123.232 58.6373 123.603 58.544 124.019 58.544C124.558 58.544 125 58.6747 125.347 58.936C125.699 59.1973 125.931 59.56 126.043 60.024H125.259C125.184 59.7573 125.038 59.5467 124.819 59.392C124.606 59.2373 124.339 59.16 124.019 59.16C123.603 59.16 123.267 59.304 123.011 59.592C122.755 59.8747 122.627 60.2773 122.627 60.8C122.627 61.328 122.755 61.736 123.011 62.024C123.267 62.312 123.603 62.456 124.019 62.456C124.339 62.456 124.606 62.3813 124.819 62.232C125.032 62.0827 125.179 61.8693 125.259 61.592H126.043C125.926 62.04 125.691 62.4 125.339 62.672C124.987 62.9387 124.547 63.072 124.019 63.072C123.603 63.072 123.232 62.9787 122.907 62.792C122.587 62.6053 122.336 62.3413 122.155 62C121.974 61.6587 121.883 61.2587 121.883 60.8ZM131.014 60.64C131.014 60.7787 131.006 60.9253 130.99 61.08H127.486C127.513 61.512 127.66 61.8507 127.926 62.096C128.198 62.336 128.526 62.456 128.91 62.456C129.225 62.456 129.486 62.384 129.694 62.24C129.908 62.0907 130.057 61.8933 130.142 61.648H130.926C130.809 62.0693 130.574 62.4133 130.222 62.68C129.87 62.9413 129.433 63.072 128.91 63.072C128.494 63.072 128.121 62.9787 127.79 62.792C127.465 62.6053 127.209 62.3413 127.022 62C126.836 61.6533 126.742 61.2533 126.742 60.8C126.742 60.3467 126.833 59.9493 127.014 59.608C127.196 59.2667 127.449 59.0053 127.774 58.824C128.105 58.6373 128.484 58.544 128.91 58.544C129.326 58.544 129.694 58.6347 130.014 58.816C130.334 58.9973 130.58 59.248 130.75 59.568C130.926 59.8827 131.014 60.24 131.014 60.64ZM130.262 60.488C130.262 60.2107 130.201 59.9733 130.078 59.776C129.956 59.5733 129.788 59.4213 129.574 59.32C129.366 59.2133 129.134 59.16 128.878 59.16C128.51 59.16 128.196 59.2773 127.934 59.512C127.678 59.7467 127.532 60.072 127.494 60.488H130.262ZM133.527 63.072C133.191 63.072 132.89 63.016 132.623 62.904C132.357 62.7867 132.146 62.6267 131.991 62.424C131.837 62.216 131.751 61.9787 131.735 61.712H132.487C132.509 61.9307 132.61 62.1093 132.791 62.248C132.978 62.3867 133.221 62.456 133.519 62.456C133.797 62.456 134.015 62.3947 134.175 62.272C134.335 62.1493 134.415 61.9947 134.415 61.808C134.415 61.616 134.33 61.4747 134.159 61.384C133.989 61.288 133.725 61.1947 133.367 61.104C133.042 61.0187 132.775 60.9333 132.567 60.848C132.365 60.7573 132.189 60.6267 132.039 60.456C131.895 60.28 131.823 60.0507 131.823 59.768C131.823 59.544 131.89 59.3387 132.023 59.152C132.157 58.9653 132.346 58.8187 132.591 58.712C132.837 58.6 133.117 58.544 133.431 58.544C133.917 58.544 134.309 58.6667 134.607 58.912C134.906 59.1573 135.066 59.4933 135.087 59.92H134.359C134.343 59.6907 134.25 59.5067 134.079 59.368C133.914 59.2293 133.69 59.16 133.407 59.16C133.146 59.16 132.938 59.216 132.783 59.328C132.629 59.44 132.551 59.5867 132.551 59.768C132.551 59.912 132.597 60.032 132.687 60.128C132.783 60.2187 132.901 60.2933 133.039 60.352C133.183 60.4053 133.381 60.4667 133.631 60.536C133.946 60.6213 134.202 60.7067 134.399 60.792C134.597 60.872 134.765 60.9947 134.903 61.16C135.047 61.3253 135.122 61.5413 135.127 61.808C135.127 62.048 135.061 62.264 134.927 62.456C134.794 62.648 134.605 62.8 134.359 62.912C134.119 63.0187 133.842 63.072 133.527 63.072ZM137.707 63.072C137.371 63.072 137.07 63.016 136.803 62.904C136.536 62.7867 136.326 62.6267 136.171 62.424C136.016 62.216 135.931 61.9787 135.915 61.712H136.667C136.688 61.9307 136.79 62.1093 136.971 62.248C137.158 62.3867 137.4 62.456 137.699 62.456C137.976 62.456 138.195 62.3947 138.355 62.272C138.515 62.1493 138.595 61.9947 138.595 61.808C138.595 61.616 138.51 61.4747 138.339 61.384C138.168 61.288 137.904 61.1947 137.547 61.104C137.222 61.0187 136.955 60.9333 136.747 60.848C136.544 60.7573 136.368 60.6267 136.219 60.456C136.075 60.28 136.003 60.0507 136.003 59.768C136.003 59.544 136.07 59.3387 136.203 59.152C136.336 58.9653 136.526 58.8187 136.771 58.712C137.016 58.6 137.296 58.544 137.611 58.544C138.096 58.544 138.488 58.6667 138.787 58.912C139.086 59.1573 139.246 59.4933 139.267 59.92H138.539C138.523 59.6907 138.43 59.5067 138.259 59.368C138.094 59.2293 137.87 59.16 137.587 59.16C137.326 59.16 137.118 59.216 136.963 59.328C136.808 59.44 136.731 59.5867 136.731 59.768C136.731 59.912 136.776 60.032 136.867 60.128C136.963 60.2187 137.08 60.2933 137.219 60.352C137.363 60.4053 137.56 60.4667 137.811 60.536C138.126 60.6213 138.382 60.7067 138.579 60.792C138.776 60.872 138.944 60.9947 139.083 61.16C139.227 61.3253 139.302 61.5413 139.307 61.808C139.307 62.048 139.24 62.264 139.107 62.456C138.974 62.648 138.784 62.8 138.539 62.912C138.299 63.0187 138.022 63.072 137.707 63.072ZM21.344 71.056C21.344 71.52 21.184 71.9067 20.864 72.216C20.5493 72.52 20.0667 72.672 19.416 72.672H18.344V75H17.616V69.424H19.416C20.0453 69.424 20.5227 69.576 20.848 69.88C21.1787 70.184 21.344 70.576 21.344 71.056ZM19.416 72.072C19.8213 72.072 20.12 71.984 20.312 71.808C20.504 71.632 20.6 71.3813 20.6 71.056C20.6 70.368 20.2053 70.024 19.416 70.024H18.344V72.072H19.416ZM26.2488 72.64C26.2488 72.7787 26.2408 72.9253 26.2248 73.08H22.7208C22.7475 73.512 22.8941 73.8507 23.1608 74.096C23.4328 74.336 23.7608 74.456 24.1448 74.456C24.4595 74.456 24.7208 74.384 24.9288 74.24C25.1421 74.0907 25.2915 73.8933 25.3768 73.648H26.1608C26.0435 74.0693 25.8088 74.4133 25.4568 74.68C25.1048 74.9413 24.6675 75.072 24.1448 75.072C23.7288 75.072 23.3555 74.9787 23.0248 74.792C22.6995 74.6053 22.4435 74.3413 22.2568 74C22.0701 73.6533 21.9768 73.2533 21.9768 72.8C21.9768 72.3467 22.0675 71.9493 22.2488 71.608C22.4301 71.2667 22.6835 71.0053 23.0088 70.824C23.3395 70.6373 23.7181 70.544 24.1448 70.544C24.5608 70.544 24.9288 70.6347 25.2488 70.816C25.5688 70.9973 25.8141 71.248 25.9848 71.568C26.1608 71.8827 26.2488 72.24 26.2488 72.64ZM25.4968 72.488C25.4968 72.2107 25.4355 71.9733 25.3128 71.776C25.1901 71.5733 25.0221 71.4213 24.8088 71.32C24.6008 71.2133 24.3688 71.16 24.1128 71.16C23.7448 71.16 23.4301 71.2773 23.1688 71.512C22.9128 71.7467 22.7661 72.072 22.7288 72.488H25.4968ZM27.9378 71.328C28.0658 71.0773 28.2471 70.8827 28.4818 70.744C28.7218 70.6053 29.0124 70.536 29.3538 70.536V71.288H29.1618C28.3458 71.288 27.9378 71.7307 27.9378 72.616V75H27.2098V70.616H27.9378V71.328ZM31.7461 75.072C31.4101 75.072 31.1088 75.016 30.8421 74.904C30.5755 74.7867 30.3648 74.6267 30.2101 74.424C30.0555 74.216 29.9701 73.9787 29.9541 73.712H30.7061C30.7275 73.9307 30.8288 74.1093 31.0101 74.248C31.1968 74.3867 31.4395 74.456 31.7381 74.456C32.0155 74.456 32.2341 74.3947 32.3941 74.272C32.5541 74.1493 32.6341 73.9947 32.6341 73.808C32.6341 73.616 32.5488 73.4747 32.3781 73.384C32.2075 73.288 31.9435 73.1947 31.5861 73.104C31.2608 73.0187 30.9941 72.9333 30.7861 72.848C30.5835 72.7573 30.4075 72.6267 30.2581 72.456C30.1141 72.28 30.0421 72.0507 30.0421 71.768C30.0421 71.544 30.1088 71.3387 30.2421 71.152C30.3755 70.9653 30.5648 70.8187 30.8101 70.712C31.0555 70.6 31.3355 70.544 31.6501 70.544C32.1355 70.544 32.5275 70.6667 32.8261 70.912C33.1248 71.1573 33.2848 71.4933 33.3061 71.92H32.5781C32.5621 71.6907 32.4688 71.5067 32.2981 71.368C32.1328 71.2293 31.9088 71.16 31.6261 71.16C31.3648 71.16 31.1568 71.216 31.0021 71.328C30.8475 71.44 30.7701 71.5867 30.7701 71.768C30.7701 71.912 30.8155 72.032 30.9061 72.128C31.0021 72.2187 31.1195 72.2933 31.2581 72.352C31.4021 72.4053 31.5995 72.4667 31.8501 72.536C32.1648 72.6213 32.4208 72.7067 32.6181 72.792C32.8155 72.872 32.9835 72.9947 33.1221 73.16C33.2661 73.3253 33.3408 73.5413 33.3461 73.808C33.3461 74.048 33.2795 74.264 33.1461 74.456C33.0128 74.648 32.8235 74.8 32.5781 74.912C32.3381 75.0187 32.0608 75.072 31.7461 75.072ZM36.2858 75.072C35.8751 75.072 35.5018 74.9787 35.1658 74.792C34.8351 74.6053 34.5738 74.3413 34.3818 74C34.1951 73.6533 34.1018 73.2533 34.1018 72.8C34.1018 72.352 34.1978 71.9573 34.3898 71.616C34.5871 71.2693 34.8538 71.0053 35.1898 70.824C35.5258 70.6373 35.9018 70.544 36.3178 70.544C36.7338 70.544 37.1098 70.6373 37.4458 70.824C37.7818 71.0053 38.0458 71.2667 38.2378 71.608C38.4351 71.9493 38.5338 72.3467 38.5338 72.8C38.5338 73.2533 38.4325 73.6533 38.2298 74C38.0325 74.3413 37.7631 74.6053 37.4218 74.792C37.0805 74.9787 36.7018 75.072 36.2858 75.072ZM36.2858 74.432C36.5471 74.432 36.7925 74.3707 37.0218 74.248C37.2511 74.1253 37.4351 73.9413 37.5738 73.696C37.7178 73.4507 37.7898 73.152 37.7898 72.8C37.7898 72.448 37.7205 72.1493 37.5818 71.904C37.4431 71.6587 37.2618 71.4773 37.0378 71.36C36.8138 71.2373 36.5711 71.176 36.3098 71.176C36.0431 71.176 35.7978 71.2373 35.5738 71.36C35.3551 71.4773 35.1791 71.6587 35.0458 71.904C34.9125 72.1493 34.8458 72.448 34.8458 72.8C34.8458 73.1573 34.9098 73.4587 35.0378 73.704C35.1711 73.9493 35.3471 74.1333 35.5658 74.256C35.7845 74.3733 36.0245 74.432 36.2858 74.432ZM41.627 70.536C42.1603 70.536 42.5923 70.6987 42.923 71.024C43.2537 71.344 43.419 71.808 43.419 72.416V75H42.699V72.52C42.699 72.0827 42.5897 71.7493 42.371 71.52C42.1523 71.2853 41.8537 71.168 41.475 71.168C41.091 71.168 40.7843 71.288 40.555 71.528C40.331 71.768 40.219 72.1173 40.219 72.576V75H39.491V70.616H40.219V71.24C40.363 71.016 40.5577 70.8427 40.803 70.72C41.0537 70.5973 41.3283 70.536 41.627 70.536ZM44.3362 72.792C44.3362 72.344 44.4269 71.952 44.6082 71.616C44.7895 71.2747 45.0375 71.0107 45.3522 70.824C45.6722 70.6373 46.0269 70.544 46.4162 70.544C46.8002 70.544 47.1335 70.6267 47.4162 70.792C47.6989 70.9573 47.9095 71.1653 48.0482 71.416V70.616H48.7842V75H48.0482V74.184C47.9042 74.44 47.6882 74.6533 47.4002 74.824C47.1175 74.9893 46.7869 75.072 46.4082 75.072C46.0189 75.072 45.6669 74.976 45.3522 74.784C45.0375 74.592 44.7895 74.3227 44.6082 73.976C44.4269 73.6293 44.3362 73.2347 44.3362 72.792ZM48.0482 72.8C48.0482 72.4693 47.9815 72.1813 47.8482 71.936C47.7149 71.6907 47.5335 71.504 47.3042 71.376C47.0802 71.2427 46.8322 71.176 46.5602 71.176C46.2882 71.176 46.0402 71.24 45.8162 71.368C45.5922 71.496 45.4135 71.6827 45.2802 71.928C45.1469 72.1733 45.0802 72.4613 45.0802 72.792C45.0802 73.128 45.1469 73.4213 45.2802 73.672C45.4135 73.9173 45.5922 74.1067 45.8162 74.24C46.0402 74.368 46.2882 74.432 46.5602 74.432C46.8322 74.432 47.0802 74.368 47.3042 74.24C47.5335 74.1067 47.7149 73.9173 47.8482 73.672C47.9815 73.4213 48.0482 73.1307 48.0482 72.8ZM50.7424 69.08V75H50.0144V69.08H50.7424ZM52.3592 69.904C52.2205 69.904 52.1032 69.856 52.0072 69.76C51.9112 69.664 51.8632 69.5467 51.8632 69.408C51.8632 69.2693 51.9112 69.152 52.0072 69.056C52.1032 68.96 52.2205 68.912 52.3592 68.912C52.4925 68.912 52.6045 68.96 52.6952 69.056C52.7912 69.152 52.8392 69.2693 52.8392 69.408C52.8392 69.5467 52.7912 69.664 52.6952 69.76C52.6045 69.856 52.4925 69.904 52.3592 69.904ZM52.7112 70.616V75H51.9832V70.616H52.7112ZM54.4959 74.4H56.6479V75H53.6639V74.4L55.7919 71.208H53.6799V70.616H56.6319V71.208L54.4959 74.4ZM61.5926 72.64C61.5926 72.7787 61.5846 72.9253 61.5686 73.08H58.0646C58.0912 73.512 58.2379 73.8507 58.5046 74.096C58.7766 74.336 59.1046 74.456 59.4886 74.456C59.8032 74.456 60.0646 74.384 60.2726 74.24C60.4859 74.0907 60.6352 73.8933 60.7206 73.648H61.5046C61.3872 74.0693 61.1526 74.4133 60.8006 74.68C60.4486 74.9413 60.0112 75.072 59.4886 75.072C59.0726 75.072 58.6992 74.9787 58.3686 74.792C58.0432 74.6053 57.7872 74.3413 57.6006 74C57.4139 73.6533 57.3206 73.2533 57.3206 72.8C57.3206 72.3467 57.4112 71.9493 57.5926 71.608C57.7739 71.2667 58.0272 71.0053 58.3526 70.824C58.6832 70.6373 59.0619 70.544 59.4886 70.544C59.9046 70.544 60.2726 70.6347 60.5926 70.816C60.9126 70.9973 61.1579 71.248 61.3286 71.568C61.5046 71.8827 61.5926 72.24 61.5926 72.64ZM60.8406 72.488C60.8406 72.2107 60.7792 71.9733 60.6566 71.776C60.5339 71.5733 60.3659 71.4213 60.1526 71.32C59.9446 71.2133 59.7126 71.16 59.4566 71.16C59.0886 71.16 58.7739 71.2773 58.5126 71.512C58.2566 71.7467 58.1099 72.072 58.0726 72.488H60.8406ZM62.2815 72.792C62.2815 72.344 62.3722 71.952 62.5535 71.616C62.7348 71.2747 62.9828 71.0107 63.2975 70.824C63.6175 70.6373 63.9748 70.544 64.3695 70.544C64.7108 70.544 65.0282 70.624 65.3215 70.784C65.6148 70.9387 65.8388 71.144 65.9935 71.4V69.08H66.7295V75H65.9935V74.176C65.8495 74.4373 65.6362 74.6533 65.3535 74.824C65.0708 74.9893 64.7402 75.072 64.3615 75.072C63.9722 75.072 63.6175 74.976 63.2975 74.784C62.9828 74.592 62.7348 74.3227 62.5535 73.976C62.3722 73.6293 62.2815 73.2347 62.2815 72.792ZM65.9935 72.8C65.9935 72.4693 65.9268 72.1813 65.7935 71.936C65.6602 71.6907 65.4788 71.504 65.2495 71.376C65.0255 71.2427 64.7775 71.176 64.5055 71.176C64.2335 71.176 63.9855 71.24 63.7615 71.368C63.5375 71.496 63.3588 71.6827 63.2255 71.928C63.0922 72.1733 63.0255 72.4613 63.0255 72.792C63.0255 73.128 63.0922 73.4213 63.2255 73.672C63.3588 73.9173 63.5375 74.1067 63.7615 74.24C63.9855 74.368 64.2335 74.432 64.5055 74.432C64.7775 74.432 65.0255 74.368 65.2495 74.24C65.4788 74.1067 65.6602 73.9173 65.7935 73.672C65.9268 73.4213 65.9935 73.1307 65.9935 72.8ZM74.4766 75H73.7486L70.8206 70.56V75H70.0926V69.416H70.8206L73.7486 73.848V69.416H74.4766V75ZM79.6056 70.616V75H78.8776V74.352C78.7389 74.576 78.5442 74.752 78.2936 74.88C78.0482 75.0027 77.7762 75.064 77.4776 75.064C77.1362 75.064 76.8296 74.9947 76.5576 74.856C76.2856 74.712 76.0696 74.4987 75.9096 74.216C75.7549 73.9333 75.6776 73.5893 75.6776 73.184V70.616H76.3976V73.088C76.3976 73.52 76.5069 73.8533 76.7256 74.088C76.9442 74.3173 77.2429 74.432 77.6216 74.432C78.0109 74.432 78.3176 74.312 78.5416 74.072C78.7656 73.832 78.8776 73.4827 78.8776 73.024V70.616H79.6056ZM81.7228 71.216V73.8C81.7228 74.0133 81.7681 74.1653 81.8588 74.256C81.9494 74.3413 82.1068 74.384 82.3307 74.384H82.8668V75H82.2108C81.8054 75 81.5014 74.9067 81.2988 74.72C81.0961 74.5333 80.9948 74.2267 80.9948 73.8V71.216H80.4268V70.616H80.9948V69.512H81.7228V70.616H82.8668V71.216H81.7228ZM84.4768 71.328C84.6048 71.0773 84.7861 70.8827 85.0208 70.744C85.2608 70.6053 85.5515 70.536 85.8928 70.536V71.288H85.7008C84.8848 71.288 84.4768 71.7307 84.4768 72.616V75H83.7488V70.616H84.4768V71.328ZM87.1092 69.904C86.9705 69.904 86.8532 69.856 86.7572 69.76C86.6612 69.664 86.6132 69.5467 86.6132 69.408C86.6132 69.2693 86.6612 69.152 86.7572 69.056C86.8532 68.96 86.9705 68.912 87.1092 68.912C87.2425 68.912 87.3545 68.96 87.4452 69.056C87.5412 69.152 87.5892 69.2693 87.5892 69.408C87.5892 69.5467 87.5412 69.664 87.4452 69.76C87.3545 69.856 87.2425 69.904 87.1092 69.904ZM87.4612 70.616V75H86.7332V70.616H87.4612ZM89.5899 71.216V73.8C89.5899 74.0133 89.6353 74.1653 89.7259 74.256C89.8166 74.3413 89.9739 74.384 90.1979 74.384H90.7339V75H90.0779C89.6726 75 89.3686 74.9067 89.1659 74.72C88.9633 74.5333 88.8619 74.2267 88.8619 73.8V71.216H88.2939V70.616H88.8619V69.512H89.5899V70.616H90.7339V71.216H89.5899ZM91.992 69.904C91.8533 69.904 91.736 69.856 91.64 69.76C91.544 69.664 91.496 69.5467 91.496 69.408C91.496 69.2693 91.544 69.152 91.64 69.056C91.736 68.96 91.8533 68.912 91.992 68.912C92.1253 68.912 92.2373 68.96 92.328 69.056C92.424 69.152 92.472 69.2693 92.472 69.408C92.472 69.5467 92.424 69.664 92.328 69.76C92.2373 69.856 92.1253 69.904 91.992 69.904ZM92.344 70.616V75H91.616V70.616H92.344ZM95.4968 75.072C95.0861 75.072 94.7128 74.9787 94.3768 74.792C94.0461 74.6053 93.7848 74.3413 93.5928 74C93.4061 73.6533 93.3128 73.2533 93.3128 72.8C93.3128 72.352 93.4088 71.9573 93.6008 71.616C93.7981 71.2693 94.0648 71.0053 94.4008 70.824C94.7368 70.6373 95.1128 70.544 95.5288 70.544C95.9448 70.544 96.3208 70.6373 96.6568 70.824C96.9928 71.0053 97.2568 71.2667 97.4488 71.608C97.6461 71.9493 97.7448 72.3467 97.7448 72.8C97.7448 73.2533 97.6434 73.6533 97.4408 74C97.2434 74.3413 96.9741 74.6053 96.6328 74.792C96.2914 74.9787 95.9128 75.072 95.4968 75.072ZM95.4968 74.432C95.7581 74.432 96.0034 74.3707 96.2328 74.248C96.4621 74.1253 96.6461 73.9413 96.7848 73.696C96.9288 73.4507 97.0008 73.152 97.0008 72.8C97.0008 72.448 96.9314 72.1493 96.7928 71.904C96.6541 71.6587 96.4728 71.4773 96.2488 71.36C96.0248 71.2373 95.7821 71.176 95.5208 71.176C95.2541 71.176 95.0088 71.2373 94.7848 71.36C94.5661 71.4773 94.3901 71.6587 94.2568 71.904C94.1234 72.1493 94.0568 72.448 94.0568 72.8C94.0568 73.1573 94.1208 73.4587 94.2488 73.704C94.3821 73.9493 94.5581 74.1333 94.7768 74.256C94.9954 74.3733 95.2354 74.432 95.4968 74.432ZM100.838 70.536C101.371 70.536 101.803 70.6987 102.134 71.024C102.465 71.344 102.63 71.808 102.63 72.416V75H101.91V72.52C101.91 72.0827 101.801 71.7493 101.582 71.52C101.363 71.2853 101.065 71.168 100.686 71.168C100.302 71.168 99.9953 71.288 99.7659 71.528C99.5419 71.768 99.4299 72.1173 99.4299 72.576V75H98.7019V70.616H99.4299V71.24C99.5739 71.016 99.7686 70.8427 100.014 70.72C100.265 70.5973 100.539 70.536 100.838 70.536ZM109.68 71.056C109.68 71.52 109.52 71.9067 109.2 72.216C108.885 72.52 108.403 72.672 107.752 72.672H106.68V75H105.952V69.424H107.752C108.381 69.424 108.859 69.576 109.184 69.88C109.515 70.184 109.68 70.576 109.68 71.056ZM107.752 72.072C108.157 72.072 108.456 71.984 108.648 71.808C108.84 71.632 108.936 71.3813 108.936 71.056C108.936 70.368 108.541 70.024 107.752 70.024H106.68V72.072H107.752ZM111.313 69.08V75H110.585V69.08H111.313ZM112.282 72.792C112.282 72.344 112.372 71.952 112.554 71.616C112.735 71.2747 112.983 71.0107 113.298 70.824C113.618 70.6373 113.972 70.544 114.362 70.544C114.746 70.544 115.079 70.6267 115.362 70.792C115.644 70.9573 115.855 71.1653 115.994 71.416V70.616H116.73V75H115.994V74.184C115.85 74.44 115.634 74.6533 115.346 74.824C115.063 74.9893 114.732 75.072 114.354 75.072C113.964 75.072 113.612 74.976 113.298 74.784C112.983 74.592 112.735 74.3227 112.554 73.976C112.372 73.6293 112.282 73.2347 112.282 72.792ZM115.994 72.8C115.994 72.4693 115.927 72.1813 115.794 71.936C115.66 71.6907 115.479 71.504 115.25 71.376C115.026 71.2427 114.778 71.176 114.506 71.176C114.234 71.176 113.986 71.24 113.762 71.368C113.538 71.496 113.359 71.6827 113.226 71.928C113.092 72.1733 113.026 72.4613 113.026 72.792C113.026 73.128 113.092 73.4213 113.226 73.672C113.359 73.9173 113.538 74.1067 113.762 74.24C113.986 74.368 114.234 74.432 114.506 74.432C114.778 74.432 115.026 74.368 115.25 74.24C115.479 74.1067 115.66 73.9173 115.794 73.672C115.927 73.4213 115.994 73.1307 115.994 72.8ZM120.096 70.536C120.629 70.536 121.061 70.6987 121.392 71.024C121.722 71.344 121.888 71.808 121.888 72.416V75H121.168V72.52C121.168 72.0827 121.058 71.7493 120.84 71.52C120.621 71.2853 120.322 71.168 119.944 71.168C119.56 71.168 119.253 71.288 119.024 71.528C118.8 71.768 118.688 72.1173 118.688 72.576V75H117.96V70.616H118.688V71.24C118.832 71.016 119.026 70.8427 119.272 70.72C119.522 70.5973 119.797 70.536 120.096 70.536ZM129.49 75L128.762 74.264C128.49 74.5467 128.199 74.7573 127.89 74.896C127.58 75.0293 127.231 75.096 126.842 75.096C126.458 75.096 126.116 75.0267 125.818 74.888C125.524 74.7493 125.295 74.552 125.13 74.296C124.97 74.04 124.89 73.7413 124.89 73.4C124.89 73.0107 124.999 72.6693 125.218 72.376C125.442 72.0773 125.77 71.8427 126.202 71.672C126.031 71.4693 125.908 71.2827 125.834 71.112C125.759 70.9413 125.722 70.7547 125.722 70.552C125.722 70.3173 125.78 70.1067 125.898 69.92C126.02 69.728 126.194 69.5787 126.418 69.472C126.642 69.3653 126.9 69.312 127.194 69.312C127.482 69.312 127.732 69.368 127.946 69.48C128.159 69.592 128.319 69.7493 128.426 69.952C128.532 70.1493 128.58 70.3707 128.57 70.616H127.842C127.847 70.3973 127.786 70.2267 127.658 70.104C127.53 69.976 127.364 69.912 127.162 69.912C126.948 69.912 126.775 69.9733 126.642 70.096C126.514 70.2133 126.45 70.3653 126.45 70.552C126.45 70.712 126.492 70.8667 126.578 71.016C126.668 71.1653 126.818 71.3493 127.026 71.568L128.69 73.24L128.834 73.016L129.378 72.104H130.162L129.506 73.24C129.415 73.4 129.308 73.568 129.186 73.744L130.442 75H129.49ZM126.842 74.472C127.13 74.472 127.388 74.416 127.618 74.304C127.852 74.192 128.074 74.0187 128.282 73.784L126.642 72.136C125.959 72.3973 125.618 72.8107 125.618 73.376C125.618 73.6907 125.73 73.952 125.954 74.16C126.183 74.368 126.479 74.472 126.842 74.472ZM135.025 75.056C134.657 75.056 134.326 74.992 134.033 74.864C133.745 74.7307 133.518 74.5493 133.353 74.32C133.187 74.0853 133.102 73.816 133.097 73.512H133.873C133.899 73.7733 134.006 73.9947 134.193 74.176C134.385 74.352 134.662 74.44 135.025 74.44C135.371 74.44 135.643 74.3547 135.841 74.184C136.043 74.008 136.145 73.784 136.145 73.512C136.145 73.2987 136.086 73.1253 135.969 72.992C135.851 72.8587 135.705 72.7573 135.529 72.688C135.353 72.6187 135.115 72.544 134.817 72.464C134.449 72.368 134.153 72.272 133.929 72.176C133.71 72.08 133.521 71.9307 133.361 71.728C133.206 71.52 133.129 71.2427 133.129 70.896C133.129 70.592 133.206 70.3227 133.361 70.088C133.515 69.8533 133.731 69.672 134.009 69.544C134.291 69.416 134.614 69.352 134.977 69.352C135.499 69.352 135.926 69.4827 136.257 69.744C136.593 70.0053 136.782 70.352 136.825 70.784H136.025C135.998 70.5707 135.886 70.384 135.689 70.224C135.491 70.0587 135.23 69.976 134.905 69.976C134.601 69.976 134.353 70.056 134.161 70.216C133.969 70.3707 133.873 70.5893 133.873 70.872C133.873 71.0747 133.929 71.24 134.041 71.368C134.158 71.496 134.299 71.5947 134.465 71.664C134.635 71.728 134.873 71.8027 135.177 71.888C135.545 71.9893 135.841 72.0907 136.065 72.192C136.289 72.288 136.481 72.44 136.641 72.648C136.801 72.8507 136.881 73.128 136.881 73.48C136.881 73.752 136.809 74.008 136.665 74.248C136.521 74.488 136.307 74.6827 136.025 74.832C135.742 74.9813 135.409 75.056 135.025 75.056ZM141.84 70.616V75H141.112V74.352C140.973 74.576 140.779 74.752 140.528 74.88C140.283 75.0027 140.011 75.064 139.712 75.064C139.371 75.064 139.064 74.9947 138.792 74.856C138.52 74.712 138.304 74.4987 138.144 74.216C137.989 73.9333 137.912 73.5893 137.912 73.184V70.616H138.632V73.088C138.632 73.52 138.741 73.8533 138.96 74.088C139.179 74.3173 139.477 74.432 139.856 74.432C140.245 74.432 140.552 74.312 140.776 74.072C141 73.832 141.112 73.4827 141.112 73.024V70.616H141.84ZM143.797 71.424C143.941 71.1733 144.154 70.9653 144.437 70.8C144.725 70.6293 145.058 70.544 145.437 70.544C145.826 70.544 146.178 70.6373 146.493 70.824C146.813 71.0107 147.064 71.2747 147.245 71.616C147.426 71.952 147.517 72.344 147.517 72.792C147.517 73.2347 147.426 73.6293 147.245 73.976C147.064 74.3227 146.813 74.592 146.493 74.784C146.178 74.976 145.826 75.072 145.437 75.072C145.064 75.072 144.733 74.9893 144.445 74.824C144.162 74.6533 143.946 74.4427 143.797 74.192V77.08H143.069V70.616H143.797V71.424ZM146.773 72.792C146.773 72.4613 146.706 72.1733 146.573 71.928C146.44 71.6827 146.258 71.496 146.029 71.368C145.805 71.24 145.557 71.176 145.285 71.176C145.018 71.176 144.77 71.2427 144.541 71.376C144.317 71.504 144.136 71.6933 143.997 71.944C143.864 72.1893 143.797 72.4747 143.797 72.8C143.797 73.1307 143.864 73.4213 143.997 73.672C144.136 73.9173 144.317 74.1067 144.541 74.24C144.77 74.368 145.018 74.432 145.285 74.432C145.557 74.432 145.805 74.368 146.029 74.24C146.258 74.1067 146.44 73.9173 146.573 73.672C146.706 73.4213 146.773 73.128 146.773 72.792ZM149.203 71.424C149.347 71.1733 149.561 70.9653 149.843 70.8C150.131 70.6293 150.465 70.544 150.843 70.544C151.233 70.544 151.585 70.6373 151.899 70.824C152.219 71.0107 152.47 71.2747 152.651 71.616C152.833 71.952 152.923 72.344 152.923 72.792C152.923 73.2347 152.833 73.6293 152.651 73.976C152.47 74.3227 152.219 74.592 151.899 74.784C151.585 74.976 151.233 75.072 150.843 75.072C150.47 75.072 150.139 74.9893 149.851 74.824C149.569 74.6533 149.353 74.4427 149.203 74.192V77.08H148.475V70.616H149.203V71.424ZM152.179 72.792C152.179 72.4613 152.113 72.1733 151.979 71.928C151.846 71.6827 151.665 71.496 151.435 71.368C151.211 71.24 150.963 71.176 150.691 71.176C150.425 71.176 150.177 71.2427 149.947 71.376C149.723 71.504 149.542 71.6933 149.403 71.944C149.27 72.1893 149.203 72.4747 149.203 72.8C149.203 73.1307 149.27 73.4213 149.403 73.672C149.542 73.9173 149.723 74.1067 149.947 74.24C150.177 74.368 150.425 74.432 150.691 74.432C150.963 74.432 151.211 74.368 151.435 74.24C151.665 74.1067 151.846 73.9173 151.979 73.672C152.113 73.4213 152.179 73.128 152.179 72.792ZM155.794 75.072C155.383 75.072 155.01 74.9787 154.674 74.792C154.343 74.6053 154.082 74.3413 153.89 74C153.703 73.6533 153.61 73.2533 153.61 72.8C153.61 72.352 153.706 71.9573 153.898 71.616C154.095 71.2693 154.362 71.0053 154.698 70.824C155.034 70.6373 155.41 70.544 155.826 70.544C156.242 70.544 156.618 70.6373 156.954 70.824C157.29 71.0053 157.554 71.2667 157.746 71.608C157.943 71.9493 158.042 72.3467 158.042 72.8C158.042 73.2533 157.94 73.6533 157.738 74C157.54 74.3413 157.271 74.6053 156.93 74.792C156.588 74.9787 156.21 75.072 155.794 75.072ZM155.794 74.432C156.055 74.432 156.3 74.3707 156.53 74.248C156.759 74.1253 156.943 73.9413 157.082 73.696C157.226 73.4507 157.298 73.152 157.298 72.8C157.298 72.448 157.228 72.1493 157.09 71.904C156.951 71.6587 156.77 71.4773 156.546 71.36C156.322 71.2373 156.079 71.176 155.818 71.176C155.551 71.176 155.306 71.2373 155.082 71.36C154.863 71.4773 154.687 71.6587 154.554 71.904C154.42 72.1493 154.354 72.448 154.354 72.8C154.354 73.1573 154.418 73.4587 154.546 73.704C154.679 73.9493 154.855 74.1333 155.074 74.256C155.292 74.3733 155.532 74.432 155.794 74.432ZM159.727 71.328C159.855 71.0773 160.036 70.8827 160.271 70.744C160.511 70.6053 160.801 70.536 161.143 70.536V71.288H160.951C160.135 71.288 159.727 71.7307 159.727 72.616V75H158.999V70.616H159.727V71.328ZM162.871 71.216V73.8C162.871 74.0133 162.917 74.1653 163.007 74.256C163.098 74.3413 163.255 74.384 163.479 74.384H164.015V75H163.359C162.954 75 162.65 74.9067 162.447 74.72C162.245 74.5333 162.143 74.2267 162.143 73.8V71.216H161.575V70.616H162.143V69.512H162.871V70.616H164.015V71.216H162.871ZM21.344 83.056C21.344 83.52 21.184 83.9067 20.864 84.216C20.5493 84.52 20.0667 84.672 19.416 84.672H18.344V87H17.616V81.424H19.416C20.0453 81.424 20.5227 81.576 20.848 81.88C21.1787 82.184 21.344 82.576 21.344 83.056ZM19.416 84.072C19.8213 84.072 20.12 83.984 20.312 83.808C20.504 83.632 20.6 83.3813 20.6 83.056C20.6 82.368 20.2053 82.024 19.416 82.024H18.344V84.072H19.416ZM26.2488 84.64C26.2488 84.7787 26.2408 84.9253 26.2248 85.08H22.7208C22.7475 85.512 22.8941 85.8507 23.1608 86.096C23.4328 86.336 23.7608 86.456 24.1448 86.456C24.4595 86.456 24.7208 86.384 24.9288 86.24C25.1421 86.0907 25.2915 85.8933 25.3768 85.648H26.1608C26.0435 86.0693 25.8088 86.4133 25.4568 86.68C25.1048 86.9413 24.6675 87.072 24.1448 87.072C23.7288 87.072 23.3555 86.9787 23.0248 86.792C22.6995 86.6053 22.4435 86.3413 22.2568 86C22.0701 85.6533 21.9768 85.2533 21.9768 84.8C21.9768 84.3467 22.0675 83.9493 22.2488 83.608C22.4301 83.2667 22.6835 83.0053 23.0088 82.824C23.3395 82.6373 23.7181 82.544 24.1448 82.544C24.5608 82.544 24.9288 82.6347 25.2488 82.816C25.5688 82.9973 25.8141 83.248 25.9848 83.568C26.1608 83.8827 26.2488 84.24 26.2488 84.64ZM25.4968 84.488C25.4968 84.2107 25.4355 83.9733 25.3128 83.776C25.1901 83.5733 25.0221 83.4213 24.8088 83.32C24.6008 83.2133 24.3688 83.16 24.1128 83.16C23.7448 83.16 23.4301 83.2773 23.1688 83.512C22.9128 83.7467 22.7661 84.072 22.7288 84.488H25.4968ZM27.9378 83.328C28.0658 83.0773 28.2471 82.8827 28.4818 82.744C28.7218 82.6053 29.0124 82.536 29.3538 82.536V83.288H29.1618C28.3458 83.288 27.9378 83.7307 27.9378 84.616V87H27.2098V82.616H27.9378V83.328ZM31.7461 87.072C31.4101 87.072 31.1088 87.016 30.8421 86.904C30.5755 86.7867 30.3648 86.6267 30.2101 86.424C30.0555 86.216 29.9701 85.9787 29.9541 85.712H30.7061C30.7275 85.9307 30.8288 86.1093 31.0101 86.248C31.1968 86.3867 31.4395 86.456 31.7381 86.456C32.0155 86.456 32.2341 86.3947 32.3941 86.272C32.5541 86.1493 32.6341 85.9947 32.6341 85.808C32.6341 85.616 32.5488 85.4747 32.3781 85.384C32.2075 85.288 31.9435 85.1947 31.5861 85.104C31.2608 85.0187 30.9941 84.9333 30.7861 84.848C30.5835 84.7573 30.4075 84.6267 30.2581 84.456C30.1141 84.28 30.0421 84.0507 30.0421 83.768C30.0421 83.544 30.1088 83.3387 30.2421 83.152C30.3755 82.9653 30.5648 82.8187 30.8101 82.712C31.0555 82.6 31.3355 82.544 31.6501 82.544C32.1355 82.544 32.5275 82.6667 32.8261 82.912C33.1248 83.1573 33.2848 83.4933 33.3061 83.92H32.5781C32.5621 83.6907 32.4688 83.5067 32.2981 83.368C32.1328 83.2293 31.9088 83.16 31.6261 83.16C31.3648 83.16 31.1568 83.216 31.0021 83.328C30.8475 83.44 30.7701 83.5867 30.7701 83.768C30.7701 83.912 30.8155 84.032 30.9061 84.128C31.0021 84.2187 31.1195 84.2933 31.2581 84.352C31.4021 84.4053 31.5995 84.4667 31.8501 84.536C32.1648 84.6213 32.4208 84.7067 32.6181 84.792C32.8155 84.872 32.9835 84.9947 33.1221 85.16C33.2661 85.3253 33.3408 85.5413 33.3461 85.808C33.3461 86.048 33.2795 86.264 33.1461 86.456C33.0128 86.648 32.8235 86.8 32.5781 86.912C32.3381 87.0187 32.0608 87.072 31.7461 87.072ZM36.2858 87.072C35.8751 87.072 35.5018 86.9787 35.1658 86.792C34.8351 86.6053 34.5738 86.3413 34.3818 86C34.1951 85.6533 34.1018 85.2533 34.1018 84.8C34.1018 84.352 34.1978 83.9573 34.3898 83.616C34.5871 83.2693 34.8538 83.0053 35.1898 82.824C35.5258 82.6373 35.9018 82.544 36.3178 82.544C36.7338 82.544 37.1098 82.6373 37.4458 82.824C37.7818 83.0053 38.0458 83.2667 38.2378 83.608C38.4351 83.9493 38.5338 84.3467 38.5338 84.8C38.5338 85.2533 38.4325 85.6533 38.2298 86C38.0325 86.3413 37.7631 86.6053 37.4218 86.792C37.0805 86.9787 36.7018 87.072 36.2858 87.072ZM36.2858 86.432C36.5471 86.432 36.7925 86.3707 37.0218 86.248C37.2511 86.1253 37.4351 85.9413 37.5738 85.696C37.7178 85.4507 37.7898 85.152 37.7898 84.8C37.7898 84.448 37.7205 84.1493 37.5818 83.904C37.4431 83.6587 37.2618 83.4773 37.0378 83.36C36.8138 83.2373 36.5711 83.176 36.3098 83.176C36.0431 83.176 35.7978 83.2373 35.5738 83.36C35.3551 83.4773 35.1791 83.6587 35.0458 83.904C34.9125 84.1493 34.8458 84.448 34.8458 84.8C34.8458 85.1573 34.9098 85.4587 35.0378 85.704C35.1711 85.9493 35.3471 86.1333 35.5658 86.256C35.7845 86.3733 36.0245 86.432 36.2858 86.432ZM41.627 82.536C42.1603 82.536 42.5923 82.6987 42.923 83.024C43.2537 83.344 43.419 83.808 43.419 84.416V87H42.699V84.52C42.699 84.0827 42.5897 83.7493 42.371 83.52C42.1523 83.2853 41.8537 83.168 41.475 83.168C41.091 83.168 40.7843 83.288 40.555 83.528C40.331 83.768 40.219 84.1173 40.219 84.576V87H39.491V82.616H40.219V83.24C40.363 83.016 40.5577 82.8427 40.803 82.72C41.0537 82.5973 41.3283 82.536 41.627 82.536ZM44.3362 84.792C44.3362 84.344 44.4269 83.952 44.6082 83.616C44.7895 83.2747 45.0375 83.0107 45.3522 82.824C45.6722 82.6373 46.0269 82.544 46.4162 82.544C46.8002 82.544 47.1335 82.6267 47.4162 82.792C47.6989 82.9573 47.9095 83.1653 48.0482 83.416V82.616H48.7842V87H48.0482V86.184C47.9042 86.44 47.6882 86.6533 47.4002 86.824C47.1175 86.9893 46.7869 87.072 46.4082 87.072C46.0189 87.072 45.6669 86.976 45.3522 86.784C45.0375 86.592 44.7895 86.3227 44.6082 85.976C44.4269 85.6293 44.3362 85.2347 44.3362 84.792ZM48.0482 84.8C48.0482 84.4693 47.9815 84.1813 47.8482 83.936C47.7149 83.6907 47.5335 83.504 47.3042 83.376C47.0802 83.2427 46.8322 83.176 46.5602 83.176C46.2882 83.176 46.0402 83.24 45.8162 83.368C45.5922 83.496 45.4135 83.6827 45.2802 83.928C45.1469 84.1733 45.0802 84.4613 45.0802 84.792C45.0802 85.128 45.1469 85.4213 45.2802 85.672C45.4135 85.9173 45.5922 86.1067 45.8162 86.24C46.0402 86.368 46.2882 86.432 46.5602 86.432C46.8322 86.432 47.0802 86.368 47.3042 86.24C47.5335 86.1067 47.7149 85.9173 47.8482 85.672C47.9815 85.4213 48.0482 85.1307 48.0482 84.8ZM50.7424 81.08V87H50.0144V81.08H50.7424ZM55.884 87.056C55.516 87.056 55.1853 86.992 54.892 86.864C54.604 86.7307 54.3773 86.5493 54.212 86.32C54.0467 86.0853 53.9613 85.816 53.956 85.512H54.732C54.7587 85.7733 54.8653 85.9947 55.052 86.176C55.244 86.352 55.5213 86.44 55.884 86.44C56.2307 86.44 56.5027 86.3547 56.7 86.184C56.9027 86.008 57.004 85.784 57.004 85.512C57.004 85.2987 56.9453 85.1253 56.828 84.992C56.7107 84.8587 56.564 84.7573 56.388 84.688C56.212 84.6187 55.9747 84.544 55.676 84.464C55.308 84.368 55.012 84.272 54.788 84.176C54.5693 84.08 54.38 83.9307 54.22 83.728C54.0653 83.52 53.988 83.2427 53.988 82.896C53.988 82.592 54.0653 82.3227 54.22 82.088C54.3747 81.8533 54.5907 81.672 54.868 81.544C55.1507 81.416 55.4733 81.352 55.836 81.352C56.3587 81.352 56.7853 81.4827 57.116 81.744C57.452 82.0053 57.6413 82.352 57.684 82.784H56.884C56.8573 82.5707 56.7453 82.384 56.548 82.224C56.3507 82.0587 56.0893 81.976 55.764 81.976C55.46 81.976 55.212 82.056 55.02 82.216C54.828 82.3707 54.732 82.5893 54.732 82.872C54.732 83.0747 54.788 83.24 54.9 83.368C55.0173 83.496 55.1587 83.5947 55.324 83.664C55.4947 83.728 55.732 83.8027 56.036 83.888C56.404 83.9893 56.7 84.0907 56.924 84.192C57.148 84.288 57.34 84.44 57.5 84.648C57.66 84.8507 57.74 85.128 57.74 85.48C57.74 85.752 57.668 86.008 57.524 86.248C57.38 86.488 57.1667 86.6827 56.884 86.832C56.6013 86.9813 56.268 87.056 55.884 87.056ZM62.6993 82.616V87H61.9713V86.352C61.8326 86.576 61.638 86.752 61.3873 86.88C61.142 87.0027 60.87 87.064 60.5713 87.064C60.23 87.064 59.9233 86.9947 59.6513 86.856C59.3793 86.712 59.1633 86.4987 59.0033 86.216C58.8486 85.9333 58.7713 85.5893 58.7713 85.184V82.616H59.4913V85.088C59.4913 85.52 59.6006 85.8533 59.8193 86.088C60.038 86.3173 60.3366 86.432 60.7153 86.432C61.1046 86.432 61.4113 86.312 61.6353 86.072C61.8593 85.832 61.9713 85.4827 61.9713 85.024V82.616H62.6993ZM63.6565 84.8C63.6565 84.3467 63.7472 83.952 63.9285 83.616C64.1098 83.2747 64.3605 83.0107 64.6805 82.824C65.0058 82.6373 65.3765 82.544 65.7925 82.544C66.3312 82.544 66.7738 82.6747 67.1205 82.936C67.4725 83.1973 67.7045 83.56 67.8165 84.024H67.0325C66.9578 83.7573 66.8112 83.5467 66.5925 83.392C66.3792 83.2373 66.1125 83.16 65.7925 83.16C65.3765 83.16 65.0405 83.304 64.7845 83.592C64.5285 83.8747 64.4005 84.2773 64.4005 84.8C64.4005 85.328 64.5285 85.736 64.7845 86.024C65.0405 86.312 65.3765 86.456 65.7925 86.456C66.1125 86.456 66.3792 86.3813 66.5925 86.232C66.8058 86.0827 66.9525 85.8693 67.0325 85.592H67.8165C67.6992 86.04 67.4645 86.4 67.1125 86.672C66.7605 86.9387 66.3205 87.072 65.7925 87.072C65.3765 87.072 65.0058 86.9787 64.6805 86.792C64.3605 86.6053 64.1098 86.3413 63.9285 86C63.7472 85.6587 63.6565 85.2587 63.6565 84.8ZM68.5159 84.8C68.5159 84.3467 68.6065 83.952 68.7879 83.616C68.9692 83.2747 69.2199 83.0107 69.5399 82.824C69.8652 82.6373 70.2359 82.544 70.6519 82.544C71.1905 82.544 71.6332 82.6747 71.9799 82.936C72.3319 83.1973 72.5639 83.56 72.6759 84.024H71.8919C71.8172 83.7573 71.6705 83.5467 71.4519 83.392C71.2385 83.2373 70.9719 83.16 70.6519 83.16C70.2359 83.16 69.8999 83.304 69.6439 83.592C69.3879 83.8747 69.2599 84.2773 69.2599 84.8C69.2599 85.328 69.3879 85.736 69.6439 86.024C69.8999 86.312 70.2359 86.456 70.6519 86.456C70.9719 86.456 71.2385 86.3813 71.4519 86.232C71.6652 86.0827 71.8119 85.8693 71.8919 85.592H72.6759C72.5585 86.04 72.3239 86.4 71.9719 86.672C71.6199 86.9387 71.1799 87.072 70.6519 87.072C70.2359 87.072 69.8652 86.9787 69.5399 86.792C69.2199 86.6053 68.9692 86.3413 68.7879 86C68.6065 85.6587 68.5159 85.2587 68.5159 84.8ZM77.6473 84.64C77.6473 84.7787 77.6393 84.9253 77.6233 85.08H74.1193C74.1459 85.512 74.2926 85.8507 74.5593 86.096C74.8313 86.336 75.1593 86.456 75.5433 86.456C75.8579 86.456 76.1193 86.384 76.3273 86.24C76.5406 86.0907 76.6899 85.8933 76.7753 85.648H77.5593C77.4419 86.0693 77.2073 86.4133 76.8553 86.68C76.5033 86.9413 76.0659 87.072 75.5433 87.072C75.1273 87.072 74.7539 86.9787 74.4233 86.792C74.0979 86.6053 73.8419 86.3413 73.6553 86C73.4686 85.6533 73.3753 85.2533 73.3753 84.8C73.3753 84.3467 73.4659 83.9493 73.6473 83.608C73.8286 83.2667 74.0819 83.0053 74.4073 82.824C74.7379 82.6373 75.1166 82.544 75.5433 82.544C75.9593 82.544 76.3273 82.6347 76.6473 82.816C76.9673 82.9973 77.2126 83.248 77.3833 83.568C77.5593 83.8827 77.6473 84.24 77.6473 84.64ZM76.8953 84.488C76.8953 84.2107 76.8339 83.9733 76.7113 83.776C76.5886 83.5733 76.4206 83.4213 76.2073 83.32C75.9993 83.2133 75.7673 83.16 75.5113 83.16C75.1433 83.16 74.8286 83.2773 74.5673 83.512C74.3113 83.7467 74.1646 84.072 74.1273 84.488H76.8953ZM80.1602 87.072C79.8242 87.072 79.5229 87.016 79.2562 86.904C78.9895 86.7867 78.7789 86.6267 78.6242 86.424C78.4695 86.216 78.3842 85.9787 78.3682 85.712H79.1202C79.1415 85.9307 79.2429 86.1093 79.4242 86.248C79.6109 86.3867 79.8535 86.456 80.1522 86.456C80.4295 86.456 80.6482 86.3947 80.8082 86.272C80.9682 86.1493 81.0482 85.9947 81.0482 85.808C81.0482 85.616 80.9629 85.4747 80.7922 85.384C80.6215 85.288 80.3575 85.1947 80.0002 85.104C79.6749 85.0187 79.4082 84.9333 79.2002 84.848C78.9975 84.7573 78.8215 84.6267 78.6722 84.456C78.5282 84.28 78.4562 84.0507 78.4562 83.768C78.4562 83.544 78.5229 83.3387 78.6562 83.152C78.7895 82.9653 78.9789 82.8187 79.2242 82.712C79.4695 82.6 79.7495 82.544 80.0642 82.544C80.5495 82.544 80.9415 82.6667 81.2402 82.912C81.5389 83.1573 81.6989 83.4933 81.7202 83.92H80.9922C80.9762 83.6907 80.8829 83.5067 80.7122 83.368C80.5469 83.2293 80.3229 83.16 80.0402 83.16C79.7789 83.16 79.5709 83.216 79.4162 83.328C79.2615 83.44 79.1842 83.5867 79.1842 83.768C79.1842 83.912 79.2295 84.032 79.3202 84.128C79.4162 84.2187 79.5335 84.2933 79.6722 84.352C79.8162 84.4053 80.0135 84.4667 80.2642 84.536C80.5789 84.6213 80.8349 84.7067 81.0322 84.792C81.2295 84.872 81.3975 84.9947 81.5362 85.16C81.6802 85.3253 81.7549 85.5413 81.7602 85.808C81.7602 86.048 81.6935 86.264 81.5602 86.456C81.4269 86.648 81.2375 86.8 80.9922 86.912C80.7522 87.0187 80.4749 87.072 80.1602 87.072ZM84.3399 87.072C84.0039 87.072 83.7025 87.016 83.4359 86.904C83.1692 86.7867 82.9585 86.6267 82.8039 86.424C82.6492 86.216 82.5639 85.9787 82.5479 85.712H83.2999C83.3212 85.9307 83.4225 86.1093 83.6039 86.248C83.7905 86.3867 84.0332 86.456 84.3319 86.456C84.6092 86.456 84.8279 86.3947 84.9879 86.272C85.1479 86.1493 85.2279 85.9947 85.2279 85.808C85.2279 85.616 85.1425 85.4747 84.9719 85.384C84.8012 85.288 84.5372 85.1947 84.1799 85.104C83.8545 85.0187 83.5879 84.9333 83.3799 84.848C83.1772 84.7573 83.0012 84.6267 82.8519 84.456C82.7079 84.28 82.6359 84.0507 82.6359 83.768C82.6359 83.544 82.7025 83.3387 82.8359 83.152C82.9692 82.9653 83.1585 82.8187 83.4039 82.712C83.6492 82.6 83.9292 82.544 84.2439 82.544C84.7292 82.544 85.1212 82.6667 85.4199 82.912C85.7185 83.1573 85.8785 83.4933 85.8999 83.92H85.1719C85.1559 83.6907 85.0625 83.5067 84.8919 83.368C84.7265 83.2293 84.5025 83.16 84.2199 83.16C83.9585 83.16 83.7505 83.216 83.5959 83.328C83.4412 83.44 83.3639 83.5867 83.3639 83.768C83.3639 83.912 83.4092 84.032 83.4999 84.128C83.5959 84.2187 83.7132 84.2933 83.8519 84.352C83.9959 84.4053 84.1932 84.4667 84.4439 84.536C84.7585 84.6213 85.0145 84.7067 85.2119 84.792C85.4092 84.872 85.5772 84.9947 85.7159 85.16C85.8599 85.3253 85.9345 85.5413 85.9399 85.808C85.9399 86.048 85.8732 86.264 85.7399 86.456C85.6065 86.648 85.4172 86.8 85.1719 86.912C84.9319 87.0187 84.6545 87.072 84.3399 87.072ZM94.7564 81.464V87H94.0284V82.872L92.1884 87H91.6764L89.8284 82.864V87H89.1004V81.464H89.8844L91.9324 86.04L93.9804 81.464H94.7564ZM95.719 84.792C95.719 84.344 95.8097 83.952 95.991 83.616C96.1723 83.2747 96.4203 83.0107 96.735 82.824C97.055 82.6373 97.4097 82.544 97.799 82.544C98.183 82.544 98.5163 82.6267 98.799 82.792C99.0817 82.9573 99.2923 83.1653 99.431 83.416V82.616H100.167V87H99.431V86.184C99.287 86.44 99.071 86.6533 98.783 86.824C98.5003 86.9893 98.1697 87.072 97.791 87.072C97.4017 87.072 97.0497 86.976 96.735 86.784C96.4203 86.592 96.1723 86.3227 95.991 85.976C95.8097 85.6293 95.719 85.2347 95.719 84.792ZM99.431 84.8C99.431 84.4693 99.3643 84.1813 99.231 83.936C99.0977 83.6907 98.9163 83.504 98.687 83.376C98.463 83.2427 98.215 83.176 97.943 83.176C97.671 83.176 97.423 83.24 97.199 83.368C96.975 83.496 96.7963 83.6827 96.663 83.928C96.5297 84.1733 96.463 84.4613 96.463 84.792C96.463 85.128 96.5297 85.4213 96.663 85.672C96.7963 85.9173 96.975 86.1067 97.199 86.24C97.423 86.368 97.671 86.432 97.943 86.432C98.215 86.432 98.463 86.368 98.687 86.24C98.9163 86.1067 99.0977 85.9173 99.231 85.672C99.3643 85.4213 99.431 85.1307 99.431 84.8ZM103.533 82.536C104.067 82.536 104.499 82.6987 104.829 83.024C105.16 83.344 105.325 83.808 105.325 84.416V87H104.605V84.52C104.605 84.0827 104.496 83.7493 104.277 83.52C104.059 83.2853 103.76 83.168 103.381 83.168C102.997 83.168 102.691 83.288 102.461 83.528C102.237 83.768 102.125 84.1173 102.125 84.576V87H101.397V82.616H102.125V83.24C102.269 83.016 102.464 82.8427 102.709 82.72C102.96 82.5973 103.235 82.536 103.533 82.536ZM106.242 84.792C106.242 84.344 106.333 83.952 106.514 83.616C106.696 83.2747 106.944 83.0107 107.258 82.824C107.578 82.6373 107.933 82.544 108.322 82.544C108.706 82.544 109.04 82.6267 109.322 82.792C109.605 82.9573 109.816 83.1653 109.954 83.416V82.616H110.69V87H109.954V86.184C109.81 86.44 109.594 86.6533 109.306 86.824C109.024 86.9893 108.693 87.072 108.314 87.072C107.925 87.072 107.573 86.976 107.258 86.784C106.944 86.592 106.696 86.3227 106.514 85.976C106.333 85.6293 106.242 85.2347 106.242 84.792ZM109.954 84.8C109.954 84.4693 109.888 84.1813 109.754 83.936C109.621 83.6907 109.44 83.504 109.21 83.376C108.986 83.2427 108.738 83.176 108.466 83.176C108.194 83.176 107.946 83.24 107.722 83.368C107.498 83.496 107.32 83.6827 107.186 83.928C107.053 84.1733 106.986 84.4613 106.986 84.792C106.986 85.128 107.053 85.4213 107.186 85.672C107.32 85.9173 107.498 86.1067 107.722 86.24C107.946 86.368 108.194 86.432 108.466 86.432C108.738 86.432 108.986 86.368 109.21 86.24C109.44 86.1067 109.621 85.9173 109.754 85.672C109.888 85.4213 109.954 85.1307 109.954 84.8ZM113.729 82.544C114.107 82.544 114.438 82.6267 114.721 82.792C115.009 82.9573 115.222 83.1653 115.361 83.416V82.616H116.097V87.096C116.097 87.496 116.011 87.8507 115.841 88.16C115.67 88.4747 115.425 88.72 115.105 88.896C114.79 89.072 114.422 89.16 114.001 89.16C113.425 89.16 112.945 89.024 112.561 88.752C112.177 88.48 111.95 88.1093 111.881 87.64H112.601C112.681 87.9067 112.846 88.12 113.097 88.28C113.347 88.4453 113.649 88.528 114.001 88.528C114.401 88.528 114.726 88.4027 114.977 88.152C115.233 87.9013 115.361 87.5493 115.361 87.096V86.176C115.217 86.432 115.003 86.6453 114.721 86.816C114.438 86.9867 114.107 87.072 113.729 87.072C113.339 87.072 112.985 86.976 112.665 86.784C112.35 86.592 112.102 86.3227 111.921 85.976C111.739 85.6293 111.649 85.2347 111.649 84.792C111.649 84.344 111.739 83.952 111.921 83.616C112.102 83.2747 112.35 83.0107 112.665 82.824C112.985 82.6373 113.339 82.544 113.729 82.544ZM115.361 84.8C115.361 84.4693 115.294 84.1813 115.161 83.936C115.027 83.6907 114.846 83.504 114.617 83.376C114.393 83.2427 114.145 83.176 113.873 83.176C113.601 83.176 113.353 83.24 113.129 83.368C112.905 83.496 112.726 83.6827 112.593 83.928C112.459 84.1733 112.393 84.4613 112.393 84.792C112.393 85.128 112.459 85.4213 112.593 85.672C112.726 85.9173 112.905 86.1067 113.129 86.24C113.353 86.368 113.601 86.432 113.873 86.432C114.145 86.432 114.393 86.368 114.617 86.24C114.846 86.1067 115.027 85.9173 115.161 85.672C115.294 85.4213 115.361 85.1307 115.361 84.8ZM121.327 84.64C121.327 84.7787 121.319 84.9253 121.303 85.08H117.799C117.826 85.512 117.972 85.8507 118.239 86.096C118.511 86.336 118.839 86.456 119.223 86.456C119.538 86.456 119.799 86.384 120.007 86.24C120.22 86.0907 120.37 85.8933 120.455 85.648H121.239C121.122 86.0693 120.887 86.4133 120.535 86.68C120.183 86.9413 119.746 87.072 119.223 87.072C118.807 87.072 118.434 86.9787 118.103 86.792C117.778 86.6053 117.522 86.3413 117.335 86C117.148 85.6533 117.055 85.2533 117.055 84.8C117.055 84.3467 117.146 83.9493 117.327 83.608C117.508 83.2667 117.762 83.0053 118.087 82.824C118.418 82.6373 118.796 82.544 119.223 82.544C119.639 82.544 120.007 82.6347 120.327 82.816C120.647 82.9973 120.892 83.248 121.063 83.568C121.239 83.8827 121.327 84.24 121.327 84.64ZM120.575 84.488C120.575 84.2107 120.514 83.9733 120.391 83.776C120.268 83.5733 120.1 83.4213 119.887 83.32C119.679 83.2133 119.447 83.16 119.191 83.16C118.823 83.16 118.508 83.2773 118.247 83.512C117.991 83.7467 117.844 84.072 117.807 84.488H120.575ZM123.016 83.328C123.144 83.0773 123.325 82.8827 123.56 82.744C123.8 82.6053 124.091 82.536 124.432 82.536V83.288H124.24C123.424 83.288 123.016 83.7307 123.016 84.616V87H122.288V82.616H123.016V83.328Z" fill="#142A3D"/>
<path d="M26.552 35.384C26.552 36.0347 26.4027 36.632 26.104 37.176C25.8053 37.7093 25.3467 38.1413 24.728 38.472C24.1093 38.8027 23.3413 38.968 22.424 38.968H20.728V43H17.992V31.768H22.424C23.32 31.768 24.0773 31.9227 24.696 32.232C25.3147 32.5413 25.7787 32.968 26.088 33.512C26.3973 34.056 26.552 34.68 26.552 35.384ZM22.216 36.792C22.7387 36.792 23.128 36.6693 23.384 36.424C23.64 36.1787 23.768 35.832 23.768 35.384C23.768 34.936 23.64 34.5893 23.384 34.344C23.128 34.0987 22.7387 33.976 22.216 33.976H20.728V36.792H22.216ZM33.7044 43L31.3684 38.76H30.7124V43H27.9764V31.768H32.5684C33.4537 31.768 34.2057 31.9227 34.8244 32.232C35.4537 32.5413 35.923 32.968 36.2324 33.512C36.5417 34.0453 36.6964 34.6427 36.6964 35.304C36.6964 36.0507 36.483 36.7173 36.0564 37.304C35.6404 37.8907 35.0217 38.3067 34.2004 38.552L36.7924 43H33.7044ZM30.7124 36.824H32.4084C32.9097 36.824 33.283 36.7013 33.5284 36.456C33.7844 36.2107 33.9124 35.864 33.9124 35.416C33.9124 34.9893 33.7844 34.6533 33.5284 34.408C33.283 34.1627 32.9097 34.04 32.4084 34.04H30.7124V36.824ZM41.1499 33.96V36.232H44.8139V38.344H41.1499V40.808H45.2939V43H38.4139V31.768H45.2939V33.96H41.1499ZM59.7901 31.768V43H57.0541V36.264L54.5421 43H52.3341L49.8061 36.248V43H47.0701V31.768H50.3021L53.4541 39.544L56.5741 31.768H59.7901ZM64.4936 31.768V43H61.7576V31.768H64.4936ZM69.1644 31.768V38.488C69.1644 39.16 69.3297 39.6773 69.6604 40.04C69.991 40.4027 70.4764 40.584 71.1164 40.584C71.7564 40.584 72.247 40.4027 72.5884 40.04C72.9297 39.6773 73.1004 39.16 73.1004 38.488V31.768H75.8364V38.472C75.8364 39.4747 75.623 40.3227 75.1964 41.016C74.7697 41.7093 74.1937 42.232 73.4684 42.584C72.7537 42.936 71.9537 43.112 71.0684 43.112C70.183 43.112 69.3884 42.9413 68.6844 42.6C67.991 42.248 67.4417 41.7253 67.0364 41.032C66.631 40.328 66.4284 39.4747 66.4284 38.472V31.768H69.1644ZM90.4776 31.768V43H87.7416V36.264L85.2296 43H83.0216L80.4936 36.248V43H77.7576V31.768H80.9896L84.1416 39.544L87.2616 31.768H90.4776Z" fill="#142A3D"/>
<g filter="url(#filter0_ii_5324_12716)">
<rect x="99" y="28" width="64" height="17" rx="4" fill="url(#paint0_linear_5324_12716)"/>
<path opacity="0.96" d="M105.132 40.5V33.2273H108.044C108.579 33.2273 109.025 33.3066 109.383 33.4652C109.74 33.6238 110.009 33.844 110.189 34.1257C110.369 34.4051 110.459 34.727 110.459 35.0916C110.459 35.3757 110.402 35.6255 110.288 35.8409C110.175 36.054 110.018 36.2292 109.82 36.3665C109.623 36.5014 109.398 36.5973 109.145 36.6541V36.7251C109.422 36.737 109.681 36.8151 109.923 36.9595C110.166 37.1039 110.364 37.3063 110.516 37.5668C110.667 37.8248 110.743 38.1326 110.743 38.4901C110.743 38.8759 110.647 39.2204 110.455 39.5234C110.266 39.8241 109.985 40.062 109.614 40.2372C109.242 40.4124 108.784 40.5 108.239 40.5H105.132ZM106.67 39.2429H107.923C108.352 39.2429 108.664 39.1612 108.861 38.9979C109.057 38.8321 109.156 38.612 109.156 38.3374C109.156 38.1361 109.107 37.9586 109.01 37.8047C108.913 37.6508 108.774 37.5301 108.594 37.4425C108.417 37.3549 108.205 37.3111 107.959 37.3111H106.67V39.2429ZM106.67 36.2706H107.81C108.02 36.2706 108.207 36.2339 108.371 36.1605C108.536 36.0848 108.667 35.9782 108.761 35.8409C108.858 35.7036 108.907 35.5391 108.907 35.3473C108.907 35.0845 108.813 34.8726 108.626 34.7116C108.442 34.5507 108.179 34.4702 107.838 34.4702H106.67V36.2706ZM114.201 40.6065C113.64 40.6065 113.157 40.4929 112.752 40.2656C112.349 40.036 112.039 39.7116 111.822 39.2926C111.604 38.8712 111.495 38.3729 111.495 37.7976C111.495 37.2365 111.604 36.7441 111.822 36.3203C112.039 35.8965 112.346 35.5663 112.741 35.3295C113.139 35.0928 113.605 34.9744 114.14 34.9744C114.5 34.9744 114.835 35.0324 115.145 35.1484C115.458 35.2621 115.73 35.4337 115.962 35.6634C116.197 35.893 116.379 36.1818 116.509 36.5298C116.639 36.8755 116.704 37.2803 116.704 37.7443V38.1598H112.099V37.2223H115.28C115.28 37.0045 115.233 36.8116 115.138 36.6435C115.044 36.4754 114.912 36.344 114.744 36.2493C114.578 36.1522 114.385 36.1037 114.165 36.1037C113.936 36.1037 113.732 36.157 113.555 36.2635C113.379 36.3677 113.242 36.5085 113.143 36.6861C113.043 36.8613 112.992 37.0566 112.99 37.272V38.1634C112.99 38.4332 113.04 38.6664 113.139 38.8629C113.241 39.0594 113.384 39.2109 113.569 39.3175C113.753 39.424 113.972 39.4773 114.226 39.4773C114.394 39.4773 114.548 39.4536 114.687 39.4062C114.827 39.3589 114.947 39.2879 115.046 39.1932C115.145 39.0985 115.221 38.9825 115.273 38.8452L116.672 38.9375C116.601 39.2737 116.456 39.5672 116.236 39.8182C116.018 40.0668 115.736 40.2609 115.39 40.4006C115.047 40.5379 114.651 40.6065 114.201 40.6065ZM122.23 36.6009L120.845 36.6861C120.821 36.5677 120.77 36.4612 120.692 36.3665C120.614 36.2694 120.511 36.1925 120.383 36.1357C120.258 36.0765 120.108 36.0469 119.932 36.0469C119.698 36.0469 119.5 36.0966 119.339 36.196C119.178 36.2931 119.098 36.4233 119.098 36.5866C119.098 36.7169 119.15 36.8269 119.254 36.9169C119.358 37.0069 119.537 37.0791 119.79 37.1335L120.778 37.3324C121.308 37.4413 121.703 37.6165 121.964 37.858C122.224 38.0994 122.354 38.4167 122.354 38.8097C122.354 39.1671 122.249 39.4808 122.038 39.7507C121.83 40.0206 121.543 40.2313 121.179 40.3828C120.817 40.532 120.399 40.6065 119.925 40.6065C119.203 40.6065 118.628 40.4562 118.199 40.1555C117.773 39.8525 117.523 39.4406 117.45 38.9197L118.938 38.8416C118.983 39.0618 119.092 39.2299 119.265 39.3459C119.438 39.4595 119.659 39.5163 119.929 39.5163C120.194 39.5163 120.407 39.4654 120.568 39.3636C120.731 39.2595 120.814 39.1257 120.817 38.9624C120.814 38.825 120.756 38.7126 120.643 38.625C120.529 38.535 120.354 38.4664 120.117 38.419L119.172 38.2308C118.64 38.1243 118.243 37.9396 117.983 37.6768C117.725 37.4141 117.596 37.0791 117.596 36.6719C117.596 36.3215 117.69 36.0196 117.88 35.7663C118.072 35.513 118.34 35.3177 118.686 35.1804C119.034 35.0431 119.441 34.9744 119.907 34.9744C120.596 34.9744 121.139 35.12 121.534 35.4112C121.932 35.7024 122.164 36.099 122.23 36.6009ZM126.208 35.0455V36.1818H122.923V35.0455H126.208ZM123.669 33.7386H125.182V38.8239C125.182 38.9635 125.203 39.0724 125.246 39.1506C125.288 39.2263 125.348 39.2796 125.423 39.3104C125.501 39.3411 125.591 39.3565 125.693 39.3565C125.764 39.3565 125.835 39.3506 125.906 39.3388C125.977 39.3246 126.032 39.3139 126.07 39.3068L126.308 40.4325C126.232 40.4562 126.125 40.4834 125.988 40.5142C125.851 40.5473 125.684 40.5675 125.487 40.5746C125.123 40.5888 124.803 40.5402 124.528 40.429C124.256 40.3177 124.044 40.1449 123.893 39.9105C123.741 39.6761 123.667 39.3802 123.669 39.0227V33.7386ZM130.85 33.2273L132.608 38.7528H132.676L134.437 33.2273H136.142L133.634 40.5H131.653L129.142 33.2273H130.85ZM137.938 40.603C137.59 40.603 137.28 40.5426 137.008 40.4219C136.736 40.2988 136.52 40.1177 136.362 39.8786C136.205 39.6371 136.127 39.3364 136.127 38.9766C136.127 38.6735 136.183 38.419 136.294 38.2131C136.405 38.0071 136.557 37.8414 136.749 37.7159C136.941 37.5904 137.158 37.4957 137.402 37.4318C137.648 37.3679 137.906 37.3229 138.176 37.2969C138.494 37.2637 138.749 37.233 138.943 37.2045C139.137 37.1738 139.278 37.1288 139.366 37.0696C139.454 37.0104 139.497 36.9228 139.497 36.8068V36.7855C139.497 36.5606 139.426 36.3866 139.284 36.2635C139.145 36.1404 138.946 36.0788 138.688 36.0788C138.415 36.0788 138.199 36.1392 138.038 36.2599C137.877 36.3783 137.77 36.5275 137.718 36.7074L136.319 36.5938C136.39 36.2623 136.53 35.9759 136.738 35.7344C136.946 35.4905 137.215 35.3035 137.544 35.1733C137.876 35.0407 138.259 34.9744 138.695 34.9744C138.998 34.9744 139.288 35.0099 139.565 35.081C139.844 35.152 140.092 35.2621 140.307 35.4112C140.525 35.5604 140.696 35.7521 140.822 35.9865C140.947 36.2185 141.01 36.4967 141.01 36.821V40.5H139.575V39.7436H139.533C139.445 39.9141 139.328 40.0644 139.181 40.1946C139.035 40.3224 138.858 40.4231 138.652 40.4964C138.446 40.5675 138.208 40.603 137.938 40.603ZM138.372 39.5589C138.594 39.5589 138.791 39.5152 138.961 39.4276C139.132 39.3376 139.265 39.2169 139.362 39.0653C139.459 38.9138 139.508 38.7422 139.508 38.5504V37.9716C139.461 38.0024 139.396 38.0308 139.313 38.0568C139.232 38.0805 139.141 38.103 139.039 38.1243C138.937 38.1432 138.836 38.161 138.734 38.1776C138.632 38.1918 138.54 38.2048 138.457 38.2166C138.279 38.2427 138.124 38.2841 137.992 38.3409C137.859 38.3977 137.756 38.4747 137.683 38.5717C137.609 38.6664 137.573 38.7848 137.573 38.9268C137.573 39.1328 137.647 39.2902 137.796 39.3991C137.948 39.5057 138.14 39.5589 138.372 39.5589ZM143.697 33.2273V40.5H142.184V33.2273H143.697ZM148.406 38.1776V35.0455H149.919V40.5H148.467V39.5092H148.41C148.287 39.8288 148.082 40.0857 147.795 40.2798C147.511 40.474 147.165 40.571 146.755 40.571C146.39 40.571 146.07 40.4882 145.793 40.3224C145.516 40.1567 145.299 39.9212 145.143 39.6158C144.989 39.3104 144.911 38.9446 144.908 38.5185V35.0455H146.421V38.2486C146.424 38.5705 146.51 38.825 146.68 39.0121C146.851 39.1991 147.079 39.2926 147.366 39.2926C147.548 39.2926 147.719 39.2512 147.877 39.1683C148.036 39.0831 148.164 38.9576 148.261 38.7919C148.36 38.6262 148.409 38.4214 148.406 38.1776ZM153.615 40.6065C153.054 40.6065 152.571 40.4929 152.166 40.2656C151.764 40.036 151.453 39.7116 151.236 39.2926C151.018 38.8712 150.909 38.3729 150.909 37.7976C150.909 37.2365 151.018 36.7441 151.236 36.3203C151.453 35.8965 151.76 35.5663 152.155 35.3295C152.553 35.0928 153.019 34.9744 153.555 34.9744C153.914 34.9744 154.249 35.0324 154.559 35.1484C154.872 35.2621 155.144 35.4337 155.376 35.6634C155.611 35.893 155.793 36.1818 155.923 36.5298C156.053 36.8755 156.118 37.2803 156.118 37.7443V38.1598H151.513V37.2223H154.694C154.694 37.0045 154.647 36.8116 154.552 36.6435C154.458 36.4754 154.326 36.344 154.158 36.2493C153.992 36.1522 153.8 36.1037 153.579 36.1037C153.35 36.1037 153.146 36.157 152.969 36.2635C152.793 36.3677 152.656 36.5085 152.557 36.6861C152.457 36.8613 152.406 37.0566 152.404 37.272V38.1634C152.404 38.4332 152.454 38.6664 152.553 38.8629C152.655 39.0594 152.798 39.2109 152.983 39.3175C153.167 39.424 153.386 39.4773 153.64 39.4773C153.808 39.4773 153.962 39.4536 154.101 39.4062C154.241 39.3589 154.361 39.2879 154.46 39.1932C154.559 39.0985 154.635 38.9825 154.687 38.8452L156.086 38.9375C156.015 39.2737 155.87 39.5672 155.65 39.8182C155.432 40.0668 155.15 40.2609 154.805 40.4006C154.461 40.5379 154.065 40.6065 153.615 40.6065Z" fill="#272727"/>
</g>
<path d="M230.863 46.718V50.606C230.863 51.032 230.974 51.359 231.196 51.587C231.418 51.809 231.73 51.92 232.132 51.92C232.54 51.92 232.855 51.809 233.077 51.587C233.299 51.359 233.41 51.032 233.41 50.606V46.718H234.679V50.597C234.679 51.131 234.562 51.584 234.328 51.956C234.1 52.322 233.791 52.598 233.401 52.784C233.017 52.97 232.588 53.063 232.114 53.063C231.646 53.063 231.22 52.97 230.836 52.784C230.458 52.598 230.158 52.322 229.936 51.956C229.714 51.584 229.603 51.131 229.603 50.597V46.718H230.863ZM238.065 53.063C237.627 53.063 237.231 52.988 236.877 52.838C236.529 52.688 236.253 52.472 236.049 52.19C235.845 51.908 235.74 51.575 235.734 51.191H237.084C237.102 51.449 237.192 51.653 237.354 51.803C237.522 51.953 237.75 52.028 238.038 52.028C238.332 52.028 238.563 51.959 238.731 51.821C238.899 51.677 238.983 51.491 238.983 51.263C238.983 51.077 238.926 50.924 238.812 50.804C238.698 50.684 238.554 50.591 238.38 50.525C238.212 50.453 237.978 50.375 237.678 50.291C237.27 50.171 236.937 50.054 236.679 49.94C236.427 49.82 236.208 49.643 236.022 49.409C235.842 49.169 235.752 48.851 235.752 48.455C235.752 48.083 235.845 47.759 236.031 47.483C236.217 47.207 236.478 46.997 236.814 46.853C237.15 46.703 237.534 46.628 237.966 46.628C238.614 46.628 239.139 46.787 239.541 47.105C239.949 47.417 240.174 47.855 240.216 48.419H238.83C238.818 48.203 238.725 48.026 238.551 47.888C238.383 47.744 238.158 47.672 237.876 47.672C237.63 47.672 237.432 47.735 237.282 47.861C237.138 47.987 237.066 48.17 237.066 48.41C237.066 48.578 237.12 48.719 237.228 48.833C237.342 48.941 237.48 49.031 237.642 49.103C237.81 49.169 238.044 49.247 238.344 49.337C238.752 49.457 239.085 49.577 239.343 49.697C239.601 49.817 239.823 49.997 240.009 50.237C240.195 50.477 240.288 50.792 240.288 51.182C240.288 51.518 240.201 51.83 240.027 52.118C239.853 52.406 239.598 52.637 239.262 52.811C238.926 52.979 238.527 53.063 238.065 53.063ZM248.007 51.191C248.007 51.503 247.926 51.797 247.764 52.073C247.608 52.343 247.374 52.568 247.062 52.748C246.756 52.922 246.393 53.024 245.973 53.054V53.783H245.397V53.045C244.797 52.991 244.314 52.811 243.948 52.505C243.582 52.193 243.393 51.773 243.381 51.245H244.731C244.767 51.677 244.989 51.938 245.397 52.028V50.309C244.965 50.201 244.617 50.093 244.353 49.985C244.089 49.877 243.861 49.703 243.669 49.463C243.477 49.223 243.381 48.896 243.381 48.482C243.381 47.96 243.567 47.534 243.939 47.204C244.317 46.874 244.803 46.685 245.397 46.637V45.908H245.973V46.637C246.549 46.685 247.008 46.859 247.35 47.159C247.698 47.459 247.893 47.873 247.935 48.401H246.576C246.558 48.227 246.495 48.077 246.387 47.951C246.285 47.819 246.147 47.726 245.973 47.672V49.373C246.423 49.487 246.777 49.598 247.035 49.706C247.299 49.808 247.527 49.979 247.719 50.219C247.911 50.453 248.007 50.777 248.007 51.191ZM244.695 48.419C244.695 48.617 244.755 48.779 244.875 48.905C244.995 49.025 245.169 49.124 245.397 49.202V47.645C245.181 47.675 245.01 47.756 244.884 47.888C244.758 48.02 244.695 48.197 244.695 48.419ZM245.973 52.046C246.201 52.004 246.378 51.911 246.504 51.767C246.636 51.623 246.702 51.449 246.702 51.245C246.702 51.047 246.639 50.888 246.513 50.768C246.387 50.648 246.207 50.549 245.973 50.471V52.046Z" fill="#529DFF"/>
<path d="M259.286 59.292C259.506 60.4507 260.181 61.03 261.31 61.03C262.087 61.03 262.637 60.6853 262.96 59.996C263.283 59.3067 263.444 58.1847 263.444 56.63C263.121 57.0847 262.681 57.4367 262.124 57.686C261.567 57.9353 260.943 58.06 260.254 58.06C259.315 58.06 258.479 57.8693 257.746 57.488C257.013 57.092 256.433 56.5127 256.008 55.75C255.597 54.9727 255.392 54.034 255.392 52.934C255.392 51.8487 255.612 50.9027 256.052 50.096C256.507 49.2893 257.145 48.666 257.966 48.226C258.802 47.786 259.785 47.566 260.914 47.566C263.085 47.566 264.603 48.2407 265.468 49.59C266.333 50.9393 266.766 52.9267 266.766 55.552C266.766 57.4587 266.59 59.0353 266.238 60.282C265.901 61.514 265.321 62.4527 264.5 63.098C263.693 63.7433 262.586 64.066 261.178 64.066C260.063 64.066 259.11 63.846 258.318 63.406C257.541 62.966 256.939 62.3867 256.514 61.668C256.103 60.9493 255.869 60.1573 255.81 59.292H259.286ZM261.112 55.09C261.728 55.09 262.219 54.9067 262.586 54.54C262.953 54.1587 263.136 53.6453 263.136 53C263.136 52.296 262.945 51.7533 262.564 51.372C262.183 50.9907 261.669 50.8 261.024 50.8C260.379 50.8 259.865 50.998 259.484 51.394C259.117 51.7753 258.934 52.3033 258.934 52.978C258.934 53.6087 259.117 54.122 259.484 54.518C259.865 54.8993 260.408 55.09 261.112 55.09ZM272.161 59.292C272.381 60.4507 273.056 61.03 274.185 61.03C274.963 61.03 275.513 60.6853 275.835 59.996C276.158 59.3067 276.319 58.1847 276.319 56.63C275.997 57.0847 275.557 57.4367 274.999 57.686C274.442 57.9353 273.819 58.06 273.129 58.06C272.191 58.06 271.355 57.8693 270.621 57.488C269.888 57.092 269.309 56.5127 268.883 55.75C268.473 54.9727 268.267 54.034 268.267 52.934C268.267 51.8487 268.487 50.9027 268.927 50.096C269.382 49.2893 270.02 48.666 270.841 48.226C271.677 47.786 272.66 47.566 273.789 47.566C275.96 47.566 277.478 48.2407 278.343 49.59C279.209 50.9393 279.641 52.9267 279.641 55.552C279.641 57.4587 279.465 59.0353 279.113 60.282C278.776 61.514 278.197 62.4527 277.375 63.098C276.569 63.7433 275.461 64.066 274.053 64.066C272.939 64.066 271.985 63.846 271.193 63.406C270.416 62.966 269.815 62.3867 269.389 61.668C268.979 60.9493 268.744 60.1573 268.685 59.292H272.161ZM273.987 55.09C274.603 55.09 275.095 54.9067 275.461 54.54C275.828 54.1587 276.011 53.6453 276.011 53C276.011 52.296 275.821 51.7533 275.439 51.372C275.058 50.9907 274.545 50.8 273.899 50.8C273.254 50.8 272.741 50.998 272.359 51.394C271.993 51.7753 271.809 52.3033 271.809 52.978C271.809 53.6087 271.993 54.122 272.359 54.518C272.741 54.8993 273.283 55.09 273.987 55.09Z" fill="#529DFF"/>
<path d="M289.17 51.58L286.43 62.7H285.53L288.26 51.58H289.17ZM299.782 55.42C300.209 55.42 300.589 55.51 300.922 55.69C301.255 55.8633 301.519 56.1267 301.712 56.48C301.905 56.8333 302.002 57.2633 302.002 57.77V61H301.102V57.9C301.102 57.3533 300.965 56.9367 300.692 56.65C300.425 56.3567 300.062 56.21 299.602 56.21C299.129 56.21 298.752 56.3633 298.472 56.67C298.192 56.97 298.052 57.4067 298.052 57.98V61H297.152V57.9C297.152 57.3533 297.015 56.9367 296.742 56.65C296.475 56.3567 296.112 56.21 295.652 56.21C295.179 56.21 294.802 56.3633 294.522 56.67C294.242 56.97 294.102 57.4067 294.102 57.98V61H293.192V55.52H294.102V56.31C294.282 56.0233 294.522 55.8033 294.822 55.65C295.129 55.4967 295.465 55.42 295.832 55.42C296.292 55.42 296.699 55.5233 297.052 55.73C297.405 55.9367 297.669 56.24 297.842 56.64C297.995 56.2533 298.249 55.9533 298.602 55.74C298.955 55.5267 299.349 55.42 299.782 55.42ZM305.885 61.09C305.371 61.09 304.905 60.9733 304.485 60.74C304.071 60.5067 303.745 60.1767 303.505 59.75C303.271 59.3167 303.155 58.8167 303.155 58.25C303.155 57.69 303.275 57.1967 303.515 56.77C303.761 56.3367 304.095 56.0067 304.515 55.78C304.935 55.5467 305.405 55.43 305.925 55.43C306.445 55.43 306.915 55.5467 307.335 55.78C307.755 56.0067 308.085 56.3333 308.325 56.76C308.571 57.1867 308.695 57.6833 308.695 58.25C308.695 58.8167 308.568 59.3167 308.315 59.75C308.068 60.1767 307.731 60.5067 307.305 60.74C306.878 60.9733 306.405 61.09 305.885 61.09ZM305.885 60.29C306.211 60.29 306.518 60.2133 306.805 60.06C307.091 59.9067 307.321 59.6767 307.495 59.37C307.675 59.0633 307.765 58.69 307.765 58.25C307.765 57.81 307.678 57.4367 307.505 57.13C307.331 56.8233 307.105 56.5967 306.825 56.45C306.545 56.2967 306.241 56.22 305.915 56.22C305.581 56.22 305.275 56.2967 304.995 56.45C304.721 56.5967 304.501 56.8233 304.335 57.13C304.168 57.4367 304.085 57.81 304.085 58.25C304.085 58.6967 304.165 59.0733 304.325 59.38C304.491 59.6867 304.711 59.9167 304.985 60.07C305.258 60.2167 305.558 60.29 305.885 60.29ZM312.561 55.42C313.228 55.42 313.768 55.6233 314.181 56.03C314.594 56.43 314.801 57.01 314.801 57.77V61H313.901V57.9C313.901 57.3533 313.764 56.9367 313.491 56.65C313.218 56.3567 312.844 56.21 312.371 56.21C311.891 56.21 311.508 56.36 311.221 56.66C310.941 56.96 310.801 57.3967 310.801 57.97V61H309.891V55.52H310.801V56.3C310.981 56.02 311.224 55.8033 311.531 55.65C311.844 55.4967 312.188 55.42 312.561 55.42ZM317.398 56.27V59.5C317.398 59.7667 317.454 59.9567 317.568 60.07C317.681 60.1767 317.878 60.23 318.158 60.23H318.828V61H318.008C317.501 61 317.121 60.8833 316.868 60.65C316.614 60.4167 316.488 60.0333 316.488 59.5V56.27H315.778V55.52H316.488V54.14H317.398V55.52H318.828V56.27H317.398ZM322.65 55.42C323.063 55.42 323.437 55.51 323.77 55.69C324.103 55.8633 324.363 56.1267 324.55 56.48C324.743 56.8333 324.84 57.2633 324.84 57.77V61H323.94V57.9C323.94 57.3533 323.803 56.9367 323.53 56.65C323.257 56.3567 322.883 56.21 322.41 56.21C321.93 56.21 321.547 56.36 321.26 56.66C320.98 56.96 320.84 57.3967 320.84 57.97V61H319.93V53.6H320.84V56.3C321.02 56.02 321.267 55.8033 321.58 55.65C321.9 55.4967 322.257 55.42 322.65 55.42ZM327.237 53.6V61H326.327V53.6H327.237ZM333.508 55.52L330.208 63.58H329.268L330.348 60.94L328.138 55.52H329.148L330.868 59.96L332.568 55.52H333.508Z" fill="#529DFF"/>
<defs>
<filter id="filter0_ii_5324_12716" x="99" y="26" width="64" height="33" filterUnits="userSpaceOnUse" color-interpolation-filters="sRGB">
<feFlood flood-opacity="0" result="BackgroundImageFix"/>
<feBlend mode="normal" in="SourceGraphic" in2="BackgroundImageFix" result="shape"/>
<feColorMatrix in="SourceAlpha" type="matrix" values="0 0 0 0 0 0 0 0 0 0 0 0 0 0 0 0 0 0 127 0" result="hardAlpha"/>
<feOffset dy="14"/>
<feGaussianBlur stdDeviation="7"/>
<feComposite in2="hardAlpha" operator="arithmetic" k2="-1" k3="1"/>
<feColorMatrix type="matrix" values="0 0 0 0 1 0 0 0 0 0.980392 0 0 0 0 0.811765 0 0 0 0.73 0"/>
<feBlend mode="normal" in2="shape" result="effect1_innerShadow_5324_12716"/>
<feColorMatrix in="SourceAlpha" type="matrix" values="0 0 0 0 0 0 0 0 0 0 0 0 0 0 0 0 0 0 127 0" result="hardAlpha"/>
<feOffset dy="-2"/>
<feGaussianBlur stdDeviation="10.5"/>
<feComposite in2="hardAlpha" operator="arithmetic" k2="-1" k3="1"/>
<feColorMatrix type="matrix" values="0 0 0 0 0.54902 0 0 0 0 0.305882 0 0 0 0 0.0784314 0 0 0 0.25 0"/>
<feBlend mode="normal" in2="effect1_innerShadow_5324_12716" result="effect2_innerShadow_5324_12716"/>
</filter>
<linearGradient id="paint0_linear_5324_12716" x1="116.013" y1="28" x2="159.179" y2="54.6002" gradientUnits="userSpaceOnUse">
<stop stop-color="#FFED8C"/>
<stop offset="1" stop-color="#F4B335"/>
</linearGradient>
</defs>
</svg>
