<svg width="715" height="134" viewBox="0 0 715 134" fill="none" xmlns="http://www.w3.org/2000/svg">
<rect width="715" height="134" fill="#FAFAFA" fill-opacity="0.21"/>
<rect x="0.5" y="0.5" width="714" height="133" stroke="#A3A2A2" stroke-opacity="0.4"/>
<path d="M538.898 55.0717V61.1197C538.898 61.7824 539.071 62.2911 539.416 62.6457C539.761 62.9911 540.247 63.1637 540.872 63.1637C541.507 63.1637 541.997 62.9911 542.342 62.6457C542.687 62.2911 542.86 61.7824 542.86 61.1197V55.0717H544.834V61.1057C544.834 61.9364 544.652 62.6411 544.288 63.2197C543.933 63.7891 543.453 64.2184 542.846 64.5077C542.249 64.7971 541.581 64.9418 540.844 64.9418C540.116 64.9418 539.453 64.7971 538.856 64.5077C538.268 64.2184 537.801 63.7891 537.456 63.2197C537.111 62.6411 536.938 61.9364 536.938 61.1057V55.0717H538.898ZM550.102 64.9418C549.42 64.9418 548.804 64.8251 548.254 64.5917C547.712 64.3584 547.283 64.0224 546.966 63.5837C546.648 63.1451 546.485 62.6271 546.476 62.0297H548.576C548.604 62.4311 548.744 62.7484 548.996 62.9817C549.257 63.2151 549.612 63.3317 550.06 63.3317C550.517 63.3317 550.876 63.2244 551.138 63.0097C551.399 62.7857 551.53 62.4964 551.53 62.1417C551.53 61.8524 551.441 61.6144 551.264 61.4277C551.086 61.2411 550.862 61.0964 550.592 60.9937C550.33 60.8817 549.966 60.7604 549.5 60.6297C548.865 60.4431 548.347 60.2611 547.946 60.0837C547.554 59.8971 547.213 59.6217 546.924 59.2577C546.644 58.8844 546.504 58.3897 546.504 57.7738C546.504 57.1951 546.648 56.6911 546.938 56.2617C547.227 55.8324 547.633 55.5057 548.156 55.2817C548.678 55.0484 549.276 54.9317 549.948 54.9317C550.956 54.9317 551.772 55.1791 552.398 55.6737C553.032 56.1591 553.382 56.8404 553.448 57.7177H551.292C551.273 57.3817 551.128 57.1064 550.858 56.8917C550.596 56.6677 550.246 56.5557 549.808 56.5557C549.425 56.5557 549.117 56.6537 548.884 56.8497C548.66 57.0457 548.548 57.3304 548.548 57.7037C548.548 57.9651 548.632 58.1844 548.8 58.3617C548.977 58.5297 549.192 58.6697 549.444 58.7817C549.705 58.8844 550.069 59.0057 550.536 59.1457C551.17 59.3324 551.688 59.5191 552.09 59.7057C552.491 59.8924 552.836 60.1724 553.126 60.5457C553.415 60.9191 553.56 61.4091 553.56 62.0157C553.56 62.5384 553.424 63.0237 553.154 63.4717C552.883 63.9197 552.486 64.2791 551.964 64.5497C551.441 64.8111 550.82 64.9418 550.102 64.9418ZM565.567 62.0297C565.567 62.5151 565.441 62.9724 565.189 63.4017C564.946 63.8217 564.582 64.1717 564.097 64.4517C563.621 64.7224 563.056 64.8811 562.403 64.9278V66.0618H561.507V64.9138C560.574 64.8297 559.822 64.5497 559.253 64.0737C558.684 63.5884 558.39 62.9351 558.371 62.1137H560.471C560.527 62.7857 560.872 63.1917 561.507 63.3317V60.6577C560.835 60.4897 560.294 60.3217 559.883 60.1537C559.472 59.9857 559.118 59.7151 558.819 59.3417C558.52 58.9684 558.371 58.4597 558.371 57.8157C558.371 57.0037 558.66 56.3411 559.239 55.8277C559.827 55.3144 560.583 55.0204 561.507 54.9457V53.8117H562.403V54.9457C563.299 55.0204 564.013 55.2911 564.545 55.7577C565.086 56.2244 565.39 56.8684 565.455 57.6897H563.341C563.313 57.4191 563.215 57.1857 563.047 56.9897C562.888 56.7844 562.674 56.6397 562.403 56.5557V59.2017C563.103 59.3791 563.654 59.5517 564.055 59.7197C564.466 59.8784 564.82 60.1444 565.119 60.5177C565.418 60.8817 565.567 61.3857 565.567 62.0297ZM560.415 57.7177C560.415 58.0257 560.508 58.2777 560.695 58.4737C560.882 58.6604 561.152 58.8144 561.507 58.9357V56.5137C561.171 56.5604 560.905 56.6864 560.709 56.8917C560.513 57.0971 560.415 57.3724 560.415 57.7177ZM562.403 63.3597C562.758 63.2944 563.033 63.1497 563.229 62.9257C563.434 62.7017 563.537 62.4311 563.537 62.1137C563.537 61.8057 563.439 61.5584 563.243 61.3717C563.047 61.1851 562.767 61.0311 562.403 60.9097V63.3597Z" fill="#529DFF"/>
<path d="M580.328 72.152C580.648 73.8373 581.629 74.68 583.272 74.68C584.403 74.68 585.203 74.1787 585.672 73.176C586.141 72.1733 586.376 70.5413 586.376 68.28C585.907 68.9413 585.267 69.4533 584.456 69.816C583.645 70.1787 582.739 70.36 581.736 70.36C580.371 70.36 579.155 70.0827 578.088 69.528C577.021 68.952 576.179 68.1093 575.56 67C574.963 65.8693 574.664 64.504 574.664 62.904C574.664 61.3253 574.984 59.9493 575.624 58.776C576.285 57.6027 577.213 56.696 578.408 56.056C579.624 55.416 581.053 55.096 582.696 55.096C585.853 55.096 588.061 56.0773 589.32 58.04C590.579 60.0027 591.208 62.8933 591.208 66.712C591.208 69.4853 590.952 71.7787 590.44 73.592C589.949 75.384 589.107 76.7493 587.912 77.688C586.739 78.6267 585.128 79.096 583.08 79.096C581.459 79.096 580.072 78.776 578.92 78.136C577.789 77.496 576.915 76.6533 576.296 75.608C575.699 74.5627 575.357 73.4107 575.272 72.152H580.328ZM582.984 66.04C583.88 66.04 584.595 65.7733 585.128 65.24C585.661 64.6853 585.928 63.9387 585.928 63C585.928 61.976 585.651 61.1867 585.096 60.632C584.541 60.0773 583.795 59.8 582.856 59.8C581.917 59.8 581.171 60.088 580.616 60.664C580.083 61.2187 579.816 61.9867 579.816 62.968C579.816 63.8853 580.083 64.632 580.616 65.208C581.171 65.7627 581.96 66.04 582.984 66.04ZM599.056 72.152C599.376 73.8373 600.357 74.68 602 74.68C603.13 74.68 603.93 74.1787 604.4 73.176C604.869 72.1733 605.104 70.5413 605.104 68.28C604.634 68.9413 603.994 69.4533 603.184 69.816C602.373 70.1787 601.466 70.36 600.464 70.36C599.098 70.36 597.882 70.0827 596.816 69.528C595.749 68.952 594.906 68.1093 594.288 67C593.69 65.8693 593.392 64.504 593.392 62.904C593.392 61.3253 593.712 59.9493 594.352 58.776C595.013 57.6027 595.941 56.696 597.136 56.056C598.352 55.416 599.781 55.096 601.424 55.096C604.581 55.096 606.789 56.0773 608.048 58.04C609.306 60.0027 609.936 62.8933 609.936 66.712C609.936 69.4853 609.68 71.7787 609.168 73.592C608.677 75.384 607.834 76.7493 606.64 77.688C605.466 78.6267 603.856 79.096 601.808 79.096C600.186 79.096 598.8 78.776 597.648 78.136C596.517 77.496 595.642 76.6533 595.024 75.608C594.426 74.5627 594.085 73.4107 594 72.152H599.056ZM601.712 66.04C602.608 66.04 603.322 65.7733 603.856 65.24C604.389 64.6853 604.656 63.9387 604.656 63C604.656 61.976 604.378 61.1867 603.824 60.632C603.269 60.0773 602.522 59.8 601.584 59.8C600.645 59.8 599.898 60.088 599.344 60.664C598.81 61.2187 598.544 61.9867 598.544 62.968C598.544 63.8853 598.81 64.632 599.344 65.208C599.898 65.7627 600.688 66.04 601.712 66.04Z" fill="#529DFF"/>
<path d="M620.609 66.2233L617.321 79.5673H616.241L619.517 66.2233H620.609ZM633.344 70.8313C633.856 70.8313 634.312 70.9393 634.712 71.1553C635.112 71.3633 635.428 71.6793 635.66 72.1033C635.892 72.5273 636.008 73.0433 636.008 73.6513V77.5273H634.928V73.8073C634.928 73.1513 634.764 72.6513 634.436 72.3073C634.116 71.9553 633.68 71.7793 633.128 71.7793C632.56 71.7793 632.108 71.9633 631.772 72.3313C631.436 72.6913 631.268 73.2153 631.268 73.9033V77.5273H630.188V73.8073C630.188 73.1513 630.024 72.6513 629.696 72.3073C629.376 71.9553 628.94 71.7793 628.388 71.7793C627.82 71.7793 627.368 71.9633 627.032 72.3313C626.696 72.6913 626.528 73.2153 626.528 73.9033V77.5273H625.436V70.9513H626.528V71.8993C626.744 71.5553 627.032 71.2913 627.392 71.1073C627.76 70.9233 628.164 70.8313 628.604 70.8313C629.156 70.8313 629.644 70.9553 630.068 71.2033C630.492 71.4513 630.808 71.8153 631.016 72.2953C631.2 71.8313 631.504 71.4713 631.928 71.2153C632.352 70.9593 632.824 70.8313 633.344 70.8313ZM640.667 77.6353C640.051 77.6353 639.491 77.4953 638.987 77.2153C638.491 76.9353 638.099 76.5393 637.811 76.0273C637.531 75.5073 637.391 74.9073 637.391 74.2273C637.391 73.5553 637.535 72.9633 637.823 72.4513C638.119 71.9313 638.519 71.5353 639.023 71.2633C639.527 70.9833 640.091 70.8433 640.715 70.8433C641.339 70.8433 641.903 70.9833 642.407 71.2633C642.911 71.5353 643.307 71.9273 643.595 72.4393C643.891 72.9513 644.039 73.5473 644.039 74.2273C644.039 74.9073 643.887 75.5073 643.583 76.0273C643.287 76.5393 642.883 76.9353 642.371 77.2153C641.859 77.4953 641.291 77.6353 640.667 77.6353ZM640.667 76.6753C641.059 76.6753 641.427 76.5833 641.771 76.3993C642.115 76.2153 642.391 75.9393 642.599 75.5713C642.815 75.2033 642.923 74.7553 642.923 74.2273C642.923 73.6993 642.819 73.2513 642.611 72.8833C642.403 72.5153 642.131 72.2433 641.795 72.0673C641.459 71.8833 641.095 71.7913 640.703 71.7913C640.303 71.7913 639.935 71.8833 639.599 72.0673C639.271 72.2433 639.007 72.5153 638.807 72.8833C638.607 73.2513 638.507 73.6993 638.507 74.2273C638.507 74.7633 638.603 75.2153 638.795 75.5833C638.995 75.9513 639.259 76.2273 639.587 76.4113C639.915 76.5873 640.275 76.6753 640.667 76.6753ZM648.679 70.8313C649.479 70.8313 650.127 71.0753 650.623 71.5633C651.119 72.0433 651.367 72.7393 651.367 73.6513V77.5273H650.287V73.8073C650.287 73.1513 650.123 72.6513 649.795 72.3073C649.467 71.9553 649.019 71.7793 648.451 71.7793C647.875 71.7793 647.415 71.9593 647.071 72.3193C646.735 72.6793 646.567 73.2033 646.567 73.8913V77.5273H645.475V70.9513H646.567V71.8873C646.783 71.5513 647.075 71.2913 647.443 71.1073C647.819 70.9233 648.231 70.8313 648.679 70.8313ZM654.483 71.8513V75.7273C654.483 76.0473 654.551 76.2753 654.687 76.4113C654.823 76.5393 655.059 76.6033 655.395 76.6033H656.199V77.5273H655.215C654.607 77.5273 654.151 77.3873 653.847 77.1073C653.543 76.8273 653.391 76.3673 653.391 75.7273V71.8513H652.539V70.9513H653.391V69.2953H654.483V70.9513H656.199V71.8513H654.483ZM660.786 70.8313C661.282 70.8313 661.73 70.9393 662.13 71.1553C662.53 71.3633 662.842 71.6793 663.066 72.1033C663.298 72.5273 663.414 73.0433 663.414 73.6513V77.5273H662.334V73.8073C662.334 73.1513 662.17 72.6513 661.842 72.3073C661.514 71.9553 661.066 71.7793 660.498 71.7793C659.922 71.7793 659.462 71.9593 659.118 72.3193C658.782 72.6793 658.614 73.2033 658.614 73.8913V77.5273H657.522V68.6473H658.614V71.8873C658.83 71.5513 659.126 71.2913 659.502 71.1073C659.886 70.9233 660.314 70.8313 660.786 70.8313ZM666.289 68.6473V77.5273H665.197V68.6473H666.289ZM673.815 70.9513L669.855 80.6233H668.727L670.023 77.4553L667.371 70.9513H668.583L670.647 76.2793L672.687 70.9513H673.815Z" fill="#529DFF"/>
<path d="M61.3306 56.2716V57.3816H56.7856V60.9066H60.4756V62.0166H56.7856V66.7266H55.4206V56.2716H61.3306ZM63.6842 57.1716C63.4242 57.1716 63.2042 57.0816 63.0242 56.9016C62.8442 56.7216 62.7542 56.5016 62.7542 56.2416C62.7542 55.9816 62.8442 55.7616 63.0242 55.5816C63.2042 55.4016 63.4242 55.3116 63.6842 55.3116C63.9342 55.3116 64.1442 55.4016 64.3142 55.5816C64.4942 55.7616 64.5842 55.9816 64.5842 56.2416C64.5842 56.5016 64.4942 56.7216 64.3142 56.9016C64.1442 57.0816 63.9342 57.1716 63.6842 57.1716ZM64.3442 58.5066V66.7266H62.9792V58.5066H64.3442ZM68.3356 59.6316V64.4766C68.3356 64.8766 68.4206 65.1616 68.5906 65.3316C68.7606 65.4916 69.0556 65.5716 69.4756 65.5716H70.4806V66.7266H69.2506C68.4906 66.7266 67.9206 66.5516 67.5406 66.2016C67.1606 65.8516 66.9706 65.2766 66.9706 64.4766V59.6316H65.9056V58.5066H66.9706V56.4366H68.3356V58.5066H70.4806V59.6316H68.3356ZM76.1395 58.3566C77.1395 58.3566 77.9495 58.6616 78.5695 59.2716C79.1895 59.8716 79.4995 60.7416 79.4995 61.8816V66.7266H78.1495V62.0766C78.1495 61.2566 77.9445 60.6316 77.5345 60.2016C77.1245 59.7616 76.5645 59.5416 75.8545 59.5416C75.1345 59.5416 74.5595 59.7666 74.1295 60.2166C73.7095 60.6666 73.4995 61.3216 73.4995 62.1816V66.7266H72.1345V58.5066H73.4995V59.6766C73.7695 59.2566 74.1345 58.9316 74.5945 58.7016C75.0645 58.4716 75.5795 58.3566 76.1395 58.3566ZM89.2292 62.3016C89.2292 62.5616 89.2142 62.8366 89.1842 63.1266H82.6142C82.6642 63.9366 82.9392 64.5716 83.4392 65.0316C83.9492 65.4816 84.5642 65.7066 85.2842 65.7066C85.8742 65.7066 86.3642 65.5716 86.7542 65.3016C87.1542 65.0216 87.4342 64.6516 87.5942 64.1916H89.0642C88.8442 64.9816 88.4042 65.6266 87.7442 66.1266C87.0842 66.6166 86.2642 66.8616 85.2842 66.8616C84.5042 66.8616 83.8042 66.6866 83.1842 66.3366C82.5742 65.9866 82.0942 65.4916 81.7442 64.8516C81.3942 64.2016 81.2192 63.4516 81.2192 62.6016C81.2192 61.7516 81.3892 61.0066 81.7292 60.3666C82.0692 59.7266 82.5442 59.2366 83.1542 58.8966C83.7742 58.5466 84.4842 58.3716 85.2842 58.3716C86.0642 58.3716 86.7542 58.5416 87.3542 58.8816C87.9542 59.2216 88.4142 59.6916 88.7342 60.2916C89.0642 60.8816 89.2292 61.5516 89.2292 62.3016ZM87.8192 62.0166C87.8192 61.4966 87.7042 61.0516 87.4742 60.6816C87.2442 60.3016 86.9292 60.0166 86.5292 59.8266C86.1392 59.6266 85.7042 59.5266 85.2242 59.5266C84.5342 59.5266 83.9442 59.7466 83.4542 60.1866C82.9742 60.6266 82.6992 61.2366 82.6292 62.0166H87.8192ZM93.941 66.8616C93.311 66.8616 92.746 66.7566 92.246 66.5466C91.746 66.3266 91.351 66.0266 91.061 65.6466C90.771 65.2566 90.611 64.8116 90.581 64.3116H91.991C92.031 64.7216 92.221 65.0566 92.561 65.3166C92.911 65.5766 93.366 65.7066 93.926 65.7066C94.446 65.7066 94.856 65.5916 95.156 65.3616C95.456 65.1316 95.606 64.8416 95.606 64.4916C95.606 64.1316 95.446 63.8666 95.126 63.6966C94.806 63.5166 94.311 63.3416 93.641 63.1716C93.031 63.0116 92.531 62.8516 92.141 62.6916C91.761 62.5216 91.431 62.2766 91.151 61.9566C90.881 61.6266 90.746 61.1966 90.746 60.6666C90.746 60.2466 90.871 59.8616 91.121 59.5116C91.371 59.1616 91.726 58.8866 92.186 58.6866C92.646 58.4766 93.171 58.3716 93.761 58.3716C94.671 58.3716 95.406 58.6016 95.966 59.0616C96.526 59.5216 96.826 60.1516 96.866 60.9516H95.501C95.471 60.5216 95.296 60.1766 94.976 59.9166C94.666 59.6566 94.246 59.5266 93.716 59.5266C93.226 59.5266 92.836 59.6316 92.546 59.8416C92.256 60.0516 92.111 60.3266 92.111 60.6666C92.111 60.9366 92.196 61.1616 92.366 61.3416C92.546 61.5116 92.766 61.6516 93.026 61.7616C93.296 61.8616 93.666 61.9766 94.136 62.1066C94.726 62.2666 95.206 62.4266 95.576 62.5866C95.946 62.7366 96.261 62.9666 96.521 63.2766C96.791 63.5866 96.931 63.9916 96.941 64.4916C96.941 64.9416 96.816 65.3466 96.566 65.7066C96.316 66.0666 95.961 66.3516 95.501 66.5616C95.051 66.7616 94.531 66.8616 93.941 66.8616ZM101.778 66.8616C101.148 66.8616 100.583 66.7566 100.083 66.5466C99.5829 66.3266 99.1879 66.0266 98.8979 65.6466C98.6079 65.2566 98.4479 64.8116 98.4179 64.3116H99.8279C99.8679 64.7216 100.058 65.0566 100.398 65.3166C100.748 65.5766 101.203 65.7066 101.763 65.7066C102.283 65.7066 102.693 65.5916 102.993 65.3616C103.293 65.1316 103.443 64.8416 103.443 64.4916C103.443 64.1316 103.283 63.8666 102.963 63.6966C102.643 63.5166 102.148 63.3416 101.478 63.1716C100.868 63.0116 100.368 62.8516 99.9779 62.6916C99.5979 62.5216 99.2679 62.2766 98.9879 61.9566C98.7179 61.6266 98.5829 61.1966 98.5829 60.6666C98.5829 60.2466 98.7079 59.8616 98.9579 59.5116C99.2079 59.1616 99.5629 58.8866 100.023 58.6866C100.483 58.4766 101.008 58.3716 101.598 58.3716C102.508 58.3716 103.243 58.6016 103.803 59.0616C104.363 59.5216 104.663 60.1516 104.703 60.9516H103.338C103.308 60.5216 103.133 60.1766 102.813 59.9166C102.503 59.6566 102.083 59.5266 101.553 59.5266C101.063 59.5266 100.673 59.6316 100.383 59.8416C100.093 60.0516 99.9479 60.3266 99.9479 60.6666C99.9479 60.9366 100.033 61.1616 100.203 61.3416C100.383 61.5116 100.603 61.6516 100.863 61.7616C101.133 61.8616 101.503 61.9766 101.973 62.1066C102.563 62.2666 103.043 62.4266 103.413 62.5866C103.783 62.7366 104.098 62.9666 104.358 63.2766C104.628 63.5866 104.768 63.9916 104.778 64.4916C104.778 64.9416 104.653 65.3466 104.403 65.7066C104.153 66.0666 103.798 66.3516 103.338 66.5616C102.888 66.7616 102.368 66.8616 101.778 66.8616ZM118.729 66.7266L117.364 65.3466C116.854 65.8766 116.309 66.2716 115.729 66.5316C115.149 66.7816 114.494 66.9066 113.764 66.9066C113.044 66.9066 112.404 66.7766 111.844 66.5166C111.294 66.2566 110.864 65.8866 110.554 65.4066C110.254 64.9266 110.104 64.3666 110.104 63.7266C110.104 62.9966 110.309 62.3566 110.719 61.8066C111.139 61.2466 111.754 60.8066 112.564 60.4866C112.244 60.1066 112.014 59.7566 111.874 59.4366C111.734 59.1166 111.664 58.7666 111.664 58.3866C111.664 57.9466 111.774 57.5516 111.994 57.2016C112.224 56.8416 112.549 56.5616 112.969 56.3616C113.389 56.1616 113.874 56.0616 114.424 56.0616C114.964 56.0616 115.434 56.1666 115.834 56.3766C116.234 56.5866 116.534 56.8816 116.734 57.2616C116.934 57.6316 117.024 58.0466 117.004 58.5066H115.639C115.649 58.0966 115.534 57.7766 115.294 57.5466C115.054 57.3066 114.744 57.1866 114.364 57.1866C113.964 57.1866 113.639 57.3016 113.389 57.5316C113.149 57.7516 113.029 58.0366 113.029 58.3866C113.029 58.6866 113.109 58.9766 113.269 59.2566C113.439 59.5366 113.719 59.8816 114.109 60.2916L117.229 63.4266L117.499 63.0066L118.519 61.2966H119.989L118.759 63.4266C118.589 63.7266 118.389 64.0416 118.159 64.3716L120.514 66.7266H118.729ZM113.764 65.7366C114.304 65.7366 114.789 65.6316 115.219 65.4216C115.659 65.2116 116.074 64.8866 116.464 64.4466L113.389 61.3566C112.109 61.8466 111.469 62.6216 111.469 63.6816C111.469 64.2716 111.679 64.7616 112.099 65.1516C112.529 65.5416 113.084 65.7366 113.764 65.7366ZM138.932 56.2716L135.902 66.7266H134.372L131.942 58.3116L129.422 66.7266L127.907 66.7416L124.982 56.2716H126.437L128.717 65.1366L131.237 56.2716H132.767L135.167 65.1066L137.462 56.2716H138.932ZM147.926 62.3016C147.926 62.5616 147.911 62.8366 147.881 63.1266H141.311C141.361 63.9366 141.636 64.5716 142.136 65.0316C142.646 65.4816 143.261 65.7066 143.981 65.7066C144.571 65.7066 145.061 65.5716 145.451 65.3016C145.851 65.0216 146.131 64.6516 146.291 64.1916H147.761C147.541 64.9816 147.101 65.6266 146.441 66.1266C145.781 66.6166 144.961 66.8616 143.981 66.8616C143.201 66.8616 142.501 66.6866 141.881 66.3366C141.271 65.9866 140.791 65.4916 140.441 64.8516C140.091 64.2016 139.916 63.4516 139.916 62.6016C139.916 61.7516 140.086 61.0066 140.426 60.3666C140.766 59.7266 141.241 59.2366 141.851 58.8966C142.471 58.5466 143.181 58.3716 143.981 58.3716C144.761 58.3716 145.451 58.5416 146.051 58.8816C146.651 59.2216 147.111 59.6916 147.431 60.2916C147.761 60.8816 147.926 61.5516 147.926 62.3016ZM146.516 62.0166C146.516 61.4966 146.401 61.0516 146.171 60.6816C145.941 60.3016 145.626 60.0166 145.226 59.8266C144.836 59.6266 144.401 59.5266 143.921 59.5266C143.231 59.5266 142.641 59.7466 142.151 60.1866C141.671 60.6266 141.396 61.2366 141.326 62.0166H146.516ZM151.092 55.6266V66.7266H149.727V55.6266H151.092ZM154.784 55.6266V66.7266H153.419V55.6266H154.784ZM161.115 58.3566C162.115 58.3566 162.925 58.6616 163.545 59.2716C164.165 59.8716 164.475 60.7416 164.475 61.8816V66.7266H163.125V62.0766C163.125 61.2566 162.92 60.6316 162.51 60.2016C162.1 59.7616 161.54 59.5416 160.83 59.5416C160.11 59.5416 159.535 59.7666 159.105 60.2166C158.685 60.6666 158.475 61.3216 158.475 62.1816V66.7266H157.11V58.5066H158.475V59.6766C158.745 59.2566 159.11 58.9316 159.57 58.7016C160.04 58.4716 160.555 58.3566 161.115 58.3566ZM174.205 62.3016C174.205 62.5616 174.19 62.8366 174.16 63.1266H167.59C167.64 63.9366 167.915 64.5716 168.415 65.0316C168.925 65.4816 169.54 65.7066 170.26 65.7066C170.85 65.7066 171.34 65.5716 171.73 65.3016C172.13 65.0216 172.41 64.6516 172.57 64.1916H174.04C173.82 64.9816 173.38 65.6266 172.72 66.1266C172.06 66.6166 171.24 66.8616 170.26 66.8616C169.48 66.8616 168.78 66.6866 168.16 66.3366C167.55 65.9866 167.07 65.4916 166.72 64.8516C166.37 64.2016 166.195 63.4516 166.195 62.6016C166.195 61.7516 166.365 61.0066 166.705 60.3666C167.045 59.7266 167.52 59.2366 168.13 58.8966C168.75 58.5466 169.46 58.3716 170.26 58.3716C171.04 58.3716 171.73 58.5416 172.33 58.8816C172.93 59.2216 173.39 59.6916 173.71 60.2916C174.04 60.8816 174.205 61.5516 174.205 62.3016ZM172.795 62.0166C172.795 61.4966 172.68 61.0516 172.45 60.6816C172.22 60.3016 171.905 60.0166 171.505 59.8266C171.115 59.6266 170.68 59.5266 170.2 59.5266C169.51 59.5266 168.92 59.7466 168.43 60.1866C167.95 60.6266 167.675 61.2366 167.605 62.0166H172.795ZM178.917 66.8616C178.287 66.8616 177.722 66.7566 177.222 66.5466C176.722 66.3266 176.327 66.0266 176.037 65.6466C175.747 65.2566 175.587 64.8116 175.557 64.3116H176.967C177.007 64.7216 177.197 65.0566 177.537 65.3166C177.887 65.5766 178.342 65.7066 178.902 65.7066C179.422 65.7066 179.832 65.5916 180.132 65.3616C180.432 65.1316 180.582 64.8416 180.582 64.4916C180.582 64.1316 180.422 63.8666 180.102 63.6966C179.782 63.5166 179.287 63.3416 178.617 63.1716C178.007 63.0116 177.507 62.8516 177.117 62.6916C176.737 62.5216 176.407 62.2766 176.127 61.9566C175.857 61.6266 175.722 61.1966 175.722 60.6666C175.722 60.2466 175.847 59.8616 176.097 59.5116C176.347 59.1616 176.702 58.8866 177.162 58.6866C177.622 58.4766 178.147 58.3716 178.737 58.3716C179.647 58.3716 180.382 58.6016 180.942 59.0616C181.502 59.5216 181.802 60.1516 181.842 60.9516H180.477C180.447 60.5216 180.272 60.1766 179.952 59.9166C179.642 59.6566 179.222 59.5266 178.692 59.5266C178.202 59.5266 177.812 59.6316 177.522 59.8416C177.232 60.0516 177.087 60.3266 177.087 60.6666C177.087 60.9366 177.172 61.1616 177.342 61.3416C177.522 61.5116 177.742 61.6516 178.002 61.7616C178.272 61.8616 178.642 61.9766 179.112 62.1066C179.702 62.2666 180.182 62.4266 180.552 62.5866C180.922 62.7366 181.237 62.9666 181.497 63.2766C181.767 63.5866 181.907 63.9916 181.917 64.4916C181.917 64.9416 181.792 65.3466 181.542 65.7066C181.292 66.0666 180.937 66.3516 180.477 66.5616C180.027 66.7616 179.507 66.8616 178.917 66.8616ZM186.753 66.8616C186.123 66.8616 185.558 66.7566 185.058 66.5466C184.558 66.3266 184.163 66.0266 183.873 65.6466C183.583 65.2566 183.423 64.8116 183.393 64.3116H184.803C184.843 64.7216 185.033 65.0566 185.373 65.3166C185.723 65.5766 186.178 65.7066 186.738 65.7066C187.258 65.7066 187.668 65.5916 187.968 65.3616C188.268 65.1316 188.418 64.8416 188.418 64.4916C188.418 64.1316 188.258 63.8666 187.938 63.6966C187.618 63.5166 187.123 63.3416 186.453 63.1716C185.843 63.0116 185.343 62.8516 184.953 62.6916C184.573 62.5216 184.243 62.2766 183.963 61.9566C183.693 61.6266 183.558 61.1966 183.558 60.6666C183.558 60.2466 183.683 59.8616 183.933 59.5116C184.183 59.1616 184.538 58.8866 184.998 58.6866C185.458 58.4766 185.983 58.3716 186.573 58.3716C187.483 58.3716 188.218 58.6016 188.778 59.0616C189.338 59.5216 189.638 60.1516 189.678 60.9516H188.313C188.283 60.5216 188.108 60.1766 187.788 59.9166C187.478 59.6566 187.058 59.5266 186.528 59.5266C186.038 59.5266 185.648 59.6316 185.358 59.8416C185.068 60.0516 184.923 60.3266 184.923 60.6666C184.923 60.9366 185.008 61.1616 185.178 61.3416C185.358 61.5116 185.578 61.6516 185.838 61.7616C186.108 61.8616 186.478 61.9766 186.948 62.1066C187.538 62.2666 188.018 62.4266 188.388 62.5866C188.758 62.7366 189.073 62.9666 189.333 63.2766C189.603 63.5866 189.743 63.9916 189.753 64.4916C189.753 64.9416 189.628 65.3466 189.378 65.7066C189.128 66.0666 188.773 66.3516 188.313 66.5616C187.863 66.7616 187.343 66.8616 186.753 66.8616ZM204.319 56.2716L200.374 66.7266H198.799L194.854 56.2716H196.309L199.594 65.2866L202.879 56.2716H204.319ZM210.556 66.8316C209.586 66.8316 208.701 66.6066 207.901 66.1566C207.101 65.6966 206.466 65.0616 205.996 64.2516C205.536 63.4316 205.306 62.5116 205.306 61.4916C205.306 60.4716 205.536 59.5566 205.996 58.7466C206.466 57.9266 207.101 57.2916 207.901 56.8416C208.701 56.3816 209.586 56.1516 210.556 56.1516C211.536 56.1516 212.426 56.3816 213.226 56.8416C214.026 57.2916 214.656 57.9216 215.116 58.7316C215.576 59.5416 215.806 60.4616 215.806 61.4916C215.806 62.5216 215.576 63.4416 215.116 64.2516C214.656 65.0616 214.026 65.6966 213.226 66.1566C212.426 66.6066 211.536 66.8316 210.556 66.8316ZM210.556 65.6466C211.286 65.6466 211.941 65.4766 212.521 65.1366C213.111 64.7966 213.571 64.3116 213.901 63.6816C214.241 63.0516 214.411 62.3216 214.411 61.4916C214.411 60.6516 214.241 59.9216 213.901 59.3016C213.571 58.6716 213.116 58.1866 212.536 57.8466C211.956 57.5066 211.296 57.3366 210.556 57.3366C209.816 57.3366 209.156 57.5066 208.576 57.8466C207.996 58.1866 207.536 58.6716 207.196 59.3016C206.866 59.9216 206.701 60.6516 206.701 61.4916C206.701 62.3216 206.866 63.0516 207.196 63.6816C207.536 64.3116 207.996 64.7966 208.576 65.1366C209.166 65.4766 209.826 65.6466 210.556 65.6466ZM220.863 56.2716C222.003 56.2716 222.988 56.4866 223.818 56.9166C224.658 57.3366 225.298 57.9416 225.738 58.7316C226.188 59.5216 226.413 60.4516 226.413 61.5216C226.413 62.5916 226.188 63.5216 225.738 64.3116C225.298 65.0916 224.658 65.6916 223.818 66.1116C222.988 66.5216 222.003 66.7266 220.863 66.7266H217.608V56.2716H220.863ZM220.863 65.6016C222.213 65.6016 223.243 65.2466 223.953 64.5366C224.663 63.8166 225.018 62.8116 225.018 61.5216C225.018 60.2216 224.658 59.2066 223.938 58.4766C223.228 57.7466 222.203 57.3816 220.863 57.3816H218.973V65.6016H220.863ZM238.393 64.4016H233.833L232.993 66.7266H231.553L235.333 56.3316H236.908L240.673 66.7266H239.233L238.393 64.4016ZM238.003 63.2916L236.113 58.0116L234.223 63.2916H238.003ZM241.81 62.6016C241.81 61.7516 241.98 61.0116 242.32 60.3816C242.66 59.7416 243.13 59.2466 243.73 58.8966C244.34 58.5466 245.035 58.3716 245.815 58.3716C246.825 58.3716 247.655 58.6166 248.305 59.1066C248.965 59.5966 249.4 60.2766 249.61 61.1466H248.14C248 60.6466 247.725 60.2516 247.315 59.9616C246.915 59.6716 246.415 59.5266 245.815 59.5266C245.035 59.5266 244.405 59.7966 243.925 60.3366C243.445 60.8666 243.205 61.6216 243.205 62.6016C243.205 63.5916 243.445 64.3566 243.925 64.8966C244.405 65.4366 245.035 65.7066 245.815 65.7066C246.415 65.7066 246.915 65.5666 247.315 65.2866C247.715 65.0066 247.99 64.6066 248.14 64.0866H249.61C249.39 64.9266 248.95 65.6016 248.29 66.1116C247.63 66.6116 246.805 66.8616 245.815 66.8616C245.035 66.8616 244.34 66.6866 243.73 66.3366C243.13 65.9866 242.66 65.4916 242.32 64.8516C241.98 64.2116 241.81 63.4616 241.81 62.6016ZM250.921 62.6016C250.921 61.7516 251.091 61.0116 251.431 60.3816C251.771 59.7416 252.241 59.2466 252.841 58.8966C253.451 58.5466 254.146 58.3716 254.926 58.3716C255.936 58.3716 256.766 58.6166 257.416 59.1066C258.076 59.5966 258.511 60.2766 258.721 61.1466H257.251C257.111 60.6466 256.836 60.2516 256.426 59.9616C256.026 59.6716 255.526 59.5266 254.926 59.5266C254.146 59.5266 253.516 59.7966 253.036 60.3366C252.556 60.8666 252.316 61.6216 252.316 62.6016C252.316 63.5916 252.556 64.3566 253.036 64.8966C253.516 65.4366 254.146 65.7066 254.926 65.7066C255.526 65.7066 256.026 65.5666 256.426 65.2866C256.826 65.0066 257.101 64.6066 257.251 64.0866H258.721C258.501 64.9266 258.061 65.6016 257.401 66.1116C256.741 66.6116 255.916 66.8616 254.926 66.8616C254.146 66.8616 253.451 66.6866 252.841 66.3366C252.241 65.9866 251.771 65.4916 251.431 64.8516C251.091 64.2116 250.921 63.4616 250.921 62.6016ZM268.043 62.3016C268.043 62.5616 268.028 62.8366 267.998 63.1266H261.428C261.478 63.9366 261.753 64.5716 262.253 65.0316C262.763 65.4816 263.378 65.7066 264.098 65.7066C264.688 65.7066 265.178 65.5716 265.568 65.3016C265.968 65.0216 266.248 64.6516 266.408 64.1916H267.878C267.658 64.9816 267.218 65.6266 266.558 66.1266C265.898 66.6166 265.078 66.8616 264.098 66.8616C263.318 66.8616 262.618 66.6866 261.998 66.3366C261.388 65.9866 260.908 65.4916 260.558 64.8516C260.208 64.2016 260.033 63.4516 260.033 62.6016C260.033 61.7516 260.203 61.0066 260.543 60.3666C260.883 59.7266 261.358 59.2366 261.968 58.8966C262.588 58.5466 263.298 58.3716 264.098 58.3716C264.878 58.3716 265.568 58.5416 266.168 58.8816C266.768 59.2216 267.228 59.6916 267.548 60.2916C267.878 60.8816 268.043 61.5516 268.043 62.3016ZM266.633 62.0166C266.633 61.4966 266.518 61.0516 266.288 60.6816C266.058 60.3016 265.743 60.0166 265.343 59.8266C264.953 59.6266 264.518 59.5266 264.038 59.5266C263.348 59.5266 262.758 59.7466 262.268 60.1866C261.788 60.6266 261.513 61.2366 261.443 62.0166H266.633ZM272.754 66.8616C272.124 66.8616 271.559 66.7566 271.059 66.5466C270.559 66.3266 270.164 66.0266 269.874 65.6466C269.584 65.2566 269.424 64.8116 269.394 64.3116H270.804C270.844 64.7216 271.034 65.0566 271.374 65.3166C271.724 65.5766 272.179 65.7066 272.739 65.7066C273.259 65.7066 273.669 65.5916 273.969 65.3616C274.269 65.1316 274.419 64.8416 274.419 64.4916C274.419 64.1316 274.259 63.8666 273.939 63.6966C273.619 63.5166 273.124 63.3416 272.454 63.1716C271.844 63.0116 271.344 62.8516 270.954 62.6916C270.574 62.5216 270.244 62.2766 269.964 61.9566C269.694 61.6266 269.559 61.1966 269.559 60.6666C269.559 60.2466 269.684 59.8616 269.934 59.5116C270.184 59.1616 270.539 58.8866 270.999 58.6866C271.459 58.4766 271.984 58.3716 272.574 58.3716C273.484 58.3716 274.219 58.6016 274.779 59.0616C275.339 59.5216 275.639 60.1516 275.679 60.9516H274.314C274.284 60.5216 274.109 60.1766 273.789 59.9166C273.479 59.6566 273.059 59.5266 272.529 59.5266C272.039 59.5266 271.649 59.6316 271.359 59.8416C271.069 60.0516 270.924 60.3266 270.924 60.6666C270.924 60.9366 271.009 61.1616 271.179 61.3416C271.359 61.5116 271.579 61.6516 271.839 61.7616C272.109 61.8616 272.479 61.9766 272.949 62.1066C273.539 62.2666 274.019 62.4266 274.389 62.5866C274.759 62.7366 275.074 62.9666 275.334 63.2766C275.604 63.5866 275.744 63.9916 275.754 64.4916C275.754 64.9416 275.629 65.3466 275.379 65.7066C275.129 66.0666 274.774 66.3516 274.314 66.5616C273.864 66.7616 273.344 66.8616 272.754 66.8616ZM280.591 66.8616C279.961 66.8616 279.396 66.7566 278.896 66.5466C278.396 66.3266 278.001 66.0266 277.711 65.6466C277.421 65.2566 277.261 64.8116 277.231 64.3116H278.641C278.681 64.7216 278.871 65.0566 279.211 65.3166C279.561 65.5766 280.016 65.7066 280.576 65.7066C281.096 65.7066 281.506 65.5916 281.806 65.3616C282.106 65.1316 282.256 64.8416 282.256 64.4916C282.256 64.1316 282.096 63.8666 281.776 63.6966C281.456 63.5166 280.961 63.3416 280.291 63.1716C279.681 63.0116 279.181 62.8516 278.791 62.6916C278.411 62.5216 278.081 62.2766 277.801 61.9566C277.531 61.6266 277.396 61.1966 277.396 60.6666C277.396 60.2466 277.521 59.8616 277.771 59.5116C278.021 59.1616 278.376 58.8866 278.836 58.6866C279.296 58.4766 279.821 58.3716 280.411 58.3716C281.321 58.3716 282.056 58.6016 282.616 59.0616C283.176 59.5216 283.476 60.1516 283.516 60.9516H282.151C282.121 60.5216 281.946 60.1766 281.626 59.9166C281.316 59.6566 280.896 59.5266 280.366 59.5266C279.876 59.5266 279.486 59.6316 279.196 59.8416C278.906 60.0516 278.761 60.3266 278.761 60.6666C278.761 60.9366 278.846 61.1616 279.016 61.3416C279.196 61.5116 279.416 61.6516 279.676 61.7616C279.946 61.8616 280.316 61.9766 280.786 62.1066C281.376 62.2666 281.856 62.4266 282.226 62.5866C282.596 62.7366 282.911 62.9666 283.171 63.2766C283.441 63.5866 283.581 63.9916 283.591 64.4916C283.591 64.9416 283.466 65.3466 283.216 65.7066C282.966 66.0666 282.611 66.3516 282.151 66.5616C281.701 66.7616 281.181 66.8616 280.591 66.8616ZM62.4106 81.3316C62.4106 82.2016 62.1106 82.9266 61.5106 83.5066C60.9206 84.0766 60.0156 84.3616 58.7956 84.3616H56.7856V88.7266H55.4206V78.2716H58.7956C59.9756 78.2716 60.8706 78.5566 61.4806 79.1266C62.1006 79.6966 62.4106 80.4316 62.4106 81.3316ZM58.7956 83.2366C59.5556 83.2366 60.1156 83.0716 60.4756 82.7416C60.8356 82.4116 61.0156 81.9416 61.0156 81.3316C61.0156 80.0416 60.2756 79.3966 58.7956 79.3966H56.7856V83.2366H58.7956ZM71.6071 84.3016C71.6071 84.5616 71.5921 84.8366 71.5621 85.1266H64.9921C65.0421 85.9366 65.3171 86.5716 65.8171 87.0316C66.3271 87.4816 66.9421 87.7066 67.6621 87.7066C68.2521 87.7066 68.7421 87.5716 69.1321 87.3016C69.5321 87.0216 69.8121 86.6516 69.9721 86.1916H71.4421C71.2221 86.9816 70.7821 87.6266 70.1221 88.1266C69.4621 88.6166 68.6421 88.8616 67.6621 88.8616C66.8821 88.8616 66.1821 88.6866 65.5621 88.3366C64.9521 87.9866 64.4721 87.4916 64.1221 86.8516C63.7721 86.2016 63.5971 85.4516 63.5971 84.6016C63.5971 83.7516 63.7671 83.0066 64.1071 82.3666C64.4471 81.7266 64.9221 81.2366 65.5321 80.8966C66.1521 80.5466 66.8621 80.3716 67.6621 80.3716C68.4421 80.3716 69.1321 80.5416 69.7321 80.8816C70.3321 81.2216 70.7921 81.6916 71.1121 82.2916C71.4421 82.8816 71.6071 83.5516 71.6071 84.3016ZM70.1971 84.0166C70.1971 83.4966 70.0821 83.0516 69.8521 82.6816C69.6221 82.3016 69.3071 82.0166 68.9071 81.8266C68.5171 81.6266 68.0821 81.5266 67.6021 81.5266C66.9121 81.5266 66.3221 81.7466 65.8321 82.1866C65.3521 82.6266 65.0771 83.2366 65.0071 84.0166H70.1971ZM74.7739 81.8416C75.0139 81.3716 75.3539 81.0066 75.7939 80.7466C76.2439 80.4866 76.7889 80.3566 77.4289 80.3566V81.7666H77.0689C75.5389 81.7666 74.7739 82.5966 74.7739 84.2566V88.7266H73.4089V80.5066H74.7739V81.8416ZM81.9146 88.8616C81.2846 88.8616 80.7196 88.7566 80.2196 88.5466C79.7196 88.3266 79.3246 88.0266 79.0346 87.6466C78.7446 87.2566 78.5846 86.8116 78.5546 86.3116H79.9646C80.0046 86.7216 80.1946 87.0566 80.5346 87.3166C80.8846 87.5766 81.3396 87.7066 81.8996 87.7066C82.4196 87.7066 82.8296 87.5916 83.1296 87.3616C83.4296 87.1316 83.5796 86.8416 83.5796 86.4916C83.5796 86.1316 83.4196 85.8666 83.0996 85.6966C82.7796 85.5166 82.2846 85.3416 81.6146 85.1716C81.0046 85.0116 80.5046 84.8516 80.1146 84.6916C79.7346 84.5216 79.4046 84.2766 79.1246 83.9566C78.8546 83.6266 78.7196 83.1966 78.7196 82.6666C78.7196 82.2466 78.8446 81.8616 79.0946 81.5116C79.3446 81.1616 79.6996 80.8866 80.1596 80.6866C80.6196 80.4766 81.1446 80.3716 81.7346 80.3716C82.6446 80.3716 83.3796 80.6016 83.9396 81.0616C84.4996 81.5216 84.7996 82.1516 84.8396 82.9516H83.4746C83.4446 82.5216 83.2696 82.1766 82.9496 81.9166C82.6396 81.6566 82.2196 81.5266 81.6896 81.5266C81.1996 81.5266 80.8096 81.6316 80.5196 81.8416C80.2296 82.0516 80.0846 82.3266 80.0846 82.6666C80.0846 82.9366 80.1696 83.1616 80.3396 83.3416C80.5196 83.5116 80.7396 83.6516 80.9996 83.7616C81.2696 83.8616 81.6396 83.9766 82.1096 84.1066C82.6996 84.2666 83.1796 84.4266 83.5496 84.5866C83.9196 84.7366 84.2346 84.9666 84.4946 85.2766C84.7646 85.5866 84.9046 85.9916 84.9146 86.4916C84.9146 86.9416 84.7896 87.3466 84.5396 87.7066C84.2896 88.0666 83.9346 88.3516 83.4746 88.5616C83.0246 88.7616 82.5046 88.8616 81.9146 88.8616ZM90.4265 88.8616C89.6565 88.8616 88.9565 88.6866 88.3265 88.3366C87.7065 87.9866 87.2165 87.4916 86.8565 86.8516C86.5065 86.2016 86.3315 85.4516 86.3315 84.6016C86.3315 83.7616 86.5115 83.0216 86.8715 82.3816C87.2415 81.7316 87.7415 81.2366 88.3715 80.8966C89.0015 80.5466 89.7065 80.3716 90.4865 80.3716C91.2665 80.3716 91.9715 80.5466 92.6015 80.8966C93.2315 81.2366 93.7265 81.7266 94.0865 82.3666C94.4565 83.0066 94.6415 83.7516 94.6415 84.6016C94.6415 85.4516 94.4515 86.2016 94.0715 86.8516C93.7015 87.4916 93.1965 87.9866 92.5565 88.3366C91.9165 88.6866 91.2065 88.8616 90.4265 88.8616ZM90.4265 87.6616C90.9165 87.6616 91.3765 87.5466 91.8065 87.3166C92.2365 87.0866 92.5815 86.7416 92.8415 86.2816C93.1115 85.8216 93.2465 85.2616 93.2465 84.6016C93.2465 83.9416 93.1165 83.3816 92.8565 82.9216C92.5965 82.4616 92.2565 82.1216 91.8365 81.9016C91.4165 81.6716 90.9615 81.5566 90.4715 81.5566C89.9715 81.5566 89.5115 81.6716 89.0915 81.9016C88.6815 82.1216 88.3515 82.4616 88.1015 82.9216C87.8515 83.3816 87.7265 83.9416 87.7265 84.6016C87.7265 85.2716 87.8465 85.8366 88.0865 86.2966C88.3365 86.7566 88.6665 87.1016 89.0765 87.3316C89.4865 87.5516 89.9365 87.6616 90.4265 87.6616ZM100.441 80.3566C101.441 80.3566 102.251 80.6616 102.871 81.2716C103.491 81.8716 103.801 82.7416 103.801 83.8816V88.7266H102.451V84.0766C102.451 83.2566 102.246 82.6316 101.836 82.2016C101.426 81.7616 100.866 81.5416 100.156 81.5416C99.4363 81.5416 98.8613 81.7666 98.4313 82.2166C98.0113 82.6666 97.8013 83.3216 97.8013 84.1816V88.7266H96.4363V80.5066H97.8013V81.6766C98.0713 81.2566 98.4363 80.9316 98.8963 80.7016C99.3663 80.4716 99.8813 80.3566 100.441 80.3566ZM105.521 84.5866C105.521 83.7466 105.691 83.0116 106.031 82.3816C106.371 81.7416 106.836 81.2466 107.426 80.8966C108.026 80.5466 108.691 80.3716 109.421 80.3716C110.141 80.3716 110.766 80.5266 111.296 80.8366C111.826 81.1466 112.221 81.5366 112.481 82.0066V80.5066H113.861V88.7266H112.481V87.1966C112.211 87.6766 111.806 88.0766 111.266 88.3966C110.736 88.7066 110.116 88.8616 109.406 88.8616C108.676 88.8616 108.016 88.6816 107.426 88.3216C106.836 87.9616 106.371 87.4566 106.031 86.8066C105.691 86.1566 105.521 85.4166 105.521 84.5866ZM112.481 84.6016C112.481 83.9816 112.356 83.4416 112.106 82.9816C111.856 82.5216 111.516 82.1716 111.086 81.9316C110.666 81.6816 110.201 81.5566 109.691 81.5566C109.181 81.5566 108.716 81.6766 108.296 81.9166C107.876 82.1566 107.541 82.5066 107.291 82.9666C107.041 83.4266 106.916 83.9666 106.916 84.5866C106.916 85.2166 107.041 85.7666 107.291 86.2366C107.541 86.6966 107.876 87.0516 108.296 87.3016C108.716 87.5416 109.181 87.6616 109.691 87.6616C110.201 87.6616 110.666 87.5416 111.086 87.3016C111.516 87.0516 111.856 86.6966 112.106 86.2366C112.356 85.7666 112.481 85.2216 112.481 84.6016ZM117.533 77.6266V88.7266H116.168V77.6266H117.533ZM120.564 79.1716C120.304 79.1716 120.084 79.0816 119.904 78.9016C119.724 78.7216 119.634 78.5016 119.634 78.2416C119.634 77.9816 119.724 77.7616 119.904 77.5816C120.084 77.4016 120.304 77.3116 120.564 77.3116C120.814 77.3116 121.024 77.4016 121.194 77.5816C121.374 77.7616 121.464 77.9816 121.464 78.2416C121.464 78.5016 121.374 78.7216 121.194 78.9016C121.024 79.0816 120.814 79.1716 120.564 79.1716ZM121.224 80.5066V88.7266H119.859V80.5066H121.224ZM124.571 87.6016H128.606V88.7266H123.011V87.6016L127.001 81.6166H123.041V80.5066H128.576V81.6166L124.571 87.6016ZM137.877 84.3016C137.877 84.5616 137.862 84.8366 137.832 85.1266H131.262C131.312 85.9366 131.587 86.5716 132.087 87.0316C132.597 87.4816 133.212 87.7066 133.932 87.7066C134.522 87.7066 135.012 87.5716 135.402 87.3016C135.802 87.0216 136.082 86.6516 136.242 86.1916H137.712C137.492 86.9816 137.052 87.6266 136.392 88.1266C135.732 88.6166 134.912 88.8616 133.932 88.8616C133.152 88.8616 132.452 88.6866 131.832 88.3366C131.222 87.9866 130.742 87.4916 130.392 86.8516C130.042 86.2016 129.867 85.4516 129.867 84.6016C129.867 83.7516 130.037 83.0066 130.377 82.3666C130.717 81.7266 131.192 81.2366 131.802 80.8966C132.422 80.5466 133.132 80.3716 133.932 80.3716C134.712 80.3716 135.402 80.5416 136.002 80.8816C136.602 81.2216 137.062 81.6916 137.382 82.2916C137.712 82.8816 137.877 83.5516 137.877 84.3016ZM136.467 84.0166C136.467 83.4966 136.352 83.0516 136.122 82.6816C135.892 82.3016 135.577 82.0166 135.177 81.8266C134.787 81.6266 134.352 81.5266 133.872 81.5266C133.182 81.5266 132.592 81.7466 132.102 82.1866C131.622 82.6266 131.347 83.2366 131.277 84.0166H136.467ZM139.168 84.5866C139.168 83.7466 139.338 83.0116 139.678 82.3816C140.018 81.7416 140.483 81.2466 141.073 80.8966C141.673 80.5466 142.343 80.3716 143.083 80.3716C143.723 80.3716 144.318 80.5216 144.868 80.8216C145.418 81.1116 145.838 81.4966 146.128 81.9766V77.6266H147.508V88.7266H146.128V87.1816C145.858 87.6716 145.458 88.0766 144.928 88.3966C144.398 88.7066 143.778 88.8616 143.068 88.8616C142.338 88.8616 141.673 88.6816 141.073 88.3216C140.483 87.9616 140.018 87.4566 139.678 86.8066C139.338 86.1566 139.168 85.4166 139.168 84.5866ZM146.128 84.6016C146.128 83.9816 146.003 83.4416 145.753 82.9816C145.503 82.5216 145.163 82.1716 144.733 81.9316C144.313 81.6816 143.848 81.5566 143.338 81.5566C142.828 81.5566 142.363 81.6766 141.943 81.9166C141.523 82.1566 141.188 82.5066 140.938 82.9666C140.688 83.4266 140.563 83.9666 140.563 84.5866C140.563 85.2166 140.688 85.7666 140.938 86.2366C141.188 86.6966 141.523 87.0516 141.943 87.3016C142.363 87.5416 142.828 87.6616 143.338 87.6616C143.848 87.6616 144.313 87.5416 144.733 87.3016C145.163 87.0516 145.503 86.6966 145.753 86.2366C146.003 85.7666 146.128 85.2216 146.128 84.6016ZM162.034 88.7266H160.669L155.179 80.4016V88.7266H153.814V78.2566H155.179L160.669 86.5666V78.2566H162.034V88.7266ZM171.651 80.5066V88.7266H170.286V87.5116C170.026 87.9316 169.661 88.2616 169.191 88.5016C168.731 88.7316 168.221 88.8466 167.661 88.8466C167.021 88.8466 166.446 88.7166 165.936 88.4566C165.426 88.1866 165.021 87.7866 164.721 87.2566C164.431 86.7266 164.286 86.0816 164.286 85.3216V80.5066H165.636V85.1416C165.636 85.9516 165.841 86.5766 166.251 87.0166C166.661 87.4466 167.221 87.6616 167.931 87.6616C168.661 87.6616 169.236 87.4366 169.656 86.9866C170.076 86.5366 170.286 85.8816 170.286 85.0216V80.5066H171.651ZM175.621 81.6316V86.4766C175.621 86.8766 175.706 87.1616 175.876 87.3316C176.046 87.4916 176.341 87.5716 176.761 87.5716H177.766V88.7266H176.536C175.776 88.7266 175.206 88.5516 174.826 88.2016C174.446 87.8516 174.256 87.2766 174.256 86.4766V81.6316H173.191V80.5066H174.256V78.4366H175.621V80.5066H177.766V81.6316H175.621ZM180.785 81.8416C181.025 81.3716 181.365 81.0066 181.805 80.7466C182.255 80.4866 182.8 80.3566 183.44 80.3566V81.7666H183.08C181.55 81.7666 180.785 82.5966 180.785 84.2566V88.7266H179.42V80.5066H180.785V81.8416ZM185.72 79.1716C185.46 79.1716 185.24 79.0816 185.06 78.9016C184.88 78.7216 184.79 78.5016 184.79 78.2416C184.79 77.9816 184.88 77.7616 185.06 77.5816C185.24 77.4016 185.46 77.3116 185.72 77.3116C185.97 77.3116 186.18 77.4016 186.35 77.5816C186.53 77.7616 186.62 77.9816 186.62 78.2416C186.62 78.5016 186.53 78.7216 186.35 78.9016C186.18 79.0816 185.97 79.1716 185.72 79.1716ZM186.38 80.5066V88.7266H185.015V80.5066H186.38ZM190.372 81.6316V86.4766C190.372 86.8766 190.457 87.1616 190.627 87.3316C190.797 87.4916 191.092 87.5716 191.512 87.5716H192.517V88.7266H191.287C190.527 88.7266 189.957 88.5516 189.577 88.2016C189.197 87.8516 189.007 87.2766 189.007 86.4766V81.6316H187.942V80.5066H189.007V78.4366H190.372V80.5066H192.517V81.6316H190.372ZM194.876 79.1716C194.616 79.1716 194.396 79.0816 194.216 78.9016C194.036 78.7216 193.946 78.5016 193.946 78.2416C193.946 77.9816 194.036 77.7616 194.216 77.5816C194.396 77.4016 194.616 77.3116 194.876 77.3116C195.126 77.3116 195.336 77.4016 195.506 77.5816C195.686 77.7616 195.776 77.9816 195.776 78.2416C195.776 78.5016 195.686 78.7216 195.506 78.9016C195.336 79.0816 195.126 79.1716 194.876 79.1716ZM195.536 80.5066V88.7266H194.171V80.5066H195.536ZM201.447 88.8616C200.677 88.8616 199.977 88.6866 199.347 88.3366C198.727 87.9866 198.237 87.4916 197.877 86.8516C197.527 86.2016 197.352 85.4516 197.352 84.6016C197.352 83.7616 197.532 83.0216 197.892 82.3816C198.262 81.7316 198.762 81.2366 199.392 80.8966C200.022 80.5466 200.727 80.3716 201.507 80.3716C202.287 80.3716 202.992 80.5466 203.622 80.8966C204.252 81.2366 204.747 81.7266 205.107 82.3666C205.477 83.0066 205.662 83.7516 205.662 84.6016C205.662 85.4516 205.472 86.2016 205.092 86.8516C204.722 87.4916 204.217 87.9866 203.577 88.3366C202.937 88.6866 202.227 88.8616 201.447 88.8616ZM201.447 87.6616C201.937 87.6616 202.397 87.5466 202.827 87.3166C203.257 87.0866 203.602 86.7416 203.862 86.2816C204.132 85.8216 204.267 85.2616 204.267 84.6016C204.267 83.9416 204.137 83.3816 203.877 82.9216C203.617 82.4616 203.277 82.1216 202.857 81.9016C202.437 81.6716 201.982 81.5566 201.492 81.5566C200.992 81.5566 200.532 81.6716 200.112 81.9016C199.702 82.1216 199.372 82.4616 199.122 82.9216C198.872 83.3816 198.747 83.9416 198.747 84.6016C198.747 85.2716 198.867 85.8366 199.107 86.2966C199.357 86.7566 199.687 87.1016 200.097 87.3316C200.507 87.5516 200.957 87.6616 201.447 87.6616ZM211.462 80.3566C212.462 80.3566 213.272 80.6616 213.892 81.2716C214.512 81.8716 214.822 82.7416 214.822 83.8816V88.7266H213.472V84.0766C213.472 83.2566 213.267 82.6316 212.857 82.2016C212.447 81.7616 211.887 81.5416 211.177 81.5416C210.457 81.5416 209.882 81.7666 209.452 82.2166C209.032 82.6666 208.822 83.3216 208.822 84.1816V88.7266H207.457V80.5066H208.822V81.6766C209.092 81.2566 209.457 80.9316 209.917 80.7016C210.387 80.4716 210.902 80.3566 211.462 80.3566ZM228.041 81.3316C228.041 82.2016 227.741 82.9266 227.141 83.5066C226.551 84.0766 225.646 84.3616 224.426 84.3616H222.416V88.7266H221.051V78.2716H224.426C225.606 78.2716 226.501 78.5566 227.111 79.1266C227.731 79.6966 228.041 80.4316 228.041 81.3316ZM224.426 83.2366C225.186 83.2366 225.746 83.0716 226.106 82.7416C226.466 82.4116 226.646 81.9416 226.646 81.3316C226.646 80.0416 225.906 79.3966 224.426 79.3966H222.416V83.2366H224.426ZM231.102 77.6266V88.7266H229.737V77.6266H231.102ZM232.918 84.5866C232.918 83.7466 233.088 83.0116 233.428 82.3816C233.768 81.7416 234.233 81.2466 234.823 80.8966C235.423 80.5466 236.088 80.3716 236.818 80.3716C237.538 80.3716 238.163 80.5266 238.693 80.8366C239.223 81.1466 239.618 81.5366 239.878 82.0066V80.5066H241.258V88.7266H239.878V87.1966C239.608 87.6766 239.203 88.0766 238.663 88.3966C238.133 88.7066 237.513 88.8616 236.803 88.8616C236.073 88.8616 235.413 88.6816 234.823 88.3216C234.233 87.9616 233.768 87.4566 233.428 86.8066C233.088 86.1566 232.918 85.4166 232.918 84.5866ZM239.878 84.6016C239.878 83.9816 239.753 83.4416 239.503 82.9816C239.253 82.5216 238.913 82.1716 238.483 81.9316C238.063 81.6816 237.598 81.5566 237.088 81.5566C236.578 81.5566 236.113 81.6766 235.693 81.9166C235.273 82.1566 234.938 82.5066 234.688 82.9666C234.438 83.4266 234.313 83.9666 234.313 84.5866C234.313 85.2166 234.438 85.7666 234.688 86.2366C234.938 86.6966 235.273 87.0516 235.693 87.3016C236.113 87.5416 236.578 87.6616 237.088 87.6616C237.598 87.6616 238.063 87.5416 238.483 87.3016C238.913 87.0516 239.253 86.6966 239.503 86.2366C239.753 85.7666 239.878 85.2216 239.878 84.6016ZM247.57 80.3566C248.57 80.3566 249.38 80.6616 250 81.2716C250.62 81.8716 250.93 82.7416 250.93 83.8816V88.7266H249.58V84.0766C249.58 83.2566 249.375 82.6316 248.965 82.2016C248.555 81.7616 247.995 81.5416 247.285 81.5416C246.565 81.5416 245.99 81.7666 245.56 82.2166C245.14 82.6666 244.93 83.3216 244.93 84.1816V88.7266H243.565V80.5066H244.93V81.6766C245.2 81.2566 245.565 80.9316 246.025 80.7016C246.495 80.4716 247.01 80.3566 247.57 80.3566ZM265.184 88.7266L263.819 87.3466C263.309 87.8766 262.764 88.2716 262.184 88.5316C261.604 88.7816 260.949 88.9066 260.219 88.9066C259.499 88.9066 258.859 88.7766 258.299 88.5166C257.749 88.2566 257.319 87.8866 257.009 87.4066C256.709 86.9266 256.559 86.3666 256.559 85.7266C256.559 84.9966 256.764 84.3566 257.174 83.8066C257.594 83.2466 258.209 82.8066 259.019 82.4866C258.699 82.1066 258.469 81.7566 258.329 81.4366C258.189 81.1166 258.119 80.7666 258.119 80.3866C258.119 79.9466 258.229 79.5516 258.449 79.2016C258.679 78.8416 259.004 78.5616 259.424 78.3616C259.844 78.1616 260.329 78.0616 260.879 78.0616C261.419 78.0616 261.889 78.1666 262.289 78.3766C262.689 78.5866 262.989 78.8816 263.189 79.2616C263.389 79.6316 263.479 80.0466 263.459 80.5066H262.094C262.104 80.0966 261.989 79.7766 261.749 79.5466C261.509 79.3066 261.199 79.1866 260.819 79.1866C260.419 79.1866 260.094 79.3016 259.844 79.5316C259.604 79.7516 259.484 80.0366 259.484 80.3866C259.484 80.6866 259.564 80.9766 259.724 81.2566C259.894 81.5366 260.174 81.8816 260.564 82.2916L263.684 85.4266L263.954 85.0066L264.974 83.2966H266.444L265.214 85.4266C265.044 85.7266 264.844 86.0416 264.614 86.3716L266.969 88.7266H265.184ZM260.219 87.7366C260.759 87.7366 261.244 87.6316 261.674 87.4216C262.114 87.2116 262.529 86.8866 262.919 86.4466L259.844 83.3566C258.564 83.8466 257.924 84.6216 257.924 85.6816C257.924 86.2716 258.134 86.7616 258.554 87.1516C258.984 87.5416 259.539 87.7366 260.219 87.7366ZM275.562 88.8316C274.872 88.8316 274.252 88.7116 273.702 88.4716C273.162 88.2216 272.737 87.8816 272.427 87.4516C272.117 87.0116 271.957 86.5066 271.947 85.9366H273.402C273.452 86.4266 273.652 86.8416 274.002 87.1816C274.362 87.5116 274.882 87.6766 275.562 87.6766C276.212 87.6766 276.722 87.5166 277.092 87.1966C277.472 86.8666 277.662 86.4466 277.662 85.9366C277.662 85.5366 277.552 85.2116 277.332 84.9616C277.112 84.7116 276.837 84.5216 276.507 84.3916C276.177 84.2616 275.732 84.1216 275.172 83.9716C274.482 83.7916 273.927 83.6116 273.507 83.4316C273.097 83.2516 272.742 82.9716 272.442 82.5916C272.152 82.2016 272.007 81.6816 272.007 81.0316C272.007 80.4616 272.152 79.9566 272.442 79.5166C272.732 79.0766 273.137 78.7366 273.657 78.4966C274.187 78.2566 274.792 78.1366 275.472 78.1366C276.452 78.1366 277.252 78.3816 277.872 78.8716C278.502 79.3616 278.857 80.0116 278.937 80.8216H277.437C277.387 80.4216 277.177 80.0716 276.807 79.7716C276.437 79.4616 275.947 79.3066 275.337 79.3066C274.767 79.3066 274.302 79.4566 273.942 79.7566C273.582 80.0466 273.402 80.4566 273.402 80.9866C273.402 81.3666 273.507 81.6766 273.717 81.9166C273.937 82.1566 274.202 82.3416 274.512 82.4716C274.832 82.5916 275.277 82.7316 275.847 82.8916C276.537 83.0816 277.092 83.2716 277.512 83.4616C277.932 83.6416 278.292 83.9266 278.592 84.3166C278.892 84.6966 279.042 85.2166 279.042 85.8766C279.042 86.3866 278.907 86.8666 278.637 87.3166C278.367 87.7666 277.967 88.1316 277.437 88.4116C276.907 88.6916 276.282 88.8316 275.562 88.8316ZM288.341 80.5066V88.7266H286.976V87.5116C286.716 87.9316 286.351 88.2616 285.881 88.5016C285.421 88.7316 284.911 88.8466 284.351 88.8466C283.711 88.8466 283.136 88.7166 282.626 88.4566C282.116 88.1866 281.711 87.7866 281.411 87.2566C281.121 86.7266 280.976 86.0816 280.976 85.3216V80.5066H282.326V85.1416C282.326 85.9516 282.531 86.5766 282.941 87.0166C283.351 87.4466 283.911 87.6616 284.621 87.6616C285.351 87.6616 285.926 87.4366 286.346 86.9866C286.766 86.5366 286.976 85.8816 286.976 85.0216V80.5066H288.341ZM292.01 82.0216C292.28 81.5516 292.68 81.1616 293.21 80.8516C293.75 80.5316 294.375 80.3716 295.085 80.3716C295.815 80.3716 296.475 80.5466 297.065 80.8966C297.665 81.2466 298.135 81.7416 298.475 82.3816C298.815 83.0116 298.985 83.7466 298.985 84.5866C298.985 85.4166 298.815 86.1566 298.475 86.8066C298.135 87.4566 297.665 87.9616 297.065 88.3216C296.475 88.6816 295.815 88.8616 295.085 88.8616C294.385 88.8616 293.765 88.7066 293.225 88.3966C292.695 88.0766 292.29 87.6816 292.01 87.2116V92.6266H290.645V80.5066H292.01V82.0216ZM297.59 84.5866C297.59 83.9666 297.465 83.4266 297.215 82.9666C296.965 82.5066 296.625 82.1566 296.195 81.9166C295.775 81.6766 295.31 81.5566 294.8 81.5566C294.3 81.5566 293.835 81.6816 293.405 81.9316C292.985 82.1716 292.645 82.5266 292.385 82.9966C292.135 83.4566 292.01 83.9916 292.01 84.6016C292.01 85.2216 292.135 85.7666 292.385 86.2366C292.645 86.6966 292.985 87.0516 293.405 87.3016C293.835 87.5416 294.3 87.6616 294.8 87.6616C295.31 87.6616 295.775 87.5416 296.195 87.3016C296.625 87.0516 296.965 86.6966 297.215 86.2366C297.465 85.7666 297.59 85.2166 297.59 84.5866ZM302.147 82.0216C302.417 81.5516 302.817 81.1616 303.347 80.8516C303.887 80.5316 304.512 80.3716 305.222 80.3716C305.952 80.3716 306.612 80.5466 307.202 80.8966C307.802 81.2466 308.272 81.7416 308.612 82.3816C308.952 83.0116 309.122 83.7466 309.122 84.5866C309.122 85.4166 308.952 86.1566 308.612 86.8066C308.272 87.4566 307.802 87.9616 307.202 88.3216C306.612 88.6816 305.952 88.8616 305.222 88.8616C304.522 88.8616 303.902 88.7066 303.362 88.3966C302.832 88.0766 302.427 87.6816 302.147 87.2116V92.6266H300.782V80.5066H302.147V82.0216ZM307.727 84.5866C307.727 83.9666 307.602 83.4266 307.352 82.9666C307.102 82.5066 306.762 82.1566 306.332 81.9166C305.912 81.6766 305.447 81.5566 304.937 81.5566C304.437 81.5566 303.972 81.6816 303.542 81.9316C303.122 82.1716 302.782 82.5266 302.522 82.9966C302.272 83.4566 302.147 83.9916 302.147 84.6016C302.147 85.2216 302.272 85.7666 302.522 86.2366C302.782 86.6966 303.122 87.0516 303.542 87.3016C303.972 87.5416 304.437 87.6616 304.937 87.6616C305.447 87.6616 305.912 87.5416 306.332 87.3016C306.762 87.0516 307.102 86.6966 307.352 86.2366C307.602 85.7666 307.727 85.2166 307.727 84.5866ZM314.504 88.8616C313.734 88.8616 313.034 88.6866 312.404 88.3366C311.784 87.9866 311.294 87.4916 310.934 86.8516C310.584 86.2016 310.409 85.4516 310.409 84.6016C310.409 83.7616 310.589 83.0216 310.949 82.3816C311.319 81.7316 311.819 81.2366 312.449 80.8966C313.079 80.5466 313.784 80.3716 314.564 80.3716C315.344 80.3716 316.049 80.5466 316.679 80.8966C317.309 81.2366 317.804 81.7266 318.164 82.3666C318.534 83.0066 318.719 83.7516 318.719 84.6016C318.719 85.4516 318.529 86.2016 318.149 86.8516C317.779 87.4916 317.274 87.9866 316.634 88.3366C315.994 88.6866 315.284 88.8616 314.504 88.8616ZM314.504 87.6616C314.994 87.6616 315.454 87.5466 315.884 87.3166C316.314 87.0866 316.659 86.7416 316.919 86.2816C317.189 85.8216 317.324 85.2616 317.324 84.6016C317.324 83.9416 317.194 83.3816 316.934 82.9216C316.674 82.4616 316.334 82.1216 315.914 81.9016C315.494 81.6716 315.039 81.5566 314.549 81.5566C314.049 81.5566 313.589 81.6716 313.169 81.9016C312.759 82.1216 312.429 82.4616 312.179 82.9216C311.929 83.3816 311.804 83.9416 311.804 84.6016C311.804 85.2716 311.924 85.8366 312.164 86.2966C312.414 86.7566 312.744 87.1016 313.154 87.3316C313.564 87.5516 314.014 87.6616 314.504 87.6616ZM321.878 81.8416C322.118 81.3716 322.458 81.0066 322.898 80.7466C323.348 80.4866 323.893 80.3566 324.533 80.3566V81.7666H324.173C322.643 81.7666 321.878 82.5966 321.878 84.2566V88.7266H320.513V80.5066H321.878V81.8416ZM327.774 81.6316V86.4766C327.774 86.8766 327.859 87.1616 328.029 87.3316C328.199 87.4916 328.494 87.5716 328.914 87.5716H329.919V88.7266H328.689C327.929 88.7266 327.359 88.5516 326.979 88.2016C326.599 87.8516 326.409 87.2766 326.409 86.4766V81.6316H325.344V80.5066H326.409V78.4366H327.774V80.5066H329.919V81.6316H327.774ZM62.4106 103.332C62.4106 104.202 62.1106 104.927 61.5106 105.507C60.9206 106.077 60.0156 106.362 58.7956 106.362H56.7856V110.727H55.4206V100.272H58.7956C59.9756 100.272 60.8706 100.557 61.4806 101.127C62.1006 101.697 62.4106 102.432 62.4106 103.332ZM58.7956 105.237C59.5556 105.237 60.1156 105.072 60.4756 104.742C60.8356 104.412 61.0156 103.942 61.0156 103.332C61.0156 102.042 60.2756 101.397 58.7956 101.397H56.7856V105.237H58.7956ZM71.6071 106.302C71.6071 106.562 71.5921 106.837 71.5621 107.127H64.9921C65.0421 107.937 65.3171 108.572 65.8171 109.032C66.3271 109.482 66.9421 109.707 67.6621 109.707C68.2521 109.707 68.7421 109.572 69.1321 109.302C69.5321 109.022 69.8121 108.652 69.9721 108.192H71.4421C71.2221 108.982 70.7821 109.627 70.1221 110.127C69.4621 110.617 68.6421 110.862 67.6621 110.862C66.8821 110.862 66.1821 110.687 65.5621 110.337C64.9521 109.987 64.4721 109.492 64.1221 108.852C63.7721 108.202 63.5971 107.452 63.5971 106.602C63.5971 105.752 63.7671 105.007 64.1071 104.367C64.4471 103.727 64.9221 103.237 65.5321 102.897C66.1521 102.547 66.8621 102.372 67.6621 102.372C68.4421 102.372 69.1321 102.542 69.7321 102.882C70.3321 103.222 70.7921 103.692 71.1121 104.292C71.4421 104.882 71.6071 105.552 71.6071 106.302ZM70.1971 106.017C70.1971 105.497 70.0821 105.052 69.8521 104.682C69.6221 104.302 69.3071 104.017 68.9071 103.827C68.5171 103.627 68.0821 103.527 67.6021 103.527C66.9121 103.527 66.3221 103.747 65.8321 104.187C65.3521 104.627 65.0771 105.237 65.0071 106.017H70.1971ZM74.7739 103.842C75.0139 103.372 75.3539 103.007 75.7939 102.747C76.2439 102.487 76.7889 102.357 77.4289 102.357V103.767H77.0689C75.5389 103.767 74.7739 104.597 74.7739 106.257V110.727H73.4089V102.507H74.7739V103.842ZM81.9146 110.862C81.2846 110.862 80.7196 110.757 80.2196 110.547C79.7196 110.327 79.3246 110.027 79.0346 109.647C78.7446 109.257 78.5846 108.812 78.5546 108.312H79.9646C80.0046 108.722 80.1946 109.057 80.5346 109.317C80.8846 109.577 81.3396 109.707 81.8996 109.707C82.4196 109.707 82.8296 109.592 83.1296 109.362C83.4296 109.132 83.5796 108.842 83.5796 108.492C83.5796 108.132 83.4196 107.867 83.0996 107.697C82.7796 107.517 82.2846 107.342 81.6146 107.172C81.0046 107.012 80.5046 106.852 80.1146 106.692C79.7346 106.522 79.4046 106.277 79.1246 105.957C78.8546 105.627 78.7196 105.197 78.7196 104.667C78.7196 104.247 78.8446 103.862 79.0946 103.512C79.3446 103.162 79.6996 102.887 80.1596 102.687C80.6196 102.477 81.1446 102.372 81.7346 102.372C82.6446 102.372 83.3796 102.602 83.9396 103.062C84.4996 103.522 84.7996 104.152 84.8396 104.952H83.4746C83.4446 104.522 83.2696 104.177 82.9496 103.917C82.6396 103.657 82.2196 103.527 81.6896 103.527C81.1996 103.527 80.8096 103.632 80.5196 103.842C80.2296 104.052 80.0846 104.327 80.0846 104.667C80.0846 104.937 80.1696 105.162 80.3396 105.342C80.5196 105.512 80.7396 105.652 80.9996 105.762C81.2696 105.862 81.6396 105.977 82.1096 106.107C82.6996 106.267 83.1796 106.427 83.5496 106.587C83.9196 106.737 84.2346 106.967 84.4946 107.277C84.7646 107.587 84.9046 107.992 84.9146 108.492C84.9146 108.942 84.7896 109.347 84.5396 109.707C84.2896 110.067 83.9346 110.352 83.4746 110.562C83.0246 110.762 82.5046 110.862 81.9146 110.862ZM90.4265 110.862C89.6565 110.862 88.9565 110.687 88.3265 110.337C87.7065 109.987 87.2165 109.492 86.8565 108.852C86.5065 108.202 86.3315 107.452 86.3315 106.602C86.3315 105.762 86.5115 105.022 86.8715 104.382C87.2415 103.732 87.7415 103.237 88.3715 102.897C89.0015 102.547 89.7065 102.372 90.4865 102.372C91.2665 102.372 91.9715 102.547 92.6015 102.897C93.2315 103.237 93.7265 103.727 94.0865 104.367C94.4565 105.007 94.6415 105.752 94.6415 106.602C94.6415 107.452 94.4515 108.202 94.0715 108.852C93.7015 109.492 93.1965 109.987 92.5565 110.337C91.9165 110.687 91.2065 110.862 90.4265 110.862ZM90.4265 109.662C90.9165 109.662 91.3765 109.547 91.8065 109.317C92.2365 109.087 92.5815 108.742 92.8415 108.282C93.1115 107.822 93.2465 107.262 93.2465 106.602C93.2465 105.942 93.1165 105.382 92.8565 104.922C92.5965 104.462 92.2565 104.122 91.8365 103.902C91.4165 103.672 90.9615 103.557 90.4715 103.557C89.9715 103.557 89.5115 103.672 89.0915 103.902C88.6815 104.122 88.3515 104.462 88.1015 104.922C87.8515 105.382 87.7265 105.942 87.7265 106.602C87.7265 107.272 87.8465 107.837 88.0865 108.297C88.3365 108.757 88.6665 109.102 89.0765 109.332C89.4865 109.552 89.9365 109.662 90.4265 109.662ZM100.441 102.357C101.441 102.357 102.251 102.662 102.871 103.272C103.491 103.872 103.801 104.742 103.801 105.882V110.727H102.451V106.077C102.451 105.257 102.246 104.632 101.836 104.202C101.426 103.762 100.866 103.542 100.156 103.542C99.4363 103.542 98.8613 103.767 98.4313 104.217C98.0113 104.667 97.8013 105.322 97.8013 106.182V110.727H96.4363V102.507H97.8013V103.677C98.0713 103.257 98.4363 102.932 98.8963 102.702C99.3663 102.472 99.8813 102.357 100.441 102.357ZM105.521 106.587C105.521 105.747 105.691 105.012 106.031 104.382C106.371 103.742 106.836 103.247 107.426 102.897C108.026 102.547 108.691 102.372 109.421 102.372C110.141 102.372 110.766 102.527 111.296 102.837C111.826 103.147 112.221 103.537 112.481 104.007V102.507H113.861V110.727H112.481V109.197C112.211 109.677 111.806 110.077 111.266 110.397C110.736 110.707 110.116 110.862 109.406 110.862C108.676 110.862 108.016 110.682 107.426 110.322C106.836 109.962 106.371 109.457 106.031 108.807C105.691 108.157 105.521 107.417 105.521 106.587ZM112.481 106.602C112.481 105.982 112.356 105.442 112.106 104.982C111.856 104.522 111.516 104.172 111.086 103.932C110.666 103.682 110.201 103.557 109.691 103.557C109.181 103.557 108.716 103.677 108.296 103.917C107.876 104.157 107.541 104.507 107.291 104.967C107.041 105.427 106.916 105.967 106.916 106.587C106.916 107.217 107.041 107.767 107.291 108.237C107.541 108.697 107.876 109.052 108.296 109.302C108.716 109.542 109.181 109.662 109.691 109.662C110.201 109.662 110.666 109.542 111.086 109.302C111.516 109.052 111.856 108.697 112.106 108.237C112.356 107.767 112.481 107.222 112.481 106.602ZM117.533 99.6266V110.727H116.168V99.6266H117.533ZM127.173 110.832C126.483 110.832 125.863 110.712 125.313 110.472C124.773 110.222 124.348 109.882 124.038 109.452C123.728 109.012 123.568 108.507 123.558 107.937H125.013C125.063 108.427 125.263 108.842 125.613 109.182C125.973 109.512 126.493 109.677 127.173 109.677C127.823 109.677 128.333 109.517 128.703 109.197C129.083 108.867 129.273 108.447 129.273 107.937C129.273 107.537 129.163 107.212 128.943 106.962C128.723 106.712 128.448 106.522 128.118 106.392C127.788 106.262 127.343 106.122 126.783 105.972C126.093 105.792 125.538 105.612 125.118 105.432C124.708 105.252 124.353 104.972 124.053 104.592C123.763 104.202 123.618 103.682 123.618 103.032C123.618 102.462 123.763 101.957 124.053 101.517C124.343 101.077 124.748 100.737 125.268 100.497C125.798 100.257 126.403 100.137 127.083 100.137C128.063 100.137 128.863 100.382 129.483 100.872C130.113 101.362 130.468 102.012 130.548 102.822H129.048C128.998 102.422 128.788 102.072 128.418 101.772C128.048 101.462 127.558 101.307 126.948 101.307C126.378 101.307 125.913 101.457 125.553 101.757C125.193 102.047 125.013 102.457 125.013 102.987C125.013 103.367 125.118 103.677 125.328 103.917C125.548 104.157 125.813 104.342 126.123 104.472C126.443 104.592 126.888 104.732 127.458 104.892C128.148 105.082 128.703 105.272 129.123 105.462C129.543 105.642 129.903 105.927 130.203 106.317C130.503 106.697 130.653 107.217 130.653 107.877C130.653 108.387 130.518 108.867 130.248 109.317C129.978 109.767 129.578 110.132 129.048 110.412C128.518 110.692 127.893 110.832 127.173 110.832ZM139.952 102.507V110.727H138.587V109.512C138.327 109.932 137.962 110.262 137.492 110.502C137.032 110.732 136.522 110.847 135.962 110.847C135.322 110.847 134.747 110.717 134.237 110.457C133.727 110.187 133.322 109.787 133.022 109.257C132.732 108.727 132.587 108.082 132.587 107.322V102.507H133.937V107.142C133.937 107.952 134.142 108.577 134.552 109.017C134.962 109.447 135.522 109.662 136.232 109.662C136.962 109.662 137.537 109.437 137.957 108.987C138.377 108.537 138.587 107.882 138.587 107.022V102.507H139.952ZM141.747 106.602C141.747 105.752 141.917 105.012 142.257 104.382C142.597 103.742 143.067 103.247 143.667 102.897C144.277 102.547 144.972 102.372 145.752 102.372C146.762 102.372 147.592 102.617 148.242 103.107C148.902 103.597 149.337 104.277 149.547 105.147H148.077C147.937 104.647 147.662 104.252 147.252 103.962C146.852 103.672 146.352 103.527 145.752 103.527C144.972 103.527 144.342 103.797 143.862 104.337C143.382 104.867 143.142 105.622 143.142 106.602C143.142 107.592 143.382 108.357 143.862 108.897C144.342 109.437 144.972 109.707 145.752 109.707C146.352 109.707 146.852 109.567 147.252 109.287C147.652 109.007 147.927 108.607 148.077 108.087H149.547C149.327 108.927 148.887 109.602 148.227 110.112C147.567 110.612 146.742 110.862 145.752 110.862C144.972 110.862 144.277 110.687 143.667 110.337C143.067 109.987 142.597 109.492 142.257 108.852C141.917 108.212 141.747 107.462 141.747 106.602ZM150.858 106.602C150.858 105.752 151.028 105.012 151.368 104.382C151.708 103.742 152.178 103.247 152.778 102.897C153.388 102.547 154.083 102.372 154.863 102.372C155.873 102.372 156.703 102.617 157.353 103.107C158.013 103.597 158.448 104.277 158.658 105.147H157.188C157.048 104.647 156.773 104.252 156.363 103.962C155.963 103.672 155.463 103.527 154.863 103.527C154.083 103.527 153.453 103.797 152.973 104.337C152.493 104.867 152.253 105.622 152.253 106.602C152.253 107.592 152.493 108.357 152.973 108.897C153.453 109.437 154.083 109.707 154.863 109.707C155.463 109.707 155.963 109.567 156.363 109.287C156.763 109.007 157.038 108.607 157.188 108.087H158.658C158.438 108.927 157.998 109.602 157.338 110.112C156.678 110.612 155.853 110.862 154.863 110.862C154.083 110.862 153.388 110.687 152.778 110.337C152.178 109.987 151.708 109.492 151.368 108.852C151.028 108.212 150.858 107.462 150.858 106.602ZM167.979 106.302C167.979 106.562 167.964 106.837 167.934 107.127H161.364C161.414 107.937 161.689 108.572 162.189 109.032C162.699 109.482 163.314 109.707 164.034 109.707C164.624 109.707 165.114 109.572 165.504 109.302C165.904 109.022 166.184 108.652 166.344 108.192H167.814C167.594 108.982 167.154 109.627 166.494 110.127C165.834 110.617 165.014 110.862 164.034 110.862C163.254 110.862 162.554 110.687 161.934 110.337C161.324 109.987 160.844 109.492 160.494 108.852C160.144 108.202 159.969 107.452 159.969 106.602C159.969 105.752 160.139 105.007 160.479 104.367C160.819 103.727 161.294 103.237 161.904 102.897C162.524 102.547 163.234 102.372 164.034 102.372C164.814 102.372 165.504 102.542 166.104 102.882C166.704 103.222 167.164 103.692 167.484 104.292C167.814 104.882 167.979 105.552 167.979 106.302ZM166.569 106.017C166.569 105.497 166.454 105.052 166.224 104.682C165.994 104.302 165.679 104.017 165.279 103.827C164.889 103.627 164.454 103.527 163.974 103.527C163.284 103.527 162.694 103.747 162.204 104.187C161.724 104.627 161.449 105.237 161.379 106.017H166.569ZM172.691 110.862C172.061 110.862 171.496 110.757 170.996 110.547C170.496 110.327 170.101 110.027 169.811 109.647C169.521 109.257 169.361 108.812 169.331 108.312H170.741C170.781 108.722 170.971 109.057 171.311 109.317C171.661 109.577 172.116 109.707 172.676 109.707C173.196 109.707 173.606 109.592 173.906 109.362C174.206 109.132 174.356 108.842 174.356 108.492C174.356 108.132 174.196 107.867 173.876 107.697C173.556 107.517 173.061 107.342 172.391 107.172C171.781 107.012 171.281 106.852 170.891 106.692C170.511 106.522 170.181 106.277 169.901 105.957C169.631 105.627 169.496 105.197 169.496 104.667C169.496 104.247 169.621 103.862 169.871 103.512C170.121 103.162 170.476 102.887 170.936 102.687C171.396 102.477 171.921 102.372 172.511 102.372C173.421 102.372 174.156 102.602 174.716 103.062C175.276 103.522 175.576 104.152 175.616 104.952H174.251C174.221 104.522 174.046 104.177 173.726 103.917C173.416 103.657 172.996 103.527 172.466 103.527C171.976 103.527 171.586 103.632 171.296 103.842C171.006 104.052 170.861 104.327 170.861 104.667C170.861 104.937 170.946 105.162 171.116 105.342C171.296 105.512 171.516 105.652 171.776 105.762C172.046 105.862 172.416 105.977 172.886 106.107C173.476 106.267 173.956 106.427 174.326 106.587C174.696 106.737 175.011 106.967 175.271 107.277C175.541 107.587 175.681 107.992 175.691 108.492C175.691 108.942 175.566 109.347 175.316 109.707C175.066 110.067 174.711 110.352 174.251 110.562C173.801 110.762 173.281 110.862 172.691 110.862ZM180.528 110.862C179.898 110.862 179.333 110.757 178.833 110.547C178.333 110.327 177.938 110.027 177.648 109.647C177.358 109.257 177.198 108.812 177.168 108.312H178.578C178.618 108.722 178.808 109.057 179.148 109.317C179.498 109.577 179.953 109.707 180.513 109.707C181.033 109.707 181.443 109.592 181.743 109.362C182.043 109.132 182.193 108.842 182.193 108.492C182.193 108.132 182.033 107.867 181.713 107.697C181.393 107.517 180.898 107.342 180.228 107.172C179.618 107.012 179.118 106.852 178.728 106.692C178.348 106.522 178.018 106.277 177.738 105.957C177.468 105.627 177.333 105.197 177.333 104.667C177.333 104.247 177.458 103.862 177.708 103.512C177.958 103.162 178.313 102.887 178.773 102.687C179.233 102.477 179.758 102.372 180.348 102.372C181.258 102.372 181.993 102.602 182.553 103.062C183.113 103.522 183.413 104.152 183.453 104.952H182.088C182.058 104.522 181.883 104.177 181.563 103.917C181.253 103.657 180.833 103.527 180.303 103.527C179.813 103.527 179.423 103.632 179.133 103.842C178.843 104.052 178.698 104.327 178.698 104.667C178.698 104.937 178.783 105.162 178.953 105.342C179.133 105.512 179.353 105.652 179.613 105.762C179.883 105.862 180.253 105.977 180.723 106.107C181.313 106.267 181.793 106.427 182.163 106.587C182.533 106.737 182.848 106.967 183.108 107.277C183.378 107.587 183.518 107.992 183.528 108.492C183.528 108.942 183.403 109.347 183.153 109.707C182.903 110.067 182.548 110.352 182.088 110.562C181.638 110.762 181.118 110.862 180.528 110.862ZM200.059 100.347V110.727H198.694V102.987L195.244 110.727H194.284L190.819 102.972V110.727H189.454V100.347H190.924L194.764 108.927L198.604 100.347H200.059ZM201.864 106.587C201.864 105.747 202.034 105.012 202.374 104.382C202.714 103.742 203.179 103.247 203.769 102.897C204.369 102.547 205.034 102.372 205.764 102.372C206.484 102.372 207.109 102.527 207.639 102.837C208.169 103.147 208.564 103.537 208.824 104.007V102.507H210.204V110.727H208.824V109.197C208.554 109.677 208.149 110.077 207.609 110.397C207.079 110.707 206.459 110.862 205.749 110.862C205.019 110.862 204.359 110.682 203.769 110.322C203.179 109.962 202.714 109.457 202.374 108.807C202.034 108.157 201.864 107.417 201.864 106.587ZM208.824 106.602C208.824 105.982 208.699 105.442 208.449 104.982C208.199 104.522 207.859 104.172 207.429 103.932C207.009 103.682 206.544 103.557 206.034 103.557C205.524 103.557 205.059 103.677 204.639 103.917C204.219 104.157 203.884 104.507 203.634 104.967C203.384 105.427 203.259 105.967 203.259 106.587C203.259 107.217 203.384 107.767 203.634 108.237C203.884 108.697 204.219 109.052 204.639 109.302C205.059 109.542 205.524 109.662 206.034 109.662C206.544 109.662 207.009 109.542 207.429 109.302C207.859 109.052 208.199 108.697 208.449 108.237C208.699 107.767 208.824 107.222 208.824 106.602ZM216.515 102.357C217.515 102.357 218.325 102.662 218.945 103.272C219.565 103.872 219.875 104.742 219.875 105.882V110.727H218.525V106.077C218.525 105.257 218.32 104.632 217.91 104.202C217.5 103.762 216.94 103.542 216.23 103.542C215.51 103.542 214.935 103.767 214.505 104.217C214.085 104.667 213.875 105.322 213.875 106.182V110.727H212.51V102.507H213.875V103.677C214.145 103.257 214.51 102.932 214.97 102.702C215.44 102.472 215.955 102.357 216.515 102.357ZM221.595 106.587C221.595 105.747 221.765 105.012 222.105 104.382C222.445 103.742 222.91 103.247 223.5 102.897C224.1 102.547 224.765 102.372 225.495 102.372C226.215 102.372 226.84 102.527 227.37 102.837C227.9 103.147 228.295 103.537 228.555 104.007V102.507H229.935V110.727H228.555V109.197C228.285 109.677 227.88 110.077 227.34 110.397C226.81 110.707 226.19 110.862 225.48 110.862C224.75 110.862 224.09 110.682 223.5 110.322C222.91 109.962 222.445 109.457 222.105 108.807C221.765 108.157 221.595 107.417 221.595 106.587ZM228.555 106.602C228.555 105.982 228.43 105.442 228.18 104.982C227.93 104.522 227.59 104.172 227.16 103.932C226.74 103.682 226.275 103.557 225.765 103.557C225.255 103.557 224.79 103.677 224.37 103.917C223.95 104.157 223.615 104.507 223.365 104.967C223.115 105.427 222.99 105.967 222.99 106.587C222.99 107.217 223.115 107.767 223.365 108.237C223.615 108.697 223.95 109.052 224.37 109.302C224.79 109.542 225.255 109.662 225.765 109.662C226.275 109.662 226.74 109.542 227.16 109.302C227.59 109.052 227.93 108.697 228.18 108.237C228.43 107.767 228.555 107.222 228.555 106.602ZM235.632 102.372C236.342 102.372 236.962 102.527 237.492 102.837C238.032 103.147 238.432 103.537 238.692 104.007V102.507H240.072V110.907C240.072 111.657 239.912 112.322 239.592 112.902C239.272 113.492 238.812 113.952 238.212 114.282C237.622 114.612 236.932 114.777 236.142 114.777C235.062 114.777 234.162 114.522 233.442 114.012C232.722 113.502 232.297 112.807 232.167 111.927H233.517C233.667 112.427 233.977 112.827 234.447 113.127C234.917 113.437 235.482 113.592 236.142 113.592C236.892 113.592 237.502 113.357 237.972 112.887C238.452 112.417 238.692 111.757 238.692 110.907V109.182C238.422 109.662 238.022 110.062 237.492 110.382C236.962 110.702 236.342 110.862 235.632 110.862C234.902 110.862 234.237 110.682 233.637 110.322C233.047 109.962 232.582 109.457 232.242 108.807C231.902 108.157 231.732 107.417 231.732 106.587C231.732 105.747 231.902 105.012 232.242 104.382C232.582 103.742 233.047 103.247 233.637 102.897C234.237 102.547 234.902 102.372 235.632 102.372ZM238.692 106.602C238.692 105.982 238.567 105.442 238.317 104.982C238.067 104.522 237.727 104.172 237.297 103.932C236.877 103.682 236.412 103.557 235.902 103.557C235.392 103.557 234.927 103.677 234.507 103.917C234.087 104.157 233.752 104.507 233.502 104.967C233.252 105.427 233.127 105.967 233.127 106.587C233.127 107.217 233.252 107.767 233.502 108.237C233.752 108.697 234.087 109.052 234.507 109.302C234.927 109.542 235.392 109.662 235.902 109.662C236.412 109.662 236.877 109.542 237.297 109.302C237.727 109.052 238.067 108.697 238.317 108.237C238.567 107.767 238.692 107.222 238.692 106.602ZM249.879 106.302C249.879 106.562 249.864 106.837 249.834 107.127H243.264C243.314 107.937 243.589 108.572 244.089 109.032C244.599 109.482 245.214 109.707 245.934 109.707C246.524 109.707 247.014 109.572 247.404 109.302C247.804 109.022 248.084 108.652 248.244 108.192H249.714C249.494 108.982 249.054 109.627 248.394 110.127C247.734 110.617 246.914 110.862 245.934 110.862C245.154 110.862 244.454 110.687 243.834 110.337C243.224 109.987 242.744 109.492 242.394 108.852C242.044 108.202 241.869 107.452 241.869 106.602C241.869 105.752 242.039 105.007 242.379 104.367C242.719 103.727 243.194 103.237 243.804 102.897C244.424 102.547 245.134 102.372 245.934 102.372C246.714 102.372 247.404 102.542 248.004 102.882C248.604 103.222 249.064 103.692 249.384 104.292C249.714 104.882 249.879 105.552 249.879 106.302ZM248.469 106.017C248.469 105.497 248.354 105.052 248.124 104.682C247.894 104.302 247.579 104.017 247.179 103.827C246.789 103.627 246.354 103.527 245.874 103.527C245.184 103.527 244.594 103.747 244.104 104.187C243.624 104.627 243.349 105.237 243.279 106.017H248.469ZM253.045 103.842C253.285 103.372 253.625 103.007 254.065 102.747C254.515 102.487 255.06 102.357 255.7 102.357V103.767H255.34C253.81 103.767 253.045 104.597 253.045 106.257V110.727H251.68V102.507H253.045V103.842Z" fill="#142A3D"/>
<path d="M67.134 27.528C67.134 28.4227 66.9287 29.244 66.518 29.992C66.1073 30.7253 65.4767 31.3193 64.626 31.774C63.7753 32.2287 62.7193 32.456 61.458 32.456H59.126V38H55.364V22.556H61.458C62.69 22.556 63.7313 22.7687 64.582 23.194C65.4327 23.6193 66.0707 24.206 66.496 24.954C66.9213 25.702 67.134 26.56 67.134 27.528ZM61.172 29.464C61.8907 29.464 62.426 29.2953 62.778 28.958C63.13 28.6207 63.306 28.144 63.306 27.528C63.306 26.912 63.13 26.4353 62.778 26.098C62.426 25.7607 61.8907 25.592 61.172 25.592H59.126V29.464H61.172ZM76.9685 38L73.7565 32.17H72.8545V38H69.0925V22.556H75.4065C76.6238 22.556 77.6578 22.7687 78.5085 23.194C79.3738 23.6193 80.0192 24.206 80.4445 24.954C80.8698 25.6873 81.0825 26.5087 81.0825 27.418C81.0825 28.4447 80.7892 29.3613 80.2025 30.168C79.6305 30.9747 78.7798 31.5467 77.6505 31.884L81.2145 38H76.9685ZM72.8545 29.508H75.1865C75.8758 29.508 76.3892 29.3393 76.7265 29.002C77.0785 28.6647 77.2545 28.188 77.2545 27.572C77.2545 26.9853 77.0785 26.5233 76.7265 26.186C76.3892 25.8487 75.8758 25.68 75.1865 25.68H72.8545V29.508ZM87.2061 25.57V28.694H92.2441V31.598H87.2061V34.986H92.9041V38H83.4441V22.556H92.9041V25.57H87.2061ZM112.836 22.556V38H109.074V28.738L105.62 38H102.584L99.1084 28.716V38H95.3464V22.556H99.7904L104.124 33.248L108.414 22.556H112.836ZM119.304 22.556V38H115.542V22.556H119.304ZM125.726 22.556V31.796C125.726 32.72 125.953 33.4313 126.408 33.93C126.863 34.4287 127.53 34.678 128.41 34.678C129.29 34.678 129.965 34.4287 130.434 33.93C130.903 33.4313 131.138 32.72 131.138 31.796V22.556H134.9V31.774C134.9 33.1527 134.607 34.3187 134.02 35.272C133.433 36.2253 132.641 36.944 131.644 37.428C130.661 37.912 129.561 38.154 128.344 38.154C127.127 38.154 126.034 37.9193 125.066 37.45C124.113 36.966 123.357 36.2473 122.8 35.294C122.243 34.326 121.964 33.1527 121.964 31.774V22.556H125.726ZM155.032 22.556V38H151.27V28.738L147.816 38H144.78L141.304 28.716V38H137.542V22.556H141.986L146.32 33.248L150.61 22.556H155.032Z" fill="#142A3D"/>
<g filter="url(#filter0_ii_4915_12657)">
<rect x="165.266" y="18.7266" width="75" height="22" rx="4" fill="url(#paint0_linear_4915_12657)"/>
<path opacity="0.96" d="M174.024 34.2266V25.4993H177.518C178.161 25.4993 178.696 25.5945 179.125 25.7848C179.554 25.9751 179.876 26.2393 180.092 26.5774C180.308 26.9126 180.416 27.299 180.416 27.7365C180.416 28.0774 180.348 28.3771 180.212 28.6357C180.075 28.8913 179.888 29.1016 179.649 29.2663C179.413 29.4283 179.143 29.5433 178.839 29.6115V29.6967C179.172 29.7109 179.483 29.8047 179.773 29.978C180.065 30.1513 180.303 30.3942 180.484 30.7067C180.666 31.0163 180.757 31.3857 180.757 31.8146C180.757 32.2777 180.642 32.6911 180.412 33.0547C180.185 33.4155 179.848 33.701 179.402 33.9112C178.956 34.1214 178.406 34.2266 177.753 34.2266H174.024ZM175.869 32.718H177.374C177.888 32.718 178.263 32.62 178.499 32.424C178.734 32.2251 178.852 31.9609 178.852 31.6314C178.852 31.3899 178.794 31.1768 178.678 30.9922C178.561 30.8075 178.395 30.6626 178.179 30.5575C177.966 30.4524 177.712 30.3999 177.416 30.3999H175.869V32.718ZM175.869 29.1513H177.237C177.49 29.1513 177.714 29.1072 177.911 29.0192C178.109 28.9283 178.266 28.8004 178.379 28.6357C178.496 28.4709 178.554 28.2734 178.554 28.0433C178.554 27.728 178.442 27.4737 178.217 27.2805C177.996 27.0874 177.68 26.9908 177.271 26.9908H175.869V29.1513ZM184.907 34.3544C184.233 34.3544 183.654 34.218 183.168 33.9453C182.685 33.6697 182.313 33.2805 182.051 32.7777C181.79 32.272 181.659 31.674 181.659 30.9837C181.659 30.3104 181.79 29.7195 182.051 29.2109C182.313 28.7024 182.681 28.3061 183.155 28.022C183.632 27.7379 184.192 27.5959 184.834 27.5959C185.266 27.5959 185.668 27.6655 186.04 27.8047C186.415 27.9411 186.742 28.147 187.02 28.4226C187.301 28.6982 187.52 29.0447 187.676 29.4624C187.833 29.8771 187.911 30.3629 187.911 30.9197V31.4183H182.384V30.2933H186.202C186.202 30.032 186.145 29.8004 186.032 29.5987C185.918 29.397 185.76 29.2393 185.559 29.1257C185.36 29.0092 185.128 28.951 184.864 28.951C184.588 28.951 184.344 29.0149 184.131 29.1428C183.921 29.2678 183.756 29.4368 183.637 29.6499C183.517 29.8601 183.456 30.0945 183.453 30.353V31.4226C183.453 31.7464 183.513 32.0263 183.632 32.2621C183.755 32.4979 183.926 32.6797 184.148 32.8075C184.37 32.9354 184.632 32.9993 184.936 32.9993C185.138 32.9993 185.323 32.9709 185.49 32.9141C185.658 32.8572 185.801 32.772 185.921 32.6584C186.04 32.5447 186.131 32.4055 186.194 32.2408L187.873 32.3516C187.787 32.755 187.613 33.1072 187.348 33.4084C187.087 33.7067 186.749 33.9396 186.334 34.1072C185.922 34.272 185.446 34.3544 184.907 34.3544ZM194.542 29.5476L192.88 29.6499C192.851 29.5078 192.79 29.38 192.696 29.2663C192.603 29.1499 192.479 29.0575 192.326 28.9893C192.175 28.9183 191.995 28.8828 191.784 28.8828C191.503 28.8828 191.266 28.9425 191.073 29.0618C190.88 29.1783 190.783 29.3345 190.783 29.5305C190.783 29.6868 190.846 29.8189 190.971 29.9268C191.096 30.0348 191.31 30.1214 191.614 30.1868L192.799 30.4254C193.435 30.5561 193.909 30.7663 194.222 31.0561C194.534 31.3459 194.691 31.7266 194.691 32.1982C194.691 32.6271 194.564 33.0036 194.311 33.3274C194.061 33.6513 193.718 33.9041 193.28 34.0859C192.846 34.2649 192.344 34.3544 191.776 34.3544C190.909 34.3544 190.219 34.174 189.705 33.8132C189.194 33.4496 188.894 32.9553 188.806 32.3303L190.591 32.2365C190.645 32.5007 190.776 32.7024 190.983 32.8416C191.191 32.978 191.456 33.0462 191.78 33.0462C192.098 33.0462 192.354 32.9851 192.547 32.8629C192.743 32.7379 192.843 32.5774 192.846 32.3814C192.843 32.2166 192.773 32.0817 192.637 31.9766C192.5 31.8686 192.29 31.7862 192.006 31.7294L190.873 31.5036C190.233 31.3757 189.757 31.1541 189.445 30.8388C189.135 30.5234 188.98 30.1214 188.98 29.6328C188.98 29.2124 189.094 28.8501 189.321 28.5462C189.551 28.2422 189.874 28.0078 190.289 27.843C190.706 27.6783 191.195 27.5959 191.755 27.5959C192.581 27.5959 193.232 27.7706 193.706 28.12C194.184 28.4695 194.462 28.9453 194.542 29.5476ZM199.315 27.6811V29.0447H195.374V27.6811H199.315ZM196.268 26.1129H198.084V32.2152C198.084 32.3828 198.109 32.5135 198.161 32.6072C198.212 32.6982 198.283 32.7621 198.374 32.799C198.467 32.8359 198.575 32.8544 198.697 32.8544C198.783 32.8544 198.868 32.8473 198.953 32.8331C199.038 32.8161 199.104 32.8033 199.149 32.7947L199.435 34.1456C199.344 34.174 199.216 34.2067 199.051 34.2436C198.886 34.2834 198.686 34.3075 198.45 34.3161C198.013 34.3331 197.629 34.2749 197.3 34.1413C196.973 34.0078 196.719 33.8004 196.537 33.5192C196.355 33.2379 196.266 32.8828 196.268 32.4538V26.1129ZM204.886 25.4993L206.995 32.13H207.076L209.19 25.4993H211.235L208.227 34.2266H205.849L202.836 25.4993H204.886ZM213.392 34.3501C212.974 34.3501 212.602 34.2777 212.275 34.1328C211.949 33.9851 211.69 33.7678 211.5 33.4808C211.312 33.1911 211.218 32.8303 211.218 32.3984C211.218 32.0348 211.285 31.7294 211.419 31.4822C211.552 31.2351 211.734 31.0362 211.964 30.8857C212.194 30.7351 212.456 30.6214 212.748 30.5447C213.044 30.468 213.353 30.4141 213.677 30.3828C214.058 30.343 214.365 30.3061 214.598 30.272C214.831 30.2351 215 30.1811 215.105 30.1101C215.21 30.0391 215.262 29.9339 215.262 29.7947V29.7692C215.262 29.4993 215.177 29.2905 215.007 29.1428C214.839 28.995 214.6 28.9212 214.291 28.9212C213.964 28.9212 213.704 28.9936 213.511 29.1385C213.318 29.2805 213.19 29.4595 213.127 29.6754L211.449 29.5391C211.534 29.1413 211.701 28.7976 211.951 28.5078C212.201 28.2152 212.524 27.9908 212.919 27.8345C213.316 27.6754 213.777 27.5959 214.299 27.5959C214.663 27.5959 215.011 27.6385 215.343 27.7237C215.679 27.8089 215.975 27.9411 216.234 28.12C216.495 28.299 216.701 28.5291 216.852 28.8104C217.002 29.0888 217.078 29.4226 217.078 29.8118V34.2266H215.356V33.3189H215.305C215.2 33.5234 215.059 33.7038 214.883 33.8601C214.707 34.0135 214.495 34.1342 214.248 34.2223C214.001 34.3075 213.716 34.3501 213.392 34.3501ZM213.912 33.0973C214.179 33.0973 214.414 33.0447 214.619 32.9396C214.824 32.8317 214.984 32.6868 215.1 32.505C215.217 32.3232 215.275 32.1172 215.275 31.8871V31.1925C215.218 31.2294 215.14 31.2635 215.041 31.2947C214.944 31.3232 214.835 31.3501 214.713 31.3757C214.591 31.3984 214.468 31.4197 214.346 31.4396C214.224 31.4567 214.113 31.4723 214.014 31.4865C213.801 31.5178 213.615 31.5675 213.456 31.6357C213.297 31.7038 213.173 31.7962 213.085 31.9126C212.997 32.0263 212.953 32.1683 212.953 32.3388C212.953 32.5859 213.042 32.7749 213.221 32.9055C213.403 33.0334 213.633 33.0973 213.912 33.0973ZM220.301 25.4993V34.2266H218.486V25.4993H220.301ZM225.953 31.4396V27.6811H227.768V34.2266H226.026V33.0376H225.957C225.81 33.4212 225.564 33.7294 225.22 33.9624C224.879 34.1953 224.463 34.3118 223.972 34.3118C223.534 34.3118 223.149 34.2124 222.817 34.0135C222.484 33.8146 222.224 33.532 222.037 33.1655C221.852 32.799 221.759 32.3601 221.756 31.8487V27.6811H223.571V31.5249C223.574 31.9112 223.678 32.2166 223.882 32.4411C224.087 32.6655 224.361 32.7777 224.705 32.7777C224.923 32.7777 225.128 32.728 225.318 32.6286C225.509 32.5263 225.662 32.3757 225.778 32.1768C225.898 31.978 225.956 31.7322 225.953 31.4396ZM232.203 34.3544C231.53 34.3544 230.951 34.218 230.465 33.9453C229.982 33.6697 229.61 33.2805 229.348 32.7777C229.087 32.272 228.956 31.674 228.956 30.9837C228.956 30.3104 229.087 29.7195 229.348 29.2109C229.61 28.7024 229.978 28.3061 230.452 28.022C230.929 27.7379 231.489 27.5959 232.131 27.5959C232.563 27.5959 232.965 27.6655 233.337 27.8047C233.712 27.9411 234.039 28.147 234.317 28.4226C234.598 28.6982 234.817 29.0447 234.973 29.4624C235.13 29.8771 235.208 30.3629 235.208 30.9197V31.4183H229.681V30.2933H233.499C233.499 30.032 233.442 29.8004 233.328 29.5987C233.215 29.397 233.057 29.2393 232.855 29.1257C232.657 29.0092 232.425 28.951 232.161 28.951C231.885 28.951 231.641 29.0149 231.428 29.1428C231.218 29.2678 231.053 29.4368 230.934 29.6499C230.814 29.8601 230.753 30.0945 230.75 30.353V31.4226C230.75 31.7464 230.81 32.0263 230.929 32.2621C231.051 32.4979 231.223 32.6797 231.445 32.8075C231.667 32.9354 231.929 32.9993 232.233 32.9993C232.435 32.9993 232.62 32.9709 232.787 32.9141C232.955 32.8572 233.098 32.772 233.218 32.6584C233.337 32.5447 233.428 32.4055 233.49 32.2408L235.169 32.3516C235.084 32.755 234.909 33.1072 234.645 33.4084C234.384 33.7067 234.046 33.9396 233.631 34.1072C233.219 34.272 232.743 34.3544 232.203 34.3544Z" fill="#272727"/>
</g>
<defs>
<filter id="filter0_ii_4915_12657" x="165.266" y="16.7266" width="75" height="38" filterUnits="userSpaceOnUse" color-interpolation-filters="sRGB">
<feFlood flood-opacity="0" result="BackgroundImageFix"/>
<feBlend mode="normal" in="SourceGraphic" in2="BackgroundImageFix" result="shape"/>
<feColorMatrix in="SourceAlpha" type="matrix" values="0 0 0 0 0 0 0 0 0 0 0 0 0 0 0 0 0 0 127 0" result="hardAlpha"/>
<feOffset dy="14"/>
<feGaussianBlur stdDeviation="7"/>
<feComposite in2="hardAlpha" operator="arithmetic" k2="-1" k3="1"/>
<feColorMatrix type="matrix" values="0 0 0 0 1 0 0 0 0 0.980392 0 0 0 0 0.811765 0 0 0 0.73 0"/>
<feBlend mode="normal" in2="shape" result="effect1_innerShadow_4915_12657"/>
<feColorMatrix in="SourceAlpha" type="matrix" values="0 0 0 0 0 0 0 0 0 0 0 0 0 0 0 0 0 0 127 0" result="hardAlpha"/>
<feOffset dy="-2"/>
<feGaussianBlur stdDeviation="10.5"/>
<feComposite in2="hardAlpha" operator="arithmetic" k2="-1" k3="1"/>
<feColorMatrix type="matrix" values="0 0 0 0 0.54902 0 0 0 0 0.305882 0 0 0 0 0.0784314 0 0 0 0.25 0"/>
<feBlend mode="normal" in2="effect1_innerShadow_4915_12657" result="effect2_innerShadow_4915_12657"/>
</filter>
<linearGradient id="paint0_linear_4915_12657" x1="185.202" y1="18.7266" x2="238.425" y2="48.4254" gradientUnits="userSpaceOnUse">
<stop stop-color="#FFED8C"/>
<stop offset="1" stop-color="#F4B335"/>
</linearGradient>
</defs>
</svg>
