<svg width="357" height="115" viewBox="0 0 357 115" fill="none" xmlns="http://www.w3.org/2000/svg">
<rect width="357" height="115" fill="#FAFAFA" fill-opacity="0.21"/>
<rect x="0.5" y="0.5" width="356" height="114" stroke="#A3A2A2" stroke-opacity="0.4"/>
<path d="M26.552 42.384C26.552 43.0347 26.4027 43.632 26.104 44.176C25.8053 44.7093 25.3467 45.1413 24.728 45.472C24.1093 45.8027 23.3413 45.968 22.424 45.968H20.728V50H17.992V38.768H22.424C23.32 38.768 24.0773 38.9227 24.696 39.232C25.3147 39.5413 25.7787 39.968 26.088 40.512C26.3973 41.056 26.552 41.68 26.552 42.384ZM22.216 43.792C22.7387 43.792 23.128 43.6693 23.384 43.424C23.64 43.1787 23.768 42.832 23.768 42.384C23.768 41.936 23.64 41.5893 23.384 41.344C23.128 41.0987 22.7387 40.976 22.216 40.976H20.728V43.792H22.216ZM33.7044 50L31.3684 45.76H30.7124V50H27.9764V38.768H32.5684C33.4537 38.768 34.2057 38.9227 34.8244 39.232C35.4537 39.5413 35.923 39.968 36.2324 40.512C36.5417 41.0453 36.6964 41.6427 36.6964 42.304C36.6964 43.0507 36.483 43.7173 36.0564 44.304C35.6404 44.8907 35.0217 45.3067 34.2004 45.552L36.7924 50H33.7044ZM30.7124 43.824H32.4084C32.9097 43.824 33.283 43.7013 33.5284 43.456C33.7844 43.2107 33.9124 42.864 33.9124 42.416C33.9124 41.9893 33.7844 41.6533 33.5284 41.408C33.283 41.1627 32.9097 41.04 32.4084 41.04H30.7124V43.824ZM43.7259 50.112C42.6699 50.112 41.6992 49.8667 40.8139 49.376C39.9392 48.8853 39.2405 48.2027 38.7179 47.328C38.2059 46.4427 37.9499 45.4507 37.9499 44.352C37.9499 43.2533 38.2059 42.2667 38.7179 41.392C39.2405 40.5173 39.9392 39.8347 40.8139 39.344C41.6992 38.8533 42.6699 38.608 43.7259 38.608C44.7819 38.608 45.7472 38.8533 46.6219 39.344C47.5072 39.8347 48.2005 40.5173 48.7019 41.392C49.2139 42.2667 49.4699 43.2533 49.4699 44.352C49.4699 45.4507 49.2139 46.4427 48.7019 47.328C48.1899 48.2027 47.4965 48.8853 46.6219 49.376C45.7472 49.8667 44.7819 50.112 43.7259 50.112ZM43.7259 47.616C44.6219 47.616 45.3365 47.3173 45.8699 46.72C46.4139 46.1227 46.6859 45.3333 46.6859 44.352C46.6859 43.36 46.4139 42.5707 45.8699 41.984C45.3365 41.3867 44.6219 41.088 43.7259 41.088C42.8192 41.088 42.0939 41.3813 41.5499 41.968C41.0165 42.5547 40.7499 43.3493 40.7499 44.352C40.7499 45.344 41.0165 46.1387 41.5499 46.736C42.0939 47.3227 42.8192 47.616 43.7259 47.616Z" fill="#142A3D"/>
<path d="M21.768 62.424V63.016H19.344V64.896H21.312V65.488H19.344V68H18.616V62.424H21.768ZM23.0233 62.904C22.8846 62.904 22.7673 62.856 22.6713 62.76C22.5753 62.664 22.5273 62.5467 22.5273 62.408C22.5273 62.2693 22.5753 62.152 22.6713 62.056C22.7673 61.96 22.8846 61.912 23.0233 61.912C23.1566 61.912 23.2686 61.96 23.3593 62.056C23.4553 62.152 23.5033 62.2693 23.5033 62.408C23.5033 62.5467 23.4553 62.664 23.3593 62.76C23.2686 62.856 23.1566 62.904 23.0233 62.904ZM23.3753 63.616V68H22.6473V63.616H23.3753ZM25.504 64.216V66.8C25.504 67.0133 25.5493 67.1653 25.64 67.256C25.7307 67.3413 25.888 67.384 26.112 67.384H26.648V68H25.992C25.5867 68 25.2827 67.9067 25.08 67.72C24.8773 67.5333 24.776 67.2267 24.776 66.8V64.216H24.208V63.616H24.776V62.512H25.504V63.616H26.648V64.216H25.504ZM29.6661 63.536C30.1994 63.536 30.6314 63.6987 30.9621 64.024C31.2927 64.344 31.4581 64.808 31.4581 65.416V68H30.7381V65.52C30.7381 65.0827 30.6287 64.7493 30.4101 64.52C30.1914 64.2853 29.8927 64.168 29.5141 64.168C29.1301 64.168 28.8234 64.288 28.5941 64.528C28.3701 64.768 28.2581 65.1173 28.2581 65.576V68H27.5301V63.616H28.2581V64.24C28.4021 64.016 28.5967 63.8427 28.8421 63.72C29.0927 63.5973 29.3674 63.536 29.6661 63.536ZM36.6473 65.64C36.6473 65.7787 36.6393 65.9253 36.6233 66.08H33.1193C33.1459 66.512 33.2926 66.8507 33.5593 67.096C33.8313 67.336 34.1593 67.456 34.5433 67.456C34.8579 67.456 35.1193 67.384 35.3273 67.24C35.5406 67.0907 35.6899 66.8933 35.7753 66.648H36.5593C36.4419 67.0693 36.2073 67.4133 35.8553 67.68C35.5033 67.9413 35.0659 68.072 34.5433 68.072C34.1273 68.072 33.7539 67.9787 33.4233 67.792C33.0979 67.6053 32.8419 67.3413 32.6553 67C32.4686 66.6533 32.3753 66.2533 32.3753 65.8C32.3753 65.3467 32.4659 64.9493 32.6473 64.608C32.8286 64.2667 33.0819 64.0053 33.4073 63.824C33.7379 63.6373 34.1166 63.544 34.5433 63.544C34.9593 63.544 35.3273 63.6347 35.6473 63.816C35.9673 63.9973 36.2126 64.248 36.3833 64.568C36.5593 64.8827 36.6473 65.24 36.6473 65.64ZM35.8953 65.488C35.8953 65.2107 35.8339 64.9733 35.7113 64.776C35.5886 64.5733 35.4206 64.4213 35.2073 64.32C34.9993 64.2133 34.7673 64.16 34.5113 64.16C34.1433 64.16 33.8286 64.2773 33.5673 64.512C33.3113 64.7467 33.1646 65.072 33.1273 65.488H35.8953ZM39.1602 68.072C38.8242 68.072 38.5229 68.016 38.2562 67.904C37.9895 67.7867 37.7789 67.6267 37.6242 67.424C37.4695 67.216 37.3842 66.9787 37.3682 66.712H38.1202C38.1415 66.9307 38.2429 67.1093 38.4242 67.248C38.6109 67.3867 38.8535 67.456 39.1522 67.456C39.4295 67.456 39.6482 67.3947 39.8082 67.272C39.9682 67.1493 40.0482 66.9947 40.0482 66.808C40.0482 66.616 39.9629 66.4747 39.7922 66.384C39.6215 66.288 39.3575 66.1947 39.0002 66.104C38.6749 66.0187 38.4082 65.9333 38.2002 65.848C37.9975 65.7573 37.8215 65.6267 37.6722 65.456C37.5282 65.28 37.4562 65.0507 37.4562 64.768C37.4562 64.544 37.5229 64.3387 37.6562 64.152C37.7895 63.9653 37.9789 63.8187 38.2242 63.712C38.4695 63.6 38.7495 63.544 39.0642 63.544C39.5495 63.544 39.9415 63.6667 40.2402 63.912C40.5389 64.1573 40.6989 64.4933 40.7202 64.92H39.9922C39.9762 64.6907 39.8829 64.5067 39.7122 64.368C39.5469 64.2293 39.3229 64.16 39.0402 64.16C38.7789 64.16 38.5709 64.216 38.4162 64.328C38.2615 64.44 38.1842 64.5867 38.1842 64.768C38.1842 64.912 38.2295 65.032 38.3202 65.128C38.4162 65.2187 38.5335 65.2933 38.6722 65.352C38.8162 65.4053 39.0135 65.4667 39.2642 65.536C39.5789 65.6213 39.8349 65.7067 40.0322 65.792C40.2295 65.872 40.3975 65.9947 40.5362 66.16C40.6802 66.3253 40.7549 66.5413 40.7602 66.808C40.7602 67.048 40.6935 67.264 40.5602 67.456C40.4269 67.648 40.2375 67.8 39.9922 67.912C39.7522 68.0187 39.4749 68.072 39.1602 68.072ZM43.3399 68.072C43.0039 68.072 42.7025 68.016 42.4359 67.904C42.1692 67.7867 41.9585 67.6267 41.8039 67.424C41.6492 67.216 41.5639 66.9787 41.5479 66.712H42.2999C42.3212 66.9307 42.4225 67.1093 42.6039 67.248C42.7905 67.3867 43.0332 67.456 43.3319 67.456C43.6092 67.456 43.8279 67.3947 43.9879 67.272C44.1479 67.1493 44.2279 66.9947 44.2279 66.808C44.2279 66.616 44.1425 66.4747 43.9719 66.384C43.8012 66.288 43.5372 66.1947 43.1799 66.104C42.8545 66.0187 42.5879 65.9333 42.3799 65.848C42.1772 65.7573 42.0012 65.6267 41.8519 65.456C41.7079 65.28 41.6359 65.0507 41.6359 64.768C41.6359 64.544 41.7025 64.3387 41.8359 64.152C41.9692 63.9653 42.1585 63.8187 42.4039 63.712C42.6492 63.6 42.9292 63.544 43.2439 63.544C43.7292 63.544 44.1212 63.6667 44.4199 63.912C44.7185 64.1573 44.8785 64.4933 44.8999 64.92H44.1719C44.1559 64.6907 44.0625 64.5067 43.8919 64.368C43.7265 64.2293 43.5025 64.16 43.2199 64.16C42.9585 64.16 42.7505 64.216 42.5959 64.328C42.4412 64.44 42.3639 64.5867 42.3639 64.768C42.3639 64.912 42.4092 65.032 42.4999 65.128C42.5959 65.2187 42.7132 65.2933 42.8519 65.352C42.9959 65.4053 43.1932 65.4667 43.4439 65.536C43.7585 65.6213 44.0145 65.7067 44.2119 65.792C44.4092 65.872 44.5772 65.9947 44.7159 66.16C44.8599 66.3253 44.9345 66.5413 44.9399 66.808C44.9399 67.048 44.8732 67.264 44.7399 67.456C44.6065 67.648 44.4172 67.8 44.1719 67.912C43.9319 68.0187 43.6545 68.072 43.3399 68.072ZM52.3804 68L51.6524 67.264C51.3804 67.5467 51.0897 67.7573 50.7804 67.896C50.471 68.0293 50.1217 68.096 49.7324 68.096C49.3484 68.096 49.007 68.0267 48.7084 67.888C48.415 67.7493 48.1857 67.552 48.0204 67.296C47.8604 67.04 47.7804 66.7413 47.7804 66.4C47.7804 66.0107 47.8897 65.6693 48.1084 65.376C48.3324 65.0773 48.6604 64.8427 49.0924 64.672C48.9217 64.4693 48.799 64.2827 48.7244 64.112C48.6497 63.9413 48.6124 63.7547 48.6124 63.552C48.6124 63.3173 48.671 63.1067 48.7884 62.92C48.911 62.728 49.0844 62.5787 49.3084 62.472C49.5324 62.3653 49.791 62.312 50.0844 62.312C50.3724 62.312 50.623 62.368 50.8364 62.48C51.0497 62.592 51.2097 62.7493 51.3164 62.952C51.423 63.1493 51.471 63.3707 51.4604 63.616H50.7324C50.7377 63.3973 50.6764 63.2267 50.5484 63.104C50.4204 62.976 50.255 62.912 50.0524 62.912C49.839 62.912 49.6657 62.9733 49.5324 63.096C49.4044 63.2133 49.3404 63.3653 49.3404 63.552C49.3404 63.712 49.383 63.8667 49.4684 64.016C49.559 64.1653 49.7084 64.3493 49.9164 64.568L51.5804 66.24L51.7244 66.016L52.2684 65.104H53.0524L52.3964 66.24C52.3057 66.4 52.199 66.568 52.0764 66.744L53.3324 68H52.3804ZM49.7324 67.472C50.0204 67.472 50.279 67.416 50.5084 67.304C50.743 67.192 50.9644 67.0187 51.1724 66.784L49.5324 65.136C48.8497 65.3973 48.5084 65.8107 48.5084 66.376C48.5084 66.6907 48.6204 66.952 48.8444 67.16C49.0737 67.368 49.3697 67.472 49.7324 67.472ZM63.1553 62.424L61.5393 68H60.7233L59.4273 63.512L58.0833 68L57.2753 68.008L55.7153 62.424H56.4913L57.7073 67.152L59.0513 62.424H59.8673L61.1473 67.136L62.3713 62.424H63.1553ZM67.9519 65.64C67.9519 65.7787 67.9439 65.9253 67.9279 66.08H64.4239C64.4506 66.512 64.5973 66.8507 64.8639 67.096C65.1359 67.336 65.4639 67.456 65.8479 67.456C66.1626 67.456 66.4239 67.384 66.6319 67.24C66.8453 67.0907 66.9946 66.8933 67.0799 66.648H67.8639C67.7466 67.0693 67.5119 67.4133 67.1599 67.68C66.8079 67.9413 66.3706 68.072 65.8479 68.072C65.4319 68.072 65.0586 67.9787 64.7279 67.792C64.4026 67.6053 64.1466 67.3413 63.9599 67C63.7733 66.6533 63.6799 66.2533 63.6799 65.8C63.6799 65.3467 63.7706 64.9493 63.9519 64.608C64.1333 64.2667 64.3866 64.0053 64.7119 63.824C65.0426 63.6373 65.4213 63.544 65.8479 63.544C66.2639 63.544 66.6319 63.6347 66.9519 63.816C67.2719 63.9973 67.5173 64.248 67.6879 64.568C67.8639 64.8827 67.9519 65.24 67.9519 65.64ZM67.1999 65.488C67.1999 65.2107 67.1386 64.9733 67.0159 64.776C66.8933 64.5733 66.7253 64.4213 66.5119 64.32C66.3039 64.2133 66.0719 64.16 65.8159 64.16C65.4479 64.16 65.1333 64.2773 64.8719 64.512C64.6159 64.7467 64.4693 65.072 64.4319 65.488H67.1999ZM69.6409 62.08V68H68.9129V62.08H69.6409ZM71.6096 62.08V68H70.8816V62.08H71.6096ZM74.9864 63.536C75.5197 63.536 75.9517 63.6987 76.2824 64.024C76.613 64.344 76.7784 64.808 76.7784 65.416V68H76.0584V65.52C76.0584 65.0827 75.949 64.7493 75.7304 64.52C75.5117 64.2853 75.213 64.168 74.8344 64.168C74.4504 64.168 74.1437 64.288 73.9144 64.528C73.6904 64.768 73.5784 65.1173 73.5784 65.576V68H72.8504V63.616H73.5784V64.24C73.7224 64.016 73.917 63.8427 74.1624 63.72C74.413 63.5973 74.6877 63.536 74.9864 63.536ZM81.9676 65.64C81.9676 65.7787 81.9596 65.9253 81.9436 66.08H78.4396C78.4662 66.512 78.6129 66.8507 78.8796 67.096C79.1516 67.336 79.4796 67.456 79.8636 67.456C80.1782 67.456 80.4396 67.384 80.6476 67.24C80.8609 67.0907 81.0102 66.8933 81.0956 66.648H81.8796C81.7622 67.0693 81.5276 67.4133 81.1756 67.68C80.8236 67.9413 80.3862 68.072 79.8636 68.072C79.4476 68.072 79.0742 67.9787 78.7436 67.792C78.4182 67.6053 78.1622 67.3413 77.9756 67C77.7889 66.6533 77.6956 66.2533 77.6956 65.8C77.6956 65.3467 77.7862 64.9493 77.9676 64.608C78.1489 64.2667 78.4022 64.0053 78.7276 63.824C79.0582 63.6373 79.4369 63.544 79.8636 63.544C80.2796 63.544 80.6476 63.6347 80.9676 63.816C81.2876 63.9973 81.5329 64.248 81.7036 64.568C81.8796 64.8827 81.9676 65.24 81.9676 65.64ZM81.2156 65.488C81.2156 65.2107 81.1542 64.9733 81.0316 64.776C80.9089 64.5733 80.7409 64.4213 80.5276 64.32C80.3196 64.2133 80.0876 64.16 79.8316 64.16C79.4636 64.16 79.1489 64.2773 78.8876 64.512C78.6316 64.7467 78.4849 65.072 78.4476 65.488H81.2156ZM84.4805 68.072C84.1445 68.072 83.8432 68.016 83.5765 67.904C83.3098 67.7867 83.0992 67.6267 82.9445 67.424C82.7898 67.216 82.7045 66.9787 82.6885 66.712H83.4405C83.4618 66.9307 83.5632 67.1093 83.7445 67.248C83.9312 67.3867 84.1738 67.456 84.4725 67.456C84.7498 67.456 84.9685 67.3947 85.1285 67.272C85.2885 67.1493 85.3685 66.9947 85.3685 66.808C85.3685 66.616 85.2832 66.4747 85.1125 66.384C84.9418 66.288 84.6778 66.1947 84.3205 66.104C83.9952 66.0187 83.7285 65.9333 83.5205 65.848C83.3178 65.7573 83.1418 65.6267 82.9925 65.456C82.8485 65.28 82.7765 65.0507 82.7765 64.768C82.7765 64.544 82.8432 64.3387 82.9765 64.152C83.1098 63.9653 83.2992 63.8187 83.5445 63.712C83.7898 63.6 84.0698 63.544 84.3845 63.544C84.8698 63.544 85.2618 63.6667 85.5605 63.912C85.8592 64.1573 86.0192 64.4933 86.0405 64.92H85.3125C85.2965 64.6907 85.2032 64.5067 85.0325 64.368C84.8672 64.2293 84.6432 64.16 84.3605 64.16C84.0992 64.16 83.8912 64.216 83.7365 64.328C83.5818 64.44 83.5045 64.5867 83.5045 64.768C83.5045 64.912 83.5498 65.032 83.6405 65.128C83.7365 65.2187 83.8538 65.2933 83.9925 65.352C84.1365 65.4053 84.3338 65.4667 84.5845 65.536C84.8992 65.6213 85.1552 65.7067 85.3525 65.792C85.5498 65.872 85.7178 65.9947 85.8565 66.16C86.0005 66.3253 86.0752 66.5413 86.0805 66.808C86.0805 67.048 86.0138 67.264 85.8805 67.456C85.7472 67.648 85.5578 67.8 85.3125 67.912C85.0725 68.0187 84.7952 68.072 84.4805 68.072ZM88.6602 68.072C88.3242 68.072 88.0229 68.016 87.7562 67.904C87.4895 67.7867 87.2789 67.6267 87.1242 67.424C86.9695 67.216 86.8842 66.9787 86.8682 66.712H87.6202C87.6415 66.9307 87.7429 67.1093 87.9242 67.248C88.1109 67.3867 88.3535 67.456 88.6522 67.456C88.9295 67.456 89.1482 67.3947 89.3082 67.272C89.4682 67.1493 89.5482 66.9947 89.5482 66.808C89.5482 66.616 89.4629 66.4747 89.2922 66.384C89.1215 66.288 88.8575 66.1947 88.5002 66.104C88.1749 66.0187 87.9082 65.9333 87.7002 65.848C87.4975 65.7573 87.3215 65.6267 87.1722 65.456C87.0282 65.28 86.9562 65.0507 86.9562 64.768C86.9562 64.544 87.0229 64.3387 87.1562 64.152C87.2895 63.9653 87.4789 63.8187 87.7242 63.712C87.9695 63.6 88.2495 63.544 88.5642 63.544C89.0495 63.544 89.4415 63.6667 89.7402 63.912C90.0389 64.1573 90.1989 64.4933 90.2202 64.92H89.4922C89.4762 64.6907 89.3829 64.5067 89.2122 64.368C89.0469 64.2293 88.8229 64.16 88.5402 64.16C88.2789 64.16 88.0709 64.216 87.9162 64.328C87.7615 64.44 87.6842 64.5867 87.6842 64.768C87.6842 64.912 87.7295 65.032 87.8202 65.128C87.9162 65.2187 88.0335 65.2933 88.1722 65.352C88.3162 65.4053 88.5135 65.4667 88.7642 65.536C89.0789 65.6213 89.3349 65.7067 89.5322 65.792C89.7295 65.872 89.8975 65.9947 90.0362 66.16C90.1802 66.3253 90.2549 66.5413 90.2602 66.808C90.2602 67.048 90.1935 67.264 90.0602 67.456C89.9269 67.648 89.7375 67.8 89.4922 67.912C89.2522 68.0187 88.9749 68.072 88.6602 68.072ZM98.0287 62.424L95.9247 68H95.0847L92.9807 62.424H93.7567L95.5087 67.232L97.2607 62.424H98.0287ZM101.355 68.056C100.838 68.056 100.366 67.936 99.9389 67.696C99.5123 67.4507 99.1736 67.112 98.9229 66.68C98.6776 66.2427 98.5549 65.752 98.5549 65.208C98.5549 64.664 98.6776 64.176 98.9229 63.744C99.1736 63.3067 99.5123 62.968 99.9389 62.728C100.366 62.4827 100.838 62.36 101.355 62.36C101.878 62.36 102.352 62.4827 102.779 62.728C103.206 62.968 103.542 63.304 103.787 63.736C104.032 64.168 104.155 64.6587 104.155 65.208C104.155 65.7573 104.032 66.248 103.787 66.68C103.542 67.112 103.206 67.4507 102.779 67.696C102.352 67.936 101.878 68.056 101.355 68.056ZM101.355 67.424C101.744 67.424 102.094 67.3333 102.403 67.152C102.718 66.9707 102.963 66.712 103.139 66.376C103.32 66.04 103.411 65.6507 103.411 65.208C103.411 64.76 103.32 64.3707 103.139 64.04C102.963 63.704 102.72 63.4453 102.411 63.264C102.102 63.0827 101.75 62.992 101.355 62.992C100.96 62.992 100.608 63.0827 100.299 63.264C99.9896 63.4453 99.7443 63.704 99.5629 64.04C99.3869 64.3707 99.2989 64.76 99.2989 65.208C99.2989 65.6507 99.3869 66.04 99.5629 66.376C99.7443 66.712 99.9896 66.9707 100.299 67.152C100.614 67.3333 100.966 67.424 101.355 67.424ZM106.852 62.424C107.46 62.424 107.985 62.5387 108.428 62.768C108.876 62.992 109.217 63.3147 109.452 63.736C109.692 64.1573 109.812 64.6533 109.812 65.224C109.812 65.7947 109.692 66.2907 109.452 66.712C109.217 67.128 108.876 67.448 108.428 67.672C107.985 67.8907 107.46 68 106.852 68H105.116V62.424H106.852ZM106.852 67.4C107.572 67.4 108.121 67.2107 108.5 66.832C108.879 66.448 109.068 65.912 109.068 65.224C109.068 64.5307 108.876 63.9893 108.492 63.6C108.113 63.2107 107.567 63.016 106.852 63.016H105.844V67.4H106.852ZM116.201 66.76H113.769L113.321 68H112.553L114.569 62.456H115.409L117.417 68H116.649L116.201 66.76ZM115.993 66.168L114.985 63.352L113.977 66.168H115.993ZM118.024 65.8C118.024 65.3467 118.114 64.952 118.296 64.616C118.477 64.2747 118.728 64.0107 119.048 63.824C119.373 63.6373 119.744 63.544 120.16 63.544C120.698 63.544 121.141 63.6747 121.488 63.936C121.84 64.1973 122.072 64.56 122.184 65.024H121.4C121.325 64.7573 121.178 64.5467 120.96 64.392C120.746 64.2373 120.48 64.16 120.16 64.16C119.744 64.16 119.408 64.304 119.152 64.592C118.896 64.8747 118.768 65.2773 118.768 65.8C118.768 66.328 118.896 66.736 119.152 67.024C119.408 67.312 119.744 67.456 120.16 67.456C120.48 67.456 120.746 67.3813 120.96 67.232C121.173 67.0827 121.32 66.8693 121.4 66.592H122.184C122.066 67.04 121.832 67.4 121.48 67.672C121.128 67.9387 120.688 68.072 120.16 68.072C119.744 68.072 119.373 67.9787 119.048 67.792C118.728 67.6053 118.477 67.3413 118.296 67C118.114 66.6587 118.024 66.2587 118.024 65.8ZM122.883 65.8C122.883 65.3467 122.974 64.952 123.155 64.616C123.336 64.2747 123.587 64.0107 123.907 63.824C124.232 63.6373 124.603 63.544 125.019 63.544C125.558 63.544 126 63.6747 126.347 63.936C126.699 64.1973 126.931 64.56 127.043 65.024H126.259C126.184 64.7573 126.038 64.5467 125.819 64.392C125.606 64.2373 125.339 64.16 125.019 64.16C124.603 64.16 124.267 64.304 124.011 64.592C123.755 64.8747 123.627 65.2773 123.627 65.8C123.627 66.328 123.755 66.736 124.011 67.024C124.267 67.312 124.603 67.456 125.019 67.456C125.339 67.456 125.606 67.3813 125.819 67.232C126.032 67.0827 126.179 66.8693 126.259 66.592H127.043C126.926 67.04 126.691 67.4 126.339 67.672C125.987 67.9387 125.547 68.072 125.019 68.072C124.603 68.072 124.232 67.9787 123.907 67.792C123.587 67.6053 123.336 67.3413 123.155 67C122.974 66.6587 122.883 66.2587 122.883 65.8ZM132.014 65.64C132.014 65.7787 132.006 65.9253 131.99 66.08H128.486C128.513 66.512 128.66 66.8507 128.926 67.096C129.198 67.336 129.526 67.456 129.91 67.456C130.225 67.456 130.486 67.384 130.694 67.24C130.908 67.0907 131.057 66.8933 131.142 66.648H131.926C131.809 67.0693 131.574 67.4133 131.222 67.68C130.87 67.9413 130.433 68.072 129.91 68.072C129.494 68.072 129.121 67.9787 128.79 67.792C128.465 67.6053 128.209 67.3413 128.022 67C127.836 66.6533 127.742 66.2533 127.742 65.8C127.742 65.3467 127.833 64.9493 128.014 64.608C128.196 64.2667 128.449 64.0053 128.774 63.824C129.105 63.6373 129.484 63.544 129.91 63.544C130.326 63.544 130.694 63.6347 131.014 63.816C131.334 63.9973 131.58 64.248 131.75 64.568C131.926 64.8827 132.014 65.24 132.014 65.64ZM131.262 65.488C131.262 65.2107 131.201 64.9733 131.078 64.776C130.956 64.5733 130.788 64.4213 130.574 64.32C130.366 64.2133 130.134 64.16 129.878 64.16C129.51 64.16 129.196 64.2773 128.934 64.512C128.678 64.7467 128.532 65.072 128.494 65.488H131.262ZM134.527 68.072C134.191 68.072 133.89 68.016 133.623 67.904C133.357 67.7867 133.146 67.6267 132.991 67.424C132.837 67.216 132.751 66.9787 132.735 66.712H133.487C133.509 66.9307 133.61 67.1093 133.791 67.248C133.978 67.3867 134.221 67.456 134.519 67.456C134.797 67.456 135.015 67.3947 135.175 67.272C135.335 67.1493 135.415 66.9947 135.415 66.808C135.415 66.616 135.33 66.4747 135.159 66.384C134.989 66.288 134.725 66.1947 134.367 66.104C134.042 66.0187 133.775 65.9333 133.567 65.848C133.365 65.7573 133.189 65.6267 133.039 65.456C132.895 65.28 132.823 65.0507 132.823 64.768C132.823 64.544 132.89 64.3387 133.023 64.152C133.157 63.9653 133.346 63.8187 133.591 63.712C133.837 63.6 134.117 63.544 134.431 63.544C134.917 63.544 135.309 63.6667 135.607 63.912C135.906 64.1573 136.066 64.4933 136.087 64.92H135.359C135.343 64.6907 135.25 64.5067 135.079 64.368C134.914 64.2293 134.69 64.16 134.407 64.16C134.146 64.16 133.938 64.216 133.783 64.328C133.629 64.44 133.551 64.5867 133.551 64.768C133.551 64.912 133.597 65.032 133.687 65.128C133.783 65.2187 133.901 65.2933 134.039 65.352C134.183 65.4053 134.381 65.4667 134.631 65.536C134.946 65.6213 135.202 65.7067 135.399 65.792C135.597 65.872 135.765 65.9947 135.903 66.16C136.047 66.3253 136.122 66.5413 136.127 66.808C136.127 67.048 136.061 67.264 135.927 67.456C135.794 67.648 135.605 67.8 135.359 67.912C135.119 68.0187 134.842 68.072 134.527 68.072ZM138.707 68.072C138.371 68.072 138.07 68.016 137.803 67.904C137.536 67.7867 137.326 67.6267 137.171 67.424C137.016 67.216 136.931 66.9787 136.915 66.712H137.667C137.688 66.9307 137.79 67.1093 137.971 67.248C138.158 67.3867 138.4 67.456 138.699 67.456C138.976 67.456 139.195 67.3947 139.355 67.272C139.515 67.1493 139.595 66.9947 139.595 66.808C139.595 66.616 139.51 66.4747 139.339 66.384C139.168 66.288 138.904 66.1947 138.547 66.104C138.222 66.0187 137.955 65.9333 137.747 65.848C137.544 65.7573 137.368 65.6267 137.219 65.456C137.075 65.28 137.003 65.0507 137.003 64.768C137.003 64.544 137.07 64.3387 137.203 64.152C137.336 63.9653 137.526 63.8187 137.771 63.712C138.016 63.6 138.296 63.544 138.611 63.544C139.096 63.544 139.488 63.6667 139.787 63.912C140.086 64.1573 140.246 64.4933 140.267 64.92H139.539C139.523 64.6907 139.43 64.5067 139.259 64.368C139.094 64.2293 138.87 64.16 138.587 64.16C138.326 64.16 138.118 64.216 137.963 64.328C137.808 64.44 137.731 64.5867 137.731 64.768C137.731 64.912 137.776 65.032 137.867 65.128C137.963 65.2187 138.08 65.2933 138.219 65.352C138.363 65.4053 138.56 65.4667 138.811 65.536C139.126 65.6213 139.382 65.7067 139.579 65.792C139.776 65.872 139.944 65.9947 140.083 66.16C140.227 66.3253 140.302 66.5413 140.307 66.808C140.307 67.048 140.24 67.264 140.107 67.456C139.974 67.648 139.784 67.8 139.539 67.912C139.299 68.0187 139.022 68.072 138.707 68.072ZM22.344 76.056C22.344 76.52 22.184 76.9067 21.864 77.216C21.5493 77.52 21.0667 77.672 20.416 77.672H19.344V80H18.616V74.424H20.416C21.0453 74.424 21.5227 74.576 21.848 74.88C22.1787 75.184 22.344 75.576 22.344 76.056ZM20.416 77.072C20.8213 77.072 21.12 76.984 21.312 76.808C21.504 76.632 21.6 76.3813 21.6 76.056C21.6 75.368 21.2053 75.024 20.416 75.024H19.344V77.072H20.416ZM27.2488 77.64C27.2488 77.7787 27.2408 77.9253 27.2248 78.08H23.7208C23.7475 78.512 23.8941 78.8507 24.1608 79.096C24.4328 79.336 24.7608 79.456 25.1448 79.456C25.4595 79.456 25.7208 79.384 25.9288 79.24C26.1421 79.0907 26.2915 78.8933 26.3768 78.648H27.1608C27.0435 79.0693 26.8088 79.4133 26.4568 79.68C26.1048 79.9413 25.6675 80.072 25.1448 80.072C24.7288 80.072 24.3555 79.9787 24.0248 79.792C23.6995 79.6053 23.4435 79.3413 23.2568 79C23.0701 78.6533 22.9768 78.2533 22.9768 77.8C22.9768 77.3467 23.0675 76.9493 23.2488 76.608C23.4301 76.2667 23.6835 76.0053 24.0088 75.824C24.3395 75.6373 24.7181 75.544 25.1448 75.544C25.5608 75.544 25.9288 75.6347 26.2488 75.816C26.5688 75.9973 26.8141 76.248 26.9848 76.568C27.1608 76.8827 27.2488 77.24 27.2488 77.64ZM26.4968 77.488C26.4968 77.2107 26.4355 76.9733 26.3128 76.776C26.1901 76.5733 26.0221 76.4213 25.8088 76.32C25.6008 76.2133 25.3688 76.16 25.1128 76.16C24.7448 76.16 24.4301 76.2773 24.1688 76.512C23.9128 76.7467 23.7661 77.072 23.7288 77.488H26.4968ZM28.9378 76.328C29.0658 76.0773 29.2471 75.8827 29.4818 75.744C29.7218 75.6053 30.0124 75.536 30.3538 75.536V76.288H30.1618C29.3458 76.288 28.9378 76.7307 28.9378 77.616V80H28.2098V75.616H28.9378V76.328ZM32.7461 80.072C32.4101 80.072 32.1088 80.016 31.8421 79.904C31.5755 79.7867 31.3648 79.6267 31.2101 79.424C31.0555 79.216 30.9701 78.9787 30.9541 78.712H31.7061C31.7275 78.9307 31.8288 79.1093 32.0101 79.248C32.1968 79.3867 32.4395 79.456 32.7381 79.456C33.0155 79.456 33.2341 79.3947 33.3941 79.272C33.5541 79.1493 33.6341 78.9947 33.6341 78.808C33.6341 78.616 33.5488 78.4747 33.3781 78.384C33.2075 78.288 32.9435 78.1947 32.5861 78.104C32.2608 78.0187 31.9941 77.9333 31.7861 77.848C31.5835 77.7573 31.4075 77.6267 31.2581 77.456C31.1141 77.28 31.0421 77.0507 31.0421 76.768C31.0421 76.544 31.1088 76.3387 31.2421 76.152C31.3755 75.9653 31.5648 75.8187 31.8101 75.712C32.0555 75.6 32.3355 75.544 32.6501 75.544C33.1355 75.544 33.5275 75.6667 33.8261 75.912C34.1248 76.1573 34.2848 76.4933 34.3061 76.92H33.5781C33.5621 76.6907 33.4688 76.5067 33.2981 76.368C33.1328 76.2293 32.9088 76.16 32.6261 76.16C32.3648 76.16 32.1568 76.216 32.0021 76.328C31.8475 76.44 31.7701 76.5867 31.7701 76.768C31.7701 76.912 31.8155 77.032 31.9061 77.128C32.0021 77.2187 32.1195 77.2933 32.2581 77.352C32.4021 77.4053 32.5995 77.4667 32.8501 77.536C33.1648 77.6213 33.4208 77.7067 33.6181 77.792C33.8155 77.872 33.9835 77.9947 34.1221 78.16C34.2661 78.3253 34.3408 78.5413 34.3461 78.808C34.3461 79.048 34.2795 79.264 34.1461 79.456C34.0128 79.648 33.8235 79.8 33.5781 79.912C33.3381 80.0187 33.0608 80.072 32.7461 80.072ZM37.2858 80.072C36.8751 80.072 36.5018 79.9787 36.1658 79.792C35.8351 79.6053 35.5738 79.3413 35.3818 79C35.1951 78.6533 35.1018 78.2533 35.1018 77.8C35.1018 77.352 35.1978 76.9573 35.3898 76.616C35.5871 76.2693 35.8538 76.0053 36.1898 75.824C36.5258 75.6373 36.9018 75.544 37.3178 75.544C37.7338 75.544 38.1098 75.6373 38.4458 75.824C38.7818 76.0053 39.0458 76.2667 39.2378 76.608C39.4351 76.9493 39.5338 77.3467 39.5338 77.8C39.5338 78.2533 39.4325 78.6533 39.2298 79C39.0325 79.3413 38.7631 79.6053 38.4218 79.792C38.0805 79.9787 37.7018 80.072 37.2858 80.072ZM37.2858 79.432C37.5471 79.432 37.7925 79.3707 38.0218 79.248C38.2511 79.1253 38.4351 78.9413 38.5738 78.696C38.7178 78.4507 38.7898 78.152 38.7898 77.8C38.7898 77.448 38.7205 77.1493 38.5818 76.904C38.4431 76.6587 38.2618 76.4773 38.0378 76.36C37.8138 76.2373 37.5711 76.176 37.3098 76.176C37.0431 76.176 36.7978 76.2373 36.5738 76.36C36.3551 76.4773 36.1791 76.6587 36.0458 76.904C35.9125 77.1493 35.8458 77.448 35.8458 77.8C35.8458 78.1573 35.9098 78.4587 36.0378 78.704C36.1711 78.9493 36.3471 79.1333 36.5658 79.256C36.7845 79.3733 37.0245 79.432 37.2858 79.432ZM42.627 75.536C43.1603 75.536 43.5923 75.6987 43.923 76.024C44.2537 76.344 44.419 76.808 44.419 77.416V80H43.699V77.52C43.699 77.0827 43.5897 76.7493 43.371 76.52C43.1523 76.2853 42.8537 76.168 42.475 76.168C42.091 76.168 41.7843 76.288 41.555 76.528C41.331 76.768 41.219 77.1173 41.219 77.576V80H40.491V75.616H41.219V76.24C41.363 76.016 41.5577 75.8427 41.803 75.72C42.0537 75.5973 42.3283 75.536 42.627 75.536ZM45.3362 77.792C45.3362 77.344 45.4269 76.952 45.6082 76.616C45.7895 76.2747 46.0375 76.0107 46.3522 75.824C46.6722 75.6373 47.0269 75.544 47.4162 75.544C47.8002 75.544 48.1335 75.6267 48.4162 75.792C48.6989 75.9573 48.9095 76.1653 49.0482 76.416V75.616H49.7842V80H49.0482V79.184C48.9042 79.44 48.6882 79.6533 48.4002 79.824C48.1175 79.9893 47.7869 80.072 47.4082 80.072C47.0189 80.072 46.6669 79.976 46.3522 79.784C46.0375 79.592 45.7895 79.3227 45.6082 78.976C45.4269 78.6293 45.3362 78.2347 45.3362 77.792ZM49.0482 77.8C49.0482 77.4693 48.9815 77.1813 48.8482 76.936C48.7149 76.6907 48.5335 76.504 48.3042 76.376C48.0802 76.2427 47.8322 76.176 47.5602 76.176C47.2882 76.176 47.0402 76.24 46.8162 76.368C46.5922 76.496 46.4135 76.6827 46.2802 76.928C46.1469 77.1733 46.0802 77.4613 46.0802 77.792C46.0802 78.128 46.1469 78.4213 46.2802 78.672C46.4135 78.9173 46.5922 79.1067 46.8162 79.24C47.0402 79.368 47.2882 79.432 47.5602 79.432C47.8322 79.432 48.0802 79.368 48.3042 79.24C48.5335 79.1067 48.7149 78.9173 48.8482 78.672C48.9815 78.4213 49.0482 78.1307 49.0482 77.8ZM51.7424 74.08V80H51.0144V74.08H51.7424ZM53.3592 74.904C53.2205 74.904 53.1032 74.856 53.0072 74.76C52.9112 74.664 52.8632 74.5467 52.8632 74.408C52.8632 74.2693 52.9112 74.152 53.0072 74.056C53.1032 73.96 53.2205 73.912 53.3592 73.912C53.4925 73.912 53.6045 73.96 53.6952 74.056C53.7912 74.152 53.8392 74.2693 53.8392 74.408C53.8392 74.5467 53.7912 74.664 53.6952 74.76C53.6045 74.856 53.4925 74.904 53.3592 74.904ZM53.7112 75.616V80H52.9832V75.616H53.7112ZM55.4959 79.4H57.6479V80H54.6639V79.4L56.7919 76.208H54.6799V75.616H57.6319V76.208L55.4959 79.4ZM62.5926 77.64C62.5926 77.7787 62.5846 77.9253 62.5686 78.08H59.0646C59.0912 78.512 59.2379 78.8507 59.5046 79.096C59.7766 79.336 60.1046 79.456 60.4886 79.456C60.8032 79.456 61.0646 79.384 61.2726 79.24C61.4859 79.0907 61.6352 78.8933 61.7206 78.648H62.5046C62.3872 79.0693 62.1526 79.4133 61.8006 79.68C61.4486 79.9413 61.0112 80.072 60.4886 80.072C60.0726 80.072 59.6992 79.9787 59.3686 79.792C59.0432 79.6053 58.7872 79.3413 58.6006 79C58.4139 78.6533 58.3206 78.2533 58.3206 77.8C58.3206 77.3467 58.4112 76.9493 58.5926 76.608C58.7739 76.2667 59.0272 76.0053 59.3526 75.824C59.6832 75.6373 60.0619 75.544 60.4886 75.544C60.9046 75.544 61.2726 75.6347 61.5926 75.816C61.9126 75.9973 62.1579 76.248 62.3286 76.568C62.5046 76.8827 62.5926 77.24 62.5926 77.64ZM61.8406 77.488C61.8406 77.2107 61.7792 76.9733 61.6566 76.776C61.5339 76.5733 61.3659 76.4213 61.1526 76.32C60.9446 76.2133 60.7126 76.16 60.4566 76.16C60.0886 76.16 59.7739 76.2773 59.5126 76.512C59.2566 76.7467 59.1099 77.072 59.0726 77.488H61.8406ZM63.2815 77.792C63.2815 77.344 63.3722 76.952 63.5535 76.616C63.7348 76.2747 63.9828 76.0107 64.2975 75.824C64.6175 75.6373 64.9748 75.544 65.3695 75.544C65.7108 75.544 66.0282 75.624 66.3215 75.784C66.6148 75.9387 66.8388 76.144 66.9935 76.4V74.08H67.7295V80H66.9935V79.176C66.8495 79.4373 66.6362 79.6533 66.3535 79.824C66.0708 79.9893 65.7402 80.072 65.3615 80.072C64.9722 80.072 64.6175 79.976 64.2975 79.784C63.9828 79.592 63.7348 79.3227 63.5535 78.976C63.3722 78.6293 63.2815 78.2347 63.2815 77.792ZM66.9935 77.8C66.9935 77.4693 66.9268 77.1813 66.7935 76.936C66.6602 76.6907 66.4788 76.504 66.2495 76.376C66.0255 76.2427 65.7775 76.176 65.5055 76.176C65.2335 76.176 64.9855 76.24 64.7615 76.368C64.5375 76.496 64.3588 76.6827 64.2255 76.928C64.0922 77.1733 64.0255 77.4613 64.0255 77.792C64.0255 78.128 64.0922 78.4213 64.2255 78.672C64.3588 78.9173 64.5375 79.1067 64.7615 79.24C64.9855 79.368 65.2335 79.432 65.5055 79.432C65.7775 79.432 66.0255 79.368 66.2495 79.24C66.4788 79.1067 66.6602 78.9173 66.7935 78.672C66.9268 78.4213 66.9935 78.1307 66.9935 77.8ZM75.4766 80H74.7486L71.8206 75.56V80H71.0926V74.416H71.8206L74.7486 78.848V74.416H75.4766V80ZM80.6056 75.616V80H79.8776V79.352C79.7389 79.576 79.5442 79.752 79.2936 79.88C79.0482 80.0027 78.7762 80.064 78.4776 80.064C78.1362 80.064 77.8296 79.9947 77.5576 79.856C77.2856 79.712 77.0696 79.4987 76.9096 79.216C76.7549 78.9333 76.6776 78.5893 76.6776 78.184V75.616H77.3976V78.088C77.3976 78.52 77.5069 78.8533 77.7256 79.088C77.9442 79.3173 78.2429 79.432 78.6216 79.432C79.0109 79.432 79.3176 79.312 79.5416 79.072C79.7656 78.832 79.8776 78.4827 79.8776 78.024V75.616H80.6056ZM82.7228 76.216V78.8C82.7228 79.0133 82.7681 79.1653 82.8588 79.256C82.9494 79.3413 83.1068 79.384 83.3307 79.384H83.8668V80H83.2108C82.8054 80 82.5014 79.9067 82.2988 79.72C82.0961 79.5333 81.9948 79.2267 81.9948 78.8V76.216H81.4268V75.616H81.9948V74.512H82.7228V75.616H83.8668V76.216H82.7228ZM85.4768 76.328C85.6048 76.0773 85.7861 75.8827 86.0208 75.744C86.2608 75.6053 86.5515 75.536 86.8928 75.536V76.288H86.7008C85.8848 76.288 85.4768 76.7307 85.4768 77.616V80H84.7488V75.616H85.4768V76.328ZM88.1092 74.904C87.9705 74.904 87.8532 74.856 87.7572 74.76C87.6612 74.664 87.6132 74.5467 87.6132 74.408C87.6132 74.2693 87.6612 74.152 87.7572 74.056C87.8532 73.96 87.9705 73.912 88.1092 73.912C88.2425 73.912 88.3545 73.96 88.4452 74.056C88.5412 74.152 88.5892 74.2693 88.5892 74.408C88.5892 74.5467 88.5412 74.664 88.4452 74.76C88.3545 74.856 88.2425 74.904 88.1092 74.904ZM88.4612 75.616V80H87.7332V75.616H88.4612ZM90.5899 76.216V78.8C90.5899 79.0133 90.6353 79.1653 90.7259 79.256C90.8166 79.3413 90.9739 79.384 91.1979 79.384H91.7339V80H91.0779C90.6726 80 90.3686 79.9067 90.1659 79.72C89.9633 79.5333 89.8619 79.2267 89.8619 78.8V76.216H89.2939V75.616H89.8619V74.512H90.5899V75.616H91.7339V76.216H90.5899ZM92.992 74.904C92.8533 74.904 92.736 74.856 92.64 74.76C92.544 74.664 92.496 74.5467 92.496 74.408C92.496 74.2693 92.544 74.152 92.64 74.056C92.736 73.96 92.8533 73.912 92.992 73.912C93.1253 73.912 93.2373 73.96 93.328 74.056C93.424 74.152 93.472 74.2693 93.472 74.408C93.472 74.5467 93.424 74.664 93.328 74.76C93.2373 74.856 93.1253 74.904 92.992 74.904ZM93.344 75.616V80H92.616V75.616H93.344ZM96.4968 80.072C96.0861 80.072 95.7128 79.9787 95.3768 79.792C95.0461 79.6053 94.7848 79.3413 94.5928 79C94.4061 78.6533 94.3128 78.2533 94.3128 77.8C94.3128 77.352 94.4088 76.9573 94.6008 76.616C94.7981 76.2693 95.0648 76.0053 95.4008 75.824C95.7368 75.6373 96.1128 75.544 96.5288 75.544C96.9448 75.544 97.3208 75.6373 97.6568 75.824C97.9928 76.0053 98.2568 76.2667 98.4488 76.608C98.6461 76.9493 98.7448 77.3467 98.7448 77.8C98.7448 78.2533 98.6434 78.6533 98.4408 79C98.2434 79.3413 97.9741 79.6053 97.6328 79.792C97.2914 79.9787 96.9128 80.072 96.4968 80.072ZM96.4968 79.432C96.7581 79.432 97.0034 79.3707 97.2328 79.248C97.4621 79.1253 97.6461 78.9413 97.7848 78.696C97.9288 78.4507 98.0008 78.152 98.0008 77.8C98.0008 77.448 97.9314 77.1493 97.7928 76.904C97.6541 76.6587 97.4728 76.4773 97.2488 76.36C97.0248 76.2373 96.7821 76.176 96.5208 76.176C96.2541 76.176 96.0088 76.2373 95.7848 76.36C95.5661 76.4773 95.3901 76.6587 95.2568 76.904C95.1234 77.1493 95.0568 77.448 95.0568 77.8C95.0568 78.1573 95.1208 78.4587 95.2488 78.704C95.3821 78.9493 95.5581 79.1333 95.7768 79.256C95.9954 79.3733 96.2354 79.432 96.4968 79.432ZM101.838 75.536C102.371 75.536 102.803 75.6987 103.134 76.024C103.465 76.344 103.63 76.808 103.63 77.416V80H102.91V77.52C102.91 77.0827 102.801 76.7493 102.582 76.52C102.363 76.2853 102.065 76.168 101.686 76.168C101.302 76.168 100.995 76.288 100.766 76.528C100.542 76.768 100.43 77.1173 100.43 77.576V80H99.7019V75.616H100.43V76.24C100.574 76.016 100.769 75.8427 101.014 75.72C101.265 75.5973 101.539 75.536 101.838 75.536ZM110.68 76.056C110.68 76.52 110.52 76.9067 110.2 77.216C109.885 77.52 109.403 77.672 108.752 77.672H107.68V80H106.952V74.424H108.752C109.381 74.424 109.859 74.576 110.184 74.88C110.515 75.184 110.68 75.576 110.68 76.056ZM108.752 77.072C109.157 77.072 109.456 76.984 109.648 76.808C109.84 76.632 109.936 76.3813 109.936 76.056C109.936 75.368 109.541 75.024 108.752 75.024H107.68V77.072H108.752ZM112.313 74.08V80H111.585V74.08H112.313ZM113.282 77.792C113.282 77.344 113.372 76.952 113.554 76.616C113.735 76.2747 113.983 76.0107 114.298 75.824C114.618 75.6373 114.972 75.544 115.362 75.544C115.746 75.544 116.079 75.6267 116.362 75.792C116.644 75.9573 116.855 76.1653 116.994 76.416V75.616H117.73V80H116.994V79.184C116.85 79.44 116.634 79.6533 116.346 79.824C116.063 79.9893 115.732 80.072 115.354 80.072C114.964 80.072 114.612 79.976 114.298 79.784C113.983 79.592 113.735 79.3227 113.554 78.976C113.372 78.6293 113.282 78.2347 113.282 77.792ZM116.994 77.8C116.994 77.4693 116.927 77.1813 116.794 76.936C116.66 76.6907 116.479 76.504 116.25 76.376C116.026 76.2427 115.778 76.176 115.506 76.176C115.234 76.176 114.986 76.24 114.762 76.368C114.538 76.496 114.359 76.6827 114.226 76.928C114.092 77.1733 114.026 77.4613 114.026 77.792C114.026 78.128 114.092 78.4213 114.226 78.672C114.359 78.9173 114.538 79.1067 114.762 79.24C114.986 79.368 115.234 79.432 115.506 79.432C115.778 79.432 116.026 79.368 116.25 79.24C116.479 79.1067 116.66 78.9173 116.794 78.672C116.927 78.4213 116.994 78.1307 116.994 77.8ZM121.096 75.536C121.629 75.536 122.061 75.6987 122.392 76.024C122.722 76.344 122.888 76.808 122.888 77.416V80H122.168V77.52C122.168 77.0827 122.058 76.7493 121.84 76.52C121.621 76.2853 121.322 76.168 120.944 76.168C120.56 76.168 120.253 76.288 120.024 76.528C119.8 76.768 119.688 77.1173 119.688 77.576V80H118.96V75.616H119.688V76.24C119.832 76.016 120.026 75.8427 120.272 75.72C120.522 75.5973 120.797 75.536 121.096 75.536ZM130.49 80L129.762 79.264C129.49 79.5467 129.199 79.7573 128.89 79.896C128.58 80.0293 128.231 80.096 127.842 80.096C127.458 80.096 127.116 80.0267 126.818 79.888C126.524 79.7493 126.295 79.552 126.13 79.296C125.97 79.04 125.89 78.7413 125.89 78.4C125.89 78.0107 125.999 77.6693 126.218 77.376C126.442 77.0773 126.77 76.8427 127.202 76.672C127.031 76.4693 126.908 76.2827 126.834 76.112C126.759 75.9413 126.722 75.7547 126.722 75.552C126.722 75.3173 126.78 75.1067 126.898 74.92C127.02 74.728 127.194 74.5787 127.418 74.472C127.642 74.3653 127.9 74.312 128.194 74.312C128.482 74.312 128.732 74.368 128.946 74.48C129.159 74.592 129.319 74.7493 129.426 74.952C129.532 75.1493 129.58 75.3707 129.57 75.616H128.842C128.847 75.3973 128.786 75.2267 128.658 75.104C128.53 74.976 128.364 74.912 128.162 74.912C127.948 74.912 127.775 74.9733 127.642 75.096C127.514 75.2133 127.45 75.3653 127.45 75.552C127.45 75.712 127.492 75.8667 127.578 76.016C127.668 76.1653 127.818 76.3493 128.026 76.568L129.69 78.24L129.834 78.016L130.378 77.104H131.162L130.506 78.24C130.415 78.4 130.308 78.568 130.186 78.744L131.442 80H130.49ZM127.842 79.472C128.13 79.472 128.388 79.416 128.618 79.304C128.852 79.192 129.074 79.0187 129.282 78.784L127.642 77.136C126.959 77.3973 126.618 77.8107 126.618 78.376C126.618 78.6907 126.73 78.952 126.954 79.16C127.183 79.368 127.479 79.472 127.842 79.472ZM136.025 80.056C135.657 80.056 135.326 79.992 135.033 79.864C134.745 79.7307 134.518 79.5493 134.353 79.32C134.187 79.0853 134.102 78.816 134.097 78.512H134.873C134.899 78.7733 135.006 78.9947 135.193 79.176C135.385 79.352 135.662 79.44 136.025 79.44C136.371 79.44 136.643 79.3547 136.841 79.184C137.043 79.008 137.145 78.784 137.145 78.512C137.145 78.2987 137.086 78.1253 136.969 77.992C136.851 77.8587 136.705 77.7573 136.529 77.688C136.353 77.6187 136.115 77.544 135.817 77.464C135.449 77.368 135.153 77.272 134.929 77.176C134.71 77.08 134.521 76.9307 134.361 76.728C134.206 76.52 134.129 76.2427 134.129 75.896C134.129 75.592 134.206 75.3227 134.361 75.088C134.515 74.8533 134.731 74.672 135.009 74.544C135.291 74.416 135.614 74.352 135.977 74.352C136.499 74.352 136.926 74.4827 137.257 74.744C137.593 75.0053 137.782 75.352 137.825 75.784H137.025C136.998 75.5707 136.886 75.384 136.689 75.224C136.491 75.0587 136.23 74.976 135.905 74.976C135.601 74.976 135.353 75.056 135.161 75.216C134.969 75.3707 134.873 75.5893 134.873 75.872C134.873 76.0747 134.929 76.24 135.041 76.368C135.158 76.496 135.299 76.5947 135.465 76.664C135.635 76.728 135.873 76.8027 136.177 76.888C136.545 76.9893 136.841 77.0907 137.065 77.192C137.289 77.288 137.481 77.44 137.641 77.648C137.801 77.8507 137.881 78.128 137.881 78.48C137.881 78.752 137.809 79.008 137.665 79.248C137.521 79.488 137.307 79.6827 137.025 79.832C136.742 79.9813 136.409 80.056 136.025 80.056ZM142.84 75.616V80H142.112V79.352C141.973 79.576 141.779 79.752 141.528 79.88C141.283 80.0027 141.011 80.064 140.712 80.064C140.371 80.064 140.064 79.9947 139.792 79.856C139.52 79.712 139.304 79.4987 139.144 79.216C138.989 78.9333 138.912 78.5893 138.912 78.184V75.616H139.632V78.088C139.632 78.52 139.741 78.8533 139.96 79.088C140.179 79.3173 140.477 79.432 140.856 79.432C141.245 79.432 141.552 79.312 141.776 79.072C142 78.832 142.112 78.4827 142.112 78.024V75.616H142.84ZM144.797 76.424C144.941 76.1733 145.154 75.9653 145.437 75.8C145.725 75.6293 146.058 75.544 146.437 75.544C146.826 75.544 147.178 75.6373 147.493 75.824C147.813 76.0107 148.064 76.2747 148.245 76.616C148.426 76.952 148.517 77.344 148.517 77.792C148.517 78.2347 148.426 78.6293 148.245 78.976C148.064 79.3227 147.813 79.592 147.493 79.784C147.178 79.976 146.826 80.072 146.437 80.072C146.064 80.072 145.733 79.9893 145.445 79.824C145.162 79.6533 144.946 79.4427 144.797 79.192V82.08H144.069V75.616H144.797V76.424ZM147.773 77.792C147.773 77.4613 147.706 77.1733 147.573 76.928C147.44 76.6827 147.258 76.496 147.029 76.368C146.805 76.24 146.557 76.176 146.285 76.176C146.018 76.176 145.77 76.2427 145.541 76.376C145.317 76.504 145.136 76.6933 144.997 76.944C144.864 77.1893 144.797 77.4747 144.797 77.8C144.797 78.1307 144.864 78.4213 144.997 78.672C145.136 78.9173 145.317 79.1067 145.541 79.24C145.77 79.368 146.018 79.432 146.285 79.432C146.557 79.432 146.805 79.368 147.029 79.24C147.258 79.1067 147.44 78.9173 147.573 78.672C147.706 78.4213 147.773 78.128 147.773 77.792ZM150.203 76.424C150.347 76.1733 150.561 75.9653 150.843 75.8C151.131 75.6293 151.465 75.544 151.843 75.544C152.233 75.544 152.585 75.6373 152.899 75.824C153.219 76.0107 153.47 76.2747 153.651 76.616C153.833 76.952 153.923 77.344 153.923 77.792C153.923 78.2347 153.833 78.6293 153.651 78.976C153.47 79.3227 153.219 79.592 152.899 79.784C152.585 79.976 152.233 80.072 151.843 80.072C151.47 80.072 151.139 79.9893 150.851 79.824C150.569 79.6533 150.353 79.4427 150.203 79.192V82.08H149.475V75.616H150.203V76.424ZM153.179 77.792C153.179 77.4613 153.113 77.1733 152.979 76.928C152.846 76.6827 152.665 76.496 152.435 76.368C152.211 76.24 151.963 76.176 151.691 76.176C151.425 76.176 151.177 76.2427 150.947 76.376C150.723 76.504 150.542 76.6933 150.403 76.944C150.27 77.1893 150.203 77.4747 150.203 77.8C150.203 78.1307 150.27 78.4213 150.403 78.672C150.542 78.9173 150.723 79.1067 150.947 79.24C151.177 79.368 151.425 79.432 151.691 79.432C151.963 79.432 152.211 79.368 152.435 79.24C152.665 79.1067 152.846 78.9173 152.979 78.672C153.113 78.4213 153.179 78.128 153.179 77.792ZM156.794 80.072C156.383 80.072 156.01 79.9787 155.674 79.792C155.343 79.6053 155.082 79.3413 154.89 79C154.703 78.6533 154.61 78.2533 154.61 77.8C154.61 77.352 154.706 76.9573 154.898 76.616C155.095 76.2693 155.362 76.0053 155.698 75.824C156.034 75.6373 156.41 75.544 156.826 75.544C157.242 75.544 157.618 75.6373 157.954 75.824C158.29 76.0053 158.554 76.2667 158.746 76.608C158.943 76.9493 159.042 77.3467 159.042 77.8C159.042 78.2533 158.94 78.6533 158.738 79C158.54 79.3413 158.271 79.6053 157.93 79.792C157.588 79.9787 157.21 80.072 156.794 80.072ZM156.794 79.432C157.055 79.432 157.3 79.3707 157.53 79.248C157.759 79.1253 157.943 78.9413 158.082 78.696C158.226 78.4507 158.298 78.152 158.298 77.8C158.298 77.448 158.228 77.1493 158.09 76.904C157.951 76.6587 157.77 76.4773 157.546 76.36C157.322 76.2373 157.079 76.176 156.818 76.176C156.551 76.176 156.306 76.2373 156.082 76.36C155.863 76.4773 155.687 76.6587 155.554 76.904C155.42 77.1493 155.354 77.448 155.354 77.8C155.354 78.1573 155.418 78.4587 155.546 78.704C155.679 78.9493 155.855 79.1333 156.074 79.256C156.292 79.3733 156.532 79.432 156.794 79.432ZM160.727 76.328C160.855 76.0773 161.036 75.8827 161.271 75.744C161.511 75.6053 161.801 75.536 162.143 75.536V76.288H161.951C161.135 76.288 160.727 76.7307 160.727 77.616V80H159.999V75.616H160.727V76.328ZM163.871 76.216V78.8C163.871 79.0133 163.917 79.1653 164.007 79.256C164.098 79.3413 164.255 79.384 164.479 79.384H165.015V80H164.359C163.954 80 163.65 79.9067 163.447 79.72C163.245 79.5333 163.143 79.2267 163.143 78.8V76.216H162.575V75.616H163.143V74.512H163.871V75.616H165.015V76.216H163.871Z" fill="#142A3D"/>
<path d="M230.863 46.718V50.606C230.863 51.032 230.974 51.359 231.196 51.587C231.418 51.809 231.73 51.92 232.132 51.92C232.54 51.92 232.855 51.809 233.077 51.587C233.299 51.359 233.41 51.032 233.41 50.606V46.718H234.679V50.597C234.679 51.131 234.562 51.584 234.328 51.956C234.1 52.322 233.791 52.598 233.401 52.784C233.017 52.97 232.588 53.063 232.114 53.063C231.646 53.063 231.22 52.97 230.836 52.784C230.458 52.598 230.158 52.322 229.936 51.956C229.714 51.584 229.603 51.131 229.603 50.597V46.718H230.863ZM238.065 53.063C237.627 53.063 237.231 52.988 236.877 52.838C236.529 52.688 236.253 52.472 236.049 52.19C235.845 51.908 235.74 51.575 235.734 51.191H237.084C237.102 51.449 237.192 51.653 237.354 51.803C237.522 51.953 237.75 52.028 238.038 52.028C238.332 52.028 238.563 51.959 238.731 51.821C238.899 51.677 238.983 51.491 238.983 51.263C238.983 51.077 238.926 50.924 238.812 50.804C238.698 50.684 238.554 50.591 238.38 50.525C238.212 50.453 237.978 50.375 237.678 50.291C237.27 50.171 236.937 50.054 236.679 49.94C236.427 49.82 236.208 49.643 236.022 49.409C235.842 49.169 235.752 48.851 235.752 48.455C235.752 48.083 235.845 47.759 236.031 47.483C236.217 47.207 236.478 46.997 236.814 46.853C237.15 46.703 237.534 46.628 237.966 46.628C238.614 46.628 239.139 46.787 239.541 47.105C239.949 47.417 240.174 47.855 240.216 48.419H238.83C238.818 48.203 238.725 48.026 238.551 47.888C238.383 47.744 238.158 47.672 237.876 47.672C237.63 47.672 237.432 47.735 237.282 47.861C237.138 47.987 237.066 48.17 237.066 48.41C237.066 48.578 237.12 48.719 237.228 48.833C237.342 48.941 237.48 49.031 237.642 49.103C237.81 49.169 238.044 49.247 238.344 49.337C238.752 49.457 239.085 49.577 239.343 49.697C239.601 49.817 239.823 49.997 240.009 50.237C240.195 50.477 240.288 50.792 240.288 51.182C240.288 51.518 240.201 51.83 240.027 52.118C239.853 52.406 239.598 52.637 239.262 52.811C238.926 52.979 238.527 53.063 238.065 53.063ZM248.007 51.191C248.007 51.503 247.926 51.797 247.764 52.073C247.608 52.343 247.374 52.568 247.062 52.748C246.756 52.922 246.393 53.024 245.973 53.054V53.783H245.397V53.045C244.797 52.991 244.314 52.811 243.948 52.505C243.582 52.193 243.393 51.773 243.381 51.245H244.731C244.767 51.677 244.989 51.938 245.397 52.028V50.309C244.965 50.201 244.617 50.093 244.353 49.985C244.089 49.877 243.861 49.703 243.669 49.463C243.477 49.223 243.381 48.896 243.381 48.482C243.381 47.96 243.567 47.534 243.939 47.204C244.317 46.874 244.803 46.685 245.397 46.637V45.908H245.973V46.637C246.549 46.685 247.008 46.859 247.35 47.159C247.698 47.459 247.893 47.873 247.935 48.401H246.576C246.558 48.227 246.495 48.077 246.387 47.951C246.285 47.819 246.147 47.726 245.973 47.672V49.373C246.423 49.487 246.777 49.598 247.035 49.706C247.299 49.808 247.527 49.979 247.719 50.219C247.911 50.453 248.007 50.777 248.007 51.191ZM244.695 48.419C244.695 48.617 244.755 48.779 244.875 48.905C244.995 49.025 245.169 49.124 245.397 49.202V47.645C245.181 47.675 245.01 47.756 244.884 47.888C244.758 48.02 244.695 48.197 244.695 48.419ZM245.973 52.046C246.201 52.004 246.378 51.911 246.504 51.767C246.636 51.623 246.702 51.449 246.702 51.245C246.702 51.047 246.639 50.888 246.513 50.768C246.387 50.648 246.207 50.549 245.973 50.471V52.046Z" fill="#529DFF"/>
<path d="M263.18 52.274C263.063 51.7313 262.857 51.328 262.564 51.064C262.271 50.7853 261.853 50.646 261.31 50.646C260.474 50.646 259.873 51.0127 259.506 51.746C259.139 52.4647 258.949 53.6087 258.934 55.178C259.257 54.6647 259.719 54.2613 260.32 53.968C260.936 53.6747 261.611 53.528 262.344 53.528C263.781 53.528 264.933 53.9827 265.798 54.892C266.678 55.8013 267.118 57.07 267.118 58.698C267.118 59.7687 266.898 60.7073 266.458 61.514C266.033 62.3207 265.402 62.9513 264.566 63.406C263.745 63.8607 262.769 64.088 261.64 64.088C259.381 64.088 257.812 63.384 256.932 61.976C256.052 60.5533 255.612 58.5147 255.612 55.86C255.612 53.0733 256.074 51.0053 256.998 49.656C257.937 48.292 259.433 47.61 261.486 47.61C262.586 47.61 263.51 47.83 264.258 48.27C265.021 48.6953 265.593 49.26 265.974 49.964C266.37 50.668 266.605 51.438 266.678 52.274H263.18ZM261.442 56.498C260.811 56.498 260.283 56.6887 259.858 57.07C259.447 57.4367 259.242 57.9647 259.242 58.654C259.242 59.358 259.433 59.908 259.814 60.304C260.21 60.7 260.767 60.898 261.486 60.898C262.131 60.898 262.637 60.7073 263.004 60.326C263.385 59.93 263.576 59.3947 263.576 58.72C263.576 58.0307 263.393 57.488 263.026 57.092C262.659 56.696 262.131 56.498 261.442 56.498ZM272.634 59.292C272.854 60.4507 273.529 61.03 274.658 61.03C275.435 61.03 275.985 60.6853 276.308 59.996C276.631 59.3067 276.792 58.1847 276.792 56.63C276.469 57.0847 276.029 57.4367 275.472 57.686C274.915 57.9353 274.291 58.06 273.602 58.06C272.663 58.06 271.827 57.8693 271.094 57.488C270.361 57.092 269.781 56.5127 269.356 55.75C268.945 54.9727 268.74 54.034 268.74 52.934C268.74 51.8487 268.96 50.9027 269.4 50.096C269.855 49.2893 270.493 48.666 271.314 48.226C272.15 47.786 273.133 47.566 274.262 47.566C276.433 47.566 277.951 48.2407 278.816 49.59C279.681 50.9393 280.114 52.9267 280.114 55.552C280.114 57.4587 279.938 59.0353 279.586 60.282C279.249 61.514 278.669 62.4527 277.848 63.098C277.041 63.7433 275.934 64.066 274.526 64.066C273.411 64.066 272.458 63.846 271.666 63.406C270.889 62.966 270.287 62.3867 269.862 61.668C269.451 60.9493 269.217 60.1573 269.158 59.292H272.634ZM274.46 55.09C275.076 55.09 275.567 54.9067 275.934 54.54C276.301 54.1587 276.484 53.6453 276.484 53C276.484 52.296 276.293 51.7533 275.912 51.372C275.531 50.9907 275.017 50.8 274.372 50.8C273.727 50.8 273.213 50.998 272.832 51.394C272.465 51.7753 272.282 52.3033 272.282 52.978C272.282 53.6087 272.465 54.122 272.832 54.518C273.213 54.8993 273.756 55.09 274.46 55.09Z" fill="#529DFF"/>
<path d="M289.17 51.58L286.43 62.7H285.53L288.26 51.58H289.17ZM299.782 55.42C300.209 55.42 300.589 55.51 300.922 55.69C301.255 55.8633 301.519 56.1267 301.712 56.48C301.905 56.8333 302.002 57.2633 302.002 57.77V61H301.102V57.9C301.102 57.3533 300.965 56.9367 300.692 56.65C300.425 56.3567 300.062 56.21 299.602 56.21C299.129 56.21 298.752 56.3633 298.472 56.67C298.192 56.97 298.052 57.4067 298.052 57.98V61H297.152V57.9C297.152 57.3533 297.015 56.9367 296.742 56.65C296.475 56.3567 296.112 56.21 295.652 56.21C295.179 56.21 294.802 56.3633 294.522 56.67C294.242 56.97 294.102 57.4067 294.102 57.98V61H293.192V55.52H294.102V56.31C294.282 56.0233 294.522 55.8033 294.822 55.65C295.129 55.4967 295.465 55.42 295.832 55.42C296.292 55.42 296.699 55.5233 297.052 55.73C297.405 55.9367 297.669 56.24 297.842 56.64C297.995 56.2533 298.249 55.9533 298.602 55.74C298.955 55.5267 299.349 55.42 299.782 55.42ZM305.885 61.09C305.371 61.09 304.905 60.9733 304.485 60.74C304.071 60.5067 303.745 60.1767 303.505 59.75C303.271 59.3167 303.155 58.8167 303.155 58.25C303.155 57.69 303.275 57.1967 303.515 56.77C303.761 56.3367 304.095 56.0067 304.515 55.78C304.935 55.5467 305.405 55.43 305.925 55.43C306.445 55.43 306.915 55.5467 307.335 55.78C307.755 56.0067 308.085 56.3333 308.325 56.76C308.571 57.1867 308.695 57.6833 308.695 58.25C308.695 58.8167 308.568 59.3167 308.315 59.75C308.068 60.1767 307.731 60.5067 307.305 60.74C306.878 60.9733 306.405 61.09 305.885 61.09ZM305.885 60.29C306.211 60.29 306.518 60.2133 306.805 60.06C307.091 59.9067 307.321 59.6767 307.495 59.37C307.675 59.0633 307.765 58.69 307.765 58.25C307.765 57.81 307.678 57.4367 307.505 57.13C307.331 56.8233 307.105 56.5967 306.825 56.45C306.545 56.2967 306.241 56.22 305.915 56.22C305.581 56.22 305.275 56.2967 304.995 56.45C304.721 56.5967 304.501 56.8233 304.335 57.13C304.168 57.4367 304.085 57.81 304.085 58.25C304.085 58.6967 304.165 59.0733 304.325 59.38C304.491 59.6867 304.711 59.9167 304.985 60.07C305.258 60.2167 305.558 60.29 305.885 60.29ZM312.561 55.42C313.228 55.42 313.768 55.6233 314.181 56.03C314.594 56.43 314.801 57.01 314.801 57.77V61H313.901V57.9C313.901 57.3533 313.764 56.9367 313.491 56.65C313.218 56.3567 312.844 56.21 312.371 56.21C311.891 56.21 311.508 56.36 311.221 56.66C310.941 56.96 310.801 57.3967 310.801 57.97V61H309.891V55.52H310.801V56.3C310.981 56.02 311.224 55.8033 311.531 55.65C311.844 55.4967 312.188 55.42 312.561 55.42ZM317.398 56.27V59.5C317.398 59.7667 317.454 59.9567 317.568 60.07C317.681 60.1767 317.878 60.23 318.158 60.23H318.828V61H318.008C317.501 61 317.121 60.8833 316.868 60.65C316.614 60.4167 316.488 60.0333 316.488 59.5V56.27H315.778V55.52H316.488V54.14H317.398V55.52H318.828V56.27H317.398ZM322.65 55.42C323.063 55.42 323.437 55.51 323.77 55.69C324.103 55.8633 324.363 56.1267 324.55 56.48C324.743 56.8333 324.84 57.2633 324.84 57.77V61H323.94V57.9C323.94 57.3533 323.803 56.9367 323.53 56.65C323.257 56.3567 322.883 56.21 322.41 56.21C321.93 56.21 321.547 56.36 321.26 56.66C320.98 56.96 320.84 57.3967 320.84 57.97V61H319.93V53.6H320.84V56.3C321.02 56.02 321.267 55.8033 321.58 55.65C321.9 55.4967 322.257 55.42 322.65 55.42ZM327.237 53.6V61H326.327V53.6H327.237ZM333.508 55.52L330.208 63.58H329.268L330.348 60.94L328.138 55.52H329.148L330.868 59.96L332.568 55.52H333.508Z" fill="#529DFF"/>
</svg>
