<svg width="715" height="133" viewBox="0 0 715 133" fill="none" xmlns="http://www.w3.org/2000/svg">
<rect width="715" height="133" fill="#FAFAFA" fill-opacity="0.21"/>
<rect x="0.5" y="0.5" width="714" height="132" stroke="#A3A2A2" stroke-opacity="0.4"/>
<path d="M541.898 54.0717V60.1197C541.898 60.7824 542.071 61.2911 542.416 61.6457C542.761 61.9911 543.247 62.1637 543.872 62.1637C544.507 62.1637 544.997 61.9911 545.342 61.6457C545.687 61.2911 545.86 60.7824 545.86 60.1197V54.0717H547.834V60.1057C547.834 60.9364 547.652 61.6411 547.288 62.2197C546.933 62.7891 546.453 63.2184 545.846 63.5077C545.249 63.7971 544.581 63.9418 543.844 63.9418C543.116 63.9418 542.453 63.7971 541.856 63.5077C541.268 63.2184 540.801 62.7891 540.456 62.2197C540.111 61.6411 539.938 60.9364 539.938 60.1057V54.0717H541.898ZM553.102 63.9418C552.42 63.9418 551.804 63.8251 551.254 63.5917C550.712 63.3584 550.283 63.0224 549.966 62.5837C549.648 62.1451 549.485 61.6271 549.476 61.0297H551.576C551.604 61.4311 551.744 61.7484 551.996 61.9817C552.257 62.2151 552.612 62.3317 553.06 62.3317C553.517 62.3317 553.876 62.2244 554.138 62.0097C554.399 61.7857 554.53 61.4964 554.53 61.1417C554.53 60.8524 554.441 60.6144 554.264 60.4277C554.086 60.2411 553.862 60.0964 553.592 59.9937C553.33 59.8817 552.966 59.7604 552.5 59.6297C551.865 59.4431 551.347 59.2611 550.946 59.0837C550.554 58.8971 550.213 58.6217 549.924 58.2577C549.644 57.8844 549.504 57.3897 549.504 56.7738C549.504 56.1951 549.648 55.6911 549.938 55.2617C550.227 54.8324 550.633 54.5057 551.156 54.2817C551.678 54.0484 552.276 53.9317 552.948 53.9317C553.956 53.9317 554.772 54.1791 555.398 54.6737C556.032 55.1591 556.382 55.8404 556.448 56.7177H554.292C554.273 56.3817 554.128 56.1064 553.858 55.8917C553.596 55.6677 553.246 55.5557 552.808 55.5557C552.425 55.5557 552.117 55.6537 551.884 55.8497C551.66 56.0457 551.548 56.3304 551.548 56.7037C551.548 56.9651 551.632 57.1844 551.8 57.3617C551.977 57.5297 552.192 57.6697 552.444 57.7817C552.705 57.8844 553.069 58.0057 553.536 58.1457C554.17 58.3324 554.688 58.5191 555.09 58.7057C555.491 58.8924 555.836 59.1724 556.126 59.5457C556.415 59.9191 556.56 60.4091 556.56 61.0157C556.56 61.5384 556.424 62.0237 556.154 62.4717C555.883 62.9197 555.486 63.2791 554.964 63.5497C554.441 63.8111 553.82 63.9418 553.102 63.9418ZM568.567 61.0297C568.567 61.5151 568.441 61.9724 568.189 62.4017C567.946 62.8217 567.582 63.1717 567.097 63.4517C566.621 63.7224 566.056 63.8811 565.403 63.9278V65.0618H564.507V63.9138C563.574 63.8297 562.822 63.5497 562.253 63.0737C561.684 62.5884 561.39 61.9351 561.371 61.1137H563.471C563.527 61.7857 563.872 62.1917 564.507 62.3317V59.6577C563.835 59.4897 563.294 59.3217 562.883 59.1537C562.472 58.9857 562.118 58.7151 561.819 58.3417C561.52 57.9684 561.371 57.4597 561.371 56.8157C561.371 56.0037 561.66 55.3411 562.239 54.8277C562.827 54.3144 563.583 54.0204 564.507 53.9457V52.8117H565.403V53.9457C566.299 54.0204 567.013 54.2911 567.545 54.7577C568.086 55.2244 568.39 55.8684 568.455 56.6897H566.341C566.313 56.4191 566.215 56.1857 566.047 55.9897C565.888 55.7844 565.674 55.6397 565.403 55.5557V58.2017C566.103 58.3791 566.654 58.5517 567.055 58.7197C567.466 58.8784 567.82 59.1444 568.119 59.5177C568.418 59.8817 568.567 60.3857 568.567 61.0297ZM563.415 56.7177C563.415 57.0257 563.508 57.2777 563.695 57.4737C563.882 57.6604 564.152 57.8144 564.507 57.9357V55.5137C564.171 55.5604 563.905 55.6864 563.709 55.8917C563.513 56.0971 563.415 56.3724 563.415 56.7177ZM565.403 62.3597C565.758 62.2944 566.033 62.1497 566.229 61.9257C566.434 61.7017 566.537 61.4311 566.537 61.1137C566.537 60.8057 566.439 60.5584 566.243 60.3717C566.047 60.1851 565.767 60.0311 565.403 59.9097V62.3597Z" fill="#529DFF"/>
<path d="M588.769 60.944C588.599 60.1547 588.3 59.568 587.873 59.184C587.447 58.7787 586.839 58.576 586.049 58.576C584.833 58.576 583.959 59.1093 583.425 60.176C582.892 61.2213 582.615 62.8853 582.593 65.168C583.063 64.4213 583.735 63.8347 584.609 63.408C585.505 62.9813 586.487 62.768 587.553 62.768C589.644 62.768 591.319 63.4293 592.577 64.752C593.857 66.0747 594.497 67.92 594.497 70.288C594.497 71.8453 594.177 73.2107 593.537 74.384C592.919 75.5573 592.001 76.4747 590.785 77.136C589.591 77.7973 588.172 78.128 586.529 78.128C583.244 78.128 580.961 77.104 579.681 75.056C578.401 72.9867 577.761 70.0213 577.761 66.16C577.761 62.1067 578.433 59.0987 579.777 57.136C581.143 55.152 583.319 54.16 586.305 54.16C587.905 54.16 589.249 54.48 590.337 55.12C591.447 55.7387 592.279 56.56 592.833 57.584C593.409 58.608 593.751 59.728 593.857 60.944H588.769ZM586.241 67.088C585.324 67.088 584.556 67.3653 583.937 67.92C583.34 68.4533 583.041 69.2213 583.041 70.224C583.041 71.248 583.319 72.048 583.873 72.624C584.449 73.2 585.26 73.488 586.305 73.488C587.244 73.488 587.98 73.2107 588.513 72.656C589.068 72.08 589.345 71.3013 589.345 70.32C589.345 69.3173 589.079 68.528 588.545 67.952C588.012 67.376 587.244 67.088 586.241 67.088ZM602.52 71.152C602.84 72.8373 603.822 73.68 605.464 73.68C606.595 73.68 607.395 73.1787 607.864 72.176C608.334 71.1733 608.568 69.5413 608.568 67.28C608.099 67.9413 607.459 68.4533 606.648 68.816C605.838 69.1787 604.931 69.36 603.928 69.36C602.563 69.36 601.347 69.0827 600.28 68.528C599.214 67.952 598.371 67.1093 597.752 66C597.155 64.8693 596.856 63.504 596.856 61.904C596.856 60.3253 597.176 58.9493 597.816 57.776C598.478 56.6027 599.406 55.696 600.6 55.056C601.816 54.416 603.246 54.096 604.888 54.096C608.046 54.096 610.254 55.0773 611.512 57.04C612.771 59.0027 613.4 61.8933 613.4 65.712C613.4 68.4853 613.144 70.7787 612.632 72.592C612.142 74.384 611.299 75.7493 610.104 76.688C608.931 77.6267 607.32 78.096 605.272 78.096C603.651 78.096 602.264 77.776 601.112 77.136C599.982 76.496 599.107 75.6533 598.488 74.608C597.891 73.5627 597.55 72.4107 597.464 71.152H602.52ZM605.176 65.04C606.072 65.04 606.787 64.7733 607.32 64.24C607.854 63.6853 608.12 62.9387 608.12 62C608.12 60.976 607.843 60.1867 607.288 59.632C606.734 59.0773 605.987 58.8 605.048 58.8C604.11 58.8 603.363 59.088 602.808 59.664C602.275 60.2187 602.008 60.9867 602.008 61.968C602.008 62.8853 602.275 63.632 602.808 64.208C603.363 64.7627 604.152 65.04 605.176 65.04Z" fill="#529DFF"/>
<path d="M621.177 64.5403L617.691 78.6906H616.546L620.019 64.5403H621.177ZM634.148 69.8313C634.66 69.8313 635.116 69.9393 635.516 70.1553C635.916 70.3633 636.232 70.6793 636.464 71.1033C636.696 71.5273 636.812 72.0433 636.812 72.6513V76.5273H635.732V72.8073C635.732 72.1513 635.568 71.6513 635.24 71.3073C634.92 70.9553 634.484 70.7793 633.932 70.7793C633.364 70.7793 632.912 70.9633 632.576 71.3313C632.24 71.6913 632.072 72.2153 632.072 72.9033V76.5273H630.992V72.8073C630.992 72.1513 630.828 71.6513 630.5 71.3073C630.18 70.9553 629.744 70.7793 629.192 70.7793C628.624 70.7793 628.172 70.9633 627.836 71.3313C627.5 71.6913 627.332 72.2153 627.332 72.9033V76.5273H626.24V69.9513H627.332V70.8993C627.548 70.5553 627.836 70.2913 628.196 70.1073C628.564 69.9233 628.968 69.8313 629.408 69.8313C629.96 69.8313 630.448 69.9553 630.872 70.2033C631.296 70.4513 631.612 70.8153 631.82 71.2953C632.004 70.8313 632.308 70.4713 632.732 70.2153C633.156 69.9593 633.628 69.8313 634.148 69.8313ZM641.471 76.6353C640.855 76.6353 640.295 76.4953 639.791 76.2153C639.295 75.9353 638.903 75.5393 638.615 75.0273C638.335 74.5073 638.195 73.9073 638.195 73.2273C638.195 72.5553 638.339 71.9633 638.627 71.4513C638.923 70.9313 639.323 70.5353 639.827 70.2633C640.331 69.9833 640.895 69.8433 641.519 69.8433C642.143 69.8433 642.707 69.9833 643.211 70.2633C643.715 70.5353 644.111 70.9273 644.399 71.4393C644.695 71.9513 644.843 72.5473 644.843 73.2273C644.843 73.9073 644.691 74.5073 644.387 75.0273C644.091 75.5393 643.687 75.9353 643.175 76.2153C642.663 76.4953 642.095 76.6353 641.471 76.6353ZM641.471 75.6753C641.863 75.6753 642.231 75.5833 642.575 75.3993C642.919 75.2153 643.195 74.9393 643.403 74.5713C643.619 74.2033 643.727 73.7553 643.727 73.2273C643.727 72.6993 643.623 72.2513 643.415 71.8833C643.207 71.5153 642.935 71.2433 642.599 71.0673C642.263 70.8833 641.899 70.7913 641.507 70.7913C641.107 70.7913 640.739 70.8833 640.403 71.0673C640.075 71.2433 639.811 71.5153 639.611 71.8833C639.411 72.2513 639.311 72.6993 639.311 73.2273C639.311 73.7633 639.407 74.2153 639.599 74.5833C639.799 74.9513 640.063 75.2273 640.391 75.4113C640.719 75.5873 641.079 75.6753 641.471 75.6753ZM649.483 69.8313C650.283 69.8313 650.931 70.0753 651.427 70.5633C651.923 71.0433 652.171 71.7393 652.171 72.6513V76.5273H651.091V72.8073C651.091 72.1513 650.927 71.6513 650.599 71.3073C650.271 70.9553 649.823 70.7793 649.255 70.7793C648.679 70.7793 648.219 70.9593 647.875 71.3193C647.539 71.6793 647.371 72.2033 647.371 72.8913V76.5273H646.279V69.9513H647.371V70.8873C647.587 70.5513 647.879 70.2913 648.247 70.1073C648.623 69.9233 649.035 69.8313 649.483 69.8313ZM655.286 70.8513V74.7273C655.286 75.0473 655.354 75.2753 655.49 75.4113C655.626 75.5393 655.862 75.6033 656.198 75.6033H657.002V76.5273H656.018C655.41 76.5273 654.954 76.3873 654.65 76.1073C654.346 75.8273 654.194 75.3673 654.194 74.7273V70.8513H653.342V69.9513H654.194V68.2953H655.286V69.9513H657.002V70.8513H655.286ZM661.589 69.8313C662.085 69.8313 662.533 69.9393 662.933 70.1553C663.333 70.3633 663.645 70.6793 663.869 71.1033C664.101 71.5273 664.217 72.0433 664.217 72.6513V76.5273H663.137V72.8073C663.137 72.1513 662.973 71.6513 662.645 71.3073C662.317 70.9553 661.869 70.7793 661.301 70.7793C660.725 70.7793 660.265 70.9593 659.921 71.3193C659.585 71.6793 659.417 72.2033 659.417 72.8913V76.5273H658.325V67.6473H659.417V70.8873C659.633 70.5513 659.929 70.2913 660.305 70.1073C660.689 69.9233 661.117 69.8313 661.589 69.8313ZM667.093 67.6473V76.5273H666.001V67.6473H667.093ZM674.618 69.9513L670.658 79.6233H669.53L670.826 76.4553L668.174 69.9513H669.386L671.45 75.2793L673.49 69.9513H674.618Z" fill="#529DFF"/>
<path d="M67.134 43.528C67.134 44.4227 66.9287 45.244 66.518 45.992C66.1073 46.7253 65.4767 47.3193 64.626 47.774C63.7753 48.2287 62.7193 48.456 61.458 48.456H59.126V54H55.364V38.556H61.458C62.69 38.556 63.7313 38.7687 64.582 39.194C65.4327 39.6193 66.0707 40.206 66.496 40.954C66.9213 41.702 67.134 42.56 67.134 43.528ZM61.172 45.464C61.8907 45.464 62.426 45.2953 62.778 44.958C63.13 44.6207 63.306 44.144 63.306 43.528C63.306 42.912 63.13 42.4353 62.778 42.098C62.426 41.7607 61.8907 41.592 61.172 41.592H59.126V45.464H61.172ZM76.9685 54L73.7565 48.17H72.8545V54H69.0925V38.556H75.4065C76.6238 38.556 77.6578 38.7687 78.5085 39.194C79.3738 39.6193 80.0192 40.206 80.4445 40.954C80.8698 41.6873 81.0825 42.5087 81.0825 43.418C81.0825 44.4447 80.7892 45.3613 80.2025 46.168C79.6305 46.9747 78.7798 47.5467 77.6505 47.884L81.2145 54H76.9685ZM72.8545 45.508H75.1865C75.8758 45.508 76.3892 45.3393 76.7265 45.002C77.0785 44.6647 77.2545 44.188 77.2545 43.572C77.2545 42.9853 77.0785 42.5233 76.7265 42.186C76.3892 41.8487 75.8758 41.68 75.1865 41.68H72.8545V45.508ZM90.7481 54.154C89.2961 54.154 87.9614 53.8167 86.7441 53.142C85.5414 52.4673 84.5807 51.5287 83.8621 50.326C83.1581 49.1087 82.8061 47.7447 82.8061 46.234C82.8061 44.7233 83.1581 43.3667 83.8621 42.164C84.5807 40.9613 85.5414 40.0227 86.7441 39.348C87.9614 38.6733 89.2961 38.336 90.7481 38.336C92.2001 38.336 93.5274 38.6733 94.7301 39.348C95.9474 40.0227 96.9007 40.9613 97.5901 42.164C98.2941 43.3667 98.6461 44.7233 98.6461 46.234C98.6461 47.7447 98.2941 49.1087 97.5901 50.326C96.8861 51.5287 95.9327 52.4673 94.7301 53.142C93.5274 53.8167 92.2001 54.154 90.7481 54.154ZM90.7481 50.722C91.9801 50.722 92.9627 50.3113 93.6961 49.49C94.4441 48.6687 94.8181 47.5833 94.8181 46.234C94.8181 44.87 94.4441 43.7847 93.6961 42.978C92.9627 42.1567 91.9801 41.746 90.7481 41.746C89.5014 41.746 88.5041 42.1493 87.7561 42.956C87.0227 43.7627 86.6561 44.8553 86.6561 46.234C86.6561 47.598 87.0227 48.6907 87.7561 49.512C88.5041 50.3187 89.5014 50.722 90.7481 50.722Z" fill="#142A3D"/>
<path d="M61.065 69.545V70.655H56.52V74.18H60.21V75.29H56.52V80H55.155V69.545H61.065ZM63.4186 70.445C63.1586 70.445 62.9386 70.355 62.7586 70.175C62.5786 69.995 62.4886 69.775 62.4886 69.515C62.4886 69.255 62.5786 69.035 62.7586 68.855C62.9386 68.675 63.1586 68.585 63.4186 68.585C63.6686 68.585 63.8786 68.675 64.0486 68.855C64.2286 69.035 64.3186 69.255 64.3186 69.515C64.3186 69.775 64.2286 69.995 64.0486 70.175C63.8786 70.355 63.6686 70.445 63.4186 70.445ZM64.0786 71.78V80H62.7136V71.78H64.0786ZM68.07 72.905V77.75C68.07 78.15 68.155 78.435 68.325 78.605C68.495 78.765 68.79 78.845 69.21 78.845H70.215V80H68.985C68.225 80 67.655 79.825 67.275 79.475C66.895 79.125 66.705 78.55 66.705 77.75V72.905H65.64V71.78H66.705V69.71H68.07V71.78H70.215V72.905H68.07ZM75.8739 71.63C76.8739 71.63 77.6839 71.935 78.3039 72.545C78.9239 73.145 79.2339 74.015 79.2339 75.155V80H77.8839V75.35C77.8839 74.53 77.6789 73.905 77.2689 73.475C76.8589 73.035 76.2989 72.815 75.5889 72.815C74.8689 72.815 74.2939 73.04 73.8639 73.49C73.4439 73.94 73.2339 74.595 73.2339 75.455V80H71.8689V71.78H73.2339V72.95C73.5039 72.53 73.8689 72.205 74.3289 71.975C74.7989 71.745 75.3139 71.63 75.8739 71.63ZM88.9636 75.575C88.9636 75.835 88.9486 76.11 88.9186 76.4H82.3486C82.3986 77.21 82.6736 77.845 83.1736 78.305C83.6836 78.755 84.2986 78.98 85.0186 78.98C85.6086 78.98 86.0986 78.845 86.4886 78.575C86.8886 78.295 87.1686 77.925 87.3286 77.465H88.7986C88.5786 78.255 88.1386 78.9 87.4786 79.4C86.8186 79.89 85.9986 80.135 85.0186 80.135C84.2386 80.135 83.5386 79.96 82.9186 79.61C82.3086 79.26 81.8286 78.765 81.4786 78.125C81.1286 77.475 80.9536 76.725 80.9536 75.875C80.9536 75.025 81.1236 74.28 81.4636 73.64C81.8036 73 82.2786 72.51 82.8886 72.17C83.5086 71.82 84.2186 71.645 85.0186 71.645C85.7986 71.645 86.4886 71.815 87.0886 72.155C87.6886 72.495 88.1486 72.965 88.4686 73.565C88.7986 74.155 88.9636 74.825 88.9636 75.575ZM87.5536 75.29C87.5536 74.77 87.4386 74.325 87.2086 73.955C86.9786 73.575 86.6636 73.29 86.2636 73.1C85.8736 72.9 85.4386 72.8 84.9586 72.8C84.2686 72.8 83.6786 73.02 83.1886 73.46C82.7086 73.9 82.4336 74.51 82.3636 75.29H87.5536ZM93.6754 80.135C93.0454 80.135 92.4804 80.03 91.9804 79.82C91.4804 79.6 91.0854 79.3 90.7954 78.92C90.5054 78.53 90.3454 78.085 90.3154 77.585H91.7254C91.7654 77.995 91.9554 78.33 92.2954 78.59C92.6454 78.85 93.1004 78.98 93.6604 78.98C94.1804 78.98 94.5904 78.865 94.8904 78.635C95.1904 78.405 95.3404 78.115 95.3404 77.765C95.3404 77.405 95.1804 77.14 94.8604 76.97C94.5404 76.79 94.0454 76.615 93.3754 76.445C92.7654 76.285 92.2654 76.125 91.8754 75.965C91.4954 75.795 91.1654 75.55 90.8854 75.23C90.6154 74.9 90.4804 74.47 90.4804 73.94C90.4804 73.52 90.6054 73.135 90.8554 72.785C91.1054 72.435 91.4604 72.16 91.9204 71.96C92.3804 71.75 92.9054 71.645 93.4954 71.645C94.4054 71.645 95.1404 71.875 95.7004 72.335C96.2604 72.795 96.5604 73.425 96.6004 74.225H95.2354C95.2054 73.795 95.0304 73.45 94.7104 73.19C94.4004 72.93 93.9804 72.8 93.4504 72.8C92.9604 72.8 92.5704 72.905 92.2804 73.115C91.9904 73.325 91.8454 73.6 91.8454 73.94C91.8454 74.21 91.9304 74.435 92.1004 74.615C92.2804 74.785 92.5004 74.925 92.7604 75.035C93.0304 75.135 93.4004 75.25 93.8704 75.38C94.4604 75.54 94.9404 75.7 95.3104 75.86C95.6804 76.01 95.9954 76.24 96.2554 76.55C96.5254 76.86 96.6654 77.265 96.6754 77.765C96.6754 78.215 96.5504 78.62 96.3004 78.98C96.0504 79.34 95.6954 79.625 95.2354 79.835C94.7854 80.035 94.2654 80.135 93.6754 80.135ZM101.512 80.135C100.882 80.135 100.317 80.03 99.8173 79.82C99.3173 79.6 98.9223 79.3 98.6323 78.92C98.3423 78.53 98.1823 78.085 98.1523 77.585H99.5623C99.6023 77.995 99.7923 78.33 100.132 78.59C100.482 78.85 100.937 78.98 101.497 78.98C102.017 78.98 102.427 78.865 102.727 78.635C103.027 78.405 103.177 78.115 103.177 77.765C103.177 77.405 103.017 77.14 102.697 76.97C102.377 76.79 101.882 76.615 101.212 76.445C100.602 76.285 100.102 76.125 99.7123 75.965C99.3323 75.795 99.0023 75.55 98.7223 75.23C98.4523 74.9 98.3173 74.47 98.3173 73.94C98.3173 73.52 98.4423 73.135 98.6923 72.785C98.9423 72.435 99.2973 72.16 99.7573 71.96C100.217 71.75 100.742 71.645 101.332 71.645C102.242 71.645 102.977 71.875 103.537 72.335C104.097 72.795 104.397 73.425 104.437 74.225H103.072C103.042 73.795 102.867 73.45 102.547 73.19C102.237 72.93 101.817 72.8 101.287 72.8C100.797 72.8 100.407 72.905 100.117 73.115C99.8273 73.325 99.6823 73.6 99.6823 73.94C99.6823 74.21 99.7673 74.435 99.9373 74.615C100.117 74.785 100.337 74.925 100.597 75.035C100.867 75.135 101.237 75.25 101.707 75.38C102.297 75.54 102.777 75.7 103.147 75.86C103.517 76.01 103.832 76.24 104.092 76.55C104.362 76.86 104.502 77.265 104.512 77.765C104.512 78.215 104.387 78.62 104.137 78.98C103.887 79.34 103.532 79.625 103.072 79.835C102.622 80.035 102.102 80.135 101.512 80.135ZM118.463 80L117.098 78.62C116.588 79.15 116.043 79.545 115.463 79.805C114.883 80.055 114.228 80.18 113.498 80.18C112.778 80.18 112.138 80.05 111.578 79.79C111.028 79.53 110.598 79.16 110.288 78.68C109.988 78.2 109.838 77.64 109.838 77C109.838 76.27 110.043 75.63 110.453 75.08C110.873 74.52 111.488 74.08 112.298 73.76C111.978 73.38 111.748 73.03 111.608 72.71C111.468 72.39 111.398 72.04 111.398 71.66C111.398 71.22 111.508 70.825 111.728 70.475C111.958 70.115 112.283 69.835 112.703 69.635C113.123 69.435 113.608 69.335 114.158 69.335C114.698 69.335 115.168 69.44 115.568 69.65C115.968 69.86 116.268 70.155 116.468 70.535C116.668 70.905 116.758 71.32 116.738 71.78H115.373C115.383 71.37 115.268 71.05 115.028 70.82C114.788 70.58 114.478 70.46 114.098 70.46C113.698 70.46 113.373 70.575 113.123 70.805C112.883 71.025 112.763 71.31 112.763 71.66C112.763 71.96 112.843 72.25 113.003 72.53C113.173 72.81 113.453 73.155 113.843 73.565L116.963 76.7L117.233 76.28L118.253 74.57H119.723L118.493 76.7C118.323 77 118.123 77.315 117.893 77.645L120.248 80H118.463ZM113.498 79.01C114.038 79.01 114.523 78.905 114.953 78.695C115.393 78.485 115.808 78.16 116.198 77.72L113.123 74.63C111.843 75.12 111.203 75.895 111.203 76.955C111.203 77.545 111.413 78.035 111.833 78.425C112.263 78.815 112.818 79.01 113.498 79.01ZM138.666 69.545L135.636 80H134.106L131.676 71.585L129.156 80L127.641 80.015L124.716 69.545H126.171L128.451 78.41L130.971 69.545H132.501L134.901 78.38L137.196 69.545H138.666ZM147.66 75.575C147.66 75.835 147.645 76.11 147.615 76.4H141.045C141.095 77.21 141.37 77.845 141.87 78.305C142.38 78.755 142.995 78.98 143.715 78.98C144.305 78.98 144.795 78.845 145.185 78.575C145.585 78.295 145.865 77.925 146.025 77.465H147.495C147.275 78.255 146.835 78.9 146.175 79.4C145.515 79.89 144.695 80.135 143.715 80.135C142.935 80.135 142.235 79.96 141.615 79.61C141.005 79.26 140.525 78.765 140.175 78.125C139.825 77.475 139.65 76.725 139.65 75.875C139.65 75.025 139.82 74.28 140.16 73.64C140.5 73 140.975 72.51 141.585 72.17C142.205 71.82 142.915 71.645 143.715 71.645C144.495 71.645 145.185 71.815 145.785 72.155C146.385 72.495 146.845 72.965 147.165 73.565C147.495 74.155 147.66 74.825 147.66 75.575ZM146.25 75.29C146.25 74.77 146.135 74.325 145.905 73.955C145.675 73.575 145.36 73.29 144.96 73.1C144.57 72.9 144.135 72.8 143.655 72.8C142.965 72.8 142.375 73.02 141.885 73.46C141.405 73.9 141.13 74.51 141.06 75.29H146.25ZM150.827 68.9V80H149.462V68.9H150.827ZM154.518 68.9V80H153.153V68.9H154.518ZM160.849 71.63C161.849 71.63 162.659 71.935 163.279 72.545C163.899 73.145 164.209 74.015 164.209 75.155V80H162.859V75.35C162.859 74.53 162.654 73.905 162.244 73.475C161.834 73.035 161.274 72.815 160.564 72.815C159.844 72.815 159.269 73.04 158.839 73.49C158.419 73.94 158.209 74.595 158.209 75.455V80H156.844V71.78H158.209V72.95C158.479 72.53 158.844 72.205 159.304 71.975C159.774 71.745 160.289 71.63 160.849 71.63ZM173.939 75.575C173.939 75.835 173.924 76.11 173.894 76.4H167.324C167.374 77.21 167.649 77.845 168.149 78.305C168.659 78.755 169.274 78.98 169.994 78.98C170.584 78.98 171.074 78.845 171.464 78.575C171.864 78.295 172.144 77.925 172.304 77.465H173.774C173.554 78.255 173.114 78.9 172.454 79.4C171.794 79.89 170.974 80.135 169.994 80.135C169.214 80.135 168.514 79.96 167.894 79.61C167.284 79.26 166.804 78.765 166.454 78.125C166.104 77.475 165.929 76.725 165.929 75.875C165.929 75.025 166.099 74.28 166.439 73.64C166.779 73 167.254 72.51 167.864 72.17C168.484 71.82 169.194 71.645 169.994 71.645C170.774 71.645 171.464 71.815 172.064 72.155C172.664 72.495 173.124 72.965 173.444 73.565C173.774 74.155 173.939 74.825 173.939 75.575ZM172.529 75.29C172.529 74.77 172.414 74.325 172.184 73.955C171.954 73.575 171.639 73.29 171.239 73.1C170.849 72.9 170.414 72.8 169.934 72.8C169.244 72.8 168.654 73.02 168.164 73.46C167.684 73.9 167.409 74.51 167.339 75.29H172.529ZM178.651 80.135C178.021 80.135 177.456 80.03 176.956 79.82C176.456 79.6 176.061 79.3 175.771 78.92C175.481 78.53 175.321 78.085 175.291 77.585H176.701C176.741 77.995 176.931 78.33 177.271 78.59C177.621 78.85 178.076 78.98 178.636 78.98C179.156 78.98 179.566 78.865 179.866 78.635C180.166 78.405 180.316 78.115 180.316 77.765C180.316 77.405 180.156 77.14 179.836 76.97C179.516 76.79 179.021 76.615 178.351 76.445C177.741 76.285 177.241 76.125 176.851 75.965C176.471 75.795 176.141 75.55 175.861 75.23C175.591 74.9 175.456 74.47 175.456 73.94C175.456 73.52 175.581 73.135 175.831 72.785C176.081 72.435 176.436 72.16 176.896 71.96C177.356 71.75 177.881 71.645 178.471 71.645C179.381 71.645 180.116 71.875 180.676 72.335C181.236 72.795 181.536 73.425 181.576 74.225H180.211C180.181 73.795 180.006 73.45 179.686 73.19C179.376 72.93 178.956 72.8 178.426 72.8C177.936 72.8 177.546 72.905 177.256 73.115C176.966 73.325 176.821 73.6 176.821 73.94C176.821 74.21 176.906 74.435 177.076 74.615C177.256 74.785 177.476 74.925 177.736 75.035C178.006 75.135 178.376 75.25 178.846 75.38C179.436 75.54 179.916 75.7 180.286 75.86C180.656 76.01 180.971 76.24 181.231 76.55C181.501 76.86 181.641 77.265 181.651 77.765C181.651 78.215 181.526 78.62 181.276 78.98C181.026 79.34 180.671 79.625 180.211 79.835C179.761 80.035 179.241 80.135 178.651 80.135ZM186.488 80.135C185.858 80.135 185.293 80.03 184.793 79.82C184.293 79.6 183.898 79.3 183.608 78.92C183.318 78.53 183.158 78.085 183.128 77.585H184.538C184.578 77.995 184.768 78.33 185.108 78.59C185.458 78.85 185.913 78.98 186.473 78.98C186.993 78.98 187.403 78.865 187.703 78.635C188.003 78.405 188.153 78.115 188.153 77.765C188.153 77.405 187.993 77.14 187.673 76.97C187.353 76.79 186.858 76.615 186.188 76.445C185.578 76.285 185.078 76.125 184.688 75.965C184.308 75.795 183.978 75.55 183.698 75.23C183.428 74.9 183.293 74.47 183.293 73.94C183.293 73.52 183.418 73.135 183.668 72.785C183.918 72.435 184.273 72.16 184.733 71.96C185.193 71.75 185.718 71.645 186.308 71.645C187.218 71.645 187.953 71.875 188.513 72.335C189.073 72.795 189.373 73.425 189.413 74.225H188.048C188.018 73.795 187.843 73.45 187.523 73.19C187.213 72.93 186.793 72.8 186.263 72.8C185.773 72.8 185.383 72.905 185.093 73.115C184.803 73.325 184.658 73.6 184.658 73.94C184.658 74.21 184.743 74.435 184.913 74.615C185.093 74.785 185.313 74.925 185.573 75.035C185.843 75.135 186.213 75.25 186.683 75.38C187.273 75.54 187.753 75.7 188.123 75.86C188.493 76.01 188.808 76.24 189.068 76.55C189.338 76.86 189.478 77.265 189.488 77.765C189.488 78.215 189.363 78.62 189.113 78.98C188.863 79.34 188.508 79.625 188.048 79.835C187.598 80.035 187.078 80.135 186.488 80.135ZM204.054 69.545L200.109 80H198.534L194.589 69.545H196.044L199.329 78.56L202.614 69.545H204.054ZM210.291 80.105C209.321 80.105 208.436 79.88 207.636 79.43C206.836 78.97 206.201 78.335 205.731 77.525C205.271 76.705 205.041 75.785 205.041 74.765C205.041 73.745 205.271 72.83 205.731 72.02C206.201 71.2 206.836 70.565 207.636 70.115C208.436 69.655 209.321 69.425 210.291 69.425C211.271 69.425 212.161 69.655 212.961 70.115C213.761 70.565 214.391 71.195 214.851 72.005C215.311 72.815 215.541 73.735 215.541 74.765C215.541 75.795 215.311 76.715 214.851 77.525C214.391 78.335 213.761 78.97 212.961 79.43C212.161 79.88 211.271 80.105 210.291 80.105ZM210.291 78.92C211.021 78.92 211.676 78.75 212.256 78.41C212.846 78.07 213.306 77.585 213.636 76.955C213.976 76.325 214.146 75.595 214.146 74.765C214.146 73.925 213.976 73.195 213.636 72.575C213.306 71.945 212.851 71.46 212.271 71.12C211.691 70.78 211.031 70.61 210.291 70.61C209.551 70.61 208.891 70.78 208.311 71.12C207.731 71.46 207.271 71.945 206.931 72.575C206.601 73.195 206.436 73.925 206.436 74.765C206.436 75.595 206.601 76.325 206.931 76.955C207.271 77.585 207.731 78.07 208.311 78.41C208.901 78.75 209.561 78.92 210.291 78.92ZM220.597 69.545C221.738 69.545 222.723 69.76 223.553 70.19C224.393 70.61 225.033 71.215 225.473 72.005C225.923 72.795 226.148 73.725 226.148 74.795C226.148 75.865 225.923 76.795 225.473 77.585C225.033 78.365 224.393 78.965 223.553 79.385C222.723 79.795 221.738 80 220.597 80H217.343V69.545H220.597ZM220.597 78.875C221.948 78.875 222.978 78.52 223.688 77.81C224.398 77.09 224.753 76.085 224.753 74.795C224.753 73.495 224.393 72.48 223.673 71.75C222.963 71.02 221.938 70.655 220.597 70.655H218.708V78.875H220.597ZM238.127 77.675H233.567L232.727 80H231.287L235.067 69.605H236.642L240.407 80H238.967L238.127 77.675ZM237.737 76.565L235.847 71.285L233.957 76.565H237.737ZM241.544 75.875C241.544 75.025 241.714 74.285 242.054 73.655C242.394 73.015 242.864 72.52 243.464 72.17C244.074 71.82 244.769 71.645 245.549 71.645C246.559 71.645 247.389 71.89 248.039 72.38C248.699 72.87 249.134 73.55 249.344 74.42H247.874C247.734 73.92 247.459 73.525 247.049 73.235C246.649 72.945 246.149 72.8 245.549 72.8C244.769 72.8 244.139 73.07 243.659 73.61C243.179 74.14 242.939 74.895 242.939 75.875C242.939 76.865 243.179 77.63 243.659 78.17C244.139 78.71 244.769 78.98 245.549 78.98C246.149 78.98 246.649 78.84 247.049 78.56C247.449 78.28 247.724 77.88 247.874 77.36H249.344C249.124 78.2 248.684 78.875 248.024 79.385C247.364 79.885 246.539 80.135 245.549 80.135C244.769 80.135 244.074 79.96 243.464 79.61C242.864 79.26 242.394 78.765 242.054 78.125C241.714 77.485 241.544 76.735 241.544 75.875ZM250.656 75.875C250.656 75.025 250.826 74.285 251.166 73.655C251.506 73.015 251.976 72.52 252.576 72.17C253.186 71.82 253.881 71.645 254.661 71.645C255.671 71.645 256.501 71.89 257.151 72.38C257.811 72.87 258.246 73.55 258.456 74.42H256.986C256.846 73.92 256.571 73.525 256.161 73.235C255.761 72.945 255.261 72.8 254.661 72.8C253.881 72.8 253.251 73.07 252.771 73.61C252.291 74.14 252.051 74.895 252.051 75.875C252.051 76.865 252.291 77.63 252.771 78.17C253.251 78.71 253.881 78.98 254.661 78.98C255.261 78.98 255.761 78.84 256.161 78.56C256.561 78.28 256.836 77.88 256.986 77.36H258.456C258.236 78.2 257.796 78.875 257.136 79.385C256.476 79.885 255.651 80.135 254.661 80.135C253.881 80.135 253.186 79.96 252.576 79.61C251.976 79.26 251.506 78.765 251.166 78.125C250.826 77.485 250.656 76.735 250.656 75.875ZM267.777 75.575C267.777 75.835 267.762 76.11 267.732 76.4H261.162C261.212 77.21 261.487 77.845 261.987 78.305C262.497 78.755 263.112 78.98 263.832 78.98C264.422 78.98 264.912 78.845 265.302 78.575C265.702 78.295 265.982 77.925 266.142 77.465H267.612C267.392 78.255 266.952 78.9 266.292 79.4C265.632 79.89 264.812 80.135 263.832 80.135C263.052 80.135 262.352 79.96 261.732 79.61C261.122 79.26 260.642 78.765 260.292 78.125C259.942 77.475 259.767 76.725 259.767 75.875C259.767 75.025 259.937 74.28 260.277 73.64C260.617 73 261.092 72.51 261.702 72.17C262.322 71.82 263.032 71.645 263.832 71.645C264.612 71.645 265.302 71.815 265.902 72.155C266.502 72.495 266.962 72.965 267.282 73.565C267.612 74.155 267.777 74.825 267.777 75.575ZM266.367 75.29C266.367 74.77 266.252 74.325 266.022 73.955C265.792 73.575 265.477 73.29 265.077 73.1C264.687 72.9 264.252 72.8 263.772 72.8C263.082 72.8 262.492 73.02 262.002 73.46C261.522 73.9 261.247 74.51 261.177 75.29H266.367ZM272.489 80.135C271.859 80.135 271.294 80.03 270.794 79.82C270.294 79.6 269.899 79.3 269.609 78.92C269.319 78.53 269.159 78.085 269.129 77.585H270.539C270.579 77.995 270.769 78.33 271.109 78.59C271.459 78.85 271.914 78.98 272.474 78.98C272.994 78.98 273.404 78.865 273.704 78.635C274.004 78.405 274.154 78.115 274.154 77.765C274.154 77.405 273.994 77.14 273.674 76.97C273.354 76.79 272.859 76.615 272.189 76.445C271.579 76.285 271.079 76.125 270.689 75.965C270.309 75.795 269.979 75.55 269.699 75.23C269.429 74.9 269.294 74.47 269.294 73.94C269.294 73.52 269.419 73.135 269.669 72.785C269.919 72.435 270.274 72.16 270.734 71.96C271.194 71.75 271.719 71.645 272.309 71.645C273.219 71.645 273.954 71.875 274.514 72.335C275.074 72.795 275.374 73.425 275.414 74.225H274.049C274.019 73.795 273.844 73.45 273.524 73.19C273.214 72.93 272.794 72.8 272.264 72.8C271.774 72.8 271.384 72.905 271.094 73.115C270.804 73.325 270.659 73.6 270.659 73.94C270.659 74.21 270.744 74.435 270.914 74.615C271.094 74.785 271.314 74.925 271.574 75.035C271.844 75.135 272.214 75.25 272.684 75.38C273.274 75.54 273.754 75.7 274.124 75.86C274.494 76.01 274.809 76.24 275.069 76.55C275.339 76.86 275.479 77.265 275.489 77.765C275.489 78.215 275.364 78.62 275.114 78.98C274.864 79.34 274.509 79.625 274.049 79.835C273.599 80.035 273.079 80.135 272.489 80.135ZM280.326 80.135C279.696 80.135 279.131 80.03 278.631 79.82C278.131 79.6 277.736 79.3 277.446 78.92C277.156 78.53 276.996 78.085 276.966 77.585H278.376C278.416 77.995 278.606 78.33 278.946 78.59C279.296 78.85 279.751 78.98 280.311 78.98C280.831 78.98 281.241 78.865 281.541 78.635C281.841 78.405 281.991 78.115 281.991 77.765C281.991 77.405 281.831 77.14 281.511 76.97C281.191 76.79 280.696 76.615 280.026 76.445C279.416 76.285 278.916 76.125 278.526 75.965C278.146 75.795 277.816 75.55 277.536 75.23C277.266 74.9 277.131 74.47 277.131 73.94C277.131 73.52 277.256 73.135 277.506 72.785C277.756 72.435 278.111 72.16 278.571 71.96C279.031 71.75 279.556 71.645 280.146 71.645C281.056 71.645 281.791 71.875 282.351 72.335C282.911 72.795 283.211 73.425 283.251 74.225H281.886C281.856 73.795 281.681 73.45 281.361 73.19C281.051 72.93 280.631 72.8 280.101 72.8C279.611 72.8 279.221 72.905 278.931 73.115C278.641 73.325 278.496 73.6 278.496 73.94C278.496 74.21 278.581 74.435 278.751 74.615C278.931 74.785 279.151 74.925 279.411 75.035C279.681 75.135 280.051 75.25 280.521 75.38C281.111 75.54 281.591 75.7 281.961 75.86C282.331 76.01 282.646 76.24 282.906 76.55C283.176 76.86 283.316 77.265 283.326 77.765C283.326 78.215 283.201 78.62 282.951 78.98C282.701 79.34 282.346 79.625 281.886 79.835C281.436 80.035 280.916 80.135 280.326 80.135ZM62.145 94.605C62.145 95.475 61.845 96.2 61.245 96.78C60.655 97.35 59.75 97.635 58.53 97.635H56.52V102H55.155V91.545H58.53C59.71 91.545 60.605 91.83 61.215 92.4C61.835 92.97 62.145 93.705 62.145 94.605ZM58.53 96.51C59.29 96.51 59.85 96.345 60.21 96.015C60.57 95.685 60.75 95.215 60.75 94.605C60.75 93.315 60.01 92.67 58.53 92.67H56.52V96.51H58.53ZM71.3415 97.575C71.3415 97.835 71.3265 98.11 71.2965 98.4H64.7265C64.7765 99.21 65.0515 99.845 65.5515 100.305C66.0615 100.755 66.6765 100.98 67.3965 100.98C67.9865 100.98 68.4765 100.845 68.8665 100.575C69.2665 100.295 69.5465 99.925 69.7065 99.465H71.1765C70.9565 100.255 70.5165 100.9 69.8565 101.4C69.1965 101.89 68.3765 102.135 67.3965 102.135C66.6165 102.135 65.9165 101.96 65.2965 101.61C64.6865 101.26 64.2065 100.765 63.8565 100.125C63.5065 99.475 63.3315 98.725 63.3315 97.875C63.3315 97.025 63.5015 96.28 63.8415 95.64C64.1815 95 64.6565 94.51 65.2665 94.17C65.8865 93.82 66.5965 93.645 67.3965 93.645C68.1765 93.645 68.8665 93.815 69.4665 94.155C70.0665 94.495 70.5265 94.965 70.8465 95.565C71.1765 96.155 71.3415 96.825 71.3415 97.575ZM69.9315 97.29C69.9315 96.77 69.8165 96.325 69.5865 95.955C69.3565 95.575 69.0415 95.29 68.6415 95.1C68.2515 94.9 67.8165 94.8 67.3365 94.8C66.6465 94.8 66.0565 95.02 65.5665 95.46C65.0865 95.9 64.8115 96.51 64.7415 97.29H69.9315ZM74.5083 95.115C74.7483 94.645 75.0883 94.28 75.5283 94.02C75.9783 93.76 76.5233 93.63 77.1633 93.63V95.04H76.8033C75.2733 95.04 74.5083 95.87 74.5083 97.53V102H73.1433V93.78H74.5083V95.115ZM81.649 102.135C81.019 102.135 80.454 102.03 79.954 101.82C79.454 101.6 79.059 101.3 78.769 100.92C78.479 100.53 78.319 100.085 78.289 99.585H79.699C79.739 99.995 79.929 100.33 80.269 100.59C80.619 100.85 81.074 100.98 81.634 100.98C82.154 100.98 82.564 100.865 82.864 100.635C83.164 100.405 83.314 100.115 83.314 99.765C83.314 99.405 83.154 99.14 82.834 98.97C82.514 98.79 82.019 98.615 81.349 98.445C80.739 98.285 80.239 98.125 79.849 97.965C79.469 97.795 79.139 97.55 78.859 97.23C78.589 96.9 78.454 96.47 78.454 95.94C78.454 95.52 78.579 95.135 78.829 94.785C79.079 94.435 79.434 94.16 79.894 93.96C80.354 93.75 80.879 93.645 81.469 93.645C82.379 93.645 83.114 93.875 83.674 94.335C84.234 94.795 84.534 95.425 84.574 96.225H83.209C83.179 95.795 83.004 95.45 82.684 95.19C82.374 94.93 81.954 94.8 81.424 94.8C80.934 94.8 80.544 94.905 80.254 95.115C79.964 95.325 79.819 95.6 79.819 95.94C79.819 96.21 79.904 96.435 80.074 96.615C80.254 96.785 80.474 96.925 80.734 97.035C81.004 97.135 81.374 97.25 81.844 97.38C82.434 97.54 82.914 97.7 83.284 97.86C83.654 98.01 83.969 98.24 84.229 98.55C84.499 98.86 84.639 99.265 84.649 99.765C84.649 100.215 84.524 100.62 84.274 100.98C84.024 101.34 83.669 101.625 83.209 101.835C82.759 102.035 82.239 102.135 81.649 102.135ZM90.1609 102.135C89.3909 102.135 88.6909 101.96 88.0609 101.61C87.4409 101.26 86.9509 100.765 86.5909 100.125C86.2409 99.475 86.0659 98.725 86.0659 97.875C86.0659 97.035 86.2459 96.295 86.6059 95.655C86.9759 95.005 87.4759 94.51 88.1059 94.17C88.7359 93.82 89.4409 93.645 90.2209 93.645C91.0009 93.645 91.7059 93.82 92.3359 94.17C92.9659 94.51 93.4609 95 93.8209 95.64C94.1909 96.28 94.3759 97.025 94.3759 97.875C94.3759 98.725 94.1859 99.475 93.8059 100.125C93.4359 100.765 92.9309 101.26 92.2909 101.61C91.6509 101.96 90.9409 102.135 90.1609 102.135ZM90.1609 100.935C90.6509 100.935 91.1109 100.82 91.5409 100.59C91.9709 100.36 92.3159 100.015 92.5759 99.555C92.8459 99.095 92.9809 98.535 92.9809 97.875C92.9809 97.215 92.8509 96.655 92.5909 96.195C92.3309 95.735 91.9909 95.395 91.5709 95.175C91.1509 94.945 90.6959 94.83 90.2059 94.83C89.7059 94.83 89.2459 94.945 88.8259 95.175C88.4159 95.395 88.0859 95.735 87.8359 96.195C87.5859 96.655 87.4609 97.215 87.4609 97.875C87.4609 98.545 87.5809 99.11 87.8209 99.57C88.0709 100.03 88.4009 100.375 88.8109 100.605C89.2209 100.825 89.6709 100.935 90.1609 100.935ZM100.176 93.63C101.176 93.63 101.986 93.935 102.606 94.545C103.226 95.145 103.536 96.015 103.536 97.155V102H102.186V97.35C102.186 96.53 101.981 95.905 101.571 95.475C101.161 95.035 100.601 94.815 99.8906 94.815C99.1706 94.815 98.5956 95.04 98.1656 95.49C97.7456 95.94 97.5356 96.595 97.5356 97.455V102H96.1706V93.78H97.5356V94.95C97.8056 94.53 98.1706 94.205 98.6306 93.975C99.1006 93.745 99.6156 93.63 100.176 93.63ZM105.255 97.86C105.255 97.02 105.425 96.285 105.765 95.655C106.105 95.015 106.57 94.52 107.16 94.17C107.76 93.82 108.425 93.645 109.155 93.645C109.875 93.645 110.5 93.8 111.03 94.11C111.56 94.42 111.955 94.81 112.215 95.28V93.78H113.595V102H112.215V100.47C111.945 100.95 111.54 101.35 111 101.67C110.47 101.98 109.85 102.135 109.14 102.135C108.41 102.135 107.75 101.955 107.16 101.595C106.57 101.235 106.105 100.73 105.765 100.08C105.425 99.43 105.255 98.69 105.255 97.86ZM112.215 97.875C112.215 97.255 112.09 96.715 111.84 96.255C111.59 95.795 111.25 95.445 110.82 95.205C110.4 94.955 109.935 94.83 109.425 94.83C108.915 94.83 108.45 94.95 108.03 95.19C107.61 95.43 107.275 95.78 107.025 96.24C106.775 96.7 106.65 97.24 106.65 97.86C106.65 98.49 106.775 99.04 107.025 99.51C107.275 99.97 107.61 100.325 108.03 100.575C108.45 100.815 108.915 100.935 109.425 100.935C109.935 100.935 110.4 100.815 110.82 100.575C111.25 100.325 111.59 99.97 111.84 99.51C112.09 99.04 112.215 98.495 112.215 97.875ZM117.267 90.9V102H115.902V90.9H117.267ZM120.298 92.445C120.038 92.445 119.818 92.355 119.638 92.175C119.458 91.995 119.368 91.775 119.368 91.515C119.368 91.255 119.458 91.035 119.638 90.855C119.818 90.675 120.038 90.585 120.298 90.585C120.548 90.585 120.758 90.675 120.928 90.855C121.108 91.035 121.198 91.255 121.198 91.515C121.198 91.775 121.108 91.995 120.928 92.175C120.758 92.355 120.548 92.445 120.298 92.445ZM120.958 93.78V102H119.593V93.78H120.958ZM124.305 100.875H128.34V102H122.745V100.875L126.735 94.89H122.775V93.78H128.31V94.89L124.305 100.875ZM137.611 97.575C137.611 97.835 137.596 98.11 137.566 98.4H130.996C131.046 99.21 131.321 99.845 131.821 100.305C132.331 100.755 132.946 100.98 133.666 100.98C134.256 100.98 134.746 100.845 135.136 100.575C135.536 100.295 135.816 99.925 135.976 99.465H137.446C137.226 100.255 136.786 100.9 136.126 101.4C135.466 101.89 134.646 102.135 133.666 102.135C132.886 102.135 132.186 101.96 131.566 101.61C130.956 101.26 130.476 100.765 130.126 100.125C129.776 99.475 129.601 98.725 129.601 97.875C129.601 97.025 129.771 96.28 130.111 95.64C130.451 95 130.926 94.51 131.536 94.17C132.156 93.82 132.866 93.645 133.666 93.645C134.446 93.645 135.136 93.815 135.736 94.155C136.336 94.495 136.796 94.965 137.116 95.565C137.446 96.155 137.611 96.825 137.611 97.575ZM136.201 97.29C136.201 96.77 136.086 96.325 135.856 95.955C135.626 95.575 135.311 95.29 134.911 95.1C134.521 94.9 134.086 94.8 133.606 94.8C132.916 94.8 132.326 95.02 131.836 95.46C131.356 95.9 131.081 96.51 131.011 97.29H136.201ZM138.903 97.86C138.903 97.02 139.073 96.285 139.413 95.655C139.753 95.015 140.218 94.52 140.808 94.17C141.408 93.82 142.078 93.645 142.818 93.645C143.458 93.645 144.053 93.795 144.603 94.095C145.153 94.385 145.573 94.77 145.863 95.25V90.9H147.243V102H145.863V100.455C145.593 100.945 145.193 101.35 144.663 101.67C144.133 101.98 143.513 102.135 142.803 102.135C142.073 102.135 141.408 101.955 140.808 101.595C140.218 101.235 139.753 100.73 139.413 100.08C139.073 99.43 138.903 98.69 138.903 97.86ZM145.863 97.875C145.863 97.255 145.738 96.715 145.488 96.255C145.238 95.795 144.898 95.445 144.468 95.205C144.048 94.955 143.583 94.83 143.073 94.83C142.563 94.83 142.098 94.95 141.678 95.19C141.258 95.43 140.923 95.78 140.673 96.24C140.423 96.7 140.298 97.24 140.298 97.86C140.298 98.49 140.423 99.04 140.673 99.51C140.923 99.97 141.258 100.325 141.678 100.575C142.098 100.815 142.563 100.935 143.073 100.935C143.583 100.935 144.048 100.815 144.468 100.575C144.898 100.325 145.238 99.97 145.488 99.51C145.738 99.04 145.863 98.495 145.863 97.875ZM161.769 102H160.404L154.914 93.675V102H153.549V91.53H154.914L160.404 99.84V91.53H161.769V102ZM171.385 93.78V102H170.02V100.785C169.76 101.205 169.395 101.535 168.925 101.775C168.465 102.005 167.955 102.12 167.395 102.12C166.755 102.12 166.18 101.99 165.67 101.73C165.16 101.46 164.755 101.06 164.455 100.53C164.165 100 164.02 99.355 164.02 98.595V93.78H165.37V98.415C165.37 99.225 165.575 99.85 165.985 100.29C166.395 100.72 166.955 100.935 167.665 100.935C168.395 100.935 168.97 100.71 169.39 100.26C169.81 99.81 170.02 99.155 170.02 98.295V93.78H171.385ZM175.355 94.905V99.75C175.355 100.15 175.44 100.435 175.61 100.605C175.78 100.765 176.075 100.845 176.495 100.845H177.5V102H176.27C175.51 102 174.94 101.825 174.56 101.475C174.18 101.125 173.99 100.55 173.99 99.75V94.905H172.925V93.78H173.99V91.71H175.355V93.78H177.5V94.905H175.355ZM180.519 95.115C180.759 94.645 181.099 94.28 181.539 94.02C181.989 93.76 182.534 93.63 183.174 93.63V95.04H182.814C181.284 95.04 180.519 95.87 180.519 97.53V102H179.154V93.78H180.519V95.115ZM185.455 92.445C185.195 92.445 184.975 92.355 184.795 92.175C184.615 91.995 184.525 91.775 184.525 91.515C184.525 91.255 184.615 91.035 184.795 90.855C184.975 90.675 185.195 90.585 185.455 90.585C185.705 90.585 185.915 90.675 186.085 90.855C186.265 91.035 186.355 91.255 186.355 91.515C186.355 91.775 186.265 91.995 186.085 92.175C185.915 92.355 185.705 92.445 185.455 92.445ZM186.115 93.78V102H184.75V93.78H186.115ZM190.106 94.905V99.75C190.106 100.15 190.191 100.435 190.361 100.605C190.531 100.765 190.826 100.845 191.246 100.845H192.251V102H191.021C190.261 102 189.691 101.825 189.311 101.475C188.931 101.125 188.741 100.55 188.741 99.75V94.905H187.676V93.78H188.741V91.71H190.106V93.78H192.251V94.905H190.106ZM194.61 92.445C194.35 92.445 194.13 92.355 193.95 92.175C193.77 91.995 193.68 91.775 193.68 91.515C193.68 91.255 193.77 91.035 193.95 90.855C194.13 90.675 194.35 90.585 194.61 90.585C194.86 90.585 195.07 90.675 195.24 90.855C195.42 91.035 195.51 91.255 195.51 91.515C195.51 91.775 195.42 91.995 195.24 92.175C195.07 92.355 194.86 92.445 194.61 92.445ZM195.27 93.78V102H193.905V93.78H195.27ZM201.181 102.135C200.411 102.135 199.711 101.96 199.081 101.61C198.461 101.26 197.971 100.765 197.611 100.125C197.261 99.475 197.086 98.725 197.086 97.875C197.086 97.035 197.266 96.295 197.626 95.655C197.996 95.005 198.496 94.51 199.126 94.17C199.756 93.82 200.461 93.645 201.241 93.645C202.021 93.645 202.726 93.82 203.356 94.17C203.986 94.51 204.481 95 204.841 95.64C205.211 96.28 205.396 97.025 205.396 97.875C205.396 98.725 205.206 99.475 204.826 100.125C204.456 100.765 203.951 101.26 203.311 101.61C202.671 101.96 201.961 102.135 201.181 102.135ZM201.181 100.935C201.671 100.935 202.131 100.82 202.561 100.59C202.991 100.36 203.336 100.015 203.596 99.555C203.866 99.095 204.001 98.535 204.001 97.875C204.001 97.215 203.871 96.655 203.611 96.195C203.351 95.735 203.011 95.395 202.591 95.175C202.171 94.945 201.716 94.83 201.226 94.83C200.726 94.83 200.266 94.945 199.846 95.175C199.436 95.395 199.106 95.735 198.856 96.195C198.606 96.655 198.481 97.215 198.481 97.875C198.481 98.545 198.601 99.11 198.841 99.57C199.091 100.03 199.421 100.375 199.831 100.605C200.241 100.825 200.691 100.935 201.181 100.935ZM211.196 93.63C212.196 93.63 213.006 93.935 213.626 94.545C214.246 95.145 214.556 96.015 214.556 97.155V102H213.206V97.35C213.206 96.53 213.001 95.905 212.591 95.475C212.181 95.035 211.621 94.815 210.911 94.815C210.191 94.815 209.616 95.04 209.186 95.49C208.766 95.94 208.556 96.595 208.556 97.455V102H207.191V93.78H208.556V94.95C208.826 94.53 209.191 94.205 209.651 93.975C210.121 93.745 210.636 93.63 211.196 93.63ZM227.775 94.605C227.775 95.475 227.475 96.2 226.875 96.78C226.285 97.35 225.38 97.635 224.16 97.635H222.15V102H220.785V91.545H224.16C225.34 91.545 226.235 91.83 226.845 92.4C227.465 92.97 227.775 93.705 227.775 94.605ZM224.16 96.51C224.92 96.51 225.48 96.345 225.84 96.015C226.2 95.685 226.38 95.215 226.38 94.605C226.38 93.315 225.64 92.67 224.16 92.67H222.15V96.51H224.16ZM230.836 90.9V102H229.471V90.9H230.836ZM232.653 97.86C232.653 97.02 232.823 96.285 233.163 95.655C233.503 95.015 233.968 94.52 234.558 94.17C235.158 93.82 235.823 93.645 236.553 93.645C237.273 93.645 237.898 93.8 238.428 94.11C238.958 94.42 239.353 94.81 239.613 95.28V93.78H240.993V102H239.613V100.47C239.343 100.95 238.938 101.35 238.398 101.67C237.868 101.98 237.248 102.135 236.538 102.135C235.808 102.135 235.148 101.955 234.558 101.595C233.968 101.235 233.503 100.73 233.163 100.08C232.823 99.43 232.653 98.69 232.653 97.86ZM239.613 97.875C239.613 97.255 239.488 96.715 239.238 96.255C238.988 95.795 238.648 95.445 238.218 95.205C237.798 94.955 237.333 94.83 236.823 94.83C236.313 94.83 235.848 94.95 235.428 95.19C235.008 95.43 234.673 95.78 234.423 96.24C234.173 96.7 234.048 97.24 234.048 97.86C234.048 98.49 234.173 99.04 234.423 99.51C234.673 99.97 235.008 100.325 235.428 100.575C235.848 100.815 236.313 100.935 236.823 100.935C237.333 100.935 237.798 100.815 238.218 100.575C238.648 100.325 238.988 99.97 239.238 99.51C239.488 99.04 239.613 98.495 239.613 97.875ZM247.305 93.63C248.305 93.63 249.115 93.935 249.735 94.545C250.355 95.145 250.665 96.015 250.665 97.155V102H249.315V97.35C249.315 96.53 249.11 95.905 248.7 95.475C248.29 95.035 247.73 94.815 247.02 94.815C246.3 94.815 245.725 95.04 245.295 95.49C244.875 95.94 244.665 96.595 244.665 97.455V102H243.3V93.78H244.665V94.95C244.935 94.53 245.3 94.205 245.76 93.975C246.23 93.745 246.745 93.63 247.305 93.63ZM264.918 102L263.553 100.62C263.043 101.15 262.498 101.545 261.918 101.805C261.338 102.055 260.683 102.18 259.953 102.18C259.233 102.18 258.593 102.05 258.033 101.79C257.483 101.53 257.053 101.16 256.743 100.68C256.443 100.2 256.293 99.64 256.293 99C256.293 98.27 256.498 97.63 256.908 97.08C257.328 96.52 257.943 96.08 258.753 95.76C258.433 95.38 258.203 95.03 258.063 94.71C257.923 94.39 257.853 94.04 257.853 93.66C257.853 93.22 257.963 92.825 258.183 92.475C258.413 92.115 258.738 91.835 259.158 91.635C259.578 91.435 260.063 91.335 260.613 91.335C261.153 91.335 261.623 91.44 262.023 91.65C262.423 91.86 262.723 92.155 262.923 92.535C263.123 92.905 263.213 93.32 263.193 93.78H261.828C261.838 93.37 261.723 93.05 261.483 92.82C261.243 92.58 260.933 92.46 260.553 92.46C260.153 92.46 259.828 92.575 259.578 92.805C259.338 93.025 259.218 93.31 259.218 93.66C259.218 93.96 259.298 94.25 259.458 94.53C259.628 94.81 259.908 95.155 260.298 95.565L263.418 98.7L263.688 98.28L264.708 96.57H266.178L264.948 98.7C264.778 99 264.578 99.315 264.348 99.645L266.703 102H264.918ZM259.953 101.01C260.493 101.01 260.978 100.905 261.408 100.695C261.848 100.485 262.263 100.16 262.653 99.72L259.578 96.63C258.298 97.12 257.658 97.895 257.658 98.955C257.658 99.545 257.868 100.035 258.288 100.425C258.718 100.815 259.273 101.01 259.953 101.01ZM275.296 102.105C274.606 102.105 273.986 101.985 273.436 101.745C272.896 101.495 272.471 101.155 272.161 100.725C271.851 100.285 271.691 99.78 271.681 99.21H273.136C273.186 99.7 273.386 100.115 273.736 100.455C274.096 100.785 274.616 100.95 275.296 100.95C275.946 100.95 276.456 100.79 276.826 100.47C277.206 100.14 277.396 99.72 277.396 99.21C277.396 98.81 277.286 98.485 277.066 98.235C276.846 97.985 276.571 97.795 276.241 97.665C275.911 97.535 275.466 97.395 274.906 97.245C274.216 97.065 273.661 96.885 273.241 96.705C272.831 96.525 272.476 96.245 272.176 95.865C271.886 95.475 271.741 94.955 271.741 94.305C271.741 93.735 271.886 93.23 272.176 92.79C272.466 92.35 272.871 92.01 273.391 91.77C273.921 91.53 274.526 91.41 275.206 91.41C276.186 91.41 276.986 91.655 277.606 92.145C278.236 92.635 278.591 93.285 278.671 94.095H277.171C277.121 93.695 276.911 93.345 276.541 93.045C276.171 92.735 275.681 92.58 275.071 92.58C274.501 92.58 274.036 92.73 273.676 93.03C273.316 93.32 273.136 93.73 273.136 94.26C273.136 94.64 273.241 94.95 273.451 95.19C273.671 95.43 273.936 95.615 274.246 95.745C274.566 95.865 275.011 96.005 275.581 96.165C276.271 96.355 276.826 96.545 277.246 96.735C277.666 96.915 278.026 97.2 278.326 97.59C278.626 97.97 278.776 98.49 278.776 99.15C278.776 99.66 278.641 100.14 278.371 100.59C278.101 101.04 277.701 101.405 277.171 101.685C276.641 101.965 276.016 102.105 275.296 102.105ZM288.075 93.78V102H286.71V100.785C286.45 101.205 286.085 101.535 285.615 101.775C285.155 102.005 284.645 102.12 284.085 102.12C283.445 102.12 282.87 101.99 282.36 101.73C281.85 101.46 281.445 101.06 281.145 100.53C280.855 100 280.71 99.355 280.71 98.595V93.78H282.06V98.415C282.06 99.225 282.265 99.85 282.675 100.29C283.085 100.72 283.645 100.935 284.355 100.935C285.085 100.935 285.66 100.71 286.08 100.26C286.5 99.81 286.71 99.155 286.71 98.295V93.78H288.075ZM291.745 95.295C292.015 94.825 292.415 94.435 292.945 94.125C293.485 93.805 294.11 93.645 294.82 93.645C295.55 93.645 296.21 93.82 296.8 94.17C297.4 94.52 297.87 95.015 298.21 95.655C298.55 96.285 298.72 97.02 298.72 97.86C298.72 98.69 298.55 99.43 298.21 100.08C297.87 100.73 297.4 101.235 296.8 101.595C296.21 101.955 295.55 102.135 294.82 102.135C294.12 102.135 293.5 101.98 292.96 101.67C292.43 101.35 292.025 100.955 291.745 100.485V105.9H290.38V93.78H291.745V95.295ZM297.325 97.86C297.325 97.24 297.2 96.7 296.95 96.24C296.7 95.78 296.36 95.43 295.93 95.19C295.51 94.95 295.045 94.83 294.535 94.83C294.035 94.83 293.57 94.955 293.14 95.205C292.72 95.445 292.38 95.8 292.12 96.27C291.87 96.73 291.745 97.265 291.745 97.875C291.745 98.495 291.87 99.04 292.12 99.51C292.38 99.97 292.72 100.325 293.14 100.575C293.57 100.815 294.035 100.935 294.535 100.935C295.045 100.935 295.51 100.815 295.93 100.575C296.36 100.325 296.7 99.97 296.95 99.51C297.2 99.04 297.325 98.49 297.325 97.86ZM301.881 95.295C302.151 94.825 302.551 94.435 303.081 94.125C303.621 93.805 304.246 93.645 304.956 93.645C305.686 93.645 306.346 93.82 306.936 94.17C307.536 94.52 308.006 95.015 308.346 95.655C308.686 96.285 308.856 97.02 308.856 97.86C308.856 98.69 308.686 99.43 308.346 100.08C308.006 100.73 307.536 101.235 306.936 101.595C306.346 101.955 305.686 102.135 304.956 102.135C304.256 102.135 303.636 101.98 303.096 101.67C302.566 101.35 302.161 100.955 301.881 100.485V105.9H300.516V93.78H301.881V95.295ZM307.461 97.86C307.461 97.24 307.336 96.7 307.086 96.24C306.836 95.78 306.496 95.43 306.066 95.19C305.646 94.95 305.181 94.83 304.671 94.83C304.171 94.83 303.706 94.955 303.276 95.205C302.856 95.445 302.516 95.8 302.256 96.27C302.006 96.73 301.881 97.265 301.881 97.875C301.881 98.495 302.006 99.04 302.256 99.51C302.516 99.97 302.856 100.325 303.276 100.575C303.706 100.815 304.171 100.935 304.671 100.935C305.181 100.935 305.646 100.815 306.066 100.575C306.496 100.325 306.836 99.97 307.086 99.51C307.336 99.04 307.461 98.49 307.461 97.86ZM314.238 102.135C313.468 102.135 312.768 101.96 312.138 101.61C311.518 101.26 311.028 100.765 310.668 100.125C310.318 99.475 310.143 98.725 310.143 97.875C310.143 97.035 310.323 96.295 310.683 95.655C311.053 95.005 311.553 94.51 312.183 94.17C312.813 93.82 313.518 93.645 314.298 93.645C315.078 93.645 315.783 93.82 316.413 94.17C317.043 94.51 317.538 95 317.898 95.64C318.268 96.28 318.453 97.025 318.453 97.875C318.453 98.725 318.263 99.475 317.883 100.125C317.513 100.765 317.008 101.26 316.368 101.61C315.728 101.96 315.018 102.135 314.238 102.135ZM314.238 100.935C314.728 100.935 315.188 100.82 315.618 100.59C316.048 100.36 316.393 100.015 316.653 99.555C316.923 99.095 317.058 98.535 317.058 97.875C317.058 97.215 316.928 96.655 316.668 96.195C316.408 95.735 316.068 95.395 315.648 95.175C315.228 94.945 314.773 94.83 314.283 94.83C313.783 94.83 313.323 94.945 312.903 95.175C312.493 95.395 312.163 95.735 311.913 96.195C311.663 96.655 311.538 97.215 311.538 97.875C311.538 98.545 311.658 99.11 311.898 99.57C312.148 100.03 312.478 100.375 312.888 100.605C313.298 100.825 313.748 100.935 314.238 100.935ZM321.613 95.115C321.853 94.645 322.193 94.28 322.633 94.02C323.083 93.76 323.628 93.63 324.268 93.63V95.04H323.908C322.378 95.04 321.613 95.87 321.613 97.53V102H320.248V93.78H321.613V95.115ZM327.508 94.905V99.75C327.508 100.15 327.593 100.435 327.763 100.605C327.933 100.765 328.228 100.845 328.648 100.845H329.653V102H328.423C327.663 102 327.093 101.825 326.713 101.475C326.333 101.125 326.143 100.55 326.143 99.75V94.905H325.078V93.78H326.143V91.71H327.508V93.78H329.653V94.905H327.508Z" fill="#142A3D"/>
</svg>
