<svg width="12" height="12" viewBox="0 0 13 12" fill="white" xmlns="http://www.w3.org/2000/svg">
<path d="M9.3939 3.13073L9.3939 9.3916L10.4374 9.3916L10.4374 3.13073L10.4374 3.13178C10.4192 2.86091 10.3035 2.60582 10.1116 2.41376C9.91973 2.2217 9.66475 2.1057 9.3939 2.08725L2.61129 2.08725L2.61129 3.13073L9.3939 3.13073Z" fill="white"/>
<path d="M11.4808 1.04333L11.4808 7.3042L12.5243 7.3042L12.5243 1.04333C12.5061 0.772575 12.3903 0.517609 12.1984 0.325723C12.0065 0.133838 11.7516 0.0180558 11.4808 -0.000147911L4.69821 -0.000148504L4.69821 1.04333L11.4808 1.04333Z" fill="white"/>
<path fill-rule="evenodd" clip-rule="evenodd" d="M1.56777 4.17432C0.99145 4.17432 0.524292 4.64154 0.524292 5.21779V10.9569C0.524292 11.5332 0.99145 12.0004 1.56777 12.0004H7.3069C7.88322 12.0004 8.35038 11.5332 8.35038 10.9569V5.21779C8.35038 4.64154 7.88322 4.17432 7.3069 4.17432H1.56777ZM7.3069 5.21779H1.56777V10.9569H7.3069V5.21779Z" fill="white"/>
</svg>
