<svg width="156" height="152" viewBox="0 0 156 152" fill="none" xmlns="http://www.w3.org/2000/svg">
<path d="M65.6459 62.4241C65.6459 62.4241 52.2719 80.959 45.6278 85.4916C45.6278 85.4916 50.6572 99.0338 51.0931 110.668L49.6849 112.494L39.8574 85.2883C39.8574 85.2883 48.1621 67.359 49.911 63.835C51.6599 60.311 65.6459 62.4241 65.6459 62.4241Z" fill="#3D2614"/>
<path d="M52.3445 107.347C59.3618 99.459 63.5485 71.6897 63.7226 70.5104L61.4285 70.0814C61.3867 70.3604 57.1939 98.1988 50.7002 105.498L52.3445 107.347Z" fill="#251845"/>
<path d="M24.9698 112.987L26.4542 111.28C16.5889 99.911 17.0531 50.1013 17.0585 49.5981L14.9614 49.5662C14.9331 51.6555 14.4837 100.906 24.9698 112.987Z" fill="#251845"/>
<path d="M10.6215 39.4301L17.0572 49.5982L14.9601 49.5662L5.81201 41.4325L10.6215 39.4301Z" fill="#251845"/>
<path d="M55.4768 115.607C55.4768 115.607 57.2479 106.221 55.4768 104.586C55.3884 104.503 55.2986 104.428 55.2069 104.357C54.4694 103.829 53.6105 103.543 52.7308 103.533C51.8511 103.523 50.9869 103.788 50.2395 104.299L38.0767 112.645L55.4768 115.607Z" fill="#702138"/>
<path d="M33.6745 114.61C33.6745 114.61 27.9891 109.968 26.1889 109.968C24.3887 109.968 22.5008 117.093 21.986 121.027C21.6883 123.69 21.6883 126.383 21.986 129.047L33.6745 114.61Z" fill="#702138"/>
<path d="M32.1698 25.9228C33.1941 24.1534 35.8525 22.5784 37.3984 23.74C39.7201 25.4871 39.4098 27.3374 38.3801 29.8408C36.8066 33.6698 33.6327 48.6459 26.0824 47.5883C18.5321 46.5307 10.1633 36.0293 10.1633 36.0293C10.1633 36.0293 5.48401 33.6891 5.32072 33.0093C5.15744 32.3294 5.18982 32.4415 5.02654 31.5353C4.86325 30.629 4.01442 26.285 4.37068 25.4923C4.72694 24.6996 6.10814 24.661 6.10814 24.661V26.5907C6.10814 26.5907 7.01431 29.0348 7.49607 29.0348C7.97784 29.0348 6.92187 26.685 6.59934 26.3132C6.27682 25.9413 7.13914 24.7212 7.84559 25.5331C8.55204 26.3451 12.4783 33.7292 14.0633 35.0511C15.6482 36.3729 23.4138 42.0277 25.3894 40.075C26.9399 38.5394 28.927 31.5182 32.1698 25.9228Z" fill="#DE5E5B"/>
<path d="M40.3718 110.669C51.7526 104.971 67.2472 116.694 66.061 131.269C65.4653 138.611 61.4155 148.055 54.5595 149.601C48.5274 150.962 15.6151 149.601 15.6151 149.601C15.6151 149.601 11.2866 148.695 11.2866 141.745C11.2866 134.795 20.1931 123.589 31.0874 116.362C34.0789 114.267 37.179 112.366 40.3718 110.669Z" fill="url(#paint0_linear)"/>
<path d="M15.6151 149.602C15.6151 149.602 11.2866 148.696 11.2866 141.746V141.738C17.4624 145.556 24.4912 147.385 31.5679 147.012C66.808 145.766 64.194 121.202 64.194 121.202L63.5375 119.921C65.4756 123.302 66.3614 127.285 66.061 131.269C65.4653 138.611 61.4155 148.055 54.5595 149.601C48.5274 150.963 15.6151 149.602 15.6151 149.602Z" fill="#8389C1"/>
<path d="M11.285 141.744C11.7681 134.12 21.8514 124.209 27.2526 119.844C29.8632 117.692 37.2941 112.497 40.3702 110.668C36.5917 112.207 30.2046 116.168 26.673 118.871C21.0282 123.258 13.2714 131.31 11.5819 138.79C11.3477 139.752 11.2476 140.749 11.285 141.744Z" fill="#CDCDF6"/>
<path d="M68.7203 65.7477L63.7239 72.849H60.8535L59.4116 65.7477H68.7203Z" fill="#1B225A"/>
<path d="M73.4409 61.3665L57.8545 63.7838V65.7476H70.5584L73.4409 61.3665Z" fill="#35437C"/>
<path d="M34.1914 129.687C34.1914 135.306 38.1454 139.861 43.021 139.861C47.8967 139.861 51.8499 135.306 51.8499 129.687C51.8499 124.067 47.8973 119.514 43.021 119.514C38.1447 119.514 34.1914 124.07 34.1914 129.687Z" fill="#1B225A"/>
<path d="M35.3399 129.687C35.4092 131.342 35.9187 132.938 36.8054 134.278C37.6921 135.617 38.9168 136.641 40.3276 137.222C41.7384 137.803 43.2732 137.915 44.7416 137.545C46.2099 137.175 47.5472 136.339 48.5874 135.14C49.6276 133.942 50.325 132.434 50.5931 130.803C50.8611 129.173 50.688 127.491 50.0952 125.968C49.5024 124.445 48.516 123.146 47.2585 122.234C46.0009 121.322 44.5275 120.836 43.0211 120.837C40.9359 120.891 38.9556 121.853 37.5152 123.513C36.0749 125.172 35.2925 127.393 35.3399 129.687Z" fill="#5B3B6E"/>
<path d="M38.6621 108.522C38.8436 113.369 39.7673 126.641 42.9217 129.803L43.1241 129.57C40.3672 126.23 40.6107 113.292 40.8051 108.667L38.6621 108.522Z" fill="#251845"/>
<path d="M36.7077 109.637L44.0455 110.286C44.1761 110.295 44.3069 110.275 44.4304 110.227C44.5539 110.18 44.6676 110.106 44.765 110.009C44.8624 109.913 44.9414 109.797 44.9977 109.667C45.0539 109.537 45.0862 109.396 45.0927 109.252L45.1264 108.76C45.1501 108.469 45.0693 108.18 44.9013 107.955C44.7334 107.729 44.4918 107.585 44.2283 107.554L36.8906 106.903C36.7599 106.894 36.629 106.915 36.5055 106.962C36.382 107.01 36.2683 107.084 36.171 107.18C36.0736 107.277 35.9946 107.393 35.9384 107.523C35.8821 107.653 35.8499 107.794 35.8434 107.938L35.8103 108.429C35.7863 108.72 35.8668 109.009 36.0347 109.235C36.2025 109.461 36.4441 109.605 36.7077 109.637Z" fill="#5B3B6E"/>
<path d="M38.6594 100.697C39.632 100.56 40.6166 100.56 41.5891 100.697C41.9022 101.583 43.45 106.115 42.6687 107.349L31.5659 106.795C31.6206 104.248 38.6594 104.819 38.6594 100.697Z" fill="#302437"/>
<path d="M34.4853 21.1497C34.4853 21.1497 28.2777 18.4948 26.7663 15.4348L23.9702 19.4619C23.9702 19.4619 26.7157 24.9995 30.6447 26.2582C34.5737 27.517 34.4853 21.1497 34.4853 21.1497Z" fill="#DF7474"/>
<path d="M25.2588 21.0154C25.1995 21.1237 25.1401 21.2291 25.082 21.333C24.6788 20.7355 24.3088 20.1116 23.9741 19.4649L26.7702 15.4377C26.9018 15.7057 26.1792 19.3261 25.2588 21.0154Z" fill="#DE5E5B"/>
<path d="M29.0178 2.9985C27.3687 4.68997 27.9166 8.58726 27.3984 13.0004C26.2581 22.6779 35.0067 22.8968 35.0067 22.8968L35.5708 20.9426C35.5708 20.9426 32.5406 19.548 32.9846 18.0117C32.9846 18.0117 35.4689 19.6631 37.8116 19.4746C40.1543 19.286 40.8182 16.0523 40.8182 16.0523C40.8182 16.0523 37.9122 18.195 35.8724 16.8687C35.3093 16.5574 34.8423 16.07 34.5302 15.4678C34.218 14.8655 34.0747 14.1752 34.1181 13.4835C34.1181 13.4835 35.6093 16.148 37.3872 16.2868C37.8515 16.3624 38.3258 16.294 38.7567 16.0893C39.1876 15.8847 39.558 15.5518 39.8264 15.1282C39.8264 15.1282 36.3852 15.0852 36.0276 12.8356C35.4478 10.0725 34.5795 7.39248 33.44 4.84881C32.4016 2.46264 29.897 2.09895 29.0178 2.9985Z" fill="#442348"/>
<path d="M28.5188 8.42028C27.993 6.98057 27.0537 5.7694 25.8441 4.97129C22.8928 2.91466 19.2277 5.48712 18.8464 9.79558C18.8089 10.1774 18.8114 10.5626 18.8539 10.9438C18.9402 11.6165 18.876 12.3023 18.6666 12.9415C18.4573 13.5807 18.1093 14.154 17.6528 14.6117C17.6826 14.7736 17.7513 14.9236 17.8518 15.0462C17.9524 15.1689 18.081 15.2595 18.2243 15.3086C18.7088 15.4519 18.6595 15.7294 18.507 16.0983C18.3546 16.4672 18.1879 16.537 18.3154 16.8168C18.4429 17.0966 18.9227 17.1879 18.9227 17.1879C18.9227 17.1879 18.5853 17.7586 18.7243 18.0592C18.8633 18.3598 19.0576 18.3301 19.0576 18.3301C19.0576 18.3301 19.4942 18.5632 19.4085 18.935C19.3756 19.3227 19.4771 19.7097 19.6926 20.0186C19.9247 20.4365 21.372 22.4018 24.971 18.4711C28.5701 14.5404 29.1159 10.7656 28.5188 8.42028Z" fill="#DF7474"/>
<path d="M18.9517 10.4361C19.4502 10.3848 19.9512 10.4987 20.3904 10.7633C20.8295 11.0278 21.1866 11.4308 21.4158 11.9205C21.4158 11.9205 20.1756 10.6884 19.1156 10.802L18.9517 10.4361Z" fill="#3E2A49"/>
<path d="M19.3972 11.991C19.3972 11.991 19.3493 12.5847 19.5605 12.7629C19.6108 12.8144 19.673 12.8499 19.7404 12.8653C19.8077 12.8807 19.8776 12.8756 19.9424 12.8504L19.3972 11.991Z" fill="#232C7A"/>
<path d="M20.6517 12.0526C20.1313 12.0072 19.6079 12.0249 19.091 12.1053C18.8077 12.2068 18.5002 12.1891 18.228 12.0556C18.6516 12.043 19.0728 11.9826 19.485 11.8752C19.8811 11.7922 20.2909 11.8545 20.6517 12.0526Z" fill="#1B225A"/>
<path d="M20.0452 16.6045C19.7371 16.9247 19.3444 17.1288 18.9238 17.1871C19.3641 17.1833 19.7909 17.02 20.1383 16.7225C20.1539 16.7094 20.1645 16.6903 20.168 16.669C20.1715 16.6477 20.1677 16.6258 20.1572 16.6075C20.1522 16.5987 20.1456 16.5911 20.1378 16.5853C20.13 16.5795 20.1212 16.5756 20.1119 16.5738C20.1026 16.572 20.0931 16.5723 20.0839 16.5748C20.0748 16.5773 20.0662 16.5818 20.0587 16.5882C20.057 16.5903 20.0549 16.592 20.0527 16.5934L20.0452 16.6045Z" fill="#1B225A"/>
<path d="M25.4435 2.44703C29.1201 2.68305 29.7618 6.42596 30.5492 9.93062C31.3366 13.4353 27.1438 16.3922 26.9447 15.8764C26.9447 15.8764 25.6351 11.6458 24.2613 11.6154C22.8876 11.585 19.1792 8.12114 19.1792 8.12114C19.2156 8.03356 19.524 6.91061 19.7102 6.27232C19.8526 5.78767 19.6859 5.4188 20.0368 4.99129C20.7165 4.16143 21.552 3.50405 22.4856 3.06473C23.4192 2.62541 24.4285 2.41464 25.4435 2.44703Z" fill="#533055"/>
<path d="M25.7514 9.42224C26.8956 10.9929 27.9391 12.6493 28.8741 14.3794C29.0529 14.6933 28.8289 15.0733 28.5792 15.3138C27.6346 16.2267 27.0374 16.1161 26.945 15.8757C26.945 15.8757 25.547 12.256 24.4289 11.3401C22.7343 10.1911 20.9443 9.22192 19.083 8.44551C18.7193 8.30672 19.7618 4.80874 20.0371 4.98686C21.3231 5.81293 24.0875 7.47545 25.7514 9.42224Z" fill="#86E6E6"/>
<path d="M24.2622 11.6139C24.2622 11.6139 23.6111 10.4145 25.0455 9.93434C26.48 9.45414 26.5441 12.2426 25.752 13.0709C24.9599 13.8992 24.2622 11.6139 24.2622 11.6139Z" fill="#DF7474"/>
<path d="M24.723 11.7684C24.723 11.7684 24.2865 10.4205 24.9315 10.4933C25.5766 10.566 26.0543 12.017 25.586 12.3347C25.1177 12.6523 24.723 11.7684 24.723 11.7684Z" fill="#DE5E5B"/>
<path d="M6.09552 41.7591L12.2599 39.3469L7.26688 32.2396V22.286C7.27127 22.1694 7.25415 22.0529 7.21659 21.9437C7.17904 21.8345 7.12181 21.7348 7.04832 21.6505C6.97483 21.5663 6.88664 21.4992 6.789 21.4534C6.69135 21.4076 6.58627 21.384 6.48013 21.384C6.37398 21.384 6.26894 21.4076 6.1713 21.4534C6.07365 21.4992 5.98542 21.5663 5.91193 21.6505C5.83844 21.7348 5.78121 21.8345 5.74366 21.9437C5.7061 22.0529 5.68898 22.1694 5.69337 22.286V32.8809L9.61631 38.4652L6.51254 39.6794L2.80754 35.4066V23.1922C2.81193 23.0756 2.79485 22.9591 2.7573 22.8499C2.71974 22.7407 2.66247 22.641 2.58898 22.5568C2.51549 22.4725 2.4273 22.4054 2.32966 22.3597C2.23201 22.3139 2.12693 22.2903 2.02079 22.2903C1.91464 22.2903 1.8096 22.3139 1.71196 22.3597C1.61431 22.4054 1.52608 22.4725 1.45259 22.5568C1.3791 22.641 1.32187 22.7407 1.28432 22.8499C1.24676 22.9591 1.22968 23.0756 1.23407 23.1922V36.1585L6.09552 41.7591Z" fill="#251845"/>
<path d="M5.51804 24.7442C5.51804 24.7442 9.21223 30.3263 8.36611 30.7159C7.51999 31.1056 4.52013 27.8458 4.31366 26.8646C4.10719 25.8835 4.05454 24.1096 5.51804 24.7442Z" fill="#DF7474"/>
<path d="M4.31428 26.8646C4.31428 26.8646 8.8856 30.4561 8.23178 31.5679C7.57796 32.6798 4.62736 30.0331 4.207 29.5469C3.78664 29.0608 4.31428 26.8646 4.31428 26.8646Z" fill="#DF7474"/>
<path d="M7.55423 25.306C7.55423 25.306 5.3566 28.2607 5.89774 29.1959C6.43888 30.1311 8.7087 26.8646 8.7087 26.8646C8.7087 26.8646 8.49819 25.306 7.55423 25.306Z" fill="#DE5E5B"/>
<path d="M3.87025 31.067C3.87025 31.067 6.57526 32.6998 8.12986 32.6998C9.68445 32.6998 4.61514 29.1551 4.41069 29.3495C4.20625 29.544 3.22925 30.3263 3.87025 31.067Z" fill="#DF7474"/>
<path d="M14.9517 152H57.0768L55.8819 149.195H14.9517V152Z" fill="#1B225A"/>
<path d="M40.8897 129.253C40.9078 129.683 41.0403 130.098 41.2708 130.446C41.5012 130.794 41.8195 131.06 42.1862 131.211C42.5528 131.362 42.9517 131.391 43.3333 131.295C43.7149 131.199 44.0624 130.982 44.3327 130.67C44.6031 130.359 44.7843 129.967 44.8541 129.543C44.9238 129.119 44.8789 128.682 44.7249 128.287C44.5709 127.891 44.3147 127.553 43.988 127.316C43.6612 127.079 43.2784 126.952 42.8869 126.952C42.3449 126.967 41.8301 127.217 41.4557 127.648C41.0813 128.08 40.8777 128.657 40.8897 129.253Z" fill="#251845"/>
<path d="M56.1116 49.2196C55.0112 45.6348 54.8033 45.5665 54.4248 45.2823C56.5165 42.9072 58.5468 40.4149 60.8456 38.0777C61.2504 37.4951 61.6175 36.8234 62.0318 36.2304C65.1808 39.5406 70.1786 46.7837 71.5233 49.7191C73.8235 53.7775 72.227 59.0137 70.7446 61.4407C69.9296 57.202 67.8932 53.2342 64.6322 51.4804C61.9333 49.9262 58.8639 50.3062 55.8849 50.1244C56.0199 50.0717 56.1548 50.0234 56.2648 49.9841C56.2648 49.9841 56.2122 49.6776 56.1123 49.2196H56.1116Z" fill="#403048"/>
<path d="M33.0281 20.6405C35.9969 18.8281 62.3218 35.5031 63.5485 36.7923C63.1348 37.386 61.8211 38.4303 61.4163 39.0129C59.1222 41.3501 56.5157 42.9072 54.4213 45.283C52.4808 43.8298 43.7605 39.7098 41.9697 39.7098C40.0467 39.7098 35.8053 40.5671 33.7514 38.1995C31.6975 35.8319 29.79 30.1971 29.79 30.1971C29.79 30.1971 30.0593 22.4545 33.0281 20.6405Z" fill="#71BFBF"/>
<path d="M33.754 38.1994C33.3612 37.7223 33.0125 37.2034 32.7129 36.6505L38.49 30.0553C38.49 30.0553 39.7794 31.156 39.7794 35.4919C39.7776 36.9506 39.6636 38.4066 39.4387 39.8441C37.4617 39.9228 35.1237 39.7759 33.754 38.1994Z" fill="#599793"/>
<path d="M31.3931 27.3382C32.4187 25.5688 34.6994 24.1467 36.2458 25.309C38.5683 27.0539 39.7228 30.1845 38.6924 32.6879C37.119 36.5154 28.9459 55.0236 21.3949 53.9675C13.8439 52.9113 5.47516 41.978 5.47516 41.978C5.47516 41.978 3.5056 39.433 2.6858 39.433C1.86599 39.433 0.501666 37.5597 0.337705 36.6542C0.173744 35.7487 -0.210855 33.2 0.14878 32.4074C0.251063 32.1783 0.404254 31.9814 0.594149 31.8348C0.784045 31.6881 1.00451 31.5966 1.23512 31.5687L1.42066 32.9633C1.42066 32.9633 2.29783 34.7549 2.77689 34.7549C3.25595 34.7549 2.2371 33.0575 1.91255 32.6857C1.588 32.3139 2.45233 31.7349 3.15878 32.5484C3.86523 33.3618 5.16343 37.7438 6.74838 39.0671C8.33334 40.3905 18.727 48.4032 20.7026 46.4475C22.2511 44.9134 28.1483 32.9306 31.3931 27.3382Z" fill="#DF7474"/>
<path d="M2.80854 31.9302V34.5724L1.68311 32.4942L1.91925 31.7283L2.80854 31.9302Z" fill="#251845"/>
<path d="M29.8219 66.8053C30.4164 61.4139 51.2617 51.8752 56.2655 49.9848C59.0616 48.997 63.3044 48.3208 66.2557 48.8359C67.3591 49.0142 68.4066 49.4847 69.308 50.2071C70.2094 50.9294 70.9377 51.8819 71.4302 52.9826C72.6265 55.4637 72.2251 58.9669 70.8965 61.2625C69.149 64.2825 65.9858 65.09 63.1195 65.9384C59.136 67.0482 55.0815 67.8231 50.9911 68.2562C45.9522 68.8708 40.1333 69.2345 36.8149 69.2998C38.0343 71.4408 39.0594 73.7085 39.8755 76.0701C41.536 80.6027 41.5563 100.598 41.5914 100.694C41.5914 100.694 39.8303 100.917 38.6468 100.998C37.9255 95.3406 29.2504 71.9643 29.8219 66.8053Z" fill="#4A3854"/>
<path d="M62.9072 70.9267C62.8692 70.9263 62.8328 70.9095 62.806 70.88C62.7791 70.8504 62.7638 70.8104 62.7635 70.7686C62.6805 59.0122 53.2227 51.8715 52.0797 51.0529C52.0495 51.0309 52.0279 50.9973 52.0193 50.9586C52.0107 50.92 52.0156 50.8791 52.0331 50.8443L52.0379 50.8347C52.0476 50.8161 52.0606 50.7999 52.0762 50.787C52.0917 50.7741 52.1094 50.7648 52.1283 50.7596C52.1472 50.7544 52.1669 50.7534 52.1861 50.7568C52.2053 50.7601 52.2238 50.7677 52.2403 50.779C53.4643 51.6615 62.9646 58.8853 63.0482 70.7664C63.0486 70.8081 63.034 70.8484 63.0076 70.8784C62.9812 70.9084 62.9451 70.9257 62.9072 70.9267Z" fill="#3C20BB"/>
<path d="M66.8649 78.0979C66.8298 78.0851 66.8005 78.0578 66.7833 78.0219C66.7661 77.9859 66.7622 77.944 66.7724 77.9049C69.5975 66.7964 61.5378 57.7171 60.5588 56.6669C60.5328 56.6392 60.5174 56.6017 60.5158 56.5619C60.5141 56.5222 60.5264 56.4833 60.55 56.4531V56.4472C60.5627 56.4304 60.5784 56.4168 60.5961 56.4071C60.6139 56.3974 60.6332 56.3918 60.653 56.3907C60.6728 56.3897 60.6926 56.3932 60.7111 56.401C60.7296 56.4088 60.7464 56.4207 60.7605 56.4361C61.8165 57.5724 69.9005 66.7489 67.0464 77.9895C67.041 78.0097 67.032 78.0286 67.0199 78.045C67.0078 78.0614 66.9929 78.0751 66.9761 78.0851C66.9592 78.0952 66.9407 78.1015 66.9216 78.1037C66.9025 78.1059 66.8832 78.1039 66.8649 78.0979Z" fill="#3C20BB"/>
<path d="M14.6584 43.0483C14.6213 43.0388 14.589 43.0139 14.5683 42.9787C14.5477 42.9435 14.5403 42.9008 14.5478 42.8597C17.0848 29.5506 27.363 23.7949 28.6821 23.1069C28.6999 23.0977 28.7193 23.0926 28.7389 23.092C28.7586 23.0914 28.7781 23.0953 28.7963 23.1034C28.8146 23.1114 28.8311 23.1236 28.8449 23.139C28.8587 23.1544 28.8694 23.1728 28.8765 23.193L28.8812 23.2026C28.8949 23.2398 28.8952 23.2813 28.882 23.3186C28.8689 23.356 28.8432 23.3865 28.8103 23.4038C27.5762 24.045 17.3493 29.728 14.8298 42.9236C14.8262 42.9442 14.8188 42.9639 14.8082 42.9814C14.7976 42.999 14.7839 43.014 14.768 43.0256C14.752 43.0372 14.7341 43.0452 14.7153 43.0491C14.6964 43.053 14.6771 43.0527 14.6584 43.0483Z" fill="#3C20BB"/>
<path d="M140.929 11.3022H67.1077C66.8528 11.3028 66.6085 11.4144 66.4281 11.6126C66.2478 11.8108 66.1462 12.0794 66.1455 12.3598C66.1462 12.6403 66.2478 12.909 66.4281 13.1074C66.6084 13.3057 66.8527 13.4174 67.1077 13.4182H140.929C141.184 13.4174 141.428 13.3056 141.609 13.1073C141.789 12.909 141.89 12.6402 141.891 12.3598C141.89 12.0795 141.789 11.811 141.608 11.6129C141.428 11.4147 141.184 11.303 140.929 11.3022Z" fill="#125A82"/>
<path d="M130.63 16.0433C134.155 10.7864 130.361 9.75839 129.67 9.8764C128.979 9.99441 128.388 11.3148 128.388 11.3148C128.388 11.3148 127.427 10.698 127.053 10.9326C126.679 11.1671 127.16 14.9857 127.16 14.9857L122.835 38.5958C117.487 41.8911 111.584 48.9947 110.069 50.8762C109.787 51.2293 109.415 51.4803 109.001 51.5961C108.29 51.7094 107.565 51.6424 106.882 51.4002C105.387 50.9898 105.253 47.5407 105.253 47.5407L102.525 46.751V46.2939L101.733 46.5224L100.941 46.2939V46.751L98.2134 47.5407C98.2134 47.5407 98.0785 50.992 96.5846 51.4002C95.9008 51.6424 95.1756 51.7094 94.4646 51.5961C94.051 51.4802 93.6791 51.2292 93.3978 50.8762C91.8824 48.9947 85.9791 41.8911 80.6318 38.5958L76.3068 14.9842C76.3068 14.9842 76.7872 11.1664 76.4134 10.9311C76.0395 10.6958 75.0787 11.3133 75.0787 11.3133C75.0787 11.3133 74.4917 9.99217 73.7967 9.87491C73.1018 9.75764 69.3111 10.7849 72.8352 16.0418C72.8352 16.0418 68.9103 31.5775 72.8352 41.621C76.7602 51.6644 75.078 54.6896 85.8104 61.385C85.8104 61.385 89.1882 71.899 91.9505 75.0711C92.6253 75.8482 92.9181 80.786 92.2609 85.6727H111.202C110.545 80.7831 110.836 75.8482 111.513 75.0711C114.279 71.8997 117.653 61.385 117.653 61.385C128.385 54.6896 126.703 51.6622 130.628 41.621C134.552 31.5798 130.63 16.0433 130.63 16.0433Z" fill="#FFBF85"/>
<path d="M130.63 16.0433C134.155 10.7864 130.361 9.75839 129.67 9.8764C128.979 9.99441 128.388 11.3148 128.388 11.3148C128.388 11.3148 127.427 10.698 127.053 10.9326C126.679 11.1671 127.16 14.9857 127.16 14.9857L122.835 38.5958C117.487 41.8911 111.584 48.9947 110.069 50.8762C109.787 51.2293 109.415 51.4803 109.001 51.5961C108.29 51.7094 107.565 51.6424 106.882 51.4002C105.387 50.9898 105.253 47.5407 105.253 47.5407L102.525 46.751V46.2939L101.733 46.5224L100.941 46.2939V46.751L98.2134 47.5407C98.2134 47.5407 98.0785 50.992 96.5846 51.4002C95.9008 51.6424 95.1756 51.7094 94.4646 51.5961C94.051 51.4802 93.6791 51.2292 93.3978 50.8762C91.8824 48.9947 85.9791 41.8911 80.6318 38.5958L76.3068 14.9842C76.3068 14.9842 76.7872 11.1664 76.4134 10.9311C76.0395 10.6958 75.0787 11.3133 75.0787 11.3133C75.0787 11.3133 74.4917 9.99217 73.7967 9.87491C73.1018 9.75764 69.3111 10.7849 72.8352 16.0418C72.8352 16.0418 68.9103 31.5775 72.8352 41.621C76.7602 51.6644 75.078 54.6896 85.8104 61.385C85.8104 61.385 89.1882 71.899 91.9505 75.0711C92.6253 75.8482 92.9181 80.786 92.2609 85.6727H111.202C110.545 80.7831 110.836 75.8482 111.513 75.0711C114.279 71.8997 117.653 61.385 117.653 61.385C128.385 54.6896 126.703 51.6622 130.628 41.621C134.552 31.5798 130.63 16.0433 130.63 16.0433Z" fill="#FFBF85"/>
<path d="M83.5449 40.6962C82.6147 39.9305 81.6421 39.229 80.6328 38.5958L76.3077 14.9842C76.3077 14.9842 76.7881 11.1664 76.4143 10.9311C76.0405 10.6958 75.0797 11.3133 75.0797 11.3133C75.0797 11.3133 74.4927 9.99217 73.7977 9.87491C73.1027 9.75764 69.3121 10.7849 72.8362 16.0418C72.8362 16.0418 68.9113 31.5775 72.8362 41.621C76.4575 50.8881 75.3138 54.182 83.5443 59.8947L83.5449 40.6962Z" fill="#FFBF85"/>
<path d="M92.275 85.5822C92.3094 85.617 92.3425 85.6475 92.3721 85.6735H92.2642C92.2675 85.6438 92.2716 85.6118 92.275 85.5822Z" fill="#F79F57"/>
<path d="M106.882 51.4032C106.908 51.4112 106.935 51.4174 106.962 51.4218V51.4255C105.944 53.7263 104.079 55.6085 101.926 55.7154V46.4676L102.527 46.2917V46.7496L105.253 47.5408C105.253 47.5408 105.385 50.989 106.882 51.4032Z" fill="#F79F57"/>
<path d="M107.561 35.7012C107.561 35.7012 106.414 32.1773 102.057 31.7512C101.951 31.7404 101.843 31.732 101.732 31.726C101.622 31.732 101.516 31.7401 101.411 31.7512C97.0579 32.1773 95.9061 35.7012 95.9061 35.7012C94.1612 36.4686 95.45 42.5101 95.45 42.5101L101.411 42.5228H102.057L108.017 42.5101C108.017 42.5101 109.305 36.4709 107.561 35.7012Z" fill="#0F3854"/>
<path d="M105.1 37.4714C105.1 37.4714 104.493 37.6844 104.015 37.8017C102.506 38.1707 100.941 38.1707 99.431 37.8017C98.954 37.6851 98.1888 37.4714 98.1888 37.4714C98.1888 38.5402 96.8394 40.9724 96.8394 40.9724V43.9107C96.8394 46.812 99.0167 49.6182 101.703 49.6182H101.738C104.424 49.6182 106.601 46.812 106.601 43.9107V40.9724C106.601 40.9724 105.1 38.5402 105.1 37.4714Z" fill="#FFBF85"/>
<path d="M105.434 48.9776C105.003 49.612 104.447 50.1305 103.807 50.4941C103.168 50.8577 102.461 51.0569 101.742 51.0766H101.707C100.991 51.0584 100.288 50.8619 99.6514 50.502C99.0144 50.1421 98.4598 49.628 98.0293 48.9984C98.1108 48.5943 98.1678 48.1847 98.2 47.7723C98.6306 48.3385 99.1667 48.7966 99.7719 49.1155C100.377 49.4344 101.038 49.6069 101.709 49.6211H101.743C102.419 49.6056 103.083 49.4301 103.692 49.1066C104.3 48.783 104.838 48.3191 105.269 47.7463C105.298 48.1604 105.353 48.5718 105.434 48.9776Z" fill="#F79F57"/>
<path d="M98.1082 42.5094C98.108 42.2203 98.0299 41.9376 97.8838 41.6973C97.7377 41.4569 97.53 41.2697 97.2871 41.1591C97.0443 41.0486 96.777 41.0197 96.5192 41.0762C96.2614 41.1327 96.0246 41.272 95.8388 41.4765C95.653 41.6811 95.5264 41.9416 95.4752 42.2252C95.424 42.5088 95.4503 42.8028 95.551 43.0699C95.6516 43.337 95.8219 43.5653 96.0405 43.7259C96.2591 43.8865 96.5161 43.9723 96.779 43.9723C96.9536 43.9723 97.1265 43.9344 97.2878 43.8609C97.4491 43.7874 97.5956 43.6796 97.7191 43.5438C97.8425 43.4079 97.9404 43.2467 98.0072 43.0692C98.0739 42.8917 98.1083 42.7015 98.1082 42.5094Z" fill="#FFBF85"/>
<path d="M108.126 42.5094C108.126 42.2203 108.048 41.9376 107.902 41.6973C107.756 41.4569 107.548 41.2697 107.305 41.1591C107.062 41.0486 106.795 41.0197 106.537 41.0762C106.279 41.1327 106.043 41.272 105.857 41.4765C105.671 41.6811 105.544 41.9416 105.493 42.2252C105.442 42.5088 105.468 42.8028 105.569 43.0699C105.67 43.337 105.84 43.5653 106.059 43.7259C106.277 43.8865 106.534 43.9723 106.797 43.9723C106.972 43.9724 107.145 43.9346 107.306 43.8611C107.467 43.7876 107.614 43.6799 107.737 43.544C107.861 43.4081 107.959 43.2468 108.025 43.0693C108.092 42.8918 108.126 42.7015 108.126 42.5094Z" fill="#FFBF85"/>
<path d="M132.958 113.339C132.288 106.882 118.113 92.1951 117.063 91.3698C116.227 90.7174 112.598 87.1289 111.133 85.6719H92.3351C90.8689 87.1289 87.2395 90.7189 86.4041 91.3698C85.3509 92.1922 71.1794 106.877 70.5094 113.339C69.8393 119.801 80.8504 146.825 80.8504 146.825H85.2551C85.2551 146.825 85.6376 126.379 85.5425 119.095C85.5425 119.095 96.0792 111.491 101.736 104.379C107.39 111.491 117.93 119.095 117.93 119.095C117.835 126.378 118.217 146.825 118.217 146.825H122.623C122.623 146.825 133.628 119.8 132.958 113.339Z" fill="#0F3854"/>
<path d="M113.162 47.2595C111.72 48.8596 110.612 50.2045 110.069 50.8792C109.787 51.2321 109.415 51.4828 109.002 51.5984C108.319 51.7097 107.623 51.6501 106.964 51.424C105.917 53.799 103.967 55.7198 101.734 55.7198C99.5013 55.7198 97.5506 53.796 96.5041 51.424C95.8455 51.6502 95.149 51.7098 94.4665 51.5984C94.053 51.4827 93.681 51.2319 93.3997 50.8792C92.8599 50.2045 91.7486 48.8596 90.3067 47.2595C89.5597 49.7829 87.1536 55.7576 80.7437 57.7452C82.3475 59.098 84.0421 60.3155 85.8129 61.3872C85.8129 61.3872 89.1907 71.9012 91.953 75.0726C92.6278 75.8452 92.9166 80.7222 92.2756 85.5814L92.3727 85.6742H111.097L111.195 85.5814C110.555 80.7222 110.845 75.8445 111.518 75.0726C114.284 71.9012 117.658 61.3872 117.658 61.3872C119.429 60.3155 121.124 59.098 122.728 57.7452C116.315 55.7576 113.908 49.7807 113.162 47.2595Z" fill="#FF4F00"/>
<path d="M107.167 51.4759C107.099 51.4611 107.032 51.4425 106.964 51.4262V51.4225C107.031 51.4425 107.097 51.4611 107.167 51.4759Z" fill="#F79F57"/>
<path d="M85.2549 146.825V151.831H72.2359C71.4147 151.831 78.262 146.879 80.8503 146.825H85.2549Z" fill="#FF4B00"/>
<path d="M118.239 146.825V151.831H131.258C132.079 151.831 125.232 146.879 122.644 146.825H118.239Z" fill="#FF4B00"/>
<path d="M96.6092 85.6742C97.6652 82.2386 99.1057 75.4683 95.4129 72.1454C90.3429 67.5816 91.7255 58.7116 86.8863 57.0201C82.047 55.3287 76.5918 45.1056 74.4407 39.6126C72.2897 34.1196 72.9813 16.3751 72.8362 16.0441C72.8362 16.0441 68.9113 31.5798 72.8362 41.6232C76.7612 51.6667 75.079 54.6919 85.8114 61.3873C85.8114 61.3873 89.1891 71.9012 91.9515 75.0726C92.6262 75.8497 92.9191 80.7876 92.2619 85.6742H96.6092Z" fill="#FFD0A9"/>
<path d="M92.3351 85.6742C90.8689 87.1311 87.2395 90.7211 86.4041 91.3721C85.3509 92.1944 71.1794 106.879 70.5094 113.341C69.8393 119.803 80.8504 146.827 80.8504 146.827H82.2572C79.9583 139.868 72.9263 117.989 73.827 113.385C74.9026 107.893 95.8747 87.7791 95.8747 87.7791C95.8747 87.7791 96.2121 86.9582 96.6095 85.675L92.3351 85.6742Z" fill="#205A7A"/>
<path d="M95.4146 72.1454C90.3447 67.5824 91.7272 58.7116 86.888 57.0202C86.0978 56.7215 85.3558 56.2866 84.6897 55.7317C83.4825 56.6346 82.1495 57.3147 80.7432 57.7453C82.3471 59.098 84.0417 60.3155 85.8125 61.3872C85.8125 61.3872 89.1902 71.9012 91.9526 75.0727C92.6273 75.8445 92.9161 80.7223 92.2751 85.5814L92.3723 85.6742H96.6096C97.6656 82.2386 99.1068 75.4682 95.4146 72.1454Z" fill="#FF4F00"/>
<path d="M95.4139 72.1454C90.3439 67.5824 91.7265 58.7116 86.8873 57.0202C86.0971 56.7215 85.355 56.2866 84.689 55.7317C83.4825 56.6337 82.1504 57.3133 80.7451 57.7438C80.7802 57.7742 80.8126 57.8039 80.847 57.8336C80.9334 57.9078 81.0218 57.982 81.1108 58.0563C81.2201 58.1476 81.3321 58.2388 81.4482 58.3316C81.5373 58.4058 81.625 58.4749 81.7181 58.5469C81.8686 58.6656 82.0238 58.7858 82.1817 58.9053C82.2572 58.9632 82.3315 59.0211 82.4097 59.0782C82.6121 59.2306 82.8218 59.3841 83.0386 59.5384C83.1249 59.6 83.2153 59.6631 83.3037 59.7254C83.4677 59.8412 83.6344 59.9563 83.8064 60.0735C83.9036 60.1411 84.0021 60.2079 84.102 60.2747C84.2835 60.3964 84.4697 60.5203 84.6599 60.6458L84.9352 60.8269C85.2193 61.0102 85.5094 61.198 85.8124 61.3843H85.8178C85.8178 61.3843 86.6626 64.0131 87.8515 67.0376C87.9264 67.2261 88.0019 67.4176 88.0795 67.6091C88.2333 67.9921 88.3912 68.3795 88.5518 68.7669C88.7124 69.1543 88.8811 69.5396 89.0505 69.9218C89.5957 71.1801 90.2129 72.399 90.8986 73.5712C90.9883 73.7196 91.0767 73.8621 91.1684 73.9994C91.4083 74.3768 91.6726 74.7348 91.9592 75.0704C91.9819 75.0968 92.0027 75.125 92.0213 75.155C92.0247 75.1609 92.0287 75.1684 92.0314 75.1736C92.0493 75.2023 92.0658 75.232 92.0807 75.2626C92.0861 75.2738 92.0915 75.2871 92.0962 75.299C92.1111 75.3287 92.1239 75.3591 92.138 75.3933L92.1549 75.44C92.1671 75.4742 92.1806 75.5083 92.1927 75.5462C92.1994 75.567 92.2055 75.5914 92.213 75.6129C92.2238 75.6486 92.2345 75.6813 92.2447 75.7199C92.2548 75.7585 92.2595 75.7777 92.2669 75.8067C92.2743 75.8356 92.2851 75.8757 92.2932 75.9136C92.3013 75.9514 92.3088 75.9826 92.3155 76.016C92.3223 76.0494 92.3324 76.0902 92.3398 76.1266C92.3472 76.1629 92.3553 76.2089 92.3634 76.2505C92.3715 76.2921 92.3769 76.3247 92.383 76.3589C92.3891 76.393 92.3992 76.4576 92.4073 76.5073C92.4127 76.5407 92.4181 76.5734 92.4235 76.6075C92.4316 76.6647 92.4403 76.7248 92.4477 76.7841C92.4518 76.8146 92.4565 76.8435 92.4606 76.874C92.4687 76.9378 92.4761 77.0046 92.4842 77.0699C92.4842 77.0996 92.4909 77.1285 92.495 77.1582C92.5031 77.2324 92.5105 77.3067 92.5186 77.3861C92.5186 77.4098 92.5233 77.4321 92.526 77.4566C92.5335 77.5412 92.5416 77.6295 92.5483 77.7178L92.5523 77.7698C92.5598 77.8618 92.5672 77.9568 92.5726 78.0533C92.5726 78.0682 92.5726 78.083 92.5726 78.0978C92.58 78.2003 92.5854 78.3042 92.5915 78.4111V78.4385C92.5973 78.5488 92.6025 78.6614 92.607 78.7762V78.7925C92.611 78.9103 92.6151 79.0295 92.6191 79.1503V79.1577C92.6701 81.3028 92.5552 83.4488 92.2757 85.5725V85.5777L92.3729 85.6705H96.6102C97.6655 82.2386 99.106 75.4682 95.4139 72.1454Z" fill="#FF8B00"/>
<path d="M124.568 40.9641C125.796 38.3865 127.159 14.9872 127.159 14.9872L122.834 38.5988C117.487 41.8941 111.583 48.9977 110.068 50.8792C109.787 51.2323 109.414 51.4833 109.001 51.5991C108.29 51.7125 107.565 51.6454 106.881 51.4031C106.091 51.1857 105.684 50.1221 105.473 49.1655L101.732 55.7198C103.08 56.2405 104.527 56.3653 105.931 56.0821C107.336 55.7988 108.649 55.1172 109.74 54.1048C113.696 50.5971 123.339 43.5418 124.568 40.9641Z" fill="#F79F57"/>
<path d="M109.741 54.1048C110.906 53.0709 112.566 51.7297 114.358 50.2861C113.875 49.32 113.475 48.3068 113.162 47.2595C111.72 48.8596 110.612 50.2045 110.069 50.8792C109.787 51.2321 109.415 51.4828 109.001 51.5984C108.319 51.7097 107.622 51.6501 106.964 51.424C105.917 53.799 103.967 55.7198 101.734 55.7198C103.081 56.2403 104.528 56.3651 105.932 56.0819C107.337 55.7986 108.649 55.1171 109.741 54.1048Z" fill="#D3430B"/>
<path d="M53.5655 9.94769H55.1349C55.2574 9.94789 55.3748 10.0015 55.4613 10.0969C55.5478 10.1922 55.5964 10.3214 55.5964 10.4561V15.9558C55.5964 16.0906 55.5477 16.2199 55.4611 16.3153C55.3744 16.4106 55.2568 16.4642 55.1342 16.4642H53.5655C53.1721 16.4642 52.7949 16.2925 52.5165 15.9867C52.2382 15.681 52.0816 15.2663 52.0811 14.8336V11.5805C52.0811 11.1475 52.2374 10.7322 52.5158 10.4259C52.7942 10.1197 53.1718 9.94769 53.5655 9.94769V9.94769Z" fill="#0F3854"/>
<path d="M62.3106 0.0010376H67.2888C67.6508 0.0010376 67.998 0.159227 68.254 0.440807C68.51 0.722387 68.6538 1.10429 68.6538 1.5025V24.4876C68.6538 24.6848 68.6185 24.8801 68.5499 25.0622C68.4813 25.2444 68.3808 25.4099 68.254 25.5493C68.1273 25.6888 67.9768 25.7994 67.8112 25.8748C67.6456 25.9503 67.4681 25.9891 67.2888 25.9891H62.3113C62.132 25.9891 61.9545 25.9503 61.7889 25.8748C61.6233 25.7994 61.4728 25.6888 61.3461 25.5493C61.2193 25.4099 61.1188 25.2444 61.0502 25.0622C60.9816 24.8801 60.9463 24.6848 60.9463 24.4876V1.50176C60.9463 1.10375 61.09 0.72203 61.3459 0.44059C61.6017 0.159149 61.9488 0.0010376 62.3106 0.0010376V0.0010376Z" fill="#125A82"/>
<path d="M59.7522 1.65216H55.4069C54.7488 1.65216 54.2153 2.23899 54.2153 2.96288V23.0267C54.2153 23.7506 54.7488 24.3375 55.4069 24.3375H59.7522C60.4103 24.3375 60.9438 23.7506 60.9438 23.0267V2.96288C60.9438 2.23899 60.4103 1.65216 59.7522 1.65216Z" fill="#125A82"/>
<path d="M68.6552 5.93836V1.15633C68.6543 0.849824 68.5432 0.556191 68.3461 0.339525C68.149 0.122859 67.8819 0.000782851 67.6033 0H61.9962C61.7176 0.000977454 61.4507 0.123082 61.2537 0.339706C61.0566 0.55633 60.9454 0.849884 60.9443 1.15633V5.93759L68.6552 5.93836Z" fill="#0F3854"/>
<path d="M60.9438 5.9391V2.66154C60.9429 2.39401 60.8458 2.13776 60.6738 1.94865C60.5018 1.75954 60.2687 1.65294 60.0255 1.65216H55.133C54.8898 1.65294 54.6568 1.75957 54.4849 1.9487C54.3129 2.13782 54.216 2.39407 54.2153 2.66154V5.93837L60.9438 5.9391Z" fill="#0F3854"/>
<path d="M60.9463 20.7689V24.8317C60.9472 25.1384 61.0583 25.4322 61.2553 25.6491C61.4524 25.866 61.7194 25.9884 61.9982 25.9895H67.6026C67.8814 25.9886 68.1485 25.8663 68.3456 25.6493C68.5427 25.4324 68.6538 25.1384 68.6545 24.8317V20.7689H60.9463Z" fill="#0F3854"/>
<path d="M54.2148 20.7689V23.3295C54.2154 23.5971 54.3122 23.8536 54.4842 24.0429C54.6561 24.2322 54.8892 24.3389 55.1325 24.3397H60.025C60.2683 24.3389 60.5015 24.2322 60.6736 24.0429C60.8456 23.8537 60.9426 23.5972 60.9433 23.3295V20.7689H54.2148Z" fill="#0F3854"/>
<path d="M60.026 1.65216H59.4619V24.3375H60.026C60.2693 24.3367 60.5025 24.23 60.6745 24.0407C60.8466 23.8515 60.9436 23.595 60.9443 23.3273V2.66154C60.9434 2.39401 60.8463 2.13776 60.6743 1.94865C60.5022 1.75954 60.2692 1.65294 60.026 1.65216Z" fill="#0F3854"/>
<path d="M154.516 16.0411H152.944C152.822 16.0404 152.705 15.9865 152.619 15.8914C152.533 15.7963 152.485 15.6676 152.485 15.5335V10.0293C152.485 9.89449 152.534 9.76518 152.62 9.66983C152.707 9.57449 152.825 9.52092 152.947 9.52092H154.516C154.711 9.52092 154.904 9.56321 155.084 9.64536C155.265 9.72751 155.428 9.84792 155.566 9.9997C155.704 10.1515 155.813 10.3317 155.888 10.5299C155.962 10.7282 156.001 10.9407 156 11.1552V14.4083C156 14.8414 155.844 15.2567 155.566 15.5629C155.287 15.8691 154.91 16.0411 154.516 16.0411V16.0411Z" fill="#0F3854"/>
<path d="M145.769 25.9888H140.792C140.43 25.9888 140.083 25.8307 139.827 25.5493C139.571 25.2678 139.427 24.8861 139.427 24.4881V1.50222C139.427 1.30508 139.463 1.10985 139.531 0.927691C139.6 0.745529 139.7 0.580004 139.827 0.440569C139.953 0.301136 140.104 0.190527 140.269 0.115063C140.435 0.0395966 140.613 0.00075531 140.792 0.00075531H145.769C146.131 0.00075531 146.478 0.158842 146.734 0.440262C146.99 0.72168 147.134 1.1034 147.134 1.50148V24.4874C147.134 24.8856 146.99 25.2675 146.734 25.5491C146.478 25.8306 146.131 25.9888 145.769 25.9888V25.9888Z" fill="#125A82"/>
<path d="M152.675 24.3375H148.329C148.013 24.3375 147.71 24.1993 147.486 23.9533C147.263 23.7074 147.137 23.3738 147.137 23.026V2.96215C147.137 2.61453 147.263 2.28114 147.486 2.03533C147.71 1.78952 148.013 1.65143 148.329 1.65143H152.675C152.991 1.65143 153.294 1.78952 153.517 2.03533C153.741 2.28114 153.866 2.61453 153.866 2.96215V23.0267C153.866 23.3744 153.741 23.7078 153.517 23.9536C153.294 24.1994 152.991 24.3375 152.675 24.3375V24.3375Z" fill="#125A82"/>
<path d="M139.426 20.0542V24.8347C139.427 25.1413 139.538 25.4351 139.735 25.652C139.932 25.869 140.199 25.9914 140.477 25.9926H146.083C146.362 25.9914 146.629 25.869 146.826 25.652C147.023 25.4351 147.134 25.1413 147.134 24.8347V20.0542H139.426Z" fill="#0F3854"/>
<path d="M147.137 20.0542V23.331C147.138 23.5988 147.235 23.8552 147.407 24.0445C147.58 24.2337 147.813 24.3404 148.056 24.3411H152.948C153.191 24.3404 153.425 24.2337 153.597 24.0444C153.769 23.8552 153.866 23.5987 153.866 23.331V20.0542H147.137Z" fill="#0F3854"/>
<path d="M147.134 5.22062V1.15633C147.134 0.849952 147.023 0.556396 146.826 0.339751C146.629 0.123106 146.362 0.000978547 146.083 0H140.477C140.199 0.000978547 139.932 0.123106 139.735 0.339751C139.538 0.556396 139.427 0.849952 139.426 1.15633V5.21913L147.134 5.22062Z" fill="#0F3854"/>
<path d="M153.866 5.22064V2.66154C153.865 2.39401 153.768 2.13776 153.596 1.94865C153.424 1.75954 153.191 1.65294 152.948 1.65216H148.056C147.813 1.65275 147.58 1.75925 147.407 1.94838C147.235 2.13751 147.138 2.39388 147.137 2.66154V5.22064H153.866Z" fill="#0F3854"/>
<path d="M148.056 24.3375H148.62V1.65216H148.056C147.813 1.65275 147.58 1.75925 147.407 1.94838C147.235 2.13751 147.138 2.39388 147.137 2.66154V23.3273C147.138 23.595 147.235 23.8515 147.407 24.0408C147.58 24.23 147.813 24.3367 148.056 24.3375Z" fill="#0F3854"/>
<g style="mix-blend-mode:overlay" opacity="0.27">
<g style="mix-blend-mode:overlay" opacity="0.27">
<path d="M147.136 7.01678H139.426V13.2282H153.866V7.01678H147.136Z" fill="white"/>
</g>
<g style="mix-blend-mode:overlay" opacity="0.27">
<path d="M147.133 15.3182H139.427V18.6151H153.867V15.3182H147.132H147.133Z" fill="white"/>
</g>
</g>
<g style="mix-blend-mode:overlay" opacity="0.27">
<g style="mix-blend-mode:overlay" opacity="0.27">
<path d="M61.9242 7.01678H54.2153V13.2282H68.6547V7.01678H61.9242Z" fill="white"/>
</g>
<g style="mix-blend-mode:overlay" opacity="0.27">
<path d="M61.9209 15.3182H54.2153V18.6151H68.6547V15.3182H61.9209Z" fill="white"/>
</g>
</g>
<path d="M121.288 116.922C119.061 113.596 101.733 104.379 101.733 104.379C107.387 111.491 117.927 119.095 117.927 119.095C117.833 126.229 118.196 145.991 118.213 146.796L118.241 146.825C118.241 146.825 123.516 120.247 121.288 116.922Z" fill="#04273A"/>
<defs>
<linearGradient id="paint0_linear" x1="58.0092" y1="142.538" x2="29.3747" y2="115.518" gradientUnits="userSpaceOnUse">
<stop stop-color="#A5A2DA"/>
<stop offset="1" stop-color="#B9B7EF"/>
</linearGradient>
</defs>
</svg>
