<svg width="156" height="152" viewBox="0 0 156 152" fill="none" xmlns="http://www.w3.org/2000/svg">
<path d="M147.967 147.281C147.967 149.888 114.846 152 73.9837 152C33.1219 152 0 149.887 0 147.281C0 144.675 33.1219 142.561 73.9837 142.561C114.846 142.561 147.967 144.673 147.967 147.281Z" fill="white"/>
<path d="M45.1831 64.7391L48.3638 60.2879C48.9013 59.5354 49.6981 58.9575 50.6353 58.6407L60.7613 55.229V58.4413C60.7613 58.4413 53.3719 60.9192 52.427 61.7619C50.8531 63.6453 49.3865 65.5977 48.0326 67.6118L45.1831 64.7391Z" fill="#C75252"/>
<path d="M57.0679 25.4228C49.1942 21.0297 30.8558 13.1075 30.6701 13.0283C30.5745 12.9914 30.4711 12.9729 30.367 12.9739C30.2628 12.9749 30.16 12.9953 30.0653 13.0339C29.9706 13.0725 29.886 13.1285 29.8172 13.198C29.7484 13.2676 29.6968 13.3492 29.6658 13.4376C29.5835 13.6214 29.579 13.8254 29.653 14.0119C29.727 14.1985 29.8746 14.3549 30.0684 14.4521C30.2541 14.5287 48.5167 22.4233 56.3296 26.7794C57.2417 27.3225 57.9856 28.0606 58.4929 28.9261C59.0002 29.7916 59.2544 30.7568 59.2324 31.7325V60.7221C59.8364 60.9715 60.362 61.3492 60.7627 61.8222V31.7325C60.7906 30.4898 60.4669 29.2608 59.8213 28.1583C59.1757 27.0558 58.229 26.1152 57.0679 25.4228Z" fill="#251845"/>
<path d="M60.7646 69.3013C59.8313 69.301 58.9364 68.9711 58.2765 68.3844C57.6165 67.7977 57.2455 67.002 57.2451 66.1723V49.7939C57.2447 49.3828 57.3354 48.9755 57.5121 48.5955C57.6887 48.2155 57.948 47.8702 58.2748 47.5792C58.6016 47.2883 58.9898 47.0575 59.417 46.9C59.8442 46.7424 60.3021 46.6612 60.7646 46.661C61.2273 46.661 61.6854 46.742 62.1129 46.8995C62.5404 47.0569 62.9287 47.2878 63.2558 47.5788C63.5829 47.8697 63.8423 48.2151 64.0192 48.5952C64.1962 48.9753 64.2871 49.3826 64.2869 49.7939V66.1723C64.2867 66.5833 64.1955 66.9903 64.0183 67.3701C63.8412 67.7498 63.5818 68.0948 63.2547 68.3854C62.9276 68.6759 62.5392 68.9064 62.112 69.0635C61.6847 69.2207 61.2269 69.3015 60.7646 69.3013Z" fill="#561B2F"/>
<path d="M50.2021 97.9435C50.2021 97.9435 75.9894 94.1711 81.1029 98.5246C83.2437 100.347 74.4177 134.055 76.5243 135.64C78.6309 137.225 85.2895 138.723 85.2895 138.723H70.6279L72.6944 133.463C72.6944 133.463 72.5459 113.325 72.5459 108.971C72.5459 104.618 73.8829 103.059 73.8829 103.059L50.2037 106.613L50.2021 97.9435Z" fill="#3D2614"/>
<path d="M53.7719 99.9008C53.9205 99.7687 54.699 96.2276 54.699 96.2276L44.8583 91.6376C44.1006 93.6598 42.6447 98.6552 42.0356 101.508C43.2494 100.243 51.135 99.7106 53.7719 99.9008Z" fill="#3D2614"/>
<path d="M49.1043 63.1282C49.1043 63.1282 45.4645 59.6385 43.0445 63.7978C40.6244 67.9571 47.4285 88.5172 42.4502 93.7186L55.0215 96.5742C55.4441 90.0464 56.2918 83.5458 57.5604 77.1052C59.3417 69.5038 52.9327 66.5306 49.1043 63.1282Z" fill="#3B8080"/>
<path d="M57.5662 77.1059C58.9448 71.2071 55.3898 68.0926 51.9402 65.406C53.4332 67.6131 55.4299 71.256 54.699 74.1394C53.5684 78.584 57.431 86.2488 54.0215 87.7664C50.612 89.284 45.9398 88.1442 47.4269 89.4663C48.914 90.7885 52.0858 90.2588 51.3029 90.9576C50.52 91.6563 44.8583 90.9178 47.4269 92.0986C49.9956 93.2794 52.0991 92.8119 52.0991 93.9122C52.0991 95.0124 42.4561 93.718 42.4561 93.718L55.0273 96.5737C55.4499 90.0463 56.2976 83.5461 57.5662 77.1059Z" fill="#26615F"/>
<path d="M20.5019 3.58728H17.9229V125.196H20.5019V3.58728Z" fill="#403048"/>
<path d="M37.9233 5.30823H24.3745V25.2409H37.9233V5.30823Z" fill="#403048"/>
<path d="M27.0351 46.1797H13.2441V58.4396H27.0351V46.1797Z" fill="#584B5F"/>
<path d="M27.0351 59.5153H13.2441V71.7778H27.0351V59.5153Z" fill="#584B5F"/>
<path d="M27.0351 84.8287H13.2441V97.0887H27.0351V84.8287Z" fill="#584B5F"/>
<path d="M26.1098 102.312H12.3188V145.752H26.1098V102.312Z" fill="#584B5F"/>
<path d="M26.1099 102.312V145.752H12.3188C12.3188 145.752 22.124 145.488 23.5754 144.196C25.0268 142.905 26.1099 102.312 26.1099 102.312Z" fill="#433A48"/>
<path d="M30.9883 144.987H7.76074V147.28H30.9883V144.987Z" fill="#403048"/>
<path d="M61.0691 144.987H51.7588V147.28H61.0691V144.987Z" fill="#403048"/>
<path d="M58.8927 116.306H55.917V147.28H58.8927V116.306Z" fill="#403048"/>
<path d="M26.9877 7.74796L20.7778 4.51989L22.0035 2.65747L28.2133 5.88296L26.9877 7.74796Z" fill="#403048"/>
<path d="M41.5986 44.1541C43.2536 45.4631 42.7054 48.4825 43.2328 51.9008C44.3768 59.3991 35.5923 59.5617 35.5923 59.5617L35.0248 58.0493C35.0248 58.0493 38.0673 56.9676 37.6216 55.7775C36.1405 56.5147 34.473 56.9051 32.7756 56.9121C30.4239 56.7681 29.7568 54.2585 29.7568 54.2585C29.7568 54.2585 32.6746 55.9188 34.7217 54.8925C35.2804 54.6665 35.7483 54.2945 36.0631 53.8261C36.3779 53.3577 36.5245 52.8151 36.4836 52.2707C36.4836 52.2707 34.9862 54.3364 33.2019 54.4447C32.7405 54.5074 32.2685 54.457 31.8368 54.299C31.4052 54.141 31.0302 53.8813 30.7522 53.5479C30.7522 53.5479 34.2048 53.5135 34.5658 51.7713C35.1497 49.6234 36.022 47.5459 37.1641 45.5833C38.201 43.7394 40.7147 43.4567 41.5986 44.1541Z" fill="#442348"/>
<path d="M42.9326 52.75C42.9326 52.75 44.5474 60.7239 44.0215 63.0525C43.6828 64.5649 46.7506 64.8119 47.8841 64.7155C48.089 64.6922 48.2864 64.6315 48.4637 64.5372C48.641 64.4428 48.7943 64.3168 48.9142 64.1671C49.034 64.0175 49.1177 63.8476 49.1601 63.6678C49.2024 63.488 49.2025 63.3023 49.1603 63.1225C48.7487 61.1148 48.0684 57.2594 48.4814 55.5384C49.0578 53.1596 42.9326 52.75 42.9326 52.75Z" fill="#DF7474"/>
<path d="M42.0996 48.3526C42.6393 47.2235 43.5829 46.2843 44.7842 45.6806C47.748 44.085 51.4278 46.0769 51.8096 49.4159C51.8504 49.7107 51.8504 50.0087 51.8096 50.3035C51.7303 50.8044 51.7869 51.3148 51.9747 51.7923C52.1626 52.2698 52.4764 52.7005 52.8897 53.0482C52.9298 53.0809 52.9571 53.1241 52.9678 53.1715C52.9785 53.219 52.9719 53.2683 52.949 53.3123C52.9008 53.404 52.8302 53.485 52.7423 53.5495C52.6544 53.6139 52.5515 53.6601 52.441 53.6847C51.9552 53.7983 51.8022 54.0137 51.9567 54.3003C52.1112 54.5869 52.4766 54.6383 52.3489 54.8563C52.2211 55.0742 51.7368 55.1416 51.7368 55.1416C51.7368 55.1416 52.0741 55.5841 51.9374 55.8179C51.8007 56.0516 51.6046 56.0267 51.6046 56.0267C51.6046 56.0267 51.1589 56.2089 51.2495 56.4942C51.2822 56.7975 51.1798 57.1 50.9643 57.3368C50.7325 57.6591 49.2782 59.186 45.6651 56.1348C42.0521 53.0837 41.498 50.17 42.0996 48.3526Z" fill="#DF7474"/>
<path d="M51.7045 49.9205C51.2114 49.8791 50.7154 49.9657 50.2766 50.1699C49.8378 50.3741 49.4751 50.6871 49.2324 51.0709C49.8753 50.5663 50.6859 50.2621 51.541 50.2044L51.7045 49.9205Z" fill="#3E2A49"/>
<path d="M51.2593 51.1199C51.2593 51.1199 51.3084 51.5783 51.0955 51.7156C51.0439 51.7555 50.9815 51.7827 50.9143 51.7945C50.8472 51.8063 50.7777 51.8023 50.7129 51.7829L51.2593 51.1199Z" fill="#232C7A"/>
<path d="M49.9941 51.1664C50.5168 51.1315 51.042 51.1452 51.5615 51.2074C51.8457 51.2883 52.1533 51.2751 52.4276 51.1703C52.0028 51.1638 51.5798 51.1196 51.1648 51.0383C50.7692 50.9704 50.3595 51.0153 49.9941 51.1664Z" fill="#1B225A"/>
<path d="M45.1851 43.7248C41.4948 43.9098 40.2187 46.6795 40.0597 49.5259C39.9111 52.3273 43.4766 54.5304 43.6786 54.1315C43.6786 54.1315 44.9949 50.8506 46.3736 50.8294C47.7522 50.8083 51.4751 48.1206 51.4751 48.1206C51.438 48.0532 51.129 47.1828 50.9433 46.6901C50.7947 46.3123 50.9671 46.0295 50.615 45.698C49.9167 45.0483 49.0722 44.5369 48.1365 44.1969C47.2009 43.8569 46.1953 43.6961 45.1851 43.7248Z" fill="#533055"/>
<path d="M44.8792 49.1277C43.7337 50.3415 42.6857 51.6255 41.743 52.9701C41.5647 53.2131 41.7876 53.4984 42.0402 53.6926C42.9909 54.3992 43.5881 54.3133 43.6743 54.1284C44.2831 52.837 45.1374 51.6485 46.1999 50.6149C47.9077 49.7216 49.7045 48.97 51.5674 48.3696C51.9314 48.2613 50.8841 45.5536 50.6077 45.6923C48.5374 46.6097 46.6115 47.7647 44.8792 49.1277Z" fill="#80DBDE"/>
<path d="M46.3737 50.8291C46.3737 50.8291 47.0274 49.9044 45.5878 49.5253C44.1483 49.1463 44.0829 51.3152 44.8792 51.9571C45.6755 52.599 46.3737 50.8291 46.3737 50.8291Z" fill="#DF7474"/>
<path d="M45.91 50.9475C45.91 50.9475 46.3558 49.9028 45.6991 49.9583C45.0425 50.0138 44.573 51.1469 45.044 51.3873C45.5149 51.6277 45.91 50.9475 45.91 50.9475Z" fill="#DE5E5B"/>
<path d="M23.2466 3.58471C23.2466 4.29365 23.0101 4.98664 22.5671 5.57612C22.1242 6.16559 21.4946 6.6251 20.7579 6.89646C20.0212 7.16782 19.2105 7.23879 18.4285 7.10058C17.6464 6.96237 16.928 6.62116 16.3641 6.11996C15.8001 5.61876 15.416 4.98007 15.2603 4.28479C15.1045 3.58951 15.1841 2.86879 15.4891 2.21374C15.794 1.5587 16.3106 0.998842 16.9734 0.604789C17.6363 0.210735 18.4157 0.000261215 19.2131 0C20.2826 -6.44974e-08 21.3082 0.377565 22.0646 1.04979C22.821 1.72202 23.2462 2.63386 23.2466 3.58471Z" fill="url(#paint0_linear)"/>
<path d="M21.439 3.59084C21.4416 2.49882 20.4474 1.61168 19.2183 1.60935C17.9892 1.60702 16.9907 2.4904 16.9881 3.58242C16.9855 4.67444 17.9798 5.56158 19.2088 5.56391C20.4379 5.56623 21.4364 4.68286 21.439 3.59084Z" fill="#403048"/>
<path d="M88.9097 142.5C88.9097 141.022 88.7404 111.74 87.7212 108.635C87.3855 107.605 84.9966 106.901 84.0503 106.514C76.1929 103.311 58.1308 98.6142 52.9742 97.5628C51.39 97.0505 49.7142 96.7985 48.0286 96.8192C46.6048 96.9504 45.2623 97.4727 44.1878 98.3135C43.1132 99.1543 42.3599 100.272 42.0326 101.511C41.4279 104.127 40.8916 108.643 43.1349 110.607C47.6765 114.584 77.2506 110.853 80.4596 112.036C83.6685 113.22 80.2962 113.595 80.2962 122.025C80.2962 130.454 86.2015 141.908 86.2015 143.833V147.086C86.2015 147.719 99.3744 147.086 99.3744 147.086C99.3744 147.086 88.9097 143.979 88.9097 142.5Z" fill="#4A3854"/>
<path d="M87.7253 108.635C87.2901 107.605 85.0334 106.982 83.2685 106.354C77.2577 104.109 64.4888 100.658 58.2418 99.0106C49.8822 96.8313 49.0905 96.6899 48.0342 96.818C51.5907 96.1761 82.1588 104.525 86.9202 107.716C87.2899 107.94 87.5715 108.262 87.7253 108.635Z" fill="#6C5D74"/>
<path d="M30.8857 16.723H28.3066V110.605H30.8857V16.723Z" fill="#403048"/>
<path d="M30.9883 91.6376H28.3706V147.28H30.9883V91.6376Z" fill="#403048"/>
<path d="M30.9885 91.6373C31.7368 91.4666 32.5296 91.5475 33.2149 91.8643C33.9003 92.1812 34.43 92.7118 34.7025 93.3544C35.5077 95.6514 35.7098 109.119 37.1211 110.373C38.5324 111.628 53.8848 110.838 55.825 111.383C57.7653 111.927 57.6078 115.225 57.6078 115.225L30.375 115.511L30.9885 91.6373Z" fill="#702138"/>
<path d="M58.8933 114.87H29.7529V118.223H58.8933V114.87Z" fill="#403048"/>
<path d="M20.7822 107.429C20.7819 107.705 20.6896 107.975 20.5171 108.204C20.3446 108.433 20.0996 108.612 19.813 108.717C19.5264 108.822 19.2111 108.85 18.9069 108.796C18.6027 108.742 18.3233 108.609 18.104 108.414C17.8847 108.219 17.7353 107.971 17.6747 107.7C17.6142 107.43 17.6451 107.15 17.7637 106.895C17.8822 106.64 18.0831 106.422 18.3408 106.269C18.5986 106.116 18.9017 106.034 19.2119 106.033C19.4181 106.033 19.6224 106.069 19.813 106.139C20.0036 106.209 20.1768 106.312 20.3226 106.442C20.4685 106.571 20.5842 106.725 20.663 106.895C20.7419 107.064 20.7824 107.246 20.7822 107.429Z" fill="#362C3C"/>
<path d="M21.2411 94.5032C21.2411 94.7792 21.149 95.0489 20.9766 95.2783C20.8041 95.5077 20.5591 95.6865 20.2723 95.792C19.9856 95.8975 19.6701 95.9251 19.3658 95.8712C19.0614 95.8172 18.7818 95.6842 18.5625 95.489C18.3431 95.2938 18.1939 95.0453 18.1335 94.7746C18.0731 94.5039 18.1044 94.2234 18.2233 93.9686C18.3423 93.7137 18.5437 93.4959 18.8018 93.3428C19.06 93.1897 19.3634 93.1081 19.6738 93.1084C20.0895 93.1091 20.4879 93.2563 20.7817 93.5178C21.0755 93.7792 21.2407 94.1337 21.2411 94.5032Z" fill="#362C3C"/>
<path d="M21.2416 87.7677C21.2413 88.0436 21.149 88.313 20.9763 88.5423C20.8037 88.7715 20.5586 88.9502 20.2718 89.0555C19.985 89.1608 19.6695 89.1881 19.3652 89.134C19.061 89.0799 18.7816 88.947 18.5624 88.7517C18.3432 88.5565 18.1941 88.3077 18.1339 88.0371C18.0736 87.7665 18.105 87.486 18.224 87.2313C18.343 86.9765 18.5443 86.7589 18.8024 86.6059C19.0606 86.4528 19.364 86.3713 19.6742 86.3716C19.8803 86.3718 20.0842 86.4079 20.2745 86.4782C20.4648 86.5484 20.6376 86.6513 20.7831 86.781C20.9286 86.9106 21.0441 87.0644 21.1228 87.2337C21.2014 87.403 21.2418 87.5845 21.2416 87.7677Z" fill="#362C3C"/>
<path d="M20.7822 114.502C20.7819 114.778 20.6896 115.047 20.5171 115.277C20.3446 115.506 20.0996 115.684 19.813 115.79C19.5264 115.895 19.2111 115.923 18.9069 115.869C18.6027 115.815 18.3233 115.682 18.104 115.487C17.8847 115.292 17.7353 115.044 17.6747 114.773C17.6142 114.503 17.6451 114.223 17.7637 113.968C17.8822 113.713 18.0831 113.495 18.3408 113.342C18.5986 113.188 18.9017 113.106 19.2119 113.106C19.6283 113.106 20.0278 113.253 20.3223 113.515C20.6168 113.777 20.7822 114.132 20.7822 114.502Z" fill="#362C3C"/>
<path d="M20.7821 121.577C20.7827 121.853 20.6912 122.123 20.5193 122.353C20.3473 122.583 20.1026 122.762 19.8161 122.868C19.5296 122.974 19.2141 123.002 18.9096 122.948C18.6051 122.895 18.3254 122.763 18.1056 122.568C17.8858 122.373 17.736 122.125 17.6751 121.854C17.6141 121.583 17.6448 121.303 17.7632 121.048C17.8816 120.793 18.0825 120.575 18.3404 120.421C18.5982 120.268 18.9015 120.185 19.2118 120.185C19.6275 120.185 20.0262 120.332 20.3206 120.593C20.615 120.854 20.781 121.208 20.7821 121.577Z" fill="#362C3C"/>
<path d="M20.7822 128.654C20.7819 128.93 20.6896 129.199 20.5171 129.429C20.3446 129.658 20.0996 129.836 19.813 129.942C19.5264 130.047 19.2111 130.075 18.9069 130.021C18.6027 129.967 18.3233 129.834 18.104 129.639C17.8847 129.444 17.7353 129.196 17.6747 128.925C17.6142 128.655 17.6451 128.375 17.7637 128.12C17.8822 127.865 18.0831 127.647 18.3408 127.494C18.5986 127.34 18.9017 127.258 19.2119 127.258C19.6282 127.258 20.0274 127.406 20.3218 127.667C20.6162 127.929 20.7818 128.284 20.7822 128.654Z" fill="#362C3C"/>
<path d="M20.7821 135.727C20.7827 136.003 20.6912 136.273 20.5193 136.502C20.3473 136.732 20.1026 136.911 19.8161 137.017C19.5296 137.123 19.2141 137.151 18.9096 137.098C18.6051 137.044 18.3254 136.912 18.1056 136.717C17.8858 136.522 17.736 136.274 17.6751 136.003C17.6141 135.733 17.6448 135.452 17.7632 135.197C17.8816 134.942 18.0825 134.724 18.3404 134.571C18.5982 134.417 18.9015 134.335 19.2118 134.335C19.6275 134.335 20.0262 134.481 20.3206 134.742C20.615 135.003 20.781 135.357 20.7821 135.727Z" fill="#362C3C"/>
<path d="M20.7822 142.806C20.7819 143.081 20.6896 143.351 20.5171 143.58C20.3446 143.809 20.0996 143.988 19.813 144.093C19.5264 144.199 19.2111 144.226 18.9069 144.172C18.6027 144.118 18.3233 143.986 18.104 143.791C17.8847 143.596 17.7353 143.347 17.6747 143.077C17.6142 142.806 17.6451 142.526 17.7637 142.271C17.8822 142.016 18.0831 141.798 18.3408 141.645C18.5986 141.492 18.9017 141.41 19.2119 141.409C19.4181 141.409 19.6224 141.445 19.813 141.515C20.0036 141.585 20.1768 141.688 20.3226 141.818C20.4685 141.948 20.5842 142.102 20.663 142.271C20.7419 142.441 20.7824 142.622 20.7822 142.806Z" fill="#362C3C"/>
<path d="M13.2441 90.4883H25.4886L13.2441 91.5768V90.4883Z" fill="#362C3C"/>
<path d="M27.0351 63.4353H16.459L27.0351 64.3916V63.4353Z" fill="#362C3C"/>
<path d="M13.2441 67.7455H25.0281L13.2441 68.5842V67.7455Z" fill="#362C3C"/>
<path d="M27.0351 50.2496H16.4575L27.0351 51.3064V50.2496Z" fill="#362C3C"/>
<path d="M13.2441 54.2281L26.227 54.5571L13.2441 55.2267V54.2281Z" fill="#362C3C"/>
<path d="M50.988 53.684C51.1746 53.8874 51.3066 54.1261 51.3738 54.3818C51.441 54.6374 51.4416 54.9033 51.3757 55.1593C51.3098 55.4152 51.1791 55.6543 50.9935 55.8585C50.8078 56.0627 50.5723 56.2266 50.3047 56.3375C50.6159 56.1021 50.8587 55.8035 51.0126 55.4669C51.1665 55.1303 51.2268 54.7656 51.1886 54.4039C51.1534 54.1578 51.0861 53.9162 50.988 53.684Z" fill="#DE5E5B"/>
<path d="M44.5029 64.109C47.7628 65.0421 50.6852 66.7286 52.971 68.996C53.9084 70.0632 54.4565 67.4626 53.5949 66.6965C52.7332 65.9304 47.9496 62.2848 47.9496 62.2848L44.5029 64.109Z" fill="#DF7474"/>
<path d="M45.1715 65.2226C44.6903 65.1726 44.2036 65.2562 43.778 65.4617C41.8987 66.3744 36.2207 69.3173 36.8744 71.2444C37.6543 73.5492 44.2697 72.2033 46.6631 71.2444C48.9346 70.3343 49.8422 65.6902 45.1715 65.2226Z" fill="#DE5E5B"/>
<path d="M66.046 81.0325C65.3529 81.0327 64.6666 80.9114 64.0263 80.6757C63.386 80.44 62.8042 80.0943 62.3141 79.6586C61.8241 79.2229 61.4355 78.7057 61.1704 78.1364C60.9052 77.5671 60.7688 76.9571 60.769 76.3409V61.0285C60.7694 59.7843 61.3255 58.5912 62.315 57.7114C63.3046 56.8317 64.6466 56.3373 66.046 56.3369C67.4454 56.3373 68.7873 56.8317 69.7769 57.7114C70.7664 58.5912 71.3225 59.7843 71.3229 61.0285V76.3409C71.3229 77.5852 70.7668 78.7784 69.7772 79.6583C68.7876 80.5381 67.4455 81.0325 66.046 81.0325Z" fill="#801D42"/>
<path d="M67.8406 56.3369H64.2439C63.7536 56.3366 63.2688 56.4285 62.8212 56.6065C62.3737 56.7845 61.9735 57.0446 61.647 57.3698C62.9454 56.6962 63.9095 57.0475 66.9951 56.9485C67.4524 56.9485 67.9054 57.0284 68.3279 57.184C68.7504 57.3396 69.1342 57.5678 69.4575 57.8553C69.7809 58.1427 70.0375 58.484 70.2125 58.8596C70.3875 59.2352 70.4774 59.6379 70.4774 60.0445V78.5479C70.4769 79.3098 70.1594 80.0447 69.5861 80.611C70.112 80.3384 70.5484 79.948 70.8515 79.4787C71.1547 79.0093 71.314 78.4777 71.3138 77.9365V59.4329C71.3138 58.6132 70.9483 57.8268 70.2972 57.2464C69.646 56.666 68.7626 56.339 67.8406 56.3369Z" fill="#982F5E"/>
<path d="M66.3105 65.6114C66.3105 65.6114 67.1159 65.5347 67.2021 65.6575C67.2882 65.7804 66.4221 66.8595 66.3909 66.8873C66.3597 66.915 66.3105 65.6114 66.3105 65.6114Z" fill="#DE5E5B"/>
<path d="M66.0431 77.0985C65.9627 77.0987 65.883 77.0849 65.8087 77.0576C65.7343 77.0303 65.6668 76.9901 65.6099 76.9396C65.553 76.889 65.5079 76.829 65.4772 76.7629C65.4466 76.6968 65.4309 76.6259 65.4311 76.5544V21.8272C65.4287 19.6388 64.4499 17.5406 62.7094 15.9931C60.9689 14.4457 58.6089 13.5754 56.1474 13.5733H30.6706C30.5083 13.5733 30.3526 13.5161 30.2379 13.414C30.1231 13.312 30.0586 13.1735 30.0586 13.0292C30.0586 12.8848 30.1231 12.7463 30.2379 12.6443C30.3526 12.5422 30.5083 12.485 30.6706 12.485H56.1474C58.9333 12.4878 61.6042 13.473 63.5741 15.2244C65.544 16.9758 66.6521 19.3504 66.6552 21.8272V76.5531C66.6554 76.6247 66.6397 76.6956 66.609 76.7617C66.5784 76.8279 66.5333 76.8881 66.4765 76.9388C66.4196 76.9894 66.3521 77.0297 66.2777 77.0571C66.2034 77.0845 66.1236 77.0985 66.0431 77.0985Z" fill="#2B1E53"/>
<path d="M33.3714 13.2978C33.3732 13.69 33.244 14.0738 33.0002 14.4006C32.7564 14.7275 32.409 14.9826 32.002 15.1338C31.5949 15.2849 31.1466 15.3254 30.7138 15.2499C30.2809 15.1743 29.883 14.9862 29.5704 14.7094C29.2579 14.4326 29.0447 14.0796 28.958 13.6951C28.8713 13.3105 28.9149 12.9118 29.0833 12.5494C29.2517 12.1869 29.5374 11.8769 29.904 11.6589C30.2707 11.4408 30.7019 11.3245 31.143 11.3245C31.7325 11.3245 32.2979 11.5322 32.7156 11.902C33.1332 12.2718 33.3691 12.7737 33.3714 13.2978Z" fill="#584B5F"/>
<path d="M67.2013 65.6589L66.2312 66.2359L65.429 66.4447V65.4541C64.1231 65.927 64.0608 66.7947 62.4444 67.212C59.9679 67.0456 44.8518 66.1884 39.0118 69.1933C32.6415 72.4636 41.7914 73.7765 49.1407 72.3725C56.49 70.9684 62.4177 69.7784 62.4444 69.7969C62.4444 69.7969 66.2491 69.966 66.6532 69.6094C67.0246 69.2779 66.9695 68.6994 66.9695 67.615C66.9695 67.0879 67.5846 65.9996 67.2013 65.6589Z" fill="#DF7474"/>
<path d="M119.177 42.3521C121.703 40.1067 120.663 34.0797 120.663 34.0797C120.073 33.6886 119.368 33.4591 118.633 33.4193C117.117 33.3257 115.598 33.552 114.199 34.0797C109.781 35.5775 100.773 45.4785 99.472 46.6382C98.1706 47.7979 111.234 63.6161 111.234 63.6161L111.76 64.188C111.274 64.1299 110.703 64.1075 110.605 64.3043C110.486 64.5407 111.682 64.8023 112.455 64.9436L112.707 65.217L111.956 65.3094C111.956 65.3094 110.43 65.0043 110.43 65.4415C110.43 65.8787 113.55 66.1336 113.55 66.1336L114.373 60.6957L111.568 60.3761C111.568 60.3761 105.931 50.1754 106.646 48.5309C107.361 46.8865 116.649 44.6028 119.177 42.3521Z" fill="#DE5E5B"/>
<path d="M124.825 71.4253L123.34 88.9923C123.34 88.9923 118.191 112.23 118.191 114.563C118.191 116.897 116.344 145.318 116.344 145.318L116.83 147.39L116.733 148.511C114.673 148.22 112.575 148.22 110.515 148.511C107.692 149.032 106.821 148.511 106.821 148.511L113.719 145.92L112.358 111.28L114.777 70.0582L124.825 71.4253Z" fill="#5F2269"/>
<path d="M132.67 71.367C132.691 71.0705 132.729 70.775 132.783 70.4819C126.426 70.3591 126.604 69.7014 120.078 70.3064C120.393 75.7878 120.131 82.3088 120.131 82.3088C120.131 82.3088 122.528 87.6463 123.342 88.9882C124.31 90.5864 133.351 110.584 133.351 110.584C133.351 110.584 142.97 142.202 142.191 144.448C141.413 146.695 139.569 150.668 139.569 150.668L144.918 149.718V147.644L139.866 107.476C139.866 107.476 132.67 72.9202 132.67 71.367Z" fill="#7F2B8A"/>
<path d="M131.417 13.5728C131.514 13.099 131.78 12.6658 132.176 12.3372C132.572 12.0087 133.077 11.8025 133.615 11.7492C134.153 11.696 134.696 11.7984 135.164 12.0415C135.631 12.2846 135.998 12.6554 136.21 13.0986L135.746 13.413C135.541 13.0496 135.222 12.7466 134.828 12.5404C134.433 12.3341 133.981 12.2333 133.524 12.2502C133.067 12.267 132.625 12.4009 132.251 12.6355C131.877 12.8701 131.588 13.1955 131.417 13.5728Z" fill="#533055"/>
<path d="M134.095 72.2002C131.421 60.7209 139.409 35.2275 139.037 35.0677C135.604 33.2464 131.678 32.2878 127.68 32.294C124.624 32.3469 121.587 32.7223 118.631 33.4126C118.631 33.4126 110.608 39.8227 110.608 45.7836C110.608 49.1583 112.185 61.9967 112.739 71.6348C119.259 71.0311 127.738 72.0826 134.095 72.2002Z" fill="#C3C4F9"/>
<path d="M131.543 32.5706L129.464 23.0963L124.946 25.3986C124.337 27.7811 123.534 30.1207 122.541 32.3989C120.874 35.1964 121.551 43.6722 131.543 32.5706Z" fill="#DF7474"/>
<path d="M123.49 30.1452C125.604 30.0131 129.794 27.3846 129.907 25.1168L129.461 23.0972L124.943 25.3994C124.943 25.3994 124.242 28.0121 123.49 30.1452Z" fill="#DE5E5B"/>
<path d="M124.701 12.708C124.701 12.708 120.911 14.1344 120.911 16.9346C120.911 19.7347 119.406 26.7417 120.911 28.0784C122.416 29.4151 127.527 28.6596 129.807 25.2162C132.087 21.7728 131.71 14.635 130.996 13.9983C130.281 13.3617 126.109 11.4558 124.701 12.708Z" fill="#DF7474"/>
<path d="M127.47 13.7437V14.0078C127.47 14.0078 126.548 17.4631 123.001 18.0232C119.455 18.5832 119.017 16.944 119.017 16.944C119.017 16.944 115.325 18.3283 115.032 15.0447C114.895 14.1812 115.108 13.3024 115.633 12.566C116.159 11.8296 116.963 11.2839 117.9 11.0267C117.9 11.0267 116.832 13.2721 118.197 13.0159C119.562 12.7596 118.31 10.8549 119.758 10.4244C120.689 10.1823 121.69 10.2748 122.545 10.682C123.885 10.568 125.192 10.2466 126.408 9.73234C128.009 8.95437 131.202 9.60028 131.55 10.8115C131.748 11.4783 131.897 12.156 131.995 12.8403C131.967 12.6065 132.97 12.9023 133.017 12.9261C136.164 14.4543 133.836 18.8012 132.29 21.6661C131.84 22.5147 131.338 23.3409 130.787 24.1412C130.552 24.4946 130.254 24.8122 129.905 25.0817C129.905 25.0817 131.559 21.1773 131 19.8406C130.441 18.5039 129.761 19.9265 129.47 18.5436C129.179 17.1607 130.392 16.9876 130.392 15.8662C130.392 14.7448 127.47 13.7437 127.47 13.7437Z" fill="#533055"/>
<path d="M129.582 19.9445C129.582 19.9445 130.943 17.8695 131.769 18.6039C132.595 19.3382 131.113 23.5068 130.284 23.0947C129.455 22.6826 129.582 19.9445 129.582 19.9445Z" fill="#DF7474"/>
<path d="M120.875 24.4093C121.958 24.9792 123.242 25.1678 124.473 24.9377C124.473 24.9377 123.32 26.1146 122.453 26.1185C121.585 26.1225 120.875 24.4093 120.875 24.4093Z" fill="white"/>
<path d="M130.089 20.1603C130.089 20.1603 131.109 18.9306 131.377 19.5976C131.644 20.2646 130.502 22.8996 130.089 22.5364C129.676 22.1732 130.089 20.1603 130.089 20.1603Z" fill="#DE5E5B"/>
<path d="M122.106 21.2915C121.787 21.8143 121.592 22.3898 121.534 22.9822C121.651 22.9941 121.812 23.035 122.675 23.0957C122.369 23.0033 122.063 22.9109 121.754 22.8316C122.08 21.8152 122.574 20.8476 123.22 19.9602C122.798 20.1227 122.302 20.9283 122.106 21.2915Z" fill="#3648A2"/>
<path d="M125.894 20.0927C125.894 20.4771 125.649 20.7875 125.346 20.7875C125.042 20.7875 124.796 20.4771 124.796 20.0927C124.796 19.7083 125.042 19.3979 125.346 19.3979C125.649 19.3979 125.894 19.711 125.894 20.0927Z" fill="#3648A2"/>
<path d="M121.973 20.0927C121.973 20.4771 121.728 20.7875 121.423 20.7875C121.119 20.7875 120.875 20.4771 120.875 20.0927C120.875 19.7083 121.12 19.3979 121.423 19.3979C121.726 19.3979 121.973 19.711 121.973 20.0927Z" fill="#3648A2"/>
<path d="M125.037 18.0458C125.408 17.9751 125.792 17.9738 126.165 18.042C126.537 18.1103 126.889 18.2465 127.199 18.4421C127.93 19.0932 127.661 19.5052 127.465 19.5052C127.269 19.5052 127.22 18.3773 126.495 18.4421C124.473 18.627 124.445 18.0893 125.037 18.0458Z" fill="#3648A2"/>
<path d="M134.016 70.403C134.016 70.403 136.645 70.6883 136.645 70.1269C136.645 69.5656 134.331 69.942 134.068 69.2882L133.91 71.3198C133.91 71.3198 136.647 71.5839 136.962 71.2986C137.276 71.0133 134.016 70.403 134.016 70.403Z" fill="#DE5E5B"/>
<path d="M133.815 33.8741C130.93 33.7632 126.928 37.1022 129.908 42.441C132.096 46.3639 148.059 51.7582 148.059 51.7582C148.059 51.7582 131.796 67.5869 130.994 68.3002C130.994 68.3002 130.309 69.3053 130.808 69.7531C131.307 70.2008 131.229 71.2061 131.44 71.2061C131.651 71.2061 131.465 71.3237 131.86 71.6737C132.255 72.0237 136.963 72.6114 136.963 72.2112C136.963 72.0607 136.517 71.8982 135.98 71.7503C135.395 71.5935 134.887 71.2647 134.54 70.8179C134.193 70.371 134.027 69.8326 134.069 69.2908C133.806 68.6304 152.529 57.0838 154.002 55.1224C154.816 54.0783 155.487 52.951 156 51.7648C156 51.7648 146.06 34.3536 133.815 33.8741Z" fill="#DF7474"/>
<path d="M37.7275 79.7993C35.1681 75.5301 34.0512 70.6942 34.5112 65.8738C34.5171 65.8396 34.5378 65.8088 34.5689 65.788C34.6 65.7673 34.639 65.7583 34.6776 65.7629C34.7143 65.7684 34.7474 65.7859 34.7703 65.8121C34.7931 65.8382 34.804 65.8711 34.8009 65.9041C34.346 70.6725 35.451 75.4562 37.983 79.6792C37.9996 79.7089 38.0029 79.743 37.9925 79.7748C37.982 79.8066 37.9586 79.8338 37.9266 79.8509C37.8925 79.867 37.8525 79.8706 37.8153 79.861C37.7781 79.8514 37.7466 79.8292 37.7275 79.7993Z" fill="#3C20BB"/>
<path d="M73.2397 82.3034C73.2146 82.2791 73.2007 82.2473 73.2007 82.2143C73.2007 82.1813 73.2146 82.1495 73.2397 82.1251C79.0885 76.6476 74.0404 56.1206 73.5828 54.3282C73.5755 54.2952 73.5828 54.2609 73.6029 54.2324C73.6231 54.204 73.6546 54.1835 73.6912 54.175C73.7286 54.1678 73.7677 54.1736 73.8004 54.1913C73.8331 54.209 73.8568 54.2373 73.8666 54.2702C74.3806 56.2514 79.4703 76.6687 73.4477 82.3007C73.4203 82.3253 73.3832 82.3394 73.3443 82.3399C73.3054 82.3404 73.2678 82.3273 73.2397 82.3034Z" fill="#3C20BB"/>
<defs>
<linearGradient id="paint0_linear" x1="15.1826" y1="3.5847" x2="23.2466" y2="3.5847" gradientUnits="userSpaceOnUse">
<stop stop-color="#A5A2DA"/>
<stop offset="1" stop-color="#B9B7EF"/>
</linearGradient>
</defs>
</svg>
