<svg id="Layer_1" data-name="Layer 1" xmlns="http://www.w3.org/2000/svg" viewBox="0 0 71.86 142.11"><title>cup</title><path d="M90.92,23.86H87.08l-.5,13.57H78.37l-2.7,102.76,0,0q-2.61.48-5.3.8-2,.26-4,.42l0-4q3.78-2.07,4.24-7.06c0-.11,0-.23,0-.34l2-92.61.28-13.57H37.22l.29,13.57H23.58l-.5-13.57H19.23L19.14,22H91ZM66.29,142.55h0v0Z" transform="translate(-19.14 -21.96)" style="fill:#aadcf9;fill-rule:evenodd"/><path d="M86.58,37.43l.5-13.57h3.84l-.08,2.69h.08L86.14,156q-.35,4-3.4,4.9l-.15,0c-.86.21-1.72.41-2.6.6a122.94,122.94,0,0,1-49.82,0c-.88-.19-1.74-.39-2.6-.6l-.16,0Q24.35,160,24,156L19.23,26.55h.09l-.09-2.69h3.85l.5,13.57,3.54,95.3h0l.08,1.62q.39,6.15,6,7.44l.27.05c2.09.42,4.23.76,6.4,1a92.25,92.25,0,0,0,9.37.65h11.6c1.86,0,3.69-.13,5.5-.27,1.37-.11,2.72-.24,4.06-.4q2.68-.32,5.3-.79l.77-.16q5.93-1.47,6.56-6.29l0-1.85Zm-20.25,100A14.16,14.16,0,0,1,60,138.88H50.53q-8.94-.31-10.61-6.83a12.39,12.39,0,0,1-.39-2.55l-2-92.07H67.32Zm-26.6,7.41a85.81,85.81,0,0,1-10.55-1.95l-.14,0a4.28,4.28,0,0,1-1.6-.83l.44,11.25c.22,2.69,1.35,4.33,3.38,4.9l.17,0a92.58,92.58,0,0,0,11.1,2.06c-1.68-.45-2.51-2.78-2.46-7l-.19-8.42h-.07Zm43-2.82a4.31,4.31,0,0,1-1.6.85l-.15,0q-2.67.67-5.41,1.18c-1.69.3-3.4.56-5.13.77h-.09l-.06,0-.19,8.42q.07,6.33-2.46,7a92.58,92.58,0,0,0,11.1-2.06l.18,0c2-.57,3.15-2.21,3.37-4.9Z" transform="translate(-19.14 -21.96)" style="fill:#c4e7fb;fill-rule:evenodd"/><path d="M66.33,137.44l1-100H37.51l-.29-13.57H67.58V37.43h5.08l-2,92.61c0,.11,0,.23,0,.34Q70.11,135.38,66.33,137.44Z" transform="translate(-19.14 -21.96)" style="fill:#e1f3fd;fill-rule:evenodd"/><path d="M23.58,37.43H37.51l2,92.07a12.39,12.39,0,0,0,.39,2.55q1.66,6.52,10.61,6.83H60a14.16,14.16,0,0,0,6.36-1.44l0,4h0c-1.81.13-3.64.22-5.5.26H49.18c-3.19-.07-6.32-.3-9.37-.66-2.17-.27-4.31-.61-6.4-1l-.27-.05q-5.49-1.26-6-7.22h0Zm63,0L83,133.75l0,0v0q-.63,4.83-6.56,6.29l-.74.14,2.7-102.76ZM39.73,144.85l.08,0h.07l.19,8.42c0,4.22.78,6.55,2.46,7a92.58,92.58,0,0,1-11.1-2.06l-.17,0c-2-.57-3.16-2.21-3.38-4.9l-.44-11.25a4.28,4.28,0,0,0,1.6.83l.14,0A85.81,85.81,0,0,0,39.73,144.85Zm43-2.82-.44,11.27c-.22,2.69-1.35,4.33-3.37,4.9l-.18,0a92.58,92.58,0,0,1-11.1,2.06q2.53-.68,2.46-7l.19-8.42.06,0h.09c1.73-.21,3.44-.47,5.13-.77s3.63-.73,5.41-1.18l.15,0A4.31,4.31,0,0,0,82.72,142Z" transform="translate(-19.14 -21.96)" style="fill:#96d3f8;fill-rule:evenodd"/><polygon points="53.51 15.46 48.44 15.46 48.44 1.9 53.8 1.9 53.51 15.46" style="fill:#fff;fill-rule:evenodd"/><path d="M75.67,140.19l.74-.14q5.93-1.47,6.56-6.29v0l0,0,0,1.85q-.63,4.82-6.56,6.29l-.77.16q-2.61.48-5.3.79c-1.34.16-2.69.29-4.06.4-1.81.14-3.64.23-5.5.27H49.18a92.25,92.25,0,0,1-9.37-.65c-2.17-.26-4.31-.6-6.4-1l-.27-.05q-5.58-1.29-6-7.44l-.08-1.62h.08q.48,6,6,7.22l.27.05c2.09.42,4.23.76,6.4,1,3,.36,6.18.59,9.37.66h11.6c1.86,0,3.69-.13,5.5-.26h0q2.05-.17,4-.42,2.68-.31,5.3-.8Zm-9.38,2.36v0Z" transform="translate(-19.14 -21.96)" style="fill:#42b0f2;fill-rule:evenodd"/><path d="M43.85,154.9a6.92,6.92,0,0,0,2.95,1.27,33,33,0,0,0,8.07.86,32.85,32.85,0,0,0,8.05-.86A7.77,7.77,0,0,0,65.78,155l.26,0q4.78.81,4.78,1.94T66,158.91a69.71,69.71,0,0,1-11.5.81A70.32,70.32,0,0,1,43,158.91q-4.76-.79-4.76-1.93T43,155Zm-14.24-5.31c0-.46,2.48-.85,7.46-1.17q3.8-.24,8.39-.36a5.58,5.58,0,0,0,2.63,1,31.56,31.56,0,0,0,6.86.64,31.34,31.34,0,0,0,6.85-.64,5.51,5.51,0,0,0,2.64-1c3.16.08,6,.21,8.62.37q7.45.48,7.46,1.17t-7.46,1.17q-7.45.48-18,.48t-18-.48C32.09,150.44,29.61,150.05,29.61,149.59Z" transform="translate(-19.14 -21.96)" style="fill:#42b0f2;fill-rule:evenodd"/><path d="M32.77,38.25c-6.14-.25-9.2-.54-9.2-.89s3.06-.65,9.2-.9,13.57-.37,22.26-.37,16.1.13,22.24.37,9.22.55,9.22.9-3.07.64-9.22.89-13.55.37-22.24.37S38.92,38.5,32.77,38.25Z" transform="translate(-19.14 -21.96)" style="fill:#42b0f2;fill-rule:evenodd"/><path d="M32,23.81H43.29l1.28,129.43c0,.34,0,.66,0,1-1.56-.32-3.09-.7-4.6-1.16-.68-.2-1.35-.42-2-.66a4.25,4.25,0,0,1-2.68-3.47Z" transform="translate(-19.14 -21.96)" style="fill:#fff;fill-rule:evenodd"/><path d="M62,154q-2.88.27-7,.27c-2.73,0-5-.09-7-.27s-2.88-.38-2.88-.63,1-.47,2.88-.65,4.23-.26,7-.26,5,.09,7,.26,2.88.39,2.88.65S63.91,153.86,62,154Zm12.53,3.22a17.61,17.61,0,0,0,6.12-10.05C81.22,152.91,79.18,156.27,74.52,157.25Zm-24.94-9.06c-1.58-.3-2.37-.68-2.37-1.12s.79-.82,2.37-1.14a31.47,31.47,0,0,1,5.75-.46,31.39,31.39,0,0,1,5.75.46c1.59.32,2.38.7,2.38,1.14s-.79.82-2.38,1.12a29.56,29.56,0,0,1-5.75.48A29.63,29.63,0,0,1,49.58,148.19Zm-13.95,9.06c-4.66-1-6.7-4.34-6.12-10.05A17.61,17.61,0,0,0,35.63,157.25Z" transform="translate(-19.14 -21.96)" style="fill:#fff;fill-rule:evenodd"/><path d="M51.87,146.63c-.95-.18-1.42-.4-1.42-.67s.47-.49,1.42-.68a22.18,22.18,0,0,1,6.9,0c.95.19,1.43.42,1.43.68s-.48.49-1.43.67a20.67,20.67,0,0,1-6.9,0Z" transform="translate(-19.14 -21.96)" style="fill:#42b0f2;fill-rule:evenodd"/></svg>