<svg style="width: 80%;" version="1.1" id="S1EjEsoReQ" xmlns="http://www.w3.org/2000/svg" xmlns:xlink="http://www.w3.org/1999/xlink" x="0px" y="0px" viewBox="0 0 300 300" style="enable-background:new 0 0 300 300;" xml:space="preserve"><style>@-webkit-keyframes S1LiNsiAeQ_rylOniAgm_Animation{0%{-webkit-transform: translate(0px, 0px);transform: translate(0px, 0px);}33.33%{-webkit-transform: translate(0px, 5px);transform: translate(0px, 5px);}66.67%{-webkit-transform: translate(0px, -5px);transform: translate(0px, -5px);}83.33%{-webkit-transform: translate(0px, 0px);transform: translate(0px, 0px);}100%{-webkit-transform: translate(0px, 0px);transform: translate(0px, 0px);}}@keyframes S1LiNsiAeQ_rylOniAgm_Animation{0%{-webkit-transform: translate(0px, 0px);transform: translate(0px, 0px);}33.33%{-webkit-transform: translate(0px, 5px);transform: translate(0px, 5px);}66.67%{-webkit-transform: translate(0px, -5px);transform: translate(0px, -5px);}83.33%{-webkit-transform: translate(0px, 0px);transform: translate(0px, 0px);}100%{-webkit-transform: translate(0px, 0px);transform: translate(0px, 0px);}}@-webkit-keyframes SkCljVojAeQ_Animation{0%{opacity: 0;}66.67%{opacity: 0;}70%{opacity: 1;}73.33%{opacity: 0;}76.67%{opacity: 1;}100%{opacity: 1;}}@keyframes SkCljVojAeQ_Animation{0%{opacity: 0;}66.67%{opacity: 0;}70%{opacity: 1;}73.33%{opacity: 0;}76.67%{opacity: 1;}100%{opacity: 1;}}@-webkit-keyframes r1Q-s4isAgX_Animation{0%{opacity: 0;}53.33%{opacity: 0;}56.67%{opacity: 1;}60%{opacity: 0;}63.33%{opacity: 1;}100%{opacity: 1;}}@keyframes r1Q-s4isAgX_Animation{0%{opacity: 0;}53.33%{opacity: 0;}56.67%{opacity: 1;}60%{opacity: 0;}63.33%{opacity: 1;}100%{opacity: 1;}}@-webkit-keyframes r1dZiVosRg7_Animation{0%{opacity: 0;}40%{opacity: 0;}43.33%{opacity: 1;}46.67%{opacity: 0;}50%{opacity: 1;}100%{opacity: 1;}}@keyframes r1dZiVosRg7_Animation{0%{opacity: 0;}40%{opacity: 0;}43.33%{opacity: 1;}46.67%{opacity: 0;}50%{opacity: 1;}100%{opacity: 1;}}@-webkit-keyframes HkCZsNsoAeX_Animation{0%{opacity: 0;}26.67%{opacity: 0;}30%{opacity: 1;}33.33%{opacity: 0;}36.67%{opacity: 1;}100%{opacity: 1;}}@keyframes HkCZsNsoAeX_Animation{0%{opacity: 0;}26.67%{opacity: 0;}30%{opacity: 1;}33.33%{opacity: 0;}36.67%{opacity: 1;}100%{opacity: 1;}}@-webkit-keyframes ryffi4ji0lQ_Animation{0%{opacity: 0;}13.33%{opacity: 0;}16.67%{opacity: 1;}20%{opacity: 0;}23.33%{opacity: 1;}100%{opacity: 1;}}@keyframes ryffi4ji0lQ_Animation{0%{opacity: 0;}13.33%{opacity: 0;}16.67%{opacity: 1;}20%{opacity: 0;}23.33%{opacity: 1;}100%{opacity: 1;}}#S1EjEsoReQ *{-webkit-animation-duration: 3s;animation-duration: 3s;-webkit-animation-play-state: running;animation-play-state: running;-webkit-animation-timing-function: cubic-bezier(0, 0, 1, 1);animation-timing-function: cubic-bezier(0, 0, 1, 1);}#S1wjNsiRlm{fill: #BABABA;}#Bkdo4ijRgQ{fill: #F9E6BD;}#HkFoVoj0l7{fill: #810038;}#Sy5sNssRx7{fill: #E0CEAA;}#Hyoj4ioClQ{fill: #33003B;}#BknsEssAg7{fill: #E0CEAA;}#Bk6sVsiCgm{fill: #810038;}#rJCjEosCxQ{fill: #F9E6BD;}#HJyljEijCg7{fill: #33003B;}#rJggsVoiClX{fill: #33003B;}#Bybls4jjAem{fill: #810038;}#r1MlsNjiAgQ{fill: #33003B;}#HJmliEssClX{fill: #810038;}#SyNes4siAxm{fill: #E52F7C;}#HyIeiEisClQ{fill: #E0CEAA;}#r1vesEoi0xm{fill: #F9E6BD;}#BkKlsEooRlm{fill: #482836;}#S1ceoEio0e7{fill: #482836;}#Byjli4oi0gm{fill: #482836;}#ByhxjNssAgQ{fill: #A0225B;}#rkaxj4jjAlm{fill: #E52F7C;}#BJe-sNiiCxm{fill: #00B3E3;}#ByZbiVoi0xX{fill: #FFFFFF;}#BkGZjNoo0gQ{fill: #00B3E3;}#S1S-jNosRlm{fill: #E9533B;}#Sy8Zi4ii0lX{fill: #FFFFFF;}#ByvZsNjjCl7{fill: #E9533B;}#rJcbiEjsCxQ{fill: #FFD400;}#BJ3WoVisClQ{fill: #FFFFFF;}#B1pZoNoj0l7{fill: #FFD400;}#By1MjVssRl7{fill: #06BA79;}#HklMi4joAgX{fill: #FFFFFF;}#rJ-MsVsoAgX{fill: #06BA79;}#BJmfiNooAg7{fill: #E52F7C;}#BJ4fsEojAg7{fill: #FFFFFF;}#B1Hfs4jiAxX{fill: #E52F7C;}#ryffi4ji0lQ{-webkit-transform-origin: 50% 50%;transform-origin: 50% 50%;transform-box: fill-box;opacity: 1;}#S1EjEsoReQ:hover #ryffi4ji0lQ{-webkit-animation-name: ryffi4ji0lQ_Animation;animation-name: ryffi4ji0lQ_Animation;}#HkCZsNsoAeX{-webkit-transform-origin: 50% 50%;transform-origin: 50% 50%;transform-box: fill-box;opacity: 1;}#S1EjEsoReQ:hover #HkCZsNsoAeX{-webkit-animation-name: HkCZsNsoAeX_Animation;animation-name: HkCZsNsoAeX_Animation;}#r1dZiVosRg7{-webkit-transform-origin: 50% 50%;transform-origin: 50% 50%;transform-box: fill-box;opacity: 1;}#S1EjEsoReQ:hover #r1dZiVosRg7{-webkit-animation-name: r1dZiVosRg7_Animation;animation-name: r1dZiVosRg7_Animation;}#r1Q-s4isAgX{-webkit-transform-origin: 50% 50%;transform-origin: 50% 50%;transform-box: fill-box;opacity: 1;}#S1EjEsoReQ:hover #r1Q-s4isAgX{-webkit-animation-name: r1Q-s4isAgX_Animation;animation-name: r1Q-s4isAgX_Animation;}#SkCljVojAeQ{-webkit-transform-origin: 50% 50%;transform-origin: 50% 50%;transform-box: fill-box;opacity: 1;}#S1EjEsoReQ:hover #SkCljVojAeQ{-webkit-animation-name: SkCljVojAeQ_Animation;animation-name: SkCljVojAeQ_Animation;}#S1LiNsiAeQ_rylOniAgm{-webkit-transform-origin: 50% 50%;transform-origin: 50% 50%;transform-box: fill-box;-webkit-transform: translate(0px, 0px);transform: translate(0px, 0px);}#S1EjEsoReQ:hover #S1LiNsiAeQ_rylOniAgm{-webkit-animation-name: S1LiNsiAeQ_rylOniAgm_Animation;animation-name: S1LiNsiAeQ_rylOniAgm_Animation;}</style>

<g id="HJri4ioAe7">
	<g id="S1LiNsiAeQ_rylOniAgm" data-animator-group="true" data-animator-type="0"><g id="S1LiNsiAeQ">
		<ellipse cx="157.1" cy="282.6" rx="88.4" ry="5.2" id="S1wjNsiRlm"/>
		<path d="M194.4,176.6c3.4-7,7.1-28.8,7.1-28.8c-1.8-2.7-30.3-17.8-30.3-17.8s-10.7-5.3-14.2,0.9&#10;&#9;&#9;&#9;c-3.6,6.2,6.2,11.6,6.2,11.6l25.8,9.8l-2.7,24l-7.6,3.6c-0.3,0.2-0.6,0.4-0.6,0.8l-0.8,3c-0.2,0.7,0.4,1.5,1.1,1.5&#10;&#9;&#9;&#9;c0.7,0,1.2,0.6,1.2,1.3l-0.5,4.6c-0.1,0.5,0.2,1,0.6,1.2l0.7,0.4c0.5,0.2,1,0.2,1.4-0.2l0.5-0.4c0.2-0.2,0.5-0.3,0.8-0.3l7.3,0&#10;&#9;&#9;&#9;c0.9,0,1.7-0.6,1.9-1.5l2.7-10.7l-1.7-0.7C194,178.7,194.3,177.9,194.4,176.6z" id="Bkdo4ijRgQ"/>
		<path d="M136,144.9c-0.1-0.1-0.2-0.2-0.3-0.2l-1.2-0.2l-2.5-13.2c0-0.1-0.1-0.2-0.2-0.3c-0.1-0.1-0.2-0.1-0.4,0&#10;&#9;&#9;&#9;c-0.1,0-8,2.8-5.8,12.3c-0.4,0.3-1.2,1-2.1,2.1c-0.1,0.1-0.1,0.3-0.1,0.4c0,0.1,0.1,0.3,0.3,0.3l10.8,4.6c0.1,0,0.1,0,0.2,0&#10;&#9;&#9;&#9;c0.1,0,0.1,0,0.2-0.1c0.1-0.1,0.2-0.2,0.2-0.3c0.5-3.3,0.9-4.9,0.9-4.9C136.1,145.1,136.1,145,136,144.9z" id="HkFoVoj0l7"/>
		<path d="M123.9,145.6c-2.1,2.5-4.9,7.1-4.3,13.8l-14.5-4l-1.4-8.8c-0.1-0.4-0.3-0.7-0.6-0.8l-2.7-1.6&#10;&#9;&#9;&#9;c-0.7-0.4-1.5-0.1-1.8,0.7c-0.2,0.7-1,1-1.6,0.7l-4.3-1.8c-0.5-0.2-1-0.1-1.3,0.3l-0.6,0.6c-0.4,0.4-0.5,0.9-0.2,1.4l0.3,0.6&#10;&#9;&#9;&#9;c0.1,0.3,0.2,0.6,0.1,0.9l-2.1,7c-0.3,0.8,0.1,1.8,0.9,2.2l25.4,15.2l6.2,0.9c0,0,11.6-8,12.5-16c0.3-2.7,0.6-4.9,0.9-6.6&#10;&#9;&#9;&#9;L123.9,145.6z" id="Sy5sNssRx7"/>
		<path d="M169.9,162.2c3.5-17.6,4.4-26.6,4.5-26.7c0-0.1,0-0.3-0.1-0.4c-0.5-0.5-11.5-11.8-20.2-12.2&#10;&#9;&#9;&#9;c-0.2,0-0.4,0-0.7,0c-8.6,0-20.7,6.8-22.6,9.6c-2.1,3.1-4.4,11.3-0.1,22.6c0.1,0.6,1.8,8.2,3.6,13.4c0.5,1.6,0.9,2.6,1.2,3.5&#10;&#9;&#9;&#9;c0.7,2,1.1,3.1,2.4,8.1c0.6,2.4,1,4.4,1.3,5.9c0.6,3.1,0.9,4.8,2.3,6c0.3,0.2,1,0.3,2,0.3c6.3,0,24.7-3.9,28.8-4.8&#10;&#9;&#9;&#9;c0.2,0,0.3-0.1,0.3-0.3c0-0.1,0-0.3-0.1-0.4C172.4,186.6,166.4,179.5,169.9,162.2z" id="Hyoj4ioClQ"/>
		<path d="M148.3,202.1c0,0,1.8,17.8,15.1,25.8c0,0,4.4,15.1,17.8,8.9c0,0,6.2,3.6,19.6,5.3c13.3,1.8,23.1,8.9,23.1,8.9&#10;&#9;&#9;&#9;s2.7-11.6,0-13.3c0,0-16-4.4-23.1-6.2c-9.8-9.8-22.2-8-22.2-8l-9.8-31.1L148.3,202.1z" id="BknsEssAg7"/>
		<path d="M177.8,219.6l-8.6-27.5c0-0.1-0.1-0.2-0.2-0.3c-0.1-0.1-0.3,0-0.4,0l-20.5,9.8c-0.2,0.1-0.3,0.3-0.3,0.4&#10;&#9;&#9;&#9;c0,0.2,1.8,17,14,25.3c0.1,0.1,0.2,0.1,0.3,0.1c0.1,0,0.1,0,0.2-0.1c3.9-2,10.9-5.7,15.2-7.3C177.7,220.1,177.8,219.8,177.8,219.6&#10;&#9;&#9;&#9;z" id="Bk6sVsiCgm"/>
		<path d="M113.9,216.8c0,0,16-24,37.4-29.4s21.4,0,21.4,0s8,9.8-5.3,16.9c-13.3,7.1-40,20.5-40,20.5s2.7,11.6-1.8,21.4&#10;&#9;&#9;&#9;c-4.4,9.8-7.1,28.5-7.1,28.5l-9.8-1.8l6.2-51.6L113.9,216.8z" id="rJCjEosCxQ"/>
		<path d="M235.9,246.4c0.8-9.8-4.4-15.1-4.6-15.3c-0.1-0.1-0.3-0.2-0.5-0.1l-10.6,5.3c-0.1,0.1-0.2,0.2-0.2,0.3&#10;&#9;&#9;&#9;c0,0.1,0,0.3,0.1,0.4c1.8,1.8,5.6,6.5,0.6,12.8c-0.1,0.2-0.1,0.4,0,0.6c2.5,3,8.5,10.1,10,11.6c1.7,1.7,5.2,7,5.3,7.1&#10;&#9;&#9;&#9;c0.1,0.1,0.2,0.2,0.3,0.2c0.4,0.1,0.8,0.2,1.2,0.2c3.1,0,4.6-3,4.6-3.1C244.7,257.7,237,247.8,235.9,246.4z" id="HJyljEijCg7"/>
		<path d="M223.6,247.9c-2.7-0.4-5.1,0.8-5.4,2.7c-0.3,1.9,1.6,3.9,4.2,4.3c0.4,0.1,0.7,0.1,1.1,0.1&#10;&#9;&#9;&#9;c2.2,0,4-1.1,4.3-2.8c0,0,0,0,0,0C228.2,250.3,226.2,248.4,223.6,247.9z" id="rJggsVoiClX"/>
		<path d="M235.5,246.5c0.9-9.8-4.4-15.1-4.4-15.1l-3.7,1.8c1.9,2.4,6.7,9,4.6,13.3c0,0,7.6,8.5,7.2,22.1&#10;&#9;&#9;&#9;c1.7-0.7,2.6-2.5,2.6-2.5C244.4,257.2,235.5,246.5,235.5,246.5z" id="Bybls4jjAem"/>
		<path d="M120.5,272.2c0-0.1-0.1-0.3-0.2-0.4c-0.1-0.1-0.3-0.1-0.4,0c-2.1,0.8-7.1,1.9-10.6-3c0.7-1.9,0.5-3.8-0.8-4.7&#10;&#9;&#9;&#9;c-1.6-1.1-4.2-0.3-5.7,2c-0.4,0.6-0.7,1.3-0.9,1.9c-3.7,1-7.8,2-9,2.5c-2.3,0.8-8.6,1.7-8.6,1.7c-0.1,0-0.2,0.1-0.3,0.2&#10;&#9;&#9;&#9;c-2.5,3.1,0,6.5,0.1,6.6c6.6,6,18.9,3.5,20.6,3.1c4.3,2.5,8.2,3.2,11.1,3.2c2.8,0,4.6-0.6,4.7-0.6c0.2-0.1,0.3-0.2,0.3-0.4&#10;&#9;&#9;&#9;L120.5,272.2z" id="r1MlsNjiAgQ"/>
		<path d="M104.7,281.5c8.4,5.1,15.6,2.6,15.6,2.6l-0.1-4.1c-3,0.7-11,2.1-14-1.7c0,0-10.9,3.2-23-3.1&#10;&#9;&#9;&#9;c-0.1,1.9,1.1,3.4,1.1,3.4C91.2,284.8,104.7,281.5,104.7,281.5z" id="HJmliEssClX"/>
		<path d="M173,187.2c-0.1-0.3-0.2-0.8-0.9-1.3c-1.8-1.4-7-2.4-21,1.1c-15.7,3.9-28.5,17.7-34.7,25.5&#10;&#9;&#9;&#9;c-0.1,0.1-0.1,0.2-0.1,0.4c0,0.1,0.1,0.2,0.2,0.3c2.6,1.5,8.8,5.6,11.8,11c0.1,0.1,0.2,0.2,0.4,0.2c0.1,0,0.1,0,0.2,0&#10;&#9;&#9;&#9;c6.1-3.1,27-13.6,38.5-19.7c4.5-2.4,7.1-5.3,7.8-8.8C176.1,191.6,173.5,187.9,173,187.2z" id="SyNes4siAxm"/>
		<g id="SyrlsNoiRgm">
			<path d="M139.2,121.1l1.8,11.6c0,0,6.2,1.8,13.3-8l-2.7-13.3L139.2,121.1z" id="HyIeiEisClQ"/>
			<path d="M148.1,93.5c-4.4-2.7-12.5,2.7-12.5,2.7s-6.2,8-3.6,17.8c2.7,9.8,1.8,8.9,3.6,9.8c0.9,0.5,5-0.7,8.6-1.9&#10;&#9;&#9;&#9;&#9;c3.6-1.2,6-4.6,5.8-8.4l0-0.3c-0.1-1.1,0.5-2.3,1.5-2.8c0.4-0.2,0.7-0.5,1-0.9c0.7-1.2,0.8-2,0.5-2.5c0.9-1.3,1.8-2.9,2.1-4.6&#10;&#9;&#9;&#9;&#9;C156.1,98,152.6,96.2,148.1,93.5z" id="r1vesEoi0xm"/>
			<g id="HyOxsVijAlQ">
				<path d="M145.4,104.2l-0.9,1.8h2.7c0,0-1.4,3.4-0.9,2.7c1.8-2.7,7.1-6.2,7.1-1.8c0,4.4-4.4,4.4-4.4,4.4&#10;&#9;&#9;&#9;&#9;&#9;s1.8,5.3,2.7,5.3c0.9,0,3.6,0,4.4-0.9c0.9-0.9-0.9-0.9-0.9-1.8c0-0.9,0-0.9,2.7-1.8c2.7-0.9,0.9-1.8,0-1.8c-0.9,0-0.9-0.9,0-1.8&#10;&#9;&#9;&#9;&#9;&#9;c0.9-0.9,3.6-1.8,2.7-2.7c-0.9-0.9-1.8,0-1.8-0.9c0-0.9,2.7-4.4,2.7-5.3c0-0.9-1.8-1.8-3.6-1.8c-1.8,0-5.3-4.4-5.3-5.3&#10;&#9;&#9;&#9;&#9;&#9;c0-0.9,0.9-1.8,0-1.8c-0.9,0,0,0-2.7,0c-2.7,0-3.6-0.9-5.3-0.9c-1.8,0-2.7,1.8-2.7,1.8l-0.9-2.7l-4.4,2.7c0-1.8-0.9-2.7-0.9-2.7&#10;&#9;&#9;&#9;&#9;&#9;c0.9,0.9-1.8,2.7-2.7,4.4c-0.9,1.8,0,4.4,0.9,5c0.9,0.5,4.4-1.4,4.4-1.4s0,0.9,3.6-0.9c0,0,0,1.7,2.4,1.8c0.1,0,0.2,0,0.3,0&#10;&#9;&#9;&#9;&#9;&#9;c0,0-2.7,1.8-1.8,3.6C143.7,103.3,144.6,104.2,145.4,104.2z" id="BkKlsEooRlm"/>
				<path d="M151.7,117.1c-0.8,0-1.8-1.9-3.1-5.6c0-0.1,0-0.3,0.1-0.4c0.1-0.1,0.2-0.2,0.4-0.2c0.2,0,4-0.1,4-4&#10;&#9;&#9;&#9;&#9;&#9;c0-0.9-0.2-1.5-0.7-1.6c-1.3-0.4-4.3,1.7-5.6,3.6c-0.3,0.4-0.6,0.3-0.7,0.3c-0.4-0.2-0.5-0.2,0.5-2.7h-2c-0.2,0-0.3-0.1-0.4-0.2&#10;&#9;&#9;&#9;&#9;&#9;c-0.1-0.1-0.1-0.3,0-0.4l0.6-1.3c-0.8-0.3-1.6-1.2-2.4-2.8c-0.7-1.4,0.3-2.7,1.1-3.4c-1.2-0.3-1.7-1-1.9-1.5&#10;&#9;&#9;&#9;&#9;&#9;c-2.2,1.1-3,1-3.3,0.8c-1.1,0.6-3.6,1.8-4.5,1.3c-1.1-0.6-2.1-3.6-1.1-5.6c0.4-0.7,1-1.5,1.6-2.1c0.6-0.6,1.4-1.5,1.2-1.8&#10;&#9;&#9;&#9;&#9;&#9;c0,0,0,0,0,0l0,0c-0.2-0.2-0.2-0.5,0-0.6c0.2-0.2,0.5-0.2,0.6,0v0c0,0,0.1,0.1,0.1,0.1c0.2,0.3,0.7,1,0.9,2.1l3.8-2.3&#10;&#9;&#9;&#9;&#9;&#9;c0.1-0.1,0.3-0.1,0.4,0c0.1,0,0.2,0.1,0.3,0.3l0.6,1.8c0.5-0.6,1.3-1.2,2.5-1.2c0.9,0,1.5,0.2,2.2,0.4c0.8,0.2,1.7,0.5,3.1,0.5&#10;&#9;&#9;&#9;&#9;&#9;h2.7c0.3,0,0.6,0.1,0.7,0.3c0.2,0.3,0.1,0.7-0.1,1.1c-0.1,0.3-0.2,0.6-0.2,0.8c0.1,0.8,3.4,4.9,4.9,4.9c1.9,0,4,1,4,2.2&#10;&#9;&#9;&#9;&#9;&#9;c0,0.5-0.5,1.5-1.4,2.9c-0.5,0.8-1.3,2.1-1.3,2.4c0,0,0.1,0,0.1,0c0.4,0,1,0,1.5,0.6c0.3,0.3,0.3,0.6,0.3,0.8&#10;&#9;&#9;&#9;&#9;&#9;c-0.1,0.7-0.9,1.2-1.8,1.7c-0.5,0.3-0.9,0.6-1.2,0.8c-0.5,0.5-0.6,0.9-0.5,1c0,0,0.1,0.1,0.2,0.1c0.6,0,1.7,0.3,1.8,1.1&#10;&#9;&#9;&#9;&#9;&#9;c0.2,0.9-1.2,1.4-1.7,1.5c-2.4,0.8-2.4,0.8-2.4,1.4c0,0.1,0.2,0.3,0.4,0.4c0.3,0.2,0.6,0.4,0.7,0.8c0,0.4-0.3,0.7-0.4,0.8&#10;&#9;&#9;&#9;&#9;&#9;C155.5,117,153.3,117.1,151.7,117.1z M149.6,111.7c0.7,2.1,1.7,4.3,2.1,4.5c2.2,0,3.6-0.3,4.1-0.8c0,0,0.1-0.1,0.1-0.1&#10;&#9;&#9;&#9;&#9;&#9;c-0.1-0.1-0.2-0.1-0.3-0.2c-0.3-0.2-0.9-0.5-0.9-1.2c0-1.2,0.3-1.3,3-2.2c1-0.3,1.1-0.6,1.1-0.6c-0.1-0.1-0.6-0.3-1-0.3&#10;&#9;&#9;&#9;&#9;&#9;c-0.5,0-0.9-0.2-1-0.6c-0.2-0.5,0-1.3,0.7-1.9c0.3-0.3,0.9-0.7,1.4-1c0.5-0.3,1.3-0.8,1.3-1c-0.4-0.4-0.7-0.4-1-0.4&#10;&#9;&#9;&#9;&#9;&#9;c-0.3,0-1,0-1-0.9c0-0.5,0.5-1.5,1.4-2.9c0.5-0.8,1.3-2.1,1.3-2.4c0-0.5-1.5-1.3-3.1-1.3c-2,0-5.8-4.6-5.8-5.8&#10;&#9;&#9;&#9;&#9;&#9;c0-0.4,0.1-0.8,0.3-1.1c0-0.1,0.1-0.1,0.1-0.2l-2.6,0c-1.5,0-2.5-0.3-3.4-0.5c-0.7-0.2-1.2-0.4-2-0.4c-1.5,0-2.3,1.5-2.3,1.5&#10;&#9;&#9;&#9;&#9;&#9;c-0.1,0.2-0.2,0.3-0.4,0.2c-0.2,0-0.3-0.1-0.4-0.3l-0.7-2.1l-4,2.4c-0.1,0.1-0.3,0.1-0.4,0c-0.1-0.1-0.2-0.2-0.2-0.4&#10;&#9;&#9;&#9;&#9;&#9;c0-0.5-0.1-0.9-0.2-1.3c-0.3,0.4-0.7,0.9-1.1,1.3c-0.6,0.6-1.2,1.3-1.5,1.9c-0.8,1.6,0,4,0.8,4.4c0.4,0.2,2.4-0.6,4-1.4&#10;&#9;&#9;&#9;&#9;&#9;c0.1-0.1,0.3-0.1,0.4,0c0.1,0,0.1,0.1,0.2,0.2c0.2,0,0.9,0,3-1.1c0.1-0.1,0.3-0.1,0.4,0c0.1,0.1,0.2,0.2,0.2,0.4&#10;&#9;&#9;&#9;&#9;&#9;c0,0.1,0.1,1.2,2,1.3c0.1,0,0.2,0,0.3,0c0.2,0,0.4,0.1,0.4,0.3c0.1,0.2,0,0.4-0.2,0.5c0,0-2.3,1.6-1.6,3&#10;&#9;&#9;&#9;&#9;&#9;c0.8,1.6,1.6,2.4,2.3,2.4c0.2,0,0.3,0.1,0.4,0.2c0.1,0.1,0.1,0.3,0,0.4l-0.6,1.1h1.9c0.1,0,0.3,0.1,0.4,0.2&#10;&#9;&#9;&#9;&#9;&#9;c0.1,0.1,0.1,0.3,0,0.4c-0.1,0.2-0.2,0.4-0.2,0.6c1.6-1.5,3.7-2.8,5.1-2.3c0.6,0.2,1.4,0.8,1.4,2.5&#10;&#9;&#9;&#9;&#9;&#9;C153.9,110.7,150.9,111.5,149.6,111.7z M138.8,97.1C138.8,97.1,138.8,97.1,138.8,97.1C138.8,97.1,138.8,97.1,138.8,97.1z&#10;&#9;&#9;&#9;&#9;&#9; M138.8,97.1L138.8,97.1L138.8,97.1z" id="S1ceoEio0e7"/>
			</g>
		</g>
		<path d="M194.8,175.7l-7.7-4.6c-0.1-0.1-0.3-0.1-0.4,0c-0.1,0.1-0.2,0.2-0.2,0.3l-0.4,3.8c0,0.2,0.1,0.3,0.2,0.4&#10;&#9;&#9;&#9;l7.6,4.3c0.1,0,0.1,0.1,0.2,0.1c0.1,0,0.1,0,0.2,0c0.1-0.1,0.2-0.2,0.2-0.3c0.2-1.1,0.3-2.1,0.3-2.9c0.1-0.1,0.1-0.3,0.2-0.4&#10;&#9;&#9;&#9;l-0.4-0.2l0.4,0.2C195.1,176.1,195,175.8,194.8,175.7z" id="Byjli4oi0gm"/>
		<path d="M193,173.2c-2,0-3.6,1.6-3.6,3.6c0,2,1.6,3.6,3.6,3.6c2,0,3.6-1.6,3.6-3.6C196.6,174.8,195,173.2,193,173.2z" id="ByhxjNssAgQ"/>
		<path d="M181.7,135.2c-5.5-3.1-10.2-5.5-10.2-5.5c0,0,0,0,0,0c-0.5-0.2-11.1-5.5-14.8,1.1c-0.9,1.5-1.1,3.1-0.6,4.7&#10;&#9;&#9;&#9;c1.2,4.3,6.8,7.4,7.1,7.5l13.6,5.2c0.1,0,0.1,0,0.2,0c0.2,0,0.3-0.1,0.4-0.3l4.6-12.1C181.9,135.5,181.9,135.3,181.7,135.2z" id="rkaxj4jjAlm"/>
	</g></g>
	<g id="SkCljVojAeQ">
		<g id="SyyWi4is0gX">
			<ellipse cx="150" cy="36.2" rx="25.2" ry="24.1" id="BJe-sNiiCxm"/>
			<path d="M137,41.9c-0.4,1.7,0,3.4,1.1,4.6c1,1.2,2.5,1.8,4,1.8c0,0,0.1,0,0.1,0c0.4,2,2.1,3.6,4.3,3.6&#10;&#9;&#9;&#9;&#9;c1.4,0,2.7-0.7,3.5-1.8c0.8,1.1,2.1,1.8,3.5,1.8c2.2,0,3.9-1.6,4.3-3.6c0,0,0.1,0,0.1,0c1.5,0,3-0.6,4-1.8c1.1-1.3,1.5-3,1.1-4.6&#10;&#9;&#9;&#9;&#9;c1.2-1,2-2.5,2-4.1c0-1.8-1-3.5-2.5-4.5c0.4-0.8,0.7-1.7,0.7-2.6c0-2.9-2.4-5.3-5.3-5.3c0,0-0.1,0-0.1,0c-0.4-2-2.1-3.6-4.3-3.6&#10;&#9;&#9;&#9;&#9;c-1.4,0-2.7,0.7-3.5,1.8c-0.8-1.1-2.1-1.8-3.5-1.8c-2.2,0-3.9,1.6-4.3,3.6c-1.8,0-3.5,0.8-4.5,2.4c-1,1.5-1.2,3.6-0.2,5.5&#10;&#9;&#9;&#9;&#9;c-1.5,1-2.5,2.6-2.5,4.4C135,39.5,135.8,41,137,41.9z M153.5,23.8c1.4,0,2.6,1.2,2.6,2.7c0,1.5-1.2,2.6-2.6,2.6&#10;&#9;&#9;&#9;&#9;c-0.5,0-0.9,0.4-0.9,0.9c0,0.5,0.4,0.9,0.9,0.9c2.1,0,3.9-1.5,4.3-3.5c0,0,0.1,0,0.1,0c1.9,0,3.5,1.6,3.5,3.5&#10;&#9;&#9;&#9;&#9;c0,0.7-0.2,1.3-0.6,1.9c-0.4-0.1-0.8-0.1-1.2-0.1c-0.5,0-0.9,0.4-0.9,0.9c0,0.5,0.4,0.9,0.9,0.9c2,0,3.6,1.6,3.6,3.5&#10;&#9;&#9;&#9;&#9;c0,1.7-1.2,3.1-2.9,3.4c-0.5,0.1-0.8,0.6-0.7,1c0.1,0.5,0.6,0.8,1,0.7c0.2,0,0.5-0.1,0.7-0.2c0.1,0.9-0.2,1.9-0.8,2.6&#10;&#9;&#9;&#9;&#9;c-0.7,0.8-1.7,1.2-2.8,1.2c-0.4-2-2.2-3.5-4.3-3.5c-0.5,0-0.9,0.4-0.9,0.9c0,0.5,0.4,0.9,0.9,0.9c1.5,0,2.6,1.2,2.6,2.6&#10;&#9;&#9;&#9;&#9;c0,1.5-1.2,2.7-2.6,2.7c-1.4,0-2.6-1.2-2.6-2.7v-6.2c1.9-0.2,3.7-1.1,5-2.6c0.8,0.6,1.8,0.9,2.9,0.9c0.5,0,0.9-0.4,0.9-0.9&#10;&#9;&#9;&#9;&#9;c0-0.5-0.4-0.9-0.9-0.9c-1.9,0-3.5-1.6-3.5-3.5c0-0.5-0.4-0.9-0.9-0.9s-0.9,0.4-0.9,0.9c0,1.2,0.4,2.3,1.1,3.2&#10;&#9;&#9;&#9;&#9;c-1,1.1-2.3,1.8-3.7,2V26.5C150.9,25,152.1,23.8,153.5,23.8z M140.3,34.4c0.5,0,0.9-0.4,0.9-0.9c0-0.5-0.4-0.9-0.9-0.9&#10;&#9;&#9;&#9;&#9;c-0.4,0-0.9,0.1-1.3,0.2c-0.7-1.3-0.7-2.7,0.1-3.8c0.7-1,1.8-1.6,3-1.6c0.4,2,2.2,3.5,4.3,3.5c0.5,0,0.9-0.4,0.9-0.9&#10;&#9;&#9;&#9;&#9;c0-0.5-0.4-0.9-0.9-0.9c-1.5,0-2.6-1.2-2.6-2.6c0-1.5,1.2-2.7,2.6-2.7s2.6,1.2,2.6,2.7v13.1c-1.4-0.2-2.8-0.9-3.7-2&#10;&#9;&#9;&#9;&#9;c0.7-0.9,1.1-2,1.1-3.2c0-0.5-0.4-0.9-0.9-0.9c-0.5,0-0.9,0.4-0.9,0.9c0,1.9-1.6,3.5-3.5,3.5c-0.5,0-0.9,0.4-0.9,0.9&#10;&#9;&#9;&#9;&#9;c0,0.5,0.4,0.9,0.9,0.9c1.1,0,2.1-0.3,2.9-0.9c1.3,1.4,3.1,2.4,5,2.6v6.2c0,1.5-1.2,2.7-2.6,2.7s-2.6-1.2-2.6-2.7&#10;&#9;&#9;&#9;&#9;c0-1.5,1.2-2.6,2.6-2.6c0.5,0,0.9-0.4,0.9-0.9c0-0.5-0.4-0.9-0.9-0.9c-2.1,0-3.9,1.5-4.3,3.5c-1.1,0-2.1-0.4-2.8-1.2&#10;&#9;&#9;&#9;&#9;c-0.6-0.7-0.9-1.6-0.8-2.6c0.2,0.1,0.7,0.2,0.9,0.2c0.4,0,0.8-0.3,0.9-0.7c0.1-0.5-0.2-0.9-0.7-1c-1.7-0.3-2.9-1.8-2.9-3.4&#10;&#9;&#9;&#9;&#9;C136.8,35.9,138.4,34.4,140.3,34.4z" id="ByZbiVoi0xX"/>
		</g>
		<path d="M146.3,91.9l4-38.2l-2.2-0.2l-4,38.2c-2.2,0.3-3.8,2.2-3.8,4.4c0,2.5,2,4.5,4.5,4.5s4.5-2,4.5-4.5&#10;&#9;&#9;&#9;C149.3,94.2,148,92.6,146.3,91.9z" id="BkGZjNoo0gQ"/>
	</g>
	<g id="r1Q-s4isAgX">
		<g id="rJEWoEisAem">
			<ellipse cx="258.5" cy="89.4" rx="25.2" ry="24.1" id="S1S-jNosRlm"/>
			<path d="M259,89.8h-12c-0.5,0-0.9-0.3-1.1-0.7c-0.2-0.4-0.1-0.9,0.3-1.3l10-9.9h-9.2c-0.6,0-1.2-0.5-1.2-1.2&#10;&#9;&#9;&#9;&#9;c0-0.6,0.5-1.2,1.2-1.2h12c0.5,0,0.9,0.3,1.1,0.7c0.2,0.4,0.1,0.9-0.3,1.3l-10,9.9h9.2c0.6,0,1.2,0.5,1.2,1.2&#10;&#9;&#9;&#9;&#9;C260.1,89.3,259.6,89.8,259,89.8L259,89.8z M272.5,92.2h-5.7l6.5-6.4c0.3-0.3,0.4-0.8,0.3-1.3c-0.2-0.4-0.6-0.7-1.1-0.7h-8.5&#10;&#9;&#9;&#9;&#9;c-0.6,0-1.2,0.5-1.2,1.2c0,0.6,0.5,1.2,1.2,1.2h5.7l-6.5,6.4c-0.3,0.3-0.4,0.8-0.3,1.3c0.2,0.4,0.6,0.7,1.1,0.7h8.5&#10;&#9;&#9;&#9;&#9;c0.6,0,1.2-0.5,1.2-1.2C273.6,92.7,273.1,92.2,272.5,92.2L272.5,92.2z M259.4,102h-4l4.8-4.7c0.3-0.3,0.4-0.8,0.3-1.3&#10;&#9;&#9;&#9;&#9;c-0.2-0.4-0.6-0.7-1.1-0.7h-6.8c-0.6,0-1.2,0.5-1.2,1.2c0,0.6,0.5,1.2,1.2,1.2h4l-4.8,4.7c-0.3,0.3-0.4,0.8-0.3,1.3&#10;&#9;&#9;&#9;&#9;c0.2,0.4,0.6,0.7,1.1,0.7h6.8c0.6,0,1.2-0.5,1.2-1.2C260.5,102.6,260,102,259.4,102L259.4,102z M259.4,102" id="Sy8Zi4ii0lX"/>
		</g>
		<path d="M240.6,98.7l-0.6-2.1l-82.4,24.9c-0.8-1.3-2.2-2.2-3.8-2.2c-2.5,0-4.5,2-4.5,4.5c0,2.5,2,4.5,4.5,4.5&#10;&#9;&#9;&#9;c2.5,0,4.5-2,4.5-4.5c0-0.1,0-0.1,0-0.2L240.6,98.7z" id="ByvZsNjjCl7"/>
	</g>
	<g id="r1dZiVosRg7">
		<g id="S1KZsVjsAxQ">
			<ellipse cx="268.8" cy="193.1" rx="25.2" ry="24.1" id="rJcbiEjsCxQ"/>
			<g id="HJi-oNisReQ">
				<path d="M279.5,190.4c-5.5-1.8-6.4,4.1-6.4,4.1c-3.7-3.9-6.4-3.6-8.1-2.7l0.3-6.4c1.6,0.5,4.5,1.2,6,0&#10;&#9;&#9;&#9;&#9;&#9;c2.3-1.8,0-3.2-1.4-5.5c-1.4-2.3-6.8,0-6.8,0s-5,7.7-6.4,9.5c-1.4,1.8-3.2,6.8-2.7,9.5c0.3,2,3.6,2.5,5.3,2.7&#10;&#9;&#9;&#9;&#9;&#9;c0.9,1.1,2.8,2.1,6.5,2.8c10,1.8,15-5,16.4-6.8C283.6,195.9,284.9,192.2,279.5,190.4z" id="BJ3WoVisClQ"/>
			</g>
		</g>
		<path d="M253.8,184.9l-63.7-37.1c0.1-0.3,0.1-0.7,0.1-1.1c0-2.5-2-4.5-4.5-4.5c-2.5,0-4.5,2-4.5,4.5&#10;&#9;&#9;&#9;c0,2.5,2,4.5,4.5,4.5c1.3,0,2.5-0.6,3.3-1.4l63.7,37.1L253.8,184.9z" id="B1pZoNoj0l7"/>
	</g>
	<g id="HkCZsNsoAeX">
		<ellipse cx="31.2" cy="224.7" rx="25.2" ry="24.1" id="By1MjVssRl7"/>
		<path d="M41.8,216.2c-0.3,0-0.6,0-0.9,0.1c0.2-0.5,0.3-1,0.3-1.6c0-2.2-1.7-4-3.8-4c-2.1,0-3.8,1.8-3.8,4&#10;&#9;&#9;&#9;c0,1.4,0.7,2.7,1.8,3.4c-1.8,2.6-6.5,8.9-10.8,10.1c-0.7-0.7-1.7-1.1-2.7-1.1c-2.1,0-3.8,1.6-3.8,3.6c0,2,1.7,3.6,3.8,3.6&#10;&#9;&#9;&#9;c0.2,0,0.4,0,0.5,0c-0.1,0.3-0.1,0.6-0.1,0.9c0,2.1,1.9,3.8,4.2,3.8s4.2-1.7,4.2-3.8c0-1.5-0.9-2.7-2.3-3.4&#10;&#9;&#9;&#9;c3.2-4.3,7.8-7.6,10.4-9.2c0.7,0.8,1.8,1.3,3,1.3c2.2,0,4-1.7,4-3.8C45.8,217.9,44,216.2,41.8,216.2z M38.1,218.7L38.1,218.7&#10;&#9;&#9;&#9;c0-0.1,0-0.1,0-0.1C38.1,218.6,38.1,218.7,38.1,218.7z" id="HklMi4joAgX"/>
		<path d="M115.7,235.6c-2,0-3.7,1.3-4.3,3.2L49,231.2l-0.3,2.2l62.5,7.6c0.4,2,2.2,3.6,4.4,3.6c2.5,0,4.5-2,4.5-4.5&#10;&#9;&#9;&#9;C120.2,237.6,118.2,235.6,115.7,235.6z" id="rJ-MsVsoAgX"/>
	</g>
	<g id="ryffi4ji0lQ">
		<ellipse cx="31.8" cy="103.1" rx="25.2" ry="24.1" id="BJmfiNooAg7"/>
		<path d="M46.3,101.2c0-4.4-3.6-8-8-8c-3,0-5.5,1.6-6.9,4c-1.4-2.4-4-4-6.9-4c-4.4,0-8,3.6-8,8c0,2.8,1.4,5.2,3.5,6.6&#10;&#9;&#9;&#9;l0,0l11.3,9.8l11.3-9.8l0,0C44.9,106.4,46.3,103.9,46.3,101.2z" id="BJ4fsEojAg7"/>
		<path d="M147,140.9c-1.7,0-3.2,1-4,2.4l-93.8-32.9l-0.7,2.1l94,33c0.1,2.4,2,4.4,4.5,4.4c2.5,0,4.5-2,4.5-4.5&#10;&#9;&#9;&#9;C151.5,142.9,149.5,140.9,147,140.9z" id="B1Hfs4jiAxX"/>
	</g>
</g>
<script>(function(){var a=document.querySelector('#S1EjEsoReQ'),b=a.querySelectorAll('style'),c=function(d){b.forEach(function(f){var g=f.textContent;g&amp;&amp;(f.textContent=g.replace(/transform-box:[^;\r\n]*/gi,'transform-box: '+d))})};c('initial'),window.requestAnimationFrame(function(){return c('fill-box')})})();</script></svg>
