<svg style="width: 80%;" version="1.1" id="BkJzRqTxX" xmlns="http://www.w3.org/2000/svg" xmlns:xlink="http://www.w3.org/1999/xlink" x="0px" y="0px" viewBox="0 0 300 300" style="enable-background:new 0 0 300 300;" xml:space="preserve"><style>@-webkit-keyframes H19qkfR9TxQ_BJhVVoagX_Animation{0%{-webkit-transform: translate(0px, 0px);transform: translate(0px, 0px);}18.89%{-webkit-transform: translate(0px, 350px);transform: translate(0px, 350px);}21.11%{-webkit-transform: translate(0px, 340px);transform: translate(0px, 340px);}23.33%{-webkit-transform: translate(0px, 350px);transform: translate(0px, 350px);}100%{-webkit-transform: translate(0px, 350px);transform: translate(0px, 350px);}}@keyframes H19qkfR9TxQ_BJhVVoagX_Animation{0%{-webkit-transform: translate(0px, 0px);transform: translate(0px, 0px);}18.89%{-webkit-transform: translate(0px, 350px);transform: translate(0px, 350px);}21.11%{-webkit-transform: translate(0px, 340px);transform: translate(0px, 340px);}23.33%{-webkit-transform: translate(0px, 350px);transform: translate(0px, 350px);}100%{-webkit-transform: translate(0px, 350px);transform: translate(0px, 350px);}}@-webkit-keyframes HJ4vkfA5pgm_Hk6Z4oTx7_Animation{0%{-webkit-transform: translate(0px, 0px);transform: translate(0px, 0px);}16.67%{-webkit-transform: translate(0px, 350px);transform: translate(0px, 350px);}20%{-webkit-transform: translate(0px, 340px);transform: translate(0px, 340px);}22.22%{-webkit-transform: translate(0px, 350px);transform: translate(0px, 350px);}100%{-webkit-transform: translate(0px, 350px);transform: translate(0px, 350px);}}@keyframes HJ4vkfA5pgm_Hk6Z4oTx7_Animation{0%{-webkit-transform: translate(0px, 0px);transform: translate(0px, 0px);}16.67%{-webkit-transform: translate(0px, 350px);transform: translate(0px, 350px);}20%{-webkit-transform: translate(0px, 340px);transform: translate(0px, 340px);}22.22%{-webkit-transform: translate(0px, 350px);transform: translate(0px, 350px);}100%{-webkit-transform: translate(0px, 350px);transform: translate(0px, 350px);}}@-webkit-keyframes S1R7JGR9plX_rkz1NiTgm_Animation{0%{-webkit-transform: translate(0px, 0px);transform: translate(0px, 0px);}16.67%{-webkit-transform: translate(0px, 350px);transform: translate(0px, 350px);}20%{-webkit-transform: translate(0px, 340px);transform: translate(0px, 340px);}22.22%{-webkit-transform: translate(0px, 350px);transform: translate(0px, 350px);}100%{-webkit-transform: translate(0px, 350px);transform: translate(0px, 350px);}}@keyframes S1R7JGR9plX_rkz1NiTgm_Animation{0%{-webkit-transform: translate(0px, 0px);transform: translate(0px, 0px);}16.67%{-webkit-transform: translate(0px, 350px);transform: translate(0px, 350px);}20%{-webkit-transform: translate(0px, 340px);transform: translate(0px, 340px);}22.22%{-webkit-transform: translate(0px, 350px);transform: translate(0px, 350px);}100%{-webkit-transform: translate(0px, 350px);transform: translate(0px, 350px);}}@-webkit-keyframes BJYm1zRqaeQ_r1KYXipgX_Animation{0%{-webkit-transform: translate(0px, 0px);transform: translate(0px, 0px);}15.56%{-webkit-transform: translate(0px, 350px);transform: translate(0px, 350px);}18.89%{-webkit-transform: translate(0px, 340px);transform: translate(0px, 340px);}21.11%{-webkit-transform: translate(0px, 350px);transform: translate(0px, 350px);}100%{-webkit-transform: translate(0px, 350px);transform: translate(0px, 350px);}}@keyframes BJYm1zRqaeQ_r1KYXipgX_Animation{0%{-webkit-transform: translate(0px, 0px);transform: translate(0px, 0px);}15.56%{-webkit-transform: translate(0px, 350px);transform: translate(0px, 350px);}18.89%{-webkit-transform: translate(0px, 340px);transform: translate(0px, 340px);}21.11%{-webkit-transform: translate(0px, 350px);transform: translate(0px, 350px);}100%{-webkit-transform: translate(0px, 350px);transform: translate(0px, 350px);}}@-webkit-keyframes SJvX1f0cplX_H1pUXjaeX_Animation{0%{-webkit-transform: translate(0px, 0px);transform: translate(0px, 0px);}15.56%{-webkit-transform: translate(0px, 350px);transform: translate(0px, 350px);}18.89%{-webkit-transform: translate(0px, 335px);transform: translate(0px, 335px);}21.11%{-webkit-transform: translate(0px, 350px);transform: translate(0px, 350px);}100%{-webkit-transform: translate(0px, 350px);transform: translate(0px, 350px);}}@keyframes SJvX1f0cplX_H1pUXjaeX_Animation{0%{-webkit-transform: translate(0px, 0px);transform: translate(0px, 0px);}15.56%{-webkit-transform: translate(0px, 350px);transform: translate(0px, 350px);}18.89%{-webkit-transform: translate(0px, 335px);transform: translate(0px, 335px);}21.11%{-webkit-transform: translate(0px, 350px);transform: translate(0px, 350px);}100%{-webkit-transform: translate(0px, 350px);transform: translate(0px, 350px);}}@-webkit-keyframes ryHXkMR5pem_BJBmXjagQ_Animation{0%{-webkit-transform: translate(0px, 0px);transform: translate(0px, 0px);}17.78%{-webkit-transform: translate(0px, 350px);transform: translate(0px, 350px);}20%{-webkit-transform: translate(0px, 340px);transform: translate(0px, 340px);}22.22%{-webkit-transform: translate(0px, 350px);transform: translate(0px, 350px);}100%{-webkit-transform: translate(0px, 350px);transform: translate(0px, 350px);}}@keyframes ryHXkMR5pem_BJBmXjagQ_Animation{0%{-webkit-transform: translate(0px, 0px);transform: translate(0px, 0px);}17.78%{-webkit-transform: translate(0px, 350px);transform: translate(0px, 350px);}20%{-webkit-transform: translate(0px, 340px);transform: translate(0px, 340px);}22.22%{-webkit-transform: translate(0px, 350px);transform: translate(0px, 350px);}100%{-webkit-transform: translate(0px, 350px);transform: translate(0px, 350px);}}@-webkit-keyframes Sk9zkz0cal7_HkRgmipxX_Animation{0%{-webkit-transform: translate(0px, 0px);transform: translate(0px, 0px);}16.67%{-webkit-transform: translate(0px, 350px);transform: translate(0px, 350px);}20%{-webkit-transform: translate(0px, 340px);transform: translate(0px, 340px);}24.44%{-webkit-transform: translate(0px, 350px);transform: translate(0px, 350px);}100%{-webkit-transform: translate(0px, 350px);transform: translate(0px, 350px);}}@keyframes Sk9zkz0cal7_HkRgmipxX_Animation{0%{-webkit-transform: translate(0px, 0px);transform: translate(0px, 0px);}16.67%{-webkit-transform: translate(0px, 350px);transform: translate(0px, 350px);}20%{-webkit-transform: translate(0px, 340px);transform: translate(0px, 340px);}24.44%{-webkit-transform: translate(0px, 350px);transform: translate(0px, 350px);}100%{-webkit-transform: translate(0px, 350px);transform: translate(0px, 350px);}}@-webkit-keyframes B1OfkGA9pxm_HkVPGs6xQ_Animation{0%{-webkit-transform: translate(0px, 0px);transform: translate(0px, 0px);}18.89%{-webkit-transform: translate(0px, 350px);transform: translate(0px, 350px);}22.22%{-webkit-transform: translate(0px, 330px);transform: translate(0px, 330px);}25.56%{-webkit-transform: translate(0px, 350px);transform: translate(0px, 350px);}100%{-webkit-transform: translate(0px, 350px);transform: translate(0px, 350px);}}@keyframes B1OfkGA9pxm_HkVPGs6xQ_Animation{0%{-webkit-transform: translate(0px, 0px);transform: translate(0px, 0px);}18.89%{-webkit-transform: translate(0px, 350px);transform: translate(0px, 350px);}22.22%{-webkit-transform: translate(0px, 330px);transform: translate(0px, 330px);}25.56%{-webkit-transform: translate(0px, 350px);transform: translate(0px, 350px);}100%{-webkit-transform: translate(0px, 350px);transform: translate(0px, 350px);}}@-webkit-keyframes SJ7zkz0c6lQ_r17SMj6gQ_Animation{0%{-webkit-transform: translate(0px, 0px);transform: translate(0px, 0px);}14.44%{-webkit-transform: translate(0px, 350px);transform: translate(0px, 350px);}17.78%{-webkit-transform: translate(0px, 340px);transform: translate(0px, 340px);}21.11%{-webkit-transform: translate(0px, 350px);transform: translate(0px, 350px);}100%{-webkit-transform: translate(0px, 350px);transform: translate(0px, 350px);}}@keyframes SJ7zkz0c6lQ_r17SMj6gQ_Animation{0%{-webkit-transform: translate(0px, 0px);transform: translate(0px, 0px);}14.44%{-webkit-transform: translate(0px, 350px);transform: translate(0px, 350px);}17.78%{-webkit-transform: translate(0px, 340px);transform: translate(0px, 340px);}21.11%{-webkit-transform: translate(0px, 350px);transform: translate(0px, 350px);}100%{-webkit-transform: translate(0px, 350px);transform: translate(0px, 350px);}}@-webkit-keyframes B1CWJzC96x7_rksbMjplm_Animation{0%{-webkit-transform: translate(0px, 0px);transform: translate(0px, 0px);}15.56%{-webkit-transform: translate(0px, 350px);transform: translate(0px, 350px);}18.89%{-webkit-transform: translate(0px, 340px);transform: translate(0px, 340px);}22.22%{-webkit-transform: translate(0px, 350px);transform: translate(0px, 350px);}100%{-webkit-transform: translate(0px, 350px);transform: translate(0px, 350px);}}@keyframes B1CWJzC96x7_rksbMjplm_Animation{0%{-webkit-transform: translate(0px, 0px);transform: translate(0px, 0px);}15.56%{-webkit-transform: translate(0px, 350px);transform: translate(0px, 350px);}18.89%{-webkit-transform: translate(0px, 340px);transform: translate(0px, 340px);}22.22%{-webkit-transform: translate(0px, 350px);transform: translate(0px, 350px);}100%{-webkit-transform: translate(0px, 350px);transform: translate(0px, 350px);}}@-webkit-keyframes ByvbyMCqTgX_r1vtZsTxX_Animation{0%{-webkit-transform: translate(0px, 0px);transform: translate(0px, 0px);}14.44%{-webkit-transform: translate(0px, 350px);transform: translate(0px, 350px);}17.78%{-webkit-transform: translate(0px, 310px);transform: translate(0px, 310px);}24.44%{-webkit-transform: translate(0px, 350px);transform: translate(0px, 350px);}100%{-webkit-transform: translate(0px, 350px);transform: translate(0px, 350px);}}@keyframes ByvbyMCqTgX_r1vtZsTxX_Animation{0%{-webkit-transform: translate(0px, 0px);transform: translate(0px, 0px);}14.44%{-webkit-transform: translate(0px, 350px);transform: translate(0px, 350px);}17.78%{-webkit-transform: translate(0px, 310px);transform: translate(0px, 310px);}24.44%{-webkit-transform: translate(0px, 350px);transform: translate(0px, 350px);}100%{-webkit-transform: translate(0px, 350px);transform: translate(0px, 350px);}}@-webkit-keyframes ByrW1MRcalQ_HJyvZoTeQ_Animation{0%{-webkit-transform: translate(0px, 0px);transform: translate(0px, 0px);}14.44%{-webkit-transform: translate(0px, 350px);transform: translate(0px, 350px);}17.78%{-webkit-transform: translate(0px, 320px);transform: translate(0px, 320px);}21.11%{-webkit-transform: translate(0px, 350px);transform: translate(0px, 350px);}100%{-webkit-transform: translate(0px, 350px);transform: translate(0px, 350px);}}@keyframes ByrW1MRcalQ_HJyvZoTeQ_Animation{0%{-webkit-transform: translate(0px, 0px);transform: translate(0px, 0px);}14.44%{-webkit-transform: translate(0px, 350px);transform: translate(0px, 350px);}17.78%{-webkit-transform: translate(0px, 320px);transform: translate(0px, 320px);}21.11%{-webkit-transform: translate(0px, 350px);transform: translate(0px, 350px);}100%{-webkit-transform: translate(0px, 350px);transform: translate(0px, 350px);}}@-webkit-keyframes Syf-1fAcplQ_ByZNZiTe7_Animation{0%{-webkit-transform: translate(0px, 0px);transform: translate(0px, 0px);}13.33%{-webkit-transform: translate(0px, 350px);transform: translate(0px, 350px);}16.67%{-webkit-transform: translate(0px, 340px);transform: translate(0px, 340px);}18.89%{-webkit-transform: translate(0px, 350px);transform: translate(0px, 350px);}100%{-webkit-transform: translate(0px, 350px);transform: translate(0px, 350px);}}@keyframes Syf-1fAcplQ_ByZNZiTe7_Animation{0%{-webkit-transform: translate(0px, 0px);transform: translate(0px, 0px);}13.33%{-webkit-transform: translate(0px, 350px);transform: translate(0px, 350px);}16.67%{-webkit-transform: translate(0px, 340px);transform: translate(0px, 340px);}18.89%{-webkit-transform: translate(0px, 350px);transform: translate(0px, 350px);}100%{-webkit-transform: translate(0px, 350px);transform: translate(0px, 350px);}}@-webkit-keyframes rykWkG0cpeQ_H1eZWsaem_Animation{0%{-webkit-transform: translate(0px, 0px);transform: translate(0px, 0px);}16.67%{-webkit-transform: translate(0px, 350px);transform: translate(0px, 350px);}18.89%{-webkit-transform: translate(0px, 340px);transform: translate(0px, 340px);}21.11%{-webkit-transform: translate(0px, 350px);transform: translate(0px, 350px);}100%{-webkit-transform: translate(0px, 350px);transform: translate(0px, 350px);}}@keyframes rykWkG0cpeQ_H1eZWsaem_Animation{0%{-webkit-transform: translate(0px, 0px);transform: translate(0px, 0px);}16.67%{-webkit-transform: translate(0px, 350px);transform: translate(0px, 350px);}18.89%{-webkit-transform: translate(0px, 340px);transform: translate(0px, 340px);}21.11%{-webkit-transform: translate(0px, 350px);transform: translate(0px, 350px);}100%{-webkit-transform: translate(0px, 350px);transform: translate(0px, 350px);}}@-webkit-keyframes B1hkzC5ag7_r1spljpeX_Animation{0%{-webkit-transform: translate(0px, 0px);transform: translate(0px, 0px);}15.56%{-webkit-transform: translate(0px, 350px);transform: translate(0px, 350px);}17.78%{-webkit-transform: translate(0px, 340px);transform: translate(0px, 340px);}21.11%{-webkit-transform: translate(0px, 350px);transform: translate(0px, 350px);}100%{-webkit-transform: translate(0px, 350px);transform: translate(0px, 350px);}}@keyframes B1hkzC5ag7_r1spljpeX_Animation{0%{-webkit-transform: translate(0px, 0px);transform: translate(0px, 0px);}15.56%{-webkit-transform: translate(0px, 350px);transform: translate(0px, 350px);}17.78%{-webkit-transform: translate(0px, 340px);transform: translate(0px, 340px);}21.11%{-webkit-transform: translate(0px, 350px);transform: translate(0px, 350px);}100%{-webkit-transform: translate(0px, 350px);transform: translate(0px, 350px);}}@-webkit-keyframes S15JzC96lX_ByCIxopxm_Animation{0%{-webkit-transform: translate(0px, 0px);transform: translate(0px, 0px);}14.44%{-webkit-transform: translate(0px, 350px);transform: translate(0px, 350px);}16.67%{-webkit-transform: translate(0px, 340px);transform: translate(0px, 340px);}20%{-webkit-transform: translate(0px, 350px);transform: translate(0px, 350px);}100%{-webkit-transform: translate(0px, 350px);transform: translate(0px, 350px);}}@keyframes S15JzC96lX_ByCIxopxm_Animation{0%{-webkit-transform: translate(0px, 0px);transform: translate(0px, 0px);}14.44%{-webkit-transform: translate(0px, 350px);transform: translate(0px, 350px);}16.67%{-webkit-transform: translate(0px, 340px);transform: translate(0px, 340px);}20%{-webkit-transform: translate(0px, 350px);transform: translate(0px, 350px);}100%{-webkit-transform: translate(0px, 350px);transform: translate(0px, 350px);}}@-webkit-keyframes SyvkzC9TxQ_S1Ybgjagm_Animation{0%{-webkit-transform: translate(0px, -350px);transform: translate(0px, -350px);}13.33%{-webkit-transform: translate(0px, 350px);transform: translate(0px, 350px);}16.67%{-webkit-transform: translate(0px, 340px);transform: translate(0px, 340px);}20%{-webkit-transform: translate(0px, 350px);transform: translate(0px, 350px);}100%{-webkit-transform: translate(0px, 350px);transform: translate(0px, 350px);}}@keyframes SyvkzC9TxQ_S1Ybgjagm_Animation{0%{-webkit-transform: translate(0px, -350px);transform: translate(0px, -350px);}13.33%{-webkit-transform: translate(0px, 350px);transform: translate(0px, 350px);}16.67%{-webkit-transform: translate(0px, 340px);transform: translate(0px, 340px);}20%{-webkit-transform: translate(0px, 350px);transform: translate(0px, 350px);}100%{-webkit-transform: translate(0px, 350px);transform: translate(0px, 350px);}}@-webkit-keyframes BkryGCqagX_BJQ6yspx7_Animation{0%{-webkit-transform: translate(0px, 0px);transform: translate(0px, 0px);}13.33%{-webkit-transform: translate(0px, 350px);transform: translate(0px, 350px);}16.67%{-webkit-transform: translate(0px, 340px);transform: translate(0px, 340px);}20%{-webkit-transform: translate(0px, 350px);transform: translate(0px, 350px);}100%{-webkit-transform: translate(0px, 350px);transform: translate(0px, 350px);}}@keyframes BkryGCqagX_BJQ6yspx7_Animation{0%{-webkit-transform: translate(0px, 0px);transform: translate(0px, 0px);}13.33%{-webkit-transform: translate(0px, 350px);transform: translate(0px, 350px);}16.67%{-webkit-transform: translate(0px, 340px);transform: translate(0px, 340px);}20%{-webkit-transform: translate(0px, 350px);transform: translate(0px, 350px);}100%{-webkit-transform: translate(0px, 350px);transform: translate(0px, 350px);}}@-webkit-keyframes BJQJzAcaxQ_rJJqkopl7_Animation{0%{-webkit-transform: translate(0px, 0px);transform: translate(0px, 0px);}14.44%{-webkit-transform: translate(0px, 350px);transform: translate(0px, 350px);}16.67%{-webkit-transform: translate(0px, 340px);transform: translate(0px, 340px);}20%{-webkit-transform: translate(0px, 350px);transform: translate(0px, 350px);}100%{-webkit-transform: translate(0px, 350px);transform: translate(0px, 350px);}}@keyframes BJQJzAcaxQ_rJJqkopl7_Animation{0%{-webkit-transform: translate(0px, 0px);transform: translate(0px, 0px);}14.44%{-webkit-transform: translate(0px, 350px);transform: translate(0px, 350px);}16.67%{-webkit-transform: translate(0px, 340px);transform: translate(0px, 340px);}20%{-webkit-transform: translate(0px, 350px);transform: translate(0px, 350px);}100%{-webkit-transform: translate(0px, 350px);transform: translate(0px, 350px);}}@-webkit-keyframes SJ-JMA9peQ_BkT1yjTgQ_Animation{0%{-webkit-transform: translate(0px, 0px);transform: translate(0px, 0px);}13.33%{-webkit-transform: translate(0px, 350px);transform: translate(0px, 350px);}16.67%{-webkit-transform: translate(0px, 340px);transform: translate(0px, 340px);}20%{-webkit-transform: translate(0px, 350px);transform: translate(0px, 350px);}100%{-webkit-transform: translate(0px, 350px);transform: translate(0px, 350px);}}@keyframes SJ-JMA9peQ_BkT1yjTgQ_Animation{0%{-webkit-transform: translate(0px, 0px);transform: translate(0px, 0px);}13.33%{-webkit-transform: translate(0px, 350px);transform: translate(0px, 350px);}16.67%{-webkit-transform: translate(0px, 340px);transform: translate(0px, 340px);}20%{-webkit-transform: translate(0px, 350px);transform: translate(0px, 350px);}100%{-webkit-transform: translate(0px, 350px);transform: translate(0px, 350px);}}@-webkit-keyframes r1gJfCqpx7_HyfTRqpg7_Animation{0%{-webkit-transform: translate(0px, -350px);transform: translate(0px, -350px);}100%{-webkit-transform: translate(0px, -350px);transform: translate(0px, -350px);}}@keyframes r1gJfCqpx7_HyfTRqpg7_Animation{0%{-webkit-transform: translate(0px, -350px);transform: translate(0px, -350px);}100%{-webkit-transform: translate(0px, -350px);transform: translate(0px, -350px);}}#BkJzRqTxX *{-webkit-animation-duration: 3s;animation-duration: 3s;-webkit-animation-play-state: running;animation-play-state: running;-webkit-animation-timing-function: cubic-bezier(0, 0, 1, 1);animation-timing-function: cubic-bezier(0, 0, 1, 1);}#rkfyzCq6xQ{fill: #EC8B2D;}#rkVkGAcae7{fill: #F2AF71;}#SkUyz09ae7{fill: #F2AF71;}#SJK1MA5TlX{fill: #E46D00;}#Hkj1G09peQ{fill: #6A3224;}#HkAJG05pem{fill: #8E5132;}#rJee1zR9pgm{fill: #8E5132;}#rkMlkzR9Tx7{fill: #8E5132;}#r1Vl1M05Tg7{fill: #8E5132;}#Sy8gJMAcplX{fill: #8E5132;}#H1Ox1MRcaeQ{fill: #8E5132;}#H15gyfR9axQ{fill: #8E5132;}#Hyng1fRqpxX{fill: #8E5132;}#By0lJzC56g7{fill: #8E5132;}#ByWb1GCq6eX{fill: #561808;}#ByNZJfR5aem{fill: #561808;}#B1UZJz05Te7{fill: #FFAA00;}#H1YWyz0qTgQ{fill: #FFCE6B;}#B1jb1zRqpl7{fill: #FFCE6B;}#BypWkM0cpem{fill: #FF8900;}#ryxzyMA5al7{fill: #C01711;}#rkzM1MRcTlQ{fill: #C01711;}#rJSM1MCqal7{fill: #F4413D;}#ryvzkfR96xX{fill: #F4413D;}#BktfkGR56em{fill: #9CB219;}#S1nz1G09peX{fill: #8A8E00;}#S10fyf05pg7{fill: #B8C766;}#SJlm1zCcag7{fill: #8A8E00;}#rkzm1z056lm{fill: #B8C766;}#SkNXyzCqax7{fill: #8A8E00;}#HJImyf09axQ{fill: #E1CCB7;}#HJuXkG05alX{fill: #E46D00;}#BJs7yf05alQ{fill: #EC8B2D;}#HyaXJG05Tem{fill: #EC8B2D;}#S1R7JGR9plX{opacity: 0.5;}#SyZVkMC9agX{fill: #E46D00;}#H1m41zR9aeX{fill: #E46D00;}#HyrEJG0c6l7{fill: #E46D00;}#B1vNJGA5pgm{fill: #E46D00;}#rktNJG0q6x7{fill: #E46D00;}#SJiVyM096eQ{fill: #E46D00;}#Sk6VkM09aem{fill: #E46D00;}#S11ryfAcTx7{fill: #E46D00;}#SJbHkfR56eQ{fill: #E46D00;}#SymBkfA9ae7{fill: #E46D00;}#S1rS1zR5Tem{fill: #E46D00;}#SkPSyGCc6lm{fill: #E46D00;}#BJtHJGAc6l7{fill: #E46D00;}#H1oHyM05TeX{fill: #E46D00;}#rk6ryGA9pem{fill: #E46D00;}#BJ1IyM0cTgm{fill: #E46D00;}#SybU1GCcTlX{fill: #E46D00;}#HJmLkM0q6xQ{fill: #E46D00;}#rJHU1zA5pxm{fill: #E46D00;}#rywIJzAcTgQ{fill: #E46D00;}#B1tLJMC9plQ{fill: #E46D00;}#SkjIJfCqpeX{fill: #E46D00;}#H16UkGRcpgX{fill: #E46D00;}#SkywJzA96eQ{fill: #E46D00;}#BkbvJfRcag7{fill: #E46D00;}#H17wkMCcalQ{fill: #E46D00;}#HJDvyfAc6x7{fill: #FFCE6B;}#HyFwkz0qaem{fill: #FFCE6B;}#SkjvkMC5TeQ{fill: #FFCE6B;}#rkTv1MC5agQ{fill: #FFCE6B;}#r1y_kzRqaxQ{fill: #FFCE6B;}#SJZukfRcpxX{fill: #FFCE6B;}#ryQOkfAq6x7{fill: #FFCE6B;}#HkHOJz05alQ{fill: #FFCE6B;}#SkPdJGC9TlQ{fill: #FFCE6B;}#S1Yd1GRqTlQ{fill: #FFCE6B;}#BJsd1zC5pgX{fill: #FFCE6B;}#H16_kfCc6gm{fill: #FFCE6B;}#S11FyGCq6g7{fill: #FFCE6B;}#S1btkM09pe7{fill: #FFCE6B;}#B17K1zR5plm{fill: #FFCE6B;}#HkStkGR5ae7{fill: #FFCE6B;}#HkDtJz0qplX{fill: #FFCE6B;}#BktYkMCq6e7{fill: #FFCE6B;}#HJjYkz09TgQ{fill: #FFCE6B;}#S16FJM0c6lQ{fill: #FFCE6B;}#SJkqkz0qTl7{fill: #FFCE6B;}#HkZ51MCc6xX{fill: #FFCE6B;}#SyX9kf09peQ{fill: #FFCE6B;}#BkS5kMC5peX{fill: #FFCE6B;}#rJDckzAc6gX{fill: #FFCE6B;}#BJFcyG0cTlQ{fill: #FFCE6B;}#SJh9kzRqax7{fill: #F0E5DA;}#HyAckfA9Tlm{fill: #F0E5DA;}#BJxo1MRqaxQ{fill: #F0E5DA;}#HJGjyMC96xQ{fill: #F0E5DA;}#HyVskGA9peQ{fill: #F0E5DA;}#r1gJfCqpx7_HyfTRqpg7{-webkit-transform-origin: 50% 50%;transform-origin: 50% 50%;transform-box: fill-box;-webkit-transform: translate(0px, -350px);transform: translate(0px, -350px);}#BkJzRqTxX:hover #r1gJfCqpx7_HyfTRqpg7{-webkit-animation-name: r1gJfCqpx7_HyfTRqpg7_Animation;animation-name: r1gJfCqpx7_HyfTRqpg7_Animation;}#SJ-JMA9peQ_BkT1yjTgQ{-webkit-transform-origin: 50% 50%;transform-origin: 50% 50%;transform-box: fill-box;-webkit-transform: translate(0px, 350px);transform: translate(0px, 350px);-webkit-animation-timing-function: cubic-bezier(0.42, 0, 0.58, 1);animation-timing-function: cubic-bezier(0.42, 0, 0.58, 1);}#BkJzRqTxX:hover #SJ-JMA9peQ_BkT1yjTgQ{-webkit-animation-name: SJ-JMA9peQ_BkT1yjTgQ_Animation;animation-name: SJ-JMA9peQ_BkT1yjTgQ_Animation;}#BJQJzAcaxQ_rJJqkopl7{-webkit-transform-origin: 50% 50%;transform-origin: 50% 50%;transform-box: fill-box;-webkit-transform: translate(0px, 350px);transform: translate(0px, 350px);}#BkJzRqTxX:hover #BJQJzAcaxQ_rJJqkopl7{-webkit-animation-name: BJQJzAcaxQ_rJJqkopl7_Animation;animation-name: BJQJzAcaxQ_rJJqkopl7_Animation;}#BkryGCqagX_BJQ6yspx7{-webkit-transform-origin: 50% 50%;transform-origin: 50% 50%;transform-box: fill-box;-webkit-transform: translate(0px, 350px);transform: translate(0px, 350px);}#BkJzRqTxX:hover #BkryGCqagX_BJQ6yspx7{-webkit-animation-name: BkryGCqagX_BJQ6yspx7_Animation;animation-name: BkryGCqagX_BJQ6yspx7_Animation;}#SyvkzC9TxQ_S1Ybgjagm{-webkit-transform-origin: 50% 50%;transform-origin: 50% 50%;transform-box: fill-box;-webkit-transform: translate(0px, 350px);transform: translate(0px, 350px);}#BkJzRqTxX:hover #SyvkzC9TxQ_S1Ybgjagm{-webkit-animation-name: SyvkzC9TxQ_S1Ybgjagm_Animation;animation-name: SyvkzC9TxQ_S1Ybgjagm_Animation;}#S15JzC96lX_ByCIxopxm{-webkit-transform-origin: 50% 50%;transform-origin: 50% 50%;transform-box: fill-box;-webkit-transform: translate(0px, 350px);transform: translate(0px, 350px);-webkit-animation-timing-function: cubic-bezier(0.42, 0, 0.58, 1);animation-timing-function: cubic-bezier(0.42, 0, 0.58, 1);}#BkJzRqTxX:hover #S15JzC96lX_ByCIxopxm{-webkit-animation-name: S15JzC96lX_ByCIxopxm_Animation;animation-name: S15JzC96lX_ByCIxopxm_Animation;}#B1hkzC5ag7_r1spljpeX{-webkit-transform-origin: 50% 50%;transform-origin: 50% 50%;transform-box: fill-box;-webkit-transform: translate(0px, 350px);transform: translate(0px, 350px);}#BkJzRqTxX:hover #B1hkzC5ag7_r1spljpeX{-webkit-animation-name: B1hkzC5ag7_r1spljpeX_Animation;animation-name: B1hkzC5ag7_r1spljpeX_Animation;}#rykWkG0cpeQ_H1eZWsaem{-webkit-transform-origin: 50% 50%;transform-origin: 50% 50%;transform-box: fill-box;-webkit-transform: translate(0px, 350px);transform: translate(0px, 350px);}#BkJzRqTxX:hover #rykWkG0cpeQ_H1eZWsaem{-webkit-animation-name: rykWkG0cpeQ_H1eZWsaem_Animation;animation-name: rykWkG0cpeQ_H1eZWsaem_Animation;}#Syf-1fAcplQ_ByZNZiTe7{-webkit-transform-origin: 50% 50%;transform-origin: 50% 50%;transform-box: fill-box;-webkit-transform: translate(0px, 350px);transform: translate(0px, 350px);}#BkJzRqTxX:hover #Syf-1fAcplQ_ByZNZiTe7{-webkit-animation-name: Syf-1fAcplQ_ByZNZiTe7_Animation;animation-name: Syf-1fAcplQ_ByZNZiTe7_Animation;}#ByrW1MRcalQ_HJyvZoTeQ{-webkit-transform-origin: 50% 50%;transform-origin: 50% 50%;transform-box: fill-box;-webkit-transform: translate(0px, 350px);transform: translate(0px, 350px);}#BkJzRqTxX:hover #ByrW1MRcalQ_HJyvZoTeQ{-webkit-animation-name: ByrW1MRcalQ_HJyvZoTeQ_Animation;animation-name: ByrW1MRcalQ_HJyvZoTeQ_Animation;}#ByvbyMCqTgX_r1vtZsTxX{-webkit-transform-origin: 50% 50%;transform-origin: 50% 50%;transform-box: fill-box;-webkit-transform: translate(0px, 350px);transform: translate(0px, 350px);}#BkJzRqTxX:hover #ByvbyMCqTgX_r1vtZsTxX{-webkit-animation-name: ByvbyMCqTgX_r1vtZsTxX_Animation;animation-name: ByvbyMCqTgX_r1vtZsTxX_Animation;}#B1CWJzC96x7_rksbMjplm{-webkit-transform-origin: 50% 50%;transform-origin: 50% 50%;transform-box: fill-box;-webkit-transform: translate(0px, 350px);transform: translate(0px, 350px);}#BkJzRqTxX:hover #B1CWJzC96x7_rksbMjplm{-webkit-animation-name: B1CWJzC96x7_rksbMjplm_Animation;animation-name: B1CWJzC96x7_rksbMjplm_Animation;}#SJ7zkz0c6lQ_r17SMj6gQ{-webkit-transform-origin: 50% 50%;transform-origin: 50% 50%;transform-box: fill-box;-webkit-transform: translate(0px, 350px);transform: translate(0px, 350px);}#BkJzRqTxX:hover #SJ7zkz0c6lQ_r17SMj6gQ{-webkit-animation-name: SJ7zkz0c6lQ_r17SMj6gQ_Animation;animation-name: SJ7zkz0c6lQ_r17SMj6gQ_Animation;}#B1OfkGA9pxm_HkVPGs6xQ{-webkit-transform-origin: 50% 50%;transform-origin: 50% 50%;transform-box: fill-box;-webkit-transform: translate(0px, 350px);transform: translate(0px, 350px);}#BkJzRqTxX:hover #B1OfkGA9pxm_HkVPGs6xQ{-webkit-animation-name: B1OfkGA9pxm_HkVPGs6xQ_Animation;animation-name: B1OfkGA9pxm_HkVPGs6xQ_Animation;}#Sk9zkz0cal7_HkRgmipxX{-webkit-transform-origin: 50% 50%;transform-origin: 50% 50%;transform-box: fill-box;-webkit-transform: translate(0px, 350px);transform: translate(0px, 350px);}#BkJzRqTxX:hover #Sk9zkz0cal7_HkRgmipxX{-webkit-animation-name: Sk9zkz0cal7_HkRgmipxX_Animation;animation-name: Sk9zkz0cal7_HkRgmipxX_Animation;}#ryHXkMR5pem_BJBmXjagQ{-webkit-transform-origin: 50% 50%;transform-origin: 50% 50%;transform-box: fill-box;-webkit-transform: translate(0px, 350px);transform: translate(0px, 350px);}#BkJzRqTxX:hover #ryHXkMR5pem_BJBmXjagQ{-webkit-animation-name: ryHXkMR5pem_BJBmXjagQ_Animation;animation-name: ryHXkMR5pem_BJBmXjagQ_Animation;}#SJvX1f0cplX_H1pUXjaeX{-webkit-transform-origin: 50% 50%;transform-origin: 50% 50%;transform-box: fill-box;-webkit-transform: translate(0px, 350px);transform: translate(0px, 350px);}#BkJzRqTxX:hover #SJvX1f0cplX_H1pUXjaeX{-webkit-animation-name: SJvX1f0cplX_H1pUXjaeX_Animation;animation-name: SJvX1f0cplX_H1pUXjaeX_Animation;}#BJYm1zRqaeQ_r1KYXipgX{-webkit-transform-origin: 50% 50%;transform-origin: 50% 50%;transform-box: fill-box;-webkit-transform: translate(0px, 350px);transform: translate(0px, 350px);}#BkJzRqTxX:hover #BJYm1zRqaeQ_r1KYXipgX{-webkit-animation-name: BJYm1zRqaeQ_r1KYXipgX_Animation;animation-name: BJYm1zRqaeQ_r1KYXipgX_Animation;}#S1R7JGR9plX_rkz1NiTgm{-webkit-transform-origin: 50% 50%;transform-origin: 50% 50%;transform-box: fill-box;-webkit-transform: translate(0px, 350px);transform: translate(0px, 350px);}#BkJzRqTxX:hover #S1R7JGR9plX_rkz1NiTgm{-webkit-animation-name: S1R7JGR9plX_rkz1NiTgm_Animation;animation-name: S1R7JGR9plX_rkz1NiTgm_Animation;}#HJ4vkfA5pgm_Hk6Z4oTx7{-webkit-transform-origin: 50% 50%;transform-origin: 50% 50%;transform-box: fill-box;-webkit-transform: translate(0px, 350px);transform: translate(0px, 350px);}#BkJzRqTxX:hover #HJ4vkfA5pgm_Hk6Z4oTx7{-webkit-animation-name: HJ4vkfA5pgm_Hk6Z4oTx7_Animation;animation-name: HJ4vkfA5pgm_Hk6Z4oTx7_Animation;}#H19qkfR9TxQ_BJhVVoagX{-webkit-transform-origin: 50% 50%;transform-origin: 50% 50%;transform-box: fill-box;-webkit-transform: translate(0px, 350px);transform: translate(0px, 350px);}#BkJzRqTxX:hover #H19qkfR9TxQ_BJhVVoagX{-webkit-animation-name: H19qkfR9TxQ_BJhVVoagX_Animation;animation-name: H19qkfR9TxQ_BJhVVoagX_Animation;}#r1gJfCqpx7_H1DPVj6e7{-webkit-transform-origin: 50% 50%;transform-origin: 50% 50%;transform-box: fill-box;-webkit-transform: scale(1.1, 1.1);transform: scale(1.1, 1.1);}</style>

<g id="r1gJfCqpx7_HyfTRqpg7" data-animator-group="true" data-animator-type="0"><g id="r1gJfCqpx7">
	<g id="SJ-JMA9peQ_BkT1yjTgQ" data-animator-group="true" data-animator-type="0"><g id="SJ-JMA9peQ">
		<path d="M258.3,187.2l-205.2,4.6c-1.5,7.7-2.4,15.5-2.7,23.3c-0.2,4-0.1,8.2,1.8,11.7c2.8,4.9,8.6,7.1,14.1,8.8&#10;&#9;&#9;&#9;c43.3,13.1,89.3,15.5,134.4,12.8c12.5-0.7,25.2-1.9,36.9-6.5c5.6-2.2,11-5.4,15-9.9c3.2-3.7,5.3-8.3,6.7-13.1&#10;&#9;&#9;&#9;C262.3,208.5,262,197.3,258.3,187.2z" id="rkfyzCq6xQ"/>
	</g></g>
	<g id="BJQJzAcaxQ_rJJqkopl7" data-animator-group="true" data-animator-type="0"><g id="BJQJzAcaxQ">
		<path d="M65.1,217.4c16.3,11.1,41.1,13.3,60.2,15.3c10.9,1.1,21.9,1.4,32.9,1c9.2-0.3,19.8-0.3,28.1-4.6&#10;&#9;&#9;&#9;c1-0.5,0.6-1.9-0.3-2.2c-8.7-3.2-18.7-1.8-27.8-1.6c-10.4,0.3-20.8,0.3-31.1-0.6c-10.5-0.9-21.1-2.5-31.5-4.5&#10;&#9;&#9;&#9;c-9.9-1.8-19.7-5-29.8-5.5C64.3,214.6,64,216.6,65.1,217.4L65.1,217.4z" id="rkVkGAcae7"/>
	</g></g>
	<g id="BkryGCqagX_BJQ6yspx7" data-animator-group="true" data-animator-type="0"><g id="BkryGCqagX">
		<path d="M192.5,229.6c6.6,2.5,14.8,0.9,21.6-0.1c6.3-0.9,12.9-1.5,18-5.5c1-0.8,0.4-2.5-0.7-2.8&#10;&#9;&#9;&#9;c-6.6-2-14,0.1-20.7,0.8c-6.3,0.7-13,0.4-18.7,3.2C189.9,226.2,190.8,228.9,192.5,229.6L192.5,229.6z" id="SkUyz09ae7"/>
	</g></g>
	<g id="SyvkzC9TxQ_S1Ybgjagm" data-animator-group="true" data-animator-type="0"><g id="SyvkzC9TxQ">
		<g id="HJ_1GR9pe7">
			<path d="M259.5,190.7c-0.2,3.9-0.8,7.7-1.7,11.5c-2.3,9.9-6.5,19.9-14.2,26.4c-5.5,4.6-12.4,7.3-19.4,8.9&#10;&#9;&#9;&#9;&#9;c-7.3,1.6-14.9,2.2-22.4,2.5c-35.9,1.8-72,0.4-107.7-4.2c-15.2-1.9-31.2-4.9-43.4-13.7c0.3,1.6,0.7,3.2,1.6,4.6&#10;&#9;&#9;&#9;&#9;c2.8,4.9,8.6,7.1,14.1,8.8c43.3,13.1,89.3,15.5,134.4,12.8c12.5-0.7,25.2-1.9,36.9-6.5c5.6-2.2,11-5.4,15-9.9&#10;&#9;&#9;&#9;&#9;c3.2-3.7,5.3-8.3,6.7-13.1C262,209.7,262,199.8,259.5,190.7z" id="SJK1MA5TlX"/>
		</g>
	</g></g>
	<g id="S15JzC96lX_ByCIxopxm" data-animator-group="true" data-animator-type="0"><g id="S15JzC96lX">
		<path d="M272.6,180.3c0-0.9-0.1-1.8-0.6-2.5c-0.3-0.5-0.7-0.8-1.2-1.1c-2.8-2.2-5.7-4.4-8.5-6.6&#10;&#9;&#9;&#9;c-2.2-1.7-4.4-3.5-7-4.6c-4.4-2-9.4-2.3-14.2-2.3c-16.7-0.2-33.4,1.2-50.1,1c-39.8-0.5-79.3-10.4-119.1-7.6&#10;&#9;&#9;&#9;c-7.4,0.5-12.4,8.6-17.8,13.7c-1.9-1.5-4.8-0.2-6.2,1.6c-1.5,1.9-2.3,4.3-3.9,6c-1,1-2.3,1.9-2.8,3.2c-1,2.4,0.8,5.1,0.6,7.8&#10;&#9;&#9;&#9;c-0.3,2.7-2.7,5.4-1.4,7.7c0.8,1.3,2.6,1.9,3.2,3.3c0.6,1.4-0.1,3-0.1,4.5c0.2,3.3,4,5.1,7.3,5.1c3.3,0,6.5-1.1,9.7-0.5&#10;&#9;&#9;&#9;c1.8,0.3,3.5,1.2,5.2,1.9c2.5,1,5.1,1.7,7.8,2.2c6.1,1.3,12.3,2.1,18.6,2.5c5.2,0.3,10.4,0.2,15.6,0.2c32.8-0.3,65.6-0.6,98.4-0.9&#10;&#9;&#9;&#9;c14.9-0.1,29.8-0.3,44.6,0.2c1.1,0,2.3,0.1,3.4-0.3c1.6-0.6,2.8-2,4.3-2.9c2.5-1.4,5.6-1,8.1-2.2c3.7-1.8,5-6.5,5.5-10.6&#10;&#9;&#9;&#9;C272.7,192.7,273,186.5,272.6,180.3z" id="Hkj1G09peQ"/>
	</g></g>
	<g id="B1hkzC5ag7_r1spljpeX" data-animator-group="true" data-animator-type="0"><g id="B1hkzC5ag7">
		<g id="HypkfR5TxX">
			<path d="M45.7,190.5c-3.1,1.1-4.6,5.1-2.5,7.8c1.2,1.5,2.8,1.4,4.5,1.5c1.2,0,2.4,0.4,3.5,1c1.1,0.6,1.6,1.1,2.9,1.2&#10;&#9;&#9;&#9;&#9;c1.1,0,1.6-1,1.5-1.9c-0.4-2.7-4.2-3.7-6.5-3.8c-1.3-0.1-3.7,0.9-3.9-1.1c-0.1-1.4,0.9-2.8,1.1-4.1&#10;&#9;&#9;&#9;&#9;C46.3,190.8,46.1,190.4,45.7,190.5L45.7,190.5z" id="HkAJG05pem"/>
		</g>
		<g id="r1yg1M0qplX">
			<path d="M55.5,195.1c0.5,0.8,1.4,1.2,2,1.9c0.6,0.7,1,1.6,1.5,2.4c0.6,0.8,2.2,0.9,2.4-0.3c0.3-1.6-0.5-3.1-1.7-4.2&#10;&#9;&#9;&#9;&#9;c-1-0.8-2.8-1.7-4-1C55.4,194.2,55.3,194.7,55.5,195.1L55.5,195.1z" id="rJee1zR9pgm"/>
		</g>
		<g id="HkbxkM0cTeX">
			<path d="M129.2,201c-1.9,3.9,2.6,5.8,5.8,4.4c2.3-1,3.6-1.7,6-0.7c1.1,0.5,2,1,3.2,1.1c2.5,0.3,5.5-0.3,6.8-2.6&#10;&#9;&#9;&#9;&#9;c0.3-0.5,0.2-1.4-0.4-1.6c-1.3-0.6-2.1-0.6-3.5-0.4c-3,0.4-4.2-1.1-6.8-1.6c-1.3-0.3-2.5,0-3.7,0.5c-0.9,0.4-6.7,4.6-6.3,1.2&#10;&#9;&#9;&#9;&#9;C130.4,200.7,129.4,200.5,129.2,201L129.2,201z" id="rkMlkzR9Tx7"/>
		</g>
		<g id="ry7lJfR96lX">
			<path d="M155.5,199.7c1.2,0.7,6.6,2.3,6.9-0.1c0.3-2.4-5.4-2.1-6.7-1.7C155,198.2,154.8,199.3,155.5,199.7&#10;&#9;&#9;&#9;&#9;L155.5,199.7z" id="r1Vl1M05Tg7"/>
		</g>
		<g id="SyBe1f05TlX">
			<path d="M164.3,197.7c2.2,0.5,3.9-0.1,5.6,1.9c1.1,1.3,1.7,2.8,3.5,3.3c2.3,0.8,6.7-0.3,8.5-1.9&#10;&#9;&#9;&#9;&#9;c0.4-0.3,0.4-1,0.2-1.4c-0.8-1.5-2.3-1.7-3.9-1.4c-0.7,0.1-1.8,0.6-2.4,0.6c-1.9-0.1-2.2-1.5-3.4-2.5c-2.1-1.9-6.9-2.9-8.5,0.1&#10;&#9;&#9;&#9;&#9;C163.5,196.9,163.8,197.6,164.3,197.7L164.3,197.7z" id="Sy8gJMAcplX"/>
		</g>
		<g id="Bkvg1MR9al7">
			<path d="M204.5,204.4c4.9-1.1,8.6,3.5,12.7,5.3c2.9,1.2,5.7,2.3,8.3,0.1c1-0.9,0.2-2.6-1.1-2.6&#10;&#9;&#9;&#9;&#9;c-2.6,0-4.7-0.6-7.1-1.6c-2-0.9-3.4-2.4-5.3-3.3c-2.5-1.3-6.4-1.4-8.3,0.8C203,203.6,203.6,204.6,204.5,204.4L204.5,204.4z" id="H1Ox1MRcaeQ"/>
		</g>
		<g id="rJKxyfAcaem">
			<path d="M224.8,203.7c0.7-0.2-0.2-0.1,0.3-0.1c0.2,0,0.4,0,0.6,0.1c0.4,0.1,0.8,0.2,1.2,0.3c0.9,0.4,1.7,1.1,2.6,1.4&#10;&#9;&#9;&#9;&#9;c0.9,0.4,1.9-0.5,1.9-1.4c0-1.8-1.5-3.1-3.2-3.5c-1.7-0.4-3,0-4.4,1C222.8,202.2,223.4,204.1,224.8,203.7L224.8,203.7z" id="H15gyfR9axQ"/>
		</g>
		<g id="Bkixkz05alm">
			<path d="M233,210c1.3,0.8,2.7,1,4.3,0.9c1.4-0.2,3.3-0.4,4-1.9c0.5-1,0.1-1.9-0.9-2.3c-1.2-0.5-2.4,0.1-3.6,0.4&#10;&#9;&#9;&#9;&#9;c-1.2,0.2-2.3,0.3-3.5,0.7C232.3,208.1,232.1,209.4,233,210L233,210z" id="Hyng1fRqpxX"/>
		</g>
		<g id="rkplJGCcTlQ">
			<path d="M193.1,196.1c3,1.1,6.2,1.2,9.3,1.5c3.1,0.3,6.4,1.2,9.4,0.2c0.9-0.3,1.1-1.5,0.3-2.1c-2.6-1.7-6-1.6-9-1.7&#10;&#9;&#9;&#9;&#9;c-3.4-0.1-6.8-0.1-10,1.1C192.6,195.3,192.6,195.9,193.1,196.1L193.1,196.1z" id="By0lJzC56g7"/>
		</g>
	</g></g>
	<g id="rykWkG0cpeQ_H1eZWsaem" data-animator-group="true" data-animator-type="0"><g id="rykWkG0cpeQ">
		<g id="rJgZyzA9axm">
			<path d="M272.6,180.3c0-0.9-0.1-1.8-0.6-2.5c-0.3-0.5-0.7-0.8-1.2-1.1c-2.8-2.2-5.7-4.4-8.5-6.6&#10;&#9;&#9;&#9;&#9;c-2.2-1.7-4.4-3.5-7-4.6c-4.4-2-9.4-2.3-14.2-2.3c-16.7-0.2-33.4,1.2-50.1,1c-39.8-0.5-79.3-10.4-119.1-7.6&#10;&#9;&#9;&#9;&#9;c-7.4,0.5-12.4,8.6-17.8,13.7c-1.9-1.5-4.8-0.2-6.2,1.6c-0.5,0.6-0.8,1.2-1.2,1.8c0.3,1.2,0.9,2.3,1.7,3.2c2,2.1,5.2,3.1,6.4,5.8&#10;&#9;&#9;&#9;&#9;c1,2.2,0.3,5,1.4,7.2c0.8,1.4,2.2,2.3,3.6,3.3c2.8,2,5.3,4.4,7.8,6.9c4.1,4,8.1,8,12.2,12.1c0.8,0.8,1.5,1.5,2.2,2.3&#10;&#9;&#9;&#9;&#9;c2.8,0.4,5.7,0.7,8.5,0.9c9.2-4.4,17.7-10.4,24.9-17.7c0.4-0.4,0.9-0.8,1.4-0.8c0.6,0,1.1,0.5,1.7,0.9c2.4,1.6,5.6-0.2,8-1.8&#10;&#9;&#9;&#9;&#9;c4.2-2.8,8.7-5.3,13.3-7.3c2.2-1,4.5-1.8,6.9-1.9c2.8-0.1,5.5,1,8.2,1.5c5.6,1,11.3-0.4,16.9-0.9c5.4-0.4,10.8,0,16.1,0.4&#10;&#9;&#9;&#9;&#9;c3.1,0.2,6.1,0.5,9.2,0.7c7.9,0.6,15.8,1.3,23.7,2.1c5,0.6,10,1.2,14.9,2.2c3.9,0.8,7.7,1.7,11.5,2.9c2.1,0.6,4.5,1.5,5.5,3.5&#10;&#9;&#9;&#9;&#9;c0.8,1.5,0.6,3.4,1.5,4.9c1.1,1.8,3.5,2.3,5.4,3.1c1.7,0.7,3.2,1.8,4.5,3.1c0.7-0.2,1.5-0.4,2.2-0.7c3.7-1.8,5-6.5,5.5-10.6&#10;&#9;&#9;&#9;&#9;C272.7,192.7,273,186.5,272.6,180.3z" id="ByWb1GCq6eX"/>
		</g>
	</g></g>
	<g id="Syf-1fAcplQ_ByZNZiTe7" data-animator-group="true" data-animator-type="0"><g id="Syf-1fAcplQ">
		<g id="SkQZ1fRcTlQ">
			<path d="M204.1,212c-1-0.2-2.1,0.3-3.1,0.3c-2.5,0-4.3-2.7-6.7-3c-2.8-0.4-5.3,2.5-8.2,2.2c-1.9-0.2-3.4-1.7-5.2-2.1&#10;&#9;&#9;&#9;&#9;c-2.1-0.4-4.2,0.6-6.3,0.7c-5,0.3-9.6-4.5-14.5-3.2c-2.1,0.5-3.8,2.2-6,2.4c-2.5,0.3-4.9-1.2-7.4-1c-2.5,0.2-4.5,1.9-6.6,3.2&#10;&#9;&#9;&#9;&#9;c-2.1,1.3-5.1,1.9-6.9,0.2c-0.3-0.3-0.6-0.7-1-0.8c-0.9-0.3-1.7,0.5-2.3,1.2c-1.5,1.7-3.6,2.8-5.9,3.2&#10;&#9;&#9;&#9;&#9;c27.3-0.3,54.6-0.5,81.9-0.8c0.8,0,1.6,0,2.4,0c-0.5-0.2-1-0.4-1.4-0.7C206,213.2,205.2,212.3,204.1,212z" id="ByNZJfR5aem"/>
		</g>
	</g></g>
	<g id="ByrW1MRcalQ_HJyvZoTeQ" data-animator-group="true" data-animator-type="0"><g id="ByrW1MRcalQ">
		<path d="M267,172.3c-14-13.6-34.6-17.5-54-18.6l-140.2,2.6c-8.3,0.1-16.6,2.6-23.6,7.2c-1.3,0.9-2.7,2.1-2.5,3.6&#10;&#9;&#9;&#9;c0.1,0.7,0.5,1.4,1,2c2.8,3.9,5.8,7.9,10.1,10c1.6,0.8,3.5,1.3,4.9,2.5c1.3,1,2.2,2.5,3.1,3.9c6.1,9.6,13.2,18.7,21,27.1&#10;&#9;&#9;&#9;c0.3-3.8,3.8-6.4,7.1-8.4c10.4-6.4,21.3-12.2,33.1-15c7.2-1.7,14.7-2.3,22.1-2.8c11.7-0.9,23.5-1.7,35.2-2.6&#10;&#9;&#9;&#9;c11.4-0.8,22.8-1.7,34.2-1.2c6.9,0.3,13.9,1,20.7,2.3c5.6,1,11.3,2.4,16.3,5.3c5,2.9,9.2,7.5,10.4,13.1c1.7-4,3.3-8,5-12&#10;&#9;&#9;&#9;c1-2.5,2.1-5,2.1-7.7C272.9,179.1,270.1,175.3,267,172.3z" id="B1UZJz05Te7"/>
	</g></g>
	<g id="ByvbyMCqTgX_r1vtZsTxX" data-animator-group="true" data-animator-type="0"><g id="ByvbyMCqTgX">
		<g id="B1O-kfR5px7">
			<path d="M82.9,205.2c0.2-1.2,0.5-2.4,0.3-3.5c-0.6-2.7-4.1-4.4-4-7.1c0-1.4,1-2.5,1.1-3.9c0.1-1.8-1.4-3.4-3-4.3&#10;&#9;&#9;&#9;&#9;c-1.6-1-3.4-1.6-4.6-3c-1.2-1.4-1.4-3.9,0.1-4.9c1-0.6,2.7-0.8,2.7-2c-4.5-2-9.8-0.5-14.8-0.7c-0.4,0-0.9,0-1.2-0.3&#10;&#9;&#9;&#9;&#9;c-1.3-0.9,0.1-2.9,0.2-4.5c0.1-2.8-3.8-3.7-5.2-6.1c-0.8-1.3-0.6-3,0.1-4.4c-1.9,0.9-3.7,1.9-5.4,3c-1.3,0.9-2.7,2.1-2.5,3.6&#10;&#9;&#9;&#9;&#9;c0.1,0.7,0.5,1.4,1,2c2.8,3.9,5.8,7.9,10.1,10c1.6,0.8,3.5,1.3,4.9,2.5c1.3,1,2.2,2.5,3.1,3.9c5.1,7.9,10.8,15.5,17,22.6&#10;&#9;&#9;&#9;&#9;C82.8,207,82.8,206.1,82.9,205.2z" id="H1YWyz0qTgQ"/>
		</g>
		<g id="Skq-yGRcTgX">
			<path d="M260.5,167c-1.7-0.4-3.4-0.1-4.2,1.4c-1.5,2.7,2.1,5.9,1.3,8.8c-2.8-1.4-5.7-2.8-8.8-3.4s-6.5-0.3-9,1.5&#10;&#9;&#9;&#9;&#9;c-0.6,0.4-1.1,1-1,1.7c0.1,0.7,0.8,1.1,1.5,1.4c3.8,1.7,7.7,3.1,11.7,4.3c1.4,0.4,3.1,1.4,2.6,2.7c2.3,2.6,7.2,0.2,9.8,2.6&#10;&#9;&#9;&#9;&#9;c1.4,1.2,1.5,3.3,1.5,5.2c-0.1,2.5-0.3,5-0.7,7.6c0.3,0.8,0.6,1.6,0.8,2.5c1.7-4,3.3-8,5-12c1-2.5,2.1-5,2.1-7.7&#10;&#9;&#9;&#9;&#9;c0-4.3-2.9-8.2-6-11.2C265,170.3,262.8,168.6,260.5,167z" id="B1jb1zRqpl7"/>
		</g>
		<g id="Sk2W1M096xm">
			<path d="M143.4,179.5c-0.4-1.6,0.5-3.8,2.1-3.6c0.6,0.1,1.1,0.5,1.7,0.7c1,0.4,2.1,0.3,3.1,0.1&#10;&#9;&#9;&#9;&#9;c3.6-0.6,7.1-1.7,10.8-1.8c2.3-0.1,4.5,0.2,6.8,0.2c5.4-0.1,10.5-2.3,15.8-3.4c13.4-2.7,27.2,1.9,40.9,1.5c1.3,0,2.6-0.1,3.8-0.8&#10;&#9;&#9;&#9;&#9;c1.1-0.6,2-2,1.7-3.2c-0.2-0.8-0.9-1.5-1-2.3c-0.4-2.2,2.5-3.4,4.7-3.2c2.8,0.2,5.6,1.1,8.4,1c2.6-0.2,5.4-1.8,5.9-4.3&#10;&#9;&#9;&#9;&#9;c-10.9-4.3-23.2-6-35-6.7l-55.8,1c-1.4,0.6-2.7,1.2-4,1.9c-2.2,1.2-4.2,2.6-6.3,3.8c-8.8,4.8-19.4,5.2-29.4,4.5&#10;&#9;&#9;&#9;&#9;c-10-0.8-20-2.6-30-1.7c-1.6,0.1-3.8,0.9-3.7,2.5c0,0.9,0.8,1.6,1.6,2.1c4.9,3.2,11.5,1.9,17.1,3.7c2.1,0.7,4.1,1.8,6.2,2.6&#10;&#9;&#9;&#9;&#9;c8.3,3,17.8-0.1,26,3c1.3,0.5,2.7,1.6,2.3,2.9c-0.2,0.5-0.5,0.8-0.9,1.1c-5.3,4.3-13.2,2.8-19.6,5.2c-2.9,1.1-5.3,3-7.7,4.9&#10;&#9;&#9;&#9;&#9;c-3.9,3.2-7.6,6.7-11,10.5c9.2-5.4,18.9-10.2,29.3-12.7c5.6-1.3,11.4-2,17.2-2.4c0.4-0.8,0.7-1.6,0.7-2.4&#10;&#9;&#9;&#9;&#9;C144.9,182.6,143.8,181.1,143.4,179.5z" id="BypWkM0cpem"/>
		</g>
	</g></g>
	<g id="B1CWJzC96x7_rksbMjplm" data-animator-group="true" data-animator-type="0"><g id="B1CWJzC96x7">
		<g id="SyJMJGRcTeX">
			<path d="M69.5,147c-1.7,4.7-3.1,9.5-4.1,14.4c19.4,5.5,39.8,7.5,59.9,6c9.9-0.7,20.1-2.3,29.6,0.6&#10;&#9;&#9;&#9;&#9;c0.8,0.2,1.6,0.5,2.3,0.2c0.8-0.3,1.2-1.2,1.5-1.9c2.4-5.9,3.2-12.4,2.2-18.7L69.5,147z" id="ryxzyMA5al7"/>
		</g>
		<g id="r1ZG1MAqaeX">
			<path d="M252,155.3c-0.4-5.1-0.9-10.3-1.6-15.4l-74.6,6.2c-0.6,6.6-1.2,13.2-1.9,19.9c-0.1,0.6-0.1,1.3,0.1,1.9&#10;&#9;&#9;&#9;&#9;c0.3,0.7,0.9,1.3,1.5,1.7c2.5,1.6,5.7,1.6,8.6,1.5c20.3-0.7,40.6-2.9,60.6-6.4c2.3-0.4,4.7-0.9,6.1-2.7&#10;&#9;&#9;&#9;&#9;C252.3,160.2,252.2,157.6,252,155.3z" id="rkzM1MRcTlQ"/>
		</g>
	</g></g>
	<g id="SJ7zkz0c6lQ_r17SMj6gQ" data-animator-group="true" data-animator-type="0"><g id="SJ7zkz0c6lQ">
		<g id="SkNzyfR9TlQ">
			<path d="M111.6,161c-5-1.2-10.7-0.1-15-2.8c-1.1-0.7-2-1.5-3.2-2c-2.4-1-5.1-0.2-7.5,0.7c-0.4,0.2-0.9,0.3-1.2,0.7&#10;&#9;&#9;&#9;&#9;c-0.6,0.8-0.3,1.9,0.2,2.8c1,2,2.2,4,3.5,5.8c11.2,1.6,22.5,2,33.7,1.4C119.2,164.5,115.8,162,111.6,161z" id="rJSM1MCqal7"/>
		</g>
		<g id="rJIGkMRqpem">
			<path d="M232,162c-0.3-1.9-2.4-3-4.3-3.1c-1.9-0.1-3.8,0.6-5.7,0.8c-3.3,0.5-6.7-0.1-10.1,0.2&#10;&#9;&#9;&#9;&#9;c-4.4,0.5-8.4,2.6-11.8,5.4c-1.9,1.6-3.6,3.3-5.3,5.2c12.1-0.7,24.1-1.9,36-3.6c0.3-0.8,0.6-1.6,0.8-2.4&#10;&#9;&#9;&#9;&#9;C232,163.7,232.2,162.8,232,162z" id="ryvzkfR96xX"/>
		</g>
	</g></g>
	<g id="B1OfkGA9pxm_HkVPGs6xQ" data-animator-group="true" data-animator-type="0"><g id="B1OfkGA9pxm">
		<path d="M277.5,145.7c-2.2-0.9-4.7-0.7-7.1-0.9c-2.4-0.2-5-0.9-6.2-3.1c1.3-1.4,2.5-2.7,3.8-4.1&#10;&#9;&#9;&#9;c-1.4-1.7-2.9-3.3-4.6-4.6c2.3,0.2,4.7-1.2,5.8-3.3c0.6-1.2,0.9-2.6,1.8-3.5c1.7-1.6,4.8-1,6.3-2.8c1.7-2.2-1.2-5.5-4-5.3&#10;&#9;&#9;&#9;c-2.8,0.2-4.9,2.5-6.9,4.4c-2,2-4.5,3.9-7.3,3.5c-2.6-0.4-4.8-2.9-7.3-2.1c-1,0.3-1.8,1.1-2.8,1.7c-3,1.9-6.8,1.1-10.2,0.4&#10;&#9;&#9;&#9;c-6.7-1.4-13.6-2-20.5-2.7c-49.7-4.8-107.1-4.6-156.1,5.6c-2.7,2.2-5.4,4.4-8,6.6c-3.7-3.7-8.5-6.4-13.6-7.5&#10;&#9;&#9;&#9;c-0.8-0.2-1.6-0.3-2.3,0.1c-1.3,0.8-0.9,2.8-0.3,4.2c1.9,4,4.3,7.7,7.1,11.1c-2.5-0.6-5.2-1.2-7.6-0.2c-2.4,1-4,4.1-2.5,6.2&#10;&#9;&#9;&#9;c1.1,1.5,3.2,1.7,5,1.8c3.3,0.2,6.6,0.3,10,0.5c0.4,3.8-6.7,5.8-5.4,9.3c0.7,2,3.7,2.1,5.5,0.8c1.7-1.3,2.7-3.3,4.1-4.9&#10;&#9;&#9;&#9;c1.4-1.6,3.9-2.7,5.7-1.5c1,0.6,1.4,1.8,2.4,2.5c2.1,1.5,4.9-0.1,6.7-1.9c1.8-1.8,3.6-4.1,6.1-4.2c1.3,0,2.6,0.6,3.9,0.9&#10;&#9;&#9;&#9;c8.1,2.1,16.4-7.3,24.1-4c-3.1,2.9-5.1,6.9-5.8,11.1c5.7-3.5,11.4-6.9,17.1-10.4c-2.6,3-0.9,8.2,2.6,10c3.5,1.9,7.9,1.2,11.5-0.4&#10;&#9;&#9;&#9;c3.6-1.6,6.9-4,10.5-5.7c0.9-0.4,2.1-0.8,3-0.4c1.3,0.6,1.5,2.2,2.2,3.4c1.1,1.8,3.5,2.6,5.4,1.7c2-0.9,3-3.1,4.5-4.7&#10;&#9;&#9;&#9;c1.5-1.6,4.6-2.3,5.6-0.3c-1.6,1.4-3.2,3.5-2.5,5.5c1.1,3.1,5.7,2.4,8.3,0.5c2.6-2,5.1-4.8,8.3-4.5c3.7,0.4,5.9,5,9.6,5.4&#10;&#9;&#9;&#9;c4.2,0.4,7.6-4.7,11.7-3.8c2.4,0.5,3.9,3,5.9,4.4c3.2,2.2,8.1,1.1,10.2-2.1c0.8-1.2,1.3-2.8,2.6-3.5c2.5-1.4,5.2,1.3,7.1,3.5&#10;&#9;&#9;&#9;c2.5,2.9,5.7,5.5,9.5,6.3c3.8,0.7,8.2-0.8,10-4.2c1.5,1.2,3.1,2.4,5,2.8c1.9,0.4,4.1-0.1,5.1-1.8c0.3-0.6,0.5-1.2,1-1.6&#10;&#9;&#9;&#9;c0.9-0.8,2.4-0.3,3.3,0.6c0.8,0.9,1.3,2.1,2.2,2.9c2.5,2.7,7.5,1.3,9.3-1.9c1.9-3.2,1.3-7.2-0.1-10.7c4.6,0.2,9.2,0.4,13.8,0.6&#10;&#9;&#9;&#9;C281.4,149.4,279.7,146.6,277.5,145.7z" id="BktfkGR56em"/>
	</g></g>
	<g id="Sk9zkz0cal7_HkRgmipxX" data-animator-group="true" data-animator-type="0"><g id="Sk9zkz0cal7">
		<g id="ByiM1fA9aem">
			<path d="M143.6,128.1c-0.9,2.6-0.5,5.7,1.6,7.5c2.3,1.9,5.7,1.6,8.6,0.9c6.6-1.7,12.8-4.9,18-9.2&#10;&#9;&#9;&#9;&#9;c0.4-0.3,0.8-0.7,1.3-0.7c0.7,0,1.2,0.6,1.7,1.1c2.2,2.5,5.8,3.8,9.1,3.4c1.9-0.3,3.7-1.1,5.6-1.5c5.3-1.2,11.1,0.6,14.7,4.6&#10;&#9;&#9;&#9;&#9;c-1.8,1.3-3.5,2.7-5.1,4.2c-0.3,0.3-0.6,0.6-0.6,1c0,0.5,0.5,0.8,0.9,1.1c4.4,2.2,10.5,0.5,13-3.8c0.8-1.3,1.3-2.9,2.3-4.1&#10;&#9;&#9;&#9;&#9;c2.5-2.8,6.9-2.4,10.5-1.3c3.6,1,7.5,2.4,10.9,0.9c2.2-1,3.8-3.2,4.5-5.5c-0.6-0.1-1.2-0.2-1.8-0.4c-6.7-1.4-13.6-2-20.5-2.7&#10;&#9;&#9;&#9;&#9;c-22-2.1-45.5-3.2-69.1-3c-0.4,0.4-0.8,0.7-1.1,1.1C146.3,123.4,144.4,125.5,143.6,128.1z" id="S1nz1G09peX"/>
		</g>
		<g id="B1pGyfR9pxQ">
			<path d="M178,153.5c-1.9,0.6-4.6,1.7-5.6-0.1c-0.3-0.6-0.2-1.4,0-2c0.8-2.1,3.1-3.3,5.3-4c2.2-0.7,4.5-1,6.4-2.2&#10;&#9;&#9;&#9;&#9;c1.9-1.2,3.3-3.8,2.2-5.8c-1.1-2.1-4.1-2.4-6.4-1.8c-4.6,1.3-8.2,4.9-12.1,7.7c-3.9,2.8-9.1,4.9-13.4,2.7c-2-1-4.1-2.9-6.2-2&#10;&#9;&#9;&#9;&#9;c-0.8,0.3-1.3,1-1.9,1.6c-2,1.8-5.1,2.3-7.5,1.2c-1.8-0.8-3.3-2.4-5.2-2.7c-2.4-0.4-4.7,1.2-6.2,3c-1.8,2.2-3,5-2.9,7.9&#10;&#9;&#9;&#9;&#9;c0,1.1,0.3,2.3,0.8,3.3c1.2-0.3,2.3-0.7,3.4-1.1c3.6-1.6,6.9-4,10.5-5.7c0.9-0.4,2.1-0.8,3-0.4c1.3,0.6,1.5,2.2,2.2,3.4&#10;&#9;&#9;&#9;&#9;c1.1,1.8,3.5,2.6,5.4,1.7c2-0.9,3-3.1,4.5-4.7c1.5-1.6,4.6-2.3,5.6-0.3c-1.6,1.4-3.2,3.5-2.5,5.5c1.1,3.1,5.7,2.4,8.3,0.5&#10;&#9;&#9;&#9;&#9;c2.6-2,5.1-4.8,8.3-4.5c3.7,0.4,5.9,5,9.6,5.4c1.3,0.1,2.6-0.3,3.8-0.9c-0.2-0.8-0.5-1.6-0.9-2.3&#10;&#9;&#9;&#9;&#9;C184.9,154,181.2,152.6,178,153.5z" id="S10fyf05pg7"/>
		</g>
		<g id="ByJXkzCcTxm">
			<path d="M112.3,148.1c1-2.1,3.3-3.1,5.6-3.6c2.2-0.5,4.6-0.7,6.6-1.7c0.5-0.3,1.1-0.7,1.3-1.3&#10;&#9;&#9;&#9;&#9;c0.2-0.7-0.3-1.5-0.8-2c-3.3-3.1-8.8-1.3-13.1-2.6c-2.6-0.8-4.8-2.7-7.5-3.2c-2.8-0.6-5.6,0.3-8.2,1.5c-2.5,1.1-5.7,2.4-7.7,0.5&#10;&#9;&#9;&#9;&#9;c-0.8-0.7-1.1-1.8-1.9-2.5c-1.7-1.5-4.3-0.9-6.4,0c-2.1,0.9-4.4,1.9-6.5,1c-2.1-1-2.9-3.8-2.1-6c0.1-0.3,0.3-0.6,0.4-0.9&#10;&#9;&#9;&#9;&#9;c-3.2,0.6-6.4,1.2-9.5,1.8c-2.7,2.2-5.4,4.4-8,6.6c-3.3-3.3-7.4-5.7-11.8-7.1c-0.1,0.4-0.2,0.9-0.1,1.3c0.1,1.7,1.1,3.1,2.1,4.4&#10;&#9;&#9;&#9;&#9;c2.3,2.8,5.2,5.1,8.4,6.8c0.7,0.4,1.5,0.8,1.7,1.5c0.8,2.4-4.3,3.4-3.8,5.9c0.2,0.9,1.3,1.5,2.2,1.4c1-0.1,1.8-0.6,2.7-1&#10;&#9;&#9;&#9;&#9;c1.5-0.9,3.1-1.8,4.6-2.7c0.9-0.5,1.8-1,2.8-0.9c2.9,0.2,4,5.3,6.9,4.8c1.8-0.3,2.7-2.6,4.5-2.7c0.6,0,1.3,0.2,1.9,0.4&#10;&#9;&#9;&#9;&#9;c3,0.8,6.1-0.4,8.7-2c2.6-1.6,5.1-3.6,8-4.5c4-1.2,8.6,0,11.5,2.9c-1,1.8-2.8,2.9-4.7,4c1,0,2.1,0.2,3.1,0.7&#10;&#9;&#9;&#9;&#9;c-3.1,2.9-5.1,6.9-5.8,11.1c4.7-2.9,9.5-5.8,14.2-8.6C111.7,150.1,111.8,149.1,112.3,148.1z" id="SJlm1zCcag7"/>
		</g>
		<g id="rJZXJGA9px7">
			<path d="M225.8,157.8c0.5-1.6,2.2-2.7,3.8-3c1.7-0.4,3.4-0.2,5.1-0.3c3.7-0.2,7.3-1.8,10.1-4.3&#10;&#9;&#9;&#9;&#9;c0.4-0.4,0.9-0.9,1-1.4c0.2-1.2-1.2-2.1-2.5-2.3c-2.9-0.4-5.8,1-8.6,1.8c-2.9,0.8-6.5,0.6-8-2c-0.6-1-0.8-2.4-1.8-3&#10;&#9;&#9;&#9;&#9;c-0.7-0.5-1.6-0.4-2.5-0.4c-3.1,0.1-6.9,0.6-8.2,3.5c-0.8,1.6-0.7,4-2.4,4.8c-1.9,0.9-3.8-1.1-5.7-1.9c-2.4-1-5.3,0.1-7.1,2&#10;&#9;&#9;&#9;&#9;c-1.3,1.5-2.1,3.3-2.7,5.2c1.9,0.9,3.2,2.9,5,4.1c3.2,2.2,8.1,1.1,10.2-2.1c0.8-1.2,1.3-2.8,2.6-3.5c2.5-1.4,5.2,1.3,7.1,3.5&#10;&#9;&#9;&#9;&#9;c2.5,2.9,5.7,5.5,9.5,6.3c1.1,0.2,2.2,0.2,3.3,0.1c-1.9-0.5-3.8-0.8-5.5-1.6C226.8,162.1,225.2,159.9,225.8,157.8z" id="rkzm1z056lm"/>
		</g>
		<g id="rymmyG09Txm">
			<path d="M277.5,145.7c-2.2-0.9-4.7-0.7-7.1-0.9c-2.4-0.2-5-0.9-6.2-3.1c1.3-1.4,2.5-2.7,3.8-4.1&#10;&#9;&#9;&#9;&#9;c-1.4-1.7-2.9-3.3-4.6-4.6c2.3,0.2,4.7-1.2,5.8-3.3c0.6-1.2,0.9-2.6,1.8-3.5c1.7-1.6,4.8-1,6.3-2.8c1.7-2.2-1.2-5.5-4-5.3&#10;&#9;&#9;&#9;&#9;c-2.8,0.2-4.9,2.5-6.9,4.4c-1.5,1.5-3.2,2.9-5.2,3.4c-0.7,2.1-3.1,3.4-5.3,4c-2.3,0.7-4.9,1.2-6.7,2.9c-1.3,1.3-1.9,3.8-0.4,5&#10;&#9;&#9;&#9;&#9;c1.3,1.1,3.3,0.5,5.1,0.5c1.6,0.1,3.1,0.8,4,2.1c0.8,1.3,0.8,3.2-0.3,4.3c-1.5,1.5-4.5,1.5-5.2,3.5c-0.8,2.2,2,3.9,3,6&#10;&#9;&#9;&#9;&#9;c0.9,1.9,0.2,4-0.5,6.1c0,0,0,0,0,0c0.8,0.9,1.3,2.1,2.2,2.9c2.5,2.7,7.5,1.3,9.3-1.9c1.9-3.2,1.3-7.2-0.1-10.7&#10;&#9;&#9;&#9;&#9;c4.6,0.2,9.2,0.4,13.8,0.6C281.4,149.4,279.7,146.6,277.5,145.7z" id="SkNXyzCqax7"/>
		</g>
	</g></g>
	<g id="ryHXkMR5pem_BJBmXjagQ" data-animator-group="true" data-animator-type="0"><g id="ryHXkMR5pem">
		<path d="M253.8,125.4c-1.2-5.9-3.1-11.7-5.6-17.2L63.5,112c-6.5,3.9-11.1,10.8-12.4,18.2c-0.3,1.7-0.3,3.7,0.9,4.9&#10;&#9;&#9;&#9;c1.7,1.8,4.7,0.8,7-0.1c12-5,25.1-7.3,38-6.7c1.3,0.1,2.7,0.2,3.9,0.8c2.4,1.4,3.1,4.4,4,7c0.9,2.6,3.2,5.4,5.9,4.7&#10;&#9;&#9;&#9;c2.1-0.6,3-3,4.1-5c1.1-1.9,3.6-3.7,5.3-2.3c1.3,1,1.1,3.1,2.1,4.4c1.9,2.3,5.6,0.2,7.1-2.3c0.9-1.5,2-3.5,3.8-3.3&#10;&#9;&#9;&#9;c0.6,0.1,1.2,0.4,1.8,0.7c2.6,1,5.4-0.7,7.4-2.7c2-1.9,3.7-4.3,6.4-5.1c3.4-1.1,7.1,0.7,10.6,1c4.8,0.4,10.5-1.8,13.9,1.6&#10;&#9;&#9;&#9;c1.5,1.5,2.1,3.8,3.9,4.9c4.9,2.9,11.1-6.1,15.8-2.9c3.1,2.2,1.6,7.5,4.2,10.3c2.5,2.6,7.1,1.2,9.7-1.4c2.6-2.5,4.4-6,7.6-7.7&#10;&#9;&#9;&#9;c1.6-0.9,3.7-1.2,5,0c1.9,1.6,1.5,5.1,3.7,6.1c2.1,1,4.3-1.3,5.6-3.2c1.3-2,3.8-4,5.8-2.7c0.8,0.6,1.3,1.7,2.3,1.9&#10;&#9;&#9;&#9;c0.7,0.1,1.4-0.4,2-0.8c2.3-1.2,5.1-0.5,7.6,0c2.6,0.5,5.7,0.3,7-2C254.4,128.8,254.1,127,253.8,125.4z" id="HJImyf09axQ"/>
	</g></g>
	<g id="SJvX1f0cplX_H1pUXjaeX" data-animator-group="true" data-animator-type="0"><g id="SJvX1f0cplX">
		<path d="M257.8,100.1c-8.9-24.3-31.9-41.4-56.7-48.5s-51.4-5.3-76.8-0.9c-8.4,1.5-16.9,3.3-24.7,6.9&#10;&#9;&#9;&#9;c-9.7,4.5-18,11.6-25.2,19.6c-10.7,11.8-19.9,25.4-25.8,40.2c51.2,9.3,104.2-7,155.7,0c18.2,2.4,36.6,7.8,54.8,5&#10;&#9;&#9;&#9;C261.7,115.2,260.4,107.2,257.8,100.1z" id="HJuXkG05alX"/>
	</g></g>
	<g id="BJYm1zRqaeQ_r1KYXipgX" data-animator-group="true" data-animator-type="0"><g id="BJYm1zRqaeQ">
		<g id="ry5mkfR5TxQ">
			<path d="M110.7,99.3c-2.6-3.3-7.7-2.9-11.8-2.1c-5.8,1.1-11.5,2.3-17.3,3.4c-1.4,0.3-2.9,0.6-4.3,0.2&#10;&#9;&#9;&#9;&#9;c-1.4-0.4-2.7-1.6-2.7-3.1c0-1.3,1-2.3,1.9-3.1c5.2-5,10.9-9.6,16.9-13.6c3.1-2.1,6.2-4,9.7-5.2c6.1-2.1,12.7-1.9,19.1-2.8&#10;&#9;&#9;&#9;&#9;c6.4-1,13.2-3.7,16-9.4c1.2-2.3,1.6-4.9,1.9-7.5c0.3-2.5,0.4-5.1,0-7.6c-5.3,0.6-10.6,1.4-15.8,2.3c-8.4,1.5-16.9,3.3-24.7,6.9&#10;&#9;&#9;&#9;&#9;c-9.7,4.5-18,11.6-25.2,19.6c-10.7,11.8-19.9,25.4-25.8,40.2c19,3.4,38.3,3.4,57.6,2.3c1.7-3.2,3.2-6.4,4.5-9.8&#10;&#9;&#9;&#9;&#9;C112,106.4,113,102.2,110.7,99.3z" id="BJs7yf05alQ"/>
		</g>
		<g id="rknQyG0cpxQ">
			<path d="M257.8,100.1c-8.5-23.3-30.1-40-53.8-47.6c-4.7,0.3-9.4,1.3-13.8,3.1c-3.7,1.5-7.8,4.5-7.3,8.5&#10;&#9;&#9;&#9;&#9;c0.4,3,3.2,5,5.7,6.6c10.5,6.9,20.8,14.2,30.7,21.9c1.2,0.9,2.5,2,2.8,3.5c0.3,1.2-0.1,2.4-0.2,3.5c-0.3,3.2,1.4,6.3,3.8,8.4&#10;&#9;&#9;&#9;&#9;c2.4,2.1,5.4,3.4,8.4,4.5c8.3,3.2,17.1,5.6,26.1,5.2C261.1,111.9,259.9,105.7,257.8,100.1z" id="HyaXJG05Tem"/>
		</g>
	</g></g>
	<g id="S1R7JGR9plX_rkz1NiTgm" data-animator-group="true" data-animator-type="0"><g id="S1R7JGR9plX">
		<g id="Sk1VkGAq6l7">
			<g id="S1eNyfAq6xX">
				<path d="M150,67.6c1.6-0.7,3.3-0.8,4.9-1.4c1.5-0.6,1.3-2.8-0.4-2.9c-2.1-0.1-4.2,1.3-5.8,2.5&#10;&#9;&#9;&#9;&#9;&#9;C147.6,66.8,149,68.1,150,67.6L150,67.6z" id="SyZVkMC9agX"/>
			</g>
			<g id="r1MEJMA9Tem">
				<path d="M159.4,61.9c0.7,0.9,1.4,1.8,2.5,2.4c1.9,1.1,3.9-1.5,2.3-3c-0.8-0.8-1.9-1.3-2.9-1.8&#10;&#9;&#9;&#9;&#9;&#9;C159.6,58.8,158.3,60.5,159.4,61.9L159.4,61.9z" id="H1m41zR9aeX"/>
			</g>
			<g id="B1V41GR5plX">
				<path d="M148.4,57.3c0.9,0.2,1.7,0.4,2.6,0.6c0.4,0.1,0.8,0.1,1.1,0.2c0.7,0.1,1.2,0,1.9-0.2&#10;&#9;&#9;&#9;&#9;&#9;c1.6-0.3,1.9-2.8,0.5-3.5c-0.6-0.3-1.1-0.6-1.7-0.6c-0.4,0-0.8-0.1-1.2-0.1c-0.9-0.1-1.8-0.1-2.7-0.1&#10;&#9;&#9;&#9;&#9;&#9;C146.8,53.5,146.3,56.7,148.4,57.3L148.4,57.3z" id="HyrEJG0c6l7"/>
			</g>
			<g id="SyUNyfRcalQ">
				<path d="M167.2,56.3c0.8,1.3,1.8,2.6,3.3,3c1.5,0.4,3.4-1.1,2.8-2.8c-0.6-1.5-1.8-2.4-3.2-3.1&#10;&#9;&#9;&#9;&#9;&#9;C168.3,52.5,166.1,54.4,167.2,56.3L167.2,56.3z" id="B1vNJGA5pgm"/>
			</g>
			<g id="H1OVyzA56xm">
				<path d="M175.6,65c1.8,1.4,6.3,1.4,6.3-1.8c0-1.4-1.1-2.2-2.4-2.3c-1,0-1.9,0.4-2.9,0.4c-0.9,0-1.7,0.6-1.9,1.5&#10;&#9;&#9;&#9;&#9;&#9;C174.4,63.7,174.9,64.5,175.6,65L175.6,65z" id="rktNJG0q6x7"/>
			</g>
			<g id="B1cEJM0qaeQ">
				<path d="M183.4,57.7c1.5,0.3,2.7,0.6,4.2,0c1.6-0.7,1.1-2.8,0-3.6c-1-0.8-2.4-0.7-3.6-0.7&#10;&#9;&#9;&#9;&#9;&#9;C181.5,53.2,181,57.1,183.4,57.7L183.4,57.7z" id="SJiVyM096eQ"/>
			</g>
			<g id="ry3EkGR9axQ">
				<path d="M195.8,60.9c1.2,1.2,2.4,2.8,4.2,3c2,0.3,3.5-1.9,2-3.5c-1.1-1.2-2.7-1.5-4.1-2.3&#10;&#9;&#9;&#9;&#9;&#9;C196.2,57.1,194.4,59.5,195.8,60.9L195.8,60.9z" id="Sk6VkM09aem"/>
			</g>
			<g id="HyANJG0qpgQ">
				<path d="M202.6,57.1c0.9,1.2,2.1,2.4,3.6,2.8c2.2,0.6,3.5-2.1,2.1-3.6c-0.8-0.8-1.9-1.4-2.7-2.2&#10;&#9;&#9;&#9;&#9;&#9;c-0.8-0.8-2.2-0.8-3,0C201.7,54.9,201.9,56.2,202.6,57.1L202.6,57.1z" id="S11ryfAcTx7"/>
			</g>
			<g id="r1grkG0q6e7">
				<path d="M185.5,73.4c2.1-0.3,4.4-0.3,6.4-1.2c2.2-1,1-4.4-1.2-4.4c-1.9,0-3.9,0.8-5.7,1.4c-1,0.3-1.7,1.3-1.5,2.3&#10;&#9;&#9;&#9;&#9;&#9;C183.6,72.5,184.5,73.5,185.5,73.4L185.5,73.4z" id="SJbHkfR56eQ"/>
			</g>
			<g id="HJzH1G09axQ">
				<path d="M129.3,58.3c0.7,0.4,1.3,0.8,1.8,1.3c0.8,0.8,1.3,1.5,2.4,1.9c1.4,0.6,2.6-0.8,2.8-2.1&#10;&#9;&#9;&#9;&#9;&#9;c0.2-1.6-1.2-2.9-2.4-3.7c-1.1-0.8-2.3-1.1-3.6-1.2C128.3,54.4,127.6,57.4,129.3,58.3L129.3,58.3z" id="SymBkfA9ae7"/>
			</g>
			<g id="S1ESkMCc6g7">
				<path d="M121.6,67.4c2.3,1,5,1.3,7.1-0.3c1.5-1.2,0.3-4-1.6-3.9c-1.3,0.1-2.6,0.8-3.9,0.6c-1-0.1-2,0.2-2.4,1.2&#10;&#9;&#9;&#9;&#9;&#9;C120.5,65.7,120.7,66.9,121.6,67.4L121.6,67.4z" id="S1rS1zR5Tem"/>
			</g>
			<g id="S18HyzC9agm">
				<path d="M116.2,60.1c1.5,0.3,3,0.7,4.6,0.8c1.1,0.1,2.1-0.9,2.2-1.9c0.1-1.2-0.5-2.1-1.6-2.5&#10;&#9;&#9;&#9;&#9;&#9;c-1.5-0.5-3.1-0.5-4.7-0.3c-1,0.1-1.8,0.7-1.9,1.7C114.7,58.8,115.2,59.9,116.2,60.1L116.2,60.1z" id="SkPSyGCc6lm"/>
			</g>
			<g id="Sk_r1zR5TlQ">
				<path d="M138.5,53.9c1.1,1.1,2.3,2,3.9,2.3c1,0.2,2.1-0.2,2.6-1.3c0.4-0.9,0.1-2.2-0.9-2.7&#10;&#9;&#9;&#9;&#9;&#9;c-1.2-0.6-2.5-0.9-3.8-1.4C138.5,50.3,137.2,52.7,138.5,53.9L138.5,53.9z" id="BJtHJGAc6l7"/>
			</g>
			<g id="HJ9B1MR9TeQ">
				<path d="M151.1,50.2c1.6,0.8,3.3,1.6,5.1,1.9c1.2,0.2,2.3-0.2,2.8-1.4c0.4-1,0.1-2.5-1-3c-1.9-0.8-3.8-1.1-5.9-1.3&#10;&#9;&#9;&#9;&#9;&#9;C150.2,46.2,149.4,49.4,151.1,50.2L151.1,50.2z" id="H1oHyM05TeX"/>
			</g>
			<g id="Bk2rJzCqTg7">
				<path d="M167.8,46.7c0.1,1.2,0.4,2.1,1,3.2c0.5,1,1,2.1,2.1,2.6c1.2,0.5,3,0.2,3.2-1.3c0.4-2.4-1.4-4.8-3.2-6.2&#10;&#9;&#9;&#9;&#9;&#9;C169.7,44,167.7,45.2,167.8,46.7L167.8,46.7z" id="rk6ryGA9pem"/>
			</g>
			<g id="SJ0BkzRcTgm">
				<path d="M185.7,46.5c-1.4,0.9-2.6,1.8-3.5,3.1c-1.3,1.9,1.3,4.6,3.2,3.2c0.7-0.5,1.2-1,1.7-1.7&#10;&#9;&#9;&#9;&#9;&#9;c0.6-0.6,0.9-1.2,1.3-2C189.4,47.5,187.4,45.4,185.7,46.5L185.7,46.5z" id="BJ1IyM0cTgm"/>
			</g>
			<g id="rJgLyGAcTgQ">
				<path d="M127.5,50c2,0.6,4,1.6,6.1,1.4c2.4-0.2,2.9-3.4,0.6-4.3c-2-0.7-4.2-0.3-6.3-0.2&#10;&#9;&#9;&#9;&#9;&#9;C126.2,47.1,125.9,49.5,127.5,50L127.5,50z" id="SybU1GCcTlX"/>
			</g>
			<g id="B1zLyzA5px7">
				<path d="M206.5,68c0.8,0.2,1.3,0.5,2.1,0.7c1.8,0.6,3.8-1.7,2.6-3.3c-1.3-1.7-3.2-2.1-5.2-1.2&#10;&#9;&#9;&#9;&#9;&#9;C204.4,65,204.8,67.7,206.5,68L206.5,68z" id="HJmLkM0q6xQ"/>
			</g>
			<g id="BJN8kzCc6gX">
				<path d="M218.1,62.8c1.7,1.5,4.4,2.7,6.6,1.4c1.4-0.8,1.5-3.1,0-3.8c-1.4-0.7-3.2-0.6-4.7-0.9&#10;&#9;&#9;&#9;&#9;&#9;C218.2,59.1,216.4,61.5,218.1,62.8L218.1,62.8z" id="rJHU1zA5pxm"/>
			</g>
			<g id="S1ILkGRc6em">
				<path d="M103.6,58c1.9,0.3,4.1,0.8,6,0.4c2.4-0.5,2-3.8,0-4.5c-2-0.7-4.5,0.1-6.4,0.9&#10;&#9;&#9;&#9;&#9;&#9;C101.8,55.4,102.1,57.8,103.6,58L103.6,58z" id="rywIJzAcTgQ"/>
			</g>
			<g id="Hk_LyM09plm">
				<path d="M100.2,67c2,0.2,4.2,0.8,6-0.2c1.7-1,1.3-3.5-0.5-4.1c-1.8-0.5-3.7,0.3-5.5,0.2c-1.1,0-2.1,1-2.1,2.1&#10;&#9;&#9;&#9;&#9;&#9;C98.2,66.2,99.1,66.9,100.2,67L100.2,67z" id="B1tLJMC9plQ"/>
			</g>
			<g id="S1cL1M0qTxQ">
				<path d="M143.3,82.2c0.1,0,0.1-0.1,0-0.1S143.2,82.2,143.3,82.2L143.3,82.2z" id="SkjIJfCqpeX"/>
			</g>
			<g id="SkhIJzRqTg7">
				<path d="M143.4,80.8c0.7,0.8,1.3,1.5,2.3,1.9c1.2,0.5,2.8,0.6,3.5-0.7c0.6-1.1,0-2.3-1-2.9&#10;&#9;&#9;&#9;&#9;&#9;c-0.8-0.5-1.7-0.7-2.5-1.2c-0.8-0.5-1.9-0.2-2.4,0.5C142.7,79.1,142.8,80.1,143.4,80.8L143.4,80.8z" id="H16UkGRcpgX"/>
			</g>
			<g id="SyCIkfC9pxX">
				<path d="M174,97.4c1.6-0.2,3.1,0.3,4.7-0.2c2-0.6,2.2-3.7,0-4.3c-2.1-0.6-3.7,0.4-5.5,1.2&#10;&#9;&#9;&#9;&#9;&#9;C171.5,94.8,172.3,97.6,174,97.4L174,97.4z" id="SkywJzA96eQ"/>
			</g>
			<g id="HJeDJfCqpxm">
				<path d="M146.2,99.7c1,0.4,1.9,0.9,2.9,1.2c0.6,0.2,1.4,0,1.8-0.5c0,0,0.1-0.1,0.1-0.1c-0.2,0.1-0.4,0.3-0.7,0.4&#10;&#9;&#9;&#9;&#9;&#9;c1.2-0.3,1.5-1.2,0.9-2.2c0.1,0.3,0.1,0.5,0.2,0.8c0,0,0-0.1,0-0.1c0-0.6-0.3-1.3-0.9-1.6c-1-0.5-2-0.8-2.9-1.2&#10;&#9;&#9;&#9;&#9;&#9;C145.7,95.6,144.3,98.9,146.2,99.7L146.2,99.7z" id="BkbvJfRcag7"/>
			</g>
			<g id="BJfwyz0c6em">
				<path d="M234.2,89.2c1.6,1.4,3.2,3.3,5.5,3.5c1.6,0.1,2.8-2,1.9-3.3c-1.3-1.9-3.8-2.3-5.9-2.9&#10;&#9;&#9;&#9;&#9;&#9;C234.3,86,233,88.1,234.2,89.2L234.2,89.2z" id="H17wkMCcalQ"/>
			</g>
		</g>
	</g></g>
	<g id="HJ4vkfA5pgm_Hk6Z4oTx7" data-animator-group="true" data-animator-type="0"><g id="HJ4vkfA5pgm">
		<g id="rySv1MR5axQ">
			<g id="HJUPkzAqalX">
				<path d="M150,65.5c1.6-0.7,3.3-0.8,4.9-1.4c1.5-0.6,1.3-2.8-0.4-2.9c-2.1-0.1-4.2,1.3-5.8,2.5&#10;&#9;&#9;&#9;&#9;&#9;C147.6,64.6,149,65.9,150,65.5L150,65.5z" id="HJDvyfAc6x7"/>
			</g>
			<g id="B1_P1f0qpl7">
				<path d="M159.4,59.8c0.7,0.9,1.4,1.8,2.5,2.4c1.9,1.1,3.9-1.5,2.3-3c-0.8-0.8-1.9-1.3-2.9-1.8&#10;&#9;&#9;&#9;&#9;&#9;C159.6,56.7,158.3,58.4,159.4,59.8L159.4,59.8z" id="HyFwkz0qaem"/>
			</g>
			<g id="SJ5wkz0qTxm">
				<path d="M148.4,55.1c0.9,0.2,1.7,0.4,2.6,0.6c0.4,0.1,0.8,0.1,1.1,0.2c0.7,0.1,1.2,0,1.9-0.2&#10;&#9;&#9;&#9;&#9;&#9;c1.6-0.3,1.9-2.8,0.5-3.5c-0.6-0.3-1.1-0.6-1.7-0.6c-0.4,0-0.8-0.1-1.2-0.1c-0.9-0.1-1.8-0.1-2.7-0.1&#10;&#9;&#9;&#9;&#9;&#9;C146.8,51.3,146.3,54.6,148.4,55.1L148.4,55.1z" id="SkjvkMC5TeQ"/>
			</g>
			<g id="S1nw1GCcTe7">
				<path d="M167.2,54.1c0.8,1.3,1.8,2.6,3.3,3c1.5,0.4,3.4-1.1,2.8-2.8c-0.6-1.5-1.8-2.4-3.2-3.1&#10;&#9;&#9;&#9;&#9;&#9;C168.3,50.4,166.1,52.2,167.2,54.1L167.2,54.1z" id="rkTv1MC5agQ"/>
			</g>
			<g id="SJCvkfCqTeQ">
				<path d="M175.6,62.9c1.8,1.4,6.3,1.4,6.3-1.8c0-1.4-1.1-2.2-2.4-2.3c-1,0-1.9,0.4-2.9,0.4c-0.9,0-1.7,0.6-1.9,1.5&#10;&#9;&#9;&#9;&#9;&#9;C174.4,61.5,174.9,62.3,175.6,62.9L175.6,62.9z" id="r1y_kzRqaxQ"/>
			</g>
			<g id="BygOkf0qaxQ">
				<path d="M183.4,55.5c1.5,0.3,2.7,0.6,4.2,0c1.6-0.7,1.1-2.8,0-3.6c-1-0.8-2.4-0.7-3.6-0.7&#10;&#9;&#9;&#9;&#9;&#9;C181.5,51,181,55,183.4,55.5L183.4,55.5z" id="SJZukfRcpxX"/>
			</g>
			<g id="BkMOkGAcpeQ">
				<path d="M195.8,58.7c1.2,1.2,2.4,2.8,4.2,3c2,0.3,3.5-1.9,2-3.5c-1.1-1.2-2.7-1.5-4.1-2.3&#10;&#9;&#9;&#9;&#9;&#9;C196.2,55,194.4,57.4,195.8,58.7L195.8,58.7z" id="ryQOkfAq6x7"/>
			</g>
			<g id="SkNO1MR9pe7">
				<path d="M202.6,54.9c0.9,1.2,2.1,2.4,3.6,2.8c2.2,0.6,3.5-2.1,2.1-3.6c-0.8-0.8-1.9-1.4-2.7-2.2&#10;&#9;&#9;&#9;&#9;&#9;c-0.8-0.8-2.2-0.8-3,0C201.7,52.8,201.9,54,202.6,54.9L202.6,54.9z" id="HkHOJz05alQ"/>
			</g>
			<g id="SkLuyfA5plX">
				<path d="M185.5,71.3c2.1-0.3,4.4-0.3,6.4-1.2c2.2-1,1-4.4-1.2-4.4c-1.9,0-3.9,0.8-5.7,1.4c-1,0.3-1.7,1.3-1.5,2.3&#10;&#9;&#9;&#9;&#9;&#9;C183.6,70.4,184.5,71.4,185.5,71.3L185.5,71.3z" id="SkPdJGC9TlQ"/>
			</g>
			<g id="ByOOkfA5TlX">
				<path d="M129.3,56.1c0.7,0.4,1.3,0.8,1.8,1.3c0.8,0.8,1.3,1.5,2.4,1.9c1.4,0.6,2.6-0.8,2.8-2.1&#10;&#9;&#9;&#9;&#9;&#9;c0.2-1.6-1.2-2.9-2.4-3.7c-1.1-0.8-2.3-1.1-3.6-1.2C128.3,52.2,127.6,55.2,129.3,56.1L129.3,56.1z" id="S1Yd1GRqTlQ"/>
			</g>
			<g id="ry5_1zCq6x7">
				<path d="M121.6,65.2c2.3,1,5,1.3,7.1-0.3c1.5-1.2,0.3-4-1.6-3.9c-1.3,0.1-2.6,0.8-3.9,0.6c-1-0.1-2,0.2-2.4,1.2&#10;&#9;&#9;&#9;&#9;&#9;C120.5,63.5,120.7,64.8,121.6,65.2L121.6,65.2z" id="BJsd1zC5pgX"/>
			</g>
			<g id="r12OkG0cTgX">
				<path d="M116.2,58c1.5,0.3,3,0.7,4.6,0.8c1.1,0.1,2.1-0.9,2.2-1.9c0.1-1.2-0.5-2.1-1.6-2.5&#10;&#9;&#9;&#9;&#9;&#9;c-1.5-0.5-3.1-0.5-4.7-0.3c-1,0.1-1.8,0.7-1.9,1.7C114.7,56.7,115.2,57.8,116.2,58L116.2,58z" id="H16_kfCc6gm"/>
			</g>
			<g id="S10u1MA96lm">
				<path d="M138.5,51.7c1.1,1.1,2.3,2,3.9,2.3c1,0.2,2.1-0.2,2.6-1.3c0.4-0.9,0.1-2.2-0.9-2.7&#10;&#9;&#9;&#9;&#9;&#9;c-1.2-0.6-2.5-0.9-3.8-1.4C138.5,48.1,137.2,50.6,138.5,51.7L138.5,51.7z" id="S11FyGCq6g7"/>
			</g>
			<g id="BJxKyfCq6e7">
				<path d="M151.1,48.1c1.6,0.8,3.3,1.6,5.1,1.9c1.2,0.2,2.3-0.2,2.8-1.4c0.4-1,0.1-2.5-1-3c-1.9-0.8-3.8-1.1-5.9-1.3&#10;&#9;&#9;&#9;&#9;&#9;C150.2,44,149.4,47.2,151.1,48.1L151.1,48.1z" id="S1btkM09pe7"/>
			</g>
			<g id="HyzFJM0qpeQ">
				<path d="M167.8,44.5c0.1,1.2,0.4,2.1,1,3.2c0.5,1,1,2.1,2.1,2.6c1.2,0.5,3,0.2,3.2-1.3c0.4-2.4-1.4-4.8-3.2-6.2&#10;&#9;&#9;&#9;&#9;&#9;C169.7,41.8,167.7,43.1,167.8,44.5L167.8,44.5z" id="B17K1zR5plm"/>
			</g>
			<g id="SyVKyzRqTlX">
				<path d="M185.7,44.3c-1.4,0.9-2.6,1.8-3.5,3.1c-1.3,1.9,1.3,4.6,3.2,3.2c0.7-0.5,1.2-1,1.7-1.7&#10;&#9;&#9;&#9;&#9;&#9;c0.6-0.6,0.9-1.2,1.3-2C189.4,45.3,187.4,43.2,185.7,44.3L185.7,44.3z" id="HkStkGR5ae7"/>
			</g>
			<g id="SJUY1f0qTx7">
				<path d="M127.5,47.9c2,0.6,4,1.6,6.1,1.4c2.4-0.2,2.9-3.4,0.6-4.3c-2-0.7-4.2-0.3-6.3-0.2&#10;&#9;&#9;&#9;&#9;&#9;C126.2,45,125.9,47.4,127.5,47.9L127.5,47.9z" id="HkDtJz0qplX"/>
			</g>
			<g id="HJOtkMA56eX">
				<path d="M206.5,65.9c0.8,0.2,1.3,0.5,2.1,0.7c1.8,0.6,3.8-1.7,2.6-3.3c-1.3-1.7-3.2-2.1-5.2-1.2&#10;&#9;&#9;&#9;&#9;&#9;C204.4,62.8,204.8,65.5,206.5,65.9L206.5,65.9z" id="BktYkMCq6e7"/>
			</g>
			<g id="S1ctyG09TxQ">
				<path d="M218.1,60.7c1.7,1.5,4.4,2.7,6.6,1.4c1.4-0.8,1.5-3.1,0-3.8c-1.4-0.7-3.2-0.6-4.7-0.9&#10;&#9;&#9;&#9;&#9;&#9;C218.2,57,216.4,59.3,218.1,60.7L218.1,60.7z" id="HJjYkz09TgQ"/>
			</g>
			<g id="rJhFyMA96e7">
				<path d="M103.6,55.9c1.9,0.3,4.1,0.8,6,0.4c2.4-0.5,2-3.8,0-4.5c-2-0.7-4.5,0.1-6.4,0.9&#10;&#9;&#9;&#9;&#9;&#9;C101.8,53.2,102.1,55.6,103.6,55.9L103.6,55.9z" id="S16FJM0c6lQ"/>
			</g>
			<g id="BkAFkzCc6e7">
				<path d="M100.2,64.9c2,0.2,4.2,0.8,6-0.2c1.7-1,1.3-3.5-0.5-4.1c-1.8-0.5-3.7,0.3-5.5,0.2c-1.1,0-2.1,1-2.1,2.1&#10;&#9;&#9;&#9;&#9;&#9;C98.2,64,99.1,64.8,100.2,64.9L100.2,64.9z" id="SJkqkz0qTl7"/>
			</g>
			<g id="SyeckGRq6lX">
				<path d="M143.3,80c0.1,0,0.1-0.1,0-0.1S143.2,80,143.3,80L143.3,80z" id="HkZ51MCc6xX"/>
			</g>
			<g id="HkzcJGAcplQ">
				<path d="M143.4,78.6c0.7,0.8,1.3,1.5,2.3,1.9c1.2,0.5,2.8,0.6,3.5-0.7c0.6-1.1,0-2.3-1-2.9&#10;&#9;&#9;&#9;&#9;&#9;c-0.8-0.5-1.7-0.7-2.5-1.2c-0.8-0.5-1.9-0.2-2.4,0.5C142.7,76.9,142.8,77.9,143.4,78.6L143.4,78.6z" id="SyX9kf09peQ"/>
			</g>
			<g id="r1NcJzAcTlX">
				<path d="M174,95.2c1.6-0.2,3.1,0.3,4.7-0.2c2-0.6,2.2-3.7,0-4.3c-2.1-0.6-3.7,0.4-5.5,1.2&#10;&#9;&#9;&#9;&#9;&#9;C171.5,92.7,172.3,95.4,174,95.2L174,95.2z" id="BkS5kMC5peX"/>
			</g>
			<g id="ry8q1f05TxX">
				<path d="M146.2,97.5c1,0.4,1.9,0.9,2.9,1.2c0.6,0.2,1.4,0,1.8-0.5c0,0,0.1-0.1,0.1-0.1c-0.2,0.1-0.4,0.3-0.7,0.4&#10;&#9;&#9;&#9;&#9;&#9;c1.2-0.3,1.5-1.2,0.9-2.2c0.1,0.3,0.1,0.5,0.2,0.8c0,0,0-0.1,0-0.1c0-0.6-0.3-1.3-0.9-1.6c-1-0.5-2-0.8-2.9-1.2&#10;&#9;&#9;&#9;&#9;&#9;C145.7,93.5,144.3,96.7,146.2,97.5L146.2,97.5z" id="rJDckzAc6gX"/>
			</g>
			<g id="rk_9JMA5pxm">
				<path d="M234.2,87.1c1.6,1.4,3.2,3.3,5.5,3.5c1.6,0.1,2.8-2,1.9-3.3c-1.3-1.9-3.8-2.3-5.9-2.9&#10;&#9;&#9;&#9;&#9;&#9;C234.3,83.8,233,86,234.2,87.1L234.2,87.1z" id="BJFcyG0cTlQ"/>
			</g>
		</g>
	</g></g>
	<g id="H19qkfR9TxQ_BJhVVoagX" data-animator-group="true" data-animator-type="0"><g id="H19qkfR9TxQ">
		<g id="r1s9yMCcpxX">
			<path d="M59,122.8c-5.5,1-4.9,7.1,0.3,8.4c3.5,0.9,7.2-0.7,10.5-1.8c4.2-1.3,9.1-1.5,12.8-3.9&#10;&#9;&#9;&#9;&#9;c1.3-0.9,1-2.7-0.4-3.2c-3.5-1.3-7.2-0.4-10.7,0.5c-1.9,0.5-3.8,1.1-5.6,1.8c-0.9,0.3-8.4,3.1-6.4-1.1&#10;&#9;&#9;&#9;&#9;C59.7,123.1,59.4,122.7,59,122.8L59,122.8z" id="SJh9kzRqax7"/>
		</g>
		<g id="SJpckzC96gQ">
			<path d="M100.9,126.3c4.9,0.8,3.6,5.3,7.3,7.6c3.5,2.1,6.7,0.6,9.9-1c2.2-1.1,2.9-1.7,5.6-1.3&#10;&#9;&#9;&#9;&#9;c1.9,0.3,3.1,0.9,5,0.4c3-0.7,5.2-2.6,4.7-5.7c-0.1-0.7-0.9-0.9-1.5-0.9c-3.6,0.5-3.3,1.7-7.8,0.4c-1-0.3-2-0.9-3.1-0.8&#10;&#9;&#9;&#9;&#9;c-0.9,0-2.3,0.7-2.9,1.1c-2.9,1.9-2.4,3.9-6.3,2.2c-3.1-1.3-1.9-1.6-3.6-3.5c-0.5-0.6-1.3-1.1-2.1-1.4c-2.2-0.7-3.8,0.5-5.5,1.8&#10;&#9;&#9;&#9;&#9;C100.3,125.6,100.5,126.3,100.9,126.3L100.9,126.3z" id="HyAckfA9Tlm"/>
		</g>
		<g id="Hy1o1zAq6em">
			<path d="M154.8,123.3c5.8-1.3,11.1-3.3,16.9-1.1c3.8,1.5,5,4.5,8.5,6.1c1.4,0.7,3.3,0.8,4.9,0.6&#10;&#9;&#9;&#9;&#9;c3.7-0.3,4.8-1.8,8.9-1c4,0.8,3.1,0.4,5.7,2.2c1.2,0.8,3-0.3,2.9-1.7c-1.1-12.9-15.7-4.1-22.1-7.3c-3.8-1.9-5.2-4.5-9.9-5.1&#10;&#9;&#9;&#9;&#9;c-6.2-0.8-11.7,1.9-16.7,5.2C152.9,121.9,153.6,123.5,154.8,123.3L154.8,123.3z" id="BJxo1MRqaxQ"/>
		</g>
		<g id="rJZiJzC5aeX">
			<path d="M199.4,134.6c1,6.5,13.3-3.1,14.5-5.7c0.2-0.5,0-1.2-0.7-1.2c-2.5,0.2-4.4,2-6.4,3.4c-1,0.7-2,1.5-3,2.1&#10;&#9;&#9;&#9;&#9;c-1.2,0.7-2.6,0.8-4,0.9C199.5,134.1,199.3,134.3,199.4,134.6L199.4,134.6z" id="HJGjyMC96xQ"/>
		</g>
		<g id="HyQjJf05pgX">
			<path d="M218.6,126.9c4,0,1.9,1.7,4.3,3.7c1.4,1.2,3.2,1.5,4.9,1c3.2-1,3.3-3,7.7-2.5c2.5,0.3,3.8,1.3,6,0&#10;&#9;&#9;&#9;&#9;c0.4-0.2,0.6-0.9,0.3-1.3c-2.2-3.2-9-4.2-12.4-2.2c-2.1,1.2-2.4,1.5-4.6-0.1c-0.6-0.4-0.6-1.1-1.5-1.4c-1.8-0.8-3.7,0.4-5.2,1.4&#10;&#9;&#9;&#9;&#9;C217.5,125.8,217.8,126.9,218.6,126.9L218.6,126.9z" id="HyVskGA9peQ"/>
		</g>
	</g></g>
</g></g>
<script>(function(){var a=document.querySelector('#BkJzRqTxX'),b=a.querySelectorAll('style'),c=function(d){b.forEach(function(f){var g=f.textContent;g&amp;&amp;(f.textContent=g.replace(/transform-box:[^;\r\n]*/gi,'transform-box: '+d))})};c('initial'),window.requestAnimationFrame(function(){return c('fill-box')})})();</script></svg>
