<svg id="Layer_1" data-name="Layer 1" xmlns="http://www.w3.org/2000/svg" viewBox="0 0 43.25 154.51"><title>large_bottle</title><path d="M42,133a9.66,9.66,0,0,1,.11-1.23H69.08a8.12,8.12,0,0,1,.11,1.23v14.69c-.13,2.42-.32,4.57-.55,6.44a33.51,33.51,0,0,1-1.27,6.26,8.13,8.13,0,0,1-.46.84l-.23.36a45.49,45.49,0,0,0-22.12,0c-.07-.11-.15-.23-.22-.36a6.61,6.61,0,0,1-.47-.84,32.61,32.61,0,0,1-1.28-6.26q-.35-2.81-.55-6.44ZM64.32,21.26H50v.66H47v-.66l1.16-.68h15Zm-3,1.33h1.82v1.57L74.38,42.49a23.94,23.94,0,0,1,2.85,11.13v8a5,5,0,0,1-.44,2.07,2.37,2.37,0,0,1-.8.91v65.83c.54.12.91.57,1.1,1.35a6,6,0,0,1,.14,1.23v14.69a64.81,64.81,0,0,1-.79,6.44,24.64,24.64,0,0,1-1.82,6.26,10.22,10.22,0,0,1-.64.84q-.19.23-.39.42a3.83,3.83,0,0,1-2.54,1.16h-1.9a3.81,3.81,0,0,0,2.53-1.16q.19-.19.39-.42a10.22,10.22,0,0,0,.64-.84,24.61,24.61,0,0,0,1.83-6.26q.49-2.81.78-6.44V133a6,6,0,0,0-.14-1.23c-.19-.78-.56-1.23-1.09-1.35l0-65.83a2.37,2.37,0,0,0,.8-.91,4.82,4.82,0,0,0,.44-2.07v-8a23.94,23.94,0,0,0-2.85-11.13L61.25,24.16h.09ZM50,22.59v1.57h0L38.76,42.49a24.06,24.06,0,0,0-2.84,11.13v8a4.83,4.83,0,0,0,.43,2.07,2.45,2.45,0,0,0,.8.91v65.83q-.81.18-1.11,1.35A6,6,0,0,0,35.9,133v14.69c.19,2.42.46,4.57.79,6.44a25.06,25.06,0,0,0,1.82,6.26q1.6,2.37,3.58,2.42H40.18c-1.32,0-2.51-.84-3.58-2.42a25.06,25.06,0,0,1-1.82-6.26c-.33-1.87-.6-4-.79-6.44V133c0-1.55.46-2.41,1.24-2.58V64.61a2.45,2.45,0,0,1-.8-.91A5,5,0,0,1,34,61.63v-8a24.06,24.06,0,0,1,2.84-11.13L48.2,24V22.59Zm2.32,0H59v1.57h.31l7.85,18.33a32.52,32.52,0,0,1,2,11.13v8a6.74,6.74,0,0,1-.31,2.07H42.36a6.48,6.48,0,0,1-.3-2.07v-8a32.29,32.29,0,0,1,2-11.13l7.84-18.33h.44Zm16,43.77v62.17H42.91V66.36Z" transform="translate(-33.99 -8.32)" style="fill:#c4e7fb;fill-rule:evenodd"/><path d="M62.89,20.58H59V19.46h3.86Zm-3.86,2H48.2L47,21.92H64.32l-1.16.67H59Z" transform="translate(-33.99 -8.32)" style="fill:#42b0f2;fill-rule:evenodd"/><path d="M59,20.58H48.48V19.46H59ZM42.09,162.83q-2,0-3.58-2.42a25.06,25.06,0,0,1-1.82-6.26c-.33-1.87-.6-4-.79-6.44V133a6,6,0,0,1,.14-1.23q.3-1.17,1.11-1.35V64.61a2.45,2.45,0,0,1-.8-.91,4.83,4.83,0,0,1-.43-2.07v-8a24.06,24.06,0,0,1,2.84-11.13L50,24.16h1.89L44.05,42.49a32.29,32.29,0,0,0-2,11.13v8a6.48,6.48,0,0,0,.3,2.07H68.87a6.74,6.74,0,0,0,.31-2.07v-8a32.52,32.52,0,0,0-2-11.13L59.34,24.16H59V22.59h2.31v1.57h-.09L72.47,42.49a23.94,23.94,0,0,1,2.85,11.13v8a4.82,4.82,0,0,1-.44,2.07,2.37,2.37,0,0,1-.8.91l0,65.83c.53.12.9.57,1.09,1.35a6,6,0,0,1,.14,1.23v14.69q-.28,3.63-.78,6.44a24.61,24.61,0,0,1-1.83,6.26,10.22,10.22,0,0,1-.64.84q-.19.23-.39.42a3.81,3.81,0,0,1-2.53,1.16ZM64.32,21.26v.66h-12v-.66ZM42,133v14.69q.21,3.63.55,6.44a32.61,32.61,0,0,0,1.28,6.26,6.61,6.61,0,0,0,.47.84c.07.13.15.25.22.36a45.49,45.49,0,0,1,22.12,0l.23-.36a8.13,8.13,0,0,0,.46-.84,33.51,33.51,0,0,0,1.27-6.26c.23-1.87.42-4,.55-6.44V133a8.12,8.12,0,0,0-.11-1.23H42.15A9.66,9.66,0,0,0,42,133ZM68.32,66.36H42.91v62.17H68.32Z" transform="translate(-33.99 -8.32)" style="fill:#96d3f8;fill-rule:evenodd"/><path d="M50,24.16V22.59h2.32v1.57H50Zm2.32-2.24H50v-.66h2.32Z" transform="translate(-33.99 -8.32)" style="fill:#fff;fill-rule:evenodd"/><path d="M61.48,24.34l1.8,3.45a23.53,23.53,0,0,0-7.36-1.1,23.19,23.19,0,0,0-8.11,1.36l1.87-3.71Z" transform="translate(-33.99 -8.32)" style="fill:#42b0f2;fill-rule:evenodd"/><path d="M42.07,53.62a32.24,32.24,0,0,1,2-11.13l7.81-18.24H53.7c-.59,2.62-1.19,5.24-1.78,7.86L49.65,42.49a58.66,58.66,0,0,0-1,10.54v8.6a6.93,6.93,0,0,0,.45,3v65.83q-.41.25-.45,2.31v15c.11,4,.29,7.24.54,9.73H46.41c-.94,0-1.78-.8-2.53-2.33q-1.34-3.81-1.82-12.2V133c0-1.55.32-2.41.87-2.59V64.6a4.15,4.15,0,0,1-.86-3Z" transform="translate(-33.99 -8.32)" style="fill:#fff;fill-rule:evenodd"/><path d="M58.21,160.83c.84,0,1.25-.12,1.25-.39s-.43-.5-1.28-.7a14.06,14.06,0,0,0-3.06-.29,14.29,14.29,0,0,0-3.07.29c-.84.2-1.26.43-1.26.7s.43.39,1.29.37,1.9,0,3.09,0Zm3.11.39-6.08-.06q-3.6,0-6.19,0c-1.73,0-2.59-.21-2.59-.75s.84-1,2.53-1.39a27.89,27.89,0,0,1,6.14-.58,27.67,27.67,0,0,1,6.13.58c1.7.39,2.55.85,2.55,1.39S63,161.23,61.32,161.22Z" transform="translate(-33.99 -8.32)" style="fill:#42b0f2;fill-rule:evenodd"/><path d="M58.21,160.83l-3,0c-1.19,0-2.22,0-3.09,0s-1.29-.1-1.29-.37.42-.5,1.26-.7a14.29,14.29,0,0,1,3.07-.29,14.06,14.06,0,0,1,3.06.29c.85.2,1.28.43,1.28.7S59.05,160.84,58.21,160.83Z" transform="translate(-33.99 -8.32)" style="fill:#96d3f8;fill-rule:evenodd"/><path d="M75.21,62.58a2.26,2.26,0,0,1-2.25,2H38a2.26,2.26,0,0,1-2.25-2Z" transform="translate(-33.99 -8.32)" style="fill:#42b0f2;fill-rule:evenodd"/><path d="M38.17,130.49a2.14,2.14,0,0,0-1.59.67,2.17,2.17,0,0,0-.66,1.33h39.5a2.17,2.17,0,0,0-.66-1.33,2.14,2.14,0,0,0-1.6-.67Z" transform="translate(-33.99 -8.32)" style="fill:#fff;fill-rule:evenodd"/><path d="M63.75,10h-11a3.26,3.26,0,0,0-.46,1.72v3.64H50V11.68A3.27,3.27,0,0,1,50.48,10H47.61a4.17,4.17,0,0,1,.53-.68,3.31,3.31,0,0,1,2.39-1H60.84a3.31,3.31,0,0,1,2.39,1A4.09,4.09,0,0,1,63.75,10ZM52.33,16.72v2.74H50V16.72Z" transform="translate(-33.99 -8.32)" style="fill:#89baeb;fill-rule:evenodd"/><path d="M61.34,15.94H47.16V11.68A3.35,3.35,0,0,1,47.61,10h2.87A3.27,3.27,0,0,0,50,11.68v3.64h2.32V11.68A3.26,3.26,0,0,1,52.79,10h8.1a3.35,3.35,0,0,1,.45,1.72ZM50,16.72v2.74H47.16V16.72H50Zm2.32,0H64.2v.52H61.34v2.22h-9Z" transform="translate(-33.99 -8.32)" style="fill:#3187dd;fill-rule:evenodd"/><polygon points="29.74 8.4 18.34 8.4 16.02 8.4 13.63 8.4 13.63 7.62 27.35 7.62 29.74 7.62 29.74 8.4" style="fill:#13406c;fill-rule:evenodd"/><path d="M63.73,15.94H61.34V11.68A3.35,3.35,0,0,0,60.89,10h2.86a3.35,3.35,0,0,1,.45,1.72v4.26Zm-2.39,3.52V17.24H64.2v2.22Z" transform="translate(-33.99 -8.32)" style="fill:#1e65ac;fill-rule:evenodd"/></svg>