<svg id="el_Ugri1Ip7t" data-name="Layer 1" xmlns="http://www.w3.org/2000/svg" viewBox="0 0 214 261"><style>@-webkit-keyframes el_HsAvHiq2rBz_a2HbQ83hz_Animation{0%{-webkit-transform: translate(62.83980178833008px, 65.4100227355957px) scale(0, 0) translate(-62.83980178833008px, -65.4100227355957px);transform: translate(62.83980178833008px, 65.4100227355957px) scale(0, 0) translate(-62.83980178833008px, -65.4100227355957px);}44%{-webkit-transform: translate(62.83980178833008px, 65.4100227355957px) scale(0.8, 0.8) translate(-62.83980178833008px, -65.4100227355957px);transform: translate(62.83980178833008px, 65.4100227355957px) scale(0.8, 0.8) translate(-62.83980178833008px, -65.4100227355957px);}72.67%{-webkit-transform: translate(62.83980178833008px, 65.4100227355957px) scale(0.5, 0.5) translate(-62.83980178833008px, -65.4100227355957px);transform: translate(62.83980178833008px, 65.4100227355957px) scale(0.5, 0.5) translate(-62.83980178833008px, -65.4100227355957px);}100%{-webkit-transform: translate(62.83980178833008px, 65.4100227355957px) scale(1, 1) translate(-62.83980178833008px, -65.4100227355957px);transform: translate(62.83980178833008px, 65.4100227355957px) scale(1, 1) translate(-62.83980178833008px, -65.4100227355957px);}}@keyframes el_HsAvHiq2rBz_a2HbQ83hz_Animation{0%{-webkit-transform: translate(62.83980178833008px, 65.4100227355957px) scale(0, 0) translate(-62.83980178833008px, -65.4100227355957px);transform: translate(62.83980178833008px, 65.4100227355957px) scale(0, 0) translate(-62.83980178833008px, -65.4100227355957px);}44%{-webkit-transform: translate(62.83980178833008px, 65.4100227355957px) scale(0.8, 0.8) translate(-62.83980178833008px, -65.4100227355957px);transform: translate(62.83980178833008px, 65.4100227355957px) scale(0.8, 0.8) translate(-62.83980178833008px, -65.4100227355957px);}72.67%{-webkit-transform: translate(62.83980178833008px, 65.4100227355957px) scale(0.5, 0.5) translate(-62.83980178833008px, -65.4100227355957px);transform: translate(62.83980178833008px, 65.4100227355957px) scale(0.5, 0.5) translate(-62.83980178833008px, -65.4100227355957px);}100%{-webkit-transform: translate(62.83980178833008px, 65.4100227355957px) scale(1, 1) translate(-62.83980178833008px, -65.4100227355957px);transform: translate(62.83980178833008px, 65.4100227355957px) scale(1, 1) translate(-62.83980178833008px, -65.4100227355957px);}}@-webkit-keyframes el_HsAvHiq2rBz_Animation{0%{opacity: 0;}55.33%{opacity: 1;}74.67%{opacity: 0;}100%{opacity: 0;}}@keyframes el_HsAvHiq2rBz_Animation{0%{opacity: 0;}55.33%{opacity: 1;}74.67%{opacity: 0;}100%{opacity: 0;}}@-webkit-keyframes el_HsAvHiq2rBz_PpVZFLU8k_Animation{0%{-webkit-transform: translate(62.83980178833008px, 65.4100227355957px) translate(-62.83980178833008px, -65.4100227355957px) translate(0px, 0px);transform: translate(62.83980178833008px, 65.4100227355957px) translate(-62.83980178833008px, -65.4100227355957px) translate(0px, 0px);}38.67%{-webkit-transform: translate(62.83980178833008px, 65.4100227355957px) translate(-62.83980178833008px, -65.4100227355957px) translate(0px, 0px);transform: translate(62.83980178833008px, 65.4100227355957px) translate(-62.83980178833008px, -65.4100227355957px) translate(0px, 0px);}88%{-webkit-transform: translate(62.83980178833008px, 65.4100227355957px) translate(-62.83980178833008px, -65.4100227355957px) translate(-61px, 32px);transform: translate(62.83980178833008px, 65.4100227355957px) translate(-62.83980178833008px, -65.4100227355957px) translate(-61px, 32px);}95.33%{-webkit-transform: translate(62.83980178833008px, 65.4100227355957px) translate(-62.83980178833008px, -65.4100227355957px) translate(70px, 37px);transform: translate(62.83980178833008px, 65.4100227355957px) translate(-62.83980178833008px, -65.4100227355957px) translate(70px, 37px);}100%{-webkit-transform: translate(62.83980178833008px, 65.4100227355957px) translate(-62.83980178833008px, -65.4100227355957px) translate(0px, 40px);transform: translate(62.83980178833008px, 65.4100227355957px) translate(-62.83980178833008px, -65.4100227355957px) translate(0px, 40px);}}@keyframes el_HsAvHiq2rBz_PpVZFLU8k_Animation{0%{-webkit-transform: translate(62.83980178833008px, 65.4100227355957px) translate(-62.83980178833008px, -65.4100227355957px) translate(0px, 0px);transform: translate(62.83980178833008px, 65.4100227355957px) translate(-62.83980178833008px, -65.4100227355957px) translate(0px, 0px);}38.67%{-webkit-transform: translate(62.83980178833008px, 65.4100227355957px) translate(-62.83980178833008px, -65.4100227355957px) translate(0px, 0px);transform: translate(62.83980178833008px, 65.4100227355957px) translate(-62.83980178833008px, -65.4100227355957px) translate(0px, 0px);}88%{-webkit-transform: translate(62.83980178833008px, 65.4100227355957px) translate(-62.83980178833008px, -65.4100227355957px) translate(-61px, 32px);transform: translate(62.83980178833008px, 65.4100227355957px) translate(-62.83980178833008px, -65.4100227355957px) translate(-61px, 32px);}95.33%{-webkit-transform: translate(62.83980178833008px, 65.4100227355957px) translate(-62.83980178833008px, -65.4100227355957px) translate(70px, 37px);transform: translate(62.83980178833008px, 65.4100227355957px) translate(-62.83980178833008px, -65.4100227355957px) translate(70px, 37px);}100%{-webkit-transform: translate(62.83980178833008px, 65.4100227355957px) translate(-62.83980178833008px, -65.4100227355957px) translate(0px, 40px);transform: translate(62.83980178833008px, 65.4100227355957px) translate(-62.83980178833008px, -65.4100227355957px) translate(0px, 40px);}}@-webkit-keyframes el_LpnAQzFNe8S_Ug004t0Pv_Animation{0%{-webkit-transform: translate(93.12997817993164px, 29.100025177001953px) scale(0.8, 0.8) translate(-93.12997817993164px, -29.100025177001953px);transform: translate(93.12997817993164px, 29.100025177001953px) scale(0.8, 0.8) translate(-93.12997817993164px, -29.100025177001953px);}42%{-webkit-transform: translate(93.12997817993164px, 29.100025177001953px) scale(1, 1) translate(-93.12997817993164px, -29.100025177001953px);transform: translate(93.12997817993164px, 29.100025177001953px) scale(1, 1) translate(-93.12997817993164px, -29.100025177001953px);}68.67%{-webkit-transform: translate(93.12997817993164px, 29.100025177001953px) scale(0.2, 0.2) translate(-93.12997817993164px, -29.100025177001953px);transform: translate(93.12997817993164px, 29.100025177001953px) scale(0.2, 0.2) translate(-93.12997817993164px, -29.100025177001953px);}100%{-webkit-transform: translate(93.12997817993164px, 29.100025177001953px) scale(0.2, 0.2) translate(-93.12997817993164px, -29.100025177001953px);transform: translate(93.12997817993164px, 29.100025177001953px) scale(0.2, 0.2) translate(-93.12997817993164px, -29.100025177001953px);}}@keyframes el_LpnAQzFNe8S_Ug004t0Pv_Animation{0%{-webkit-transform: translate(93.12997817993164px, 29.100025177001953px) scale(0.8, 0.8) translate(-93.12997817993164px, -29.100025177001953px);transform: translate(93.12997817993164px, 29.100025177001953px) scale(0.8, 0.8) translate(-93.12997817993164px, -29.100025177001953px);}42%{-webkit-transform: translate(93.12997817993164px, 29.100025177001953px) scale(1, 1) translate(-93.12997817993164px, -29.100025177001953px);transform: translate(93.12997817993164px, 29.100025177001953px) scale(1, 1) translate(-93.12997817993164px, -29.100025177001953px);}68.67%{-webkit-transform: translate(93.12997817993164px, 29.100025177001953px) scale(0.2, 0.2) translate(-93.12997817993164px, -29.100025177001953px);transform: translate(93.12997817993164px, 29.100025177001953px) scale(0.2, 0.2) translate(-93.12997817993164px, -29.100025177001953px);}100%{-webkit-transform: translate(93.12997817993164px, 29.100025177001953px) scale(0.2, 0.2) translate(-93.12997817993164px, -29.100025177001953px);transform: translate(93.12997817993164px, 29.100025177001953px) scale(0.2, 0.2) translate(-93.12997817993164px, -29.100025177001953px);}}@-webkit-keyframes el_LpnAQzFNe8S_nn1TOVoez_Animation{0%{-webkit-transform: translate(93.12997817993164px, 29.100025177001953px) translate(-93.12997817993164px, -29.100025177001953px) translate(-5px, 20px);transform: translate(93.12997817993164px, 29.100025177001953px) translate(-93.12997817993164px, -29.100025177001953px) translate(-5px, 20px);}30%{-webkit-transform: translate(93.12997817993164px, 29.100025177001953px) translate(-93.12997817993164px, -29.100025177001953px) translate(0px, 0px);transform: translate(93.12997817993164px, 29.100025177001953px) translate(-93.12997817993164px, -29.100025177001953px) translate(0px, 0px);}50%{-webkit-transform: translate(93.12997817993164px, 29.100025177001953px) translate(-93.12997817993164px, -29.100025177001953px) translate(0px, 10px);transform: translate(93.12997817993164px, 29.100025177001953px) translate(-93.12997817993164px, -29.100025177001953px) translate(0px, 10px);}80%{-webkit-transform: translate(93.12997817993164px, 29.100025177001953px) translate(-93.12997817993164px, -29.100025177001953px) translate(0px, 0px);transform: translate(93.12997817993164px, 29.100025177001953px) translate(-93.12997817993164px, -29.100025177001953px) translate(0px, 0px);}100%{-webkit-transform: translate(93.12997817993164px, 29.100025177001953px) translate(-93.12997817993164px, -29.100025177001953px) translate(0px, 0px);transform: translate(93.12997817993164px, 29.100025177001953px) translate(-93.12997817993164px, -29.100025177001953px) translate(0px, 0px);}}@keyframes el_LpnAQzFNe8S_nn1TOVoez_Animation{0%{-webkit-transform: translate(93.12997817993164px, 29.100025177001953px) translate(-93.12997817993164px, -29.100025177001953px) translate(-5px, 20px);transform: translate(93.12997817993164px, 29.100025177001953px) translate(-93.12997817993164px, -29.100025177001953px) translate(-5px, 20px);}30%{-webkit-transform: translate(93.12997817993164px, 29.100025177001953px) translate(-93.12997817993164px, -29.100025177001953px) translate(0px, 0px);transform: translate(93.12997817993164px, 29.100025177001953px) translate(-93.12997817993164px, -29.100025177001953px) translate(0px, 0px);}50%{-webkit-transform: translate(93.12997817993164px, 29.100025177001953px) translate(-93.12997817993164px, -29.100025177001953px) translate(0px, 10px);transform: translate(93.12997817993164px, 29.100025177001953px) translate(-93.12997817993164px, -29.100025177001953px) translate(0px, 10px);}80%{-webkit-transform: translate(93.12997817993164px, 29.100025177001953px) translate(-93.12997817993164px, -29.100025177001953px) translate(0px, 0px);transform: translate(93.12997817993164px, 29.100025177001953px) translate(-93.12997817993164px, -29.100025177001953px) translate(0px, 0px);}100%{-webkit-transform: translate(93.12997817993164px, 29.100025177001953px) translate(-93.12997817993164px, -29.100025177001953px) translate(0px, 0px);transform: translate(93.12997817993164px, 29.100025177001953px) translate(-93.12997817993164px, -29.100025177001953px) translate(0px, 0px);}}@-webkit-keyframes el_LpnAQzFNe8S_Animation{0%{opacity: 0;}20%{opacity: 1;}38%{opacity: 0;}50%{opacity: 1;}100%{opacity: 0;}}@keyframes el_LpnAQzFNe8S_Animation{0%{opacity: 0;}20%{opacity: 1;}38%{opacity: 0;}50%{opacity: 1;}100%{opacity: 0;}}@-webkit-keyframes el_ZB77XMpNkyR_LLRmgC8Lc_Animation{0%{-webkit-transform: translate(187.5500030517578px, 32.12999725341797px) translate(-187.5500030517578px, -32.12999725341797px) translate(0px, 0px);transform: translate(187.5500030517578px, 32.12999725341797px) translate(-187.5500030517578px, -32.12999725341797px) translate(0px, 0px);}36.67%{-webkit-transform: translate(187.5500030517578px, 32.12999725341797px) translate(-187.5500030517578px, -32.12999725341797px) translate(-40px, 20px);transform: translate(187.5500030517578px, 32.12999725341797px) translate(-187.5500030517578px, -32.12999725341797px) translate(-40px, 20px);}65.33%{-webkit-transform: translate(187.5500030517578px, 32.12999725341797px) translate(-187.5500030517578px, -32.12999725341797px) translate(-20px, 0px);transform: translate(187.5500030517578px, 32.12999725341797px) translate(-187.5500030517578px, -32.12999725341797px) translate(-20px, 0px);}100%{-webkit-transform: translate(187.5500030517578px, 32.12999725341797px) translate(-187.5500030517578px, -32.12999725341797px) translate(-20px, 0px);transform: translate(187.5500030517578px, 32.12999725341797px) translate(-187.5500030517578px, -32.12999725341797px) translate(-20px, 0px);}}@keyframes el_ZB77XMpNkyR_LLRmgC8Lc_Animation{0%{-webkit-transform: translate(187.5500030517578px, 32.12999725341797px) translate(-187.5500030517578px, -32.12999725341797px) translate(0px, 0px);transform: translate(187.5500030517578px, 32.12999725341797px) translate(-187.5500030517578px, -32.12999725341797px) translate(0px, 0px);}36.67%{-webkit-transform: translate(187.5500030517578px, 32.12999725341797px) translate(-187.5500030517578px, -32.12999725341797px) translate(-40px, 20px);transform: translate(187.5500030517578px, 32.12999725341797px) translate(-187.5500030517578px, -32.12999725341797px) translate(-40px, 20px);}65.33%{-webkit-transform: translate(187.5500030517578px, 32.12999725341797px) translate(-187.5500030517578px, -32.12999725341797px) translate(-20px, 0px);transform: translate(187.5500030517578px, 32.12999725341797px) translate(-187.5500030517578px, -32.12999725341797px) translate(-20px, 0px);}100%{-webkit-transform: translate(187.5500030517578px, 32.12999725341797px) translate(-187.5500030517578px, -32.12999725341797px) translate(-20px, 0px);transform: translate(187.5500030517578px, 32.12999725341797px) translate(-187.5500030517578px, -32.12999725341797px) translate(-20px, 0px);}}@-webkit-keyframes el_ZB77XMpNkyR_ka72LbRFv_Animation{0%{-webkit-transform: translate(187.5500030517578px, 32.12999725341797px) scale(0, 0) translate(-187.5500030517578px, -32.12999725341797px);transform: translate(187.5500030517578px, 32.12999725341797px) scale(0, 0) translate(-187.5500030517578px, -32.12999725341797px);}22.67%{-webkit-transform: translate(187.5500030517578px, 32.12999725341797px) scale(1, 1) translate(-187.5500030517578px, -32.12999725341797px);transform: translate(187.5500030517578px, 32.12999725341797px) scale(1, 1) translate(-187.5500030517578px, -32.12999725341797px);}56.00%{-webkit-transform: translate(187.5500030517578px, 32.12999725341797px) scale(0.2, 0.2) translate(-187.5500030517578px, -32.12999725341797px);transform: translate(187.5500030517578px, 32.12999725341797px) scale(0.2, 0.2) translate(-187.5500030517578px, -32.12999725341797px);}99.33%{-webkit-transform: translate(187.5500030517578px, 32.12999725341797px) scale(1, 1) translate(-187.5500030517578px, -32.12999725341797px);transform: translate(187.5500030517578px, 32.12999725341797px) scale(1, 1) translate(-187.5500030517578px, -32.12999725341797px);}100%{-webkit-transform: translate(187.5500030517578px, 32.12999725341797px) scale(1, 1) translate(-187.5500030517578px, -32.12999725341797px);transform: translate(187.5500030517578px, 32.12999725341797px) scale(1, 1) translate(-187.5500030517578px, -32.12999725341797px);}}@keyframes el_ZB77XMpNkyR_ka72LbRFv_Animation{0%{-webkit-transform: translate(187.5500030517578px, 32.12999725341797px) scale(0, 0) translate(-187.5500030517578px, -32.12999725341797px);transform: translate(187.5500030517578px, 32.12999725341797px) scale(0, 0) translate(-187.5500030517578px, -32.12999725341797px);}22.67%{-webkit-transform: translate(187.5500030517578px, 32.12999725341797px) scale(1, 1) translate(-187.5500030517578px, -32.12999725341797px);transform: translate(187.5500030517578px, 32.12999725341797px) scale(1, 1) translate(-187.5500030517578px, -32.12999725341797px);}56.00%{-webkit-transform: translate(187.5500030517578px, 32.12999725341797px) scale(0.2, 0.2) translate(-187.5500030517578px, -32.12999725341797px);transform: translate(187.5500030517578px, 32.12999725341797px) scale(0.2, 0.2) translate(-187.5500030517578px, -32.12999725341797px);}99.33%{-webkit-transform: translate(187.5500030517578px, 32.12999725341797px) scale(1, 1) translate(-187.5500030517578px, -32.12999725341797px);transform: translate(187.5500030517578px, 32.12999725341797px) scale(1, 1) translate(-187.5500030517578px, -32.12999725341797px);}100%{-webkit-transform: translate(187.5500030517578px, 32.12999725341797px) scale(1, 1) translate(-187.5500030517578px, -32.12999725341797px);transform: translate(187.5500030517578px, 32.12999725341797px) scale(1, 1) translate(-187.5500030517578px, -32.12999725341797px);}}@-webkit-keyframes el_ZB77XMpNkyR_Animation{0%{opacity: 0;}33.33%{opacity: 1;}100%{opacity: 0;}}@keyframes el_ZB77XMpNkyR_Animation{0%{opacity: 0;}33.33%{opacity: 1;}100%{opacity: 0;}}@-webkit-keyframes el_7l_267i_VZp_CykX5vLI5_Animation{0%{-webkit-transform: translate(99.20999908447266px, 235.70997619628906px) translate(-99.20999908447266px, -235.70997619628906px) translate(0px, 5px);transform: translate(99.20999908447266px, 235.70997619628906px) translate(-99.20999908447266px, -235.70997619628906px) translate(0px, 5px);}5.33%{-webkit-transform: translate(99.20999908447266px, 235.70997619628906px) translate(-99.20999908447266px, -235.70997619628906px) translate(10px, 2px);transform: translate(99.20999908447266px, 235.70997619628906px) translate(-99.20999908447266px, -235.70997619628906px) translate(10px, 2px);}12.67%{-webkit-transform: translate(99.20999908447266px, 235.70997619628906px) translate(-99.20999908447266px, -235.70997619628906px) translate(7px, 2px);transform: translate(99.20999908447266px, 235.70997619628906px) translate(-99.20999908447266px, -235.70997619628906px) translate(7px, 2px);}27.33%{-webkit-transform: translate(99.20999908447266px, 235.70997619628906px) translate(-99.20999908447266px, -235.70997619628906px) translate(-7px, -10px);transform: translate(99.20999908447266px, 235.70997619628906px) translate(-99.20999908447266px, -235.70997619628906px) translate(-7px, -10px);}57.33%{-webkit-transform: translate(99.20999908447266px, 235.70997619628906px) translate(-99.20999908447266px, -235.70997619628906px) translate(12px, -3px);transform: translate(99.20999908447266px, 235.70997619628906px) translate(-99.20999908447266px, -235.70997619628906px) translate(12px, -3px);}69.33%{-webkit-transform: translate(99.20999908447266px, 235.70997619628906px) translate(-99.20999908447266px, -235.70997619628906px) translate(0px, 0px);transform: translate(99.20999908447266px, 235.70997619628906px) translate(-99.20999908447266px, -235.70997619628906px) translate(0px, 0px);}100%{-webkit-transform: translate(99.20999908447266px, 235.70997619628906px) translate(-99.20999908447266px, -235.70997619628906px) translate(0px, 0px);transform: translate(99.20999908447266px, 235.70997619628906px) translate(-99.20999908447266px, -235.70997619628906px) translate(0px, 0px);}}@keyframes el_7l_267i_VZp_CykX5vLI5_Animation{0%{-webkit-transform: translate(99.20999908447266px, 235.70997619628906px) translate(-99.20999908447266px, -235.70997619628906px) translate(0px, 5px);transform: translate(99.20999908447266px, 235.70997619628906px) translate(-99.20999908447266px, -235.70997619628906px) translate(0px, 5px);}5.33%{-webkit-transform: translate(99.20999908447266px, 235.70997619628906px) translate(-99.20999908447266px, -235.70997619628906px) translate(10px, 2px);transform: translate(99.20999908447266px, 235.70997619628906px) translate(-99.20999908447266px, -235.70997619628906px) translate(10px, 2px);}12.67%{-webkit-transform: translate(99.20999908447266px, 235.70997619628906px) translate(-99.20999908447266px, -235.70997619628906px) translate(7px, 2px);transform: translate(99.20999908447266px, 235.70997619628906px) translate(-99.20999908447266px, -235.70997619628906px) translate(7px, 2px);}27.33%{-webkit-transform: translate(99.20999908447266px, 235.70997619628906px) translate(-99.20999908447266px, -235.70997619628906px) translate(-7px, -10px);transform: translate(99.20999908447266px, 235.70997619628906px) translate(-99.20999908447266px, -235.70997619628906px) translate(-7px, -10px);}57.33%{-webkit-transform: translate(99.20999908447266px, 235.70997619628906px) translate(-99.20999908447266px, -235.70997619628906px) translate(12px, -3px);transform: translate(99.20999908447266px, 235.70997619628906px) translate(-99.20999908447266px, -235.70997619628906px) translate(12px, -3px);}69.33%{-webkit-transform: translate(99.20999908447266px, 235.70997619628906px) translate(-99.20999908447266px, -235.70997619628906px) translate(0px, 0px);transform: translate(99.20999908447266px, 235.70997619628906px) translate(-99.20999908447266px, -235.70997619628906px) translate(0px, 0px);}100%{-webkit-transform: translate(99.20999908447266px, 235.70997619628906px) translate(-99.20999908447266px, -235.70997619628906px) translate(0px, 0px);transform: translate(99.20999908447266px, 235.70997619628906px) translate(-99.20999908447266px, -235.70997619628906px) translate(0px, 0px);}}@-webkit-keyframes el_7l_267i_VZp_Animation{0%{opacity: 0;}20%{opacity: 1;}100%{opacity: 0;}}@keyframes el_7l_267i_VZp_Animation{0%{opacity: 0;}20%{opacity: 1;}100%{opacity: 0;}}@-webkit-keyframes el_7l_267i_VZp_6q2RJsChZ_Animation{0.67%{-webkit-transform: translate(99.20999908447266px, 235.70997619628906px) scale(0, 0) translate(-99.20999908447266px, -235.70997619628906px);transform: translate(99.20999908447266px, 235.70997619628906px) scale(0, 0) translate(-99.20999908447266px, -235.70997619628906px);}12%{-webkit-transform: translate(99.20999908447266px, 235.70997619628906px) scale(1, 1) translate(-99.20999908447266px, -235.70997619628906px);transform: translate(99.20999908447266px, 235.70997619628906px) scale(1, 1) translate(-99.20999908447266px, -235.70997619628906px);}48%{-webkit-transform: translate(99.20999908447266px, 235.70997619628906px) scale(0.6, 0.6) translate(-99.20999908447266px, -235.70997619628906px);transform: translate(99.20999908447266px, 235.70997619628906px) scale(0.6, 0.6) translate(-99.20999908447266px, -235.70997619628906px);}100%{-webkit-transform: translate(99.20999908447266px, 235.70997619628906px) scale(0, 0) translate(-99.20999908447266px, -235.70997619628906px);transform: translate(99.20999908447266px, 235.70997619628906px) scale(0, 0) translate(-99.20999908447266px, -235.70997619628906px);}0%{-webkit-transform: translate(99.20999908447266px, 235.70997619628906px) scale(0, 0) translate(-99.20999908447266px, -235.70997619628906px);transform: translate(99.20999908447266px, 235.70997619628906px) scale(0, 0) translate(-99.20999908447266px, -235.70997619628906px);}}@keyframes el_7l_267i_VZp_6q2RJsChZ_Animation{0.67%{-webkit-transform: translate(99.20999908447266px, 235.70997619628906px) scale(0, 0) translate(-99.20999908447266px, -235.70997619628906px);transform: translate(99.20999908447266px, 235.70997619628906px) scale(0, 0) translate(-99.20999908447266px, -235.70997619628906px);}12%{-webkit-transform: translate(99.20999908447266px, 235.70997619628906px) scale(1, 1) translate(-99.20999908447266px, -235.70997619628906px);transform: translate(99.20999908447266px, 235.70997619628906px) scale(1, 1) translate(-99.20999908447266px, -235.70997619628906px);}48%{-webkit-transform: translate(99.20999908447266px, 235.70997619628906px) scale(0.6, 0.6) translate(-99.20999908447266px, -235.70997619628906px);transform: translate(99.20999908447266px, 235.70997619628906px) scale(0.6, 0.6) translate(-99.20999908447266px, -235.70997619628906px);}100%{-webkit-transform: translate(99.20999908447266px, 235.70997619628906px) scale(0, 0) translate(-99.20999908447266px, -235.70997619628906px);transform: translate(99.20999908447266px, 235.70997619628906px) scale(0, 0) translate(-99.20999908447266px, -235.70997619628906px);}0%{-webkit-transform: translate(99.20999908447266px, 235.70997619628906px) scale(0, 0) translate(-99.20999908447266px, -235.70997619628906px);transform: translate(99.20999908447266px, 235.70997619628906px) scale(0, 0) translate(-99.20999908447266px, -235.70997619628906px);}}@-webkit-keyframes el_m6Smo6c3v6h_Animation{0%{opacity: 0;}65.33%{opacity: 1;}100%{opacity: 0;}}@keyframes el_m6Smo6c3v6h_Animation{0%{opacity: 0;}65.33%{opacity: 1;}100%{opacity: 0;}}@-webkit-keyframes el_m6Smo6c3v6h_--rqJI1CP_Animation{0%{-webkit-transform: translate(143.3900146484375px, 236.3000030517578px) scale(0, 0) translate(-143.3900146484375px, -236.3000030517578px);transform: translate(143.3900146484375px, 236.3000030517578px) scale(0, 0) translate(-143.3900146484375px, -236.3000030517578px);}29.33%{-webkit-transform: translate(143.3900146484375px, 236.3000030517578px) scale(1, 1) translate(-143.3900146484375px, -236.3000030517578px);transform: translate(143.3900146484375px, 236.3000030517578px) scale(1, 1) translate(-143.3900146484375px, -236.3000030517578px);}78.67%{-webkit-transform: translate(143.3900146484375px, 236.3000030517578px) scale(0.4, 0.4) translate(-143.3900146484375px, -236.3000030517578px);transform: translate(143.3900146484375px, 236.3000030517578px) scale(0.4, 0.4) translate(-143.3900146484375px, -236.3000030517578px);}100%{-webkit-transform: translate(143.3900146484375px, 236.3000030517578px) scale(1, 1) translate(-143.3900146484375px, -236.3000030517578px);transform: translate(143.3900146484375px, 236.3000030517578px) scale(1, 1) translate(-143.3900146484375px, -236.3000030517578px);}}@keyframes el_m6Smo6c3v6h_--rqJI1CP_Animation{0%{-webkit-transform: translate(143.3900146484375px, 236.3000030517578px) scale(0, 0) translate(-143.3900146484375px, -236.3000030517578px);transform: translate(143.3900146484375px, 236.3000030517578px) scale(0, 0) translate(-143.3900146484375px, -236.3000030517578px);}29.33%{-webkit-transform: translate(143.3900146484375px, 236.3000030517578px) scale(1, 1) translate(-143.3900146484375px, -236.3000030517578px);transform: translate(143.3900146484375px, 236.3000030517578px) scale(1, 1) translate(-143.3900146484375px, -236.3000030517578px);}78.67%{-webkit-transform: translate(143.3900146484375px, 236.3000030517578px) scale(0.4, 0.4) translate(-143.3900146484375px, -236.3000030517578px);transform: translate(143.3900146484375px, 236.3000030517578px) scale(0.4, 0.4) translate(-143.3900146484375px, -236.3000030517578px);}100%{-webkit-transform: translate(143.3900146484375px, 236.3000030517578px) scale(1, 1) translate(-143.3900146484375px, -236.3000030517578px);transform: translate(143.3900146484375px, 236.3000030517578px) scale(1, 1) translate(-143.3900146484375px, -236.3000030517578px);}}@-webkit-keyframes el_m6Smo6c3v6h_ZhmsIrAGt_Animation{0%{-webkit-transform: translate(143.3900146484375px, 236.3000030517578px) translate(-143.3900146484375px, -236.3000030517578px) translate(0px, -5px);transform: translate(143.3900146484375px, 236.3000030517578px) translate(-143.3900146484375px, -236.3000030517578px) translate(0px, -5px);}34.67%{-webkit-transform: translate(143.3900146484375px, 236.3000030517578px) translate(-143.3900146484375px, -236.3000030517578px) translate(12px, -5px);transform: translate(143.3900146484375px, 236.3000030517578px) translate(-143.3900146484375px, -236.3000030517578px) translate(12px, -5px);}70%{-webkit-transform: translate(143.3900146484375px, 236.3000030517578px) translate(-143.3900146484375px, -236.3000030517578px) translate(-20px, -5px);transform: translate(143.3900146484375px, 236.3000030517578px) translate(-143.3900146484375px, -236.3000030517578px) translate(-20px, -5px);}100%{-webkit-transform: translate(143.3900146484375px, 236.3000030517578px) translate(-143.3900146484375px, -236.3000030517578px) translate(-20px, -5px);transform: translate(143.3900146484375px, 236.3000030517578px) translate(-143.3900146484375px, -236.3000030517578px) translate(-20px, -5px);}}@keyframes el_m6Smo6c3v6h_ZhmsIrAGt_Animation{0%{-webkit-transform: translate(143.3900146484375px, 236.3000030517578px) translate(-143.3900146484375px, -236.3000030517578px) translate(0px, -5px);transform: translate(143.3900146484375px, 236.3000030517578px) translate(-143.3900146484375px, -236.3000030517578px) translate(0px, -5px);}34.67%{-webkit-transform: translate(143.3900146484375px, 236.3000030517578px) translate(-143.3900146484375px, -236.3000030517578px) translate(12px, -5px);transform: translate(143.3900146484375px, 236.3000030517578px) translate(-143.3900146484375px, -236.3000030517578px) translate(12px, -5px);}70%{-webkit-transform: translate(143.3900146484375px, 236.3000030517578px) translate(-143.3900146484375px, -236.3000030517578px) translate(-20px, -5px);transform: translate(143.3900146484375px, 236.3000030517578px) translate(-143.3900146484375px, -236.3000030517578px) translate(-20px, -5px);}100%{-webkit-transform: translate(143.3900146484375px, 236.3000030517578px) translate(-143.3900146484375px, -236.3000030517578px) translate(-20px, -5px);transform: translate(143.3900146484375px, 236.3000030517578px) translate(-143.3900146484375px, -236.3000030517578px) translate(-20px, -5px);}}@-webkit-keyframes el_wXTOv5XbMW_6-QsIiPFW_Animation{0%{-webkit-transform: translate(107.05850219726562px, 130.33097076416016px) scale(1, 1) translate(-107.05850219726562px, -130.33097076416016px);transform: translate(107.05850219726562px, 130.33097076416016px) scale(1, 1) translate(-107.05850219726562px, -130.33097076416016px);}46%{-webkit-transform: translate(107.05850219726562px, 130.33097076416016px) scale(0.8, 0.8) translate(-107.05850219726562px, -130.33097076416016px);transform: translate(107.05850219726562px, 130.33097076416016px) scale(0.8, 0.8) translate(-107.05850219726562px, -130.33097076416016px);}100%{-webkit-transform: translate(107.05850219726562px, 130.33097076416016px) scale(1, 1) translate(-107.05850219726562px, -130.33097076416016px);transform: translate(107.05850219726562px, 130.33097076416016px) scale(1, 1) translate(-107.05850219726562px, -130.33097076416016px);}}@keyframes el_wXTOv5XbMW_6-QsIiPFW_Animation{0%{-webkit-transform: translate(107.05850219726562px, 130.33097076416016px) scale(1, 1) translate(-107.05850219726562px, -130.33097076416016px);transform: translate(107.05850219726562px, 130.33097076416016px) scale(1, 1) translate(-107.05850219726562px, -130.33097076416016px);}46%{-webkit-transform: translate(107.05850219726562px, 130.33097076416016px) scale(0.8, 0.8) translate(-107.05850219726562px, -130.33097076416016px);transform: translate(107.05850219726562px, 130.33097076416016px) scale(0.8, 0.8) translate(-107.05850219726562px, -130.33097076416016px);}100%{-webkit-transform: translate(107.05850219726562px, 130.33097076416016px) scale(1, 1) translate(-107.05850219726562px, -130.33097076416016px);transform: translate(107.05850219726562px, 130.33097076416016px) scale(1, 1) translate(-107.05850219726562px, -130.33097076416016px);}}#el_Ugri1Ip7t *{-webkit-animation-duration: 5s;animation-duration: 5s;-webkit-animation-iteration-count: infinite;animation-iteration-count: infinite;-webkit-animation-timing-function: cubic-bezier(0, 0, 1, 1);animation-timing-function: cubic-bezier(0, 0, 1, 1);}#el_AFJ4xm20LY{-webkit-transform: translate(-34.73px, -10.97px);transform: translate(-34.73px, -10.97px);fill: #94b727;}#el_FvJadl6GRW{-webkit-transform: translate(-34.73px, -10.97px);transform: translate(-34.73px, -10.97px);fill: #94b727;fill-rule: evenodd;}#el_xpYbaJEw72{-webkit-transform: translate(-34.73px, -10.97px);transform: translate(-34.73px, -10.97px);fill: #ff7373;}#el_aH8_ecYIzZ{-webkit-transform: translate(-34.73px, -10.97px);transform: translate(-34.73px, -10.97px);fill: #b0e52c;fill-rule: evenodd;}#el_cvYZ9L4Pb7{-webkit-transform: translate(-34.73px, -10.97px);transform: translate(-34.73px, -10.97px);fill: #fad60a;}#el_48sF01R0BH{-webkit-transform: translate(-34.73px, -10.97px);transform: translate(-34.73px, -10.97px);fill: #fad60a;}#el_rt1YSZ2LQo{fill: #60cccc;}#el_DLYAYhrnW3{-webkit-transform: translate(-34.73px, -10.97px);transform: translate(-34.73px, -10.97px);fill: #60cccc;}#el_MIWpKMfpFE{-webkit-transform: translate(-34.73px, -10.97px);transform: translate(-34.73px, -10.97px);fill: #60cccc;}#el_YFp6g-jPcS{-webkit-transform: translate(-34.73px, -10.97px);transform: translate(-34.73px, -10.97px);fill: #60cccc;}#el_uRyWDkpvNo{-webkit-transform: translate(-34.73px, -10.97px);transform: translate(-34.73px, -10.97px);fill: #60cccc;}#el_bvE6yYKazP{-webkit-transform: translate(-34.73px, -10.97px);transform: translate(-34.73px, -10.97px);fill: #ac5db0;}#el_i9lHMN4j_f{-webkit-transform: translate(-34.73px, -10.97px);transform: translate(-34.73px, -10.97px);fill: #ff7373;}#el_4DhwV_AVZA{-webkit-transform: translate(-34.73px, -10.97px);transform: translate(-34.73px, -10.97px);fill: #4c9b99;}#el_XEWOOP6tjz0{-webkit-transform: translate(-34.73px, -10.97px);transform: translate(-34.73px, -10.97px);fill: #4c9b99;}#el_lzA1t2M3aUp{-webkit-transform: translate(-34.73px, -10.97px);transform: translate(-34.73px, -10.97px);fill: #4c9b99;fill-rule: evenodd;}#el__wVHKiTmwTv{-webkit-transform: translate(-34.73px, -10.97px);transform: translate(-34.73px, -10.97px);fill: #4c9b99;fill-rule: evenodd;}#el_RaCxf4x9EF4{-webkit-transform: translate(-34.73px, -10.97px);transform: translate(-34.73px, -10.97px);fill: #f22080;}#el_YzgMK3O5Sgo{-webkit-transform: translate(-34.73px, -10.97px);transform: translate(-34.73px, -10.97px);fill: #f22080;}#el_cSDlluq-UnM{-webkit-transform: translate(-34.73px, -10.97px);transform: translate(-34.73px, -10.97px);fill: #f22080;}#el_ut_90zhnUry{-webkit-transform: translate(-34.73px, -10.97px);transform: translate(-34.73px, -10.97px);fill: #f22080;}#el_ijayTB-xagP{-webkit-transform: translate(-34.73px, -10.97px);transform: translate(-34.73px, -10.97px);fill: #f22080;}#el_A_L_e9GjBhu{-webkit-transform: translate(-34.73px, -10.97px);transform: translate(-34.73px, -10.97px);fill: #f22080;}#el_pvlVNUMC4yA{-webkit-transform: translate(-34.73px, -10.97px);transform: translate(-34.73px, -10.97px);fill: #f22080;}#el_bA_Fwto_Qld{-webkit-transform: translate(-34.73px, -10.97px);transform: translate(-34.73px, -10.97px);fill: #f22080;}#el_nRBurQVWLQk{-webkit-transform: translate(-34.73px, -10.97px);transform: translate(-34.73px, -10.97px);fill: #f22080;}#el_m_g60E8wJ4o{-webkit-transform: translate(-34.73px, -10.97px);transform: translate(-34.73px, -10.97px);fill: #f22080;}#el_Ow0-oL3AUx-{-webkit-transform: translate(-34.73px, -10.97px);transform: translate(-34.73px, -10.97px);fill: #f22080;}#el_qbb37LhfT1C{-webkit-transform: translate(-34.73px, -10.97px);transform: translate(-34.73px, -10.97px);fill: #f22080;}#el_fzQnDaMaivK{-webkit-transform: translate(-34.73px, -10.97px);transform: translate(-34.73px, -10.97px);fill: #f22080;}#el_Xs__96Nw_Up{-webkit-transform: translate(-34.73px, -10.97px);transform: translate(-34.73px, -10.97px);fill: #f22080;}#el_RT9b3JLU9bG{-webkit-transform: translate(-34.73px, -10.97px);transform: translate(-34.73px, -10.97px);fill: #f22080;}#el_QOh6AJ0aLhG{-webkit-transform: translate(-34.73px, -10.97px);transform: translate(-34.73px, -10.97px);fill: #f22080;}#el_m6Smo6c3v6h{-webkit-transform: translate(-34.73px, -10.97px);transform: translate(-34.73px, -10.97px);fill: #fad60a;fill-rule: evenodd;-webkit-animation-name: el_m6Smo6c3v6h_Animation;animation-name: el_m6Smo6c3v6h_Animation;}#el_7l_267i_VZp{-webkit-transform: translate(-34.73px, -10.97px);transform: translate(-34.73px, -10.97px);fill: #f22080;-webkit-animation-name: el_7l_267i_VZp_Animation;animation-name: el_7l_267i_VZp_Animation;}#el_ZB77XMpNkyR{-webkit-transform: translate(-34.73px, -10.97px);transform: translate(-34.73px, -10.97px);fill: #ac5db0;-webkit-animation-name: el_ZB77XMpNkyR_Animation;animation-name: el_ZB77XMpNkyR_Animation;}#el_LpnAQzFNe8S{-webkit-transform: translate(-34.73px, -10.97px);transform: translate(-34.73px, -10.97px);fill: #60cccc;fill-rule: evenodd;-webkit-animation-name: el_LpnAQzFNe8S_Animation;animation-name: el_LpnAQzFNe8S_Animation;}#el_HsAvHiq2rBz{-webkit-transform: translate(-34.73px, -10.97px);transform: translate(-34.73px, -10.97px);fill: #ff7373;fill-rule: evenodd;-webkit-animation-name: el_HsAvHiq2rBz_Animation;animation-name: el_HsAvHiq2rBz_Animation;}#el_wXTOv5XbMW_6-QsIiPFW{-webkit-animation-name: el_wXTOv5XbMW_6-QsIiPFW_Animation;animation-name: el_wXTOv5XbMW_6-QsIiPFW_Animation;}#el_m6Smo6c3v6h_ZhmsIrAGt{-webkit-animation-name: el_m6Smo6c3v6h_ZhmsIrAGt_Animation;animation-name: el_m6Smo6c3v6h_ZhmsIrAGt_Animation;}#el_m6Smo6c3v6h_--rqJI1CP{-webkit-animation-name: el_m6Smo6c3v6h_--rqJI1CP_Animation;animation-name: el_m6Smo6c3v6h_--rqJI1CP_Animation;}#el_7l_267i_VZp_6q2RJsChZ{-webkit-animation-name: el_7l_267i_VZp_6q2RJsChZ_Animation;animation-name: el_7l_267i_VZp_6q2RJsChZ_Animation;}#el_7l_267i_VZp_CykX5vLI5{-webkit-animation-name: el_7l_267i_VZp_CykX5vLI5_Animation;animation-name: el_7l_267i_VZp_CykX5vLI5_Animation;}#el_ZB77XMpNkyR_ka72LbRFv{-webkit-animation-name: el_ZB77XMpNkyR_ka72LbRFv_Animation;animation-name: el_ZB77XMpNkyR_ka72LbRFv_Animation;}#el_ZB77XMpNkyR_LLRmgC8Lc{-webkit-animation-name: el_ZB77XMpNkyR_LLRmgC8Lc_Animation;animation-name: el_ZB77XMpNkyR_LLRmgC8Lc_Animation;}#el_LpnAQzFNe8S_nn1TOVoez{-webkit-animation-name: el_LpnAQzFNe8S_nn1TOVoez_Animation;animation-name: el_LpnAQzFNe8S_nn1TOVoez_Animation;}#el_LpnAQzFNe8S_Ug004t0Pv{-webkit-animation-name: el_LpnAQzFNe8S_Ug004t0Pv_Animation;animation-name: el_LpnAQzFNe8S_Ug004t0Pv_Animation;-webkit-animation-timing-function: cubic-bezier(0.42, 0, 0.58, 1);animation-timing-function: cubic-bezier(0.42, 0, 0.58, 1);}#el_HsAvHiq2rBz_PpVZFLU8k{-webkit-animation-name: el_HsAvHiq2rBz_PpVZFLU8k_Animation;animation-name: el_HsAvHiq2rBz_PpVZFLU8k_Animation;}#el_HsAvHiq2rBz_a2HbQ83hz{-webkit-animation-name: el_HsAvHiq2rBz_a2HbQ83hz_Animation;animation-name: el_HsAvHiq2rBz_a2HbQ83hz_Animation;}</style><title>Pulmones</title><g id="el_wXTOv5XbMW_6-QsIiPFW" data-animator-group="true" data-animator-type="2"><g id="el_wXTOv5XbMW"><path d="M200.52,78.65a61.3,61.3,0,0,1-6.94,15.26,81.87,81.87,0,0,1,10.56,24.84h1.51a89.22,89.22,0,0,1,26.43,3.94c-2.29-4.94-4.74-9.59-7.3-13.92a32.12,32.12,0,0,1-15.07-20.85C208.59,85.44,200.14,78.32,200.52,78.65Z" id="el_AFJ4xm20LY"/><path d="M116.62,220.08a1,1,0,0,0,0-.16,81.93,81.93,0,0,1-35.45-11.81A61.66,61.66,0,0,1,38.1,225.57a17.45,17.45,0,0,1-1.77-.06s3.24,20.17,14.85,27.88a31.9,31.9,0,0,1,26-22l1.19-.14c12.48-9.54,28.34-7.09,38.63-11.32h0Z" id="el_FvJadl6GRW"/><path d="M243.61,156.12a175.38,175.38,0,0,0-11.49-33.43h0a89.22,89.22,0,0,0-26.43-3.94h-1.51a81.92,81.92,0,0,1,2.23,16.76c0,.06,0,.12,0,.18,0,.35,0,.7,0,1s0,.86,0,1.29a82.21,82.21,0,0,1-48,74.75,13.4,13.4,0,0,0,2,2.89c9.31,10.17,29.89,3.72,45.33,16,7.79,6.19,16.1,22.93,24.41,22.22C251.22,252,252.57,193.91,243.61,156.12Z" id="el_xpYbaJEw72"/><path d="M36.33,225.51a17.45,17.45,0,0,0,1.77.06,61.66,61.66,0,0,0,43.05-17.46h0a82.15,82.15,0,0,1-38.5-59.3l0-.17c-.07-.58-.14-1.15-.2-1.73.17-.57.89-3.54-1,3.56l-.06.21c-.13.48-.26,1-.38,1.46-.07.24-.13.48-.19.73-.11.4-.21.81-.31,1.21-.17.68-.34,1.35-.5,2C34.91,177.34,33.14,205.05,36.33,225.51Z" id="el_aH8_ecYIzZ"/><path d="M199.4,77.68l-.06-.05c-.36-.31-.71-.61-1.07-.9l-.09-.08-1-.84-.12-.1-1-.79-.13-.1c-.33-.26-.67-.51-1-.76l-.12-.09-1-.72-.11-.08-1-.7-.1-.06-1-.67-.08,0-1-.65,0,0a44.5,44.5,0,0,0-7.2-3.62h0l-.3-.11-.38-.15-.65-.22c-6.35-2.09-10.75-1.14-13.72,1.54a84,84,0,0,1,11.66,9l0,0,.75.69.14.14.67.64.21.2.62.61.23.24c.2.2.4.39.59.6s.13.13.19.19c.71.73,1.41,1.48,2.09,2.24a.27.27,0,0,1,.07.08l.69.77.07.09a82.58,82.58,0,0,1,7.46,10,61.3,61.3,0,0,0,6.94-15.26Z" id="el_cvYZ9L4Pb7"/><path d="M129.83,28.71c1.11,10.92,3.06,27.48,3.06,27.48A83.17,83.17,0,0,1,150.4,60c-.27,3.82.61-7.72,1.52-15.8.71-6.34,1.42-11.73,1.79-15.51Z" id="el_48sF01R0BH"/><polygon points="47.35 68.56 47.35 68.56 47.35 68.56 47.35 68.56" id="el_rt1YSZ2LQo"/><path d="M156.67,133.24h0C156.72,133.33,156.69,133.28,156.67,133.24Z" id="el_DLYAYhrnW3"/><path d="M82.08,79.53c.46-.42.41-.39,0,0Z" id="el_MIWpKMfpFE"/><path d="M193.58,93.91a62,62,0,0,1-9.09,11.24.94.94,0,0,0-.1.1l-.55.53-.41.38a1.54,1.54,0,0,1-.19.17,61.57,61.57,0,0,1-14.65,10.1h0l-.67.33-.78.37c.07.36.35,2.61.27,9.85l-.73-.39-.26-.16-.45-.27-.3-.19-.43-.28-.51-.36-.33-.24-.39-.29-.23-.19-.41-.33-.11-.09c-.5-.42-1-.87-1.45-1.34l0,0a25,25,0,0,1-2.36-2.74h0a62.4,62.4,0,0,1-18.24,2.7A61.55,61.55,0,0,1,124,120.4a23.36,23.36,0,0,1-7.75,6.59c-1-6.88.24-9.31.24-9.31A62,62,0,0,1,82.08,79.54a123.69,123.69,0,0,0-21.52,26.29h0A62,62,0,0,1,100,163.6c0,.53,0,1.06,0,1.58v0l-.06,1.56v0a61.66,61.66,0,0,1-14,36.15l-.08.09c-.24.3-.48.58-.73.87l-.63.73-.2.22c-1,1.12-2,2.21-3.12,3.25a81.93,81.93,0,0,0,35.45,11.81h0q-.42-3.36-.59-6.8c0-.08,0-.16,0-.24l0-.61c0-.72,0-1.44-.06-2.17,0-.52,0-1,0-1.56a89.19,89.19,0,0,1,9.53-40.3c-.5-2.37-1-4.7-1.57-7-8.95-37.87,32.83-28,32.83-28s0,0,0,0A88.8,88.8,0,0,1,185,121.12l.11,0c.43-.11.87-.21,1.31-.3l.46-.1,1-.2.85-.17.61-.11,1.29-.23.18,0a90.26,90.26,0,0,1,13.35-1.22h0A81.87,81.87,0,0,0,193.58,93.91Z" id="el_YFp6g-jPcS"/><path d="M167.09,117.15h0C167.09,117.06,167.08,117.07,167.09,117.15Z" id="el_uRyWDkpvNo"/><path d="M78.35,231.28l-1.19.14a31.9,31.9,0,0,0-26,22,13.4,13.4,0,0,0,2.3.47c8.26.71,16.63-16,24.41-22.22.18-.12.29-.24.47-.36Z" id="el_bvE6yYKazP"/><path d="M217.06,97c-2.42-3.29-4.88-6.33-7.35-9.11a32.12,32.12,0,0,0,15.07,20.85l0,0C222.31,104.55,219.71,100.63,217.06,97Z" id="el_i9lHMN4j_f"/><path d="M206.4,136.73c0-.34,0-.69,0-1,0-.06,0-.12,0-.18a81.92,81.92,0,0,0-2.23-16.76h0A90.26,90.26,0,0,0,190.76,120l-.18,0-1.29.23-.61.11-.85.17-1,.2-.46.1c-.44.09-.88.19-1.31.3l-.11,0a88.91,88.91,0,0,0-28.32,12.12c.12.17.23.34.34.51a2.14,2.14,0,0,0,.13.19c.06.11.13.21.2.32l.15.26.16.26c.05.1.11.2.17.3a1.71,1.71,0,0,0,.13.23c.06.12.12.23.17.34s.07.14.11.2l.19.38.08.17c.06.14.13.27.19.41l.06.13c.07.15.14.31.2.47l.23.54V138c.08.19.15.39.23.58a1.59,1.59,0,0,0,.07.2c.05.15.11.31.16.47s.07.23.11.34.08.23.11.35l.15.5.06.22c.07.23.13.47.18.7l0,0a33.13,33.13,0,0,1,.91,7v0c0,.3,0,.6,0,.9v.1c0,.28,0,.57,0,.85v.15c0,.27,0,.55,0,.83a1.09,1.09,0,0,0,0,.18c0,.27,0,.54-.05.82,0,.07,0,.14,0,.21l-.06.8a1.94,1.94,0,0,0,0,.24c0,.26,0,.53-.08.79l0,.27c0,.26-.06.52-.1.79l0,.28-.12.79a2.54,2.54,0,0,1,0,.29c0,.27-.09.54-.13.81,0,.1,0,.2,0,.3-.05.27-.1.55-.16.83,0,.1,0,.19-.05.29-.06.29-.12.59-.19.89a1.84,1.84,0,0,1-.05.25c-.08.38-.17.77-.26,1.15a195.56,195.56,0,0,0-4.33,23.95c-1.13,10.83-.71,20.91,3,27.58a82.21,82.21,0,0,0,48-74.75C206.41,137.59,206.41,137.16,206.4,136.73Z" id="el_4DhwV_AVZA"/><path d="M125.41,168.2l0,0a89.19,89.19,0,0,0-9.53,40.3v.84c0,.24,0,.48,0,.72,0,.73,0,1.45.06,2.17l0,.61c0,.08,0,.16,0,.24q.16,3.44.59,6.8h0a1,1,0,0,1,0,.16l.32-.12h.1a16.2,16.2,0,0,0,6.13-4.31c.13-.16.27-.32.4-.49l.08-.1c.1-.13.21-.26.31-.4l.09-.13c.09-.13.19-.26.28-.4l.09-.13.27-.41.08-.14c.09-.14.18-.29.26-.44a.75.75,0,0,0,.07-.12c.1-.16.19-.33.28-.49l0-.08a19.85,19.85,0,0,0,.86-1.86l0-.09.21-.54.06-.17c.06-.15.12-.31.17-.47a1.72,1.72,0,0,0,.07-.21c0-.15.11-.3.15-.46a1.42,1.42,0,0,0,.07-.22c0-.15.1-.31.14-.46s0-.15.07-.22.09-.34.14-.51a1.21,1.21,0,0,1,0-.18c0-.22.11-.44.16-.67v0c.06-.24.11-.48.16-.72l0-.16.12-.57c0-.08,0-.16,0-.24l.09-.51c0-.08,0-.17.05-.26s0-.33.08-.5l0-.26c0-.17.05-.35.08-.53l0-.23c0-.2,0-.41.07-.61,0,0,0-.11,0-.16C129.5,191.73,127.81,179.61,125.41,168.2Z" id="el_XEWOOP6tjz0"/><path d="M49,128.32c.34-.82.69-1.64,1.05-2.44C49.66,126.68,49.31,127.5,49,128.32Z" id="el_lzA1t2M3aUp"/><path d="M60.57,105.83h0l-.07.12q-3.37,5.43-6.49,11.54l-.18.37L53.27,119l-.33.65-.36.75c-.27.55-.53,1.11-.8,1.68l-.1.22a173,173,0,0,0-8.32,21.48c0,.12-.08.25-.11.38-.12.36-.23.73-.34,1.1l-.51,1.69c.06.58.13,1.15.2,1.73l0,.17a82.15,82.15,0,0,0,38.5,59.3h0c1.08-1.05,2.13-2.13,3.13-3.25l.2-.22.63-.73c.25-.29.49-.57.73-.87l.08-.09a61.76,61.76,0,0,0,14-36.15v0l.06-1.56v0c0-.52,0-1.05,0-1.58A62,62,0,0,0,60.57,105.83Z" id="el__wVHKiTmwTv"/><path d="M149.86,84.05c0-.34,0-.69,0-1C149.83,83.36,149.84,83.71,149.86,84.05Z" id="el_RaCxf4x9EF4"/><path d="M149.8,82.45c0-.28,0-.56,0-.84C149.79,81.89,149.79,82.17,149.8,82.45Z" id="el_YzgMK3O5Sgo"/><path d="M149.82,83c0-.19,0-.38,0-.57C149.81,82.64,149.81,82.83,149.82,83Z" id="el_cSDlluq-UnM"/><path d="M149.88,84.54c0-.16,0-.33,0-.49C149.86,84.21,149.87,84.38,149.88,84.54Z" id="el_ut_90zhnUry"/><path d="M150,86.32l0-.55Z" id="el_ijayTB-xagP"/><path d="M150,86.93c0,.06,0,.11,0,.17,0-.26,0-.52,0-.78Z" id="el_A_L_e9GjBhu"/><path d="M149.94,85.77q0-.61-.06-1.23Q149.89,85.16,149.94,85.77Z" id="el_pvlVNUMC4yA"/><path d="M149.74,79.59c0-.31,0-.61,0-.92C149.73,79,149.74,79.28,149.74,79.59Z" id="el_bA_Fwto_Qld"/><path d="M149.73,78.67v0Z" id="el_nRBurQVWLQk"/><path d="M149.73,78.18v0Z" id="el_m_g60E8wJ4o"/><path d="M149.75,80.17c0-.2,0-.39,0-.58C149.74,79.78,149.75,80,149.75,80.17Z" id="el_Ow0-oL3AUx-"/><path d="M149.78,81.61c0-.2,0-.4,0-.61C149.77,81.21,149.77,81.41,149.78,81.61Z" id="el_qbb37LhfT1C"/><path d="M149.77,81c0-.27,0-.55,0-.83C149.75,80.45,149.76,80.73,149.77,81Z" id="el_fzQnDaMaivK"/><path d="M158.93,119.42c-.09-.12-.18-.25-.26-.38l-.15-.22c-.22-.32-.43-.64-.63-1l0,0c-3.1-5-5.13-11.24-6.38-18.15h0c-.07-.42-.15-.85-.22-1.27s-.13-.82-.2-1.24l0-.25c0-.09,0-.19-.05-.29-.16-1.09-.3-2.19-.43-3.3a1.64,1.64,0,0,0,0-.23l0-.18-.09-.83V92c0-.26-.05-.53-.07-.79s-.06-.59-.08-.89l-.12-1.42v-.09c0-.57-.08-1.14-.12-1.71,0,.09,0,.19,0,.28s0-.13,0-.19v-.11c0-.55-.07-1.09-.09-1.64a1.15,1.15,0,0,1,0-.19c0-.53,0-1.06-.07-1.59a1.93,1.93,0,0,1,0-.24c0-.52,0-1-.05-1.56,0-.1,0-.2,0-.3l0-1.5c0-.12,0-.24,0-.35,0-.49,0-1,0-1.47V76c0-.46,0-.92,0-1.38v-.5l0-1.33c0-.19,0-.37,0-.56,0-.43,0-.85,0-1.27,0-.21,0-.42,0-.63,0-.4,0-.8,0-1.2l0-.7c0-.37,0-.75.05-1.13s0-.52,0-.78,0-.69.05-1l.06-.9c0-.31,0-.61,0-.91s.05-.74.07-1.11,0-.47.05-.7l.12-1.8a83.17,83.17,0,0,0-17.51-3.83,219.35,219.35,0,0,1,.74,30.13c0,.37,0,.74-.07,1.11s0,.47,0,.7c0,.6-.09,1.19-.14,1.78,0,.1,0,.2,0,.3l-.09,1-.06.6c0,.24-.05.48-.07.72-.1.94-.21,1.86-.33,2.78a1.1,1.1,0,0,1,0,.18c-.06.4-.11.8-.17,1.2,0,.1,0,.19,0,.28-.05.37-.11.73-.17,1.1,0,.1,0,.2,0,.31l-.18,1-.06.32c-.06.35-.12.69-.19,1l-.06.32c-.07.35-.14.7-.22,1l-.06.27c-.09.43-.19.87-.29,1.29-1.59,6.49-3.89,12.27-7.37,16.69h0a61.55,61.55,0,0,0,17.19,2.41,62.4,62.4,0,0,0,18.24-2.7h0Zm-8.8-30.53h0v0Z" id="el_Xs__96Nw_Up"/><path d="M101.77,66.92l-.83.28h0a43.08,43.08,0,0,0-8,4l-.39.25-.23.15q-2,1.26-4,2.78c-2,1.53-4.1,3.25-6.19,5.17a62,62,0,0,0,34.37,38.14c.82-8.08,3.06-15.56,4.18-25.59C122.05,79,119.51,61.08,101.77,66.92Z" id="el_RT9b3JLU9bG"/><path d="M186.12,84l-.07-.09-.69-.77a.27.27,0,0,0-.07-.08c-.68-.76-1.38-1.51-2.09-2.24-.06-.06-.12-.13-.19-.19s-.39-.4-.59-.6l-.23-.24-.62-.61-.21-.2-.67-.64-.14-.14-.75-.69,0,0a84.72,84.72,0,0,0-11.66-9h0c-5.3,4.83-6.07,15.21-5.13,23.64l.12,1.06c0,.19,0,.39.07.58s0,.25,0,.38c0,.33.08.64.13,1v.1l.06.46a2.51,2.51,0,0,1,0,.27h0c0,.3.09.6.13.9l.06.38.06.4.12.71c0,.17.05.33.08.5s.09.54.14.81.05.31.08.46.1.56.15.84,0,.28.07.42c0,.3.11.6.17.9l.06.32.18,1c0,.07,0,.14,0,.22.23,1.2.46,2.39.69,3.56,0,.18.07.37.11.56l.09.51.18.94a2.21,2.21,0,0,1,0,.25c.07.36.13.71.2,1.06a1.85,1.85,0,0,0,0,.23c.06.35.12.71.19,1.07l0,.21.18,1.08,0,.19c.06.37.12.73.17,1.1,0,.06,0,.11,0,.16.06.38.11.76.16,1.14v.11l.15,1.21.8-.38.67-.33h0a62.06,62.06,0,0,0,14.65-10.1,1.54,1.54,0,0,0,.19-.17l.41-.38.55-.53a.94.94,0,0,1,.1-.1,62.15,62.15,0,0,0,9.07-11.23A80.73,80.73,0,0,0,186.12,84Z" id="el_QOh6AJ0aLhG"/></g></g><g id="el_m6Smo6c3v6h_ZhmsIrAGt" data-animator-group="true" data-animator-type="0"><g id="el_m6Smo6c3v6h_--rqJI1CP" data-animator-group="true" data-animator-type="2"><path d="M161.49,236.3a18.1,18.1,0,1,0,18.1,18.1A18.13,18.13,0,0,0,161.49,236.3Z" id="el_m6Smo6c3v6h"/></g></g><g id="el_7l_267i_VZp_CykX5vLI5" data-animator-group="true" data-animator-type="0"><g id="el_7l_267i_VZp_6q2RJsChZ" data-animator-group="true" data-animator-type="2"><path d="M108.13,235.71a9,9,0,1,0,9.08,9A9.05,9.05,0,0,0,108.13,235.71Z" id="el_7l_267i_VZp"/></g></g><g id="el_ZB77XMpNkyR_LLRmgC8Lc" data-animator-group="true" data-animator-type="0"><g id="el_ZB77XMpNkyR_ka72LbRFv" data-animator-group="true" data-animator-type="2"><path d="M196.63,50.29a9.08,9.08,0,1,0-9.08-9.08A9.07,9.07,0,0,0,196.63,50.29Z" id="el_ZB77XMpNkyR"/></g></g><g id="el_LpnAQzFNe8S_nn1TOVoez" data-animator-group="true" data-animator-type="0"><g id="el_LpnAQzFNe8S_Ug004t0Pv" data-animator-group="true" data-animator-type="2"><path d="M93.1,47.23A18.13,18.13,0,1,0,75,29.07,18.16,18.16,0,0,0,93.1,47.23Z" id="el_LpnAQzFNe8S"/></g></g><g id="el_HsAvHiq2rBz_PpVZFLU8k" data-animator-group="true" data-animator-type="0"><g id="el_HsAvHiq2rBz_a2HbQ83hz" data-animator-group="true" data-animator-type="2"><path d="M62.86,74.47a9.06,9.06,0,1,0-9.08-9A9.06,9.06,0,0,0,62.86,74.47Z" id="el_HsAvHiq2rBz"/></g></g></svg>