<svg id="_" style="width: 5rem;" xmlns="http://www.w3.org/2000/svg" viewBox="0 0 94.35 260"><defs><style>.cls-1{fill:#83aeb1;}.cls-2{fill:#8d453b;}.cls-3{fill:#ffc182;}.cls-4{fill:#349989;}.cls-5{fill:#e19f68;}.cls-6{fill:#693132;}.cls-7{fill:#7e2627;}.cls-8{fill:#fff;}.cls-9{fill:#0c6361;}</style></defs><title>man</title><path class="cls-1" d="M102.82,275.53C102.82,278,124,280,150,280s47.18-2,47.18-4.47-21.13-4.48-47.18-4.48S102.82,273.05,102.82,275.53Z" transform="translate(-102.82 -20)"/><path class="cls-2" d="M146.42,50.46a.92.92,0,0,1-.45-.12,14.22,14.22,0,0,0-8.54-1.63.91.91,0,0,1-1-.85.93.93,0,0,1,.85-1,16.1,16.1,0,0,1,9.59,1.86.93.93,0,0,1-.46,1.74Z" transform="translate(-102.82 -20)"/><path class="cls-2" d="M156.5,50.46a.93.93,0,0,1-.46-1.74,16.11,16.11,0,0,1,9.59-1.86.93.93,0,0,1,.85,1,.91.91,0,0,1-1,.85A14.22,14.22,0,0,0,157,50.34.92.92,0,0,1,156.5,50.46Z" transform="translate(-102.82 -20)"/><path class="cls-3" d="M174.56,183.57,178,184a2.59,2.59,0,0,0,2.84-2l.63-3a12,12,0,0,0-.78-7.37l-.34-.76v-55h-11l2.94,65.29A2.58,2.58,0,0,0,174.56,183.57Z" transform="translate(-102.82 -20)"/><path class="cls-4" d="M133.06,161.25h42.19l1-43.47,5.75-.64-.69-15a10.48,10.48,0,0,0-7-9.4l-9.07-3.17-1.35-4.34L155.59,82,141,82.26l-2.4,5.16-12.09,3.12a9.81,9.81,0,0,0-7.27,8.17l-2.29,16.84,16.44,1.83-.3-4.07Z" transform="translate(-102.82 -20)"/><polygon class="cls-3" points="40.16 62.1 48.45 64.02 52.77 73.89 55.68 73.89 55.65 54.47 40.16 54.47 40.16 62.1"/><path class="cls-5" d="M158.48,81.66V74.47H143v4.32A28.27,28.27,0,0,0,158.48,81.66Z" transform="translate(-102.82 -20)"/><path class="cls-3" d="M131.8,37.81h35a0,0,0,0,1,0,0v23a17.13,17.13,0,0,1-17.13,17.13h-.73A17.13,17.13,0,0,1,131.8,60.79v-23a0,0,0,0,1,0,0Z" transform="matrix(0.97, -0.22, 0.22, 0.97, -111.97, 14.78)"/><polygon class="cls-6" points="25.44 237.78 37.11 237.78 50.65 164.79 52.77 161.39 53.73 237.78 65.71 237.78 72.43 164.59 72.43 141.25 30.23 141.25 29.43 186.64 27.04 201.67 25.44 237.78"/><path class="cls-3" d="M118.64,180.43h8.63a2.29,2.29,0,0,0,2.29-2.1l.31-3.57a4.76,4.76,0,0,0-1.47-3.87l-2-1.93,4.94-51.82-12.62-1.31-1,25.61-1.35,36.63A2.28,2.28,0,0,0,118.64,180.43Z" transform="translate(-102.82 -20)"/><polygon class="cls-3" points="27.36 244.1 35.87 244.1 37.11 237.78 27.36 237.78 27.36 244.1"/><polygon class="cls-3" points="54.09 244.1 63.84 251.05 67.75 246.74 63.84 241.7 63.84 237.78 54.09 237.78 54.09 244.1"/><path class="cls-3" d="M171.54,53.62c.17,3.47-1.59,6.38-3.94,6.5S163.21,57.52,163,54s1.6-6.37,3.94-6.49S171.37,50.15,171.54,53.62Z" transform="translate(-102.82 -20)"/><path class="cls-3" d="M135.27,60.4c-1.35-3.2-4.2-5-6.37-4.14s-2.83,4.26-1.47,7.46,4.21,5,6.37,4.13S136.63,63.6,135.27,60.4Z" transform="translate(-102.82 -20)"/><path class="cls-2" d="M138.81,57.67c.34,1.82,1.64,3.1,2.9,2.87s2-1.91,1.67-3.73-1.64-3.1-2.9-2.87S138.47,55.85,138.81,57.67Z" transform="translate(-102.82 -20)"/><path class="cls-2" d="M161.73,53.39c.34,1.82-.41,3.49-1.67,3.72s-2.56-1-2.9-2.87.41-3.48,1.67-3.72S161.39,51.57,161.73,53.39Z" transform="translate(-102.82 -20)"/><path class="cls-7" d="M133.42,66.93h0l-1.75-21.42,5.69.31a34.42,34.42,0,0,0,10.16-1h0a7.19,7.19,0,0,0,4.71-4.63h0l1.92.71a14.29,14.29,0,0,0,6.79.81h0l6.6,17.36.39-.55a4.88,4.88,0,0,0,.78-3.82l-1.7-8,1.3-2.9a18.29,18.29,0,0,0,1.52-9.11l-.26-2.84a5.37,5.37,0,0,0-5.4-4.88l-5.23.06h0a6,6,0,0,0-6.37-5.42l-5.79.34h0a4,4,0,0,0-6.46-.68L129,33.84A11.91,11.91,0,0,0,126.74,46l.34.89,3.44,16.49A4.83,4.83,0,0,0,133.42,66.93Z" transform="translate(-102.82 -20)"/><rect class="cls-7" x="134.84" y="50.38" width="7.7" height="2.76" rx="1.35" ry="1.35" transform="translate(-107.96 -3.3) rotate(-6.77)"/><rect class="cls-7" x="151.28" y="43.76" width="8.71" height="2.76" rx="1.35" ry="1.35" transform="translate(-107.15 -0.77) rotate(-6.97)"/><rect class="cls-8" x="52.77" y="73.89" width="2.97" height="18.3"/><path class="cls-6" d="M140.17,275.84H126.11a1.68,1.68,0,0,1-1.68-1.67v-.75a7.5,7.5,0,0,1,1.89-5l3.86-4.34h8.51l2.45,5.19a7.51,7.51,0,0,1,.71,3.2v1.68A1.68,1.68,0,0,1,140.17,275.84Z" transform="translate(-102.82 -20)"/><path class="cls-6" d="M186.31,275.84H159.53a2.61,2.61,0,0,1-2.62-2.61V264.1L166,270l2.52-5.87,18.53,8.13A1.9,1.9,0,0,1,188.2,274h0A1.89,1.89,0,0,1,186.31,275.84Z" transform="translate(-102.82 -20)"/><polygon class="cls-9" points="50.69 73.89 47.92 67.26 44.94 75.73 50.69 73.89"/><polygon class="cls-9" points="56.9 73.89 59.54 66.82 61.7 73.23 56.9 73.89"/><path class="cls-5" d="M151.75,70.27a12.54,12.54,0,0,1-6.16-1.71.88.88,0,0,1-.34-1.19.87.87,0,0,1,1.19-.33,10.23,10.23,0,0,0,10.64,0,.87.87,0,1,1,.85,1.52A12.64,12.64,0,0,1,151.75,70.27Z" transform="translate(-102.82 -20)"/></svg>
