<svg id="Layer_1" style="width: 40%; margin: 7px 0;" data-name="Layer 1" xmlns="http://www.w3.org/2000/svg" viewBox="0 0 385.4 455"><title>measure-liquid</title><g id="NewGroupe0"><path d="M54.36,322.05l-4.74.11-.72-30.23,4.73-.12.73,30.24Zm11.49-.28-4.73.12-.46-19.14,4.73-.11.46,19.13Zm11.49-.27-4.73.11-.46-19.13,4.73-.12.46,19.14Zm11.49-.28-4.73.12-.46-19.14,4.73-.11.46,19.13ZM99.71,321l-4.73.11-.72-30.23,4.73-.11L99.71,321Zm11.49-.27-4.73.11L106,301.67l4.73-.12.45,19.14Zm11.5-.28-4.73.11-.46-19.13,4.73-.11.46,19.13Zm11.49-.27-4.73.11L129,301.12l4.73-.12.46,19.14Zm11.49-.28L141,320l-.73-30.23,4.73-.11.73,30.23Zm11.49-.28-4.73.12L152,300.56l4.73-.11.46,19.13Zm11.49-.27-4.73.11-.46-19.13,4.73-.11.46,19.13Zm11.49-.28-4.73.12L175,300l4.73-.11.46,19.13Zm10.89-.26-4.74.12-.72-30.24,4.73-.11.73,30.23Zm11.49-.27-4.73.11-.46-19.13,4.73-.11.46,19.13Zm11.49-.28-4.73.12-.46-19.14,4.73-.11.46,19.13Zm11.49-.27-4.73.11-.46-19.13,4.73-.12.46,19.14Zm11.49-.28-4.73.12-.73-30.24,4.74-.11.72,30.23Zm35.21,5.09a10.67,10.67,0,0,0,3-7.68l-1.23-51.55a10.76,10.76,0,0,0-11-10.5L19,259.43a10.78,10.78,0,0,0-10.47,11l1.23,51a10.76,10.76,0,0,0,10.74,10.5h.27l243.9-5.85a10.71,10.71,0,0,0,7.53-3.33Z" transform="translate(-8.53 -19.71)" style="fill:#00ace7"/><rect x="266.64" y="295.37" style="fill:#00ace7"/><path d="M221.59,19.71c-95.17,0-172.33,17.63-172.33,39.36s77.16,39.36,172.33,39.36S393.93,80.81,393.93,59.07,316.77,19.71,221.59,19.71Z" transform="translate(-8.53 -19.71)" style="fill:#00ace7"/><path d="M100.36,447.16l30.52,11a279.7,279.7,0,0,0,183.19,2.24l35.21-11.71a65.27,65.27,0,0,0,44.65-61.93V81.53l-10.86,3.84a485.13,485.13,0,0,1-322.94,0L49.25,81.53v163L271.4,238.7a14,14,0,0,1,14.41,13.71L287.49,322a14.06,14.06,0,0,1-13.71,14.38L49.25,341.8v32.62a77.32,77.32,0,0,0,51.11,72.74Z" transform="translate(-8.53 -19.71)" style="fill:#00ace7"/></g></svg>
