<svg id="Layer_1" data-name="Layer 1" xmlns="http://www.w3.org/2000/svg" viewBox="0 0 34.59 124"><title>small_bottle</title><path d="M47.67,51.18v-.6L48.73,50H62.32l1.06.61h-13v.6Zm1.06.61h1.64v1.43h-.11l0,0L42.07,66.58a19.09,19.09,0,0,0-2.28,8.89v6.41a3.89,3.89,0,0,0,.36,1.66,1.8,1.8,0,0,0,.64.72v52.66c-.44.09-.73.45-.89,1.08a4.44,4.44,0,0,0-.12,1v11.75q.55,7,2.1,10.15a3.67,3.67,0,0,0,2.86,2H43.21a3.67,3.67,0,0,1-2.86-2q-1.55-3.16-2.1-10.15V139c0-1.24.37-1.93,1-2.06V84.26a1.8,1.8,0,0,1-.64-.72,3.89,3.89,0,0,1-.36-1.66V75.47a19.09,19.09,0,0,1,2.29-8.89L48.7,53.26l0,0Zm11.94,0h1.65v1.32l8.24,13.47a19,19,0,0,1,2.28,8.89v6.41a4.05,4.05,0,0,1-.35,1.66,2,2,0,0,1-.64.72v52.66c.44.09.73.45.89,1.08a5.29,5.29,0,0,1,.1,1v11.75q-.54,7-2.08,10.15a6.54,6.54,0,0,1-.52.69l-.31.32a3,3,0,0,1-2,.94H66.38a3,3,0,0,0,2-.94l.31-.32a6.57,6.57,0,0,0,.53-.69q1.53-3.16,2.09-10.15V139a6.09,6.09,0,0,0-.12-1c-.16-.63-.45-1-.88-1.08V84.26a1.87,1.87,0,0,0,.64-.72,4.05,4.05,0,0,0,.35-1.66V75.47A19,19,0,0,0,69,66.58L60.87,53.26l0,0h-.18Zm-8.18,0h6.08v1.43h.52l5.72,13.36a25.93,25.93,0,0,1,1.6,8.89v6.41a5.64,5.64,0,0,1-.25,1.66H45a5.33,5.33,0,0,1-.25-1.66V75.47a25.7,25.7,0,0,1,1.59-8.89L52,53.22h.47ZM66.32,138a6.44,6.44,0,0,1,.09,1v11.75A42.2,42.2,0,0,1,65,160.88c-.12.26-.24.48-.36.69l-.19.28a36.27,36.27,0,0,0-17.69,0,2.75,2.75,0,0,1-.19-.28,6.31,6.31,0,0,1-.36-.69,41.59,41.59,0,0,1-1.47-10.15V139a6.44,6.44,0,0,1,.09-1Zm-.61-2.61H45.4V85.67H65.71Z" transform="translate(-38.25 -38.82)" style="fill:#c4e7fb;fill-rule:evenodd"/><path d="M52.49,50.58H63.38v.6H52.49ZM44.74,162.83a3.67,3.67,0,0,1-2.86-2q-1.55-3.16-2.1-10.15V139a4.44,4.44,0,0,1,.12-1c.16-.63.45-1,.89-1.08V84.26a1.8,1.8,0,0,1-.64-.72,3.89,3.89,0,0,1-.36-1.66V75.47a19.09,19.09,0,0,1,2.28-8.89l8.17-13.32,0,0H52L46.29,66.58a25.7,25.7,0,0,0-1.59,8.89v6.41A5.33,5.33,0,0,0,45,83.54H66.16a5.64,5.64,0,0,0,.25-1.66V75.47a25.93,25.93,0,0,0-1.6-8.89L59.09,53.22h-.52V51.79h2.1v1.43h.18l0,0L69,66.58a19,19,0,0,1,2.28,8.89v6.41A4.05,4.05,0,0,1,71,83.54a1.87,1.87,0,0,1-.64.72v52.66c.43.09.72.45.88,1.08a6.09,6.09,0,0,1,.12,1v11.75q-.56,7-2.09,10.15a6.57,6.57,0,0,1-.53.69l-.31.32a3,3,0,0,1-2,.94ZM58.57,50H49V49h9.6Zm7.75,88H44.78a6.44,6.44,0,0,0-.09,1v11.75a41.59,41.59,0,0,0,1.47,10.15,6.31,6.31,0,0,0,.36.69,2.75,2.75,0,0,0,.19.28,36.27,36.27,0,0,1,17.69,0l.19-.28c.12-.21.24-.43.36-.69a42.2,42.2,0,0,0,1.46-10.15V139A6.44,6.44,0,0,0,66.32,138Zm-.61-2.61V85.67H45.4v49.72Z" transform="translate(-38.25 -38.82)" style="fill:#96d3f8;fill-rule:evenodd"/><path d="M52.49,51.18H63.38l-1.06.61H48.73l-1.06-.61h4.82ZM62.08,50H58.57V49h3.51Z" transform="translate(-38.25 -38.82)" style="fill:#42b0f2;fill-rule:evenodd"/><path d="M50.37,53.22V51.79h2.12v1.43H50.37Zm2.12-2H50.37v-.6h2.12Z" transform="translate(-38.25 -38.82)" style="fill:#fff;fill-rule:evenodd"/><path d="M60.57,53.27l1.55,3a20,20,0,0,0-6.31-.95,19.62,19.62,0,0,0-6.94,1.17l1.6-3.18Z" transform="translate(-38.25 -38.82)" style="fill:#42b0f2;fill-rule:evenodd"/><path d="M51.89,53.51h1.77c-.36,1.58-.71,3.17-1.07,4.75l-1.81,8.3A47.89,47.89,0,0,0,49.94,75v6.88a5.77,5.77,0,0,0,.37,2.38v52.66c-.21.13-.34.74-.37,1.84v12c.1,3.19.24,5.78.45,7.78H48.18c-.75,0-1.42-.64-2-1.86a39,39,0,0,1-1.45-9.77V139c0-1.24.25-1.93.69-2.06V84.25a3.35,3.35,0,0,1-.69-2.38V75.46a25.81,25.81,0,0,1,1.59-8.9Z" transform="translate(-38.25 -38.82)" style="fill:#fff;fill-rule:evenodd"/><path d="M60.09,161.56l-4.86-.05c-1.91,0-3.56,0-4.95,0s-2.07-.17-2.07-.6.67-.8,2-1.11a22.55,22.55,0,0,1,4.92-.46,22.19,22.19,0,0,1,4.89.46c1.37.31,2.05.68,2.05,1.11S61.42,161.58,60.09,161.56Zm-2.48-.3c.67,0,1-.1,1-.32s-.34-.4-1-.55a12.68,12.68,0,0,0-4.91,0c-.67.15-1,.34-1,.55s.35.32,1,.3,1.51,0,2.47,0Z" transform="translate(-38.25 -38.82)" style="fill:#42b0f2;fill-rule:evenodd"/><path d="M57.61,161.26l-2.43,0c-1,0-1.78,0-2.47,0s-1-.08-1-.3.34-.4,1-.55a12.68,12.68,0,0,1,4.91,0c.68.15,1,.34,1,.55S58.28,161.26,57.61,161.26Z" transform="translate(-38.25 -38.82)" style="fill:#96d3f8;fill-rule:evenodd"/><path d="M71.21,82.67a1.84,1.84,0,0,1-1.8,1.59h-28a1.73,1.73,0,0,1-1.28-.53,1.75,1.75,0,0,1-.52-1.06Z" transform="translate(-38.25 -38.82)" style="fill:#42b0f2;fill-rule:evenodd"/><path d="M41.58,137a1.75,1.75,0,0,0-1.28.53,1.73,1.73,0,0,0-.52,1.06H71.36a1.73,1.73,0,0,0-.52-1.06,1.75,1.75,0,0,0-1.28-.53Z" transform="translate(-38.25 -38.82)" style="fill:#fff;fill-rule:evenodd"/><path d="M62.86,40.32h-10a3,3,0,0,0-.41,1.56v3.3H50.37v-3.3a3,3,0,0,1,.42-1.56h-2.6a3.13,3.13,0,0,1,.48-.62,3,3,0,0,1,2.17-.88h9.37a3,3,0,0,1,2.17.88A3.13,3.13,0,0,1,62.86,40.32ZM52.49,46.46V49H50.37V46.46Z" transform="translate(-38.25 -38.82)" style="fill:#89baeb;fill-rule:evenodd"/><path d="M62.84,45.75H60.67V41.88a3,3,0,0,0-.41-1.56h2.6a3,3,0,0,1,.41,1.56v3.87ZM60.67,49v-2h2.6v2Z" transform="translate(-38.25 -38.82)" style="fill:#1e65ac;fill-rule:evenodd"/><path d="M60.67,45.75H47.78V41.88a3,3,0,0,1,.41-1.56h2.6a3,3,0,0,0-.42,1.56v3.3h2.12v-3.3a3,3,0,0,1,.41-1.56h7.36a3,3,0,0,1,.41,1.56Zm-8.18.71H63.27v.47h-2.6v2H52.49Zm-4.28,0h2.16V49H47.78V46.46Z" transform="translate(-38.25 -38.82)" style="fill:#3187dd;fill-rule:evenodd"/><polygon points="24.59 7.63 14.24 7.63 12.12 7.63 9.96 7.63 9.96 6.93 22.42 6.93 24.59 6.93 24.59 7.63" style="fill:#13406c;fill-rule:evenodd"/></svg>