
<svg xmlns="http://www.w3.org/2000/svg" style="width: 80%;" version="1.1" xmlns:xlink="http://www.w3.org/1999/xlink" x="0px" y="0px" viewBox="0 0 300 300" style="enable-background:new 0 0 300 300;" xml:space="preserve">
<defs>
<g id="Layer3_0_FILL">
<path fill="#EEEEEE" stroke="none" d="
M 162.6 44.1
L 162.6 38.4
Q 165.35 37.8 150.1 37.8 135.2 37.8 135.2 38.25
L 135.2 43.95
Q 130.85 46.7 125.8 52.3 115.7 63.5 112.3 77.7 108.35 94.05 109.95 108.7 110.9 117.1 114.2 130.8 114.35 131.75 115.1 132.5
L 116.4 133.8
Q 117.4 134.8 117.4 136.1 117.4 137.45 116.4 138.4 115.35 139.45 115.5 140.7
L 115.5 146.85
Q 115.5 147.9 116.3 148.7
L 116.4 148.85
Q 117.35 149.75 117.4 151.1 117.45 152.55 116.5 153.5 115.5 154.6 115.5 155.85
L 115.5 161.65
Q 115.5 163.1 116.4 163.85 117.4 164.85 117.4 166.15 117.4 167.5 116.4 168.45 115.5 169.35 115.5 170.65
L 115.5 207
Q 115.5 212.35 115.4 213.9 115.4 214.2 115.6 214.8
L 116 215.7
Q 116.2 216.1 116.2 216.4 116.2 217.15 115.8 217.7 115.7 217.95 115.2 218.1
L 115.1 218.2
Q 114.35 218.6 114.2 219.3 111.9 227.2 111.85 227.55 110.25 233.65 109.3 240.7 107.65 252.8 108.65 262.55 109.6 272.25 112.9 277.5 115.55 281.6 118.9 283 119.5 283.2 119.9 283.2
L 120.2 283.2
Q 121.45 283.05 122.2 282 122.7 281.35 123.4 281.2 124.2 281.4 124.7 281.7
L 127.2 283.5
Q 128.25 284.2 129.2 284.2
L 141.1 284.3
Q 142.45 284.3 143.6 283.3
L 146.8 280
Q 147.65 279.15 149 279.15 149.75 279.15 150.6 279.65
L 151.1 280
Q 152.2 281.15 154.3 283.3 155.4 284.4 156.8 284.4
L 157 284.4
Q 165.4 284.4 168.3 284.3
L 168.7 284.3
Q 169.85 284.3 170.7 283.6
L 173.2 281.8
Q 173.6 281.5 174.4 281.3 175.1 281.45 175.6 282.1 176.35 283.15 177.7 283.3
L 177.9 283.3
Q 178.2 283.3 178.8 283.1 182.25 281.75 184.9 277.6 188.3 272.35 189.25 262.65 190.2 252.9 188.5 240.8 187.55 233.75 186 227.65 185.9 227.3 183.6 219.4 183.45 218.7 182.7 218.3
L 182.6 218.3
Q 181.6 217.85 181.6 216.6 181.6 216.3 181.8 215.9
L 182.2 215.1
Q 182.4 214.5 182.4 214.2 182.3 212.6 182.3 207.2
L 182.3 170.8
Q 182.3 169.35 181.4 168.6 180.45 167.65 180.45 166.25 180.45 164.9 181.4 164 182.3 163.1 182.3 161.8
L 182.3 156
Q 182.3 154.7 181.4 153.7 180.45 152.75 180.45 151.4 180.45 150.1 181.4 149.1 182.3 148.2 182.3 146.8
L 182.3 140.9
Q 182.3 139.5 181.4 138.6 180.45 137.65 180.45 136.3 180.45 135 181.4 134
L 182.7 132.7
Q 183.45 131.95 183.6 131 185.1 124.2 185.85 120.55 187.25 114 187.8 108.9 189.4 94.25 185.5 77.9 182.05 63.7 172 52.5 168.85 49 165.4 46.2
L 162.6 44.1
M 169.15 57.1
Q 177.8 66.9 180.8 79.3 184 92.5 183.35 104.05 182.95 111 180.3 122.6
L 179.1 128.3 178.6 128.8
Q 175.95 131.45 175.65 135.25 175.4 138.95 177.5 142
L 177.5 145.2
Q 175.6 147.9 175.6 151.1 175.6 154.3 177.5 157
L 177.5 160.1
Q 175.6 162.8 175.6 166 175.6 169.2 177.5 171.9
L 177.5 206.9
Q 177.5 210.6 177.6 212.8 176.9 214.4 176.9 215.7 176.6 219.85 179.6 222.7
L 179.7 222.9
Q 182.4 231.55 183.8 241.4 185.4 253.15 184.4 262.25 183.5 269.9 181.2 273.5 181.05 273.75 179.9 275.2 178.8 274.5 177.4 274.2
L 176 273.8 174.5 274
Q 172.25 274.3 170.4 275.7
L 168.8 276.8
Q 163.15 276.8 159.3 276.9
L 157.4 275 157.1 274.75
Q 156.35 274 155.3 273.25 153.3 271.95 150.65 271.65
L 149.75 271.65
Q 145.4 271.8 142.75 274.75
L 140.55 276.95
Q 133.55 276.95 131.05 276.85
L 129.45 275.75
Q 127.45 274.35 125.15 274
L 123.65 273.8 122.25 274.2
Q 121.25 274.45 119.95 275.2 119.2 274.45 118.65 273.5 116.35 269.9 115.5 262.25 114.45 253.15 116.05 241.4 117.3 232.15 120.15 222.9
L 120.15 222.8
Q 120.45 222.6 120.85 222 123.15 219.25 122.85 215.7 122.65 213.8 122.05 212.7 122.15 210.5 122.15 206.9
L 122.15 171.9
Q 124.05 169.2 124.05 166 124.05 162.8 122.15 160.1
L 122.15 157
Q 123.95 154.55 123.95 151.2 123.95 147.75 122.15 145.2
L 122.15 142
Q 124.05 139.4 124.05 136 124.05 131.75 121.05 128.85
L 120.55 128.35 119.35 122.65
Q 116.75 111.05 116.35 104.1 115.65 92.55 118.85 79.35 121.8 67.15 130.55 57.3 134.9 52.35 138.75 49.75
L 141.95 47.65 141.95 44.85 157.7 44.8 157.7 47.6 160.9 49.7
Q 160.95 49.75 163.4 51.6 166.4 54.05 169.15 57.1 Z"/>
</g>

<g id="Mask_Mask_water_svg_Layer_1_maskWaterBottle_0_Layer0_0_FILL">
<path fill="#FFFFFF" stroke="none" d="
M 47.3 3.2
Q 44.6 1.1 42.8 0.1
L 27.55 0
Q 21.05 3.3 15.3 9.55 6.7 18.8 3.75 31 0.55 44.25 1.25 55.85 1.65 62.8 4.25 74.4
L 5.45 80.1 5.95 80.6
Q 8.95 83.6 8.95 87.8 8.95 91.3 7.05 93.8
L 7.05 97.2
Q 8.85 99.75 8.85 103.2 8.85 106.45 7.05 109
L 7.05 112.2
Q 8.95 114.9 8.95 118.1 8.95 121.3 7.05 124
L 7.05 159.1
Q 7.05 162.7 6.95 164.9 7.55 166 7.75 167.9 8.05 171.45 5.75 174.2 5.35 174.8 5.05 175
L 5.05 175.1
Q 2.2 184.35 0.95 193.6 -0.65 205.4 0.4 214.55 1.25 222.2 3.55 225.8 4.55 227.2 4.85 227.5 6.15 226.75 7.15 226.5
L 8.55 226.1 10.05 226.3
Q 12.3 226.6 14.35 228
L 15.95 229.1
Q 18.6 229.2 25.45 229.2
L 27.45 226.9
Q 30.15 223.95 34.45 223.8
L 35.85 223.8
Q 38.3 223.95 40.55 225.4 41.5 225.95 42.35 226.8
L 44.55 229
Q 47.85 228.9 54.15 228.9
L 55.8 227.8
Q 57.65 226.4 59.9 226.1
L 61.4 225.9 62.8 226.3
Q 64.15 226.6 65.3 227.3 66.45 225.85 66.6 225.6 68.9 222 69.8 214.35 70.8 205.25 69.2 193.5 67.8 183.65 65.1 175 64.95 174.9 64.95 174.8 62 171.95 62.3 167.8 62.3 166.55 62.95 164.9 62.85 162.7 62.85 159
L 62.85 123.9
Q 60.95 121.2 60.95 118 60.95 114.8 62.85 112.1
L 62.85 109
Q 60.95 106.3 60.95 103.1 60.95 99.9 62.85 97.2
L 62.85 94
Q 60.75 90.95 61 87.25 61.3 83.45 63.95 80.8
L 64.45 80.3 65.65 74.6
Q 67.1 68.25 67.7 64.85 68.65 59.15 68.8 53.9 69.1 41.65 66.15 31.3 64.9 26.85 61.9 21.1 55.95 9.6 47.3 3.2 Z"/>
</g>

<g id="Symbol_2_0_Layer0_0_FILL">
<path fill="#28BADB" stroke="none" d="
M 111 0
L 0 0 0 286 111 286 111 0 Z"/>
</g>

<g id="Layer0_0_MEMBER_0_FILL">
<path fill="#606060" stroke="none" d="
M 166.45 37.35
Q 166.15 37.1 165.65 37.1
L 134.3 37.1
Q 133.85 37.1 133.5 37.35 133.15 37.6 133.15 37.9 133.15 38.2 133.5 38.45 133.85 38.7 134.3 38.7
L 165.65 38.7
Q 166.15 38.7 166.45 38.45 166.8 38.2 166.8 37.9 166.8 37.6 166.45 37.35 Z"/>
</g>

<g id="Layer0_0_MEMBER_1_FILL">
<path fill="#606060" stroke="none" d="
M 165.5 33.3
L 165.5 22.65
Q 165.5 22.45 165.15 22.25 165.15 21.5 164.65 21 164.1 20.5 163.35 20.5
L 136.65 20.5
Q 135.9 20.5 135.4 21 134.85 21.55 134.85 22.25 134.55 22.4 134.55 22.65
L 134.55 33.3 165.5 33.3 Z"/>
</g>

<g id="Layer0_0_MEMBER_2_FILL">
<path fill="#606060" stroke="none" d="
M 165.5 36.2
L 165.5 33.8 134.65 33.8 134.65 36.25
Q 134.65 36.6 135.1 36.6
L 165.1 36.6
Q 165.5 36.6 165.5 36.2 Z"/>
</g>
</defs>

<g transform="matrix( 1, 0, 0, 1, 0,0) ">
<use xlink:href="#Layer3_0_FILL"/>
</g>

<mask id="Mask_Mask_1">
<g transform="matrix( 1, 0, 0, 1, 114.7,47.5) ">
<g transform="matrix( 1, 0, 0, 1, 0,0) ">
<use xlink:href="#Mask_Mask_water_svg_Layer_1_maskWaterBottle_0_Layer0_0_FILL"/>
</g>
</g>
</mask>

<g mask="url(#Mask_Mask_1)">
<g transform="matrix( 1.149993896484375, 0, 0, 1.149993896484375, 84.8,38.15) ">
<g id="waterBrush" transform="matrix( 1, 0, 0, 1, 0,220)" style="transform: translateY(220px);">
<use xlink:href="#Symbol_2_0_Layer0_0_FILL"/>
</g>
</g>
</g>

<g transform="matrix( 1, 0, 0, 1, 0,0) ">
<use xlink:href="#Layer0_0_MEMBER_0_FILL"/>
</g>

<g transform="matrix( 1, 0, 0, 1, 0,0) ">
<use xlink:href="#Layer0_0_MEMBER_1_FILL"/>
</g>

<g transform="matrix( 1, 0, 0, 1, 0,0) ">
<use xlink:href="#Layer0_0_MEMBER_2_FILL"/>
</g>
</svg>
