<svg style="width: 50%;margin: 7px 0;" xmlns="http://www.w3.org/2000/svg" viewBox="0 0 425.09 405.13"><title>weight-scale</title><g id="_ÎÓÈ_1" data-name="—ÎÓÈ_1"><path d="M404.7,404.57c-1.11,9.08-10.42,16.35-20.81,16.35H74.1c-10.39,0-19.7-7.27-20.82-16.35L16.64,105.85C15,92.4,24.34,78.35,35.93,72c0,0,57.81-35,186.06-40.09C351,26.75,422.06,72,422.06,72c12.36,7.38,20.93,20.43,19.28,33.88Z" transform="translate(-16.45 -15.79)" style="fill:#00ace7"/><path d="M364,398H94c-10,0-19-7.18-20.12-16L41.88,121.52c-1.64-13.35,7.73-26,17.83-31.53.44-.27,52.06-30.78,163.1-35.2,5.93-.23,11.9-.35,17.75-.35,100.67,0,157.26,35.26,157.82,35.61,12.2,7.29,19.18,19.65,17.73,31.47L384.16,382C383.08,390.78,374.05,398,364,398ZM240.56,58.44c-5.8,0-11.72.12-17.59.35C113.09,63.16,62.21,93.15,61.71,93.45,52.94,98.29,44.45,109.57,45.85,121L77.8,381.46C78.64,388.35,85.89,394,94,394H364c8.07,0,15.32-5.61,16.16-12.5L412.14,121c1.25-10.25-5-21.08-15.86-27.58C395.69,93.08,340,58.44,240.56,58.44Z" transform="translate(-16.45 -15.79)" style="fill:#fff"/><circle cx="226.77" cy="99.33" r="83.54" transform="translate(-20.27 173.65) rotate(-45)" style="fill:#00c3e7"/><circle cx="212.2" cy="83.54" r="55.61" style="fill:#fff"/><path d="M177.36,103.62a55.6,55.6,0,0,1,96.25-37.95,55.61,55.61,0,1,0-85.44,70.89A55.36,55.36,0,0,1,177.36,103.62Z" transform="translate(-16.45 -15.79)" style="fill:#898989;opacity:0.24"/><path d="M195.82,81.79,186.13,76l-.83,1.41,9.77,5.8C195.31,82.76,195.56,82.27,195.82,81.79Z" transform="translate(-16.45 -15.79)" style="fill:#898989"/><path d="M209.92,67.16l-4.57-8.73-1.45.76L208.53,68C209,67.72,209.45,67.44,209.92,67.16Z" transform="translate(-16.45 -15.79)" style="fill:#898989"/><path d="M248.39,67.76l4.43-7.84-1.43-.81L247,66.93Z" transform="translate(-16.45 -15.79)" style="fill:#898989"/><path d="M191.43,99.33c0-.35,0-.7,0-1h-8.66v3.77h8.75C191.47,101.16,191.43,100.25,191.43,99.33Z" transform="translate(-16.45 -15.79)" style="fill:#898989"/><path d="M261.61,82l9-4.91-.78-1.44-9,4.92C261.09,81.05,261.36,81.52,261.61,82Z" transform="translate(-16.45 -15.79)" style="fill:#898989"/><path d="M228.66,62.1c.63,0,1.26,0,1.88,0V53.36h-3.77v8.79C227.4,62.12,228,62.1,228.66,62.1Z" transform="translate(-16.45 -15.79)" style="fill:#898989"/><path d="M195.42,116.1l-9.48,5.15.78,1.44,9.47-5.14C195.93,117.07,195.67,116.59,195.42,116.1Z" transform="translate(-16.45 -15.79)" style="fill:#898989"/><path d="M242.94,133.71l5.28,10.08,1.45-.75-5.23-10Z" transform="translate(-16.45 -15.79)" style="fill:#898989"/><path d="M265.86,98.29c0,.34,0,.69,0,1,0,.92-.05,1.83-.11,2.73h12.51V98.29Z" transform="translate(-16.45 -15.79)" style="fill:#898989"/><path d="M258.85,121.09l8.58,5.09.84-1.41-8.48-5C259.49,120.2,259.17,120.65,258.85,121.09Z" transform="translate(-16.45 -15.79)" style="fill:#898989"/><path d="M228.66,136.56c-.64,0-1.26,0-1.89-.05v12.35h3.77V136.51C229.92,136.54,229.29,136.56,228.66,136.56Z" transform="translate(-16.45 -15.79)" style="fill:#898989"/><path d="M210.43,131.79l-5.93,10.52,1.42.8,6-10.55C211.38,132.31,210.9,132.05,210.43,131.79Z" transform="translate(-16.45 -15.79)" style="fill:#898989"/><polygon points="209.84 88.13 215.29 49.83 220.34 88.13 209.84 88.13" style="fill:#898989;opacity:0.24"/><polygon points="206.95 88.13 212.4 49.83 217.45 88.13 206.95 88.13" style="fill:#ef7965"/><path d="M156.8,181.92c-6.63-1.11-13,2.54-18.78,6.05-11.14,6.81-22.46,13.77-31.05,23.61s-14.2,23.2-11.7,36c2.31,11.85,10.88,21.3,17,31.7,8.69,14.76,12.55,31.79,17.77,48.13,2.67,8.36,5.81,16.75,11.17,23.69s13.3,12.32,22,12.73c11.72.55,22.82-8.72,25.41-20.21s-2.89-24.09-12.46-30.9c-5.1-3.63-11.11-5.74-16.48-9a45.93,45.93,0,0,1-6.19-74.23c3.17-2.7,6.71-5,9.63-8a28.31,28.31,0,0,0,7.94-20.9C170.69,192.21,165.19,183.31,156.8,181.92Z" transform="translate(-16.45 -15.79)" style="fill:#fff"/><path d="M158.89,139.92c-6.3-4.11-8.78-4.34-14.57-1.3-6.32,4-7.4,11.26-4.37,18.91.89,2.24,4.16,6.06,4.65,8.42a18.56,18.56,0,0,0,2,3.63c.44.69,2.22.95,3,1.22,4,1.34,7.66,0,11.14-2.28a14,14,0,0,0,6.14-10.47,20.37,20.37,0,0,0-.81-6.8C164.9,146.83,162.72,142.42,158.89,139.92Z" transform="translate(-16.45 -15.79)" style="fill:#fff"/><path d="M122.83,169.45c.7,1,1.27,2.14,1.77,3.05.9,1.65,2.42,3.5,4.14,3.76,3.23.34,5.17-1,6.1-4.1s.16-5.84-.38-9.06-2.58-8.16-5.68-9.48a6.36,6.36,0,0,0-3.29-.37,8.6,8.6,0,0,0-6.86,5.69,7.53,7.53,0,0,0,2.15,8A18.21,18.21,0,0,1,122.83,169.45Z" transform="translate(-16.45 -15.79)" style="fill:#fff"/><path d="M110.57,187.06a5.35,5.35,0,0,0,5.65.15c1.07-.69,2.8-2.07,2.9-3.32.3-3.57-2.08-14.28-7.81-16.31-3.22-1.14-7.94,1.08-9,4.34-1.26,3.87,2.11,7.51,4.54,10.78A18.8,18.8,0,0,0,110.57,187.06Z" transform="translate(-16.45 -15.79)" style="fill:#fff"/><path d="M101.67,202.33a8,8,0,0,0,3.81-2.37c2.73-3.84-.55-9.08-2.7-13.27-1.7-3.31-3.85-4.45-6.1-3.95-4.75,1-5.82,5.66-5,8.65a18.52,18.52,0,0,0,4.76,8.33C97.85,201.11,99.69,202.64,101.67,202.33Z" transform="translate(-16.45 -15.79)" style="fill:#fff"/><path d="M92.54,219c4.5-5.62-.9-19.38-6.56-16.82a8.74,8.74,0,0,0-4,7.48c0,2.95,1.88,5.43,3.4,7.95C87.67,221.29,90.66,220.91,92.54,219Z" transform="translate(-16.45 -15.79)" style="fill:#fff"/><path d="M316.74,187.43c-5.87-3.28-12.41-6.67-19-5.3-8.33,1.73-13.5,10.84-13.59,19.38a28.2,28.2,0,0,0,8.72,20.55c3,2.86,6.65,5,9.92,7.57A45.93,45.93,0,0,1,299.42,304c-5.25,3.44-11.18,5.78-16.14,9.61-9.3,7.2-14.3,20-11.28,31.38s14.46,20.19,26.15,19.17c8.72-.76,16.45-6.46,21.54-13.61s7.92-15.65,10.28-24.12c4.6-16.53,7.81-33.7,15.94-48.81,5.73-10.63,13.94-20.41,15.8-32.35,2-12.94-4.09-26.06-13-35.55S328.13,193.78,316.74,187.43Z" transform="translate(-16.45 -15.79)" style="fill:#fff"/><path d="M293.28,168.91c3.57,2.17,7.31,3.32,11.22,1.82.77-.29,2.53-.63,2.95-1.34a18.23,18.23,0,0,0,1.88-3.71c.41-2.37,3.53-6.32,4.33-8.59,2.74-7.77,1.39-15-5.08-18.73-5.89-2.79-8.37-2.47-14.51,1.9-3.72,2.65-5.74,7.14-6.76,11.61a20.38,20.38,0,0,0-.56,6.82A14.06,14.06,0,0,0,293.28,168.91Z" transform="translate(-16.45 -15.79)" style="fill:#fff"/><path d="M325.57,175.35c1.72-.33,3.16-2.25,4-3.92.47-.94,1-2.06,1.65-3.13a18.55,18.55,0,0,1,1.95-2.6,7.52,7.52,0,0,0,1.85-8.07,8.56,8.56,0,0,0-7.06-5.4,6.26,6.26,0,0,0-3.28.5c-3,1.44-4.87,6.35-5.31,9.7s-1.1,6-.05,9.07S322.36,175.82,325.57,175.35Z" transform="translate(-16.45 -15.79)" style="fill:#fff"/><path d="M338.5,185.78a5.37,5.37,0,0,0,5.64-.37,18.64,18.64,0,0,0,3.54-4.51c2.31-3.36,5.54-7.13,4.14-11-1.18-3.21-6-5.24-9.15-4-5.65,2.26-7.63,13.06-7.2,16.61C335.63,183.83,337.41,185.14,338.5,185.78Z" transform="translate(-16.45 -15.79)" style="fill:#fff"/><path d="M349.71,198.09a7.91,7.91,0,0,0,3.9,2.21c2,.23,3.77-1.37,5.16-2.81a18.62,18.62,0,0,0,4.45-8.52c.67-3-.58-7.58-5.36-8.44-2.27-.41-4.38.82-5.95,4.19C349.92,189,346.84,194.36,349.71,198.09Z" transform="translate(-16.45 -15.79)" style="fill:#fff"/><path d="M369.28,199.47c-5.75-2.33-10.63,11.64-5.92,17.07,1.95,1.88,4.95,2.14,7.06-1.67,1.43-2.59,3.19-5.13,3.09-8.08A8.69,8.69,0,0,0,369.28,199.47Z" transform="translate(-16.45 -15.79)" style="fill:#fff"/></g></svg>
