<svg id="_" style="width: 5rem;" xmlns="http://www.w3.org/2000/svg" viewBox="0 0 110.16 260"><defs><style>.cls-1{fill:#83aeb1;}.cls-2{fill:#8d453b;}.cls-3{fill:#c56d48;}.cls-4{fill:#ffc182;}.cls-5{fill:#e19f68;}.cls-6{fill:#693132;}.cls-7{fill:#74a798;}.cls-8{fill:#eb7553;}</style></defs><title>women</title><path class="cls-1" d="M95,275.38c0,2.55,24.64,4.62,55,4.62s55-2.07,55-4.62-24.64-4.61-55-4.61S95,272.83,95,275.38Z" transform="translate(-94.92 -20)"/><path class="cls-2" d="M128.23,49.12a.89.89,0,0,1-.47-.12,14.73,14.73,0,0,0-8.8-1.68,1,1,0,1,1-.15-1.91,16.68,16.68,0,0,1,9.89,1.92,1,1,0,0,1-.47,1.79Z" transform="translate(-94.92 -20)"/><path class="cls-2" d="M138.63,49.12a1,1,0,0,1-.48-1.79,16.72,16.72,0,0,1,9.9-1.92,1,1,0,0,1,.88,1,.94.94,0,0,1-1,.88A14.65,14.65,0,0,0,139.1,49,.89.89,0,0,1,138.63,49.12Z" transform="translate(-94.92 -20)"/><polygon class="cls-3" points="19.69 65.51 55.42 71.51 56.76 42.22 55.42 16.14 17.88 11.77 17.19 40.34 19.69 65.51"/><path class="cls-4" d="M147.09,177.28l4.78.57a3.82,3.82,0,0,0,4.2-3l.34-1.62a13.65,13.65,0,0,0-.89-8.41l-.17-.39V107.66H144Z" transform="translate(-94.92 -20)"/><path class="cls-4" d="M115.57,156.5h0a79.63,79.63,0,0,1,9-27.72l.83-1.53-.24-7.91-9.18-14.51L112.11,109l-6.36.5.66-12.08a13.88,13.88,0,0,1,10.71-12.77l10-2.35,10.34.27,11.26,4.63a7.1,7.1,0,0,1,4.39,6.31l.09,2.5,2.12,6.36a6.74,6.74,0,0,1-.65,5.67l-4.92,8.07.91,19.58.33,20.8Z" transform="translate(-94.92 -20)"/><path class="cls-5" d="M141.65,100.9a1,1,0,0,0,.92-1.36l-3.29-7.92a1,1,0,0,0-1.83.76l3.29,7.91A1,1,0,0,0,141.65,100.9Z" transform="translate(-94.92 -20)"/><path class="cls-6" d="M124.36,127.07A26.25,26.25,0,0,0,120,113.35L116.42,108l-2.9,3.37-13.81-2.54,4.64-14a16.88,16.88,0,0,1,12.17-11.11L124.15,82l2.25,9.71a8.91,8.91,0,0,0,8.67,6.89h10.44a2.72,2.72,0,0,0,2.54-3.69l-4.12-10.75,5.2,2.13a8.08,8.08,0,0,1,5,7.19l.09,2.36,2.07,6.22a7.8,7.8,0,0,1-.74,6.51l-4.77,7.8.9,19.28.35,21.84H115.43a73.32,73.32,0,0,1,8.69-30Z" transform="translate(-94.92 -20)"/><path class="cls-4" d="M127,84.29c6.2,6.26,10.72,9,11.36,3.71l0-14.1H127Z" transform="translate(-94.92 -20)"/><path class="cls-5" d="M138.36,83.3V72.91H127v7.42A15.77,15.77,0,0,0,138.36,83.3Z" transform="translate(-94.92 -20)"/><path class="cls-4" d="M156,56.61c-.63,3.53-3.07,6-5.46,5.63s-3.82-3.63-3.2-7.16,3.07-6,5.46-5.63S156.63,53.08,156,56.61Z" transform="translate(-94.92 -20)"/><path class="cls-4" d="M120,55.08c-.62-3.53-3.07-6-5.46-5.63s-3.82,3.63-3.19,7.16,3.07,6,5.46,5.63S120.58,58.61,120,55.08Z" transform="translate(-94.92 -20)"/><path class="cls-4" d="M133.65,76.45h0A18.05,18.05,0,0,0,151.71,58.4V35.07H115.6V58.4A18,18,0,0,0,133.65,76.45Z" transform="translate(-94.92 -20)"/><polygon class="cls-7" points="26.74 237.08 34.82 237.08 36.56 153.86 38.89 154.31 71.62 237.08 80.03 237.08 56.13 150.04 57.12 137.49 20.52 137.49 23.44 189.83 22.8 203.49 26.74 237.08"/><polygon class="cls-4" points="7.54 103.71 13.95 90.56 5.28 88.95 0 104.75 7.54 103.71"/><polygon class="cls-4" points="26.74 243.59 34.53 243.59 34.82 237.08 26.74 237.08 26.74 243.59"/><polygon class="cls-4" points="71.99 243.59 73.27 252.25 86.09 246.31 82.05 241.12 80.07 237.08 71.99 237.08 71.99 243.59"/><path class="cls-2" d="M123.58,54.36c.36,1.91,1.72,3.46,3,3.46s2.1-1.55,1.75-3.46-1.72-3.45-3-3.45S123.23,52.45,123.58,54.36Z" transform="translate(-94.92 -20)"/><path class="cls-2" d="M147.64,54.36c.35,1.91-.43,3.46-1.75,3.46s-2.69-1.55-3-3.46.43-3.45,1.75-3.45S147.28,52.45,147.64,54.36Z" transform="translate(-94.92 -20)"/><path class="cls-8" d="M122.17,96.45l-.36-2a199.81,199.81,0,0,1-1.71-58.13h0l11.64,4.5,19,6,1,9.45,1.16-1.92L154,49.41h0a24.31,24.31,0,0,0-.6-22.19h0a13.18,13.18,0,0,0-11-6.82L133.52,20a18,18,0,0,0-15.59,7.79h0a11,11,0,0,0-11,10.76l-.58,28L106.17,80a14.78,14.78,0,0,0,9.58,14Z" transform="translate(-94.92 -20)"/><path class="cls-6" d="M131.71,276.7h-16v-5.43a3.28,3.28,0,0,1,.56-1.82l5.38-7.83h7.79l2.16,8.51a3,3,0,0,1,.1.79Z" transform="translate(-94.92 -20)"/><path class="cls-6" d="M194.24,276.7H166.91V263.59l1.56.79a6.93,6.93,0,0,0,5.79.2l4.64-2,13.6,7a3.2,3.2,0,0,1,1.74,2.85Z" transform="translate(-94.92 -20)"/><rect class="cls-6" x="20.8" y="252.38" width="15.99" height="4.32"/><rect class="cls-6" x="71.99" y="252.38" width="27.33" height="4.32"/><path class="cls-2" d="M148.43,48a4.58,4.58,0,0,0-2.87-2.75,4.39,4.39,0,0,0-4.17,1.26c-.76,1,.53,2.33,1.37,1.37a3.47,3.47,0,0,1,2.75-.94c.94.16,1.59,1,2.36,1.49C148.13,48.62,148.56,48.34,148.43,48Z" transform="translate(-94.92 -20)"/><path class="cls-2" d="M120.4,48a4.6,4.6,0,0,1,2.88-2.75,4.4,4.4,0,0,1,4.17,1.26c.76,1-.54,2.33-1.38,1.37a3.46,3.46,0,0,0-2.75-.94c-.93.16-1.58,1-2.35,1.49C120.7,48.62,120.28,48.34,120.4,48Z" transform="translate(-94.92 -20)"/><path class="cls-5" d="M133.39,66.68c1.88.94,4.1-.17,5.23-1.73.61-.82-.79-1.6-1.38-.78a4.22,4.22,0,0,1-3.59,1.52A.53.53,0,0,0,133.39,66.68Z" transform="translate(-94.92 -20)"/><polygon class="cls-4" points="5.3 99 25.82 120.09 22.71 123.47 0 104.75 5.3 99"/><ellipse class="cls-4" cx="122.59" cy="138.11" rx="7.79" ry="5.36" transform="translate(-155.71 139.83) rotate(-55.16)"/></svg>
