<?xml version="1.0" encoding="utf-8"?>
<!-- Generator: Adobe Illustrator 16.0.0, SVG Export Plug-In . SVG Version: 6.00 Build 0)  -->
<!DOCTYPE svg PUBLIC "-//W3C//DTD SVG 1.1//EN" "http://www.w3.org/Graphics/SVG/1.1/DTD/svg11.dtd">
<svg version="1.1" id="Layer_1" xmlns="http://www.w3.org/2000/svg" xmlns:xlink="http://www.w3.org/1999/xlink" x="0px" y="0px"
	 width="512px" height="512px" viewBox="0 0 512 512" enable-background="new 0 0 512 512" xml:space="preserve">
<g>
	<path d="M381.254,324.611c-17.969,13.279-39.633,20.447-62.477,20.447c-22.475,0-44.528-7.354-62.449-20.472
		c-17.807,13.149-39.246,20.318-62.025,20.472l-0.132,0.008h-0.806c-22.23,0-44.139-7.355-62.012-20.479
		c-18.162,13.432-39.716,20.52-62.545,20.52c-5.753-0.005-11.408-0.584-16.979-1.49l23.39,81.842
		c3.875,13.584,16.291,22.957,30.434,22.957h301.66c14.126,0,26.559-9.372,30.432-22.957l23.424-81.96
		c-5.773,0.98-11.625,1.592-17.53,1.592C421.002,345.034,399.289,337.857,381.254,324.611z"/>
	<path d="M494.816,249.005c-3.02-3.002-6.539-5.125-10.301-6.546c-6.748-71.762-106.166-128.776-228.219-128.776
		c-122.037,0-221.471,57.014-228.205,128.785c-3.761,1.428-7.297,3.567-10.315,6.586c-11.543,11.528-11.543,30.224-0.032,41.758
		c13.658,13.676,31.789,21.214,51.098,21.231c0.018,0,0.018,0,0.031,0c16.242,0,31.692-5.343,44.318-15.185l6.91-6.062
		c2.986-2.994,7.117-4.495,11.252-4.495c4.117,0,8.251,1.493,11.253,4.472c13.465,13.505,32.03,21.23,50.759,21.23
		c0.047,0,0.113,0,0.178,0c0.112,0,0.258,0,0.436,0c19.197,0,37.294-7.492,50.984-21.134l0.822-0.83
		c3.02-2.609,6.766-3.917,10.496-3.917c4.083,0,8.168,1.551,11.284,4.65c13.448,13.489,32.095,21.222,51.212,21.222
		c0.014,0,0.031,0,0.047,0c19.357,0,37.553-7.532,51.195-21.239c2.938-2.938,7.087-4.416,11.234-4.416
		c4.102,0,8.202,1.453,11.076,4.368l1.904,1.8c13.434,12.551,30.9,19.47,49.484,19.518c19.115,0,37.811-7.749,51.227-21.254
		C506.439,279.205,506.375,260.5,494.816,249.005z M172.635,206.538c-3.117,10.688-14.271,16.83-24.975,13.715
		c-10.705-3.108-16.823-14.272-13.723-24.968c3.115-10.68,21.939-43.162,32.644-40.054
		C177.27,158.346,175.734,195.858,172.635,206.538z M256.313,238.141c-11.14,0-20.148-9.017-20.148-20.149
		c0-11.123,9.009-47.578,20.148-47.578c11.141,0,20.148,36.455,20.148,47.578C276.461,229.124,267.453,238.141,256.313,238.141z
		 M364.965,220.253c-10.703,3.115-21.859-3.027-24.975-13.715c-3.1-10.68-4.634-48.192,6.055-51.307
		c10.702-3.108,29.527,29.374,32.644,40.054C381.788,205.981,375.67,217.145,364.965,220.253z"/>
</g>
</svg>
