<svg width="32" height="26" viewBox="0 0 32 26" fill="none" xmlns="http://www.w3.org/2000/svg">
<path fill-rule="evenodd" clip-rule="evenodd" d="M0.551724 0H31.4483C31.7528 0 32 0.252652 32 0.565217V25.4348C32 25.7473 31.7528 26 31.4483 26H0.551724C0.247172 26 0 25.7473 0 25.4348V0.565217C0 0.252652 0.247172 0 0.551724 0ZM1.10345 24.8696H30.8966V1.13043H1.10345V24.8696Z" fill="#8D8D8D"/>
<path fill-rule="evenodd" clip-rule="evenodd" d="M12 9.00054C12 10.6543 10.6543 12 9 12C7.34566 12 6 10.6543 6 9C6 7.34566 7.34566 6 9 6C10.6543 6 12 7.34566 12 9.00054ZM10.9226 9C10.9226 7.94038 10.0602 7.07739 9 7.07739C7.93985 7.07739 7.07739 7.94092 7.07739 9.00054C7.07739 10.0602 7.93985 10.9226 9 10.9226C10.0602 10.9226 10.9226 10.0596 10.9226 9Z" fill="#8D8D8D"/>
<path d="M3.55348 23C3.68293 23 3.81348 22.9537 3.91858 22.8593L12.9427 14.7414L18.6417 20.5638C18.858 20.7848 19.2076 20.7848 19.4239 20.5638C19.6402 20.3428 19.6402 19.9856 19.4239 19.7646L16.7647 17.0475L21.8435 11.3646L28.073 17.1996C28.2981 17.4104 28.6483 17.3946 28.8546 17.1645C29.0609 16.9345 29.046 16.5767 28.8203 16.3658L22.1821 10.1483C22.0736 10.0471 21.9293 9.99677 21.7838 10.0002C21.6372 10.0069 21.4989 10.0731 21.3999 10.1839L15.9819 16.2471L13.3582 13.5662C13.1513 13.3554 12.8205 13.3447 12.6014 13.5414L3.18782 22.0103C2.95825 22.2166 2.93612 22.5738 3.13804 22.8084C3.24757 22.9356 3.40025 23 3.55348 23Z" fill="#8D8D8D"/>
</svg>
