<svg width="24" height="24" viewBox="0 0 24 24" fill="none" xmlns="http://www.w3.org/2000/svg">
<path d="M16.8337 15.1275C16.6277 14.943 16.3112 14.961 16.1277 15.1665C15.0846 16.332 13.5806 17 12.0001 17C10.4201 17 8.91554 16.332 7.87252 15.1665C7.68801 14.961 7.37251 14.943 7.16651 15.1275C6.9605 15.3115 6.9435 15.6275 7.12751 15.8335C8.36003 17.2105 10.1361 18 12.0001 18C13.8646 18 15.6406 17.21 16.8727 15.8335C17.0567 15.6275 17.0392 15.3115 16.8337 15.1275Z" fill="#8D8D8D"/>
<path fill-rule="evenodd" clip-rule="evenodd" d="M0 12C0 5.3833 5.3833 0 12 0C18.6167 0 24 5.3833 24 12C24 18.6167 18.6167 24 12 24C5.3833 24 0 18.6167 0 12ZM1.04348 12C1.04348 18.0417 5.95826 22.9565 12 22.9565C18.0417 22.9565 22.9565 18.0417 22.9565 12C22.9565 5.95826 18.0417 1.04348 12 1.04348C5.95826 1.04348 1.04348 5.95826 1.04348 12Z" fill="#8D8D8D"/>
<path d="M16.5 8C15.1215 8 14 9.1215 14 10.5C14 10.776 14.224 11 14.5 11C14.776 11 15 10.776 15 10.5C15 9.673 15.673 9 16.5 9C17.327 9 18 9.673 18 10.5C18 10.776 18.224 11 18.5 11C18.776 11 19 10.776 19 10.5C19 9.1215 17.8785 8 16.5 8Z" fill="#8D8D8D"/>
<path d="M9 10.5C9 10.776 9.224 11 9.5 11C9.776 11 10 10.776 10 10.5C10 9.1215 8.8785 8 7.5 8C6.1215 8 5 9.1215 5 10.5C5 10.776 5.224 11 5.5 11C5.776 11 6 10.776 6 10.5C6 9.673 6.673 9 7.5 9C8.327 9 9 9.673 9 10.5Z" fill="#8D8D8D"/>
</svg>
