<svg width="576" height="448" viewBox="0 0 576 448" fill="none" xmlns="http://www.w3.org/2000/svg">
<path d="M288.014 0C129.014 0 0.0139966 93.1 0.0139966 208C0.0139966 257.3 23.714 302.5 63.314 338.2C54.614 361.5 41.214 370.9 26.214 381.3C15.114 389 -5.986 401 1.614 424.5C6.714 439.9 22.514 449.2 39.714 447.8C97.414 443.2 150.914 428.6 196.714 405.3C225.414 412.2 256.114 416 287.914 416C447.014 416 575.914 323 575.914 208C576.014 93.1 447.114 0 288.014 0ZM288.014 368C255.514 368 222.614 363.6 190.714 354C158.414 373 112.014 400 56.014 408C88.014 384 112.814 346.4 117.214 319.6C79.114 293.6 48.014 254.7 48.014 208C48.014 137.1 134.314 48 288.014 48C441.714 48 528.014 137.1 528.014 208C528.014 279 441.714 368 288.014 368Z" fill="#8D8D8D"/>
</svg>
