<svg width="18" height="18" viewBox="0 0 18 18" fill="none" xmlns="http://www.w3.org/2000/svg">
<g clip-path="url(#clip0)">
<path d="M0.212952 0.213456C0.496908 -0.070501 0.957279 -0.070501 1.24124 0.213456L17.787 16.7592C18.071 17.0432 18.071 17.5035 17.787 17.7875C17.6451 17.9295 17.459 18.0005 17.2729 18.0005C17.0868 18.0005 16.9007 17.9295 16.7587 17.7875L0.212952 1.24171C-0.0709705 0.957784 -0.0709705 0.497413 0.212952 0.213456Z" fill="#FF0000"/>
<path d="M0.212986 16.7592L16.7588 0.213456C17.0427 -0.0705009 17.5031 -0.0705009 17.787 0.213456C18.071 0.497378 18.071 0.957748 17.787 1.24171L1.24124 17.7875C1.09927 17.9295 0.913157 18.0005 0.727076 18.0005C0.540993 18.0005 0.354876 17.9295 0.21295 17.7875C-0.0709362 17.5035 -0.0709362 17.0432 0.212986 16.7592Z" fill="#FF0000"/>
</g>
<defs>
<clipPath id="clip0">
<rect width="18" height="18" fill="white" transform="matrix(-1 0 0 1 18 0)"/>
</clipPath>
</defs>
</svg>
