<svg width="448" height="512" viewBox="0 0 448 512" fill="none" xmlns="http://www.w3.org/2000/svg">
<path d="M425.403 330.939C408.414 314.154 390.857 296.796 390.857 214.856C390.857 131.83 329.899 62.782 250.39 50.094C254.053 44.7715 256.009 38.4608 256 32C256 14.327 241.673 0 224 0C206.327 0 192 14.327 192 32C191.991 38.461 193.947 44.7719 197.609 50.095C118.101 62.783 57.1432 131.831 57.1432 214.857C57.1432 296.79 39.5922 314.149 22.6002 330.935C-25.4958 378.441 9.72621 448 66.9192 448H160C160 483.346 188.654 512 224 512C259.346 512 288 483.346 288 448H381.08C438.27 448 473.495 378.417 425.403 330.939ZM224 472C210.766 472 200 461.234 200 448H248C248 461.234 237.234 472 224 472ZM381.092 400H66.9002C50.1382 400 41.7652 379.61 53.5662 367.809C82.1512 339.224 105.143 312.085 105.143 214.857C105.143 149.319 158.462 96 224 96C289.538 96 342.857 149.319 342.857 214.857C342.857 312.507 366.078 339.431 394.425 367.809C406.278 379.661 397.783 400 381.092 400Z" fill="#8D8D8D"/>
</svg>
