<svg width="34" height="34" viewBox="0 0 34 34" fill="none" xmlns="http://www.w3.org/2000/svg">
<path d="M5 16H7V18H5V16Z" fill="white"/>
<path d="M5 21H7V23H5V21Z" fill="white"/>
<path d="M5 10H7V12H5V10Z" fill="white"/>
<path fill-rule="evenodd" clip-rule="evenodd" d="M18.4166 6C18.7388 6 19 5.73137 19 5.40021V3.00026C19 2.66909 18.7388 2.40046 18.4166 2.40046H14.8584C14.7156 2.39098 14.5797 2.3351 14.4698 2.24077C14.4501 2.22104 14.4317 2.19976 14.415 2.1772C14.3876 2.14388 14.3637 2.10748 14.344 2.06878C14.331 2.04084 14.32 2.01213 14.3111 1.98291C14.3018 1.96215 14.2936 1.94087 14.2866 1.91934C14.0648 0.80229 13.1093 0 12.0005 0C10.8919 0 9.93641 0.80229 9.7146 1.91934C9.70787 1.93831 9.70015 1.95702 9.69117 1.97497C9.68021 2.01316 9.66525 2.05007 9.64631 2.08493C9.59348 2.18413 9.51397 2.26564 9.41752 2.31998C9.38363 2.33894 9.34799 2.35432 9.31086 2.3656C9.27596 2.37637 9.23983 2.3838 9.20344 2.3879C9.18325 2.39328 9.16257 2.39739 9.14163 2.40046H5.58344C5.26119 2.40046 5 2.66909 5 3.00026V5.40021C5 5.73137 5.26119 6 5.58344 6H18.4166ZM9.66675 3.60031H17.2499C17.5722 3.60031 17.8334 3.86893 17.8334 4.20036C17.8334 4.53153 17.5722 4.80015 17.2499 4.80015H9.66675C9.3445 4.80015 9.08331 4.53153 9.08331 4.20036C9.08331 3.86893 9.3445 3.60031 9.66675 3.60031ZM7.3335 3.60031H6.75006C6.42781 3.60031 6.16663 3.86893 6.16663 4.20036C6.16663 4.53153 6.42781 4.80015 6.75006 4.80015H7.3335C7.6555 4.80015 7.91669 4.53153 7.91669 4.20036C7.91669 3.86893 7.6555 3.60031 7.3335 3.60031Z" fill="white"/>
<path d="M21.9701 18.7575C21.9863 18.7575 21.9974 18.7706 22.0127 18.7749C22.1789 18.7594 22.3461 18.7474 22.5157 18.7474H23.8571H23.8706C24.1946 18.7482 24.5158 18.8053 24.8206 18.9167C24.8825 18.9399 24.9399 18.973 25 19C24.9309 18.4881 24.8151 17.9839 24.6539 17.4935C24.1518 16.0125 22.7779 15.0129 21.227 15.0001H21.2164C20.8187 14.9987 20.4214 15.0209 20.0264 15.0671C19.9465 15.9321 19.9179 18.343 21.9701 18.7575Z" fill="white"/>
<path d="M23 13V4.54067C23 4.24204 22.7314 4 22.3999 4H20V5.08112H20.6001C21.2628 5.08112 21.8001 5.56521 21.8001 6.16224V12.7032C22.2125 12.7547 22.616 12.8545 23 13Z" fill="white"/>
<path d="M2.44204 32.7998C1.76756 32.7998 1.22089 32.2627 1.22089 31.5998V6.39992C1.22089 5.73726 1.76756 5.19996 2.44204 5.19996H3.05235V4H0.610574C0.273337 4 0 4.26865 0 4.60011V33.3999C0 33.7313 0.273337 34 0.610574 34H21C20.4562 33.6593 19.9554 33.2563 19.5081 32.7998H2.44204Z" fill="white"/>
<path fill-rule="evenodd" clip-rule="evenodd" d="M20.617 17.9135C19.1886 16.7241 19.0812 14.4678 19.2922 13.1943C19.3476 12.9399 19.4501 12.495 21 12.4379V5H20.2894C20.0361 5.7395 19.3599 6.23488 18.5998 6.23806H5.39993C4.63986 6.23488 3.96361 5.7395 3.71034 5H3V31H18.8218C17.8895 29.5279 17.3952 27.8063 17.3998 26.0478V23.3672C17.3716 21.0638 18.6211 18.9458 20.617 17.9135ZM10.1998 9.95249H18.5998C18.9313 9.95249 19.1999 10.2297 19.1999 10.5714C19.1999 10.9134 18.9313 11.1906 18.5998 11.1906H10.1998C9.86859 11.1906 9.59994 10.9134 9.59994 10.5714C9.59994 10.2297 9.86859 9.95249 10.1998 9.95249ZM7.20001 29.143C7.86267 29.143 8.39997 28.5887 8.39997 27.9047V26.0478C8.39997 25.3638 7.86267 24.8097 7.20001 24.8097H5.39993C4.73727 24.8097 4.19997 25.3638 4.19997 26.0478V27.9047C4.19997 28.5887 4.73727 29.143 5.39993 29.143H7.20001ZM8.39997 22.3333C8.39997 23.0173 7.86267 23.5714 7.20001 23.5714H5.39993C4.73727 23.5714 4.19997 23.0173 4.19997 22.3333V20.4764C4.19997 19.7924 4.73727 19.2381 5.39993 19.2381H7.20001C7.86267 19.2381 8.39997 19.7924 8.39997 20.4764V22.3333ZM7.20001 18C7.86267 18 8.39997 17.4456 8.39997 16.7619V14.9047C8.39997 14.221 7.86267 13.6667 7.20001 13.6667H5.39993C4.73727 13.6667 4.19997 14.221 4.19997 14.9047V16.7619C4.19997 17.4456 4.73727 18 5.39993 18H7.20001ZM8.39997 11.1906C8.39997 11.8742 7.86267 12.4286 7.20001 12.4286H5.39993C4.73727 12.4286 4.19997 11.8742 4.19997 11.1906V9.33333C4.19997 8.64964 4.73727 8.09528 5.39993 8.09528H7.20001C7.86267 8.09528 8.39997 8.64964 8.39997 9.33333V11.1906ZM10.1998 27.9047H15.6C15.9312 27.9047 16.1999 27.6278 16.1999 27.2858C16.1999 26.9438 15.9312 26.6667 15.6 26.6667H10.1998C9.86859 26.6667 9.59994 26.9438 9.59994 27.2858C9.59994 27.6278 9.86859 27.9047 10.1998 27.9047ZM15.6 22.3333H10.1998C9.86859 22.3333 9.59994 22.0562 9.59994 21.7144C9.59994 21.3725 9.86859 21.0953 10.1998 21.0953H15.6C15.9312 21.0953 16.1999 21.3725 16.1999 21.7144C16.1999 22.0562 15.9312 22.3333 15.6 22.3333ZM10.1998 16.7619H16.8C17.1312 16.7619 17.3998 16.4848 17.3998 16.143C17.3998 15.8011 17.1312 15.5239 16.8 15.5239H10.1998C9.86859 15.5239 9.59994 15.8011 9.59994 16.143C9.59994 16.4848 9.86859 16.7619 10.1998 16.7619Z" fill="white"/>
<path fill-rule="evenodd" clip-rule="evenodd" d="M29.645 19.5949H28.2862C28.119 19.5969 27.9531 19.6236 27.794 19.6734L27.7643 19.6818C27.0505 19.9642 26.5922 20.6499 26.6154 21.401L26.5804 21.47C26.4573 19.7077 26.6524 16.0391 30.0039 14.1094C30.287 13.9371 30.3778 13.5758 30.2079 13.2952C30.0383 13.0147 29.6702 12.9175 29.3787 13.076C25.8093 15.1306 25.2955 18.8207 25.3355 20.9896C25.2211 20.398 24.8025 19.9054 24.2278 19.6862C24.0621 19.6282 23.8876 19.5977 23.7114 19.5962H22.3553C19.954 19.5949 18 21.6613 18 24.1984V26.7974C18 30.7684 21.0733 34 24.8499 34H27.1501C30.9267 34 34 30.7697 34 26.7974V24.1984C34 21.6613 32.0462 19.5949 29.645 19.5949ZM21.8912 21.9608L21.8889 21.9617C21.7971 21.9969 20.4617 22.5094 20.4617 24.3964C20.4617 24.728 20.1862 24.9967 19.8462 24.9967C19.5063 24.9967 19.231 24.728 19.231 24.3964C19.231 21.5954 21.4051 20.8553 21.4979 20.8258C21.7064 20.7571 21.9364 20.8019 22.1016 20.9437C22.2667 21.0853 22.3419 21.302 22.2987 21.5123C22.2556 21.7225 22.1008 21.8946 21.8925 21.9633L21.8912 21.9608ZM25.431 22.1151C25.4189 22.0431 25.4072 21.9662 25.3951 21.8833V21.9956C25.4006 22.0362 25.4127 22.0762 25.431 22.1151Z" fill="white"/>
<path d="M5 26H7V28H5V26Z" fill="white"/>
</svg>
