<svg width="25" height="22" viewBox="0 0 25 22" fill="none" xmlns="http://www.w3.org/2000/svg">
<path fill-rule="evenodd" clip-rule="evenodd" d="M0.869049 12.1229C0.374435 11.9719 0.0327951 11.5291 0.00220043 11.0029C-0.0283942 10.4768 0.262255 9.99751 0.736472 9.77871L24.1414 0.047521C24.3555 -0.0410391 24.5952 -0.00457321 24.7737 0.1465C24.947 0.292363 25.0337 0.531997 24.9878 0.761211L21.1788 20.5935C21.0564 21.1769 20.5567 21.5937 19.9805 21.5937C19.7307 21.5937 19.491 21.5155 19.287 21.3697L14.6978 18.1242L11.4599 21.7864C11.3375 21.9271 11.1692 22 10.9908 22C10.9245 22 10.8531 21.9896 10.7868 21.9635C10.5472 21.8802 10.3789 21.6562 10.3636 21.4009L10.027 14.9517L0.869049 12.1229ZM11.3171 15.7331L11.5262 19.8016L13.6627 17.3897L11.3171 15.7331ZM19.9601 20.2965L11.6078 14.389L23.3204 2.81372L19.9601 20.2965ZM10.4554 13.7483L22.0355 2.3032L1.30757 10.9248L10.4554 13.7483Z" fill="white"/>
</svg>
