<svg width="32" height="30" viewBox="0 0 32 30" fill="none" xmlns="http://www.w3.org/2000/svg">
<path d="M18.8397 9.96606C18.7058 9.84161 18.5367 9.78028 18.3658 9.79415H15.7627L18.1935 6.63534L18.4212 6.34167L18.5689 6.13395C18.6094 6.06751 18.6425 5.99526 18.6674 5.91906C18.6953 5.83696 18.7098 5.74948 18.7104 5.6612C18.7276 5.45231 18.6387 5.25086 18.4827 5.14548C18.2804 5.03776 18.0587 4.98861 17.8366 5.00222H14.7842C14.623 4.98942 14.4633 5.04546 14.335 5.1598C14.229 5.26483 14.17 5.42044 14.175 5.58241C14.175 5.82594 14.2427 5.9692 14.3842 6.0265C14.5842 6.0924 14.7919 6.12141 14.9996 6.11246H16.9689C16.8868 6.24613 16.7781 6.40372 16.6427 6.5852L16.1319 7.25851L15.4673 8.11805L14.6735 9.14234C14.3965 9.50048 14.2181 9.74401 14.1319 9.85862C13.9365 10.1348 13.9608 10.5407 14.1873 10.7826C14.3502 10.936 14.5566 11.0127 14.7658 10.9975H18.3597C18.5316 11.0132 18.7025 10.9545 18.8397 10.8328C18.9442 10.7265 19.0028 10.5717 18.9997 10.4102C19.005 10.2419 18.9464 10.0795 18.8397 9.96606Z" fill="white"/>
<path d="M23.869 12.1446C23.7599 12.0399 23.6218 11.9891 23.4826 12.0025H21.3887L23.3517 9.37038L23.5387 9.12362L23.6571 8.95163C23.6904 8.8962 23.7176 8.83592 23.7381 8.77217C23.7614 8.70319 23.7741 8.62972 23.7755 8.55532C23.7911 8.38081 23.7205 8.21135 23.5948 8.12161C23.431 8.03132 23.2513 7.99019 23.0713 8.00197H20.6285C20.4984 7.99328 20.3701 8.04104 20.267 8.13657C20.1809 8.2235 20.1326 8.35305 20.1361 8.48802C20.1361 8.68991 20.1922 8.80956 20.3044 8.8619C20.4662 8.91873 20.6345 8.94406 20.8029 8.93668H22.3733C22.3048 9.04884 22.2176 9.17596 22.1116 9.33299L21.7003 9.89381L21.1644 10.6416L20.5412 11.494C20.3169 11.7931 20.1694 11.9976 20.0988 12.1072C19.9519 12.3332 19.9708 12.6557 20.1424 12.855C20.2715 12.9629 20.428 13.0132 20.5848 12.997H23.4888C23.627 13.0103 23.7644 12.9624 23.8752 12.8624C23.9576 12.7728 24.0031 12.6444 23.9998 12.511C24.0027 12.3719 23.955 12.2381 23.869 12.1446Z" fill="white"/>
<path d="M31.8394 9.19498C31.7052 9.09089 31.5355 9.03959 31.3642 9.0512H28.7597L31.1975 6.40931L31.4197 6.13973L31.5678 5.966C31.6084 5.91029 31.6415 5.84993 31.6666 5.78628C31.6946 5.71761 31.7092 5.64445 31.7098 5.57062C31.727 5.39591 31.6378 5.22742 31.4814 5.13929C31.2708 5.03834 31.0372 4.99094 30.8025 5.0015H27.7783C27.6166 4.99079 27.4565 5.03767 27.3278 5.1333C27.2215 5.22113 27.1623 5.35128 27.1673 5.48675C27.1673 5.69043 27.2352 5.81024 27.3772 5.85817C27.5777 5.91321 27.786 5.93747 27.9943 5.93006H29.9693C29.887 6.04186 29.7801 6.17365 29.6484 6.32544L29.1361 6.88856L28.4696 7.60745L27.6734 8.46411C27.3957 8.76365 27.2167 8.96733 27.1303 9.06318C27.0498 9.15791 27.0041 9.27593 27.0007 9.39866C26.9924 9.56385 27.0603 9.7241 27.1858 9.83598C27.3486 9.95504 27.5504 10.0125 27.7536 9.99773H31.358C31.5304 10.0108 31.7019 9.96178 31.8394 9.85994C31.9443 9.77106 32.003 9.64158 31.9999 9.50649C31.9885 9.38675 31.9313 9.27555 31.8394 9.19498Z" fill="white"/>
<path d="M28.6264 20.0936C28.4593 20.0125 28.2664 20.0081 28.0959 20.0812H28.1024C21.0325 23.0797 12.9307 19.6337 10.0064 12.3844C8.52323 8.70751 8.61209 4.56119 10.2514 0.954649C10.4054 0.620771 10.2663 0.222106 9.94064 0.064195C9.77351 -0.0168922 9.58062 -0.0213228 9.41007 0.0518229C1.66012 3.31621 -2.04174 12.4045 1.14177 20.3511C4.32529 28.2978 13.1886 32.0936 20.9387 28.8293C24.4733 27.3404 27.3298 24.5387 28.9373 20.984C29.0912 20.6501 28.952 20.2515 28.6264 20.0936Z" fill="white"/>
</svg>
