<svg width="34" height="31" viewBox="0 0 34 31" fill="none" xmlns="http://www.w3.org/2000/svg">
<path fill-rule="evenodd" clip-rule="evenodd" d="M17.9088 27.1549C17.3378 26.8636 16.6618 26.8636 16.0907 27.1549L9.01859 30.7637C7.54792 31.5141 5.85275 30.2601 6.14006 28.6342L7.46126 21.1574C7.57827 20.4953 7.35473 19.8187 6.8663 19.3566L1.31353 14.1031C0.0965223 12.9517 0.74979 10.9039 2.40874 10.6699L10.1891 9.57257C10.8355 9.48141 11.3967 9.08054 11.6926 8.49867L15.217 1.56732C15.9584 0.109314 18.0412 0.109314 18.7826 1.56732L22.307 8.49867C22.6029 9.08054 23.1641 9.48141 23.8105 9.57257L31.5908 10.6699C33.2498 10.9039 33.9031 12.9517 32.6861 14.1031L27.1333 19.3566C26.6449 19.8187 26.4213 20.4953 26.5383 21.1574L27.8595 28.6342C28.1468 30.2601 26.4517 31.5141 24.981 30.7637L17.9088 27.1549Z" fill="#FFC900"/>
</svg>
