<svg width="24" height="36" viewBox="0 0 24 36" fill="none" xmlns="http://www.w3.org/2000/svg">
<path fill-rule="evenodd" clip-rule="evenodd" d="M18.4227 12.4198C18.9426 13.0833 19.4776 13.7661 20.017 14.4858C22.4539 17.6891 24.6008 22.1381 23.8466 26.3497C22.4541 34.18 14.505 37.7985 7.48422 35.129C-8.06589 29.2565 4.29296 8.79105 11.6038 0.723523C11.6038 0.308283 11.8939 0.0710024 12.242 0.0710024C12.5321 -0.106958 12.8222 0.0710024 12.8802 0.367603C12.9963 0.486243 13.0543 0.604883 13.0543 0.782843C13.2986 5.88016 15.6432 8.87248 18.4227 12.4198ZM4.29287 26.5277C4.81507 28.3074 5.85949 30.3242 7.54215 31.3327C8.47042 31.926 9.68899 32.5191 10.7914 32.1631C11.8358 31.8073 14.3308 30.4429 13.6926 28.8413C13.0642 27.271 11.4487 26.1946 9.85703 25.134C8.8031 24.4317 7.75959 23.7364 7.01994 22.9092C6.20762 21.9602 5.62739 20.6551 5.33728 19.3501C4.81507 20.833 4.35089 22.3161 4.00276 23.8584C3.94473 24.7482 4.06078 25.6379 4.29287 26.5277Z" fill="white"/>
</svg>
