<?xml version="1.0"?>
<svg xmlns="http://www.w3.org/2000/svg" xmlns:xlink="http://www.w3.org/1999/xlink" xmlns:svgjs="http://svgjs.com/svgjs" version="1.1" width="512" height="512" x="0" y="0" viewBox="0 0 444.082 444.082" style="enable-background:new 0 0 512 512" xml:space="preserve" class=""><g>
<path xmlns="http://www.w3.org/2000/svg" style="" d="M276.898,391.342c-0.522,0-0.522,0-1.045,0c-6.269-0.522-11.494-4.702-13.584-10.449l-97.698-272.718  l-61.649,121.208c-2.612,5.224-7.837,8.359-14.106,8.359H15.673C6.792,237.742,0,230.951,0,222.069s6.792-15.673,15.673-15.673  h63.739L153.6,61.155c2.612-5.747,8.882-8.882,15.151-8.359s11.494,4.702,13.584,10.449l97.175,272.718l61.649-121.208  c2.612-5.224,7.837-8.359,14.106-8.359h73.143c8.882,0,15.673,6.792,15.673,15.673c0,8.882-6.792,15.673-15.673,15.673h-63.739  l-73.665,145.241C288.392,388.208,282.645,391.342,276.898,391.342z" fill="#d2cdcd" data-original="#3a2c51" class=""/>
<g xmlns="http://www.w3.org/2000/svg">
</g>
<g xmlns="http://www.w3.org/2000/svg">
</g>
<g xmlns="http://www.w3.org/2000/svg">
</g>
<g xmlns="http://www.w3.org/2000/svg">
</g>
<g xmlns="http://www.w3.org/2000/svg">
</g>
<g xmlns="http://www.w3.org/2000/svg">
</g>
<g xmlns="http://www.w3.org/2000/svg">
</g>
<g xmlns="http://www.w3.org/2000/svg">
</g>
<g xmlns="http://www.w3.org/2000/svg">
</g>
<g xmlns="http://www.w3.org/2000/svg">
</g>
<g xmlns="http://www.w3.org/2000/svg">
</g>
<g xmlns="http://www.w3.org/2000/svg">
</g>
<g xmlns="http://www.w3.org/2000/svg">
</g>
<g xmlns="http://www.w3.org/2000/svg">
</g>
<g xmlns="http://www.w3.org/2000/svg">
</g>
</g></svg>
