<?xml version="1.0"?>
<svg xmlns="http://www.w3.org/2000/svg" xmlns:xlink="http://www.w3.org/1999/xlink" xmlns:svgjs="http://svgjs.com/svgjs" version="1.1" width="512" height="512" x="0" y="0" viewBox="0 0 511.842 511.842" style="enable-background:new 0 0 512 512" xml:space="preserve" class=""><g><path xmlns="http://www.w3.org/2000/svg" d="m496.921 231.731h-33.219c21.45-59.997-3.407-133.277-59.307-160.613-48.488-25.791-113.146-13.676-148.474 27.828-35.324-41.505-99.991-53.619-148.474-27.828-55.901 27.336-80.757 100.619-59.306 160.613h-33.22c-19.902.793-19.887 29.215 0 30h46.361c6.961 12.391 15.438 23.682 25.113 33.005 4.55 4.559 145.737 148.632 146.961 149.887l.261.261-.001.001c5.875 5.876 13.697 9.198 22.026 9.354.186.004.373.004.559 0 8.329-.155 16.151-3.478 22.026-9.354l-.001-.001.304-.305c1.181-1.212 142.402-145.318 146.919-149.845 9.674-9.322 18.151-20.612 25.112-33.003h46.361c19.901-.792 19.886-29.214-.001-30zm-426.355-50.356c1.683-36.89 20.603-68.136 50.611-83.583 41.981-22.345 97.707-6.964 121.97 34.144 5.652 9.449 19.897 9.447 25.547 0 24.259-41.108 79.994-56.489 121.97-34.144 30.009 15.447 48.929 46.693 50.611 83.583.729 15.966-2.92 33.805-9.664 50.356h-105.554c-4.358 0-8.5 1.896-11.35 5.192l-46.113 53.366-47.752-117.862c-2.111-5.211-6.96-8.805-12.561-9.307-5.605-.515-11.013 2.168-14.019 6.921l-39.023 61.689h-75.009c-6.743-16.55-10.392-34.389-9.664-50.355zm334.003 91.817c-1.837 1.766-146.18 149.068-147.467 150.39-.031.031-.062.062-.093.092-.302.303-.667.486-1.088.548-.423-.062-.794-.251-1.129-.586-1.341-1.375-145.684-148.678-147.52-150.442-3.572-3.436-6.964-7.289-10.139-11.462h66.367c5.143 0 9.928-2.635 12.677-6.981l27.827-43.989 45.997 113.532c1.962 4.842 6.302 8.314 11.456 9.166 5.092.855 10.387-1.028 13.796-4.991l57.666-66.736h81.789c-3.175 4.171-6.567 8.024-10.139 11.459z" fill="#d3cece" data-original="#000000" style="" class=""/></g></svg>
