<svg width="155" height="47" viewBox="0 0 155 47" fill="none" xmlns="http://www.w3.org/2000/svg">
<path d="M5.53 15.1088C8.204 15.1088 9.814 13.5547 9.814 10.6987V5.16875H8.022V10.6287C8.022 12.6447 7.126 13.5127 5.544 13.5127C3.962 13.5127 3.052 12.6447 3.052 10.6287V5.16875H1.232V10.6987C1.232 13.5547 2.842 15.1088 5.53 15.1088ZM15.4009 15.1088C18.0889 15.1088 19.3629 13.7647 19.3629 12.1967C19.3629 8.59875 13.5529 9.95675 13.5529 7.87075C13.5529 7.12875 14.1689 6.54075 15.6809 6.54075C16.5349 6.54075 17.5009 6.79275 18.3829 7.31075L18.9569 5.89675C18.1029 5.33675 16.8709 5.02875 15.6949 5.02875C13.0069 5.02875 11.7469 6.37275 11.7469 7.95475C11.7469 11.5947 17.5709 10.2087 17.5709 12.3227C17.5709 13.0507 16.9269 13.5967 15.4009 13.5967C14.1969 13.5967 12.9509 13.1487 12.1669 12.5187L11.5369 13.9327C12.3489 14.6327 13.8749 15.1088 15.4009 15.1088ZM32.0367 12.1967C32.0367 10.2507 30.3427 9.76075 28.7887 9.38275V6.55475C29.5307 6.63875 30.3147 6.87675 31.0567 7.31075L31.6307 5.89675C30.8747 5.40675 29.8247 5.09875 28.7887 5.04275V3.48875H27.6407V5.07075C25.4567 5.28075 24.4207 6.52675 24.4207 7.95475C24.4207 9.90075 26.0867 10.4047 27.6407 10.7827V13.5827C26.5767 13.4847 25.5267 13.0787 24.8407 12.5187L24.2107 13.9327C24.9387 14.5627 26.2687 15.0108 27.6407 15.0948V16.6488H28.7887V15.0808C30.9867 14.8567 32.0367 13.6247 32.0367 12.1967ZM26.2267 7.87075C26.2267 7.25475 26.6467 6.75075 27.6407 6.59675V9.08875C26.8287 8.85075 26.2267 8.54275 26.2267 7.87075ZM28.7887 13.5547V11.0767C29.6287 11.3147 30.2447 11.6367 30.2447 12.3227C30.2447 12.9247 29.8107 13.4007 28.7887 13.5547Z" fill="#529DFF"/>
<path d="M51.528 35.664L59.256 28.368C63.96 24 64.872 21.024 64.872 17.76C64.872 11.664 59.88 7.824 52.392 7.824C46.344 7.824 41.64 10.272 39.048 14.064L44.712 17.712C46.344 15.456 48.792 14.352 51.672 14.352C55.224 14.352 57.048 15.888 57.048 18.528C57.048 20.16 56.52 21.888 53.544 24.72L40.584 36.96V42H65.976V35.664H51.528ZM79.5525 7.824C72.4485 7.824 66.8325 12.144 66.8325 19.008C66.8325 25.344 71.9205 29.472 78.4005 29.472C81.9045 29.472 84.7845 28.416 86.7525 26.448C86.5125 32.928 82.8645 36.24 77.2965 36.24C74.9925 36.24 72.8325 35.808 71.0085 34.56L68.1285 40.272C70.4805 41.76 73.8885 42.576 77.4405 42.576C87.6165 42.576 94.5765 36.096 94.5765 24.48C94.5765 13.632 88.8645 7.824 79.5525 7.824ZM80.1285 23.664C76.6725 23.664 74.4165 21.696 74.4165 18.624C74.4165 15.552 76.7205 13.632 80.0325 13.632C83.7285 13.632 85.8885 15.744 85.8885 18.624C85.8885 21.552 83.5365 23.664 80.1285 23.664Z" fill="#529DFF"/>
<path d="M95.6819 42.2725H96.509L100.708 30.2854H99.8812L95.6819 42.2725ZM112.653 34.64C111.513 34.64 110.613 35.156 110.157 35.972C109.773 35.084 108.957 34.64 107.913 34.64C106.857 34.64 106.041 35.084 105.597 35.84V34.688H104.781V41H105.633V37.688C105.633 36.248 106.461 35.408 107.745 35.408C108.897 35.408 109.569 36.092 109.569 37.424V41H110.421V37.688C110.421 36.248 111.237 35.408 112.533 35.408C113.673 35.408 114.345 36.092 114.345 37.424V41H115.197V37.34C115.197 35.528 114.189 34.64 112.653 34.64ZM120.111 41.06C121.959 41.06 123.315 39.716 123.315 37.844C123.315 35.972 121.959 34.64 120.111 34.64C118.263 34.64 116.895 35.972 116.895 37.844C116.895 39.716 118.263 41.06 120.111 41.06ZM120.111 40.304C118.767 40.304 117.759 39.32 117.759 37.844C117.759 36.368 118.767 35.384 120.111 35.384C121.455 35.384 122.451 36.368 122.451 37.844C122.451 39.32 121.455 40.304 120.111 40.304ZM128.27 34.64C127.178 34.64 126.326 35.084 125.87 35.852V34.688H125.054V41H125.906V37.688C125.906 36.248 126.758 35.408 128.114 35.408C129.314 35.408 130.01 36.092 130.01 37.424V41H130.862V37.34C130.862 35.528 129.806 34.64 128.27 34.64ZM136.199 40.004C135.959 40.22 135.611 40.328 135.263 40.328C134.555 40.328 134.171 39.92 134.171 39.176V35.408H136.091V34.688H134.171V33.308H133.319V34.688H132.191V35.408H133.319V39.224C133.319 40.388 133.979 41.06 135.167 41.06C135.659 41.06 136.163 40.916 136.499 40.616L136.199 40.004ZM141.266 34.64C140.198 34.64 139.37 35.06 138.902 35.792V32.096H138.05V41H138.902V37.688C138.902 36.248 139.754 35.408 141.11 35.408C142.31 35.408 143.006 36.092 143.006 37.424V41H143.858V37.34C143.858 35.528 142.802 34.64 141.266 34.64ZM146.171 41H147.023V32.096H146.171V41ZM153.858 34.688L151.482 40.052L149.106 34.688H148.218L151.038 40.988L150.762 41.6C150.402 42.392 150.018 42.656 149.454 42.656C148.998 42.656 148.614 42.488 148.302 42.176L147.906 42.812C148.29 43.196 148.854 43.388 149.442 43.388C150.342 43.388 151.014 42.992 151.542 41.756L154.698 34.688H153.858Z" fill="#529DFF"/>
</svg>
