<svg width="219" height="114" viewBox="0 0 219 114" fill="none" xmlns="http://www.w3.org/2000/svg">
<path d="M5.4343 13.7312L0.234305 8.53123C-0.0781016 8.21883 -0.0781016 7.7123 0.234305 7.39986L1.36565 6.26848C1.67805 5.95605 2.18462 5.95605 2.49702 6.26848L5.99999 9.77142L13.503 2.26848C13.8154 1.95608 14.3219 1.95608 14.6343 2.26848L15.7657 3.39986C16.0781 3.71227 16.0781 4.2188 15.7657 4.53123L6.56568 13.7313C6.25324 14.0437 5.74671 14.0437 5.4343 13.7312V13.7312Z" fill="#A3A2A2"/>
<path d="M36.594 5.242V6.278H32.352V9.568H35.796V10.604H32.352V15H31.078V5.242H36.594ZM38.7907 6.082C38.548 6.082 38.3427 5.998 38.1747 5.83C38.0067 5.662 37.9227 5.45667 37.9227 5.214C37.9227 4.97133 38.0067 4.766 38.1747 4.598C38.3427 4.43 38.548 4.346 38.7907 4.346C39.024 4.346 39.22 4.43 39.3787 4.598C39.5467 4.766 39.6307 4.97133 39.6307 5.214C39.6307 5.45667 39.5467 5.662 39.3787 5.83C39.22 5.998 39.024 6.082 38.7907 6.082ZM39.4067 7.328V15H38.1327V7.328H39.4067ZM43.132 8.378V12.9C43.132 13.2733 43.2113 13.5393 43.37 13.698C43.5287 13.8473 43.804 13.922 44.196 13.922H45.134V15H43.986C43.2767 15 42.7447 14.8367 42.39 14.51C42.0353 14.1833 41.858 13.6467 41.858 12.9V8.378H40.864V7.328H41.858V5.396H43.132V7.328H45.134V8.378H43.132ZM50.4156 7.188C51.3489 7.188 52.1049 7.47267 52.6836 8.042C53.2623 8.602 53.5516 9.414 53.5516 10.478V15H52.2916V10.66C52.2916 9.89467 52.1003 9.31133 51.7176 8.91C51.3349 8.49933 50.8123 8.294 50.1496 8.294C49.4776 8.294 48.9409 8.504 48.5396 8.924C48.1476 9.344 47.9516 9.95533 47.9516 10.758V15H46.6776V7.328H47.9516V8.42C48.2036 8.028 48.5443 7.72467 48.9736 7.51C49.4123 7.29533 49.8929 7.188 50.4156 7.188ZM62.6327 10.87C62.6327 11.1127 62.6187 11.3693 62.5907 11.64H56.4587C56.5054 12.396 56.762 12.9887 57.2287 13.418C57.7047 13.838 58.2787 14.048 58.9507 14.048C59.5014 14.048 59.9587 13.922 60.3227 13.67C60.696 13.4087 60.9574 13.0633 61.1067 12.634H62.4787C62.2734 13.3713 61.8627 13.9733 61.2467 14.44C60.6307 14.8973 59.8654 15.126 58.9507 15.126C58.2227 15.126 57.5694 14.9627 56.9907 14.636C56.4214 14.3093 55.9734 13.8473 55.6467 13.25C55.32 12.6433 55.1567 11.9433 55.1567 11.15C55.1567 10.3567 55.3154 9.66133 55.6327 9.064C55.95 8.46667 56.3934 8.00933 56.9627 7.692C57.5414 7.36533 58.204 7.202 58.9507 7.202C59.6787 7.202 60.3227 7.36067 60.8827 7.678C61.4427 7.99533 61.872 8.434 62.1707 8.994C62.4787 9.54467 62.6327 10.17 62.6327 10.87ZM61.3167 10.604C61.3167 10.1187 61.2094 9.70333 60.9947 9.358C60.78 9.00333 60.486 8.73733 60.1127 8.56C59.7487 8.37333 59.3427 8.28 58.8947 8.28C58.2507 8.28 57.7 8.48533 57.2427 8.896C56.7947 9.30667 56.538 9.876 56.4727 10.604H61.3167ZM67.0303 15.126C66.4423 15.126 65.915 15.028 65.4483 14.832C64.9817 14.6267 64.613 14.3467 64.3423 13.992C64.0717 13.628 63.9223 13.2127 63.8943 12.746H65.2103C65.2477 13.1287 65.425 13.4413 65.7423 13.684C66.069 13.9267 66.4937 14.048 67.0163 14.048C67.5017 14.048 67.8843 13.9407 68.1643 13.726C68.4443 13.5113 68.5843 13.2407 68.5843 12.914C68.5843 12.578 68.435 12.3307 68.1363 12.172C67.8377 12.004 67.3757 11.8407 66.7503 11.682C66.181 11.5327 65.7143 11.3833 65.3503 11.234C64.9957 11.0753 64.6877 10.8467 64.4263 10.548C64.1743 10.24 64.0483 9.83867 64.0483 9.344C64.0483 8.952 64.165 8.59267 64.3983 8.266C64.6317 7.93933 64.963 7.68267 65.3923 7.496C65.8217 7.3 66.3117 7.202 66.8623 7.202C67.7117 7.202 68.3977 7.41667 68.9203 7.846C69.443 8.27533 69.723 8.86333 69.7603 9.61H68.4863C68.4583 9.20867 68.295 8.88667 67.9963 8.644C67.707 8.40133 67.315 8.28 66.8203 8.28C66.363 8.28 65.999 8.378 65.7283 8.574C65.4577 8.77 65.3223 9.02667 65.3223 9.344C65.3223 9.596 65.4017 9.806 65.5603 9.974C65.7283 10.1327 65.9337 10.2633 66.1763 10.366C66.4283 10.4593 66.7737 10.5667 67.2123 10.688C67.763 10.8373 68.211 10.9867 68.5563 11.136C68.9017 11.276 69.1957 11.4907 69.4383 11.78C69.6903 12.0693 69.821 12.4473 69.8303 12.914C69.8303 13.334 69.7137 13.712 69.4803 14.048C69.247 14.384 68.9157 14.65 68.4863 14.846C68.0663 15.0327 67.581 15.126 67.0303 15.126ZM74.3448 15.126C73.7568 15.126 73.2294 15.028 72.7628 14.832C72.2961 14.6267 71.9274 14.3467 71.6568 13.992C71.3861 13.628 71.2368 13.2127 71.2088 12.746H72.5248C72.5621 13.1287 72.7394 13.4413 73.0568 13.684C73.3834 13.9267 73.8081 14.048 74.3308 14.048C74.8161 14.048 75.1988 13.9407 75.4788 13.726C75.7588 13.5113 75.8988 13.2407 75.8988 12.914C75.8988 12.578 75.7494 12.3307 75.4508 12.172C75.1521 12.004 74.6901 11.8407 74.0648 11.682C73.4954 11.5327 73.0288 11.3833 72.6648 11.234C72.3101 11.0753 72.0021 10.8467 71.7408 10.548C71.4888 10.24 71.3628 9.83867 71.3628 9.344C71.3628 8.952 71.4794 8.59267 71.7128 8.266C71.9461 7.93933 72.2774 7.68267 72.7068 7.496C73.1361 7.3 73.6261 7.202 74.1768 7.202C75.0261 7.202 75.7121 7.41667 76.2348 7.846C76.7574 8.27533 77.0374 8.86333 77.0748 9.61H75.8008C75.7728 9.20867 75.6094 8.88667 75.3108 8.644C75.0214 8.40133 74.6294 8.28 74.1348 8.28C73.6774 8.28 73.3134 8.378 73.0428 8.574C72.7721 8.77 72.6368 9.02667 72.6368 9.344C72.6368 9.596 72.7161 9.806 72.8748 9.974C73.0428 10.1327 73.2481 10.2633 73.4908 10.366C73.7428 10.4593 74.0881 10.5667 74.5268 10.688C75.0774 10.8373 75.5254 10.9867 75.8708 11.136C76.2161 11.276 76.5101 11.4907 76.7528 11.78C77.0048 12.0693 77.1354 12.4473 77.1448 12.914C77.1448 13.334 77.0281 13.712 76.7948 14.048C76.5614 14.384 76.2301 14.65 75.8008 14.846C75.3808 15.0327 74.8954 15.126 74.3448 15.126ZM90.7397 5.242L87.0577 15H85.5877L81.9057 5.242H83.2637L86.3297 13.656L89.3957 5.242H90.7397ZM92.7946 6.082C92.5519 6.082 92.3466 5.998 92.1786 5.83C92.0106 5.662 91.9266 5.45667 91.9266 5.214C91.9266 4.97133 92.0106 4.766 92.1786 4.598C92.3466 4.43 92.5519 4.346 92.7946 4.346C93.0279 4.346 93.2239 4.43 93.3826 4.598C93.5506 4.766 93.6346 4.97133 93.6346 5.214C93.6346 5.45667 93.5506 5.662 93.3826 5.83C93.2239 5.998 93.0279 6.082 92.7946 6.082ZM93.4106 7.328V15H92.1366V7.328H93.4106ZM95.1059 11.136C95.1059 10.352 95.2646 9.666 95.5819 9.078C95.8992 8.48067 96.3332 8.01867 96.8839 7.692C97.4439 7.36533 98.0692 7.202 98.7599 7.202C99.3572 7.202 99.9126 7.342 100.426 7.622C100.939 7.89267 101.331 8.252 101.602 8.7V4.64H102.89V15H101.602V13.558C101.35 14.0153 100.977 14.3933 100.482 14.692C99.9872 14.9813 99.4086 15.126 98.7459 15.126C98.0646 15.126 97.4439 14.958 96.8839 14.622C96.3332 14.286 95.8992 13.8147 95.5819 13.208C95.2646 12.6013 95.1059 11.9107 95.1059 11.136ZM101.602 11.15C101.602 10.5713 101.485 10.0673 101.252 9.638C101.019 9.20867 100.701 8.882 100.3 8.658C99.9079 8.42467 99.4739 8.308 98.9979 8.308C98.5219 8.308 98.0879 8.42 97.6959 8.644C97.3039 8.868 96.9912 9.19467 96.7579 9.624C96.5246 10.0533 96.4079 10.5573 96.4079 11.136C96.4079 11.724 96.5246 12.2373 96.7579 12.676C96.9912 13.1053 97.3039 13.4367 97.6959 13.67C98.0879 13.894 98.5219 14.006 98.9979 14.006C99.4739 14.006 99.9079 13.894 100.3 13.67C100.701 13.4367 101.019 13.1053 101.252 12.676C101.485 12.2373 101.602 11.7287 101.602 11.15ZM112.043 10.87C112.043 11.1127 112.029 11.3693 112.001 11.64H105.869C105.916 12.396 106.172 12.9887 106.639 13.418C107.115 13.838 107.689 14.048 108.361 14.048C108.912 14.048 109.369 13.922 109.733 13.67C110.106 13.4087 110.368 13.0633 110.517 12.634H111.889C111.684 13.3713 111.273 13.9733 110.657 14.44C110.041 14.8973 109.276 15.126 108.361 15.126C107.633 15.126 106.98 14.9627 106.401 14.636C105.832 14.3093 105.384 13.8473 105.057 13.25C104.73 12.6433 104.567 11.9433 104.567 11.15C104.567 10.3567 104.726 9.66133 105.043 9.064C105.36 8.46667 105.804 8.00933 106.373 7.692C106.952 7.36533 107.614 7.202 108.361 7.202C109.089 7.202 109.733 7.36067 110.293 7.678C110.853 7.99533 111.282 8.434 111.581 8.994C111.889 9.54467 112.043 10.17 112.043 10.87ZM110.727 10.604C110.727 10.1187 110.62 9.70333 110.405 9.358C110.19 9.00333 109.896 8.73733 109.523 8.56C109.159 8.37333 108.753 8.28 108.305 8.28C107.661 8.28 107.11 8.48533 106.653 8.896C106.205 9.30667 105.948 9.876 105.883 10.604H110.727ZM117.07 15.126C116.352 15.126 115.698 14.9627 115.11 14.636C114.532 14.3093 114.074 13.8473 113.738 13.25C113.412 12.6433 113.248 11.9433 113.248 11.15C113.248 10.366 113.416 9.67533 113.752 9.078C114.098 8.47133 114.564 8.00933 115.152 7.692C115.74 7.36533 116.398 7.202 117.126 7.202C117.854 7.202 118.512 7.36533 119.1 7.692C119.688 8.00933 120.15 8.46667 120.486 9.064C120.832 9.66133 121.004 10.3567 121.004 11.15C121.004 11.9433 120.827 12.6433 120.472 13.25C120.127 13.8473 119.656 14.3093 119.058 14.636C118.461 14.9627 117.798 15.126 117.07 15.126ZM117.07 14.006C117.528 14.006 117.957 13.8987 118.358 13.684C118.76 13.4693 119.082 13.1473 119.324 12.718C119.576 12.2887 119.702 11.766 119.702 11.15C119.702 10.534 119.581 10.0113 119.338 9.582C119.096 9.15267 118.778 8.83533 118.386 8.63C117.994 8.41533 117.57 8.308 117.112 8.308C116.646 8.308 116.216 8.41533 115.824 8.63C115.442 8.83533 115.134 9.15267 114.9 9.582C114.667 10.0113 114.55 10.534 114.55 11.15C114.55 11.7753 114.662 12.3027 114.886 12.732C115.12 13.1613 115.428 13.4833 115.81 13.698C116.193 13.9033 116.613 14.006 117.07 14.006ZM125.936 10.114C125.936 9.162 126.151 8.308 126.58 7.552C127.009 6.78667 127.593 6.18933 128.33 5.76C129.077 5.33067 129.903 5.116 130.808 5.116C131.872 5.116 132.801 5.37267 133.594 5.886C134.387 6.39933 134.966 7.12733 135.33 8.07H133.804C133.533 7.482 133.141 7.02933 132.628 6.712C132.124 6.39467 131.517 6.236 130.808 6.236C130.127 6.236 129.515 6.39467 128.974 6.712C128.433 7.02933 128.008 7.482 127.7 8.07C127.392 8.64867 127.238 9.33 127.238 10.114C127.238 10.8887 127.392 11.57 127.7 12.158C128.008 12.7367 128.433 13.1847 128.974 13.502C129.515 13.8193 130.127 13.978 130.808 13.978C131.517 13.978 132.124 13.824 132.628 13.516C133.141 13.1987 133.533 12.746 133.804 12.158H135.33C134.966 13.0913 134.387 13.8147 133.594 14.328C132.801 14.832 131.872 15.084 130.808 15.084C129.903 15.084 129.077 14.874 128.33 14.454C127.593 14.0247 127.009 13.432 126.58 12.676C126.151 11.92 125.936 11.066 125.936 10.114ZM138.5 4.64V15H137.226V4.64H138.5ZM140.196 11.136C140.196 10.352 140.354 9.666 140.672 9.078C140.989 8.48067 141.423 8.01867 141.974 7.692C142.534 7.36533 143.154 7.202 143.836 7.202C144.508 7.202 145.091 7.34667 145.586 7.636C146.08 7.92533 146.449 8.28933 146.692 8.728V7.328H147.98V15H146.692V13.572C146.44 14.02 146.062 14.3933 145.558 14.692C145.063 14.9813 144.484 15.126 143.822 15.126C143.14 15.126 142.524 14.958 141.974 14.622C141.423 14.286 140.989 13.8147 140.672 13.208C140.354 12.6013 140.196 11.9107 140.196 11.136ZM146.692 11.15C146.692 10.5713 146.575 10.0673 146.342 9.638C146.108 9.20867 145.791 8.882 145.39 8.658C144.998 8.42467 144.564 8.308 144.088 8.308C143.612 8.308 143.178 8.42 142.786 8.644C142.394 8.868 142.081 9.19467 141.848 9.624C141.614 10.0533 141.498 10.5573 141.498 11.136C141.498 11.724 141.614 12.2373 141.848 12.676C142.081 13.1053 142.394 13.4367 142.786 13.67C143.178 13.894 143.612 14.006 144.088 14.006C144.564 14.006 144.998 13.894 145.39 13.67C145.791 13.4367 146.108 13.1053 146.342 12.676C146.575 12.2373 146.692 11.7287 146.692 11.15ZM152.849 15.126C152.261 15.126 151.733 15.028 151.267 14.832C150.8 14.6267 150.431 14.3467 150.161 13.992C149.89 13.628 149.741 13.2127 149.713 12.746H151.029C151.066 13.1287 151.243 13.4413 151.561 13.684C151.887 13.9267 152.312 14.048 152.835 14.048C153.32 14.048 153.703 13.9407 153.983 13.726C154.263 13.5113 154.403 13.2407 154.403 12.914C154.403 12.578 154.253 12.3307 153.955 12.172C153.656 12.004 153.194 11.8407 152.569 11.682C151.999 11.5327 151.533 11.3833 151.169 11.234C150.814 11.0753 150.506 10.8467 150.245 10.548C149.993 10.24 149.867 9.83867 149.867 9.344C149.867 8.952 149.983 8.59267 150.217 8.266C150.45 7.93933 150.781 7.68267 151.211 7.496C151.64 7.3 152.13 7.202 152.681 7.202C153.53 7.202 154.216 7.41667 154.739 7.846C155.261 8.27533 155.541 8.86333 155.579 9.61H154.305C154.277 9.20867 154.113 8.88667 153.815 8.644C153.525 8.40133 153.133 8.28 152.639 8.28C152.181 8.28 151.817 8.378 151.547 8.574C151.276 8.77 151.141 9.02667 151.141 9.344C151.141 9.596 151.22 9.806 151.379 9.974C151.547 10.1327 151.752 10.2633 151.995 10.366C152.247 10.4593 152.592 10.5667 153.031 10.688C153.581 10.8373 154.029 10.9867 154.375 11.136C154.72 11.276 155.014 11.4907 155.257 11.78C155.509 12.0693 155.639 12.4473 155.649 12.914C155.649 13.334 155.532 13.712 155.299 14.048C155.065 14.384 154.734 14.65 154.305 14.846C153.885 15.0327 153.399 15.126 152.849 15.126ZM160.163 15.126C159.575 15.126 159.048 15.028 158.581 14.832C158.114 14.6267 157.746 14.3467 157.475 13.992C157.204 13.628 157.055 13.2127 157.027 12.746H158.343C158.38 13.1287 158.558 13.4413 158.875 13.684C159.202 13.9267 159.626 14.048 160.149 14.048C160.634 14.048 161.017 13.9407 161.297 13.726C161.577 13.5113 161.717 13.2407 161.717 12.914C161.717 12.578 161.568 12.3307 161.269 12.172C160.97 12.004 160.508 11.8407 159.883 11.682C159.314 11.5327 158.847 11.3833 158.483 11.234C158.128 11.0753 157.82 10.8467 157.559 10.548C157.307 10.24 157.181 9.83867 157.181 9.344C157.181 8.952 157.298 8.59267 157.531 8.266C157.764 7.93933 158.096 7.68267 158.525 7.496C158.954 7.3 159.444 7.202 159.995 7.202C160.844 7.202 161.53 7.41667 162.053 7.846C162.576 8.27533 162.856 8.86333 162.893 9.61H161.619C161.591 9.20867 161.428 8.88667 161.129 8.644C160.84 8.40133 160.448 8.28 159.953 8.28C159.496 8.28 159.132 8.378 158.861 8.574C158.59 8.77 158.455 9.02667 158.455 9.344C158.455 9.596 158.534 9.806 158.693 9.974C158.861 10.1327 159.066 10.2633 159.309 10.366C159.561 10.4593 159.906 10.5667 160.345 10.688C160.896 10.8373 161.344 10.9867 161.689 11.136C162.034 11.276 162.328 11.4907 162.571 11.78C162.823 12.0693 162.954 12.4473 162.963 12.914C162.963 13.334 162.846 13.712 162.613 14.048C162.38 14.384 162.048 14.65 161.619 14.846C161.199 15.0327 160.714 15.126 160.163 15.126ZM171.762 10.87C171.762 11.1127 171.748 11.3693 171.72 11.64H165.588C165.634 12.396 165.891 12.9887 166.358 13.418C166.834 13.838 167.408 14.048 168.08 14.048C168.63 14.048 169.088 13.922 169.452 13.67C169.825 13.4087 170.086 13.0633 170.236 12.634H171.608C171.402 13.3713 170.992 13.9733 170.376 14.44C169.76 14.8973 168.994 15.126 168.08 15.126C167.352 15.126 166.698 14.9627 166.12 14.636C165.55 14.3093 165.102 13.8473 164.776 13.25C164.449 12.6433 164.286 11.9433 164.286 11.15C164.286 10.3567 164.444 9.66133 164.762 9.064C165.079 8.46667 165.522 8.00933 166.092 7.692C166.67 7.36533 167.333 7.202 168.08 7.202C168.808 7.202 169.452 7.36067 170.012 7.678C170.572 7.99533 171.001 8.434 171.3 8.994C171.608 9.54467 171.762 10.17 171.762 10.87ZM170.446 10.604C170.446 10.1187 170.338 9.70333 170.124 9.358C169.909 9.00333 169.615 8.73733 169.242 8.56C168.878 8.37333 168.472 8.28 168.024 8.28C167.38 8.28 166.829 8.48533 166.372 8.896C165.924 9.30667 165.667 9.876 165.602 10.604H170.446ZM176.159 15.126C175.571 15.126 175.044 15.028 174.577 14.832C174.111 14.6267 173.742 14.3467 173.471 13.992C173.201 13.628 173.051 13.2127 173.023 12.746H174.339C174.377 13.1287 174.554 13.4413 174.871 13.684C175.198 13.9267 175.623 14.048 176.145 14.048C176.631 14.048 177.013 13.9407 177.293 13.726C177.573 13.5113 177.713 13.2407 177.713 12.914C177.713 12.578 177.564 12.3307 177.265 12.172C176.967 12.004 176.505 11.8407 175.879 11.682C175.31 11.5327 174.843 11.3833 174.479 11.234C174.125 11.0753 173.817 10.8467 173.555 10.548C173.303 10.24 173.177 9.83867 173.177 9.344C173.177 8.952 173.294 8.59267 173.527 8.266C173.761 7.93933 174.092 7.68267 174.521 7.496C174.951 7.3 175.441 7.202 175.991 7.202C176.841 7.202 177.527 7.41667 178.049 7.846C178.572 8.27533 178.852 8.86333 178.889 9.61H177.615C177.587 9.20867 177.424 8.88667 177.125 8.644C176.836 8.40133 176.444 8.28 175.949 8.28C175.492 8.28 175.128 8.378 174.857 8.574C174.587 8.77 174.451 9.02667 174.451 9.344C174.451 9.596 174.531 9.806 174.689 9.974C174.857 10.1327 175.063 10.2633 175.305 10.366C175.557 10.4593 175.903 10.5667 176.341 10.688C176.892 10.8373 177.34 10.9867 177.685 11.136C178.031 11.276 178.325 11.4907 178.567 11.78C178.819 12.0693 178.95 12.4473 178.959 12.914C178.959 13.334 178.843 13.712 178.609 14.048C178.376 14.384 178.045 14.65 177.615 14.846C177.195 15.0327 176.71 15.126 176.159 15.126Z" fill="#263238"/>
<path d="M5.4343 49.7312L0.234305 44.5312C-0.0781016 44.2188 -0.0781016 43.7123 0.234305 43.3999L1.36565 42.2685C1.67805 41.956 2.18462 41.956 2.49702 42.2685L5.99999 45.7714L13.503 38.2685C13.8154 37.9561 14.3219 37.9561 14.6343 38.2685L15.7657 39.3999C16.0781 39.7123 16.0781 40.2188 15.7657 40.5312L6.56568 49.7313C6.25324 50.0437 5.74671 50.0437 5.4343 49.7312V49.7312Z" fill="#A3A2A2"/>
<path d="M43.342 41.242L40.514 51H39.086L36.818 43.146L34.466 51L33.052 51.014L30.322 41.242H31.68L33.808 49.516L36.16 41.242H37.588L39.828 49.488L41.97 41.242H43.342ZM51.7362 46.87C51.7362 47.1127 51.7222 47.3693 51.6942 47.64H45.5622C45.6089 48.396 45.8655 48.9887 46.3322 49.418C46.8082 49.838 47.3822 50.048 48.0542 50.048C48.6049 50.048 49.0622 49.922 49.4262 49.67C49.7995 49.4087 50.0609 49.0633 50.2102 48.634H51.5822C51.3769 49.3713 50.9662 49.9733 50.3502 50.44C49.7342 50.8973 48.9689 51.126 48.0542 51.126C47.3262 51.126 46.6729 50.9627 46.0942 50.636C45.5249 50.3093 45.0769 49.8473 44.7502 49.25C44.4235 48.6433 44.2602 47.9433 44.2602 47.15C44.2602 46.3567 44.4189 45.6613 44.7362 45.064C45.0535 44.4667 45.4969 44.0093 46.0662 43.692C46.6449 43.3653 47.3075 43.202 48.0542 43.202C48.7822 43.202 49.4262 43.3607 49.9862 43.678C50.5462 43.9953 50.9755 44.434 51.2742 44.994C51.5822 45.5447 51.7362 46.17 51.7362 46.87ZM50.4202 46.604C50.4202 46.1187 50.3129 45.7033 50.0982 45.358C49.8835 45.0033 49.5895 44.7373 49.2162 44.56C48.8522 44.3733 48.4462 44.28 47.9982 44.28C47.3542 44.28 46.8035 44.4853 46.3462 44.896C45.8982 45.3067 45.6415 45.876 45.5762 46.604H50.4202ZM54.6918 40.64V51H53.4178V40.64H54.6918ZM58.1372 40.64V51H56.8632V40.64H58.1372ZM68.9269 45.974C69.2816 46.03 69.6036 46.1747 69.8929 46.408C70.1916 46.6413 70.4249 46.9307 70.5929 47.276C70.7702 47.6213 70.8589 47.99 70.8589 48.382C70.8589 48.8767 70.7329 49.3247 70.4809 49.726C70.2289 50.118 69.8602 50.4307 69.3749 50.664C68.8989 50.888 68.3342 51 67.6809 51H64.0409V41.242H67.5409C68.2036 41.242 68.7682 41.354 69.2349 41.578C69.7016 41.7927 70.0516 42.0867 70.2849 42.46C70.5182 42.8333 70.6349 43.2533 70.6349 43.72C70.6349 44.2987 70.4762 44.7793 70.1589 45.162C69.8509 45.5353 69.4402 45.806 68.9269 45.974ZM65.3149 45.456H67.4569C68.0542 45.456 68.5162 45.316 68.8429 45.036C69.1696 44.756 69.3329 44.3687 69.3329 43.874C69.3329 43.3793 69.1696 42.992 68.8429 42.712C68.5162 42.432 68.0449 42.292 67.4289 42.292H65.3149V45.456ZM67.5689 49.95C68.2036 49.95 68.6982 49.8007 69.0529 49.502C69.4076 49.2033 69.5849 48.788 69.5849 48.256C69.5849 47.7147 69.3982 47.29 69.0249 46.982C68.6516 46.6647 68.1522 46.506 67.5269 46.506H65.3149V49.95H67.5689ZM79.6268 46.87C79.6268 47.1127 79.6128 47.3693 79.5848 47.64H73.4528C73.4995 48.396 73.7562 48.9887 74.2228 49.418C74.6988 49.838 75.2728 50.048 75.9448 50.048C76.4955 50.048 76.9528 49.922 77.3168 49.67C77.6902 49.4087 77.9515 49.0633 78.1008 48.634H79.4728C79.2675 49.3713 78.8568 49.9733 78.2408 50.44C77.6248 50.8973 76.8595 51.126 75.9448 51.126C75.2168 51.126 74.5635 50.9627 73.9848 50.636C73.4155 50.3093 72.9675 49.8473 72.6408 49.25C72.3142 48.6433 72.1508 47.9433 72.1508 47.15C72.1508 46.3567 72.3095 45.6613 72.6268 45.064C72.9442 44.4667 73.3875 44.0093 73.9568 43.692C74.5355 43.3653 75.1982 43.202 75.9448 43.202C76.6728 43.202 77.3168 43.3607 77.8768 43.678C78.4368 43.9953 78.8662 44.434 79.1648 44.994C79.4728 45.5447 79.6268 46.17 79.6268 46.87ZM78.3108 46.604C78.3108 46.1187 78.2035 45.7033 77.9888 45.358C77.7742 45.0033 77.4802 44.7373 77.1068 44.56C76.7428 44.3733 76.3368 44.28 75.8888 44.28C75.2448 44.28 74.6942 44.4853 74.2368 44.896C73.7888 45.3067 73.5322 45.876 73.4668 46.604H78.3108ZM81.9665 42.082C81.7238 42.082 81.5185 41.998 81.3505 41.83C81.1825 41.662 81.0985 41.4567 81.0985 41.214C81.0985 40.9713 81.1825 40.766 81.3505 40.598C81.5185 40.43 81.7238 40.346 81.9665 40.346C82.1998 40.346 82.3958 40.43 82.5545 40.598C82.7225 40.766 82.8065 40.9713 82.8065 41.214C82.8065 41.4567 82.7225 41.662 82.5545 41.83C82.3958 41.998 82.1998 42.082 81.9665 42.082ZM82.5825 43.328V51H81.3085V43.328H82.5825ZM88.4918 43.188C89.4251 43.188 90.1811 43.4727 90.7598 44.042C91.3384 44.602 91.6278 45.414 91.6278 46.478V51H90.3678V46.66C90.3678 45.8947 90.1764 45.3113 89.7938 44.91C89.4111 44.4993 88.8884 44.294 88.2258 44.294C87.5538 44.294 87.0171 44.504 86.6158 44.924C86.2238 45.344 86.0278 45.9553 86.0278 46.758V51H84.7538V43.328H86.0278V44.42C86.2798 44.028 86.6204 43.7247 87.0498 43.51C87.4884 43.2953 87.9691 43.188 88.4918 43.188ZM96.8729 43.202C97.5355 43.202 98.1142 43.3467 98.6089 43.636C99.1129 43.9253 99.4862 44.2893 99.7289 44.728V43.328H101.017V51.168C101.017 51.868 100.868 52.4887 100.569 53.03C100.27 53.5807 99.8409 54.01 99.2809 54.318C98.7302 54.626 98.0862 54.78 97.3489 54.78C96.3409 54.78 95.5009 54.542 94.8289 54.066C94.1569 53.59 93.7602 52.9413 93.6389 52.12H94.8989C95.0389 52.5867 95.3282 52.96 95.7669 53.24C96.2055 53.5293 96.7329 53.674 97.3489 53.674C98.0489 53.674 98.6182 53.4547 99.0569 53.016C99.5049 52.5773 99.7289 51.9613 99.7289 51.168V49.558C99.4769 50.006 99.1035 50.3793 98.6089 50.678C98.1142 50.9767 97.5355 51.126 96.8729 51.126C96.1915 51.126 95.5709 50.958 95.0109 50.622C94.4602 50.286 94.0262 49.8147 93.7089 49.208C93.3915 48.6013 93.2329 47.9107 93.2329 47.136C93.2329 46.352 93.3915 45.666 93.7089 45.078C94.0262 44.4807 94.4602 44.0187 95.0109 43.692C95.5709 43.3653 96.1915 43.202 96.8729 43.202ZM99.7289 47.15C99.7289 46.5713 99.6122 46.0673 99.3789 45.638C99.1455 45.2087 98.8282 44.882 98.4269 44.658C98.0349 44.4247 97.6009 44.308 97.1249 44.308C96.6489 44.308 96.2149 44.42 95.8229 44.644C95.4309 44.868 95.1182 45.1947 94.8849 45.624C94.6515 46.0533 94.5349 46.5573 94.5349 47.136C94.5349 47.724 94.6515 48.2373 94.8849 48.676C95.1182 49.1053 95.4309 49.4367 95.8229 49.67C96.2149 49.894 96.6489 50.006 97.1249 50.006C97.6009 50.006 98.0349 49.894 98.4269 49.67C98.8282 49.4367 99.1455 49.1053 99.3789 48.676C99.6122 48.2373 99.7289 47.7287 99.7289 47.15ZM114.966 41.242L111.284 51H109.814L106.132 41.242H107.49L110.556 49.656L113.622 41.242H114.966ZM117.021 42.082C116.778 42.082 116.573 41.998 116.405 41.83C116.237 41.662 116.153 41.4567 116.153 41.214C116.153 40.9713 116.237 40.766 116.405 40.598C116.573 40.43 116.778 40.346 117.021 40.346C117.254 40.346 117.45 40.43 117.609 40.598C117.777 40.766 117.861 40.9713 117.861 41.214C117.861 41.4567 117.777 41.662 117.609 41.83C117.45 41.998 117.254 42.082 117.021 42.082ZM117.637 43.328V51H116.363V43.328H117.637ZM119.332 47.136C119.332 46.352 119.491 45.666 119.808 45.078C120.126 44.4807 120.56 44.0187 121.11 43.692C121.67 43.3653 122.296 43.202 122.986 43.202C123.584 43.202 124.139 43.342 124.652 43.622C125.166 43.8927 125.558 44.252 125.828 44.7V40.64H127.116V51H125.828V49.558C125.576 50.0153 125.203 50.3933 124.708 50.692C124.214 50.9813 123.635 51.126 122.972 51.126C122.291 51.126 121.67 50.958 121.11 50.622C120.56 50.286 120.126 49.8147 119.808 49.208C119.491 48.6013 119.332 47.9107 119.332 47.136ZM125.828 47.15C125.828 46.5713 125.712 46.0673 125.478 45.638C125.245 45.2087 124.928 44.882 124.526 44.658C124.134 44.4247 123.7 44.308 123.224 44.308C122.748 44.308 122.314 44.42 121.922 44.644C121.53 44.868 121.218 45.1947 120.984 45.624C120.751 46.0533 120.634 46.5573 120.634 47.136C120.634 47.724 120.751 48.2373 120.984 48.676C121.218 49.1053 121.53 49.4367 121.922 49.67C122.314 49.894 122.748 50.006 123.224 50.006C123.7 50.006 124.134 49.894 124.526 49.67C124.928 49.4367 125.245 49.1053 125.478 48.676C125.712 48.2373 125.828 47.7287 125.828 47.15ZM136.269 46.87C136.269 47.1127 136.255 47.3693 136.227 47.64H130.095C130.142 48.396 130.399 48.9887 130.865 49.418C131.341 49.838 131.915 50.048 132.587 50.048C133.138 50.048 133.595 49.922 133.959 49.67C134.333 49.4087 134.594 49.0633 134.743 48.634H136.115C135.91 49.3713 135.499 49.9733 134.883 50.44C134.267 50.8973 133.502 51.126 132.587 51.126C131.859 51.126 131.206 50.9627 130.627 50.636C130.058 50.3093 129.61 49.8473 129.283 49.25C128.957 48.6433 128.793 47.9433 128.793 47.15C128.793 46.3567 128.952 45.6613 129.269 45.064C129.587 44.4667 130.03 44.0093 130.599 43.692C131.178 43.3653 131.841 43.202 132.587 43.202C133.315 43.202 133.959 43.3607 134.519 43.678C135.079 43.9953 135.509 44.434 135.807 44.994C136.115 45.5447 136.269 46.17 136.269 46.87ZM134.953 46.604C134.953 46.1187 134.846 45.7033 134.631 45.358C134.417 45.0033 134.123 44.7373 133.749 44.56C133.385 44.3733 132.979 44.28 132.531 44.28C131.887 44.28 131.337 44.4853 130.879 44.896C130.431 45.3067 130.175 45.876 130.109 46.604H134.953ZM141.297 51.126C140.578 51.126 139.925 50.9627 139.337 50.636C138.758 50.3093 138.301 49.8473 137.965 49.25C137.638 48.6433 137.475 47.9433 137.475 47.15C137.475 46.366 137.643 45.6753 137.979 45.078C138.324 44.4713 138.791 44.0093 139.379 43.692C139.967 43.3653 140.625 43.202 141.353 43.202C142.081 43.202 142.739 43.3653 143.327 43.692C143.915 44.0093 144.377 44.4667 144.713 45.064C145.058 45.6613 145.231 46.3567 145.231 47.15C145.231 47.9433 145.054 48.6433 144.699 49.25C144.354 49.8473 143.882 50.3093 143.285 50.636C142.688 50.9627 142.025 51.126 141.297 51.126ZM141.297 50.006C141.754 50.006 142.184 49.8987 142.585 49.684C142.986 49.4693 143.308 49.1473 143.551 48.718C143.803 48.2887 143.929 47.766 143.929 47.15C143.929 46.534 143.808 46.0113 143.565 45.582C143.322 45.1527 143.005 44.8353 142.613 44.63C142.221 44.4153 141.796 44.308 141.339 44.308C140.872 44.308 140.443 44.4153 140.051 44.63C139.668 44.8353 139.36 45.1527 139.127 45.582C138.894 46.0113 138.777 46.534 138.777 47.15C138.777 47.7753 138.889 48.3027 139.113 48.732C139.346 49.1613 139.654 49.4833 140.037 49.698C140.42 49.9033 140.84 50.006 141.297 50.006ZM150.163 46.114C150.163 45.162 150.377 44.308 150.807 43.552C151.236 42.7867 151.819 42.1893 152.557 41.76C153.303 41.3307 154.129 41.116 155.035 41.116C156.099 41.116 157.027 41.3727 157.821 41.886C158.614 42.3993 159.193 43.1273 159.557 44.07H158.031C157.76 43.482 157.368 43.0293 156.855 42.712C156.351 42.3947 155.744 42.236 155.035 42.236C154.353 42.236 153.742 42.3947 153.201 42.712C152.659 43.0293 152.235 43.482 151.927 44.07C151.619 44.6487 151.465 45.33 151.465 46.114C151.465 46.8887 151.619 47.57 151.927 48.158C152.235 48.7367 152.659 49.1847 153.201 49.502C153.742 49.8193 154.353 49.978 155.035 49.978C155.744 49.978 156.351 49.824 156.855 49.516C157.368 49.1987 157.76 48.746 158.031 48.158H159.557C159.193 49.0913 158.614 49.8147 157.821 50.328C157.027 50.832 156.099 51.084 155.035 51.084C154.129 51.084 153.303 50.874 152.557 50.454C151.819 50.0247 151.236 49.432 150.807 48.676C150.377 47.92 150.163 47.066 150.163 46.114ZM162.727 40.64V51H161.453V40.64H162.727ZM164.422 47.136C164.422 46.352 164.581 45.666 164.898 45.078C165.216 44.4807 165.65 44.0187 166.2 43.692C166.76 43.3653 167.381 43.202 168.062 43.202C168.734 43.202 169.318 43.3467 169.812 43.636C170.307 43.9253 170.676 44.2893 170.918 44.728V43.328H172.206V51H170.918V49.572C170.666 50.02 170.288 50.3933 169.784 50.692C169.29 50.9813 168.711 51.126 168.048 51.126C167.367 51.126 166.751 50.958 166.2 50.622C165.65 50.286 165.216 49.8147 164.898 49.208C164.581 48.6013 164.422 47.9107 164.422 47.136ZM170.918 47.15C170.918 46.5713 170.802 46.0673 170.568 45.638C170.335 45.2087 170.018 44.882 169.616 44.658C169.224 44.4247 168.79 44.308 168.314 44.308C167.838 44.308 167.404 44.42 167.012 44.644C166.62 44.868 166.308 45.1947 166.074 45.624C165.841 46.0533 165.724 46.5573 165.724 47.136C165.724 47.724 165.841 48.2373 166.074 48.676C166.308 49.1053 166.62 49.4367 167.012 49.67C167.404 49.894 167.838 50.006 168.314 50.006C168.79 50.006 169.224 49.894 169.616 49.67C170.018 49.4367 170.335 49.1053 170.568 48.676C170.802 48.2373 170.918 47.7287 170.918 47.15ZM177.075 51.126C176.487 51.126 175.96 51.028 175.493 50.832C175.027 50.6267 174.658 50.3467 174.387 49.992C174.117 49.628 173.967 49.2127 173.939 48.746H175.255C175.293 49.1287 175.47 49.4413 175.787 49.684C176.114 49.9267 176.539 50.048 177.061 50.048C177.547 50.048 177.929 49.9407 178.209 49.726C178.489 49.5113 178.629 49.2407 178.629 48.914C178.629 48.578 178.48 48.3307 178.181 48.172C177.883 48.004 177.421 47.8407 176.795 47.682C176.226 47.5327 175.759 47.3833 175.395 47.234C175.041 47.0753 174.733 46.8467 174.471 46.548C174.219 46.24 174.093 45.8387 174.093 45.344C174.093 44.952 174.21 44.5927 174.443 44.266C174.677 43.9393 175.008 43.6827 175.437 43.496C175.867 43.3 176.357 43.202 176.907 43.202C177.757 43.202 178.443 43.4167 178.965 43.846C179.488 44.2753 179.768 44.8633 179.805 45.61H178.531C178.503 45.2087 178.34 44.8867 178.041 44.644C177.752 44.4013 177.36 44.28 176.865 44.28C176.408 44.28 176.044 44.378 175.773 44.574C175.503 44.77 175.367 45.0267 175.367 45.344C175.367 45.596 175.447 45.806 175.605 45.974C175.773 46.1327 175.979 46.2633 176.221 46.366C176.473 46.4593 176.819 46.5667 177.257 46.688C177.808 46.8373 178.256 46.9867 178.601 47.136C178.947 47.276 179.241 47.4907 179.483 47.78C179.735 48.0693 179.866 48.4473 179.875 48.914C179.875 49.334 179.759 49.712 179.525 50.048C179.292 50.384 178.961 50.65 178.531 50.846C178.111 51.0327 177.626 51.126 177.075 51.126ZM184.39 51.126C183.802 51.126 183.274 51.028 182.808 50.832C182.341 50.6267 181.972 50.3467 181.702 49.992C181.431 49.628 181.282 49.2127 181.254 48.746H182.57C182.607 49.1287 182.784 49.4413 183.102 49.684C183.428 49.9267 183.853 50.048 184.376 50.048C184.861 50.048 185.244 49.9407 185.524 49.726C185.804 49.5113 185.944 49.2407 185.944 48.914C185.944 48.578 185.794 48.3307 185.496 48.172C185.197 48.004 184.735 47.8407 184.11 47.682C183.54 47.5327 183.074 47.3833 182.71 47.234C182.355 47.0753 182.047 46.8467 181.786 46.548C181.534 46.24 181.408 45.8387 181.408 45.344C181.408 44.952 181.524 44.5927 181.758 44.266C181.991 43.9393 182.322 43.6827 182.752 43.496C183.181 43.3 183.671 43.202 184.222 43.202C185.071 43.202 185.757 43.4167 186.28 43.846C186.802 44.2753 187.082 44.8633 187.12 45.61H185.846C185.818 45.2087 185.654 44.8867 185.356 44.644C185.066 44.4013 184.674 44.28 184.18 44.28C183.722 44.28 183.358 44.378 183.088 44.574C182.817 44.77 182.682 45.0267 182.682 45.344C182.682 45.596 182.761 45.806 182.92 45.974C183.088 46.1327 183.293 46.2633 183.536 46.366C183.788 46.4593 184.133 46.5667 184.572 46.688C185.122 46.8373 185.57 46.9867 185.916 47.136C186.261 47.276 186.555 47.4907 186.798 47.78C187.05 48.0693 187.18 48.4473 187.19 48.914C187.19 49.334 187.073 49.712 186.84 50.048C186.606 50.384 186.275 50.65 185.846 50.846C185.426 51.0327 184.94 51.126 184.39 51.126ZM195.988 46.87C195.988 47.1127 195.974 47.3693 195.946 47.64H189.814C189.861 48.396 190.117 48.9887 190.584 49.418C191.06 49.838 191.634 50.048 192.306 50.048C192.857 50.048 193.314 49.922 193.678 49.67C194.051 49.4087 194.313 49.0633 194.462 48.634H195.834C195.629 49.3713 195.218 49.9733 194.602 50.44C193.986 50.8973 193.221 51.126 192.306 51.126C191.578 51.126 190.925 50.9627 190.346 50.636C189.777 50.3093 189.329 49.8473 189.002 49.25C188.675 48.6433 188.512 47.9433 188.512 47.15C188.512 46.3567 188.671 45.6613 188.988 45.064C189.305 44.4667 189.749 44.0093 190.318 43.692C190.897 43.3653 191.559 43.202 192.306 43.202C193.034 43.202 193.678 43.3607 194.238 43.678C194.798 43.9953 195.227 44.434 195.526 44.994C195.834 45.5447 195.988 46.17 195.988 46.87ZM194.672 46.604C194.672 46.1187 194.565 45.7033 194.35 45.358C194.135 45.0033 193.841 44.7373 193.468 44.56C193.104 44.3733 192.698 44.28 192.25 44.28C191.606 44.28 191.055 44.4853 190.598 44.896C190.15 45.3067 189.893 45.876 189.828 46.604H194.672ZM200.386 51.126C199.798 51.126 199.27 51.028 198.804 50.832C198.337 50.6267 197.968 50.3467 197.698 49.992C197.427 49.628 197.278 49.2127 197.25 48.746H198.566C198.603 49.1287 198.78 49.4413 199.098 49.684C199.424 49.9267 199.849 50.048 200.372 50.048C200.857 50.048 201.24 49.9407 201.52 49.726C201.8 49.5113 201.94 49.2407 201.94 48.914C201.94 48.578 201.79 48.3307 201.492 48.172C201.193 48.004 200.731 47.8407 200.106 47.682C199.536 47.5327 199.07 47.3833 198.706 47.234C198.351 47.0753 198.043 46.8467 197.782 46.548C197.53 46.24 197.404 45.8387 197.404 45.344C197.404 44.952 197.52 44.5927 197.754 44.266C197.987 43.9393 198.318 43.6827 198.748 43.496C199.177 43.3 199.667 43.202 200.218 43.202C201.067 43.202 201.753 43.4167 202.276 43.846C202.798 44.2753 203.078 44.8633 203.116 45.61H201.842C201.814 45.2087 201.65 44.8867 201.352 44.644C201.062 44.4013 200.67 44.28 200.176 44.28C199.718 44.28 199.354 44.378 199.084 44.574C198.813 44.77 198.678 45.0267 198.678 45.344C198.678 45.596 198.757 45.806 198.916 45.974C199.084 46.1327 199.289 46.2633 199.532 46.366C199.784 46.4593 200.129 46.5667 200.568 46.688C201.118 46.8373 201.566 46.9867 201.912 47.136C202.257 47.276 202.551 47.4907 202.794 47.78C203.046 48.0693 203.176 48.4473 203.186 48.914C203.186 49.334 203.069 49.712 202.836 50.048C202.602 50.384 202.271 50.65 201.842 50.846C201.422 51.0327 200.936 51.126 200.386 51.126ZM214.037 45.33V46.408H208.451V45.33H214.037ZM37.91 62.242L34.732 68.318V72H33.458V68.318L30.266 62.242H31.68L34.088 67.184L36.496 62.242H37.91ZM42.5998 72.126C41.8811 72.126 41.2278 71.9627 40.6398 71.636C40.0611 71.3093 39.6038 70.8473 39.2678 70.25C38.9411 69.6433 38.7778 68.9433 38.7778 68.15C38.7778 67.366 38.9458 66.6753 39.2818 66.078C39.6271 65.4713 40.0938 65.0093 40.6818 64.692C41.2698 64.3653 41.9278 64.202 42.6558 64.202C43.3838 64.202 44.0418 64.3653 44.6298 64.692C45.2178 65.0093 45.6798 65.4667 46.0158 66.064C46.3611 66.6613 46.5338 67.3567 46.5338 68.15C46.5338 68.9433 46.3564 69.6433 46.0018 70.25C45.6564 70.8473 45.1851 71.3093 44.5878 71.636C43.9904 71.9627 43.3278 72.126 42.5998 72.126ZM42.5998 71.006C43.0571 71.006 43.4864 70.8987 43.8878 70.684C44.2891 70.4693 44.6111 70.1473 44.8538 69.718C45.1058 69.2887 45.2318 68.766 45.2318 68.15C45.2318 67.534 45.1104 67.0113 44.8678 66.582C44.6251 66.1527 44.3078 65.8353 43.9158 65.63C43.5238 65.4153 43.0991 65.308 42.6418 65.308C42.1751 65.308 41.7458 65.4153 41.3538 65.63C40.9711 65.8353 40.6631 66.1527 40.4298 66.582C40.1964 67.0113 40.0798 67.534 40.0798 68.15C40.0798 68.7753 40.1918 69.3027 40.4158 69.732C40.6491 70.1613 40.9571 70.4833 41.3398 70.698C41.7224 70.9033 42.1424 71.006 42.5998 71.006ZM51.3729 64.202C52.0355 64.202 52.6142 64.3467 53.1089 64.636C53.6129 64.9253 53.9862 65.2893 54.2289 65.728V64.328H55.5169V72.168C55.5169 72.868 55.3675 73.4887 55.0689 74.03C54.7702 74.5807 54.3409 75.01 53.7809 75.318C53.2302 75.626 52.5862 75.78 51.8489 75.78C50.8409 75.78 50.0009 75.542 49.3289 75.066C48.6569 74.59 48.2602 73.9413 48.1389 73.12H49.3989C49.5389 73.5867 49.8282 73.96 50.2669 74.24C50.7055 74.5293 51.2329 74.674 51.8489 74.674C52.5489 74.674 53.1182 74.4547 53.5569 74.016C54.0049 73.5773 54.2289 72.9613 54.2289 72.168V70.558C53.9769 71.006 53.6035 71.3793 53.1089 71.678C52.6142 71.9767 52.0355 72.126 51.3729 72.126C50.6915 72.126 50.0709 71.958 49.5109 71.622C48.9602 71.286 48.5262 70.8147 48.2089 70.208C47.8915 69.6013 47.7329 68.9107 47.7329 68.136C47.7329 67.352 47.8915 66.666 48.2089 66.078C48.5262 65.4807 48.9602 65.0187 49.5109 64.692C50.0709 64.3653 50.6915 64.202 51.3729 64.202ZM54.2289 68.15C54.2289 67.5713 54.1122 67.0673 53.8789 66.638C53.6455 66.2087 53.3282 65.882 52.9269 65.658C52.5349 65.4247 52.1009 65.308 51.6249 65.308C51.1489 65.308 50.7149 65.42 50.3229 65.644C49.9309 65.868 49.6182 66.1947 49.3849 66.624C49.1515 67.0533 49.0349 67.5573 49.0349 68.136C49.0349 68.724 49.1515 69.2373 49.3849 69.676C49.6182 70.1053 49.9309 70.4367 50.3229 70.67C50.7149 70.894 51.1489 71.006 51.6249 71.006C52.1009 71.006 52.5349 70.894 52.9269 70.67C53.3282 70.4367 53.6455 70.1053 53.8789 69.676C54.1122 69.2373 54.2289 68.7287 54.2289 68.15ZM57.1938 68.136C57.1938 67.352 57.3525 66.666 57.6698 66.078C57.9871 65.4807 58.4211 65.0187 58.9718 64.692C59.5318 64.3653 60.1525 64.202 60.8338 64.202C61.5058 64.202 62.0891 64.3467 62.5838 64.636C63.0785 64.9253 63.4471 65.2893 63.6898 65.728V64.328H64.9778V72H63.6898V70.572C63.4378 71.02 63.0598 71.3933 62.5558 71.692C62.0611 71.9813 61.4825 72.126 60.8198 72.126C60.1385 72.126 59.5225 71.958 58.9718 71.622C58.4211 71.286 57.9871 70.8147 57.6698 70.208C57.3525 69.6013 57.1938 68.9107 57.1938 68.136ZM63.6898 68.15C63.6898 67.5713 63.5731 67.0673 63.3398 66.638C63.1065 66.2087 62.7891 65.882 62.3878 65.658C61.9958 65.4247 61.5618 65.308 61.0858 65.308C60.6098 65.308 60.1758 65.42 59.7838 65.644C59.3918 65.868 59.0791 66.1947 58.8458 66.624C58.6125 67.0533 58.4958 67.5573 58.4958 68.136C58.4958 68.724 58.6125 69.2373 58.8458 69.676C59.0791 70.1053 59.3918 70.4367 59.7838 70.67C60.1758 70.894 60.6098 71.006 61.0858 71.006C61.5618 71.006 61.9958 70.894 62.3878 70.67C62.7891 70.4367 63.1065 70.1053 63.3398 69.676C63.5731 69.2373 63.6898 68.7287 63.6898 68.15ZM68.4467 70.236L66.8787 74.002H66.0247L67.0467 70.236H68.4467ZM83.5365 62.312V72H82.2625V64.776L79.0425 72H78.1465L74.9125 64.762V72H73.6385V62.312H75.0105L78.5945 70.32L82.1785 62.312H83.5365ZM92.6971 67.87C92.6971 68.1127 92.6831 68.3693 92.6551 68.64H86.5231C86.5698 69.396 86.8265 69.9887 87.2931 70.418C87.7691 70.838 88.3431 71.048 89.0151 71.048C89.5658 71.048 90.0231 70.922 90.3871 70.67C90.7605 70.4087 91.0218 70.0633 91.1711 69.634H92.5431C92.3378 70.3713 91.9271 70.9733 91.3111 71.44C90.6951 71.8973 89.9298 72.126 89.0151 72.126C88.2871 72.126 87.6338 71.9627 87.0551 71.636C86.4858 71.3093 86.0378 70.8473 85.7111 70.25C85.3845 69.6433 85.2211 68.9433 85.2211 68.15C85.2211 67.3567 85.3798 66.6613 85.6971 66.064C86.0145 65.4667 86.4578 65.0093 87.0271 64.692C87.6058 64.3653 88.2685 64.202 89.0151 64.202C89.7431 64.202 90.3871 64.3607 90.9471 64.678C91.5071 64.9953 91.9365 65.434 92.2351 65.994C92.5431 66.5447 92.6971 67.17 92.6971 67.87ZM91.3811 67.604C91.3811 67.1187 91.2738 66.7033 91.0591 66.358C90.8445 66.0033 90.5505 65.7373 90.1771 65.56C89.8131 65.3733 89.4071 65.28 88.9591 65.28C88.3151 65.28 87.7645 65.4853 87.3071 65.896C86.8591 66.3067 86.6025 66.876 86.5371 67.604H91.3811ZM93.9028 68.136C93.9028 67.352 94.0614 66.666 94.3788 66.078C94.6961 65.4807 95.1301 65.0187 95.6808 64.692C96.2408 64.3653 96.8661 64.202 97.5568 64.202C98.1541 64.202 98.7094 64.342 99.2228 64.622C99.7361 64.8927 100.128 65.252 100.399 65.7V61.64H101.687V72H100.399V70.558C100.147 71.0153 99.7734 71.3933 99.2788 71.692C98.7841 71.9813 98.2054 72.126 97.5428 72.126C96.8614 72.126 96.2408 71.958 95.6808 71.622C95.1301 71.286 94.6961 70.8147 94.3788 70.208C94.0614 69.6013 93.9028 68.9107 93.9028 68.136ZM100.399 68.15C100.399 67.5713 100.282 67.0673 100.049 66.638C99.8154 66.2087 99.4981 65.882 99.0968 65.658C98.7048 65.4247 98.2708 65.308 97.7948 65.308C97.3188 65.308 96.8848 65.42 96.4928 65.644C96.1008 65.868 95.7881 66.1947 95.5548 66.624C95.3214 67.0533 95.2048 67.5573 95.2048 68.136C95.2048 68.724 95.3214 69.2373 95.5548 69.676C95.7881 70.1053 96.1008 70.4367 96.4928 70.67C96.8848 70.894 97.3188 71.006 97.7948 71.006C98.2708 71.006 98.7048 70.894 99.0968 70.67C99.4981 70.4367 99.8154 70.1053 100.049 69.676C100.282 69.2373 100.399 68.7287 100.399 68.15ZM104.498 63.082C104.255 63.082 104.05 62.998 103.882 62.83C103.714 62.662 103.63 62.4567 103.63 62.214C103.63 61.9713 103.714 61.766 103.882 61.598C104.05 61.43 104.255 61.346 104.498 61.346C104.731 61.346 104.927 61.43 105.086 61.598C105.254 61.766 105.338 61.9713 105.338 62.214C105.338 62.4567 105.254 62.662 105.086 62.83C104.927 62.998 104.731 63.082 104.498 63.082ZM105.114 64.328V72H103.84V64.328H105.114ZM108.839 65.378V69.9C108.839 70.2733 108.918 70.5393 109.077 70.698C109.236 70.8473 109.511 70.922 109.903 70.922H110.841V72H109.693C108.984 72 108.452 71.8367 108.097 71.51C107.742 71.1833 107.565 70.6467 107.565 69.9V65.378H106.571V64.328H107.565V62.396H108.839V64.328H110.841V65.378H108.839ZM111.909 68.136C111.909 67.352 112.067 66.666 112.385 66.078C112.702 65.4807 113.136 65.0187 113.687 64.692C114.247 64.3653 114.867 64.202 115.549 64.202C116.221 64.202 116.804 64.3467 117.299 64.636C117.793 64.9253 118.162 65.2893 118.405 65.728V64.328H119.693V72H118.405V70.572C118.153 71.02 117.775 71.3933 117.271 71.692C116.776 71.9813 116.197 72.126 115.535 72.126C114.853 72.126 114.237 71.958 113.687 71.622C113.136 71.286 112.702 70.8147 112.385 70.208C112.067 69.6013 111.909 68.9107 111.909 68.136ZM118.405 68.15C118.405 67.5713 118.288 67.0673 118.055 66.638C117.821 66.2087 117.504 65.882 117.103 65.658C116.711 65.4247 116.277 65.308 115.801 65.308C115.325 65.308 114.891 65.42 114.499 65.644C114.107 65.868 113.794 66.1947 113.561 66.624C113.327 67.0533 113.211 67.5573 113.211 68.136C113.211 68.724 113.327 69.2373 113.561 69.676C113.794 70.1053 114.107 70.4367 114.499 70.67C114.891 70.894 115.325 71.006 115.801 71.006C116.277 71.006 116.711 70.894 117.103 70.67C117.504 70.4367 117.821 70.1053 118.055 69.676C118.288 69.2373 118.405 68.7287 118.405 68.15ZM123.4 65.378V69.9C123.4 70.2733 123.479 70.5393 123.638 70.698C123.796 70.8473 124.072 70.922 124.464 70.922H125.402V72H124.254C123.544 72 123.012 71.8367 122.658 71.51C122.303 71.1833 122.126 70.6467 122.126 69.9V65.378H121.132V64.328H122.126V62.396H123.4V64.328H125.402V65.378H123.4ZM127.603 63.082C127.361 63.082 127.155 62.998 126.987 62.83C126.819 62.662 126.735 62.4567 126.735 62.214C126.735 61.9713 126.819 61.766 126.987 61.598C127.155 61.43 127.361 61.346 127.603 61.346C127.837 61.346 128.033 61.43 128.191 61.598C128.359 61.766 128.443 61.9713 128.443 62.214C128.443 62.4567 128.359 62.662 128.191 62.83C128.033 62.998 127.837 63.082 127.603 63.082ZM128.219 64.328V72H126.945V64.328H128.219ZM133.737 72.126C133.018 72.126 132.365 71.9627 131.777 71.636C131.198 71.3093 130.741 70.8473 130.405 70.25C130.078 69.6433 129.915 68.9433 129.915 68.15C129.915 67.366 130.083 66.6753 130.419 66.078C130.764 65.4713 131.231 65.0093 131.819 64.692C132.407 64.3653 133.065 64.202 133.793 64.202C134.521 64.202 135.179 64.3653 135.767 64.692C136.355 65.0093 136.817 65.4667 137.153 66.064C137.498 66.6613 137.671 67.3567 137.671 68.15C137.671 68.9433 137.493 69.6433 137.139 70.25C136.793 70.8473 136.322 71.3093 135.725 71.636C135.127 71.9627 134.465 72.126 133.737 72.126ZM133.737 71.006C134.194 71.006 134.623 70.8987 135.025 70.684C135.426 70.4693 135.748 70.1473 135.991 69.718C136.243 69.2887 136.369 68.766 136.369 68.15C136.369 67.534 136.247 67.0113 136.005 66.582C135.762 66.1527 135.445 65.8353 135.053 65.63C134.661 65.4153 134.236 65.308 133.779 65.308C133.312 65.308 132.883 65.4153 132.491 65.63C132.108 65.8353 131.8 66.1527 131.567 66.582C131.333 67.0113 131.217 67.534 131.217 68.15C131.217 68.7753 131.329 69.3027 131.553 69.732C131.786 70.1613 132.094 70.4833 132.477 70.698C132.859 70.9033 133.279 71.006 133.737 71.006ZM143.084 64.188C144.017 64.188 144.773 64.4727 145.352 65.042C145.93 65.602 146.22 66.414 146.22 67.478V72H144.96V67.66C144.96 66.8947 144.768 66.3113 144.386 65.91C144.003 65.4993 143.48 65.294 142.818 65.294C142.146 65.294 141.609 65.504 141.208 65.924C140.816 66.344 140.62 66.9553 140.62 67.758V72H139.346V64.328H140.62V65.42C140.872 65.028 141.212 64.7247 141.642 64.51C142.08 64.2953 142.561 64.188 143.084 64.188ZM159.523 72L158.249 70.712C157.773 71.2067 157.264 71.5753 156.723 71.818C156.182 72.0513 155.57 72.168 154.889 72.168C154.217 72.168 153.62 72.0467 153.097 71.804C152.584 71.5613 152.182 71.216 151.893 70.768C151.613 70.32 151.473 69.7973 151.473 69.2C151.473 68.5187 151.664 67.9213 152.047 67.408C152.439 66.8853 153.013 66.4747 153.769 66.176C153.47 65.8213 153.256 65.4947 153.125 65.196C152.994 64.8973 152.929 64.5707 152.929 64.216C152.929 63.8053 153.032 63.4367 153.237 63.11C153.452 62.774 153.755 62.5127 154.147 62.326C154.539 62.1393 154.992 62.046 155.505 62.046C156.009 62.046 156.448 62.144 156.821 62.34C157.194 62.536 157.474 62.8113 157.661 63.166C157.848 63.5113 157.932 63.8987 157.913 64.328H156.639C156.648 63.9453 156.541 63.6467 156.317 63.432C156.093 63.208 155.804 63.096 155.449 63.096C155.076 63.096 154.772 63.2033 154.539 63.418C154.315 63.6233 154.203 63.8893 154.203 64.216C154.203 64.496 154.278 64.7667 154.427 65.028C154.586 65.2893 154.847 65.6113 155.211 65.994L158.123 68.92L158.375 68.528L159.327 66.932H160.699L159.551 68.92C159.392 69.2 159.206 69.494 158.991 69.802L161.189 72H159.523ZM154.889 71.076C155.393 71.076 155.846 70.978 156.247 70.782C156.658 70.586 157.045 70.2827 157.409 69.872L154.539 66.988C153.344 67.4453 152.747 68.1687 152.747 69.158C152.747 69.7087 152.943 70.166 153.335 70.53C153.736 70.894 154.254 71.076 154.889 71.076ZM169.209 72.098C168.565 72.098 167.986 71.986 167.473 71.762C166.969 71.5287 166.572 71.2113 166.283 70.81C165.994 70.3993 165.844 69.928 165.835 69.396H167.193C167.24 69.8533 167.426 70.2407 167.753 70.558C168.089 70.866 168.574 71.02 169.209 71.02C169.816 71.02 170.292 70.8707 170.637 70.572C170.992 70.264 171.169 69.872 171.169 69.396C171.169 69.0227 171.066 68.7193 170.861 68.486C170.656 68.2527 170.399 68.0753 170.091 67.954C169.783 67.8327 169.368 67.702 168.845 67.562C168.201 67.394 167.683 67.226 167.291 67.058C166.908 66.89 166.577 66.6287 166.297 66.274C166.026 65.91 165.891 65.4247 165.891 64.818C165.891 64.286 166.026 63.8147 166.297 63.404C166.568 62.9933 166.946 62.676 167.431 62.452C167.926 62.228 168.49 62.116 169.125 62.116C170.04 62.116 170.786 62.3447 171.365 62.802C171.953 63.2593 172.284 63.866 172.359 64.622H170.959C170.912 64.2487 170.716 63.922 170.371 63.642C170.026 63.3527 169.568 63.208 168.999 63.208C168.467 63.208 168.033 63.348 167.697 63.628C167.361 63.8987 167.193 64.2813 167.193 64.776C167.193 65.1307 167.291 65.42 167.487 65.644C167.692 65.868 167.94 66.0407 168.229 66.162C168.528 66.274 168.943 66.4047 169.475 66.554C170.119 66.7313 170.637 66.9087 171.029 67.086C171.421 67.254 171.757 67.52 172.037 67.884C172.317 68.2387 172.457 68.724 172.457 69.34C172.457 69.816 172.331 70.264 172.079 70.684C171.827 71.104 171.454 71.4447 170.959 71.706C170.464 71.9673 169.881 72.098 169.209 72.098ZM181.136 64.328V72H179.862V70.866C179.619 71.258 179.279 71.566 178.84 71.79C178.411 72.0047 177.935 72.112 177.412 72.112C176.815 72.112 176.278 71.9907 175.802 71.748C175.326 71.496 174.948 71.1227 174.668 70.628C174.397 70.1333 174.262 69.5313 174.262 68.822V64.328H175.522V68.654C175.522 69.41 175.713 69.9933 176.096 70.404C176.479 70.8053 177.001 71.006 177.664 71.006C178.345 71.006 178.882 70.796 179.274 70.376C179.666 69.956 179.862 69.3447 179.862 68.542V64.328H181.136ZM182.811 68.15C182.811 67.3567 182.97 66.666 183.287 66.078C183.604 65.4807 184.043 65.0187 184.603 64.692C185.172 64.3653 185.821 64.202 186.549 64.202C187.492 64.202 188.266 64.4307 188.873 64.888C189.489 65.3453 189.895 65.98 190.091 66.792H188.719C188.588 66.3253 188.332 65.9567 187.949 65.686C187.576 65.4153 187.109 65.28 186.549 65.28C185.821 65.28 185.233 65.532 184.785 66.036C184.337 66.5307 184.113 67.2353 184.113 68.15C184.113 69.074 184.337 69.788 184.785 70.292C185.233 70.796 185.821 71.048 186.549 71.048C187.109 71.048 187.576 70.9173 187.949 70.656C188.322 70.3947 188.579 70.0213 188.719 69.536H190.091C189.886 70.32 189.475 70.95 188.859 71.426C188.243 71.8927 187.473 72.126 186.549 72.126C185.821 72.126 185.172 71.9627 184.603 71.636C184.043 71.3093 183.604 70.8473 183.287 70.25C182.97 69.6527 182.811 68.9527 182.811 68.15ZM198.791 67.87C198.791 68.1127 198.777 68.3693 198.749 68.64H192.617C192.664 69.396 192.92 69.9887 193.387 70.418C193.863 70.838 194.437 71.048 195.109 71.048C195.66 71.048 196.117 70.922 196.481 70.67C196.854 70.4087 197.116 70.0633 197.265 69.634H198.637C198.432 70.3713 198.021 70.9733 197.405 71.44C196.789 71.8973 196.024 72.126 195.109 72.126C194.381 72.126 193.728 71.9627 193.149 71.636C192.58 71.3093 192.132 70.8473 191.805 70.25C191.478 69.6433 191.315 68.9433 191.315 68.15C191.315 67.3567 191.474 66.6613 191.791 66.064C192.108 65.4667 192.552 65.0093 193.121 64.692C193.7 64.3653 194.362 64.202 195.109 64.202C195.837 64.202 196.481 64.3607 197.041 64.678C197.601 64.9953 198.03 65.434 198.329 65.994C198.637 66.5447 198.791 67.17 198.791 67.87ZM197.475 67.604C197.475 67.1187 197.368 66.7033 197.153 66.358C196.938 66.0033 196.644 65.7373 196.271 65.56C195.907 65.3733 195.501 65.28 195.053 65.28C194.409 65.28 193.858 65.4853 193.401 65.896C192.953 66.3067 192.696 66.876 192.631 67.604H197.475ZM203.189 72.126C202.601 72.126 202.073 72.028 201.607 71.832C201.14 71.6267 200.771 71.3467 200.501 70.992C200.23 70.628 200.081 70.2127 200.053 69.746H201.369C201.406 70.1287 201.583 70.4413 201.901 70.684C202.227 70.9267 202.652 71.048 203.175 71.048C203.66 71.048 204.043 70.9407 204.323 70.726C204.603 70.5113 204.743 70.2407 204.743 69.914C204.743 69.578 204.593 69.3307 204.295 69.172C203.996 69.004 203.534 68.8407 202.909 68.682C202.339 68.5327 201.873 68.3833 201.509 68.234C201.154 68.0753 200.846 67.8467 200.585 67.548C200.333 67.24 200.207 66.8387 200.207 66.344C200.207 65.952 200.323 65.5927 200.557 65.266C200.79 64.9393 201.121 64.6827 201.551 64.496C201.98 64.3 202.47 64.202 203.021 64.202C203.87 64.202 204.556 64.4167 205.079 64.846C205.601 65.2753 205.881 65.8633 205.919 66.61H204.645C204.617 66.2087 204.453 65.8867 204.155 65.644C203.865 65.4013 203.473 65.28 202.979 65.28C202.521 65.28 202.157 65.378 201.887 65.574C201.616 65.77 201.481 66.0267 201.481 66.344C201.481 66.596 201.56 66.806 201.719 66.974C201.887 67.1327 202.092 67.2633 202.335 67.366C202.587 67.4593 202.932 67.5667 203.371 67.688C203.921 67.8373 204.369 67.9867 204.715 68.136C205.06 68.276 205.354 68.4907 205.597 68.78C205.849 69.0693 205.979 69.4473 205.989 69.914C205.989 70.334 205.872 70.712 205.639 71.048C205.405 71.384 205.074 71.65 204.645 71.846C204.225 72.0327 203.739 72.126 203.189 72.126ZM210.503 72.126C209.915 72.126 209.388 72.028 208.921 71.832C208.454 71.6267 208.086 71.3467 207.815 70.992C207.544 70.628 207.395 70.2127 207.367 69.746H208.683C208.72 70.1287 208.898 70.4413 209.215 70.684C209.542 70.9267 209.966 71.048 210.489 71.048C210.974 71.048 211.357 70.9407 211.637 70.726C211.917 70.5113 212.057 70.2407 212.057 69.914C212.057 69.578 211.908 69.3307 211.609 69.172C211.31 69.004 210.848 68.8407 210.223 68.682C209.654 68.5327 209.187 68.3833 208.823 68.234C208.468 68.0753 208.16 67.8467 207.899 67.548C207.647 67.24 207.521 66.8387 207.521 66.344C207.521 65.952 207.638 65.5927 207.871 65.266C208.104 64.9393 208.436 64.6827 208.865 64.496C209.294 64.3 209.784 64.202 210.335 64.202C211.184 64.202 211.87 64.4167 212.393 64.846C212.916 65.2753 213.196 65.8633 213.233 66.61H211.959C211.931 66.2087 211.768 65.8867 211.469 65.644C211.18 65.4013 210.788 65.28 210.293 65.28C209.836 65.28 209.472 65.378 209.201 65.574C208.93 65.77 208.795 66.0267 208.795 66.344C208.795 66.596 208.874 66.806 209.033 66.974C209.201 67.1327 209.406 67.2633 209.649 67.366C209.901 67.4593 210.246 67.5667 210.685 67.688C211.236 67.8373 211.684 67.9867 212.029 68.136C212.374 68.276 212.668 68.4907 212.911 68.78C213.163 69.0693 213.294 69.4473 213.303 69.914C213.303 70.334 213.186 70.712 212.953 71.048C212.72 71.384 212.388 71.65 211.959 71.846C211.539 72.0327 211.054 72.126 210.503 72.126Z" fill="#263238"/>
<path d="M5.4343 106.731L0.234305 101.531C-0.0781016 101.219 -0.0781016 100.712 0.234305 100.4L1.36565 99.2685C1.67805 98.956 2.18462 98.956 2.49702 99.2685L5.99999 102.771L13.503 95.2685C13.8154 94.9561 14.3219 94.9561 14.6343 95.2685L15.7657 96.3999C16.0781 96.7123 16.0781 97.2188 15.7657 97.5312L6.56568 106.731C6.25324 107.044 5.74671 107.044 5.4343 106.731V106.731Z" fill="#A3A2A2"/>
<path d="M34.172 108.098C33.528 108.098 32.9493 107.986 32.436 107.762C31.932 107.529 31.5353 107.211 31.246 106.81C30.9567 106.399 30.8073 105.928 30.798 105.396H32.156C32.2027 105.853 32.3893 106.241 32.716 106.558C33.052 106.866 33.5373 107.02 34.172 107.02C34.7787 107.02 35.2547 106.871 35.6 106.572C35.9547 106.264 36.132 105.872 36.132 105.396C36.132 105.023 36.0293 104.719 35.824 104.486C35.6187 104.253 35.362 104.075 35.054 103.954C34.746 103.833 34.3307 103.702 33.808 103.562C33.164 103.394 32.646 103.226 32.254 103.058C31.8713 102.89 31.54 102.629 31.26 102.274C30.9893 101.91 30.854 101.425 30.854 100.818C30.854 100.286 30.9893 99.8147 31.26 99.404C31.5307 98.9933 31.9087 98.676 32.394 98.452C32.8887 98.228 33.4533 98.116 34.088 98.116C35.0027 98.116 35.7493 98.3447 36.328 98.802C36.916 99.2593 37.2473 99.866 37.322 100.622H35.922C35.8753 100.249 35.6793 99.922 35.334 99.642C34.9887 99.3527 34.5313 99.208 33.962 99.208C33.43 99.208 32.996 99.348 32.66 99.628C32.324 99.8987 32.156 100.281 32.156 100.776C32.156 101.131 32.254 101.42 32.45 101.644C32.6553 101.868 32.9027 102.041 33.192 102.162C33.4907 102.274 33.906 102.405 34.438 102.554C35.082 102.731 35.6 102.909 35.992 103.086C36.384 103.254 36.72 103.52 37 103.884C37.28 104.239 37.42 104.724 37.42 105.34C37.42 105.816 37.294 106.264 37.042 106.684C36.79 107.104 36.4167 107.445 35.922 107.706C35.4273 107.967 34.844 108.098 34.172 108.098ZM42.6408 108.126C41.9221 108.126 41.2688 107.963 40.6808 107.636C40.1021 107.309 39.6448 106.847 39.3088 106.25C38.9821 105.643 38.8188 104.943 38.8188 104.15C38.8188 103.366 38.9868 102.675 39.3228 102.078C39.6681 101.471 40.1348 101.009 40.7228 100.692C41.3108 100.365 41.9688 100.202 42.6968 100.202C43.4248 100.202 44.0828 100.365 44.6708 100.692C45.2588 101.009 45.7208 101.467 46.0568 102.064C46.4021 102.661 46.5748 103.357 46.5748 104.15C46.5748 104.943 46.3975 105.643 46.0428 106.25C45.6975 106.847 45.2261 107.309 44.6288 107.636C44.0315 107.963 43.3688 108.126 42.6408 108.126ZM42.6408 107.006C43.0981 107.006 43.5275 106.899 43.9288 106.684C44.3301 106.469 44.6521 106.147 44.8948 105.718C45.1468 105.289 45.2728 104.766 45.2728 104.15C45.2728 103.534 45.1515 103.011 44.9088 102.582C44.6661 102.153 44.3488 101.835 43.9568 101.63C43.5648 101.415 43.1401 101.308 42.6828 101.308C42.2161 101.308 41.7868 101.415 41.3948 101.63C41.0121 101.835 40.7041 102.153 40.4708 102.582C40.2375 103.011 40.1208 103.534 40.1208 104.15C40.1208 104.775 40.2328 105.303 40.4568 105.732C40.6901 106.161 40.9981 106.483 41.3808 106.698C41.7635 106.903 42.1835 107.006 42.6408 107.006ZM47.7739 104.15C47.7739 103.357 47.9325 102.666 48.2499 102.078C48.5672 101.481 49.0059 101.019 49.5659 100.692C50.1352 100.365 50.7839 100.202 51.5119 100.202C52.4545 100.202 53.2292 100.431 53.8359 100.888C54.4519 101.345 54.8579 101.98 55.0539 102.792H53.6819C53.5512 102.325 53.2945 101.957 52.9119 101.686C52.5385 101.415 52.0719 101.28 51.5119 101.28C50.7839 101.28 50.1959 101.532 49.7479 102.036C49.2999 102.531 49.0759 103.235 49.0759 104.15C49.0759 105.074 49.2999 105.788 49.7479 106.292C50.1959 106.796 50.7839 107.048 51.5119 107.048C52.0719 107.048 52.5385 106.917 52.9119 106.656C53.2852 106.395 53.5419 106.021 53.6819 105.536H55.0539C54.8485 106.32 54.4379 106.95 53.8219 107.426C53.2059 107.893 52.4359 108.126 51.5119 108.126C50.7839 108.126 50.1352 107.963 49.5659 107.636C49.0059 107.309 48.5672 106.847 48.2499 106.25C47.9325 105.653 47.7739 104.953 47.7739 104.15ZM57.4118 99.082C57.1691 99.082 56.9638 98.998 56.7958 98.83C56.6278 98.662 56.5438 98.4567 56.5438 98.214C56.5438 97.9713 56.6278 97.766 56.7958 97.598C56.9638 97.43 57.1691 97.346 57.4118 97.346C57.6451 97.346 57.8411 97.43 57.9998 97.598C58.1678 97.766 58.2518 97.9713 58.2518 98.214C58.2518 98.4567 58.1678 98.662 57.9998 98.83C57.8411 98.998 57.6451 99.082 57.4118 99.082ZM58.0278 100.328V108H56.7538V100.328H58.0278ZM59.7231 104.136C59.7231 103.352 59.8818 102.666 60.1991 102.078C60.5164 101.481 60.9504 101.019 61.5011 100.692C62.0611 100.365 62.6818 100.202 63.3631 100.202C64.0351 100.202 64.6184 100.347 65.1131 100.636C65.6078 100.925 65.9764 101.289 66.2191 101.728V100.328H67.5071V108H66.2191V106.572C65.9671 107.02 65.5891 107.393 65.0851 107.692C64.5904 107.981 64.0118 108.126 63.3491 108.126C62.6678 108.126 62.0518 107.958 61.5011 107.622C60.9504 107.286 60.5164 106.815 60.1991 106.208C59.8818 105.601 59.7231 104.911 59.7231 104.136ZM66.2191 104.15C66.2191 103.571 66.1024 103.067 65.8691 102.638C65.6358 102.209 65.3184 101.882 64.9171 101.658C64.5251 101.425 64.0911 101.308 63.6151 101.308C63.1391 101.308 62.7051 101.42 62.3131 101.644C61.9211 101.868 61.6084 102.195 61.3751 102.624C61.1418 103.053 61.0251 103.557 61.0251 104.136C61.0251 104.724 61.1418 105.237 61.3751 105.676C61.6084 106.105 61.9211 106.437 62.3131 106.67C62.7051 106.894 63.1391 107.006 63.6151 107.006C64.0911 107.006 64.5251 106.894 64.9171 106.67C65.3184 106.437 65.6358 106.105 65.8691 105.676C66.1024 105.237 66.2191 104.729 66.2191 104.15ZM70.934 97.64V108H69.66V97.64H70.934ZM84.5098 108H83.2358L78.1118 100.23V108H76.8378V98.228H78.1118L83.2358 105.984V98.228H84.5098V108ZM93.6815 103.87C93.6815 104.113 93.6675 104.369 93.6395 104.64H87.5075C87.5542 105.396 87.8108 105.989 88.2775 106.418C88.7535 106.838 89.3275 107.048 89.9995 107.048C90.5502 107.048 91.0075 106.922 91.3715 106.67C91.7448 106.409 92.0062 106.063 92.1555 105.634H93.5275C93.3222 106.371 92.9115 106.973 92.2955 107.44C91.6795 107.897 90.9142 108.126 89.9995 108.126C89.2715 108.126 88.6182 107.963 88.0395 107.636C87.4702 107.309 87.0222 106.847 86.6955 106.25C86.3688 105.643 86.2055 104.943 86.2055 104.15C86.2055 103.357 86.3642 102.661 86.6815 102.064C86.9988 101.467 87.4422 101.009 88.0115 100.692C88.5902 100.365 89.2528 100.202 89.9995 100.202C90.7275 100.202 91.3715 100.361 91.9315 100.678C92.4915 100.995 92.9208 101.434 93.2195 101.994C93.5275 102.545 93.6815 103.17 93.6815 103.87ZM92.3655 103.604C92.3655 103.119 92.2582 102.703 92.0435 102.358C91.8288 102.003 91.5348 101.737 91.1615 101.56C90.7975 101.373 90.3915 101.28 89.9435 101.28C89.2995 101.28 88.7488 101.485 88.2915 101.896C87.8435 102.307 87.5868 102.876 87.5215 103.604H92.3655ZM96.9172 101.378V105.9C96.9172 106.273 96.9965 106.539 97.1552 106.698C97.3138 106.847 97.5892 106.922 97.9812 106.922H98.9192V108H97.7712C97.0618 108 96.5298 107.837 96.1752 107.51C95.8205 107.183 95.6432 106.647 95.6432 105.9V101.378H94.6492V100.328H95.6432V98.396H96.9172V100.328H98.9192V101.378H96.9172ZM110.683 100.328L108.289 108H106.973L105.125 101.91L103.277 108H101.961L99.5528 100.328H100.855L102.619 106.768L104.523 100.328H105.825L107.687 106.782L109.423 100.328H110.683ZM115.293 108.126C114.574 108.126 113.921 107.963 113.333 107.636C112.754 107.309 112.297 106.847 111.961 106.25C111.634 105.643 111.471 104.943 111.471 104.15C111.471 103.366 111.639 102.675 111.975 102.078C112.32 101.471 112.787 101.009 113.375 100.692C113.963 100.365 114.621 100.202 115.349 100.202C116.077 100.202 116.735 100.365 117.323 100.692C117.911 101.009 118.373 101.467 118.709 102.064C119.054 102.661 119.227 103.357 119.227 104.15C119.227 104.943 119.05 105.643 118.695 106.25C118.35 106.847 117.878 107.309 117.281 107.636C116.684 107.963 116.021 108.126 115.293 108.126ZM115.293 107.006C115.75 107.006 116.18 106.899 116.581 106.684C116.982 106.469 117.304 106.147 117.547 105.718C117.799 105.289 117.925 104.766 117.925 104.15C117.925 103.534 117.804 103.011 117.561 102.582C117.318 102.153 117.001 101.835 116.609 101.63C116.217 101.415 115.792 101.308 115.335 101.308C114.868 101.308 114.439 101.415 114.047 101.63C113.664 101.835 113.356 102.153 113.123 102.582C112.89 103.011 112.773 103.534 112.773 104.15C112.773 104.775 112.885 105.303 113.109 105.732C113.342 106.161 113.65 106.483 114.033 106.698C114.416 106.903 114.836 107.006 115.293 107.006ZM122.176 101.574C122.4 101.135 122.718 100.795 123.128 100.552C123.548 100.309 124.057 100.188 124.654 100.188V101.504H124.318C122.89 101.504 122.176 102.279 122.176 103.828V108H120.902V100.328H122.176V101.574ZM130.409 108L127.399 104.612V108H126.125V97.64H127.399V103.73L130.353 100.328H132.131L128.519 104.15L132.145 108H130.409ZM136.586 103.114C136.586 102.162 136.801 101.308 137.23 100.552C137.66 99.7867 138.243 99.1893 138.98 98.76C139.727 98.3307 140.553 98.116 141.458 98.116C142.522 98.116 143.451 98.3727 144.244 98.886C145.038 99.3993 145.616 100.127 145.98 101.07H144.454C144.184 100.482 143.792 100.029 143.278 99.712C142.774 99.3947 142.168 99.236 141.458 99.236C140.777 99.236 140.166 99.3947 139.624 99.712C139.083 100.029 138.658 100.482 138.35 101.07C138.042 101.649 137.888 102.33 137.888 103.114C137.888 103.889 138.042 104.57 138.35 105.158C138.658 105.737 139.083 106.185 139.624 106.502C140.166 106.819 140.777 106.978 141.458 106.978C142.168 106.978 142.774 106.824 143.278 106.516C143.792 106.199 144.184 105.746 144.454 105.158H145.98C145.616 106.091 145.038 106.815 144.244 107.328C143.451 107.832 142.522 108.084 141.458 108.084C140.553 108.084 139.727 107.874 138.98 107.454C138.243 107.025 137.66 106.432 137.23 105.676C136.801 104.92 136.586 104.066 136.586 103.114ZM151.223 108.126C150.504 108.126 149.851 107.963 149.263 107.636C148.684 107.309 148.227 106.847 147.891 106.25C147.564 105.643 147.401 104.943 147.401 104.15C147.401 103.366 147.569 102.675 147.905 102.078C148.25 101.471 148.717 101.009 149.305 100.692C149.893 100.365 150.551 100.202 151.279 100.202C152.007 100.202 152.665 100.365 153.253 100.692C153.841 101.009 154.303 101.467 154.639 102.064C154.984 102.661 155.157 103.357 155.157 104.15C155.157 104.943 154.979 105.643 154.625 106.25C154.279 106.847 153.808 107.309 153.211 107.636C152.613 107.963 151.951 108.126 151.223 108.126ZM151.223 107.006C151.68 107.006 152.109 106.899 152.511 106.684C152.912 106.469 153.234 106.147 153.477 105.718C153.729 105.289 153.855 104.766 153.855 104.15C153.855 103.534 153.733 103.011 153.491 102.582C153.248 102.153 152.931 101.835 152.539 101.63C152.147 101.415 151.722 101.308 151.265 101.308C150.798 101.308 150.369 101.415 149.977 101.63C149.594 101.835 149.286 102.153 149.053 102.582C148.819 103.011 148.703 103.534 148.703 104.15C148.703 104.775 148.815 105.303 149.039 105.732C149.272 106.161 149.58 106.483 149.963 106.698C150.345 106.903 150.765 107.006 151.223 107.006ZM166.058 100.188C166.655 100.188 167.187 100.314 167.654 100.566C168.121 100.809 168.489 101.177 168.76 101.672C169.031 102.167 169.166 102.769 169.166 103.478V108H167.906V103.66C167.906 102.895 167.715 102.311 167.332 101.91C166.959 101.499 166.45 101.294 165.806 101.294C165.143 101.294 164.616 101.509 164.224 101.938C163.832 102.358 163.636 102.969 163.636 103.772V108H162.376V103.66C162.376 102.895 162.185 102.311 161.802 101.91C161.429 101.499 160.92 101.294 160.276 101.294C159.613 101.294 159.086 101.509 158.694 101.938C158.302 102.358 158.106 102.969 158.106 103.772V108H156.832V100.328H158.106V101.434C158.358 101.033 158.694 100.725 159.114 100.51C159.543 100.295 160.015 100.188 160.528 100.188C161.172 100.188 161.741 100.333 162.236 100.622C162.731 100.911 163.099 101.336 163.342 101.896C163.557 101.355 163.911 100.935 164.406 100.636C164.901 100.337 165.451 100.188 166.058 100.188ZM180.482 100.188C181.079 100.188 181.611 100.314 182.078 100.566C182.544 100.809 182.913 101.177 183.184 101.672C183.454 102.167 183.59 102.769 183.59 103.478V108H182.33V103.66C182.33 102.895 182.138 102.311 181.756 101.91C181.382 101.499 180.874 101.294 180.23 101.294C179.567 101.294 179.04 101.509 178.648 101.938C178.256 102.358 178.06 102.969 178.06 103.772V108H176.8V103.66C176.8 102.895 176.608 102.311 176.226 101.91C175.852 101.499 175.344 101.294 174.7 101.294C174.037 101.294 173.51 101.509 173.118 101.938C172.726 102.358 172.53 102.969 172.53 103.772V108H171.256V100.328H172.53V101.434C172.782 101.033 173.118 100.725 173.538 100.51C173.967 100.295 174.438 100.188 174.952 100.188C175.596 100.188 176.165 100.333 176.66 100.622C177.154 100.911 177.523 101.336 177.766 101.896C177.98 101.355 178.335 100.935 178.83 100.636C179.324 100.337 179.875 100.188 180.482 100.188ZM192.484 100.328V108H191.21V106.866C190.967 107.258 190.626 107.566 190.188 107.79C189.758 108.005 189.282 108.112 188.76 108.112C188.162 108.112 187.626 107.991 187.15 107.748C186.674 107.496 186.296 107.123 186.016 106.628C185.745 106.133 185.61 105.531 185.61 104.822V100.328H186.87V104.654C186.87 105.41 187.061 105.993 187.444 106.404C187.826 106.805 188.349 107.006 189.012 107.006C189.693 107.006 190.23 106.796 190.622 106.376C191.014 105.956 191.21 105.345 191.21 104.542V100.328H192.484ZM198.373 100.188C199.306 100.188 200.062 100.473 200.641 101.042C201.219 101.602 201.509 102.414 201.509 103.478V108H200.249V103.66C200.249 102.895 200.057 102.311 199.675 101.91C199.292 101.499 198.769 101.294 198.107 101.294C197.435 101.294 196.898 101.504 196.497 101.924C196.105 102.344 195.909 102.955 195.909 103.758V108H194.635V100.328H195.909V101.42C196.161 101.028 196.501 100.725 196.931 100.51C197.369 100.295 197.85 100.188 198.373 100.188ZM204.248 99.082C204.005 99.082 203.8 98.998 203.632 98.83C203.464 98.662 203.38 98.4567 203.38 98.214C203.38 97.9713 203.464 97.766 203.632 97.598C203.8 97.43 204.005 97.346 204.248 97.346C204.481 97.346 204.677 97.43 204.836 97.598C205.004 97.766 205.088 97.9713 205.088 98.214C205.088 98.4567 205.004 98.662 204.836 98.83C204.677 98.998 204.481 99.082 204.248 99.082ZM204.864 100.328V108H203.59V100.328H204.864ZM208.589 101.378V105.9C208.589 106.273 208.668 106.539 208.827 106.698C208.986 106.847 209.261 106.922 209.653 106.922H210.591V108H209.443C208.734 108 208.202 107.837 207.847 107.51C207.492 107.183 207.315 106.647 207.315 105.9V101.378H206.321V100.328H207.315V98.396H208.589V100.328H210.591V101.378H208.589ZM218.743 100.328L214.123 111.612H212.807L214.319 107.916L211.225 100.328H212.639L215.047 106.544L217.427 100.328H218.743Z" fill="#263238"/>
</svg>
