<svg width="162" height="47" viewBox="0 0 162 47" fill="none" xmlns="http://www.w3.org/2000/svg">
<path d="M5.53 15.1088C8.204 15.1088 9.814 13.5547 9.814 10.6987V5.16875H8.022V10.6287C8.022 12.6447 7.126 13.5127 5.544 13.5127C3.962 13.5127 3.052 12.6447 3.052 10.6287V5.16875H1.232V10.6987C1.232 13.5547 2.842 15.1088 5.53 15.1088ZM15.4009 15.1088C18.0889 15.1088 19.3629 13.7647 19.3629 12.1967C19.3629 8.59875 13.5529 9.95675 13.5529 7.87075C13.5529 7.12875 14.1689 6.54075 15.6809 6.54075C16.5349 6.54075 17.5009 6.79275 18.3829 7.31075L18.9569 5.89675C18.1029 5.33675 16.8709 5.02875 15.6949 5.02875C13.0069 5.02875 11.7469 6.37275 11.7469 7.95475C11.7469 11.5947 17.5709 10.2087 17.5709 12.3227C17.5709 13.0507 16.9269 13.5967 15.4009 13.5967C14.1969 13.5967 12.9509 13.1487 12.1669 12.5187L11.5369 13.9327C12.3489 14.6327 13.8749 15.1088 15.4009 15.1088ZM32.0367 12.1967C32.0367 10.2507 30.3427 9.76075 28.7887 9.38275V6.55475C29.5307 6.63875 30.3147 6.87675 31.0567 7.31075L31.6307 5.89675C30.8747 5.40675 29.8247 5.09875 28.7887 5.04275V3.48875H27.6407V5.07075C25.4567 5.28075 24.4207 6.52675 24.4207 7.95475C24.4207 9.90075 26.0867 10.4047 27.6407 10.7827V13.5827C26.5767 13.4847 25.5267 13.0787 24.8407 12.5187L24.2107 13.9327C24.9387 14.5627 26.2687 15.0108 27.6407 15.0948V16.6488H28.7887V15.0808C30.9867 14.8567 32.0367 13.6247 32.0367 12.1967ZM26.2267 7.87075C26.2267 7.25475 26.6467 6.75075 27.6407 6.59675V9.08875C26.8287 8.85075 26.2267 8.54275 26.2267 7.87075ZM28.7887 13.5547V11.0767C29.6287 11.3147 30.2447 11.6367 30.2447 12.3227C30.2447 12.9247 29.8107 13.4007 28.7887 13.5547Z" fill="#529DFF"/>
<path d="M52.68 7.824C45.576 7.824 39.96 12.144 39.96 19.008C39.96 25.344 45.048 29.472 51.528 29.472C55.032 29.472 57.912 28.416 59.88 26.448C59.64 32.928 55.992 36.24 50.424 36.24C48.12 36.24 45.96 35.808 44.136 34.56L41.256 40.272C43.608 41.76 47.016 42.576 50.568 42.576C60.744 42.576 67.704 36.096 67.704 24.48C67.704 13.632 61.992 7.824 52.68 7.824ZM53.256 23.664C49.8 23.664 47.544 21.696 47.544 18.624C47.544 15.552 49.848 13.632 53.16 13.632C56.856 13.632 59.016 15.744 59.016 18.624C59.016 21.552 56.664 23.664 53.256 23.664ZM81.8025 7.824C74.6985 7.824 69.0825 12.144 69.0825 19.008C69.0825 25.344 74.1705 29.472 80.6505 29.472C84.1545 29.472 87.0345 28.416 89.0025 26.448C88.7625 32.928 85.1145 36.24 79.5465 36.24C77.2425 36.24 75.0825 35.808 73.2585 34.56L70.3785 40.272C72.7305 41.76 76.1385 42.576 79.6905 42.576C89.8665 42.576 96.8265 36.096 96.8265 24.48C96.8265 13.632 91.1145 7.824 81.8025 7.824ZM82.3785 23.664C78.9225 23.664 76.6665 21.696 76.6665 18.624C76.6665 15.552 78.9705 13.632 82.2825 13.632C85.9785 13.632 88.1385 15.744 88.1385 18.624C88.1385 21.552 85.7865 23.664 82.3785 23.664Z" fill="#529DFF"/>
<path d="M102.682 42.2725H103.509L107.708 30.2854H106.881L102.682 42.2725ZM119.653 34.64C118.513 34.64 117.613 35.156 117.157 35.972C116.773 35.084 115.957 34.64 114.913 34.64C113.857 34.64 113.041 35.084 112.597 35.84V34.688H111.781V41H112.633V37.688C112.633 36.248 113.461 35.408 114.745 35.408C115.897 35.408 116.569 36.092 116.569 37.424V41H117.421V37.688C117.421 36.248 118.237 35.408 119.533 35.408C120.673 35.408 121.345 36.092 121.345 37.424V41H122.197V37.34C122.197 35.528 121.189 34.64 119.653 34.64ZM127.111 41.06C128.959 41.06 130.315 39.716 130.315 37.844C130.315 35.972 128.959 34.64 127.111 34.64C125.263 34.64 123.895 35.972 123.895 37.844C123.895 39.716 125.263 41.06 127.111 41.06ZM127.111 40.304C125.767 40.304 124.759 39.32 124.759 37.844C124.759 36.368 125.767 35.384 127.111 35.384C128.455 35.384 129.451 36.368 129.451 37.844C129.451 39.32 128.455 40.304 127.111 40.304ZM135.27 34.64C134.178 34.64 133.326 35.084 132.87 35.852V34.688H132.054V41H132.906V37.688C132.906 36.248 133.758 35.408 135.114 35.408C136.314 35.408 137.01 36.092 137.01 37.424V41H137.862V37.34C137.862 35.528 136.806 34.64 135.27 34.64ZM143.199 40.004C142.959 40.22 142.611 40.328 142.263 40.328C141.555 40.328 141.171 39.92 141.171 39.176V35.408H143.091V34.688H141.171V33.308H140.319V34.688H139.191V35.408H140.319V39.224C140.319 40.388 140.979 41.06 142.167 41.06C142.659 41.06 143.163 40.916 143.499 40.616L143.199 40.004ZM148.266 34.64C147.198 34.64 146.37 35.06 145.902 35.792V32.096H145.05V41H145.902V37.688C145.902 36.248 146.754 35.408 148.11 35.408C149.31 35.408 150.006 36.092 150.006 37.424V41H150.858V37.34C150.858 35.528 149.802 34.64 148.266 34.64ZM153.171 41H154.023V32.096H153.171V41ZM160.858 34.688L158.482 40.052L156.106 34.688H155.218L158.038 40.988L157.762 41.6C157.402 42.392 157.018 42.656 156.454 42.656C155.998 42.656 155.614 42.488 155.302 42.176L154.906 42.812C155.29 43.196 155.854 43.388 156.442 43.388C157.342 43.388 158.014 42.992 158.542 41.756L161.698 34.688H160.858Z" fill="#529DFF"/>
</svg>
