<svg width="160" height="44" viewBox="0 0 160 44" fill="none" xmlns="http://www.w3.org/2000/svg">
<path d="M5.53 15.1088C8.204 15.1088 9.814 13.5547 9.814 10.6987V5.16875H8.022V10.6287C8.022 12.6447 7.126 13.5127 5.544 13.5127C3.962 13.5127 3.052 12.6447 3.052 10.6287V5.16875H1.232V10.6987C1.232 13.5547 2.842 15.1088 5.53 15.1088ZM15.4009 15.1088C18.0889 15.1088 19.3629 13.7647 19.3629 12.1967C19.3629 8.59875 13.5529 9.95675 13.5529 7.87075C13.5529 7.12875 14.1689 6.54075 15.6809 6.54075C16.5349 6.54075 17.5009 6.79275 18.3829 7.31075L18.9569 5.89675C18.1029 5.33675 16.8709 5.02875 15.6949 5.02875C13.0069 5.02875 11.7469 6.37275 11.7469 7.95475C11.7469 11.5947 17.5709 10.2087 17.5709 12.3227C17.5709 13.0507 16.9269 13.5967 15.4009 13.5967C14.1969 13.5967 12.9509 13.1487 12.1669 12.5187L11.5369 13.9327C12.3489 14.6327 13.8749 15.1088 15.4009 15.1088ZM32.0367 12.1967C32.0367 10.2507 30.3427 9.76075 28.7887 9.38275V6.55475C29.5307 6.63875 30.3147 6.87675 31.0567 7.31075L31.6307 5.89675C30.8747 5.40675 29.8247 5.09875 28.7887 5.04275V3.48875H27.6407V5.07075C25.4567 5.28075 24.4207 6.52675 24.4207 7.95475C24.4207 9.90075 26.0867 10.4047 27.6407 10.7827V13.5827C26.5767 13.4847 25.5267 13.0787 24.8407 12.5187L24.2107 13.9327C24.9387 14.5627 26.2687 15.0108 27.6407 15.0948V16.6488H28.7887V15.0808C30.9867 14.8567 32.0367 13.6247 32.0367 12.1967ZM26.2267 7.87075C26.2267 7.25475 26.6467 6.75075 27.6407 6.59675V9.08875C26.8287 8.85075 26.2267 8.54275 26.2267 7.87075ZM28.7887 13.5547V11.0767C29.6287 11.3147 30.2447 11.6367 30.2447 12.3227C30.2447 12.9247 29.8107 13.4007 28.7887 13.5547Z" fill="#529DFF"/>
<path d="M57.048 20.928C53.544 20.928 50.712 21.936 48.744 23.904C48.984 17.472 52.584 14.16 58.2 14.16C60.456 14.16 62.616 14.592 64.488 15.84L67.368 10.128C65.016 8.64 61.56 7.824 58.008 7.824C47.88 7.824 40.872 14.304 40.872 25.92C40.872 36.768 46.632 42.576 55.896 42.576C63 42.576 68.616 38.256 68.616 31.392C68.616 25.056 63.528 20.928 57.048 20.928ZM55.464 36.768C51.72 36.768 49.56 34.656 49.56 31.776C49.56 28.848 51.96 26.736 55.368 26.736C58.824 26.736 61.08 28.704 61.08 31.776C61.08 34.848 58.776 36.768 55.464 36.768ZM81.8025 7.824C74.6985 7.824 69.0825 12.144 69.0825 19.008C69.0825 25.344 74.1705 29.472 80.6505 29.472C84.1545 29.472 87.0345 28.416 89.0025 26.448C88.7625 32.928 85.1145 36.24 79.5465 36.24C77.2425 36.24 75.0825 35.808 73.2585 34.56L70.3785 40.272C72.7305 41.76 76.1385 42.576 79.6905 42.576C89.8665 42.576 96.8265 36.096 96.8265 24.48C96.8265 13.632 91.1145 7.824 81.8025 7.824ZM82.3785 23.664C78.9225 23.664 76.6665 21.696 76.6665 18.624C76.6665 15.552 78.9705 13.632 82.2825 13.632C85.9785 13.632 88.1385 15.744 88.1385 18.624C88.1385 21.552 85.7865 23.664 82.3785 23.664Z" fill="#529DFF"/>
<path d="M100.682 42.2725H101.509L105.708 30.2854H104.881L100.682 42.2725ZM117.653 34.64C116.513 34.64 115.613 35.156 115.157 35.972C114.773 35.084 113.957 34.64 112.913 34.64C111.857 34.64 111.041 35.084 110.597 35.84V34.688H109.781V41H110.633V37.688C110.633 36.248 111.461 35.408 112.745 35.408C113.897 35.408 114.569 36.092 114.569 37.424V41H115.421V37.688C115.421 36.248 116.237 35.408 117.533 35.408C118.673 35.408 119.345 36.092 119.345 37.424V41H120.197V37.34C120.197 35.528 119.189 34.64 117.653 34.64ZM125.111 41.06C126.959 41.06 128.315 39.716 128.315 37.844C128.315 35.972 126.959 34.64 125.111 34.64C123.263 34.64 121.895 35.972 121.895 37.844C121.895 39.716 123.263 41.06 125.111 41.06ZM125.111 40.304C123.767 40.304 122.759 39.32 122.759 37.844C122.759 36.368 123.767 35.384 125.111 35.384C126.455 35.384 127.451 36.368 127.451 37.844C127.451 39.32 126.455 40.304 125.111 40.304ZM133.27 34.64C132.178 34.64 131.326 35.084 130.87 35.852V34.688H130.054V41H130.906V37.688C130.906 36.248 131.758 35.408 133.114 35.408C134.314 35.408 135.01 36.092 135.01 37.424V41H135.862V37.34C135.862 35.528 134.806 34.64 133.27 34.64ZM141.199 40.004C140.959 40.22 140.611 40.328 140.263 40.328C139.555 40.328 139.171 39.92 139.171 39.176V35.408H141.091V34.688H139.171V33.308H138.319V34.688H137.191V35.408H138.319V39.224C138.319 40.388 138.979 41.06 140.167 41.06C140.659 41.06 141.163 40.916 141.499 40.616L141.199 40.004ZM146.266 34.64C145.198 34.64 144.37 35.06 143.902 35.792V32.096H143.05V41H143.902V37.688C143.902 36.248 144.754 35.408 146.11 35.408C147.31 35.408 148.006 36.092 148.006 37.424V41H148.858V37.34C148.858 35.528 147.802 34.64 146.266 34.64ZM151.171 41H152.023V32.096H151.171V41ZM158.858 34.688L156.482 40.052L154.106 34.688H153.218L156.038 40.988L155.762 41.6C155.402 42.392 155.018 42.656 154.454 42.656C153.998 42.656 153.614 42.488 153.302 42.176L152.906 42.812C153.29 43.196 153.854 43.388 154.442 43.388C155.342 43.388 156.014 42.992 156.542 41.756L159.698 34.688H158.858Z" fill="#529DFF"/>
</svg>
