<svg width="28" height="28" viewBox="0 0 28 28" fill="none" xmlns="http://www.w3.org/2000/svg">
<mask id="path-1-outside-1" maskUnits="userSpaceOnUse" x="0" y="0" width="28" height="28" fill="black">
<rect fill="white" width="28" height="28"/>
<path d="M1.00052 19.4345C1.07653 18.9859 1.12476 18.5304 1.23275 18.0897C1.90739 15.336 3.48 13.2857 6.03653 12.0168C6.06641 12.0022 6.09367 11.9822 6.14871 11.9482C6.08476 11.8743 6.02762 11.8072 5.96996 11.7412C3.24411 8.59232 4.15203 3.61749 7.80467 1.68406C10.6668 0.169393 14.2188 1.24958 15.8774 4.13898C16.5605 5.32833 16.8579 6.70024 16.7285 8.06563C16.5991 9.43103 16.0494 10.7227 15.155 11.7626C15.1063 11.8192 15.0607 11.8785 15.0308 11.9152C15.5256 12.2233 16.01 12.5294 16.5012 12.8245C16.5362 12.8387 16.5738 12.8455 16.6117 12.8444C16.6495 12.8434 16.6867 12.8344 16.7208 12.8182C17.1507 12.6185 17.5622 12.7134 17.84 13.1038C18.0544 13.4036 18.2594 13.7113 18.5083 14.0771C18.5495 13.9868 18.5846 13.8938 18.6132 13.7988C18.6698 13.509 18.718 13.2165 18.7705 12.9262C18.87 12.3968 19.2774 12.1117 19.8042 12.2066C20.5859 12.3463 21.3673 12.4897 22.1484 12.6368C22.7004 12.7417 22.9772 13.129 22.8923 13.6793C22.8498 13.955 22.7927 14.228 22.7507 14.5037C22.7434 14.6114 22.7434 14.7194 22.7507 14.8271C22.8477 14.7747 22.908 14.7516 22.9604 14.7165C23.2178 14.5388 23.4704 14.3538 23.731 14.1803C24.1236 13.9183 24.6116 13.9869 24.88 14.3695C25.3794 15.0827 25.8669 15.8046 26.3426 16.5352C26.5847 16.9073 26.471 17.379 26.0967 17.6604C25.8467 17.8486 25.5835 18.0194 25.3319 18.205C25.2795 18.2448 25.2459 18.3145 25.204 18.3706C25.2643 18.4052 25.3204 18.4565 25.3854 18.4702C25.6747 18.5315 25.9672 18.575 26.2566 18.6368C26.3756 18.659 26.489 18.7047 26.5902 18.7711C26.6914 18.8376 26.7783 18.9235 26.8459 19.0239C26.9135 19.1243 26.9605 19.2372 26.9841 19.3559C27.0076 19.4746 27.0073 19.5968 26.9831 19.7154C26.8416 20.5058 26.6976 21.2956 26.5512 22.0849C26.4427 22.6614 26.0469 22.9282 25.4629 22.8255C25.1799 22.7757 24.8984 22.717 24.6143 22.6724C24.5618 22.6635 24.4984 22.7002 24.4402 22.716C24.4477 22.7704 24.4634 22.8235 24.4869 22.8732C24.6635 23.142 24.8486 23.4046 25.0252 23.673C25.3062 24.0991 25.2276 24.5823 24.8155 24.8784C24.1425 25.3627 23.4645 25.8396 22.7816 26.3092C22.3833 26.5849 21.902 26.5021 21.6132 26.1132C21.4318 25.8695 21.2683 25.6122 21.0948 25.3616C21.0486 25.2956 20.9962 25.2343 20.9087 25.1216C20.8706 25.2104 20.8384 25.3016 20.8122 25.3947C20.764 25.6347 20.7105 25.8753 20.6827 26.1179C20.6303 26.5571 20.4133 26.8517 19.9945 27H19.5882C19.5525 26.9802 19.5147 26.9643 19.4755 26.9528C18.7364 26.8131 17.9971 26.6761 17.2576 26.5419C16.7093 26.4413 16.4189 26.0225 16.5195 25.4717C16.5746 25.1724 16.6328 24.8737 16.6805 24.5734C16.6894 24.5173 16.6532 24.4539 16.638 24.3941C16.5834 24.4041 16.5304 24.4218 16.4807 24.4466C16.2082 24.6321 15.944 24.8297 15.6682 25.0105C15.3013 25.2532 14.8457 25.1986 14.5747 24.8533C14.4474 24.6908 14.3184 24.651 14.1276 24.651C9.94935 24.6558 5.77059 24.6583 1.5913 24.6583C1.3292 24.6583 1.12843 24.5949 1 24.359L1.00052 19.4345ZM13.8325 23.7988C13.5751 23.4183 13.3471 23.0839 13.1222 22.7474C12.8166 22.2899 12.8926 21.8323 13.3319 21.5026C13.5615 21.3297 13.8 21.1683 14.028 20.9943C14.0845 20.9393 14.1341 20.8777 14.1758 20.8108C14.1087 20.7731 14.0453 20.717 13.973 20.7013C13.7109 20.6436 13.4425 20.5965 13.1762 20.5509C12.6289 20.4523 12.3416 20.0545 12.4381 19.5063C12.5779 18.6992 12.7245 17.8929 12.8779 17.0876C12.9827 16.5278 13.3911 16.2532 13.9499 16.3575C14.2319 16.4099 14.5139 16.467 14.797 16.5147C14.8541 16.5241 14.917 16.4964 14.9773 16.4854C14.9637 16.4256 14.9653 16.3564 14.9338 16.3082C14.7766 16.0671 14.613 15.8313 14.4521 15.5933C14.0961 15.0692 14.18 14.6122 14.7016 14.2427C15.0848 13.9712 15.4696 13.7013 15.9104 13.391C15.4103 13.129 14.9548 12.8921 14.5034 12.6473C14.3692 12.5745 14.277 12.6127 14.1643 12.6961C12.0103 14.2925 9.17074 14.3035 7.01574 12.7202C6.87159 12.6154 6.76465 12.6044 6.60949 12.6788C3.69807 14.074 2.12389 16.4057 1.87647 19.597C1.77163 20.9429 1.84711 22.3024 1.84187 23.6557C1.84529 23.7046 1.85283 23.7532 1.86441 23.8009H5.39281C5.39281 23.0886 5.39019 22.3858 5.39281 21.6887C5.39281 21.3742 5.55007 21.1845 5.80222 21.1782C6.05436 21.1719 6.23049 21.3753 6.23101 21.695C6.23101 22.3941 6.23101 23.0928 6.23101 23.7998L13.8325 23.7988ZM10.5824 1.84758C9.66488 1.84443 8.76338 2.08809 7.97241 2.55303C5.69318 3.8916 4.682 6.68457 5.52701 9.29986C6.62783 12.6987 10.6118 14.1075 13.5022 12.1201C15.5387 10.7207 16.4178 8.07607 15.6441 5.67356C14.905 3.37955 12.8826 1.8502 10.5798 1.84496L10.5824 1.84758ZM25.703 22.0168C25.8529 21.2055 25.9955 20.4256 26.1418 19.6468C26.1706 19.4958 26.0956 19.4576 25.9672 19.4371C25.6527 19.3847 25.3345 19.3266 25.0189 19.2658C24.4979 19.1646 24.4837 19.1478 24.3936 18.6284C24.3771 18.5369 24.3581 18.4459 24.3364 18.3554C24.2536 18.0116 24.2887 17.9141 24.5749 17.7118C24.9178 17.4696 25.2611 17.228 25.6155 16.978L24.2153 14.8732C23.8342 15.1384 23.4731 15.3853 23.1145 15.6384C22.9075 15.7846 22.7135 15.7857 22.5101 15.63C22.3879 15.5394 22.2601 15.4566 22.1274 15.3821C21.8449 15.2191 21.7925 15.1064 21.8517 14.781C21.9282 14.3617 22.0006 13.9393 22.0771 13.5037L19.628 13.0273C19.563 13.3502 19.4708 13.6447 19.4514 13.9434C19.4168 14.5095 19.1856 14.8098 18.5817 14.8627C18.1173 14.9036 18.0738 14.9408 17.807 14.5483C17.5858 14.2223 17.3645 13.8968 17.1381 13.5624L15.0853 14.9938C15.2662 15.2673 15.4108 15.5388 15.6048 15.7694C15.9544 16.1851 16.0242 16.5556 15.6514 17.021C15.3327 17.4188 15.3369 17.4696 14.8258 17.3706C14.4647 17.3009 14.1019 17.2401 13.725 17.1725C13.5677 18.0278 13.4194 18.8454 13.27 19.6641C13.336 19.685 13.367 19.6976 13.3995 19.7044C13.7219 19.772 14.0448 19.837 14.3677 19.9046C14.8845 20.0131 14.9024 20.0325 14.992 20.5488C15.0077 20.6405 15.0256 20.7317 15.0481 20.8218C15.1314 21.1552 15.0942 21.2579 14.8064 21.4665C14.4725 21.7086 14.1381 21.9497 13.7952 22.1971C14.267 22.9072 14.7315 23.6006 15.1907 24.2883C15.2153 24.2824 15.2392 24.274 15.262 24.2631C15.5817 24.0425 15.9004 23.8192 16.2218 23.5996C16.3013 23.5372 16.3896 23.4869 16.4839 23.4502C16.7486 23.369 17.5564 23.8816 17.5847 24.1541C17.5983 24.293 17.5611 24.4387 17.537 24.5792C17.4751 24.9418 17.4081 25.304 17.3415 25.6766L19.8052 26.1557C19.8734 25.7972 19.9389 25.4675 19.9987 25.1373C20.1177 24.478 20.1166 24.4775 20.7776 24.3559C20.819 24.3485 20.8594 24.3354 20.9003 24.325C21.2698 24.227 21.3652 24.2615 21.5817 24.576C21.8187 24.9219 22.0535 25.2689 22.2957 25.6216L24.3469 24.1845C24.1309 23.8585 23.9454 23.5346 23.7179 23.2443C23.4621 22.9183 23.407 22.6195 23.7063 22.2982C23.7538 22.2387 23.7941 22.1738 23.8264 22.1048C24.0167 21.7652 24.1257 21.7144 24.5026 21.7862C24.8879 21.8596 25.2774 21.934 25.703 22.0168Z"/>
</mask>
<path d="M1.00052 19.4345C1.07653 18.9859 1.12476 18.5304 1.23275 18.0897C1.90739 15.336 3.48 13.2857 6.03653 12.0168C6.06641 12.0022 6.09367 11.9822 6.14871 11.9482C6.08476 11.8743 6.02762 11.8072 5.96996 11.7412C3.24411 8.59232 4.15203 3.61749 7.80467 1.68406C10.6668 0.169393 14.2188 1.24958 15.8774 4.13898C16.5605 5.32833 16.8579 6.70024 16.7285 8.06563C16.5991 9.43103 16.0494 10.7227 15.155 11.7626C15.1063 11.8192 15.0607 11.8785 15.0308 11.9152C15.5256 12.2233 16.01 12.5294 16.5012 12.8245C16.5362 12.8387 16.5738 12.8455 16.6117 12.8444C16.6495 12.8434 16.6867 12.8344 16.7208 12.8182C17.1507 12.6185 17.5622 12.7134 17.84 13.1038C18.0544 13.4036 18.2594 13.7113 18.5083 14.0771C18.5495 13.9868 18.5846 13.8938 18.6132 13.7988C18.6698 13.509 18.718 13.2165 18.7705 12.9262C18.87 12.3968 19.2774 12.1117 19.8042 12.2066C20.5859 12.3463 21.3673 12.4897 22.1484 12.6368C22.7004 12.7417 22.9772 13.129 22.8923 13.6793C22.8498 13.955 22.7927 14.228 22.7507 14.5037C22.7434 14.6114 22.7434 14.7194 22.7507 14.8271C22.8477 14.7747 22.908 14.7516 22.9604 14.7165C23.2178 14.5388 23.4704 14.3538 23.731 14.1803C24.1236 13.9183 24.6116 13.9869 24.88 14.3695C25.3794 15.0827 25.8669 15.8046 26.3426 16.5352C26.5847 16.9073 26.471 17.379 26.0967 17.6604C25.8467 17.8486 25.5835 18.0194 25.3319 18.205C25.2795 18.2448 25.2459 18.3145 25.204 18.3706C25.2643 18.4052 25.3204 18.4565 25.3854 18.4702C25.6747 18.5315 25.9672 18.575 26.2566 18.6368C26.3756 18.659 26.489 18.7047 26.5902 18.7711C26.6914 18.8376 26.7783 18.9235 26.8459 19.0239C26.9135 19.1243 26.9605 19.2372 26.9841 19.3559C27.0076 19.4746 27.0073 19.5968 26.9831 19.7154C26.8416 20.5058 26.6976 21.2956 26.5512 22.0849C26.4427 22.6614 26.0469 22.9282 25.4629 22.8255C25.1799 22.7757 24.8984 22.717 24.6143 22.6724C24.5618 22.6635 24.4984 22.7002 24.4402 22.716C24.4477 22.7704 24.4634 22.8235 24.4869 22.8732C24.6635 23.142 24.8486 23.4046 25.0252 23.673C25.3062 24.0991 25.2276 24.5823 24.8155 24.8784C24.1425 25.3627 23.4645 25.8396 22.7816 26.3092C22.3833 26.5849 21.902 26.5021 21.6132 26.1132C21.4318 25.8695 21.2683 25.6122 21.0948 25.3616C21.0486 25.2956 20.9962 25.2343 20.9087 25.1216C20.8706 25.2104 20.8384 25.3016 20.8122 25.3947C20.764 25.6347 20.7105 25.8753 20.6827 26.1179C20.6303 26.5571 20.4133 26.8517 19.9945 27H19.5882C19.5525 26.9802 19.5147 26.9643 19.4755 26.9528C18.7364 26.8131 17.9971 26.6761 17.2576 26.5419C16.7093 26.4413 16.4189 26.0225 16.5195 25.4717C16.5746 25.1724 16.6328 24.8737 16.6805 24.5734C16.6894 24.5173 16.6532 24.4539 16.638 24.3941C16.5834 24.4041 16.5304 24.4218 16.4807 24.4466C16.2082 24.6321 15.944 24.8297 15.6682 25.0105C15.3013 25.2532 14.8457 25.1986 14.5747 24.8533C14.4474 24.6908 14.3184 24.651 14.1276 24.651C9.94935 24.6558 5.77059 24.6583 1.5913 24.6583C1.3292 24.6583 1.12843 24.5949 1 24.359L1.00052 19.4345ZM13.8325 23.7988C13.5751 23.4183 13.3471 23.0839 13.1222 22.7474C12.8166 22.2899 12.8926 21.8323 13.3319 21.5026C13.5615 21.3297 13.8 21.1683 14.028 20.9943C14.0845 20.9393 14.1341 20.8777 14.1758 20.8108C14.1087 20.7731 14.0453 20.717 13.973 20.7013C13.7109 20.6436 13.4425 20.5965 13.1762 20.5509C12.6289 20.4523 12.3416 20.0545 12.4381 19.5063C12.5779 18.6992 12.7245 17.8929 12.8779 17.0876C12.9827 16.5278 13.3911 16.2532 13.9499 16.3575C14.2319 16.4099 14.5139 16.467 14.797 16.5147C14.8541 16.5241 14.917 16.4964 14.9773 16.4854C14.9637 16.4256 14.9653 16.3564 14.9338 16.3082C14.7766 16.0671 14.613 15.8313 14.4521 15.5933C14.0961 15.0692 14.18 14.6122 14.7016 14.2427C15.0848 13.9712 15.4696 13.7013 15.9104 13.391C15.4103 13.129 14.9548 12.8921 14.5034 12.6473C14.3692 12.5745 14.277 12.6127 14.1643 12.6961C12.0103 14.2925 9.17074 14.3035 7.01574 12.7202C6.87159 12.6154 6.76465 12.6044 6.60949 12.6788C3.69807 14.074 2.12389 16.4057 1.87647 19.597C1.77163 20.9429 1.84711 22.3024 1.84187 23.6557C1.84529 23.7046 1.85283 23.7532 1.86441 23.8009H5.39281C5.39281 23.0886 5.39019 22.3858 5.39281 21.6887C5.39281 21.3742 5.55007 21.1845 5.80222 21.1782C6.05436 21.1719 6.23049 21.3753 6.23101 21.695C6.23101 22.3941 6.23101 23.0928 6.23101 23.7998L13.8325 23.7988ZM10.5824 1.84758C9.66488 1.84443 8.76338 2.08809 7.97241 2.55303C5.69318 3.8916 4.682 6.68457 5.52701 9.29986C6.62783 12.6987 10.6118 14.1075 13.5022 12.1201C15.5387 10.7207 16.4178 8.07607 15.6441 5.67356C14.905 3.37955 12.8826 1.8502 10.5798 1.84496L10.5824 1.84758ZM25.703 22.0168C25.8529 21.2055 25.9955 20.4256 26.1418 19.6468C26.1706 19.4958 26.0956 19.4576 25.9672 19.4371C25.6527 19.3847 25.3345 19.3266 25.0189 19.2658C24.4979 19.1646 24.4837 19.1478 24.3936 18.6284C24.3771 18.5369 24.3581 18.4459 24.3364 18.3554C24.2536 18.0116 24.2887 17.9141 24.5749 17.7118C24.9178 17.4696 25.2611 17.228 25.6155 16.978L24.2153 14.8732C23.8342 15.1384 23.4731 15.3853 23.1145 15.6384C22.9075 15.7846 22.7135 15.7857 22.5101 15.63C22.3879 15.5394 22.2601 15.4566 22.1274 15.3821C21.8449 15.2191 21.7925 15.1064 21.8517 14.781C21.9282 14.3617 22.0006 13.9393 22.0771 13.5037L19.628 13.0273C19.563 13.3502 19.4708 13.6447 19.4514 13.9434C19.4168 14.5095 19.1856 14.8098 18.5817 14.8627C18.1173 14.9036 18.0738 14.9408 17.807 14.5483C17.5858 14.2223 17.3645 13.8968 17.1381 13.5624L15.0853 14.9938C15.2662 15.2673 15.4108 15.5388 15.6048 15.7694C15.9544 16.1851 16.0242 16.5556 15.6514 17.021C15.3327 17.4188 15.3369 17.4696 14.8258 17.3706C14.4647 17.3009 14.1019 17.2401 13.725 17.1725C13.5677 18.0278 13.4194 18.8454 13.27 19.6641C13.336 19.685 13.367 19.6976 13.3995 19.7044C13.7219 19.772 14.0448 19.837 14.3677 19.9046C14.8845 20.0131 14.9024 20.0325 14.992 20.5488C15.0077 20.6405 15.0256 20.7317 15.0481 20.8218C15.1314 21.1552 15.0942 21.2579 14.8064 21.4665C14.4725 21.7086 14.1381 21.9497 13.7952 22.1971C14.267 22.9072 14.7315 23.6006 15.1907 24.2883C15.2153 24.2824 15.2392 24.274 15.262 24.2631C15.5817 24.0425 15.9004 23.8192 16.2218 23.5996C16.3013 23.5372 16.3896 23.4869 16.4839 23.4502C16.7486 23.369 17.5564 23.8816 17.5847 24.1541C17.5983 24.293 17.5611 24.4387 17.537 24.5792C17.4751 24.9418 17.4081 25.304 17.3415 25.6766L19.8052 26.1557C19.8734 25.7972 19.9389 25.4675 19.9987 25.1373C20.1177 24.478 20.1166 24.4775 20.7776 24.3559C20.819 24.3485 20.8594 24.3354 20.9003 24.325C21.2698 24.227 21.3652 24.2615 21.5817 24.576C21.8187 24.9219 22.0535 25.2689 22.2957 25.6216L24.3469 24.1845C24.1309 23.8585 23.9454 23.5346 23.7179 23.2443C23.4621 22.9183 23.407 22.6195 23.7063 22.2982C23.7538 22.2387 23.7941 22.1738 23.8264 22.1048C24.0167 21.7652 24.1257 21.7144 24.5026 21.7862C24.8879 21.8596 25.2774 21.934 25.703 22.0168Z" fill="#8D8D8D"/>
<path d="M1.00052 19.4345C1.07653 18.9859 1.12476 18.5304 1.23275 18.0897C1.90739 15.336 3.48 13.2857 6.03653 12.0168C6.06641 12.0022 6.09367 11.9822 6.14871 11.9482C6.08476 11.8743 6.02762 11.8072 5.96996 11.7412C3.24411 8.59232 4.15203 3.61749 7.80467 1.68406C10.6668 0.169393 14.2188 1.24958 15.8774 4.13898C16.5605 5.32833 16.8579 6.70024 16.7285 8.06563C16.5991 9.43103 16.0494 10.7227 15.155 11.7626C15.1063 11.8192 15.0607 11.8785 15.0308 11.9152C15.5256 12.2233 16.01 12.5294 16.5012 12.8245C16.5362 12.8387 16.5738 12.8455 16.6117 12.8444C16.6495 12.8434 16.6867 12.8344 16.7208 12.8182C17.1507 12.6185 17.5622 12.7134 17.84 13.1038C18.0544 13.4036 18.2594 13.7113 18.5083 14.0771C18.5495 13.9868 18.5846 13.8938 18.6132 13.7988C18.6698 13.509 18.718 13.2165 18.7705 12.9262C18.87 12.3968 19.2774 12.1117 19.8042 12.2066C20.5859 12.3463 21.3673 12.4897 22.1484 12.6368C22.7004 12.7417 22.9772 13.129 22.8923 13.6793C22.8498 13.955 22.7927 14.228 22.7507 14.5037C22.7434 14.6114 22.7434 14.7194 22.7507 14.8271C22.8477 14.7747 22.908 14.7516 22.9604 14.7165C23.2178 14.5388 23.4704 14.3538 23.731 14.1803C24.1236 13.9183 24.6116 13.9869 24.88 14.3695C25.3794 15.0827 25.8669 15.8046 26.3426 16.5352C26.5847 16.9073 26.471 17.379 26.0967 17.6604C25.8467 17.8486 25.5835 18.0194 25.3319 18.205C25.2795 18.2448 25.2459 18.3145 25.204 18.3706C25.2643 18.4052 25.3204 18.4565 25.3854 18.4702C25.6747 18.5315 25.9672 18.575 26.2566 18.6368C26.3756 18.659 26.489 18.7047 26.5902 18.7711C26.6914 18.8376 26.7783 18.9235 26.8459 19.0239C26.9135 19.1243 26.9605 19.2372 26.9841 19.3559C27.0076 19.4746 27.0073 19.5968 26.9831 19.7154C26.8416 20.5058 26.6976 21.2956 26.5512 22.0849C26.4427 22.6614 26.0469 22.9282 25.4629 22.8255C25.1799 22.7757 24.8984 22.717 24.6143 22.6724C24.5618 22.6635 24.4984 22.7002 24.4402 22.716C24.4477 22.7704 24.4634 22.8235 24.4869 22.8732C24.6635 23.142 24.8486 23.4046 25.0252 23.673C25.3062 24.0991 25.2276 24.5823 24.8155 24.8784C24.1425 25.3627 23.4645 25.8396 22.7816 26.3092C22.3833 26.5849 21.902 26.5021 21.6132 26.1132C21.4318 25.8695 21.2683 25.6122 21.0948 25.3616C21.0486 25.2956 20.9962 25.2343 20.9087 25.1216C20.8706 25.2104 20.8384 25.3016 20.8122 25.3947C20.764 25.6347 20.7105 25.8753 20.6827 26.1179C20.6303 26.5571 20.4133 26.8517 19.9945 27H19.5882C19.5525 26.9802 19.5147 26.9643 19.4755 26.9528C18.7364 26.8131 17.9971 26.6761 17.2576 26.5419C16.7093 26.4413 16.4189 26.0225 16.5195 25.4717C16.5746 25.1724 16.6328 24.8737 16.6805 24.5734C16.6894 24.5173 16.6532 24.4539 16.638 24.3941C16.5834 24.4041 16.5304 24.4218 16.4807 24.4466C16.2082 24.6321 15.944 24.8297 15.6682 25.0105C15.3013 25.2532 14.8457 25.1986 14.5747 24.8533C14.4474 24.6908 14.3184 24.651 14.1276 24.651C9.94935 24.6558 5.77059 24.6583 1.5913 24.6583C1.3292 24.6583 1.12843 24.5949 1 24.359L1.00052 19.4345ZM13.8325 23.7988C13.5751 23.4183 13.3471 23.0839 13.1222 22.7474C12.8166 22.2899 12.8926 21.8323 13.3319 21.5026C13.5615 21.3297 13.8 21.1683 14.028 20.9943C14.0845 20.9393 14.1341 20.8777 14.1758 20.8108C14.1087 20.7731 14.0453 20.717 13.973 20.7013C13.7109 20.6436 13.4425 20.5965 13.1762 20.5509C12.6289 20.4523 12.3416 20.0545 12.4381 19.5063C12.5779 18.6992 12.7245 17.8929 12.8779 17.0876C12.9827 16.5278 13.3911 16.2532 13.9499 16.3575C14.2319 16.4099 14.5139 16.467 14.797 16.5147C14.8541 16.5241 14.917 16.4964 14.9773 16.4854C14.9637 16.4256 14.9653 16.3564 14.9338 16.3082C14.7766 16.0671 14.613 15.8313 14.4521 15.5933C14.0961 15.0692 14.18 14.6122 14.7016 14.2427C15.0848 13.9712 15.4696 13.7013 15.9104 13.391C15.4103 13.129 14.9548 12.8921 14.5034 12.6473C14.3692 12.5745 14.277 12.6127 14.1643 12.6961C12.0103 14.2925 9.17074 14.3035 7.01574 12.7202C6.87159 12.6154 6.76465 12.6044 6.60949 12.6788C3.69807 14.074 2.12389 16.4057 1.87647 19.597C1.77163 20.9429 1.84711 22.3024 1.84187 23.6557C1.84529 23.7046 1.85283 23.7532 1.86441 23.8009H5.39281C5.39281 23.0886 5.39019 22.3858 5.39281 21.6887C5.39281 21.3742 5.55007 21.1845 5.80222 21.1782C6.05436 21.1719 6.23049 21.3753 6.23101 21.695C6.23101 22.3941 6.23101 23.0928 6.23101 23.7998L13.8325 23.7988ZM10.5824 1.84758C9.66488 1.84443 8.76338 2.08809 7.97241 2.55303C5.69318 3.8916 4.682 6.68457 5.52701 9.29986C6.62783 12.6987 10.6118 14.1075 13.5022 12.1201C15.5387 10.7207 16.4178 8.07607 15.6441 5.67356C14.905 3.37955 12.8826 1.8502 10.5798 1.84496L10.5824 1.84758ZM25.703 22.0168C25.8529 21.2055 25.9955 20.4256 26.1418 19.6468C26.1706 19.4958 26.0956 19.4576 25.9672 19.4371C25.6527 19.3847 25.3345 19.3266 25.0189 19.2658C24.4979 19.1646 24.4837 19.1478 24.3936 18.6284C24.3771 18.5369 24.3581 18.4459 24.3364 18.3554C24.2536 18.0116 24.2887 17.9141 24.5749 17.7118C24.9178 17.4696 25.2611 17.228 25.6155 16.978L24.2153 14.8732C23.8342 15.1384 23.4731 15.3853 23.1145 15.6384C22.9075 15.7846 22.7135 15.7857 22.5101 15.63C22.3879 15.5394 22.2601 15.4566 22.1274 15.3821C21.8449 15.2191 21.7925 15.1064 21.8517 14.781C21.9282 14.3617 22.0006 13.9393 22.0771 13.5037L19.628 13.0273C19.563 13.3502 19.4708 13.6447 19.4514 13.9434C19.4168 14.5095 19.1856 14.8098 18.5817 14.8627C18.1173 14.9036 18.0738 14.9408 17.807 14.5483C17.5858 14.2223 17.3645 13.8968 17.1381 13.5624L15.0853 14.9938C15.2662 15.2673 15.4108 15.5388 15.6048 15.7694C15.9544 16.1851 16.0242 16.5556 15.6514 17.021C15.3327 17.4188 15.3369 17.4696 14.8258 17.3706C14.4647 17.3009 14.1019 17.2401 13.725 17.1725C13.5677 18.0278 13.4194 18.8454 13.27 19.6641C13.336 19.685 13.367 19.6976 13.3995 19.7044C13.7219 19.772 14.0448 19.837 14.3677 19.9046C14.8845 20.0131 14.9024 20.0325 14.992 20.5488C15.0077 20.6405 15.0256 20.7317 15.0481 20.8218C15.1314 21.1552 15.0942 21.2579 14.8064 21.4665C14.4725 21.7086 14.1381 21.9497 13.7952 22.1971C14.267 22.9072 14.7315 23.6006 15.1907 24.2883C15.2153 24.2824 15.2392 24.274 15.262 24.2631C15.5817 24.0425 15.9004 23.8192 16.2218 23.5996C16.3013 23.5372 16.3896 23.4869 16.4839 23.4502C16.7486 23.369 17.5564 23.8816 17.5847 24.1541C17.5983 24.293 17.5611 24.4387 17.537 24.5792C17.4751 24.9418 17.4081 25.304 17.3415 25.6766L19.8052 26.1557C19.8734 25.7972 19.9389 25.4675 19.9987 25.1373C20.1177 24.478 20.1166 24.4775 20.7776 24.3559C20.819 24.3485 20.8594 24.3354 20.9003 24.325C21.2698 24.227 21.3652 24.2615 21.5817 24.576C21.8187 24.9219 22.0535 25.2689 22.2957 25.6216L24.3469 24.1845C24.1309 23.8585 23.9454 23.5346 23.7179 23.2443C23.4621 22.9183 23.407 22.6195 23.7063 22.2982C23.7538 22.2387 23.7941 22.1738 23.8264 22.1048C24.0167 21.7652 24.1257 21.7144 24.5026 21.7862C24.8879 21.8596 25.2774 21.934 25.703 22.0168Z" stroke="#8D8D8D" stroke-width="0.5" mask="url(#path-1-outside-1)"/>
</svg>
