<svg width="30" height="30" viewBox="0 0 30 30" fill="none" xmlns="http://www.w3.org/2000/svg">
<path d="M19.8604 7.66353C19.7805 7.41771 19.5532 7.25246 19.2948 7.25246H16.4809L15.6114 4.5766C15.5317 4.33078 15.3045 4.16553 15.046 4.16553C14.7874 4.16553 14.5601 4.33078 14.4805 4.5766L13.611 7.25246H10.7971C10.5387 7.25246 10.3114 7.41771 10.2315 7.66353C10.1516 7.90912 10.2384 8.17645 10.4476 8.32843L12.724 9.98233L11.8545 12.6584C11.7746 12.9042 11.8614 13.1713 12.0706 13.3233C12.2795 13.4751 12.5604 13.4753 12.7696 13.3233L15.0458 11.6692L17.3223 13.3233C17.4269 13.3991 17.5493 13.4371 17.6718 13.4371C17.7942 13.4371 17.9169 13.3991 18.0213 13.3233C18.2305 13.1713 18.3175 12.9042 18.2376 12.6582L17.3681 9.98233L19.6445 8.32843C19.8535 8.17645 19.9402 7.90912 19.8604 7.66353ZM16.6839 9.39273C16.4752 9.54471 16.3884 9.81181 16.4681 10.0574L17.1312 12.0981L15.3953 10.837C15.1864 10.685 14.9053 10.685 14.6963 10.837L12.9605 12.0981L13.6235 10.0574C13.7032 9.81181 13.6164 9.54471 13.4075 9.3925L11.6716 8.13159H13.8172C14.0756 8.13159 14.3029 7.96634 14.3827 7.72052L15.0458 5.68004L15.7089 7.72052C15.7888 7.96634 16.0161 8.13136 16.2745 8.13136H18.42L16.6839 9.39273Z" fill="#6C6C6C"/>
<path d="M28.4841 4.31487C28.1959 3.94477 27.7617 3.73237 27.2927 3.73237H22.9355L22.9353 3.0162H23.1266C23.6531 3.0162 24.0815 2.58773 24.0815 2.06131V0.954893C24.0815 0.428466 23.6531 0 23.1266 0H6.96554C6.43888 0 6.01064 0.428466 6.01064 0.954893V2.06153C6.01064 2.58796 6.43888 3.0162 6.96554 3.0162H7.15665V3.73237H2.79944C2.33023 3.73237 1.89604 3.94477 1.60788 4.31487C1.31995 4.6852 1.22084 5.15807 1.33597 5.61286L2.14117 8.79019C2.67401 10.8929 3.84703 12.7253 5.5332 14.0893C7.1697 15.4129 9.13602 16.1716 11.2296 16.2902C11.9295 16.9864 12.6219 17.5428 13.2183 17.9676C13.0899 19.2263 12.6278 21.3908 11.0385 23.4443H9.02822C8.53658 23.4443 8.13672 23.8442 8.13672 24.3358V29.1084C8.13672 29.6001 8.53658 29.9999 9.02822 29.9999H21.0637C21.5554 29.9999 21.9552 29.6001 21.9552 29.1084V24.3356C21.9552 23.8442 21.5554 23.4443 21.0637 23.4443H19.0534C17.4641 21.3906 17.002 19.226 16.8736 17.9676C17.47 17.5428 18.1624 16.9864 18.8623 16.2902C20.9559 16.1716 22.9222 15.4129 24.5587 14.089C26.2449 12.7253 27.4179 10.8929 27.9508 8.79019L28.756 5.61286C28.8711 5.15807 28.7722 4.6852 28.4841 4.31487ZM22.9357 6.6783V6.41303H25.7876L25.3523 8.1317C24.8119 10.2635 23.3361 12.0222 21.3823 12.9391C22.4137 11.0241 22.9357 8.92523 22.9357 6.6783ZM8.70961 12.9391C6.75611 12.0222 5.28005 10.2637 4.73989 8.1317L4.30433 6.41303H7.15619V6.6783C7.15619 8.92523 7.67827 11.0241 8.70961 12.9391ZM6.08594 13.4058C4.54855 12.1623 3.47921 10.4915 2.9933 8.57435L2.18809 5.39702C2.1398 5.20705 2.18123 5.0093 2.30162 4.85457C2.42201 4.70008 2.60329 4.61127 2.79944 4.61127H7.15642V5.53412H3.73968C3.60418 5.53412 3.47601 5.59684 3.3927 5.70372C3.30961 5.81084 3.28032 5.95023 3.3135 6.08161L3.88777 8.34753C4.59249 11.1275 6.7172 13.3404 9.45302 14.1604C9.50246 14.2328 9.55258 14.3049 9.60362 14.3767C9.83777 14.7061 10.0802 15.0164 10.3262 15.3087C8.77553 15.057 7.32694 14.4095 6.08594 13.4058ZM21.0637 24.3232C21.0706 24.3232 21.0763 24.3287 21.0763 24.3356V29.1084C21.0763 29.1153 21.0706 29.121 21.0637 29.121H9.02822C9.02135 29.121 9.01586 29.1153 9.01586 29.1084V24.3356C9.01586 24.3287 9.02135 24.3232 9.02822 24.3232H21.0637ZM17.9665 23.4443H12.1254C13.3845 21.6046 13.8633 19.7442 14.0416 18.4758C14.3621 18.6154 14.7038 18.6866 15.046 18.6866C15.3881 18.6866 15.7299 18.6152 16.0503 18.4758C16.2286 19.7442 16.7076 21.6046 17.9665 23.4443ZM18.3609 15.5481C18.3556 15.5534 18.3501 15.5587 18.3448 15.5644C17.4817 16.4405 16.6223 17.0908 15.9535 17.5337C15.4023 17.8985 14.6898 17.8985 14.1387 17.5337C13.4697 17.0908 12.6102 16.4405 11.7471 15.5644C11.7421 15.5587 11.7366 15.5536 11.7311 15.5481C11.2509 15.059 10.7695 14.5003 10.32 13.8677C8.80391 11.7343 8.0351 9.31547 8.0351 6.6783L8.03556 3.0162H9.18431C9.42716 3.0162 9.62376 2.81936 9.62376 2.57675C9.62376 2.33413 9.42716 2.13729 9.18431 2.13729H6.96554C6.92365 2.13729 6.88955 2.10319 6.88955 2.06131V0.954893C6.88955 0.913008 6.92365 0.878904 6.96554 0.878904H23.1266C23.1685 0.878904 23.2026 0.913008 23.2026 0.954893V2.06153C23.2026 2.10319 23.1685 2.13729 23.1266 2.13729H11.2298C10.9872 2.13729 10.7904 2.33413 10.7904 2.57675C10.7904 2.81959 10.9872 3.0162 11.2298 3.0162H22.0564L22.0571 6.6783C22.0571 9.3157 21.2882 11.7345 19.7721 13.8677C19.3224 14.5003 18.8413 15.059 18.3609 15.5481ZM27.9041 5.39702L27.0989 8.57435C26.6129 10.4915 25.5434 12.1623 24.006 13.4058C22.7652 14.4095 21.3164 15.057 19.766 15.3087C20.012 15.0164 20.2542 14.7063 20.4883 14.3767C20.5393 14.3051 20.5897 14.233 20.6389 14.1607C23.375 13.3404 25.4997 11.1275 26.2042 8.34753L26.7784 6.08161C26.8116 5.95023 26.7825 5.81084 26.6992 5.70372C26.6159 5.59684 26.488 5.53412 26.3525 5.53412H22.9357L22.9355 4.61127H27.2927C27.4886 4.61127 27.6699 4.70008 27.7905 4.85457C27.9107 5.0093 27.9521 5.20705 27.9041 5.39702Z" fill="#6C6C6C"/>
<path d="M10.1523 26.0111V27.4334C10.1523 27.7373 10.3998 27.9845 10.7037 27.9845H19.3886C19.6926 27.9845 19.9398 27.7373 19.9398 27.4334V26.0111C19.9398 25.7072 19.6926 25.46 19.3886 25.46H18.4589C18.2161 25.46 18.0195 25.6566 18.0195 25.8994C18.0195 26.142 18.2161 26.3389 18.4589 26.3389H19.0609V27.1056H11.0313V26.3389H16.4134C16.6563 26.3389 16.8529 26.142 16.8529 25.8994C16.8529 25.6566 16.6563 25.46 16.4134 25.46H10.7037C10.3998 25.46 10.1523 25.7072 10.1523 26.0111Z" fill="#6C6C6C"/>
</svg>
