<svg width="27" height="26" viewBox="0 0 27 26" fill="none" xmlns="http://www.w3.org/2000/svg">
<path fill-rule="evenodd" clip-rule="evenodd" d="M23.0507 2.21816H21.8581V0.230469H19.8704V2.21816H6.75168V0.230469H4.76399V2.21816H3.57138C1.92736 2.21816 0.589844 3.55567 0.589844 5.19969V22.6913C0.589844 24.3354 1.92736 25.6729 3.57138 25.6729H23.0507C24.6947 25.6729 26.0323 24.3354 26.0323 22.6913V5.19969C26.0323 3.55567 24.6947 2.21816 23.0507 2.21816ZM24.0446 22.6914C24.0446 23.2394 23.5987 23.6852 23.0507 23.6852H3.57138C3.02338 23.6852 2.57754 23.2394 2.57754 22.6914V9.57261H24.0446V22.6914ZM2.57754 7.58494H24.0446V5.19971C24.0446 4.65171 23.5987 4.20587 23.0507 4.20587H21.8581V6.19356H19.8704V4.20587H6.75168V6.19356H4.764V4.20587H3.57138C3.02338 4.20587 2.57754 4.65171 2.57754 5.19971V7.58494Z" fill="#8D8D8D"/>
<rect x="3.77051" y="11.3613" width="1.59015" height="1.59015" fill="#8D8D8D"/>
<rect x="8.54102" y="11.3613" width="1.59015" height="1.59015" fill="#8D8D8D"/>
<rect x="13.3115" y="11.3613" width="1.59015" height="1.59015" fill="#8D8D8D"/>
<rect x="16.4912" y="11.3613" width="1.59015" height="1.59015" fill="#8D8D8D"/>
<rect x="21.2617" y="11.3613" width="1.59015" height="1.59015" fill="#8D8D8D"/>
<rect x="3.77051" y="16.1318" width="1.59015" height="1.59015" fill="#8D8D8D"/>
<rect x="8.54102" y="16.1318" width="1.59015" height="1.59015" fill="#8D8D8D"/>
<rect x="13.3115" y="16.1318" width="1.59015" height="1.59015" fill="#8D8D8D"/>
<rect x="16.4912" y="16.1318" width="1.59015" height="1.59015" fill="#8D8D8D"/>
<rect x="3.77051" y="19.3125" width="1.59015" height="1.59015" fill="#8D8D8D"/>
<rect x="8.54102" y="19.3125" width="1.59015" height="1.59015" fill="#8D8D8D"/>
<rect x="13.3115" y="19.3125" width="1.59015" height="1.59015" fill="#8D8D8D"/>
<rect x="16.4912" y="19.3125" width="1.59015" height="1.59015" fill="#8D8D8D"/>
<rect x="21.2617" y="16.1318" width="1.59015" height="1.59015" fill="#8D8D8D"/>
</svg>
