<svg width="22" height="16" viewBox="0 0 22 16" fill="none" xmlns="http://www.w3.org/2000/svg">
<path fill-rule="evenodd" clip-rule="evenodd" d="M15.5225 3.01581C16.937 3.10092 18.2611 3.67356 19.2663 4.63991C21.5588 6.8398 21.5799 10.4428 19.3165 12.6719C18.2045 13.7628 16.7235 14.3584 15.1703 14.3584C14.962 14.3584 14.754 14.343 14.5451 14.3212L14.5458 14.6444C14.5458 14.7314 14.5115 14.8145 14.4469 14.8759C14.3837 14.9367 14.2981 14.9726 14.2085 14.9726L11.4971 14.9796C11.3112 14.9796 11.1598 14.8324 11.1598 14.6526L11.1532 12.2496L6.15145 12.2617L6.15805 14.6648C6.15805 14.7525 6.12311 14.8363 6.0596 14.897C5.99631 14.9579 5.91063 14.9924 5.82072 14.9924L3.11053 15H3.1089C2.92347 15 2.7732 14.8523 2.77158 14.6731L2.76757 13.2944L1.34826 13.2975C1.25858 13.2975 1.17289 13.2631 1.10939 13.2022C1.0474 13.1408 1.01083 13.0564 1.01083 12.97L1.00001 8.99241C0.998603 8.81126 1.1505 8.66479 1.33593 8.66416L2.75394 8.65965L2.74994 7.28163C2.74994 7.19421 2.78488 7.1111 2.84839 7.04931C2.91103 6.98795 2.99769 6.95307 3.08727 6.95307L5.79779 6.94666H5.79844C5.98322 6.94666 6.13512 7.09355 6.13577 7.27364L6.14237 9.67632L9.41882 9.66739L9.4052 9.59402C9.37436 9.4286 9.34353 9.26328 9.33118 9.09548C9.04535 8.92338 8.78343 8.72374 8.55353 8.50298C6.78348 6.80239 6.76725 4.02051 8.51697 2.3008C9.36451 1.46968 10.495 1.00841 11.7024 1.00169C12.8975 0.967856 14.045 1.44415 14.9027 2.26696C15.1339 2.48888 15.3414 2.74073 15.5225 3.01581ZM13.9658 3.18529C12.7182 1.98726 10.6977 1.99819 9.46285 3.2102C8.22962 4.42231 8.24055 6.38463 9.48816 7.5836C9.51391 7.60756 9.54085 7.62868 9.57872 7.65495C9.6419 7.71127 9.72358 7.74195 9.80797 7.74195C9.84118 7.74195 9.87353 7.73743 9.90577 7.72818C10.0203 7.69498 10.1084 7.60504 10.1366 7.49177C10.3583 6.60087 10.8231 5.78898 11.4782 5.14499C12.1356 4.50037 12.9643 4.04037 13.8813 3.81415C13.9973 3.78599 14.0863 3.69447 14.1191 3.58215C14.1521 3.47025 14.1178 3.34448 14.0342 3.26063C14.0292 3.25558 14.0179 3.24284 14.0058 3.22913L14.0058 3.22908C13.9899 3.21117 13.9726 3.1916 13.9658 3.18529ZM10.9988 4.68435C10.3996 5.27129 9.94439 5.98084 9.65748 6.7611C8.9918 5.81713 9.08571 4.51351 9.94439 3.67094C10.8018 2.82889 12.1384 2.7214 13.12 3.35835C12.3203 3.6453 11.595 4.09732 10.9988 4.68435ZM1.68538 12.6412L1.67521 9.31876L2.75665 9.31498L2.76617 12.6387L1.68538 12.6412ZM3.42589 7.60819L3.44537 14.343L5.48123 14.3372L5.46241 7.60304L3.42589 7.60819ZM6.14788 11.6041L6.14356 10.3323L11.1456 10.3187L11.1488 11.592L6.14788 11.6041ZM11.8124 7.58613L11.8315 14.3206L13.8677 14.3162L13.8487 7.58129L11.8124 7.58613ZM14.5272 9.28356L15.6096 9.28157L15.6195 12.6054L14.5378 12.6073L14.5272 9.28356ZM14.5403 13.6643C16.1384 13.8479 17.7011 13.3194 18.8328 12.2088C20.8388 10.2388 20.8197 7.05289 18.7893 5.1038C17.8612 4.2129 16.6273 3.70046 15.315 3.66106C15.199 3.65728 15.0924 3.59549 15.0344 3.49788C14.8631 3.21156 14.6583 2.9534 14.427 2.73138C13.7037 2.03749 12.7459 1.65555 11.7268 1.65555H11.7044C10.677 1.66165 9.71514 2.05377 8.9958 2.7608C7.50704 4.22372 7.52056 6.58962 9.02642 8.03625C9.25632 8.25732 9.52473 8.45381 9.82354 8.61888C9.9234 8.67446 9.98831 8.77691 9.99351 8.88944C10.0038 9.15054 10.0417 9.41091 10.0921 9.6655L11.1431 9.66308L11.1365 7.26061C11.1365 7.17351 11.1713 7.08998 11.2346 7.02861C11.2979 6.96683 11.3835 6.93226 11.4737 6.93226L14.1845 6.92575C14.3702 6.92575 14.5217 7.07253 14.5217 7.25263L14.5256 8.62981L15.9453 8.62718H15.946C16.1317 8.62718 16.2825 8.77501 16.2832 8.95416L16.2938 12.933C16.2938 13.02 16.259 13.1031 16.1957 13.1646C16.1317 13.2267 16.0462 13.2613 15.9566 13.2613L14.5389 13.2638L14.5403 13.6643Z" fill="#8D8D8D"/>
<path d="M19.2663 4.63991L19.1277 4.78409L19.1279 4.78421L19.2663 4.63991ZM15.5225 3.01581L15.3555 3.12579L15.4105 3.20944L15.5105 3.21545L15.5225 3.01581ZM19.3165 12.6719L19.4566 12.8147L19.4569 12.8144L19.3165 12.6719ZM14.5451 14.3212L14.5658 14.1223L14.3445 14.0993L14.3451 14.3217L14.5451 14.3212ZM14.5458 14.6444H14.7458L14.7458 14.644L14.5458 14.6444ZM14.4469 14.8759L14.3092 14.7309L14.3082 14.7318L14.4469 14.8759ZM14.2085 14.9726V14.7726L14.208 14.7726L14.2085 14.9726ZM11.4971 14.9796V15.1796L11.4976 15.1796L11.4971 14.9796ZM11.1598 14.6526H11.3598L11.3598 14.6521L11.1598 14.6526ZM11.1532 12.2496L11.3532 12.2491L11.3526 12.0492L11.1527 12.0496L11.1532 12.2496ZM6.15145 12.2617L6.15097 12.0617L5.9509 12.0622L5.95145 12.2623L6.15145 12.2617ZM6.15805 14.6648H6.35805L6.35805 14.6643L6.15805 14.6648ZM6.0596 14.897L5.92137 14.7525L5.921 14.7528L6.0596 14.897ZM5.82072 14.9924V14.7924L5.82017 14.7924L5.82072 14.9924ZM3.11053 15V15.2L3.11108 15.2L3.11053 15ZM2.77158 14.6731L2.57157 14.6737L2.57158 14.6749L2.77158 14.6731ZM2.76757 13.2944L2.96757 13.2938L2.96699 13.0939L2.76713 13.0944L2.76757 13.2944ZM1.34826 13.2975V13.4975L1.34871 13.4975L1.34826 13.2975ZM1.10939 13.2022L0.968546 13.3443L0.971033 13.3466L1.10939 13.2022ZM1.01083 12.97H1.21083L1.21083 12.9695L1.01083 12.97ZM1.00001 8.99241L1.20001 8.99186L1.2 8.99086L1.00001 8.99241ZM1.33593 8.66416L1.33529 8.46416H1.33525L1.33593 8.66416ZM2.75394 8.65965L2.75458 8.85964L2.95452 8.85901L2.95394 8.65906L2.75394 8.65965ZM2.74994 7.28163H2.54994L2.54994 7.28221L2.74994 7.28163ZM2.84839 7.04931L2.98785 7.19267L2.98834 7.19218L2.84839 7.04931ZM3.08727 6.95307V7.15307L3.08774 7.15307L3.08727 6.95307ZM5.79779 6.94666V6.74666L5.79732 6.74666L5.79779 6.94666ZM6.13577 7.27364L6.33577 7.27309L6.33576 7.27292L6.13577 7.27364ZM6.14237 9.67632L5.94237 9.67687L5.94292 9.87687L6.14291 9.87632L6.14237 9.67632ZM9.41882 9.66739L9.41936 9.86739L9.65924 9.86674L9.61546 9.63089L9.41882 9.66739ZM9.4052 9.59402L9.60184 9.55752L9.60181 9.55736L9.4052 9.59402ZM9.33118 9.09548L9.53065 9.08081L9.52305 8.97755L9.43435 8.92415L9.33118 9.09548ZM8.55353 8.50298L8.41497 8.64721L8.41501 8.64724L8.55353 8.50298ZM8.51697 2.3008L8.37694 2.158L8.37677 2.15816L8.51697 2.3008ZM11.7024 1.00169L11.7035 1.20174L11.7081 1.20161L11.7024 1.00169ZM14.9027 2.26696L15.0412 2.12268L15.0412 2.12264L14.9027 2.26696ZM9.46285 3.2102L9.32275 3.06746L9.32265 3.06756L9.46285 3.2102ZM13.9658 3.18529L13.8273 3.32957L13.8298 3.33193L13.9658 3.18529ZM9.48816 7.5836L9.34956 7.72783L9.35193 7.73003L9.48816 7.5836ZM9.57872 7.65495L9.7118 7.50565L9.70271 7.49755L9.69272 7.49062L9.57872 7.65495ZM9.90577 7.72818L9.9609 7.92043L9.96144 7.92028L9.90577 7.72818ZM10.1366 7.49177L10.3307 7.54015L10.3307 7.54006L10.1366 7.49177ZM11.4782 5.14499L11.3381 5.00218L11.338 5.00237L11.4782 5.14499ZM13.8813 3.81415L13.8341 3.61979L13.8334 3.61997L13.8813 3.81415ZM14.1191 3.58215L13.9273 3.52558L13.9271 3.52612L14.1191 3.58215ZM14.0342 3.26063L13.8922 3.40152L13.8926 3.40187L14.0342 3.26063ZM14.0058 3.22913L14.1557 3.09666L14.154 3.0948L14.0058 3.22913ZM14.0058 3.22908L13.8559 3.36155L13.8576 3.36342L14.0058 3.22908ZM9.65748 6.7611L9.49403 6.87636L9.71366 7.18781L9.84519 6.83012L9.65748 6.7611ZM10.9988 4.68435L11.1387 4.82722L11.1391 4.82687L10.9988 4.68435ZM9.94439 3.67094L10.0845 3.81369L10.0845 3.81363L9.94439 3.67094ZM13.12 3.35835L13.1876 3.5466L13.5675 3.41028L13.2289 3.19057L13.12 3.35835ZM1.67521 9.31876L1.67451 9.11876L1.4746 9.11946L1.47521 9.31937L1.67521 9.31876ZM1.68538 12.6412L1.48538 12.6419L1.48599 12.8417L1.68584 12.8412L1.68538 12.6412ZM2.75665 9.31498L2.95665 9.31441L2.95607 9.11428L2.75595 9.11498L2.75665 9.31498ZM2.76617 12.6387L2.76663 12.8387L2.96674 12.8383L2.96617 12.6381L2.76617 12.6387ZM3.44537 14.343L3.24537 14.3436L3.24594 14.5436L3.44593 14.543L3.44537 14.343ZM3.42589 7.60819L3.42539 7.40819L3.22531 7.4087L3.22589 7.60877L3.42589 7.60819ZM5.48123 14.3372L5.4818 14.5372L5.68179 14.5366L5.68123 14.3366L5.48123 14.3372ZM5.46241 7.60304L5.66241 7.60248L5.66185 7.40254L5.4619 7.40304L5.46241 7.60304ZM6.14356 10.3323L6.14301 10.1323L5.94288 10.1328L5.94356 10.333L6.14356 10.3323ZM6.14788 11.6041L5.94788 11.6048L5.94856 11.8046L6.14837 11.8041L6.14788 11.6041ZM11.1456 10.3187L11.3456 10.3182L11.3451 10.1182L11.1451 10.1187L11.1456 10.3187ZM11.1488 11.592L11.1493 11.792L11.3493 11.7915L11.3488 11.5915L11.1488 11.592ZM11.8315 14.3206L11.6315 14.3212L11.6321 14.521L11.8319 14.5206L11.8315 14.3206ZM11.8124 7.58613L11.8119 7.38613L11.6118 7.3866L11.6124 7.58669L11.8124 7.58613ZM13.8677 14.3162L13.8681 14.5162L14.0683 14.5158L14.0677 14.3156L13.8677 14.3162ZM13.8487 7.58129L14.0487 7.58073L14.0481 7.38082L13.8482 7.38129L13.8487 7.58129ZM15.6096 9.28157L15.8096 9.28097L15.809 9.0812L15.6092 9.08157L15.6096 9.28157ZM14.5272 9.28356L14.5268 9.08356L14.3266 9.08393L14.3272 9.2842L14.5272 9.28356ZM15.6195 12.6054L15.6198 12.8054L15.8201 12.8051L15.8195 12.6048L15.6195 12.6054ZM14.5378 12.6073L14.3378 12.6079L14.3384 12.8077L14.5382 12.8073L14.5378 12.6073ZM18.8328 12.2088L18.9729 12.3515L18.973 12.3515L18.8328 12.2088ZM14.5403 13.6643L14.3403 13.665L14.3409 13.8427L14.5175 13.863L14.5403 13.6643ZM18.7893 5.1038L18.9278 4.95952L18.9278 4.95952L18.7893 5.1038ZM15.315 3.66106L15.3085 3.86095L15.309 3.86097L15.315 3.66106ZM15.0344 3.49788L15.2063 3.39573L15.206 3.39522L15.0344 3.49788ZM14.427 2.73138L14.5655 2.58709L14.5655 2.58705L14.427 2.73138ZM11.7044 1.65555V1.45555L11.7032 1.45556L11.7044 1.65555ZM8.9958 2.7608L9.13598 2.90346L9.136 2.90344L8.9958 2.7608ZM9.02642 8.03625L9.16505 7.89209L9.16498 7.89202L9.02642 8.03625ZM9.82354 8.61888L9.92082 8.44412L9.92025 8.44381L9.82354 8.61888ZM9.99351 8.88944L10.1934 8.88157L10.1933 8.88022L9.99351 8.88944ZM10.0921 9.6655L9.89588 9.70435L9.92786 9.86588L10.0925 9.8655L10.0921 9.6655ZM11.1431 9.66308L11.1436 9.86308L11.3437 9.86262L11.3431 9.66253L11.1431 9.66308ZM11.1365 7.26061H10.9365L10.9365 7.26116L11.1365 7.26061ZM11.2346 7.02861L11.3739 7.1722L11.3743 7.17173L11.2346 7.02861ZM11.4737 6.93226V7.13226L11.4742 7.13226L11.4737 6.93226ZM14.1845 6.92575V6.72575L14.184 6.72575L14.1845 6.92575ZM14.5217 7.25263H14.3217L14.3217 7.25319L14.5217 7.25263ZM14.5256 8.62981L14.3256 8.63037L14.3261 8.83017L14.5259 8.8298L14.5256 8.62981ZM15.9453 8.62718V8.42718L15.945 8.42718L15.9453 8.62718ZM16.2832 8.95416L16.4832 8.95363L16.4832 8.95344L16.2832 8.95416ZM16.2938 12.933H16.4938L16.4938 12.9325L16.2938 12.933ZM16.1957 13.1646L16.335 13.3081V13.3081L16.1957 13.1646ZM15.9566 13.2613V13.0613L15.9562 13.0613L15.9566 13.2613ZM14.5389 13.2638L14.5385 13.0638L14.3382 13.0641L14.3389 13.2645L14.5389 13.2638ZM19.4049 4.49572C18.3646 3.49568 16.9953 2.90407 15.5345 2.81617L15.5105 3.21545C16.8786 3.29777 18.1575 3.85144 19.1277 4.78409L19.4049 4.49572ZM19.4569 12.8144C21.8004 10.5064 21.7787 6.7736 19.4048 4.4956L19.1279 4.78421C21.339 6.906 21.3594 10.3793 19.1762 12.5294L19.4569 12.8144ZM15.1703 14.5584C16.7751 14.5584 18.3066 13.9428 19.4566 12.8147L19.1765 12.5291C18.1024 13.5828 16.6719 14.1584 15.1703 14.1584V14.5584ZM14.5243 14.5202C14.7368 14.5423 14.9524 14.5584 15.1703 14.5584V14.1584C14.9716 14.1584 14.7711 14.1437 14.5658 14.1223L14.5243 14.5202ZM14.7458 14.644L14.7451 14.3208L14.3451 14.3217L14.3458 14.6449L14.7458 14.644ZM14.5847 15.0209C14.6901 14.9208 14.7458 14.7848 14.7458 14.6444H14.3458C14.3458 14.6781 14.333 14.7083 14.3092 14.7309L14.5847 15.0209ZM14.2085 15.1726C14.3512 15.1726 14.4862 15.1157 14.5856 15.02L14.3082 14.7318C14.2813 14.7578 14.245 14.7726 14.2085 14.7726V15.1726ZM11.4976 15.1796L14.209 15.1726L14.208 14.7726L11.4966 14.7796L11.4976 15.1796ZM10.9598 14.6526C10.9598 14.9485 11.2065 15.1796 11.4971 15.1796V14.7796C11.4159 14.7796 11.3598 14.7163 11.3598 14.6526H10.9598ZM10.9532 12.2502L10.9598 14.6532L11.3598 14.6521L11.3532 12.2491L10.9532 12.2502ZM6.15194 12.4617L11.1536 12.4496L11.1527 12.0496L6.15097 12.0617L6.15194 12.4617ZM6.35805 14.6643L6.35145 12.2612L5.95145 12.2623L5.95805 14.6654L6.35805 14.6643ZM6.19783 15.0416C6.30173 14.9422 6.35805 14.8057 6.35805 14.6648H5.95805C5.95805 14.6992 5.94449 14.7304 5.92137 14.7525L6.19783 15.0416ZM5.82072 15.1924C5.96175 15.1924 6.09726 15.1382 6.1982 15.0412L5.921 14.7528C5.89536 14.7775 5.85951 14.7924 5.82072 14.7924V15.1924ZM3.11108 15.2L5.82128 15.1924L5.82017 14.7924L3.10997 14.8L3.11108 15.2ZM3.1089 15.2H3.11053V14.8H3.1089V15.2ZM2.57158 14.6749C2.57423 14.9672 2.8171 15.2 3.1089 15.2V14.8C3.02984 14.8 2.97217 14.7374 2.97157 14.6713L2.57158 14.6749ZM2.56757 13.2949L2.57158 14.6737L2.97158 14.6725L2.96757 13.2938L2.56757 13.2949ZM1.34871 13.4975L2.76802 13.4944L2.76713 13.0944L1.34782 13.0975L1.34871 13.4975ZM0.971033 13.3466C1.07211 13.4435 1.20749 13.4975 1.34826 13.4975V13.0975C1.30967 13.0975 1.27368 13.0826 1.24774 13.0578L0.971033 13.3466ZM0.810828 12.97C0.810828 13.1122 0.870482 13.247 0.968567 13.3442L1.25021 13.0602C1.22431 13.0345 1.21083 13.0006 1.21083 12.97H0.810828ZM0.80001 8.99295L0.810829 12.9706L1.21083 12.9695L1.20001 8.99186L0.80001 8.99295ZM1.33525 8.46416C1.04634 8.46515 0.797693 8.69484 0.800016 8.99396L1.2 8.99086C1.19951 8.92769 1.25465 8.86444 1.33661 8.86416L1.33525 8.46416ZM2.7533 8.45965L1.33529 8.46416L1.33657 8.86416L2.75458 8.85964L2.7533 8.45965ZM2.54994 7.28221L2.55394 8.66023L2.95394 8.65906L2.94994 7.28105L2.54994 7.28221ZM2.70893 6.90596C2.60682 7.00529 2.54994 7.14006 2.54994 7.28163H2.94994C2.94994 7.24835 2.96294 7.2169 2.98785 7.19267L2.70893 6.90596ZM3.08727 6.75307C2.94669 6.75307 2.8094 6.80754 2.70843 6.90644L2.98834 7.19218C3.01266 7.16837 3.04868 7.15307 3.08727 7.15307V6.75307ZM5.79732 6.74666L3.08679 6.75307L3.08774 7.15307L5.79826 7.14666L5.79732 6.74666ZM5.79844 6.74666H5.79779V7.14666H5.79844V6.74666ZM6.33576 7.27292C6.3347 6.97737 6.08804 6.74666 5.79844 6.74666V7.14666C5.87841 7.14666 5.93553 7.20973 5.93577 7.27436L6.33576 7.27292ZM6.34236 9.67577L6.33577 7.27309L5.93577 7.27419L5.94237 9.67687L6.34236 9.67577ZM9.41827 9.46739L6.14182 9.47632L6.14291 9.87632L9.41936 9.86739L9.41827 9.46739ZM9.20856 9.63052L9.22218 9.70389L9.61546 9.63089L9.60184 9.55752L9.20856 9.63052ZM9.13172 9.11016C9.14502 9.29087 9.17809 9.46709 9.20859 9.63068L9.60181 9.55736C9.57063 9.39011 9.54204 9.23569 9.53065 9.08081L9.13172 9.11016ZM8.41501 8.64724C8.65611 8.87876 8.92999 9.08737 9.22802 9.26682L9.43435 8.92415C9.16072 8.75938 8.91075 8.56872 8.69206 8.35872L8.41501 8.64724ZM8.37677 2.15816C6.54663 3.95692 6.5637 6.86859 8.41497 8.64721L8.6921 8.35876C7.00326 6.7362 6.98788 4.0841 8.65716 2.44344L8.37677 2.15816ZM11.7013 0.801692C10.4428 0.808701 9.26227 1.28982 8.37694 2.158L8.657 2.4436C9.46675 1.64954 10.5471 1.20813 11.7035 1.20169L11.7013 0.801692ZM15.0412 2.12264C14.1475 1.26534 12.949 0.766317 11.6968 0.801769L11.7081 1.20161C12.8459 1.16939 13.9425 1.62295 14.7643 2.41129L15.0412 2.12264ZM15.6896 2.90583C15.5007 2.61902 15.2838 2.35552 15.0412 2.12268L14.7642 2.41125C14.984 2.62224 15.1821 2.86244 15.3555 3.12579L15.6896 2.90583ZM9.60294 3.35293C10.7606 2.21668 12.6577 2.20644 13.8273 3.32955L14.1043 3.04103C12.7787 1.76809 10.6348 1.7797 9.32275 3.06746L9.60294 3.35293ZM9.62675 7.4394C8.46036 6.31848 8.45021 4.48592 9.60304 3.35283L9.32265 3.06756C8.00903 4.35869 8.02074 6.45077 9.34958 7.72781L9.62675 7.4394ZM9.69272 7.49062C9.66003 7.46795 9.64115 7.45277 9.6244 7.43718L9.35193 7.73003C9.38667 7.76235 9.42167 7.78941 9.46472 7.81928L9.69272 7.49062ZM9.80797 7.54195C9.77203 7.54195 9.73787 7.5289 9.7118 7.50565L9.44564 7.80424C9.54592 7.89364 9.67513 7.94195 9.80797 7.94195V7.54195ZM9.85063 7.53593C9.83634 7.54003 9.82255 7.54195 9.80797 7.54195V7.94195C9.8598 7.94195 9.91071 7.93483 9.9609 7.92043L9.85063 7.53593ZM9.94258 7.44339C9.93212 7.48533 9.89843 7.52208 9.8501 7.53609L9.96144 7.92028C10.1422 7.86788 10.2847 7.72475 10.3307 7.54015L9.94258 7.44339ZM11.338 5.00237C10.6567 5.67211 10.1732 6.51661 9.94256 7.44348L10.3307 7.54006C10.5434 6.68512 10.9895 5.90584 11.6184 5.28761L11.338 5.00237ZM13.8334 3.61997C12.8824 3.85458 12.0217 4.33199 11.3381 5.00218L11.6182 5.2878C12.2495 4.66876 13.0463 4.22615 13.9292 4.00833L13.8334 3.61997ZM13.9271 3.52612C13.9128 3.57509 13.8753 3.60979 13.8341 3.6198L13.9285 4.0085C14.1193 3.96219 14.2598 3.81386 14.3111 3.63818L13.9271 3.52612ZM13.8926 3.40187C13.9272 3.43654 13.9386 3.48732 13.9273 3.52558L14.311 3.63872C14.3657 3.45318 14.3085 3.25241 14.1758 3.11939L13.8926 3.40187ZM13.856 3.3616C13.8653 3.37215 13.882 3.39116 13.8922 3.40151L14.1761 3.11975C14.1776 3.12116 14.1779 3.12159 14.1765 3.12006C14.1754 3.11884 14.1738 3.11706 14.1716 3.11463C14.1672 3.10972 14.1618 3.10368 14.1556 3.09667L13.856 3.3616ZM13.8576 3.36342L13.8576 3.36347L14.154 3.0948L14.1539 3.09474L13.8576 3.36342ZM13.8298 3.33193C13.8286 3.3308 13.8277 3.32993 13.8272 3.32945C13.8267 3.32895 13.8264 3.32862 13.8263 3.32852C13.8261 3.32835 13.8263 3.32859 13.8271 3.32937C13.8286 3.33096 13.8309 3.33344 13.834 3.3369C13.8403 3.34386 13.8478 3.35237 13.8559 3.36154L14.1556 3.09662C14.1449 3.08454 14.1181 3.05374 14.1018 3.03865L13.8298 3.33193ZM9.84519 6.83012C10.122 6.07737 10.5611 5.39313 11.1387 4.82722L10.8588 4.54148C10.2382 5.14944 9.7668 5.8843 9.46977 6.69208L9.84519 6.83012ZM9.80431 3.52818C8.8747 4.44036 8.77264 5.8534 9.49403 6.87636L9.82092 6.64584C9.21096 5.78087 9.29672 4.58666 10.0845 3.81369L9.80431 3.52818ZM13.2289 3.19057C12.1708 2.50402 10.7303 2.61872 9.80425 3.52824L10.0845 3.81363C10.8732 3.03906 12.106 2.93878 13.0111 3.52612L13.2289 3.19057ZM11.1391 4.82687C11.7141 4.26069 12.4144 3.82401 13.1876 3.5466L13.0525 3.1701C12.2262 3.46659 11.4759 3.93394 10.8585 4.54184L11.1391 4.82687ZM1.47521 9.31937L1.48538 12.6419L1.88537 12.6406L1.87521 9.31815L1.47521 9.31937ZM2.75595 9.11498L1.67451 9.11876L1.67591 9.51876L2.75735 9.51498L2.75595 9.11498ZM2.96617 12.6381L2.95665 9.31441L2.55665 9.31555L2.56617 12.6393L2.96617 12.6381ZM1.68584 12.8412L2.76663 12.8387L2.7657 12.4387L1.68491 12.4412L1.68584 12.8412ZM3.64536 14.3424L3.62589 7.60761L3.22589 7.60877L3.24537 14.3436L3.64536 14.3424ZM5.48067 14.1372L3.4448 14.143L3.44593 14.543L5.4818 14.5372L5.48067 14.1372ZM5.26241 7.6036L5.28123 14.3378L5.68123 14.3366L5.66241 7.60248L5.26241 7.6036ZM3.4264 7.80819L5.46291 7.80304L5.4619 7.40304L3.42539 7.40819L3.4264 7.80819ZM5.94356 10.333L5.94788 11.6048L6.34788 11.6034L6.34355 10.3316L5.94356 10.333ZM11.1451 10.1187L6.14301 10.1323L6.1441 10.5323L11.1461 10.5187L11.1451 10.1187ZM11.3488 11.5915L11.3456 10.3182L10.9456 10.3192L10.9488 11.5925L11.3488 11.5915ZM6.14837 11.8041L11.1493 11.792L11.1484 11.392L6.1474 11.4041L6.14837 11.8041ZM12.0315 14.32L12.0124 7.58556L11.6124 7.58669L11.6315 14.3212L12.0315 14.32ZM13.8673 14.1162L11.8311 14.1206L11.8319 14.5206L13.8681 14.5162L13.8673 14.1162ZM13.6487 7.58186L13.6677 14.3168L14.0677 14.3156L14.0487 7.58073L13.6487 7.58186ZM11.8128 7.78612L13.8491 7.78129L13.8482 7.38129L11.8119 7.38613L11.8128 7.78612ZM15.6092 9.08157L14.5268 9.08356L14.5276 9.48356L15.61 9.48157L15.6092 9.08157ZM15.8195 12.6048L15.8096 9.28097L15.4096 9.28216L15.4195 12.606L15.8195 12.6048ZM14.5382 12.8073L15.6198 12.8054L15.6191 12.4054L14.5375 12.4073L14.5382 12.8073ZM14.3272 9.2842L14.3378 12.6079L14.7378 12.6067L14.7272 9.28292L14.3272 9.2842ZM18.6928 12.066C17.6049 13.1335 16.1025 13.6424 14.5631 13.4656L14.5175 13.863C16.1744 14.0533 17.7972 13.5052 18.9729 12.3515L18.6928 12.066ZM18.6508 5.24808C20.6 7.11918 20.6181 10.1752 18.6927 12.0661L18.973 12.3515C21.0595 10.3023 21.0394 6.98659 18.9278 4.95952L18.6508 5.24808ZM15.309 3.86097C16.5729 3.89892 17.7593 4.39226 18.6508 5.24809L18.9278 4.95952C17.9632 4.03353 16.6818 3.50201 15.321 3.46115L15.309 3.86097ZM14.8624 3.60003C14.9564 3.75825 15.1266 3.85502 15.3085 3.86095L15.3215 3.46117C15.2715 3.45953 15.2283 3.43273 15.2063 3.39573L14.8624 3.60003ZM14.2885 2.87567C14.5065 3.08494 14.7003 3.32899 14.8627 3.60055L15.206 3.39522C15.0259 3.09413 14.8101 2.82186 14.5655 2.58709L14.2885 2.87567ZM11.7268 1.85555C12.6952 1.85555 13.6031 2.21815 14.2886 2.87571L14.5655 2.58705C13.8043 1.85682 12.7966 1.45555 11.7268 1.45555V1.85555ZM11.7044 1.85555H11.7268V1.45555H11.7044V1.85555ZM9.136 2.90344C9.81741 2.23369 10.7291 1.86134 11.7056 1.85555L11.7032 1.45556C10.625 1.46195 9.61287 1.87386 8.85561 2.61817L9.136 2.90344ZM9.16498 7.89202C7.74037 6.52345 7.72765 4.28734 9.13598 2.90346L8.85563 2.61815C7.28643 4.1601 7.30076 6.6558 8.88787 8.18048L9.16498 7.89202ZM9.92025 8.44381C9.63577 8.28666 9.38163 8.10036 9.16505 7.89209L8.88779 8.18042C9.13101 8.41429 9.4137 8.62096 9.72684 8.79394L9.92025 8.44381ZM10.1933 8.88022C10.1848 8.69622 10.0792 8.53229 9.92082 8.44413L9.72627 8.79363C9.7676 8.81663 9.79183 8.85759 9.79372 8.89866L10.1933 8.88022ZM10.2883 9.62665C10.2391 9.37844 10.2031 9.12898 10.1934 8.88157L9.79366 8.8973C9.80448 9.1721 9.8442 9.44338 9.89588 9.70435L10.2883 9.62665ZM11.1426 9.46308L10.0916 9.4655L10.0925 9.8655L11.1436 9.86308L11.1426 9.46308ZM10.9365 7.26116L10.9431 9.66363L11.3431 9.66253L11.3365 7.26006L10.9365 7.26116ZM11.0954 6.88502C10.9929 6.98438 10.9365 7.11986 10.9365 7.26061H11.3365C11.3365 7.22716 11.3497 7.19557 11.3738 7.1722L11.0954 6.88502ZM11.4737 6.73226C11.3323 6.73226 11.1963 6.78657 11.0949 6.8855L11.3743 7.17173C11.3996 7.14709 11.4347 7.13226 11.4737 7.13226V6.73226ZM14.184 6.72575L11.4732 6.73226L11.4742 7.13226L14.1849 7.12575L14.184 6.72575ZM14.7217 7.25263C14.7217 6.95624 14.4747 6.72575 14.1845 6.72575V7.12575C14.2657 7.12575 14.3217 7.18883 14.3217 7.25263H14.7217ZM14.7256 8.62924L14.7217 7.25206L14.3217 7.25319L14.3256 8.63037L14.7256 8.62924ZM15.945 8.42718L14.5252 8.42981L14.5259 8.8298L15.9457 8.82718L15.945 8.42718ZM15.946 8.42718H15.9453V8.82718H15.946V8.42718ZM16.4832 8.95344C16.4821 8.65966 16.2374 8.42718 15.946 8.42718V8.82718C16.0261 8.82718 16.083 8.89037 16.0832 8.95489L16.4832 8.95344ZM16.4938 12.9325L16.4832 8.95363L16.0832 8.9547L16.0938 12.9336L16.4938 12.9325ZM16.335 13.3081C16.4371 13.2089 16.4938 13.074 16.4938 12.933H16.0938C16.0938 12.966 16.0808 12.9974 16.0563 13.0211L16.335 13.3081ZM15.9566 13.4613C16.0978 13.4613 16.2335 13.4067 16.335 13.3081L16.0563 13.0211C16.03 13.0467 15.9945 13.0613 15.9566 13.0613V13.4613ZM14.5392 13.4638L15.9569 13.4613L15.9562 13.0613L14.5385 13.0638L14.5392 13.4638ZM14.7403 13.6636L14.7389 13.2631L14.3389 13.2645L14.3403 13.665L14.7403 13.6636Z" fill="#8D8D8D"/>
</svg>
