<svg width="31" height="31" viewBox="0 0 31 31" fill="none" xmlns="http://www.w3.org/2000/svg">
<path fill-rule="evenodd" clip-rule="evenodd" d="M30.3104 14.4483L15.736 1L1.1622 14.4483C0.956906 14.6382 0.94471 14.9578 1.13578 15.1623C1.32582 15.3664 1.6485 15.378 1.8538 15.1886L3.54035 13.6323V30.4725H11.6708H19.8012H27.9317V13.6318L29.6183 15.1881C29.7158 15.2785 29.8403 15.3229 29.9643 15.3229C30.101 15.3229 30.2367 15.2689 30.3363 15.1618C30.5278 14.9578 30.5157 14.6382 30.3104 14.4483ZM12.687 29.4625V21.383C12.687 19.7121 14.0545 18.3532 15.736 18.3532C17.4174 18.3532 18.7849 19.7121 18.7849 21.383V29.4625H12.687ZM19.8013 29.4625H26.9154V12.6941L15.736 2.37806L4.55667 12.6941V29.4625H11.6708V21.3831C11.6708 19.1556 13.4946 17.3433 15.736 17.3433C17.9775 17.3433 19.8013 19.1556 19.8013 21.3831V29.4625Z" fill="#8D8D8D"/>
<path d="M15.736 1L16.0751 0.632537L15.736 0.319655L15.3969 0.632542L15.736 1ZM30.3104 14.4483L30.6498 14.0812L30.6494 14.0809L30.3104 14.4483ZM1.1622 14.4483L0.82312 14.0809L0.822706 14.0812L1.1622 14.4483ZM1.13578 15.1623L1.50162 14.8215L1.50114 14.821L1.13578 15.1623ZM1.8538 15.1886L2.1928 15.5561L2.19288 15.5561L1.8538 15.1886ZM3.54035 13.6323H4.04035V12.4906L3.20128 13.2648L3.54035 13.6323ZM3.54035 30.4725H3.04035V30.9725H3.54035V30.4725ZM27.9317 30.4725V30.9725H28.4317V30.4725H27.9317ZM27.9317 13.6318L28.2708 13.2643L27.4317 12.49V13.6318H27.9317ZM29.6183 15.1881L29.9581 14.8213L29.9573 14.8206L29.6183 15.1881ZM30.3363 15.1618L29.9718 14.8196L29.9702 14.8213L30.3363 15.1618ZM12.687 29.4625H12.187V29.9625H12.687V29.4625ZM18.7849 29.4625V29.9625H19.2849V29.4625H18.7849ZM26.9154 29.4625V29.9625H27.4154V29.4625H26.9154ZM19.8013 29.4625H19.3013V29.9625H19.8013V29.4625ZM26.9154 12.6941H27.4154V12.4751L27.2545 12.3266L26.9154 12.6941ZM15.736 2.37806L16.0751 2.0106L15.736 1.69771L15.3969 2.0106L15.736 2.37806ZM4.55667 12.6941L4.21759 12.3266L4.05667 12.4751V12.6941H4.55667ZM4.55667 29.4625H4.05667V29.9625H4.55667V29.4625ZM11.6708 29.4625V29.9625H12.1708V29.4625H11.6708ZM15.397 1.36746L29.9713 14.8158L30.6494 14.0809L16.0751 0.632537L15.397 1.36746ZM1.50128 14.8158L16.0751 1.36746L15.3969 0.632542L0.82312 14.0809L1.50128 14.8158ZM1.50114 14.821C1.4998 14.8196 1.49926 14.8176 1.50169 14.8154L0.822706 14.0812C0.414547 14.4587 0.389616 15.0961 0.770414 15.5037L1.50114 14.821ZM1.51479 14.8211C1.51371 14.8221 1.51308 14.8224 1.51236 14.8226C1.5113 14.823 1.50951 14.8234 1.50725 14.8233C1.505 14.8232 1.50346 14.8227 1.50279 14.8224C1.50246 14.8223 1.50226 14.8222 1.50162 14.8215L0.769928 15.5032C1.14851 15.9095 1.78627 15.9311 2.1928 15.5561L1.51479 14.8211ZM3.20128 13.2648L1.51472 14.8211L2.19288 15.5561L3.87943 13.9997L3.20128 13.2648ZM4.04035 30.4725V13.6323H3.04035V30.4725H4.04035ZM11.6708 29.9725H3.54035V30.9725H11.6708V29.9725ZM19.8012 29.9725H11.6708V30.9725H19.8012V29.9725ZM27.9317 29.9725H19.8012V30.9725H27.9317V29.9725ZM27.4317 13.6318V30.4725H28.4317V13.6318H27.4317ZM29.9573 14.8206L28.2708 13.2643L27.5926 13.9992L29.2792 15.5556L29.9573 14.8206ZM29.9643 14.8229C29.9619 14.8229 29.9602 14.8225 29.9594 14.8222C29.9589 14.822 29.9587 14.8219 29.9581 14.8213L29.2784 15.5549C29.4734 15.7355 29.7213 15.8229 29.9643 15.8229V14.8229ZM29.9702 14.8213C29.9694 14.8221 29.9693 14.8221 29.9691 14.8222C29.9686 14.8224 29.9669 14.8229 29.9643 14.8229V15.8229C30.2326 15.8229 30.5033 15.7164 30.7023 15.5024L29.9702 14.8213ZM29.9709 14.8154C29.9735 14.8178 29.9722 14.8191 29.9718 14.8196L30.7008 15.5041C31.0834 15.0966 31.0578 14.4586 30.6498 14.0812L29.9709 14.8154ZM12.187 21.383V29.4625H13.187V21.383H12.187ZM15.736 17.8532C13.7813 17.8532 12.187 19.433 12.187 21.383H13.187C13.187 19.9912 14.3277 18.8532 15.736 18.8532V17.8532ZM19.2849 21.383C19.2849 19.433 17.6906 17.8532 15.736 17.8532V18.8532C17.1443 18.8532 18.2849 19.9912 18.2849 21.383H19.2849ZM19.2849 29.4625V21.383H18.2849V29.4625H19.2849ZM12.687 29.9625H18.7849V28.9625H12.687V29.9625ZM26.9154 28.9625H19.8013V29.9625H26.9154V28.9625ZM26.4154 12.6941V29.4625H27.4154V12.6941H26.4154ZM15.3969 2.74552L26.5763 13.0615L27.2545 12.3266L16.0751 2.0106L15.3969 2.74552ZM4.89574 13.0615L16.0751 2.74552L15.3969 2.0106L4.21759 12.3266L4.89574 13.0615ZM5.05667 29.4625V12.6941H4.05667V29.4625H5.05667ZM11.6708 28.9625H4.55667V29.9625H11.6708V28.9625ZM11.1708 21.3831V29.4625H12.1708V21.3831H11.1708ZM15.736 16.8433C13.2214 16.8433 11.1708 18.8765 11.1708 21.3831H12.1708C12.1708 19.4347 13.7677 17.8433 15.736 17.8433V16.8433ZM20.3013 21.3831C20.3013 18.8765 18.2507 16.8433 15.736 16.8433V17.8433C17.7043 17.8433 19.3013 19.4347 19.3013 21.3831H20.3013ZM20.3013 29.4625V21.3831H19.3013V29.4625H20.3013Z" fill="#8D8D8D"/>
</svg>
