<svg width="21" height="21" viewBox="0 0 21 21" fill="none" xmlns="http://www.w3.org/2000/svg">
<g clip-path="url(#clip0)">
<mask id="path-1-outside-1" maskUnits="userSpaceOnUse" x="1.375" y="0.179199" width="20" height="21" fill="black">
<rect fill="white" x="1.375" y="0.179199" width="20" height="21"/>
<path d="M15.3144 8.85321L16.5142 8.77915C16.5163 8.779 16.5184 8.77885 16.5206 8.77869C17.3757 8.70843 18.1431 8.27209 18.6264 7.58125L19.5749 6.22566C20.4005 5.04551 20.7204 3.6201 20.4753 2.21215C20.4271 1.93563 20.2819 1.68082 20.0666 1.4949C19.8512 1.30883 19.5741 1.19895 19.2865 1.1856C17.8217 1.1173 16.4078 1.59765 15.3041 2.53754L14.0362 3.61737C13.3901 4.16753 13.0374 4.96204 13.0683 5.79752C13.0684 5.79949 13.0684 5.80162 13.0686 5.80374L13.137 6.97281C13.1636 7.42857 12.9921 7.87825 12.6672 8.20577L2.76181 18.1183C2.49664 18.3877 2.35969 18.7573 2.37636 19.159C2.39475 19.6013 2.60305 20.0356 2.93366 20.3211C3.23232 20.5789 3.64286 20.7259 4.05323 20.7259C4.09717 20.7259 4.1411 20.7242 4.18488 20.7207C4.59635 20.6887 4.95671 20.512 5.2007 20.2215L14.1135 9.45603C14.4091 9.10181 14.8469 8.88205 15.3144 8.85321ZM13.6377 9.08086L4.72566 19.8455C4.58949 20.0075 4.3801 20.1074 4.13612 20.1264C3.84586 20.149 3.54829 20.0549 3.33983 19.8749C3.13137 19.6947 2.99987 19.4182 2.98819 19.1349C2.97821 18.8968 3.05471 18.6823 3.2021 18.5327L13.1067 8.62085C13.5508 8.17329 13.7845 7.5603 13.7483 6.93896L13.6799 5.77293C13.6567 5.11896 13.9333 4.49717 14.4391 4.0663L15.707 2.98647C16.6911 2.14856 17.9521 1.72073 19.2574 1.78113C19.406 1.78812 19.5491 1.84488 19.6605 1.9411C19.7719 2.03717 19.8468 2.1689 19.8717 2.31171C20.0901 3.56699 19.805 4.83759 19.069 5.88964L18.1205 7.24538C17.7421 7.78628 17.1415 8.12822 16.4722 8.18422L15.2756 8.25798C14.6381 8.29744 14.0414 8.59703 13.6377 9.08086Z"/>
</mask>
<path d="M15.3144 8.85321L16.5142 8.77915C16.5163 8.779 16.5184 8.77885 16.5206 8.77869C17.3757 8.70843 18.1431 8.27209 18.6264 7.58125L19.5749 6.22566C20.4005 5.04551 20.7204 3.6201 20.4753 2.21215C20.4271 1.93563 20.2819 1.68082 20.0666 1.4949C19.8512 1.30883 19.5741 1.19895 19.2865 1.1856C17.8217 1.1173 16.4078 1.59765 15.3041 2.53754L14.0362 3.61737C13.3901 4.16753 13.0374 4.96204 13.0683 5.79752C13.0684 5.79949 13.0684 5.80162 13.0686 5.80374L13.137 6.97281C13.1636 7.42857 12.9921 7.87825 12.6672 8.20577L2.76181 18.1183C2.49664 18.3877 2.35969 18.7573 2.37636 19.159C2.39475 19.6013 2.60305 20.0356 2.93366 20.3211C3.23232 20.5789 3.64286 20.7259 4.05323 20.7259C4.09717 20.7259 4.1411 20.7242 4.18488 20.7207C4.59635 20.6887 4.95671 20.512 5.2007 20.2215L14.1135 9.45603C14.4091 9.10181 14.8469 8.88205 15.3144 8.85321ZM13.6377 9.08086L4.72566 19.8455C4.58949 20.0075 4.3801 20.1074 4.13612 20.1264C3.84586 20.149 3.54829 20.0549 3.33983 19.8749C3.13137 19.6947 2.99987 19.4182 2.98819 19.1349C2.97821 18.8968 3.05471 18.6823 3.2021 18.5327L13.1067 8.62085C13.5508 8.17329 13.7845 7.5603 13.7483 6.93896L13.6799 5.77293C13.6567 5.11896 13.9333 4.49717 14.4391 4.0663L15.707 2.98647C16.6911 2.14856 17.9521 1.72073 19.2574 1.78113C19.406 1.78812 19.5491 1.84488 19.6605 1.9411C19.7719 2.03717 19.8468 2.1689 19.8717 2.31171C20.0901 3.56699 19.805 4.83759 19.069 5.88964L18.1205 7.24538C17.7421 7.78628 17.1415 8.12822 16.4722 8.18422L15.2756 8.25798C14.6381 8.29744 14.0414 8.59703 13.6377 9.08086Z" fill="#8D8D8D"/>
<path d="M15.3144 8.85321L16.5142 8.77915C16.5163 8.779 16.5184 8.77885 16.5206 8.77869C17.3757 8.70843 18.1431 8.27209 18.6264 7.58125L19.5749 6.22566C20.4005 5.04551 20.7204 3.6201 20.4753 2.21215C20.4271 1.93563 20.2819 1.68082 20.0666 1.4949C19.8512 1.30883 19.5741 1.19895 19.2865 1.1856C17.8217 1.1173 16.4078 1.59765 15.3041 2.53754L14.0362 3.61737C13.3901 4.16753 13.0374 4.96204 13.0683 5.79752C13.0684 5.79949 13.0684 5.80162 13.0686 5.80374L13.137 6.97281C13.1636 7.42857 12.9921 7.87825 12.6672 8.20577L2.76181 18.1183C2.49664 18.3877 2.35969 18.7573 2.37636 19.159C2.39475 19.6013 2.60305 20.0356 2.93366 20.3211C3.23232 20.5789 3.64286 20.7259 4.05323 20.7259C4.09717 20.7259 4.1411 20.7242 4.18488 20.7207C4.59635 20.6887 4.95671 20.512 5.2007 20.2215L14.1135 9.45603C14.4091 9.10181 14.8469 8.88205 15.3144 8.85321ZM13.6377 9.08086L4.72566 19.8455C4.58949 20.0075 4.3801 20.1074 4.13612 20.1264C3.84586 20.149 3.54829 20.0549 3.33983 19.8749C3.13137 19.6947 2.99987 19.4182 2.98819 19.1349C2.97821 18.8968 3.05471 18.6823 3.2021 18.5327L13.1067 8.62085C13.5508 8.17329 13.7845 7.5603 13.7483 6.93896L13.6799 5.77293C13.6567 5.11896 13.9333 4.49717 14.4391 4.0663L15.707 2.98647C16.6911 2.14856 17.9521 1.72073 19.2574 1.78113C19.406 1.78812 19.5491 1.84488 19.6605 1.9411C19.7719 2.03717 19.8468 2.1689 19.8717 2.31171C20.0901 3.56699 19.805 4.83759 19.069 5.88964L18.1205 7.24538C17.7421 7.78628 17.1415 8.12822 16.4722 8.18422L15.2756 8.25798C14.6381 8.29744 14.0414 8.59703 13.6377 9.08086Z" stroke="#8D8D8D" stroke-width="0.5" mask="url(#path-1-outside-1)"/>
<mask id="path-2-outside-2" maskUnits="userSpaceOnUse" x="10.6885" y="11.0723" width="11" height="10" fill="black">
<rect fill="white" x="10.6885" y="11.0723" width="11" height="10"/>
<path d="M19.9897 18.0427L13.3481 12.15C13.2232 12.0391 13.0297 12.0479 12.9156 12.1696C12.8019 12.2913 12.8109 12.48 12.9359 12.5909L19.5758 18.4823C19.7337 18.6245 19.8233 18.8341 19.8282 19.0723C19.8339 19.3558 19.7197 19.6395 19.5226 19.8315C19.3257 20.0233 19.035 20.1349 18.7433 20.1291C18.4987 20.1244 18.2836 20.0371 18.1391 19.8849L12.2209 13.5556C12.107 13.4337 11.9134 13.4251 11.7884 13.5358C11.6635 13.6468 11.6544 13.8354 11.7683 13.9571L17.6879 20.288C17.9481 20.5621 18.3186 20.7175 18.7313 20.7254C18.7421 20.7255 18.7527 20.7257 18.7634 20.7257C19.207 20.7257 19.6505 20.5504 19.9554 20.2532C20.268 19.9488 20.4492 19.5031 20.4401 19.0606C20.432 18.6586 20.2726 18.2977 19.9897 18.0427Z"/>
</mask>
<path d="M19.9897 18.0427L13.3481 12.15C13.2232 12.0391 13.0297 12.0479 12.9156 12.1696C12.8019 12.2913 12.8109 12.48 12.9359 12.5909L19.5758 18.4823C19.7337 18.6245 19.8233 18.8341 19.8282 19.0723C19.8339 19.3558 19.7197 19.6395 19.5226 19.8315C19.3257 20.0233 19.035 20.1349 18.7433 20.1291C18.4987 20.1244 18.2836 20.0371 18.1391 19.8849L12.2209 13.5556C12.107 13.4337 11.9134 13.4251 11.7884 13.5358C11.6635 13.6468 11.6544 13.8354 11.7683 13.9571L17.6879 20.288C17.9481 20.5621 18.3186 20.7175 18.7313 20.7254C18.7421 20.7255 18.7527 20.7257 18.7634 20.7257C19.207 20.7257 19.6505 20.5504 19.9554 20.2532C20.268 19.9488 20.4492 19.5031 20.4401 19.0606C20.432 18.6586 20.2726 18.2977 19.9897 18.0427Z" fill="#8D8D8D"/>
<path d="M19.9897 18.0427L13.3481 12.15C13.2232 12.0391 13.0297 12.0479 12.9156 12.1696C12.8019 12.2913 12.8109 12.48 12.9359 12.5909L19.5758 18.4823C19.7337 18.6245 19.8233 18.8341 19.8282 19.0723C19.8339 19.3558 19.7197 19.6395 19.5226 19.8315C19.3257 20.0233 19.035 20.1349 18.7433 20.1291C18.4987 20.1244 18.2836 20.0371 18.1391 19.8849L12.2209 13.5556C12.107 13.4337 11.9134 13.4251 11.7884 13.5358C11.6635 13.6468 11.6544 13.8354 11.7683 13.9571L17.6879 20.288C17.9481 20.5621 18.3186 20.7175 18.7313 20.7254C18.7421 20.7255 18.7527 20.7257 18.7634 20.7257C19.207 20.7257 19.6505 20.5504 19.9554 20.2532C20.268 19.9488 20.4492 19.5031 20.4401 19.0606C20.432 18.6586 20.2726 18.2977 19.9897 18.0427Z" stroke="#8D8D8D" stroke-width="0.5" mask="url(#path-2-outside-2)"/>
<mask id="path-3-outside-3" maskUnits="userSpaceOnUse" x="-0.865234" y="-0.0556641" width="12" height="12" fill="black">
<rect fill="white" x="-0.865234" y="-0.0556641" width="12" height="12"/>
<path d="M3.82844 8.79593C4.3351 9.25062 4.99335 9.50984 5.68198 9.52593C5.68417 9.52608 5.68635 9.52608 5.68837 9.52608L6.89052 9.52973C7.35917 9.53109 7.80958 9.7249 8.1257 10.0605L8.65526 10.6267C8.71571 10.6914 8.79844 10.7241 8.88164 10.7241C8.95518 10.7241 9.02903 10.6985 9.08761 10.6464C9.21271 10.5355 9.22175 10.3468 9.10786 10.2251L8.57752 9.65812C8.14564 9.19948 7.53148 8.9354 6.89255 8.93328L5.69367 8.92964C5.16099 8.91643 4.65168 8.71777 4.25704 8.36976L0.773208 4.33547C0.737686 4.29419 0.740335 4.2344 0.77944 4.1963C0.806238 4.17005 0.837709 4.16625 0.854068 4.16625C0.870427 4.16625 0.901899 4.17005 0.928852 4.1963L4.1 7.28553C4.41346 7.59089 4.92355 7.59089 5.23702 7.28538L5.60969 6.92251V6.92235L6.27137 6.2778C6.27137 6.2778 6.27153 6.2778 6.27153 6.27765L6.27169 6.27749L6.6442 5.91462C6.95767 5.60926 6.95767 5.11237 6.6442 4.80702L3.47306 1.71793C3.43193 1.67787 3.43193 1.61245 3.47306 1.57239C3.51216 1.53429 3.57355 1.53171 3.61593 1.56632L7.75739 4.96015C8.11479 5.34443 8.31874 5.84071 8.33229 6.35945L8.33587 7.52745C8.33806 8.1497 8.6093 8.74797 9.08075 9.16958L9.64817 9.67299C9.77328 9.78394 9.96678 9.77513 10.0807 9.65342C10.1944 9.53155 10.1854 9.34305 10.0604 9.23211L9.49393 8.72945C9.14852 8.42076 8.94972 7.98185 8.94817 7.52548L8.94443 6.35444C8.94443 6.35231 8.94443 6.35019 8.94427 6.34807C8.92776 5.67725 8.66165 5.03603 8.19488 4.54248C8.18615 4.53323 8.1768 4.52442 8.16683 4.51623L4.00994 1.10995C3.72265 0.874408 3.30573 0.892013 3.04025 1.15063C2.76028 1.42335 2.76028 1.86697 3.04025 2.13954L6.21139 5.22878C6.28618 5.30163 6.28618 5.42016 6.21139 5.49301L6.05512 5.64508L2.52081 2.20238C2.40131 2.08582 2.2075 2.08582 2.088 2.20238C1.9685 2.31878 1.9685 2.50758 2.088 2.62399L5.62231 6.06684L5.39329 6.28979L1.85898 2.84709C1.73948 2.73068 1.54566 2.73068 1.42616 2.84709C1.30651 2.96349 1.30651 3.15229 1.42616 3.2687L4.96032 6.71155L4.80421 6.86377C4.72943 6.93662 4.60775 6.93662 4.53296 6.86377L1.36166 3.77469C1.22612 3.64265 1.04586 3.5698 0.854068 3.5698C0.662279 3.5698 0.482019 3.64265 0.346474 3.77469C0.0809911 4.0333 0.0630741 4.43943 0.304719 4.71945L3.80164 8.76861C3.8099 8.77832 3.81893 8.78743 3.82844 8.79593Z"/>
</mask>
<path d="M3.82844 8.79593C4.3351 9.25062 4.99335 9.50984 5.68198 9.52593C5.68417 9.52608 5.68635 9.52608 5.68837 9.52608L6.89052 9.52973C7.35917 9.53109 7.80958 9.7249 8.1257 10.0605L8.65526 10.6267C8.71571 10.6914 8.79844 10.7241 8.88164 10.7241C8.95518 10.7241 9.02903 10.6985 9.08761 10.6464C9.21271 10.5355 9.22175 10.3468 9.10786 10.2251L8.57752 9.65812C8.14564 9.19948 7.53148 8.9354 6.89255 8.93328L5.69367 8.92964C5.16099 8.91643 4.65168 8.71777 4.25704 8.36976L0.773208 4.33547C0.737686 4.29419 0.740335 4.2344 0.77944 4.1963C0.806238 4.17005 0.837709 4.16625 0.854068 4.16625C0.870427 4.16625 0.901899 4.17005 0.928852 4.1963L4.1 7.28553C4.41346 7.59089 4.92355 7.59089 5.23702 7.28538L5.60969 6.92251V6.92235L6.27137 6.2778C6.27137 6.2778 6.27153 6.2778 6.27153 6.27765L6.27169 6.27749L6.6442 5.91462C6.95767 5.60926 6.95767 5.11237 6.6442 4.80702L3.47306 1.71793C3.43193 1.67787 3.43193 1.61245 3.47306 1.57239C3.51216 1.53429 3.57355 1.53171 3.61593 1.56632L7.75739 4.96015C8.11479 5.34443 8.31874 5.84071 8.33229 6.35945L8.33587 7.52745C8.33806 8.1497 8.6093 8.74797 9.08075 9.16958L9.64817 9.67299C9.77328 9.78394 9.96678 9.77513 10.0807 9.65342C10.1944 9.53155 10.1854 9.34305 10.0604 9.23211L9.49393 8.72945C9.14852 8.42076 8.94972 7.98185 8.94817 7.52548L8.94443 6.35444C8.94443 6.35231 8.94443 6.35019 8.94427 6.34807C8.92776 5.67725 8.66165 5.03603 8.19488 4.54248C8.18615 4.53323 8.1768 4.52442 8.16683 4.51623L4.00994 1.10995C3.72265 0.874408 3.30573 0.892013 3.04025 1.15063C2.76028 1.42335 2.76028 1.86697 3.04025 2.13954L6.21139 5.22878C6.28618 5.30163 6.28618 5.42016 6.21139 5.49301L6.05512 5.64508L2.52081 2.20238C2.40131 2.08582 2.2075 2.08582 2.088 2.20238C1.9685 2.31878 1.9685 2.50758 2.088 2.62399L5.62231 6.06684L5.39329 6.28979L1.85898 2.84709C1.73948 2.73068 1.54566 2.73068 1.42616 2.84709C1.30651 2.96349 1.30651 3.15229 1.42616 3.2687L4.96032 6.71155L4.80421 6.86377C4.72943 6.93662 4.60775 6.93662 4.53296 6.86377L1.36166 3.77469C1.22612 3.64265 1.04586 3.5698 0.854068 3.5698C0.662279 3.5698 0.482019 3.64265 0.346474 3.77469C0.0809911 4.0333 0.0630741 4.43943 0.304719 4.71945L3.80164 8.76861C3.8099 8.77832 3.81893 8.78743 3.82844 8.79593Z" fill="#8D8D8D"/>
<path d="M3.82844 8.79593C4.3351 9.25062 4.99335 9.50984 5.68198 9.52593C5.68417 9.52608 5.68635 9.52608 5.68837 9.52608L6.89052 9.52973C7.35917 9.53109 7.80958 9.7249 8.1257 10.0605L8.65526 10.6267C8.71571 10.6914 8.79844 10.7241 8.88164 10.7241C8.95518 10.7241 9.02903 10.6985 9.08761 10.6464C9.21271 10.5355 9.22175 10.3468 9.10786 10.2251L8.57752 9.65812C8.14564 9.19948 7.53148 8.9354 6.89255 8.93328L5.69367 8.92964C5.16099 8.91643 4.65168 8.71777 4.25704 8.36976L0.773208 4.33547C0.737686 4.29419 0.740335 4.2344 0.77944 4.1963C0.806238 4.17005 0.837709 4.16625 0.854068 4.16625C0.870427 4.16625 0.901899 4.17005 0.928852 4.1963L4.1 7.28553C4.41346 7.59089 4.92355 7.59089 5.23702 7.28538L5.60969 6.92251V6.92235L6.27137 6.2778C6.27137 6.2778 6.27153 6.2778 6.27153 6.27765L6.27169 6.27749L6.6442 5.91462C6.95767 5.60926 6.95767 5.11237 6.6442 4.80702L3.47306 1.71793C3.43193 1.67787 3.43193 1.61245 3.47306 1.57239C3.51216 1.53429 3.57355 1.53171 3.61593 1.56632L7.75739 4.96015C8.11479 5.34443 8.31874 5.84071 8.33229 6.35945L8.33587 7.52745C8.33806 8.1497 8.6093 8.74797 9.08075 9.16958L9.64817 9.67299C9.77328 9.78394 9.96678 9.77513 10.0807 9.65342C10.1944 9.53155 10.1854 9.34305 10.0604 9.23211L9.49393 8.72945C9.14852 8.42076 8.94972 7.98185 8.94817 7.52548L8.94443 6.35444C8.94443 6.35231 8.94443 6.35019 8.94427 6.34807C8.92776 5.67725 8.66165 5.03603 8.19488 4.54248C8.18615 4.53323 8.1768 4.52442 8.16683 4.51623L4.00994 1.10995C3.72265 0.874408 3.30573 0.892013 3.04025 1.15063C2.76028 1.42335 2.76028 1.86697 3.04025 2.13954L6.21139 5.22878C6.28618 5.30163 6.28618 5.42016 6.21139 5.49301L6.05512 5.64508L2.52081 2.20238C2.40131 2.08582 2.2075 2.08582 2.088 2.20238C1.9685 2.31878 1.9685 2.50758 2.088 2.62399L5.62231 6.06684L5.39329 6.28979L1.85898 2.84709C1.73948 2.73068 1.54566 2.73068 1.42616 2.84709C1.30651 2.96349 1.30651 3.15229 1.42616 3.2687L4.96032 6.71155L4.80421 6.86377C4.72943 6.93662 4.60775 6.93662 4.53296 6.86377L1.36166 3.77469C1.22612 3.64265 1.04586 3.5698 0.854068 3.5698C0.662279 3.5698 0.482019 3.64265 0.346474 3.77469C0.0809911 4.0333 0.0630741 4.43943 0.304719 4.71945L3.80164 8.76861C3.8099 8.77832 3.81893 8.78743 3.82844 8.79593Z" stroke="#8D8D8D" stroke-width="0.5" mask="url(#path-3-outside-3)"/>
</g>
<defs>
<clipPath id="clip0">
<rect width="20.4209" height="19.8537" fill="white" transform="translate(0.134766 0.886719)"/>
</clipPath>
</defs>
</svg>
