<svg width="35" height="35" viewBox="0 0 35 35" fill="none" xmlns="http://www.w3.org/2000/svg">
<path d="M32.5342 34.4479C32.8488 34.2863 33.1942 34.1662 33.4733 33.9549C34.0508 33.5116 34.3486 32.9127 34.3486 32.1589C34.3399 29.387 34.3486 26.6152 34.3446 23.8426C34.3474 23.5434 34.2905 23.2467 34.1774 22.9698C34.0642 22.6928 33.897 22.4411 33.6855 22.2295C33.474 22.0178 33.2225 21.8504 32.9455 21.737C32.6686 21.6236 32.3719 21.5665 32.0727 21.569C31.1891 21.569 30.3059 21.569 29.4232 21.569C28.2158 21.5731 27.1995 22.575 27.1848 23.7822C27.1761 24.4616 27.1848 25.1417 27.1848 25.8405H17.1735C17.1735 25.2014 17.1333 24.5663 17.1822 23.9358C17.2782 22.6877 16.0768 21.4705 14.7909 21.5576C13.9458 21.6146 13.0932 21.5657 12.242 21.569C11.0688 21.5731 10.0285 22.5516 10.0177 23.7239C9.99828 26.5736 10.0043 29.4246 10.0177 32.2736C10.0218 33.1656 10.6462 33.9871 11.5082 34.3178C11.6095 34.3567 11.7094 34.403 11.8087 34.4452H15.3638C15.4002 34.4218 15.4386 34.4016 15.4785 34.3848C16.5578 34.0462 17.1735 33.2145 17.1749 32.0932V30.1791H27.1841C27.1841 30.8612 27.1841 31.5204 27.1841 32.1777C27.1808 32.8168 27.3968 33.3795 27.8797 33.7873C28.2037 34.0589 28.6102 34.2326 28.9798 34.4499L32.5342 34.4479ZM30.0523 33.0227H29.501C28.7973 33.0227 28.629 32.853 28.629 32.1582C28.629 29.3767 28.629 26.5953 28.629 23.8138C28.629 23.1833 28.8114 23.0003 29.4493 22.9969C30.3213 22.9929 31.1933 22.9969 32.0653 22.9969C32.7307 22.9969 32.9206 23.1887 32.9206 23.8574C32.9206 26.6165 32.9206 29.3756 32.9206 32.1348C32.9206 32.2897 32.9313 32.4641 32.8669 32.5948C32.7951 32.741 32.6596 32.9255 32.5221 32.955C32.1941 33.022 31.8514 33.0133 31.4737 33.0368V24.4576H30.0557L30.0523 33.0227ZM12.886 33.0227H12.3701C11.5947 33.0174 11.4559 32.8799 11.4552 32.0992C11.4552 29.3392 11.4552 26.5796 11.4552 23.8205C11.4552 23.1867 11.639 23.0009 12.2709 22.9976C13.1429 22.9935 14.0149 22.9935 14.8869 22.9976C15.5576 22.9976 15.7495 23.1854 15.7468 23.8527C15.7421 24.8017 15.7166 25.7507 15.718 26.6997C15.718 28.3971 15.7401 30.0946 15.7475 31.7927C15.7522 32.9637 15.5999 33.0978 14.4267 33.016C14.3843 33.0035 14.3437 32.9855 14.306 32.9624V24.4563H12.8907L12.886 33.0227ZM17.1829 27.3133H27.1513V28.7063H17.1849L17.1829 27.3133Z" fill="#8D8D8D"/>
<path d="M0.00182152 26.9365C0.251348 27.3389 0.457945 27.7761 0.762476 28.1289C1.11664 28.5394 1.62442 28.7265 2.17109 28.7285C4.23976 28.7345 6.30774 28.7285 8.37573 28.7285C8.43006 28.7285 8.4844 28.7204 8.56221 28.7144V27.2859H2.2858C1.60496 27.2859 1.42587 27.1115 1.42587 26.4402C1.42587 20.203 1.42587 13.9658 1.42587 7.72857V7.26782H6.12127C6.94363 7.26782 7.16029 7.05186 7.15962 6.24237C7.15962 4.80044 7.15962 3.3585 7.15962 1.91657V1.53563H21.2921C22.0051 1.53563 22.1876 1.71671 22.1876 2.42493C22.1876 9.6346 22.1876 16.844 22.1876 24.0533V24.4127H23.5962C23.6016 24.3088 23.6123 24.2015 23.6123 24.0948C23.6123 16.8744 23.6123 9.6536 23.6123 2.43231C23.6123 1.09098 22.6296 0.110464 21.2874 0.109793C16.4579 0.109793 11.6283 0.115158 6.79875 0.101074C6.3225 0.101074 5.98577 0.24728 5.65307 0.585295C3.92114 2.34647 2.16506 4.08416 0.421053 5.83393C0.272354 5.9978 0.131985 6.16904 0.000478745 6.34699L0.00182152 26.9365ZM5.70137 5.80174H2.6024C3.62734 4.76891 4.66637 3.72267 5.70137 2.68314V5.80174Z" fill="#8D8D8D"/>
<path d="M18.5985 13.6975C18.5791 10.1886 15.5968 7.24505 12.086 7.26919C8.68118 7.29199 5.7043 10.3107 5.7204 13.723C5.7365 17.1662 8.76235 20.1681 12.1947 20.146C15.627 20.1239 18.618 17.1206 18.5985 13.6975ZM12.1732 18.7027C9.30165 18.7074 7.16926 16.5861 7.1639 13.7177C7.15853 10.8492 9.28555 8.70107 12.141 8.6957C15.0126 8.68966 17.1671 10.8204 17.1718 13.6687C17.1772 16.5606 15.0549 18.6987 12.1732 18.7027Z" fill="#8D8D8D"/>
<path d="M12.9041 14.1452L10.5698 11.7979L9.55899 12.8374C9.91785 13.1928 10.3143 13.5832 10.7087 13.9775C11.2393 14.506 11.7652 15.0392 12.2984 15.565C12.6808 15.9432 13.0609 15.9495 13.4387 15.5838C13.8969 15.1418 14.3476 14.6931 14.7803 14.2652L13.7406 13.2116L12.9041 14.1452Z" fill="#8D8D8D"/>
</svg>
