<svg width="26" height="30" viewBox="0 0 26 30" fill="none" xmlns="http://www.w3.org/2000/svg">
<path d="M24.7794 0.90332C25.1788 1.06377 25.3307 1.36553 25.3267 1.7868C25.3149 3.09617 25.3267 4.40489 25.3208 5.71426C25.3208 6.22005 25.0303 6.53303 24.5899 6.52048C24.1858 6.5086 23.9124 6.20552 23.9091 5.74661C23.9038 5.015 23.9091 4.28339 23.9091 3.51744C23.8637 3.53767 23.8207 3.56292 23.781 3.59272C21.8199 5.51749 19.565 7.04542 17.1958 8.40894C12.5797 11.066 7.71988 13.1499 2.57351 14.5497C2.03602 14.6956 1.48929 14.8086 0.945209 14.9294C0.475736 15.0331 0.104648 14.8165 0.02079 14.4012C-0.0591061 14.0169 0.187185 13.6616 0.626944 13.5665C4.74391 12.6784 8.64033 11.1663 12.4304 9.36637C15.4157 7.94409 18.2919 6.33032 20.8988 4.27085C21.6416 3.68318 22.3349 3.03344 23.0507 2.4121L23.0078 2.3124H22.7258C21.9843 2.3124 21.2428 2.31768 20.5013 2.3124C20.0245 2.3091 19.7089 2.03771 19.6964 1.62965C19.6858 1.25724 19.9116 1.04859 20.2193 0.90332H24.7794Z" fill="#8D8D8D"/>
<path d="M21.0947 19.882C21.0947 17.1365 21.0947 14.3912 21.0947 11.6461C21.0947 10.9858 21.343 10.7422 22.0092 10.7422C22.8148 10.7422 23.6201 10.7422 24.4253 10.7422C25.0552 10.7422 25.3187 10.9957 25.3187 11.6164C25.3187 17.144 25.3187 22.6711 25.3187 28.1979C25.3187 28.7545 25.0466 29.0272 24.4966 29.0285C23.6364 29.0285 22.7763 29.0285 21.9161 29.0285C21.3654 29.0285 21.0974 28.7558 21.0967 28.1979C21.0967 25.4246 21.0967 22.6513 21.0967 19.8781L21.0947 19.882ZM22.523 12.1724V27.5976H23.8904V12.1724H22.523Z" fill="#8D8D8D"/>
<path d="M14.0645 21.2853V14.4499C14.0645 13.8021 14.3088 13.5584 14.9625 13.5571C15.7764 13.5571 16.5908 13.5571 17.4056 13.5571C18.0315 13.5571 18.289 13.8166 18.289 14.4419C18.289 19.0086 18.289 23.575 18.289 28.1412C18.289 28.7731 18.0355 29.0299 17.4142 29.0299C16.572 29.0299 15.7302 29.0299 14.8885 29.0299C14.3352 29.0299 14.0651 28.7579 14.0651 28.2032C14.0651 25.8975 14.0651 23.5913 14.0651 21.2846L14.0645 21.2853ZM15.4927 14.9755V27.6063H16.8522V14.9755H15.4927Z" fill="#8D8D8D"/>
<path d="M7.03191 22.7074C7.03191 20.8863 7.03191 19.0652 7.03191 17.2441C7.03191 16.6267 7.27754 16.3797 7.89558 16.3784C8.73768 16.3784 9.57956 16.3784 10.4212 16.3784C10.9983 16.3784 11.2539 16.6425 11.2539 17.2216C11.2539 20.8753 11.2539 24.5265 11.2539 28.1753C11.2539 28.7696 10.9897 29.0337 10.4008 29.0337C9.5679 29.0337 8.73526 29.0337 7.90284 29.0337C7.28943 29.0337 7.03125 28.7788 7.03125 28.1753C7.03169 26.3511 7.03191 24.5285 7.03191 22.7074ZM8.45948 17.7921V27.6055H9.82299V17.7921H8.45948Z" fill="#8D8D8D"/>
<path d="M0 24.0898C0 22.7348 0 21.3801 0 20.0256C0 19.4499 0.26412 19.1937 0.840561 19.1937C1.69895 19.1937 2.5613 19.1897 3.42167 19.1937C3.94595 19.1937 4.22195 19.465 4.22261 19.986C4.22481 22.7302 4.22591 25.4749 4.22591 28.2199C4.22591 28.7561 3.94529 29.0321 3.40978 29.0321C2.53995 29.0321 1.67034 29.0321 0.800943 29.0321C0.281287 29.0321 0.00330149 28.7568 0.0019809 28.2398C0 26.8531 0 25.4718 0 24.0898ZM1.42823 20.6021V27.6065H2.78844V20.6021H1.42823Z" fill="#8D8D8D"/>
</svg>
