<svg width="28" height="29" viewBox="0 0 28 29" fill="none" xmlns="http://www.w3.org/2000/svg">
<path d="M15.2035 26.0208H2.36942V2.61717H15.2035V11.1875C16.0742 11.1875 16.9081 11.1875 17.6759 11.1875V0H0V28.6227H17.6759V22.2658C16.9051 22.2658 16.0731 22.2658 15.2035 22.2658V26.0208Z" fill="#8D8D8D"/>
<path d="M27.4406 16.2493C26.8289 15.6417 21.0103 10.0067 21.0103 10.0067C21.0103 10.0067 20.2355 9.22672 20.2355 10.2585C20.2355 11.2954 20.2355 12.9419 20.2355 12.9419C20.2355 12.9419 19.7869 12.9419 19.1007 12.9419C16.9821 12.9419 9.67198 12.9419 8.09271 12.9419C8.09271 12.9419 7.72363 12.9287 7.72363 13.4079C7.72363 13.8871 7.72363 19.3243 7.72363 19.9941C7.72363 20.667 8.16408 20.5488 8.16408 20.5488C9.78821 20.5488 16.9628 20.5488 19.1548 20.5488C19.9215 20.5488 20.42 20.5488 20.42 20.5488C20.42 20.5488 20.42 22.6021 20.42 23.4535C20.42 24.3017 21.1582 23.5207 21.1582 23.5207L27.3886 17.1149C27.3886 17.1149 27.8851 16.6939 27.4406 16.2493Z" fill="#8D8D8D"/>
</svg>
