<svg width="18" height="18" viewBox="0 0 18 18" fill="none" xmlns="http://www.w3.org/2000/svg">
<g clip-path="url(#clip0)">
<mask id="path-1-outside-1" maskUnits="userSpaceOnUse" x="10.7861" y="0.197754" width="7" height="6" fill="black">
<rect fill="white" x="10.7861" y="0.197754" width="7" height="6"/>
<path d="M14.3192 5.89643C14.3777 5.95494 14.4542 5.98405 14.5307 5.98405C14.6071 5.98405 14.6838 5.9548 14.7423 5.89643L16.8267 3.81205C17.4238 3.21481 17.4238 2.24293 16.8267 1.64569C16.2294 1.04831 15.2574 1.04858 14.6603 1.64569L14.5307 1.77505L14.4013 1.64569C13.8038 1.04844 12.8322 1.04844 12.2349 1.64569C11.9456 1.93504 11.7861 2.3197 11.7861 2.7288C11.7861 3.13791 11.9456 3.5227 12.2349 3.81192L14.3192 5.89643ZM12.658 2.0688C12.8401 1.8867 13.0791 1.79593 13.318 1.79593C13.557 1.79593 13.7962 1.88684 13.9782 2.0688L14.3192 2.40992C14.3753 2.46595 14.4514 2.49754 14.5307 2.49754C14.61 2.49754 14.6861 2.46595 14.7423 2.40992L15.0834 2.0688C15.4476 1.70446 16.0396 1.70488 16.4035 2.0688C16.7675 2.43272 16.7675 3.02502 16.4035 3.38894L14.5307 5.2617L12.658 3.38894C12.4817 3.21261 12.3845 2.97805 12.3845 2.72894C12.3846 2.47955 12.4817 2.24499 12.658 2.0688Z"/>
</mask>
<path d="M14.3192 5.89643C14.3777 5.95494 14.4542 5.98405 14.5307 5.98405C14.6071 5.98405 14.6838 5.9548 14.7423 5.89643L16.8267 3.81205C17.4238 3.21481 17.4238 2.24293 16.8267 1.64569C16.2294 1.04831 15.2574 1.04858 14.6603 1.64569L14.5307 1.77505L14.4013 1.64569C13.8038 1.04844 12.8322 1.04844 12.2349 1.64569C11.9456 1.93504 11.7861 2.3197 11.7861 2.7288C11.7861 3.13791 11.9456 3.5227 12.2349 3.81192L14.3192 5.89643ZM12.658 2.0688C12.8401 1.8867 13.0791 1.79593 13.318 1.79593C13.557 1.79593 13.7962 1.88684 13.9782 2.0688L14.3192 2.40992C14.3753 2.46595 14.4514 2.49754 14.5307 2.49754C14.61 2.49754 14.6861 2.46595 14.7423 2.40992L15.0834 2.0688C15.4476 1.70446 16.0396 1.70488 16.4035 2.0688C16.7675 2.43272 16.7675 3.02502 16.4035 3.38894L14.5307 5.2617L12.658 3.38894C12.4817 3.21261 12.3845 2.97805 12.3845 2.72894C12.3846 2.47955 12.4817 2.24499 12.658 2.0688Z" fill="#8D8D8D"/>
<path d="M14.3192 5.89643C14.3777 5.95494 14.4542 5.98405 14.5307 5.98405C14.6071 5.98405 14.6838 5.9548 14.7423 5.89643L16.8267 3.81205C17.4238 3.21481 17.4238 2.24293 16.8267 1.64569C16.2294 1.04831 15.2574 1.04858 14.6603 1.64569L14.5307 1.77505L14.4013 1.64569C13.8038 1.04844 12.8322 1.04844 12.2349 1.64569C11.9456 1.93504 11.7861 2.3197 11.7861 2.7288C11.7861 3.13791 11.9456 3.5227 12.2349 3.81192L14.3192 5.89643ZM12.658 2.0688C12.8401 1.8867 13.0791 1.79593 13.318 1.79593C13.557 1.79593 13.7962 1.88684 13.9782 2.0688L14.3192 2.40992C14.3753 2.46595 14.4514 2.49754 14.5307 2.49754C14.61 2.49754 14.6861 2.46595 14.7423 2.40992L15.0834 2.0688C15.4476 1.70446 16.0396 1.70488 16.4035 2.0688C16.7675 2.43272 16.7675 3.02502 16.4035 3.38894L14.5307 5.2617L12.658 3.38894C12.4817 3.21261 12.3845 2.97805 12.3845 2.72894C12.3846 2.47955 12.4817 2.24499 12.658 2.0688Z" stroke="#8D8D8D" stroke-width="0.3" mask="url(#path-1-outside-1)"/>
<mask id="path-2-outside-2" maskUnits="userSpaceOnUse" x="-0.683594" y="-1" width="19" height="20" fill="black">
<rect fill="white" x="-0.683594" y="-1" width="19" height="20"/>
<path d="M17.3372 17.355C14.7798 17.6387 12.7516 16.5063 12.7312 16.4949C12.6624 16.4556 12.5809 16.445 12.5044 16.466C12.4721 16.4747 9.25516 17.337 6.66417 16.7618C5.0489 16.4027 3.52537 15.265 2.41287 14.4343C2.26346 14.3227 2.12187 14.2169 1.98894 14.1198C1.80739 13.987 1.51872 13.8766 1.26425 13.7791C1.14999 13.7354 0.993439 13.6754 0.959793 13.6544C0.930679 13.6316 0.914749 13.5981 0.914749 13.5597V12.8662C0.929169 12.3175 3.22998 3.87351 3.58676 2.79932C3.59555 2.78669 3.62988 2.76183 3.65515 2.74989L8.20843 0.670175L9.68046 2.5866C9.75311 2.68589 9.74624 2.82473 9.6644 2.91633L8.20981 4.54697C8.11464 4.65382 7.95437 4.66549 7.85495 4.58241L7.26677 4.04009C7.19783 3.97665 7.09978 3.95564 7.0079 3.97253C6.91575 3.98901 6.83336 4.05465 6.79079 4.13815C6.74162 4.23496 6.29626 4.35362 5.84198 4.35705L5.69394 4.34208C5.57529 4.32793 5.4602 4.38987 5.40225 4.49438C5.34402 4.59889 5.35391 4.72797 5.42697 4.82273C5.55331 4.98602 5.65178 5.11717 5.70753 5.19242L5.99867 10.1413C5.81822 10.8442 5.65288 11.0439 5.61182 11.0838C5.49055 11.1222 5.40253 11.2355 5.40253 11.3692C5.40253 11.5344 5.53656 11.6684 5.70177 11.6684C6.04111 11.6684 6.3295 11.2225 6.56103 10.352C8.94081 8.5714 11.0176 10.2519 11.1805 10.3902C11.9364 11.1488 11.9832 11.6527 11.9847 11.675C11.9883 11.8371 12.1208 11.9676 12.2839 11.9676C12.4492 11.9676 12.5832 11.8337 12.5832 11.6684C12.5832 11.5996 12.5582 11.0093 11.7838 10.1563C12.5141 9.25846 13.3456 8.74128 14.2615 8.62867C15.8405 8.43421 17.1678 9.49604 17.1811 9.50661C17.3094 9.61098 17.4975 9.59176 17.6019 9.46377C17.7063 9.33591 17.6874 9.14777 17.5597 9.04327C17.4979 8.99287 16.0286 7.81088 14.1945 8.03403C13.1223 8.16409 12.1599 8.74389 11.3303 9.75875C10.657 9.3009 8.72644 8.26461 6.56735 9.61991L6.29956 5.06869C6.29681 5.01952 6.28171 4.97187 6.25603 4.92999C6.52382 4.89826 6.8427 4.82836 7.07396 4.6762L7.45944 5.03147C7.81828 5.33263 8.34384 5.29514 8.65613 4.9455L10.1107 3.31472C10.3791 3.01411 10.4014 2.55955 10.1593 2.22804L8.53775 0.116876C8.45315 0.0066005 8.30347 -0.0308903 8.17616 0.0270625L3.41016 2.204C3.36031 2.22584 3.10748 2.3482 3.0244 2.59814C2.85493 3.1068 0.316406 12.16 0.316406 12.8653V13.5599C0.316406 13.7828 0.416519 13.9889 0.59079 14.1255C0.677994 14.1938 0.808319 14.2454 1.05043 14.338C1.24818 14.4138 1.51886 14.5172 1.63573 14.6028C1.76729 14.6989 1.90709 14.8034 2.05485 14.9138C3.21075 15.7771 4.79375 16.9592 6.53453 17.346C9.01263 17.8967 11.9217 17.231 12.5451 17.0739C12.9615 17.2891 14.4892 18 16.4891 18C16.7842 18 17.0898 17.9846 17.4033 17.9496C17.5675 17.9315 17.6858 17.7834 17.6677 17.6193C17.6493 17.4548 17.5008 17.3356 17.3372 17.355Z"/>
</mask>
<path d="M17.3372 17.355C14.7798 17.6387 12.7516 16.5063 12.7312 16.4949C12.6624 16.4556 12.5809 16.445 12.5044 16.466C12.4721 16.4747 9.25516 17.337 6.66417 16.7618C5.0489 16.4027 3.52537 15.265 2.41287 14.4343C2.26346 14.3227 2.12187 14.2169 1.98894 14.1198C1.80739 13.987 1.51872 13.8766 1.26425 13.7791C1.14999 13.7354 0.993439 13.6754 0.959793 13.6544C0.930679 13.6316 0.914749 13.5981 0.914749 13.5597V12.8662C0.929169 12.3175 3.22998 3.87351 3.58676 2.79932C3.59555 2.78669 3.62988 2.76183 3.65515 2.74989L8.20843 0.670175L9.68046 2.5866C9.75311 2.68589 9.74624 2.82473 9.6644 2.91633L8.20981 4.54697C8.11464 4.65382 7.95437 4.66549 7.85495 4.58241L7.26677 4.04009C7.19783 3.97665 7.09978 3.95564 7.0079 3.97253C6.91575 3.98901 6.83336 4.05465 6.79079 4.13815C6.74162 4.23496 6.29626 4.35362 5.84198 4.35705L5.69394 4.34208C5.57529 4.32793 5.4602 4.38987 5.40225 4.49438C5.34402 4.59889 5.35391 4.72797 5.42697 4.82273C5.55331 4.98602 5.65178 5.11717 5.70753 5.19242L5.99867 10.1413C5.81822 10.8442 5.65288 11.0439 5.61182 11.0838C5.49055 11.1222 5.40253 11.2355 5.40253 11.3692C5.40253 11.5344 5.53656 11.6684 5.70177 11.6684C6.04111 11.6684 6.3295 11.2225 6.56103 10.352C8.94081 8.5714 11.0176 10.2519 11.1805 10.3902C11.9364 11.1488 11.9832 11.6527 11.9847 11.675C11.9883 11.8371 12.1208 11.9676 12.2839 11.9676C12.4492 11.9676 12.5832 11.8337 12.5832 11.6684C12.5832 11.5996 12.5582 11.0093 11.7838 10.1563C12.5141 9.25846 13.3456 8.74128 14.2615 8.62867C15.8405 8.43421 17.1678 9.49604 17.1811 9.50661C17.3094 9.61098 17.4975 9.59176 17.6019 9.46377C17.7063 9.33591 17.6874 9.14777 17.5597 9.04327C17.4979 8.99287 16.0286 7.81088 14.1945 8.03403C13.1223 8.16409 12.1599 8.74389 11.3303 9.75875C10.657 9.3009 8.72644 8.26461 6.56735 9.61991L6.29956 5.06869C6.29681 5.01952 6.28171 4.97187 6.25603 4.92999C6.52382 4.89826 6.8427 4.82836 7.07396 4.6762L7.45944 5.03147C7.81828 5.33263 8.34384 5.29514 8.65613 4.9455L10.1107 3.31472C10.3791 3.01411 10.4014 2.55955 10.1593 2.22804L8.53775 0.116876C8.45315 0.0066005 8.30347 -0.0308903 8.17616 0.0270625L3.41016 2.204C3.36031 2.22584 3.10748 2.3482 3.0244 2.59814C2.85493 3.1068 0.316406 12.16 0.316406 12.8653V13.5599C0.316406 13.7828 0.416519 13.9889 0.59079 14.1255C0.677994 14.1938 0.808319 14.2454 1.05043 14.338C1.24818 14.4138 1.51886 14.5172 1.63573 14.6028C1.76729 14.6989 1.90709 14.8034 2.05485 14.9138C3.21075 15.7771 4.79375 16.9592 6.53453 17.346C9.01263 17.8967 11.9217 17.231 12.5451 17.0739C12.9615 17.2891 14.4892 18 16.4891 18C16.7842 18 17.0898 17.9846 17.4033 17.9496C17.5675 17.9315 17.6858 17.7834 17.6677 17.6193C17.6493 17.4548 17.5008 17.3356 17.3372 17.355Z" fill="#8D8D8D"/>
<path d="M17.3372 17.355C14.7798 17.6387 12.7516 16.5063 12.7312 16.4949C12.6624 16.4556 12.5809 16.445 12.5044 16.466C12.4721 16.4747 9.25516 17.337 6.66417 16.7618C5.0489 16.4027 3.52537 15.265 2.41287 14.4343C2.26346 14.3227 2.12187 14.2169 1.98894 14.1198C1.80739 13.987 1.51872 13.8766 1.26425 13.7791C1.14999 13.7354 0.993439 13.6754 0.959793 13.6544C0.930679 13.6316 0.914749 13.5981 0.914749 13.5597V12.8662C0.929169 12.3175 3.22998 3.87351 3.58676 2.79932C3.59555 2.78669 3.62988 2.76183 3.65515 2.74989L8.20843 0.670175L9.68046 2.5866C9.75311 2.68589 9.74624 2.82473 9.6644 2.91633L8.20981 4.54697C8.11464 4.65382 7.95437 4.66549 7.85495 4.58241L7.26677 4.04009C7.19783 3.97665 7.09978 3.95564 7.0079 3.97253C6.91575 3.98901 6.83336 4.05465 6.79079 4.13815C6.74162 4.23496 6.29626 4.35362 5.84198 4.35705L5.69394 4.34208C5.57529 4.32793 5.4602 4.38987 5.40225 4.49438C5.34402 4.59889 5.35391 4.72797 5.42697 4.82273C5.55331 4.98602 5.65178 5.11717 5.70753 5.19242L5.99867 10.1413C5.81822 10.8442 5.65288 11.0439 5.61182 11.0838C5.49055 11.1222 5.40253 11.2355 5.40253 11.3692C5.40253 11.5344 5.53656 11.6684 5.70177 11.6684C6.04111 11.6684 6.3295 11.2225 6.56103 10.352C8.94081 8.5714 11.0176 10.2519 11.1805 10.3902C11.9364 11.1488 11.9832 11.6527 11.9847 11.675C11.9883 11.8371 12.1208 11.9676 12.2839 11.9676C12.4492 11.9676 12.5832 11.8337 12.5832 11.6684C12.5832 11.5996 12.5582 11.0093 11.7838 10.1563C12.5141 9.25846 13.3456 8.74128 14.2615 8.62867C15.8405 8.43421 17.1678 9.49604 17.1811 9.50661C17.3094 9.61098 17.4975 9.59176 17.6019 9.46377C17.7063 9.33591 17.6874 9.14777 17.5597 9.04327C17.4979 8.99287 16.0286 7.81088 14.1945 8.03403C13.1223 8.16409 12.1599 8.74389 11.3303 9.75875C10.657 9.3009 8.72644 8.26461 6.56735 9.61991L6.29956 5.06869C6.29681 5.01952 6.28171 4.97187 6.25603 4.92999C6.52382 4.89826 6.8427 4.82836 7.07396 4.6762L7.45944 5.03147C7.81828 5.33263 8.34384 5.29514 8.65613 4.9455L10.1107 3.31472C10.3791 3.01411 10.4014 2.55955 10.1593 2.22804L8.53775 0.116876C8.45315 0.0066005 8.30347 -0.0308903 8.17616 0.0270625L3.41016 2.204C3.36031 2.22584 3.10748 2.3482 3.0244 2.59814C2.85493 3.1068 0.316406 12.16 0.316406 12.8653V13.5599C0.316406 13.7828 0.416519 13.9889 0.59079 14.1255C0.677994 14.1938 0.808319 14.2454 1.05043 14.338C1.24818 14.4138 1.51886 14.5172 1.63573 14.6028C1.76729 14.6989 1.90709 14.8034 2.05485 14.9138C3.21075 15.7771 4.79375 16.9592 6.53453 17.346C9.01263 17.8967 11.9217 17.231 12.5451 17.0739C12.9615 17.2891 14.4892 18 16.4891 18C16.7842 18 17.0898 17.9846 17.4033 17.9496C17.5675 17.9315 17.6858 17.7834 17.6677 17.6193C17.6493 17.4548 17.5008 17.3356 17.3372 17.355Z" stroke="#8D8D8D" stroke-width="0.5" mask="url(#path-2-outside-2)"/>
<mask id="path-3-outside-3" maskUnits="userSpaceOnUse" x="14.2754" y="12.4634" width="4" height="3" fill="black">
<rect fill="white" x="14.2754" y="12.4634" width="4" height="3"/>
<path d="M15.8721 13.7295C15.8556 13.5798 15.7289 13.4634 15.5746 13.4634C15.4094 13.4634 15.2754 13.5974 15.2754 13.7626C15.2754 13.9624 15.423 14.6391 17.3206 14.9552C17.3373 14.9579 17.3539 14.9593 17.3701 14.9593C17.5137 14.9593 17.6405 14.8556 17.6649 14.7094C17.692 14.5464 17.5818 14.3923 17.419 14.3649C16.092 14.1438 15.8898 13.7693 15.8721 13.7295Z"/>
</mask>
<path d="M15.8721 13.7295C15.8556 13.5798 15.7289 13.4634 15.5746 13.4634C15.4094 13.4634 15.2754 13.5974 15.2754 13.7626C15.2754 13.9624 15.423 14.6391 17.3206 14.9552C17.3373 14.9579 17.3539 14.9593 17.3701 14.9593C17.5137 14.9593 17.6405 14.8556 17.6649 14.7094C17.692 14.5464 17.5818 14.3923 17.419 14.3649C16.092 14.1438 15.8898 13.7693 15.8721 13.7295Z" fill="#8D8D8D"/>
<path d="M15.8721 13.7295C15.8556 13.5798 15.7289 13.4634 15.5746 13.4634C15.4094 13.4634 15.2754 13.5974 15.2754 13.7626C15.2754 13.9624 15.423 14.6391 17.3206 14.9552C17.3373 14.9579 17.3539 14.9593 17.3701 14.9593C17.5137 14.9593 17.6405 14.8556 17.6649 14.7094C17.692 14.5464 17.5818 14.3923 17.419 14.3649C16.092 14.1438 15.8898 13.7693 15.8721 13.7295Z" stroke="#8D8D8D" stroke-width="0.3" mask="url(#path-3-outside-3)"/>
<mask id="path-4-outside-4" maskUnits="userSpaceOnUse" x="2.90625" y="12.1641" width="8" height="5" fill="black">
<rect fill="white" x="2.90625" y="12.1641" width="8" height="5"/>
<path d="M10.1267 15.2649C6.20801 16.1043 4.53108 13.4231 4.46173 13.3087C4.37618 13.1674 4.19284 13.1219 4.05153 13.2068C3.90981 13.2918 3.86394 13.4755 3.94895 13.6173C3.96872 13.6501 4.44484 14.4316 5.46286 15.0974C6.16434 15.5559 7.234 16.0231 8.68076 16.0231C9.16265 16.0231 9.68629 15.9714 10.2519 15.8502C10.4136 15.8156 10.5166 15.6565 10.482 15.495C10.4472 15.3335 10.2883 15.2301 10.1267 15.2649Z"/>
</mask>
<path d="M10.1267 15.2649C6.20801 16.1043 4.53108 13.4231 4.46173 13.3087C4.37618 13.1674 4.19284 13.1219 4.05153 13.2068C3.90981 13.2918 3.86394 13.4755 3.94895 13.6173C3.96872 13.6501 4.44484 14.4316 5.46286 15.0974C6.16434 15.5559 7.234 16.0231 8.68076 16.0231C9.16265 16.0231 9.68629 15.9714 10.2519 15.8502C10.4136 15.8156 10.5166 15.6565 10.482 15.495C10.4472 15.3335 10.2883 15.2301 10.1267 15.2649Z" fill="#8D8D8D"/>
<path d="M10.1267 15.2649C6.20801 16.1043 4.53108 13.4231 4.46173 13.3087C4.37618 13.1674 4.19284 13.1219 4.05153 13.2068C3.90981 13.2918 3.86394 13.4755 3.94895 13.6173C3.96872 13.6501 4.44484 14.4316 5.46286 15.0974C6.16434 15.5559 7.234 16.0231 8.68076 16.0231C9.16265 16.0231 9.68629 15.9714 10.2519 15.8502C10.4136 15.8156 10.5166 15.6565 10.482 15.495C10.4472 15.3335 10.2883 15.2301 10.1267 15.2649Z" stroke="#8D8D8D" stroke-width="0.3" mask="url(#path-4-outside-4)"/>
</g>
<defs>
<clipPath id="clip0">
<rect width="18" height="18" fill="white"/>
</clipPath>
</defs>
</svg>
